<svg width="328" height="29" viewBox="0 0 328 29" fill="none" xmlns="http://www.w3.org/2000/svg">
<path d="M323.722 26.7282C323.077 26.7282 322.551 26.623 322.144 26.4126C321.723 26.2162 321.31 25.8586 320.903 25.3396H321.387C320.91 25.8586 320.468 26.2162 320.061 26.4126C319.641 26.623 319.122 26.7282 318.505 26.7282C317.887 26.7282 317.375 26.5879 316.969 26.3074C316.562 26.0269 316.26 25.6552 316.064 25.1924C315.868 24.7295 315.77 24.2316 315.77 23.6986C315.77 22.815 316.008 22.0506 316.485 21.4054C316.948 20.7603 317.586 20.2623 318.399 19.9117C319.199 19.5611 320.103 19.3857 321.113 19.3857C322.151 19.3857 323.077 19.5681 323.89 19.9327C324.69 20.3114 325.321 20.8234 325.784 21.4686C326.247 22.1278 326.478 22.8851 326.478 23.7407C326.478 24.2456 326.394 24.7225 326.226 25.1713C326.043 25.6342 325.749 26.0059 325.342 26.2864C324.935 26.5809 324.395 26.7282 323.722 26.7282ZM323.217 24.8347C323.498 24.8347 323.722 24.7295 323.89 24.5191C324.059 24.3088 324.143 24.0282 324.143 23.6776C324.143 22.9342 323.855 22.3452 323.28 21.9104C322.705 21.4896 321.983 21.2792 321.113 21.2792C320.174 21.2792 319.437 21.4896 318.904 21.9104C318.357 22.3311 318.084 22.9062 318.084 23.6355C318.084 24.0002 318.168 24.2877 318.336 24.4981C318.505 24.7225 318.736 24.8347 319.03 24.8347C319.311 24.8347 319.542 24.7646 319.725 24.6243C319.893 24.4981 320.033 24.3158 320.146 24.0773H322.081C322.193 24.3438 322.334 24.5332 322.502 24.6454C322.67 24.7716 322.909 24.8347 323.217 24.8347ZM320.082 28.0957L320.167 26.3916H322.018L322.165 28.0957H320.082ZM319.998 22.8361C319.998 22.5275 320.103 22.2961 320.314 22.1418C320.524 22.0015 320.791 21.9314 321.113 21.9314C321.478 21.9314 321.758 22.0085 321.955 22.1628C322.151 22.3171 322.249 22.5415 322.249 22.8361C322.249 23.1586 322.151 23.3901 321.955 23.5303C321.744 23.6706 321.464 23.7407 321.113 23.7407C320.777 23.7407 320.51 23.6636 320.314 23.5093C320.103 23.369 319.998 23.1446 319.998 22.8361Z" fill="white"/>
<path d="M322.799 18.5059C322.21 18.5059 321.642 18.4218 321.095 18.2535C320.562 18.0992 320.008 17.8116 319.433 17.3909C318.872 16.9701 318.255 16.381 317.581 15.6236C317.273 15.273 317.02 15.0135 316.824 14.8452C316.642 14.6629 316.487 14.5437 316.361 14.4876C316.235 14.4174 316.095 14.3824 315.94 14.3824C315.758 14.3824 315.59 14.4595 315.436 14.6138C315.281 14.7681 315.204 14.9785 315.204 15.2449C315.204 15.5956 315.281 15.9673 315.436 16.36C315.604 16.7527 315.842 17.1735 316.151 17.6223L313.205 18.527C312.953 18.0361 312.736 17.5171 312.553 16.9701C312.385 16.4091 312.301 15.806 312.301 15.1608C312.301 14.5156 312.455 13.9476 312.764 13.4567C313.072 12.9517 313.493 12.559 314.026 12.2785C314.573 11.984 315.19 11.8367 315.877 11.8367C316.522 11.8367 317.091 11.9349 317.581 12.1312C318.072 12.3276 318.528 12.6081 318.949 12.9728C319.384 13.3375 319.826 13.7722 320.274 14.2772C320.681 14.712 321.025 15.0556 321.305 15.3081C321.586 15.5465 321.852 15.7148 322.105 15.813C322.371 15.9112 322.659 15.9603 322.967 15.9603C323.36 15.9603 323.69 15.82 323.956 15.5395C324.223 15.259 324.356 14.8382 324.356 14.2772C324.356 13.618 324.209 13.0359 323.914 12.531C323.619 12.0261 323.234 11.5772 322.757 11.1845C322.28 10.7778 321.775 10.4061 321.242 10.0695L322.904 7.7342C323.732 8.18302 324.475 8.71599 325.134 9.33312C325.793 9.95025 326.312 10.6515 326.691 11.437C327.084 12.2084 327.28 13.078 327.28 14.0457C327.28 14.9434 327.105 15.7288 326.754 16.4021C326.418 17.0613 325.913 17.5802 325.239 17.9589C324.58 18.3236 323.767 18.5059 322.799 18.5059ZM316.53 9.9222C315.87 9.9222 315.288 9.81701 314.783 9.60662C314.278 9.38221 313.851 9.02456 313.5 8.53366C313.149 8.02873 312.876 7.34849 312.679 6.49292L315.541 5.75657C315.695 6.47188 315.863 6.98382 316.046 7.29239C316.228 7.58693 316.48 7.7342 316.803 7.7342C317.013 7.7342 317.224 7.65705 317.434 7.50277C317.645 7.34849 317.925 7.05395 318.276 6.61915L319.159 5.50411C319.65 4.88698 320.113 4.4031 320.548 4.05246C320.983 3.68779 321.453 3.4213 321.957 3.25299C322.476 3.08468 323.094 2.99352 323.809 2.97949L323.977 5.41996C323.5 5.44801 323.087 5.53216 322.736 5.67242C322.399 5.79865 322.091 5.98099 321.81 6.21942C321.53 6.45786 321.235 6.77344 320.927 7.16616L320.232 8.02873C319.966 8.36535 319.65 8.68093 319.286 8.97547C318.921 9.25598 318.507 9.4874 318.044 9.66974C317.595 9.83805 317.091 9.9222 316.53 9.9222Z" fill="white"/>
<path d="M299.574 13.8946C299.574 13.011 299.785 12.2186 300.205 11.5173C300.626 10.816 301.222 10.262 301.994 9.85523C302.765 9.44849 303.684 9.24512 304.75 9.24512C305.83 9.24512 306.748 9.44849 307.506 9.85523C308.263 10.262 308.838 10.816 309.231 11.5173C309.638 12.2186 309.841 13.011 309.841 13.8946C309.841 14.7782 309.638 15.5707 309.231 16.272C308.824 16.9592 308.235 17.5062 307.464 17.913C306.706 18.3057 305.788 18.5021 304.708 18.5021C303.642 18.5021 302.723 18.2987 301.952 17.8919C301.18 17.4852 300.591 16.9382 300.184 16.2509C299.778 15.5497 299.574 14.7642 299.574 13.8946ZM302.393 13.8736C302.393 14.5188 302.583 15.0658 302.961 15.5146C303.354 15.9494 303.936 16.1668 304.708 16.1668C305.227 16.1668 305.654 16.0686 305.991 15.8722C306.328 15.6619 306.58 15.3813 306.748 15.0307C306.931 14.6801 307.022 14.2944 307.022 13.8736C307.022 13.2284 306.818 12.6884 306.412 12.2536C306.019 11.8048 305.451 11.5804 304.708 11.5804C304.217 11.5804 303.796 11.6856 303.445 11.896C303.109 12.0923 302.849 12.3658 302.667 12.7165C302.485 13.0531 302.393 13.4388 302.393 13.8736Z" fill="white"/>
<path d="M292.498 18.5059C291.909 18.5059 291.341 18.4218 290.794 18.2535C290.261 18.0992 289.707 17.8116 289.132 17.3909C288.571 16.9701 287.954 16.381 287.281 15.6236C286.972 15.273 286.72 15.0135 286.523 14.8452C286.341 14.6629 286.187 14.5437 286.06 14.4876C285.934 14.4174 285.794 14.3824 285.64 14.3824C285.457 14.3824 285.289 14.4595 285.135 14.6138C284.98 14.7681 284.903 14.9785 284.903 15.2449C284.903 15.5956 284.98 15.9673 285.135 16.36C285.303 16.7527 285.541 17.1735 285.85 17.6223L282.905 18.527C282.652 18.0361 282.435 17.5171 282.252 16.9701C282.084 16.4091 282 15.806 282 15.1608C282 14.5156 282.154 13.9476 282.463 13.4567C282.771 12.9517 283.192 12.559 283.725 12.2785C284.272 11.984 284.889 11.8367 285.577 11.8367C286.222 11.8367 286.79 11.9349 287.281 12.1312C287.772 12.3276 288.227 12.6081 288.648 12.9728C289.083 13.3375 289.525 13.7722 289.974 14.2772C290.38 14.712 290.724 15.0556 291.004 15.3081C291.285 15.5465 291.551 15.7148 291.804 15.813C292.07 15.9112 292.358 15.9603 292.667 15.9603C293.059 15.9603 293.389 15.82 293.655 15.5395C293.922 15.259 294.055 14.8382 294.055 14.2772C294.055 13.618 293.908 13.0359 293.613 12.531C293.319 12.0261 292.933 11.5772 292.456 11.1845C291.979 10.7778 291.474 10.4061 290.941 10.0695L292.603 7.7342C293.431 8.18302 294.174 8.71599 294.833 9.33312C295.493 9.95025 296.012 10.6515 296.39 11.437C296.783 12.2084 296.979 13.078 296.979 14.0457C296.979 14.9434 296.804 15.7288 296.453 16.4021C296.117 17.0613 295.612 17.5802 294.939 17.9589C294.279 18.3236 293.466 18.5059 292.498 18.5059ZM286.229 9.9222C285.57 9.9222 284.987 9.81701 284.483 9.60662C283.978 9.38221 283.55 9.02456 283.199 8.53366C282.849 8.02873 282.575 7.34849 282.379 6.49292L285.24 5.75657C285.394 6.47188 285.563 6.98382 285.745 7.29239C285.927 7.58693 286.18 7.7342 286.502 7.7342C286.713 7.7342 286.923 7.65705 287.133 7.50277C287.344 7.34849 287.624 7.05395 287.975 6.61915L288.859 5.50411C289.349 4.88698 289.812 4.4031 290.247 4.05246C290.682 3.68779 291.152 3.4213 291.657 3.25299C292.176 3.08468 292.793 2.99352 293.508 2.97949L293.676 5.41996C293.199 5.44801 292.786 5.53216 292.435 5.67242C292.098 5.79865 291.79 5.98099 291.509 6.21942C291.229 6.45786 290.934 6.77344 290.626 7.16616L289.932 8.02873C289.665 8.36535 289.349 8.68093 288.985 8.97547C288.62 9.25598 288.206 9.4874 287.743 9.66974C287.295 9.83805 286.79 9.9222 286.229 9.9222Z" fill="white"/>
<path d="M260.683 18.5012C259.785 18.5012 259.063 18.3539 258.516 18.0594C257.983 17.7508 257.597 17.3581 257.358 16.8812C257.134 16.4044 257.022 15.8994 257.022 15.3665C257.022 14.6792 257.176 14.1112 257.485 13.6624C257.793 13.2135 258.2 12.8839 258.705 12.6735C259.224 12.4491 259.771 12.3369 260.346 12.3369C261.075 12.3369 261.685 12.4632 262.176 12.7156C262.681 12.9541 263.095 13.2416 263.418 13.5782C263.754 13.9008 264.021 14.1883 264.217 14.4408L263.144 16.5867C262.99 16.208 262.8 15.8504 262.576 15.5137C262.366 15.1771 262.113 14.9036 261.819 14.6932C261.524 14.4688 261.173 14.3566 260.767 14.3566C260.458 14.3566 260.178 14.4408 259.925 14.6091C259.673 14.7774 259.547 15.0439 259.547 15.4085C259.547 15.7311 259.652 15.9836 259.862 16.1659C260.072 16.3483 260.353 16.4394 260.704 16.4394C261.166 16.4394 261.531 16.3132 261.798 16.0607C262.078 15.8083 262.275 15.4717 262.387 15.0509C262.499 14.6301 262.555 14.1743 262.555 13.6834V13.1574C262.555 12.5824 262.478 12.0634 262.324 11.6006C262.169 11.1377 261.924 10.7731 261.587 10.5066C261.265 10.2401 260.83 10.1068 260.283 10.1068C259.946 10.1068 259.638 10.184 259.357 10.3383C259.091 10.4785 258.866 10.6749 258.684 10.9273C258.502 11.1798 258.368 11.4743 258.284 11.811H255.57C255.5 11.5866 255.374 11.3411 255.192 11.0746C255.023 10.7941 254.771 10.5557 254.434 10.3593C254.098 10.1489 253.635 10.0437 253.046 10.0437C252.555 10.0437 252.155 10.1279 251.846 10.2962C251.552 10.4505 251.405 10.7099 251.405 11.0746C251.405 11.2149 251.426 11.3481 251.468 11.4743C251.524 11.5866 251.622 11.6847 251.762 11.7689C251.888 11.839 252.05 11.9021 252.246 11.9582C252.457 12.0003 252.779 12.0213 253.214 12.0213H254.455V14.2094H253.151C252.716 14.2094 252.379 14.2304 252.141 14.2725C251.903 14.3145 251.713 14.3917 251.573 14.5039C251.475 14.588 251.391 14.6932 251.32 14.8195C251.264 14.9317 251.236 15.0649 251.236 15.2192C251.236 15.4997 251.327 15.7311 251.51 15.9135C251.706 16.0958 252.022 16.187 252.457 16.187C252.919 16.187 253.333 16.0678 253.698 15.8293C254.076 15.5909 254.441 15.2753 254.792 14.8826L256.601 16.4815C256.222 16.9163 255.809 17.288 255.36 17.5966C254.925 17.8911 254.441 18.1155 253.908 18.2698C253.375 18.4241 252.765 18.5012 252.078 18.5012C250.759 18.5012 249.764 18.2277 249.09 17.6807C248.431 17.1197 248.102 16.4324 248.102 15.6189C248.102 15.2262 248.179 14.8615 248.333 14.5249C248.487 14.1743 248.726 13.8727 249.048 13.6203C249.385 13.3538 249.806 13.1434 250.311 12.9891L250.29 13.2626C249.602 13.0102 249.09 12.6806 248.754 12.2738C248.431 11.853 248.27 11.3551 248.27 10.7801C248.27 10.2611 248.452 9.81932 248.817 9.45465C249.196 9.07596 249.715 8.78142 250.374 8.57103C251.033 8.36065 251.79 8.25545 252.646 8.25545C253.403 8.25545 254.034 8.34662 254.539 8.52895C255.058 8.69726 255.514 8.94972 255.907 9.28634C256.314 9.60893 256.734 10.0087 257.169 10.4855L256.685 10.5066C257.022 10.0297 257.387 9.644 257.779 9.34946C258.172 9.04089 258.593 8.81648 259.042 8.67623C259.504 8.52194 259.988 8.4448 260.493 8.4448C261.559 8.4448 262.45 8.63415 263.165 9.01284C263.88 9.39153 264.42 9.94555 264.785 10.6749C265.15 11.4042 265.332 12.2948 265.332 13.3468C265.332 14.3847 265.164 15.2963 264.827 16.0818C264.491 16.8532 263.979 17.4493 263.291 17.8701C262.604 18.2908 261.735 18.5012 260.683 18.5012ZM270.213 14.3777C269.568 14.3777 269.035 14.2795 268.614 14.0831C268.193 13.8868 267.864 13.6413 267.625 13.3468C267.387 13.0382 267.219 12.7156 267.12 12.379C267.022 12.0424 266.973 11.7338 266.973 11.4533C266.973 10.8783 267.064 10.4084 267.247 10.0437C267.429 9.67906 267.618 9.34244 267.815 9.03388L270.087 9.20219C269.778 9.49673 269.533 9.78425 269.35 10.0648C269.168 10.3453 269.077 10.7029 269.077 11.1377C269.077 11.4884 269.182 11.7759 269.393 12.0003C269.617 12.2247 269.897 12.3369 270.234 12.3369C270.641 12.3369 270.942 12.2387 271.139 12.0424C271.349 11.832 271.454 11.5725 271.454 11.264C271.454 10.8432 271.279 10.5487 270.928 10.3803C270.592 10.198 270.136 10.1068 269.561 10.1068H255.255L253.824 9.5388L251.236 10.1068H248.333V7.72949H267.752C268.607 7.72949 269.315 7.75754 269.876 7.81365C270.451 7.85572 270.935 7.93988 271.328 8.06611C271.735 8.19234 272.106 8.3887 272.443 8.65519C272.794 8.92167 273.074 9.25829 273.285 9.66504C273.495 10.0718 273.6 10.5837 273.6 11.2008C273.6 12.1125 273.299 12.8699 272.696 13.473C272.107 14.0761 271.279 14.3777 270.213 14.3777Z" fill="white"/>
<path d="M233.448 18.5012C232.775 18.5012 232.178 18.403 231.659 18.2067C231.141 18.0103 230.615 17.6807 230.082 17.2179C229.563 16.741 228.939 16.0958 228.209 15.2823C227.816 14.8335 227.508 14.5249 227.283 14.3566C227.059 14.1743 226.8 14.0831 226.505 14.0831C226.281 14.0831 226.056 14.1743 225.832 14.3566C225.621 14.5249 225.516 14.7914 225.516 15.1561C225.516 15.5909 225.628 15.8924 225.853 16.0607C226.091 16.229 226.365 16.3132 226.673 16.3132C227.01 16.3132 227.347 16.1729 227.683 15.8924C228.02 15.6119 228.258 15.1491 228.399 14.5039L230.145 16.3553C229.864 16.748 229.57 17.1127 229.261 17.4493C228.967 17.7719 228.595 18.0313 228.146 18.2277C227.697 18.41 227.094 18.5012 226.337 18.5012C225.509 18.5012 224.829 18.3469 224.296 18.0384C223.777 17.7158 223.391 17.302 223.139 16.7971C222.9 16.2781 222.781 15.7382 222.781 15.1771C222.781 14.5039 222.943 13.9218 223.265 13.4309C223.588 12.926 224.03 12.5333 224.591 12.2528C225.152 11.9723 225.783 11.832 226.484 11.832C227.073 11.832 227.592 11.9091 228.041 12.0634C228.49 12.2177 228.924 12.4702 229.345 12.8208C229.78 13.1715 230.257 13.6343 230.776 14.2094C231.225 14.7003 231.596 15.0719 231.891 15.3244C232.185 15.5769 232.452 15.7452 232.69 15.8293C232.929 15.9135 233.174 15.9555 233.427 15.9555C233.876 15.9555 234.233 15.8153 234.5 15.5348C234.766 15.2543 234.899 14.8054 234.899 14.1883C234.899 13.473 234.71 12.8208 234.331 12.2317C233.953 11.6427 233.434 11.1377 232.775 10.717C232.115 10.2962 231.365 9.99464 230.523 9.8123L235.552 9.72815C236.014 10.0367 236.414 10.4084 236.751 10.8432C237.101 11.264 237.368 11.7408 237.55 12.2738C237.733 12.7928 237.824 13.3608 237.824 13.9779C237.824 14.8896 237.655 15.6891 237.319 16.3763C236.982 17.0496 236.484 17.5755 235.825 17.9542C235.18 18.3189 234.387 18.5012 233.448 18.5012ZM242.515 14.3777C241.87 14.3777 241.337 14.2795 240.916 14.0831C240.496 13.8868 240.166 13.6413 239.928 13.3468C239.689 13.0382 239.521 12.7156 239.423 12.379C239.325 12.0424 239.275 11.7338 239.275 11.4533C239.275 10.8783 239.367 10.4084 239.549 10.0437C239.731 9.67906 239.921 9.34244 240.117 9.03388L242.368 9.20219C242.074 9.49673 241.835 9.78425 241.653 10.0648C241.47 10.3453 241.379 10.7029 241.379 11.1377C241.379 11.4884 241.484 11.7759 241.695 12.0003C241.919 12.2247 242.2 12.3369 242.536 12.3369C242.943 12.3369 243.245 12.2387 243.441 12.0424C243.637 11.832 243.736 11.5725 243.736 11.264C243.736 10.8432 243.567 10.5487 243.231 10.3803C242.894 10.198 242.445 10.1068 241.884 10.1068H225.011V7.72949H240.054C240.909 7.72949 241.618 7.75754 242.179 7.81365C242.74 7.85572 243.217 7.93988 243.609 8.06611C244.016 8.19234 244.388 8.3887 244.724 8.65519C245.089 8.92167 245.37 9.25829 245.566 9.66504C245.776 10.0718 245.882 10.5837 245.882 11.2008C245.882 12.1125 245.587 12.8699 244.998 13.473C244.409 14.0761 243.581 14.3777 242.515 14.3777Z" fill="white"/>
<path d="M208.5 13.2884C208.5 12.2505 208.724 11.3178 209.173 10.4902C209.622 9.6487 210.281 8.98248 211.151 8.49158C212.034 7.98666 213.114 7.7342 214.391 7.7342C215.681 7.7342 216.761 7.97263 217.631 8.4495C218.5 8.91235 219.152 9.55753 219.587 10.385C220.036 11.2126 220.261 12.1733 220.261 13.2673C220.261 14.2912 220.043 15.2029 219.608 16.0023C219.174 16.7878 218.521 17.4049 217.652 17.8537C216.782 18.2885 215.695 18.5059 214.391 18.5059C213.086 18.5059 211.992 18.2815 211.109 17.8327C210.239 17.3839 209.587 16.7667 209.152 15.9813C208.717 15.1959 208.5 14.2982 208.5 13.2884ZM211.424 13.0149C211.424 13.8704 211.67 14.5787 212.161 15.1397C212.666 15.6868 213.409 15.9603 214.391 15.9603C215.05 15.9603 215.597 15.841 216.032 15.6026C216.467 15.3501 216.796 15.0135 217.021 14.5928C217.245 14.158 217.357 13.6671 217.357 13.1201C217.357 12.559 217.245 12.0541 217.021 11.6053C216.81 11.1565 216.481 10.7988 216.032 10.5323C215.597 10.2518 215.05 10.1115 214.391 10.1115C213.718 10.1115 213.164 10.2448 212.729 10.5113C212.294 10.7778 211.964 11.1354 211.74 11.5842C211.53 12.019 211.424 12.4959 211.424 13.0149ZM213.507 9.9222C212.848 9.9222 212.266 9.81701 211.761 9.60662C211.256 9.38221 210.828 9.02456 210.478 8.53366C210.127 8.02873 209.853 7.34849 209.657 6.49292L212.518 5.75657C212.673 6.47188 212.841 6.98382 213.023 7.29239C213.206 7.58693 213.458 7.7342 213.781 7.7342C213.991 7.7342 214.201 7.65705 214.412 7.50277C214.622 7.34849 214.903 7.05395 215.253 6.61915L216.137 5.50411C216.628 4.88698 217.091 4.4031 217.526 4.05246C217.96 3.68779 218.43 3.4213 218.935 3.25299C219.454 3.08468 220.071 2.99352 220.786 2.97949L220.955 5.41996C220.478 5.44801 220.064 5.53216 219.714 5.67242C219.377 5.79865 219.068 5.98099 218.788 6.21942C218.507 6.45786 218.213 6.77344 217.904 7.16616L217.21 8.02873C216.943 8.36535 216.628 8.68093 216.263 8.97547C215.899 9.25598 215.485 9.4874 215.022 9.66974C214.573 9.83805 214.068 9.9222 213.507 9.9222Z" fill="white"/>
<path d="M187.278 26.7282C186.395 26.7282 185.715 26.63 185.238 26.4336C184.761 26.2373 184.34 25.9708 183.975 25.6342H184.102C183.709 26.069 183.309 26.3565 182.902 26.4968C182.482 26.651 181.998 26.7282 181.451 26.7282C180.918 26.7282 180.448 26.602 180.041 26.3495C179.634 26.1111 179.319 25.7604 179.094 25.2976C178.87 24.8347 178.758 24.2807 178.758 23.6355C178.758 22.794 178.989 22.0506 179.452 21.4054C179.901 20.7743 180.553 20.2764 181.409 19.9117C182.264 19.5611 183.274 19.3857 184.438 19.3857C185.406 19.3857 186.248 19.4489 186.963 19.5751C187.664 19.7013 188.407 19.8977 189.193 20.1642L188.372 22.0576C187.825 21.8472 187.349 21.686 186.942 21.5737C186.521 21.4615 186.121 21.3844 185.743 21.3423C185.35 21.3002 184.922 21.2792 184.459 21.2792C183.674 21.2792 183.029 21.3844 182.524 21.5948C182.019 21.8192 181.654 22.1067 181.43 22.4574C181.191 22.808 181.072 23.2007 181.072 23.6355C181.072 24.0002 181.156 24.2877 181.325 24.4981C181.479 24.7225 181.71 24.8347 182.019 24.8347C182.299 24.8347 182.538 24.7295 182.734 24.5191C182.916 24.3228 183.029 24.0493 183.071 23.6986H185.09C185.118 23.9371 185.175 24.1475 185.259 24.3298C185.343 24.5121 185.476 24.6524 185.658 24.7506C185.841 24.8487 186.093 24.8978 186.416 24.8978C186.57 24.9119 186.738 24.9259 186.921 24.9399C187.089 24.968 187.271 24.982 187.468 24.982C187.748 24.982 187.973 24.9329 188.141 24.8347C188.295 24.7506 188.372 24.6103 188.372 24.4139C188.372 24.2737 188.323 24.1615 188.225 24.0773C188.113 23.9932 187.959 23.9511 187.762 23.9511C187.58 23.9511 187.433 24.0072 187.32 24.1194C187.194 24.2316 187.131 24.4069 187.131 24.6454C187.131 24.8277 187.18 24.989 187.278 25.1293C187.363 25.2835 187.482 25.4238 187.636 25.55L186.079 25.9498C185.911 25.7113 185.792 25.4378 185.722 25.1293C185.637 24.8207 185.595 24.5752 185.595 24.3929C185.595 23.7758 185.792 23.2709 186.184 22.8781C186.563 22.4854 187.117 22.2891 187.846 22.2891C188.548 22.2891 189.116 22.4854 189.551 22.8781C189.971 23.2849 190.182 23.7828 190.182 24.3719C190.182 24.7646 190.098 25.1363 189.929 25.4869C189.747 25.8516 189.445 26.1461 189.025 26.3705C188.604 26.609 188.022 26.7282 187.278 26.7282Z" fill="white"/>
<path d="M193.854 18.5012C192.788 18.5012 191.89 18.2558 191.161 17.7649C190.432 17.274 189.737 16.6568 189.078 15.9135L190.698 14.1042C190.993 14.4408 191.301 14.7493 191.624 15.0299C191.932 15.3104 192.269 15.5348 192.634 15.7031C193.012 15.8714 193.419 15.9555 193.854 15.9555C194.345 15.9555 194.723 15.8153 194.99 15.5348C195.256 15.2543 195.39 14.8335 195.39 14.2725C195.39 13.6133 195.242 13.0312 194.948 12.5263C194.653 12.0213 194.268 11.5725 193.791 11.1798C193.314 10.7731 192.809 10.4014 192.276 10.0648L193.938 7.72949C194.766 8.17831 195.509 8.71129 196.168 9.32842C196.827 9.94555 197.346 10.6468 197.725 11.4323C198.118 12.2037 198.314 13.0733 198.314 14.041C198.314 15.3875 197.935 16.4675 197.178 17.281C196.421 18.0945 195.313 18.5012 193.854 18.5012Z" fill="white"/>
<path d="M185.867 18.5059C185.067 18.5059 184.387 18.4288 183.826 18.2745C183.265 18.1342 182.788 17.9309 182.396 17.6644C182.003 17.3839 181.652 17.0613 181.344 16.6966L181.491 16.7176C181.154 17.2085 180.797 17.5872 180.418 17.8537C180.053 18.1062 179.661 18.2745 179.24 18.3586C178.833 18.4568 178.377 18.5059 177.872 18.5059C176.764 18.5059 175.867 18.1132 175.179 17.3278C174.492 16.5423 174.148 15.4273 174.148 13.9826C174.148 12.6362 174.478 11.5001 175.137 10.5744C175.796 9.63467 176.729 8.92638 177.935 8.4495C179.142 7.97263 180.551 7.7342 182.164 7.7342C183.02 7.7342 183.798 7.78329 184.499 7.88146C185.201 7.97964 185.881 8.12691 186.54 8.32327C187.199 8.50561 187.894 8.74404 188.623 9.03858L187.34 11.3949C186.582 11.0583 185.916 10.7988 185.341 10.6165C184.78 10.4341 184.24 10.3079 183.721 10.2378C183.202 10.1536 182.634 10.1115 182.017 10.1115C180.867 10.1115 179.927 10.2799 179.198 10.6165C178.468 10.9391 177.928 11.3809 177.578 11.9419C177.241 12.4889 177.073 13.099 177.073 13.7722C177.073 14.5577 177.199 15.1187 177.451 15.4553C177.704 15.7919 178.055 15.9603 178.503 15.9603C178.966 15.9603 179.338 15.7919 179.618 15.4553C179.913 15.1187 180.088 14.6489 180.144 14.0457H182.732C182.774 14.5927 182.936 15.0346 183.216 15.3712C183.511 15.7078 184.001 15.9252 184.689 16.0234C184.899 16.0654 185.131 16.1005 185.383 16.1286C185.649 16.1426 185.93 16.1496 186.225 16.1496C186.617 16.1496 186.926 16.0725 187.15 15.9182C187.375 15.7639 187.487 15.5114 187.487 15.1608C187.487 14.9224 187.403 14.726 187.234 14.5717C187.08 14.4174 186.863 14.3403 186.582 14.3403C186.316 14.3403 186.084 14.4174 185.888 14.5717C185.706 14.726 185.614 14.9785 185.614 15.3291C185.614 15.5816 185.678 15.82 185.804 16.0444C185.93 16.2548 186.105 16.4441 186.33 16.6124L184.289 17.2015C184.051 16.8649 183.868 16.4792 183.742 16.0444C183.63 15.5956 183.574 15.2379 183.574 14.9714C183.574 14.1159 183.84 13.4286 184.373 12.9097C184.92 12.3767 185.685 12.1102 186.666 12.1102C187.312 12.1102 187.873 12.2434 188.349 12.5099C188.826 12.7764 189.198 13.1411 189.464 13.6039C189.731 14.0528 189.864 14.5577 189.864 15.1187C189.864 15.5395 189.794 15.9532 189.654 16.36C189.528 16.7667 189.31 17.1314 189.002 17.454C188.707 17.7766 188.3 18.0361 187.781 18.2324C187.262 18.4147 186.624 18.5059 185.867 18.5059ZM181.407 9.9222C180.748 9.9222 180.165 9.81701 179.661 9.60662C179.156 9.38221 178.728 9.02456 178.377 8.53366C178.027 8.02873 177.753 7.34849 177.557 6.49292L180.418 5.75657C180.572 6.47188 180.741 6.98382 180.923 7.29239C181.105 7.58693 181.358 7.7342 181.68 7.7342C181.891 7.7342 182.101 7.65705 182.311 7.50277C182.522 7.34849 182.802 7.05395 183.153 6.61915L184.037 5.50411C184.527 4.88698 184.99 4.4031 185.425 4.05246C185.86 3.68779 186.33 3.4213 186.835 3.25299C187.354 3.08468 187.971 2.99352 188.686 2.97949L188.854 5.41996C188.377 5.44801 187.964 5.53216 187.613 5.67242C187.276 5.79865 186.968 5.98099 186.687 6.21942C186.407 6.45786 186.112 6.77344 185.804 7.16616L185.109 8.02873C184.843 8.36535 184.527 8.68093 184.163 8.97547C183.798 9.25598 183.384 9.4874 182.922 9.66974C182.473 9.83805 181.968 9.9222 181.407 9.9222Z" fill="white"/>
<path d="M156.164 13.286C156.164 12.2481 156.388 11.3154 156.837 10.4879C157.286 9.64638 157.945 8.98016 158.815 8.48926C159.699 7.98434 160.779 7.73188 162.055 7.73188C163.345 7.73188 164.425 7.97031 165.295 8.44719C166.164 8.91003 166.817 9.55521 167.251 10.3827C167.7 11.2102 167.925 12.171 167.925 13.265C167.925 14.2889 167.707 15.2005 167.272 16C166.838 16.7854 166.185 17.4026 165.316 17.8514C164.446 18.2862 163.359 18.5036 162.055 18.5036C160.75 18.5036 159.656 18.2792 158.773 17.8304C157.903 17.3815 157.251 16.7644 156.816 15.979C156.381 15.1935 156.164 14.2959 156.164 13.286ZM159.088 13.0125C159.088 13.8681 159.334 14.5764 159.825 15.1374C160.33 15.6844 161.073 15.9579 162.055 15.9579C162.714 15.9579 163.261 15.8387 163.696 15.6003C164.131 15.3478 164.46 15.0112 164.685 14.5904C164.909 14.1556 165.021 13.6647 165.021 13.1177C165.021 12.5567 164.909 12.0518 164.685 11.603C164.474 11.1541 164.145 10.7965 163.696 10.53C163.261 10.2495 162.714 10.1092 162.055 10.1092C161.382 10.1092 160.828 10.2425 160.393 10.509C159.958 10.7754 159.628 11.1331 159.404 11.5819C159.194 12.0167 159.088 12.4936 159.088 13.0125ZM170.702 9.83573C170.056 9.83573 169.524 9.73755 169.103 9.54119C168.682 9.34483 168.345 9.09938 168.093 8.80484C167.854 8.49628 167.686 8.17369 167.588 7.83707C167.49 7.50045 167.441 7.1989 167.441 6.93241C167.441 6.35736 167.532 5.8875 167.714 5.52283C167.911 5.14414 168.107 4.80752 168.303 4.51298L170.554 4.66025C170.246 4.95479 170 5.24232 169.818 5.52283C169.636 5.80335 169.545 6.161 169.545 6.5958C169.545 6.94644 169.65 7.23396 169.86 7.45838C170.085 7.68279 170.372 7.79499 170.723 7.79499C171.143 7.79499 171.445 7.6898 171.627 7.47941C171.824 7.26903 171.922 7.01657 171.922 6.72203C171.922 6.31528 171.754 6.02074 171.417 5.83841C171.08 5.65608 170.625 5.56491 170.049 5.56491H167.041C166.564 5.56491 166.192 5.68413 165.926 5.92256C165.659 6.161 165.491 6.53969 165.421 7.05864H162.854C162.756 6.5958 162.574 6.23113 162.307 5.96464C162.055 5.69815 161.648 5.56491 161.087 5.56491H160.856C160.547 5.56491 160.281 5.66309 160.056 5.85945C159.832 6.05581 159.72 6.33632 159.72 6.70099C159.72 6.9254 159.769 7.11475 159.867 7.26903C159.979 7.42331 160.133 7.54253 160.33 7.62668C160.526 7.69681 160.75 7.73188 161.003 7.73188H161.718V10.0251H161.171C160.358 10.0251 159.642 9.88482 159.025 9.60431C158.422 9.30977 157.952 8.89601 157.616 8.36303C157.279 7.83006 157.111 7.20591 157.111 6.4906C157.111 5.52283 157.426 4.73739 158.058 4.13429C158.703 3.51716 159.579 3.2086 160.687 3.2086H160.94C161.557 3.2086 162.09 3.29976 162.539 3.4821C162.988 3.6504 163.352 3.88183 163.633 4.17637C163.913 4.47091 164.11 4.78649 164.222 5.1231H164.032C164.201 4.77246 164.418 4.45688 164.685 4.17637C164.951 3.88183 165.316 3.6504 165.779 3.4821C166.242 3.29976 166.845 3.2086 167.588 3.2086H168.85C169.762 3.2086 170.54 3.2647 171.186 3.3769C171.831 3.47508 172.399 3.71352 172.89 4.09221C173.254 4.3587 173.542 4.69532 173.752 5.10206C173.963 5.50881 174.068 6.02776 174.068 6.65891C174.068 7.58461 173.773 8.34901 173.184 8.95211C172.595 9.54119 171.768 9.83573 170.702 9.83573ZM171.375 0.0107422C172.273 0.0107422 172.995 0.200089 173.542 0.578782C174.089 0.94345 174.503 1.4624 174.783 2.13563L172.637 2.66159C172.553 2.50731 172.455 2.37407 172.343 2.26186C172.23 2.14966 172.097 2.0655 171.943 2.0094C171.789 1.9533 171.606 1.92525 171.396 1.92525C171.045 1.92525 170.772 2.0094 170.575 2.17771C170.393 2.33199 170.302 2.53536 170.302 2.78783C170.302 3.05431 170.379 3.29976 170.533 3.52417C170.688 3.73456 170.898 3.92391 171.165 4.09221L169.019 4.89168C168.752 4.65324 168.507 4.33766 168.282 3.94494C168.072 3.5382 167.967 3.07535 167.967 2.5564C167.967 2.10758 168.086 1.69382 168.324 1.31513C168.563 0.92241 168.934 0.606833 169.439 0.368397C169.944 0.12996 170.589 0.0107422 171.375 0.0107422Z" fill="white"/>
<path d="M142.124 7.72949C143.092 7.72949 143.898 7.92585 144.544 8.31857C145.189 8.71129 145.708 9.23024 146.1 9.87542C146.493 10.5206 146.774 11.2359 146.942 12.0213C147.11 12.7928 147.194 13.5712 147.194 14.3566C147.194 15.7732 147.019 17.1057 146.668 18.3539C146.332 19.6022 145.841 20.7664 145.196 21.8463C144.565 22.9403 143.807 23.9502 142.924 24.8759C142.04 25.8156 141.065 26.6852 139.999 27.4847L138.211 25.507C139.052 24.8478 139.845 24.1395 140.588 23.3821C141.346 22.6248 142.005 21.7972 142.566 20.8996C143.141 20.016 143.59 19.0412 143.912 17.9752C144.235 16.9093 144.396 15.7241 144.396 14.4197C144.396 13.9429 144.354 13.4379 144.27 12.905C144.2 12.372 144.074 11.8741 143.891 11.4112C143.723 10.9484 143.485 10.5697 143.176 10.2752C142.881 9.98061 142.503 9.83334 142.04 9.83334C141.745 9.83334 141.493 9.9175 141.283 10.0858C141.072 10.2541 140.967 10.4785 140.967 10.759C140.967 11.0396 141.044 11.264 141.198 11.4323C141.353 11.5866 141.542 11.6917 141.766 11.7478C142.005 11.804 142.229 11.832 142.44 11.832C143.015 11.832 143.506 11.6777 143.912 11.3692C144.319 11.0466 144.698 10.7029 145.048 10.3383L145.806 12.5052C145.315 12.8559 144.775 13.1785 144.186 13.473C143.611 13.7675 142.896 13.9148 142.04 13.9148C140.974 13.9148 140.104 13.6624 139.431 13.1574C138.772 12.6525 138.442 11.8671 138.442 10.8011C138.442 10.212 138.583 9.68607 138.863 9.22323C139.144 8.76038 139.557 8.39571 140.104 8.12922C140.651 7.86274 141.325 7.72949 142.124 7.72949Z" fill="white"/>
<path d="M131.149 26.7282C130.531 26.7282 130.027 26.616 129.634 26.3916C129.227 26.1672 128.841 25.8165 128.477 25.3396H128.961C128.624 25.6903 128.308 25.9638 128.014 26.1601C127.705 26.3705 127.383 26.5178 127.046 26.602C126.709 26.6861 126.303 26.7282 125.826 26.7282C125.012 26.7282 124.367 26.5529 123.89 26.2022C123.413 25.8516 123.077 25.4028 122.88 24.8558C122.684 24.3228 122.586 23.7758 122.586 23.2148C122.586 22.4013 122.754 21.707 123.091 21.1319C123.413 20.5709 123.855 20.1361 124.416 19.8276C124.977 19.533 125.608 19.3857 126.31 19.3857C127.179 19.3857 127.839 19.5891 128.287 19.9959C128.722 20.4166 128.94 20.9286 128.94 21.5317C128.94 22.233 128.715 22.7659 128.266 23.1306C127.803 23.4953 127.116 23.6776 126.205 23.6776C125.714 23.6776 125.272 23.5794 124.879 23.3831C124.472 23.2007 124.122 22.9763 123.827 22.7098L124.395 21.2792C124.564 21.5036 124.788 21.714 125.068 21.9104C125.335 22.1067 125.644 22.2049 125.994 22.2049C126.303 22.2049 126.548 22.1488 126.731 22.0366C126.899 21.9384 126.983 21.7771 126.983 21.5527C126.983 21.3984 126.934 21.2512 126.836 21.1109C126.724 20.9847 126.548 20.9216 126.31 20.9216C125.931 20.9216 125.587 21.0758 125.279 21.3844C124.97 21.693 124.816 22.24 124.816 23.0254V23.2568C124.816 23.6075 124.865 23.902 124.963 24.1404C125.047 24.3789 125.195 24.5542 125.405 24.6664C125.601 24.7786 125.854 24.8347 126.162 24.8347C126.709 24.8347 127.088 24.7085 127.299 24.456C127.495 24.2176 127.614 23.9651 127.656 23.6986H129.697C129.767 24.2036 129.928 24.5191 130.181 24.6454C130.419 24.7716 130.693 24.8347 131.001 24.8347C131.366 24.8347 131.633 24.7295 131.801 24.5191C131.955 24.3088 132.032 24.0633 132.032 23.7828C132.032 23.2077 131.815 22.7239 131.38 22.3311C130.945 21.9384 130.454 21.5878 129.907 21.2792L131.254 19.3857C131.843 19.6803 132.376 20.0379 132.853 20.4587C133.33 20.8795 133.708 21.3564 133.989 21.8893C134.255 22.4223 134.389 23.0184 134.389 23.6776C134.389 24.5893 134.115 25.3256 133.568 25.8866C133.007 26.4477 132.201 26.7282 131.149 26.7282Z" fill="white"/>
<path d="M130.729 18.5059C130.056 18.5059 129.46 18.4077 128.941 18.2114C128.422 18.015 127.896 17.6854 127.363 17.2226C126.844 16.7457 126.22 16.1005 125.49 15.287C125.098 14.8382 124.789 14.5296 124.565 14.3613C124.34 14.179 124.081 14.0878 123.786 14.0878C123.562 14.0878 123.337 14.179 123.113 14.3613C122.903 14.5296 122.798 14.7961 122.798 15.1608C122.798 15.5956 122.91 15.8971 123.134 16.0654C123.373 16.2338 123.646 16.3179 123.955 16.3179C124.291 16.3179 124.628 16.1777 124.964 15.8971C125.301 15.6166 125.54 15.1538 125.68 14.5086L127.426 16.36C127.145 16.7527 126.851 17.1174 126.542 17.454C126.248 17.7766 125.876 18.0361 125.427 18.2324C124.978 18.4147 124.375 18.5059 123.618 18.5059C122.791 18.5059 122.11 18.3516 121.577 18.0431C121.058 17.7205 120.673 17.3067 120.42 16.8018C120.182 16.2969 120.062 15.7639 120.062 15.2029C120.062 14.5156 120.224 13.9265 120.546 13.4356C120.869 12.9307 121.311 12.538 121.872 12.2575C122.433 11.977 123.064 11.8367 123.765 11.8367C124.354 11.8367 124.873 11.9138 125.322 12.0681C125.771 12.2224 126.206 12.4749 126.627 12.8255C127.061 13.1762 127.538 13.639 128.057 14.2141C128.506 14.705 128.871 15.0766 129.151 15.3291C129.446 15.5816 129.712 15.7499 129.951 15.834C130.203 15.9182 130.491 15.9603 130.813 15.9603C131.206 15.9603 131.528 15.82 131.781 15.5395C132.047 15.259 132.181 14.8382 132.181 14.2772C132.181 13.618 132.033 13.0359 131.739 12.531C131.444 12.026 131.059 11.5772 130.582 11.1845C130.119 10.7778 129.621 10.4061 129.088 10.0695L130.729 7.7342C131.557 8.18302 132.3 8.71599 132.959 9.33312C133.618 9.95025 134.137 10.6515 134.516 11.437C134.909 12.2084 135.105 13.078 135.105 14.0457C135.105 14.9434 134.937 15.7288 134.6 16.4021C134.263 17.0613 133.766 17.5802 133.106 17.9589C132.461 18.3236 131.669 18.5059 130.729 18.5059ZM133.885 21.1778C133.099 21.1778 132.468 21.0516 131.991 20.7991C131.528 20.5466 131.192 20.217 130.981 19.8103C130.785 19.4036 130.687 18.9688 130.687 18.5059C130.687 18.3236 130.701 18.1342 130.729 17.9379C130.771 17.7415 130.827 17.5522 130.897 17.3698H133.611C133.541 17.482 133.485 17.5942 133.443 17.7064C133.401 17.8046 133.38 17.9028 133.38 18.001C133.38 18.1553 133.415 18.2955 133.485 18.4218C133.555 18.548 133.653 18.6462 133.78 18.7163C133.906 18.7864 134.053 18.8215 134.221 18.8215C134.446 18.8215 134.642 18.7794 134.811 18.6953C134.993 18.6251 135.21 18.4989 135.463 18.3166L136.746 20.168C136.297 20.5046 135.841 20.757 135.379 20.9253C134.93 21.0936 134.432 21.1778 133.885 21.1778ZM124.291 9.9222C123.632 9.9222 123.05 9.81701 122.545 9.60662C122.04 9.38221 121.612 9.02456 121.262 8.53366C120.911 8.02873 120.638 7.34849 120.441 6.49292L123.302 5.75657C123.457 6.47188 123.625 6.98382 123.807 7.29239C123.99 7.58693 124.242 7.7342 124.565 7.7342C124.775 7.7342 124.986 7.65705 125.196 7.50277C125.406 7.34849 125.687 7.05395 126.037 6.61915L126.921 5.50411C127.412 4.88698 127.875 4.4031 128.31 4.05246C128.744 3.68779 129.214 3.4213 129.719 3.25299C130.238 3.08468 130.855 2.99352 131.571 2.97949L131.739 5.41996C131.262 5.44801 130.848 5.53216 130.498 5.67242C130.161 5.79865 129.852 5.98099 129.572 6.21942C129.291 6.45786 128.997 6.77344 128.688 7.16616L127.994 8.02873C127.728 8.36535 127.412 8.68093 127.047 8.97547C126.683 9.25598 126.269 9.4874 125.806 9.66974C125.357 9.83805 124.852 9.9222 124.291 9.9222Z" fill="white"/>
<path d="M98.4492 13.2837C98.4492 12.2458 98.6736 11.3551 99.1225 10.6118C99.5713 9.86841 100.23 9.29335 101.1 8.88661C101.984 8.47986 103.057 8.27649 104.319 8.27649C105.623 8.27649 106.71 8.46584 107.58 8.84453C108.45 9.22323 109.102 9.78425 109.537 10.5276C109.985 11.2569 110.21 12.1686 110.21 13.2626C110.21 14.2865 109.992 15.1982 109.558 15.9976C109.123 16.7831 108.464 17.4002 107.58 17.849C106.71 18.2838 105.623 18.5012 104.319 18.5012C103.029 18.5012 101.942 18.2768 101.058 17.828C100.188 17.3792 99.5362 16.762 99.1014 15.9766C98.6666 15.1911 98.4492 14.2935 98.4492 13.2837ZM101.374 13.0102C101.374 13.8657 101.619 14.574 102.11 15.135C102.615 15.682 103.351 15.9555 104.319 15.9555C104.978 15.9555 105.525 15.8363 105.96 15.5979C106.409 15.3454 106.738 15.0088 106.949 14.588C107.173 14.1533 107.285 13.6624 107.285 13.1153C107.285 12.5543 107.173 12.0494 106.949 11.6006C106.738 11.1518 106.416 10.7941 105.981 10.5276C105.546 10.2471 104.992 10.1068 104.319 10.1068C103.66 10.1068 103.106 10.2401 102.657 10.5066C102.222 10.7731 101.9 11.1307 101.689 11.5795C101.479 12.0143 101.374 12.4912 101.374 13.0102ZM115.07 14.3777C114.424 14.3777 113.891 14.2795 113.471 14.0831C113.05 13.8868 112.713 13.6413 112.461 13.3468C112.222 13.0382 112.054 12.7156 111.956 12.379C111.858 12.0424 111.809 11.7338 111.809 11.4533C111.809 10.9063 111.9 10.4435 112.082 10.0648C112.279 9.68607 112.475 9.34244 112.671 9.03388L114.922 9.20219C114.614 9.49673 114.368 9.78425 114.186 10.0648C114.004 10.3453 113.913 10.7029 113.913 11.1377C113.913 11.4884 114.018 11.7759 114.228 12.0003C114.453 12.2247 114.74 12.3369 115.091 12.3369C115.497 12.3369 115.799 12.2387 115.995 12.0424C116.192 11.832 116.29 11.5725 116.29 11.264C116.29 10.8432 116.122 10.5487 115.785 10.3803C115.448 10.198 114.993 10.1068 114.417 10.1068H98.6386V7.72949H112.608C113.464 7.72949 114.172 7.75754 114.733 7.81365C115.294 7.85572 115.771 7.93988 116.164 8.06611C116.57 8.19234 116.942 8.3887 117.279 8.65519C117.629 8.92167 117.91 9.25829 118.12 9.66504C118.331 10.0718 118.436 10.5837 118.436 11.2008C118.436 12.1125 118.141 12.8699 117.552 13.473C116.963 14.0761 116.136 14.3777 115.07 14.3777Z" fill="white"/>
<path d="M84.7685 18.5012C83.8709 18.5012 83.1486 18.3539 82.6016 18.0594C82.0686 17.7508 81.6829 17.3581 81.4444 16.8812C81.22 16.4044 81.1078 15.8994 81.1078 15.3665C81.1078 14.6792 81.2621 14.1112 81.5707 13.6624C81.8792 13.2135 82.286 12.8839 82.7909 12.6735C83.3099 12.4491 83.8569 12.3369 84.4319 12.3369C85.1612 12.3369 85.7714 12.4632 86.2623 12.7156C86.7672 12.9541 87.1809 13.2416 87.5035 13.5782C87.8401 13.9008 88.1066 14.1883 88.303 14.4408L87.23 16.5867C87.0757 16.208 86.8864 15.8504 86.662 15.5137C86.4516 15.1771 86.1991 14.9036 85.9046 14.6932C85.6101 14.4688 85.2594 14.3566 84.8527 14.3566C84.5441 14.3566 84.2636 14.4408 84.0111 14.6091C83.7587 14.7774 83.6324 15.0439 83.6324 15.4085C83.6324 15.7311 83.7376 15.9836 83.948 16.1659C84.1584 16.3483 84.4389 16.4394 84.7896 16.4394C85.2524 16.4394 85.6171 16.3132 85.8836 16.0607C86.1641 15.8083 86.3604 15.4717 86.4726 15.0509C86.5849 14.6301 86.641 14.1743 86.641 13.6834V13.2837C86.641 12.6946 86.5638 12.1756 86.4095 11.7268C86.2552 11.278 86.0098 10.9273 85.6732 10.6749C85.3366 10.4084 84.8948 10.2752 84.3478 10.2752C84.0111 10.2752 83.7096 10.3453 83.4431 10.4855C83.1766 10.6118 82.9522 10.7941 82.7699 11.0325C82.6016 11.2569 82.4683 11.5164 82.3701 11.811H79.6562C79.586 11.5866 79.4598 11.3411 79.2775 11.0746C79.1092 10.7941 78.8567 10.5557 78.5201 10.3593C78.1835 10.1489 77.7206 10.0437 77.1315 10.0437C76.6406 10.0437 76.2409 10.1279 75.9323 10.2962C75.6378 10.4505 75.4905 10.7099 75.4905 11.0746C75.4905 11.2149 75.5116 11.3481 75.5537 11.4743C75.6098 11.5866 75.7079 11.6847 75.8482 11.7689C75.9744 11.839 76.1357 11.9021 76.3321 11.9582C76.5425 12.0003 76.8651 12.0213 77.2999 12.0213H78.5411V14.2094H77.2367C76.8019 14.2094 76.4653 14.2304 76.2269 14.2725C75.9885 14.3145 75.7991 14.3917 75.6589 14.5039C75.5607 14.588 75.4765 14.6932 75.4064 14.8195C75.3503 14.9317 75.3222 15.0649 75.3222 15.2192C75.3222 15.4997 75.4134 15.7311 75.5957 15.9135C75.7921 16.0958 76.1077 16.187 76.5425 16.187C77.0053 16.187 77.4191 16.0678 77.7837 15.8293C78.1624 15.5909 78.5271 15.2753 78.8777 14.8826L80.6871 16.4815C80.3084 16.9163 79.8946 17.288 79.4458 17.5966C79.011 17.8911 78.5271 18.1155 77.9941 18.2698C77.4612 18.4241 76.851 18.5012 76.1638 18.5012C74.8454 18.5012 73.8495 18.2277 73.1763 17.6807C72.5171 17.1197 72.1875 16.4324 72.1875 15.6189C72.1875 15.2262 72.2646 14.8615 72.4189 14.5249C72.5732 14.1743 72.8116 13.8727 73.1342 13.6203C73.4708 13.3538 73.8916 13.1434 74.3965 12.9891L74.3755 13.2626C73.6742 13.0242 73.1623 12.6665 72.8397 12.1897C72.5171 11.7128 72.3558 11.1868 72.3558 10.6118C72.3558 9.74218 72.7345 9.0479 73.4919 8.52895C74.2493 7.99598 75.2521 7.72949 76.5004 7.72949C77.2438 7.72949 77.8749 7.79962 78.3939 7.93988C78.9268 8.06611 79.4177 8.27649 79.8666 8.57103C80.3154 8.85154 80.7712 9.23725 81.2341 9.72815L80.7922 9.74919C81.1148 9.32842 81.4515 8.97076 81.8021 8.67623C82.1668 8.36766 82.5735 8.13624 83.0223 7.98195C83.4852 7.81365 84.0322 7.72949 84.6633 7.72949C85.7153 7.72949 86.5919 7.96793 87.2931 8.4448C87.9944 8.90765 88.5204 9.55984 88.871 10.4014C89.2357 11.2289 89.418 12.1826 89.418 13.2626C89.418 14.3706 89.2497 15.3174 88.9131 16.1028C88.5765 16.8742 88.0646 17.4703 87.3773 17.8911C86.69 18.2978 85.8205 18.5012 84.7685 18.5012Z" fill="white"/>
<path d="M56.0082 8.25545C57.1864 8.25545 58.2033 8.43078 59.0588 8.78142C59.9144 9.13206 60.5736 9.65802 61.0364 10.3593C61.4993 11.0606 61.7307 11.9302 61.7307 12.9681C61.7307 13.8236 61.6536 14.581 61.4993 15.2402C61.345 15.8994 61.1487 16.4885 60.9102 17.0075C60.6718 17.5124 60.4333 17.9823 60.1949 18.4171L57.3757 17.3231C57.6142 17.0005 57.8386 16.6428 58.049 16.2501C58.2734 15.8433 58.4557 15.3945 58.596 14.9036C58.7362 14.4127 58.8064 13.8797 58.8064 13.3047C58.8064 12.7577 58.7152 12.2387 58.5329 11.7478C58.3505 11.2569 58.049 10.8642 57.6282 10.5697C57.2215 10.2611 56.6604 10.1068 55.9451 10.1068C55.3701 10.1068 54.8722 10.2401 54.4514 10.5066C54.0447 10.7731 53.7291 11.1447 53.5047 11.6216C53.2803 12.0845 53.168 12.6245 53.168 13.2416C53.168 14.0551 53.3013 14.8054 53.5678 15.4927C53.8343 16.1659 54.1779 16.769 54.5987 17.302L51.7585 18.4171C51.3237 17.6737 50.959 16.8602 50.6645 15.9766C50.3699 15.093 50.2227 14.1603 50.2227 13.1785C50.2227 12.2528 50.4401 11.4182 50.8748 10.6749C51.3237 9.93152 51.9759 9.34244 52.8314 8.90765C53.687 8.47285 54.7459 8.25545 56.0082 8.25545ZM66.5906 14.3777C65.9454 14.3777 65.4125 14.2795 64.9917 14.0831C64.5709 13.8868 64.2413 13.6413 64.0029 13.3468C63.7644 13.0382 63.5961 12.7156 63.498 12.379C63.3998 12.0424 63.3507 11.7338 63.3507 11.4533C63.3507 10.9063 63.4419 10.4435 63.6242 10.0648C63.8205 9.68607 64.0169 9.34244 64.2133 9.03388L66.4644 9.20219C66.1558 9.49673 65.9104 9.78425 65.728 10.0648C65.5457 10.3453 65.4545 10.7029 65.4545 11.1377C65.4545 11.4884 65.5597 11.7759 65.7701 12.0003C65.9945 12.2247 66.282 12.3369 66.6327 12.3369C67.0394 12.3369 67.341 12.2387 67.5373 12.0424C67.7337 11.832 67.8319 11.5725 67.8319 11.264C67.8319 10.8432 67.6636 10.5487 67.327 10.3803C66.9903 10.198 66.5415 10.1068 65.9805 10.1068H50.3278V7.72949H64.1501C65.0057 7.72949 65.714 7.75754 66.275 7.81365C66.8361 7.85572 67.3129 7.93988 67.7057 8.06611C68.1124 8.19234 68.4841 8.3887 68.8207 8.65519C69.1713 8.92167 69.4519 9.25829 69.6622 9.66504C69.8726 10.0718 69.9778 10.5837 69.9778 11.2008C69.9778 12.1125 69.6763 12.8699 69.0732 13.473C68.4841 14.0761 67.6566 14.3777 66.5906 14.3777Z" fill="white"/>
<path d="M37.2227 13.8946C37.2227 13.011 37.433 12.2186 37.8538 11.5173C38.2746 10.816 38.8707 10.262 39.6421 9.85523C40.4135 9.44849 41.3322 9.24512 42.3981 9.24512C43.4781 9.24512 44.3968 9.44849 45.1542 9.85523C45.9116 10.262 46.4866 10.816 46.8793 11.5173C47.2861 12.2186 47.4894 13.011 47.4894 13.8946C47.4894 14.7782 47.2861 15.5707 46.8793 16.272C46.4726 16.9592 45.8835 17.5062 45.1121 17.913C44.3547 18.3057 43.436 18.5021 42.3561 18.5021C41.2901 18.5021 40.3714 18.2987 39.6 17.8919C38.8286 17.4852 38.2395 16.9382 37.8328 16.2509C37.426 15.5497 37.2227 14.7642 37.2227 13.8946ZM40.0418 13.8736C40.0418 14.5188 40.2312 15.0658 40.6099 15.5146C41.0026 15.9494 41.5846 16.1668 42.3561 16.1668C42.875 16.1668 43.3028 16.0686 43.6394 15.8722C43.976 15.6619 44.2285 15.3813 44.3968 15.0307C44.5791 14.6801 44.6703 14.2944 44.6703 13.8736C44.6703 13.2284 44.4669 12.6884 44.0602 12.2536C43.6675 11.8048 43.0994 11.5804 42.3561 11.5804C41.8652 11.5804 41.4444 11.6856 41.0937 11.896C40.7571 12.0923 40.4977 12.3658 40.3153 12.7165C40.133 13.0531 40.0418 13.4388 40.0418 13.8736Z" fill="white"/>
<path d="M27.2391 18.5012C25.6402 18.5012 24.2867 18.2417 23.1787 17.7228C22.0706 17.1898 21.2291 16.4745 20.654 15.5769C20.093 14.6652 19.8125 13.6413 19.8125 12.5052C19.8125 11.5234 20.0018 10.6749 20.3805 9.95957C20.7733 9.24426 21.3203 8.69726 22.0215 8.31857C22.7228 7.92585 23.5293 7.72949 24.441 7.72949C25.2825 7.72949 25.9628 7.88377 26.4817 8.19234C27.0007 8.48688 27.3794 8.87258 27.6178 9.34946C27.8562 9.8123 27.9754 10.2962 27.9754 10.8011C27.9754 11.4463 27.8352 12.0003 27.5547 12.4632C27.2742 12.926 26.8674 13.2766 26.3344 13.5151C25.8015 13.7535 25.1493 13.8727 24.3779 13.8727C23.8168 13.8727 23.3189 13.7956 22.8841 13.6413C22.4493 13.487 22.0706 13.2977 21.748 13.0733C21.4395 12.8489 21.18 12.6455 20.9696 12.4632L21.4535 10.4855C21.6218 10.6959 21.8182 10.9063 22.0426 11.1167C22.281 11.3271 22.5475 11.5024 22.842 11.6427C23.1366 11.7689 23.4522 11.832 23.7888 11.832C24.2236 11.832 24.5742 11.7549 24.8407 11.6006C25.1072 11.4323 25.2404 11.1588 25.2404 10.7801C25.2404 10.5416 25.1563 10.3242 24.988 10.1279C24.8197 9.9175 24.5742 9.8123 24.2516 9.8123C23.7607 9.8123 23.354 10.0227 23.0314 10.4435C22.7088 10.8502 22.5475 11.3411 22.5475 11.9162V12.7367C22.5475 13.0733 22.6176 13.4309 22.7579 13.8096C22.9122 14.1743 23.1646 14.5249 23.5153 14.8615C23.8799 15.1841 24.3708 15.4506 24.988 15.661C25.6191 15.8574 26.4046 15.9555 27.3443 15.9555C28.6627 15.9555 29.7216 15.7311 30.5211 15.2823C31.3346 14.8195 31.7413 14.0971 31.7413 13.1153C31.7413 12.4561 31.538 11.9091 31.1312 11.4743C30.7385 11.0255 30.1214 10.5697 29.2798 10.1068L30.9208 7.72949C32.0289 8.27649 32.9265 8.99881 33.6138 9.89646C34.315 10.7801 34.6657 11.8671 34.6657 13.1574C34.6657 14.1532 34.3992 15.0579 33.8662 15.8714C33.3473 16.6709 32.5408 17.309 31.4468 17.7859C30.3528 18.2628 28.9502 18.5012 27.2391 18.5012Z" fill="white"/>
<path d="M15.6737 6.74108C15.6737 7.23198 15.5755 7.68781 15.3792 8.10858C15.1828 8.52935 14.9093 8.85895 14.5586 9.09739C14.18 9.36388 13.6891 9.58829 13.086 9.77062C12.4969 9.93893 11.8938 10.0231 11.2766 10.0231H7.84736V7.72989H11.2977C11.7044 7.72989 12.006 7.70885 12.2023 7.66677C12.4127 7.61067 12.574 7.53353 12.6862 7.43535C12.7704 7.35119 12.8335 7.26003 12.8756 7.16185C12.9176 7.04964 12.9387 6.93042 12.9387 6.80419C12.9387 6.63588 12.9176 6.49563 12.8756 6.38342C12.8335 6.25719 12.7634 6.152 12.6652 6.06784C12.553 5.96967 12.3917 5.89954 12.1813 5.85746C11.9849 5.81538 11.6553 5.79434 11.1925 5.79434H3.09266V3.41699H10.919C11.9148 3.41699 12.6862 3.49413 13.2332 3.64842C13.7942 3.78867 14.2781 4.02711 14.6849 4.36373C14.9794 4.61619 15.2179 4.93878 15.4002 5.3315C15.5825 5.72422 15.6737 6.19408 15.6737 6.74108ZM8.28917 18.5016C6.35363 18.5016 4.77574 18.2772 3.55551 17.8284C2.33527 17.3796 1.43763 16.7484 0.862579 15.9349C0.287526 15.1214 0 14.1817 0 13.1157C0 12.3023 0.189347 11.5869 0.56804 10.9698C0.946733 10.3527 1.46568 9.8688 2.12489 9.51816C2.79812 9.16752 3.56252 8.9922 4.41809 8.9922C5.1895 8.9922 5.83468 9.13245 6.35363 9.41297C6.87258 9.67946 7.2653 10.0441 7.53179 10.507C7.79827 10.9698 7.93152 11.4888 7.93152 12.0638C7.93152 13.0456 7.61594 13.789 6.98479 14.2939C6.35363 14.7848 5.49105 15.0302 4.39705 15.0302C3.89212 15.0302 3.41525 14.9531 2.96643 14.7988C2.53163 14.6305 2.13892 14.4271 1.78827 14.1887C1.43763 13.9503 1.14309 13.7259 0.904656 13.5155L1.61997 11.8114C1.88645 12.1199 2.20904 12.4145 2.58774 12.695C2.96643 12.9615 3.41525 13.0947 3.9342 13.0947C4.35497 13.0947 4.6986 13.0106 4.96509 12.8422C5.2456 12.6739 5.38586 12.4074 5.38586 12.0428C5.38586 11.7623 5.29469 11.5308 5.11236 11.3485C4.93002 11.1662 4.65652 11.075 4.29186 11.075C3.99732 11.075 3.7168 11.1592 3.45032 11.3275C3.18383 11.4818 2.96643 11.7202 2.79812 12.0428C2.62981 12.3513 2.54566 12.7371 2.54566 13.1999V13.3261C2.54566 13.7469 2.65085 14.1256 2.86124 14.4622C3.08565 14.7988 3.42928 15.0864 3.89212 15.3248C4.35497 15.5492 4.95106 15.7245 5.6804 15.8508C6.40973 15.963 7.28634 16.0191 8.31021 16.0191C9.39019 16.0191 10.3299 15.97 11.1294 15.8718C11.9288 15.7736 12.588 15.6193 13.107 15.4089C13.6259 15.1845 14.0116 14.89 14.2641 14.5253C14.5306 14.1466 14.6638 13.6838 14.6638 13.1368V13.0737C14.6638 12.5126 14.4955 12.0358 14.1589 11.6431C13.8223 11.2503 13.3454 11.054 12.7283 11.054C12.4197 11.054 12.1322 11.1381 11.8657 11.3064C11.6133 11.4607 11.487 11.7132 11.487 12.0638C11.487 12.4425 11.6062 12.709 11.8447 12.8633C12.0831 13.0035 12.3777 13.0737 12.7283 13.0737C13.0789 13.0737 13.3735 13.0035 13.6119 12.8633C13.8504 12.723 14.0537 12.5267 14.222 12.2742C14.3903 12.0077 14.5236 11.6992 14.6218 11.3485L15.7789 12.8843C15.4843 13.3051 15.1828 13.6838 14.8742 14.0204C14.5797 14.343 14.222 14.5955 13.8013 14.7778C13.3805 14.9601 12.8335 15.0513 12.1603 15.0513C11.6273 15.0513 11.1153 14.9671 10.6244 14.7988C10.1335 14.6165 9.73382 14.329 9.42525 13.9362C9.13071 13.5295 8.98344 12.9895 8.98344 12.3163C8.98344 11.5028 9.285 10.8576 9.8881 10.3807C10.4912 9.88984 11.3327 9.64439 12.4127 9.64439C12.6792 9.64439 12.9176 9.65141 13.128 9.66543C13.3384 9.67946 13.5348 9.7005 13.7171 9.72855C13.8994 9.74257 14.0748 9.77062 14.2431 9.8127L11.8026 9.85478C11.6203 9.79867 11.4239 9.7566 11.2135 9.72855C11.0172 9.68647 10.8138 9.65842 10.6034 9.64439C10.407 9.61634 10.1967 9.60232 9.97225 9.60232L10.8769 7.96131C11.7605 8.00339 12.581 8.15066 13.3384 8.40312C14.1098 8.64156 14.7831 8.98519 15.3581 9.43401C15.9332 9.8688 16.382 10.4018 16.7046 11.0329C17.0412 11.6501 17.2095 12.3584 17.2095 13.1578C17.2095 14.0555 17.0412 14.8409 16.7046 15.5141C16.368 16.1733 15.842 16.7274 15.1267 17.1762C14.4114 17.611 13.4857 17.9406 12.3496 18.165C11.2276 18.3894 9.87407 18.5016 8.28917 18.5016Z" fill="white"/>
</svg>
