<svg width="328" height="29" viewBox="0 0 328 29" fill="none" xmlns="http://www.w3.org/2000/svg">
<path d="M323.722 27.2272C323.077 27.2272 322.551 27.122 322.144 26.9116C321.723 26.7153 321.31 26.3576 320.903 25.8387H321.387C320.91 26.3576 320.468 26.7153 320.061 26.9116C319.641 27.122 319.122 27.2272 318.505 27.2272C317.887 27.2272 317.375 27.0869 316.969 26.8064C316.562 26.5259 316.26 26.1542 316.064 25.6914C315.868 25.2285 315.77 24.7306 315.77 24.1977C315.77 23.314 316.008 22.5496 316.485 21.9045C316.948 21.2593 317.586 20.7614 318.399 20.4107C319.199 20.0601 320.103 19.8848 321.113 19.8848C322.151 19.8848 323.077 20.0671 323.89 20.4318C324.69 20.8105 325.321 21.3224 325.784 21.9676C326.247 22.6268 326.478 23.3842 326.478 24.2397C326.478 24.7447 326.394 25.2215 326.226 25.6704C326.043 26.1332 325.749 26.5049 325.342 26.7854C324.935 27.0799 324.395 27.2272 323.722 27.2272ZM323.217 25.3337C323.498 25.3337 323.722 25.2285 323.89 25.0182C324.059 24.8078 324.143 24.5273 324.143 24.1766C324.143 23.4333 323.855 22.8442 323.28 22.4094C322.705 21.9886 321.983 21.7782 321.113 21.7782C320.174 21.7782 319.437 21.9886 318.904 22.4094C318.357 22.8302 318.084 23.4052 318.084 24.1345C318.084 24.4992 318.168 24.7867 318.336 24.9971C318.505 25.2215 318.736 25.3337 319.03 25.3337C319.311 25.3337 319.542 25.2636 319.725 25.1234C319.893 24.9971 320.033 24.8148 320.146 24.5764H322.081C322.193 24.8428 322.334 25.0322 322.502 25.1444C322.67 25.2706 322.909 25.3337 323.217 25.3337ZM320.082 28.5947L320.167 26.8906H322.018L322.165 28.5947H320.082ZM319.998 23.3351C319.998 23.0265 320.103 22.7951 320.314 22.6408C320.524 22.5006 320.791 22.4304 321.113 22.4304C321.478 22.4304 321.758 22.5076 321.955 22.6618C322.151 22.8161 322.249 23.0405 322.249 23.3351C322.249 23.6577 322.151 23.8891 321.955 24.0294C321.744 24.1696 321.464 24.2397 321.113 24.2397C320.777 24.2397 320.51 24.1626 320.314 24.0083C320.103 23.8681 319.998 23.6436 319.998 23.3351Z" fill="white"/>
<path d="M322.799 19.0049C322.21 19.0049 321.642 18.9208 321.095 18.7525C320.562 18.5982 320.008 18.3107 319.433 17.8899C318.872 17.4691 318.255 16.88 317.581 16.1227C317.273 15.772 317.02 15.5125 316.824 15.3442C316.642 15.1619 316.487 15.0427 316.361 14.9866C316.235 14.9165 316.095 14.8814 315.94 14.8814C315.758 14.8814 315.59 14.9585 315.436 15.1128C315.281 15.2671 315.204 15.4775 315.204 15.744C315.204 16.0946 315.281 16.4663 315.436 16.859C315.604 17.2517 315.842 17.6725 316.151 18.1213L313.205 19.026C312.953 18.5351 312.736 18.0161 312.553 17.4691C312.385 16.9081 312.301 16.305 312.301 15.6598C312.301 15.0146 312.455 14.4466 312.764 13.9557C313.072 13.4508 313.493 13.0581 314.026 12.7775C314.573 12.483 315.19 12.3357 315.877 12.3357C316.522 12.3357 317.091 12.4339 317.581 12.6303C318.072 12.8266 318.528 13.1071 318.949 13.4718C319.384 13.8365 319.826 14.2713 320.274 14.7762C320.681 15.211 321.025 15.5546 321.305 15.8071C321.586 16.0455 321.852 16.2138 322.105 16.312C322.371 16.4102 322.659 16.4593 322.967 16.4593C323.36 16.4593 323.69 16.319 323.956 16.0385C324.223 15.758 324.356 15.3372 324.356 14.7762C324.356 14.117 324.209 13.5349 323.914 13.03C323.619 12.5251 323.234 12.0763 322.757 11.6835C322.28 11.2768 321.775 10.9051 321.242 10.5685L322.904 8.23322C323.732 8.68204 324.475 9.21501 325.134 9.83214C325.793 10.4493 326.312 11.1506 326.691 11.936C327.084 12.7074 327.28 13.577 327.28 14.5448C327.28 15.4424 327.105 16.2279 326.754 16.9011C326.418 17.5603 325.913 18.0792 325.239 18.4579C324.58 18.8226 323.767 19.0049 322.799 19.0049ZM316.53 10.4212C315.87 10.4212 315.288 10.316 314.783 10.1056C314.278 9.88124 313.851 9.52358 313.5 9.03268C313.149 8.52776 312.876 7.84751 312.679 6.99195L315.541 6.2556C315.695 6.97091 315.863 7.48284 316.046 7.79141C316.228 8.08595 316.48 8.23322 316.803 8.23322C317.013 8.23322 317.224 8.15608 317.434 8.00179C317.645 7.84751 317.925 7.55297 318.276 7.11818L319.159 6.00314C319.65 5.38601 320.113 4.90212 320.548 4.55148C320.983 4.18681 321.453 3.92032 321.957 3.75202C322.476 3.58371 323.094 3.49254 323.809 3.47852L323.977 5.91898C323.5 5.94703 323.087 6.03119 322.736 6.17144C322.399 6.29768 322.091 6.48001 321.81 6.71845C321.53 6.95688 321.235 7.27246 320.927 7.66518L320.232 8.52776C319.966 8.86437 319.65 9.17995 319.286 9.47449C318.921 9.755 318.507 9.98643 318.044 10.1688C317.595 10.3371 317.091 10.4212 316.53 10.4212Z" fill="white"/>
<path d="M299.574 14.3937C299.574 13.51 299.785 12.7176 300.205 12.0163C300.626 11.315 301.222 10.761 301.994 10.3543C302.765 9.94751 303.684 9.74414 304.75 9.74414C305.83 9.74414 306.748 9.94751 307.506 10.3543C308.263 10.761 308.838 11.315 309.231 12.0163C309.638 12.7176 309.841 13.51 309.841 14.3937C309.841 15.2773 309.638 16.0697 309.231 16.771C308.824 17.4583 308.235 18.0053 307.464 18.412C306.706 18.8047 305.788 19.0011 304.708 19.0011C303.642 19.0011 302.723 18.7977 301.952 18.391C301.18 17.9842 300.591 17.4372 300.184 16.75C299.778 16.0487 299.574 15.2632 299.574 14.3937ZM302.393 14.3726C302.393 15.0178 302.583 15.5648 302.961 16.0136C303.354 16.4484 303.936 16.6658 304.708 16.6658C305.227 16.6658 305.654 16.5676 305.991 16.3713C306.328 16.1609 306.58 15.8804 306.748 15.5297C306.931 15.1791 307.022 14.7934 307.022 14.3726C307.022 13.7274 306.818 13.1874 306.412 12.7526C306.019 12.3038 305.451 12.0794 304.708 12.0794C304.217 12.0794 303.796 12.1846 303.445 12.395C303.109 12.5914 302.849 12.8649 302.667 13.2155C302.485 13.5521 302.393 13.9378 302.393 14.3726Z" fill="white"/>
<path d="M292.498 19.0049C291.909 19.0049 291.341 18.9208 290.794 18.7525C290.261 18.5982 289.707 18.3107 289.132 17.8899C288.571 17.4691 287.954 16.88 287.281 16.1227C286.972 15.772 286.72 15.5125 286.523 15.3442C286.341 15.1619 286.187 15.0427 286.06 14.9866C285.934 14.9165 285.794 14.8814 285.64 14.8814C285.457 14.8814 285.289 14.9585 285.135 15.1128C284.98 15.2671 284.903 15.4775 284.903 15.744C284.903 16.0946 284.98 16.4663 285.135 16.859C285.303 17.2517 285.541 17.6725 285.85 18.1213L282.905 19.026C282.652 18.5351 282.435 18.0161 282.252 17.4691C282.084 16.9081 282 16.305 282 15.6598C282 15.0146 282.154 14.4466 282.463 13.9557C282.771 13.4508 283.192 13.0581 283.725 12.7775C284.272 12.483 284.889 12.3357 285.577 12.3357C286.222 12.3357 286.79 12.4339 287.281 12.6303C287.772 12.8266 288.227 13.1071 288.648 13.4718C289.083 13.8365 289.525 14.2713 289.974 14.7762C290.38 15.211 290.724 15.5546 291.004 15.8071C291.285 16.0455 291.551 16.2138 291.804 16.312C292.07 16.4102 292.358 16.4593 292.667 16.4593C293.059 16.4593 293.389 16.319 293.655 16.0385C293.922 15.758 294.055 15.3372 294.055 14.7762C294.055 14.117 293.908 13.5349 293.613 13.03C293.319 12.5251 292.933 12.0763 292.456 11.6835C291.979 11.2768 291.474 10.9051 290.941 10.5685L292.603 8.23322C293.431 8.68204 294.174 9.21501 294.833 9.83214C295.493 10.4493 296.012 11.1506 296.39 11.936C296.783 12.7074 296.979 13.577 296.979 14.5448C296.979 15.4424 296.804 16.2279 296.453 16.9011C296.117 17.5603 295.612 18.0792 294.939 18.4579C294.279 18.8226 293.466 19.0049 292.498 19.0049ZM286.229 10.4212C285.57 10.4212 284.987 10.316 284.483 10.1056C283.978 9.88124 283.55 9.52358 283.199 9.03268C282.849 8.52776 282.575 7.84751 282.379 6.99195L285.24 6.2556C285.394 6.97091 285.563 7.48284 285.745 7.79141C285.927 8.08595 286.18 8.23322 286.502 8.23322C286.713 8.23322 286.923 8.15608 287.133 8.00179C287.344 7.84751 287.624 7.55297 287.975 7.11818L288.859 6.00314C289.349 5.38601 289.812 4.90212 290.247 4.55148C290.682 4.18681 291.152 3.92032 291.657 3.75202C292.176 3.58371 292.793 3.49254 293.508 3.47852L293.676 5.91898C293.199 5.94703 292.786 6.03119 292.435 6.17144C292.098 6.29768 291.79 6.48001 291.509 6.71845C291.229 6.95688 290.934 7.27246 290.626 7.66518L289.932 8.52776C289.665 8.86437 289.349 9.17995 288.985 9.47449C288.62 9.755 288.206 9.98643 287.743 10.1688C287.295 10.3371 286.79 10.4212 286.229 10.4212Z" fill="white"/>
<path d="M260.683 19.0002C259.785 19.0002 259.063 18.853 258.516 18.5584C257.983 18.2499 257.597 17.8571 257.358 17.3803C257.134 16.9034 257.022 16.3985 257.022 15.8655C257.022 15.1782 257.176 14.6102 257.485 14.1614C257.793 13.7126 258.2 13.383 258.705 13.1726C259.224 12.9482 259.771 12.8359 260.346 12.8359C261.075 12.8359 261.685 12.9622 262.176 13.2146C262.681 13.4531 263.095 13.7406 263.418 14.0772C263.754 14.3998 264.021 14.6873 264.217 14.9398L263.144 17.0857C262.99 16.707 262.8 16.3494 262.576 16.0128C262.366 15.6761 262.113 15.4026 261.819 15.1923C261.524 14.9679 261.173 14.8556 260.767 14.8556C260.458 14.8556 260.178 14.9398 259.925 15.1081C259.673 15.2764 259.547 15.5429 259.547 15.9076C259.547 16.2302 259.652 16.4826 259.862 16.665C260.072 16.8473 260.353 16.9385 260.704 16.9385C261.166 16.9385 261.531 16.8122 261.798 16.5598C262.078 16.3073 262.275 15.9707 262.387 15.5499C262.499 15.1291 262.555 14.6733 262.555 14.1824V13.6565C262.555 13.0814 262.478 12.5624 262.324 12.0996C262.169 11.6368 261.924 11.2721 261.587 11.0056C261.265 10.7391 260.83 10.6059 260.283 10.6059C259.946 10.6059 259.638 10.683 259.357 10.8373C259.091 10.9775 258.866 11.1739 258.684 11.4264C258.502 11.6788 258.368 11.9734 258.284 12.31H255.57C255.5 12.0856 255.374 11.8401 255.192 11.5736C255.023 11.2931 254.771 11.0547 254.434 10.8583C254.098 10.6479 253.635 10.5428 253.046 10.5428C252.555 10.5428 252.155 10.6269 251.846 10.7952C251.552 10.9495 251.405 11.209 251.405 11.5736C251.405 11.7139 251.426 11.8471 251.468 11.9734C251.524 12.0856 251.622 12.1838 251.762 12.2679C251.888 12.338 252.05 12.4012 252.246 12.4573C252.457 12.4993 252.779 12.5204 253.214 12.5204H254.455V14.7084H253.151C252.716 14.7084 252.379 14.7294 252.141 14.7715C251.903 14.8136 251.713 14.8907 251.573 15.0029C251.475 15.0871 251.391 15.1923 251.32 15.3185C251.264 15.4307 251.236 15.5639 251.236 15.7182C251.236 15.9987 251.327 16.2302 251.51 16.4125C251.706 16.5948 252.022 16.686 252.457 16.686C252.919 16.686 253.333 16.5668 253.698 16.3283C254.076 16.0899 254.441 15.7743 254.792 15.3816L256.601 16.9805C256.222 17.4153 255.809 17.787 255.36 18.0956C254.925 18.3901 254.441 18.6145 253.908 18.7688C253.375 18.9231 252.765 19.0002 252.078 19.0002C250.759 19.0002 249.764 18.7267 249.09 18.1797C248.431 17.6187 248.102 16.9314 248.102 16.118C248.102 15.7252 248.179 15.3606 248.333 15.024C248.487 14.6733 248.726 14.3718 249.048 14.1193C249.385 13.8528 249.806 13.6424 250.311 13.4881L250.29 13.7616C249.602 13.5092 249.09 13.1796 248.754 12.7728C248.431 12.3521 248.27 11.8542 248.27 11.2791C248.27 10.7601 248.452 10.3183 248.817 9.95367C249.196 9.57498 249.715 9.28044 250.374 9.07006C251.033 8.85967 251.79 8.75448 252.646 8.75448C253.403 8.75448 254.034 8.84564 254.539 9.02798C255.058 9.19629 255.514 9.44875 255.907 9.78536C256.314 10.108 256.734 10.5077 257.169 10.9846L256.685 11.0056C257.022 10.5287 257.387 10.143 257.779 9.84848C258.172 9.53992 258.593 9.31551 259.042 9.17525C259.504 9.02097 259.988 8.94382 260.493 8.94382C261.559 8.94382 262.45 9.13317 263.165 9.51186C263.88 9.89056 264.42 10.4446 264.785 11.1739C265.15 11.9032 265.332 12.7939 265.332 13.8458C265.332 14.8837 265.164 15.7954 264.827 16.5808C264.491 17.3522 263.979 17.9483 263.291 18.3691C262.604 18.7898 261.735 19.0002 260.683 19.0002ZM270.213 14.8767C269.568 14.8767 269.035 14.7785 268.614 14.5821C268.193 14.3858 267.864 14.1403 267.625 13.8458C267.387 13.5372 267.219 13.2146 267.12 12.878C267.022 12.5414 266.973 12.2328 266.973 11.9523C266.973 11.3773 267.064 10.9074 267.247 10.5428C267.429 10.1781 267.618 9.84147 267.815 9.5329L270.087 9.70121C269.778 9.99575 269.533 10.2833 269.35 10.5638C269.168 10.8443 269.077 11.202 269.077 11.6368C269.077 11.9874 269.182 12.2749 269.393 12.4993C269.617 12.7237 269.897 12.8359 270.234 12.8359C270.641 12.8359 270.942 12.7378 271.139 12.5414C271.349 12.331 271.454 12.0715 271.454 11.763C271.454 11.3422 271.279 11.0477 270.928 10.8794C270.592 10.697 270.136 10.6059 269.561 10.6059H255.255L253.824 10.0378L251.236 10.6059H248.333V8.22852H267.752C268.607 8.22852 269.315 8.25657 269.876 8.31267C270.451 8.35475 270.935 8.4389 271.328 8.56513C271.735 8.69136 272.106 8.88772 272.443 9.15421C272.794 9.4207 273.074 9.75731 273.285 10.1641C273.495 10.5708 273.6 11.0827 273.6 11.6999C273.6 12.6115 273.299 13.3689 272.696 13.972C272.107 14.5751 271.279 14.8767 270.213 14.8767Z" fill="white"/>
<path d="M233.448 19.0002C232.775 19.0002 232.178 18.9021 231.659 18.7057C231.141 18.5093 230.615 18.1797 230.082 17.7169C229.563 17.24 228.939 16.5948 228.209 15.7813C227.816 15.3325 227.508 15.024 227.283 14.8556C227.059 14.6733 226.8 14.5821 226.505 14.5821C226.281 14.5821 226.056 14.6733 225.832 14.8556C225.621 15.024 225.516 15.2904 225.516 15.6551C225.516 16.0899 225.628 16.3915 225.853 16.5598C226.091 16.7281 226.365 16.8122 226.673 16.8122C227.01 16.8122 227.347 16.672 227.683 16.3915C228.02 16.1109 228.258 15.6481 228.399 15.0029L230.145 16.8543C229.864 17.247 229.57 17.6117 229.261 17.9483C228.967 18.2709 228.595 18.5304 228.146 18.7267C227.697 18.9091 227.094 19.0002 226.337 19.0002C225.509 19.0002 224.829 18.8459 224.296 18.5374C223.777 18.2148 223.391 17.801 223.139 17.2961C222.9 16.7772 222.781 16.2372 222.781 15.6761C222.781 15.0029 222.943 14.4208 223.265 13.93C223.588 13.425 224.03 13.0323 224.591 12.7518C225.152 12.4713 225.783 12.331 226.484 12.331C227.073 12.331 227.592 12.4082 228.041 12.5624C228.49 12.7167 228.924 12.9692 229.345 13.3198C229.78 13.6705 230.257 14.1333 230.776 14.7084C231.225 15.1993 231.596 15.571 231.891 15.8234C232.185 16.0759 232.452 16.2442 232.69 16.3283C232.929 16.4125 233.174 16.4546 233.427 16.4546C233.876 16.4546 234.233 16.3143 234.5 16.0338C234.766 15.7533 234.899 15.3045 234.899 14.6873C234.899 13.972 234.71 13.3198 234.331 12.7308C233.953 12.1417 233.434 11.6368 232.775 11.216C232.115 10.7952 231.365 10.4937 230.523 10.3113L235.552 10.2272C236.014 10.5357 236.414 10.9074 236.751 11.3422C237.101 11.763 237.368 12.2399 237.55 12.7728C237.733 13.2918 237.824 13.8598 237.824 14.477C237.824 15.3886 237.655 16.1881 237.319 16.8753C236.982 17.5486 236.484 18.0745 235.825 18.4532C235.18 18.8179 234.387 19.0002 233.448 19.0002ZM242.515 14.8767C241.87 14.8767 241.337 14.7785 240.916 14.5821C240.496 14.3858 240.166 14.1403 239.928 13.8458C239.689 13.5372 239.521 13.2146 239.423 12.878C239.325 12.5414 239.275 12.2328 239.275 11.9523C239.275 11.3773 239.367 10.9074 239.549 10.5428C239.731 10.1781 239.921 9.84147 240.117 9.5329L242.368 9.70121C242.074 9.99575 241.835 10.2833 241.653 10.5638C241.47 10.8443 241.379 11.202 241.379 11.6368C241.379 11.9874 241.484 12.2749 241.695 12.4993C241.919 12.7237 242.2 12.8359 242.536 12.8359C242.943 12.8359 243.245 12.7378 243.441 12.5414C243.637 12.331 243.736 12.0715 243.736 11.763C243.736 11.3422 243.567 11.0477 243.231 10.8794C242.894 10.697 242.445 10.6059 241.884 10.6059H225.011V8.22852H240.054C240.909 8.22852 241.618 8.25657 242.179 8.31267C242.74 8.35475 243.217 8.4389 243.609 8.56513C244.016 8.69136 244.388 8.88772 244.724 9.15421C245.089 9.4207 245.37 9.75731 245.566 10.1641C245.776 10.5708 245.882 11.0827 245.882 11.6999C245.882 12.6115 245.587 13.3689 244.998 13.972C244.409 14.5751 243.581 14.8767 242.515 14.8767Z" fill="white"/>
<path d="M208.5 13.7874C208.5 12.7495 208.724 11.8168 209.173 10.9893C209.622 10.1477 210.281 9.4815 211.151 8.9906C212.034 8.48568 213.114 8.23322 214.391 8.23322C215.681 8.23322 216.761 8.47166 217.631 8.94853C218.5 9.41138 219.152 10.0566 219.587 10.8841C220.036 11.7116 220.261 12.6723 220.261 13.7663C220.261 14.7902 220.043 15.7019 219.608 16.5014C219.174 17.2868 218.521 17.9039 217.652 18.3527C216.782 18.7875 215.695 19.0049 214.391 19.0049C213.086 19.0049 211.992 18.7805 211.109 18.3317C210.239 17.8829 209.587 17.2658 209.152 16.4803C208.717 15.6949 208.5 14.7972 208.5 13.7874ZM211.424 13.5139C211.424 14.3695 211.67 15.0777 212.161 15.6388C212.666 16.1858 213.409 16.4593 214.391 16.4593C215.05 16.4593 215.597 16.3401 216.032 16.1016C216.467 15.8492 216.796 15.5125 217.021 15.0918C217.245 14.657 217.357 14.1661 217.357 13.6191C217.357 13.0581 217.245 12.5531 217.021 12.1043C216.81 11.6555 216.481 11.2978 216.032 11.0313C215.597 10.7508 215.05 10.6106 214.391 10.6106C213.718 10.6106 213.164 10.7438 212.729 11.0103C212.294 11.2768 211.964 11.6344 211.74 12.0833C211.53 12.5181 211.424 12.9949 211.424 13.5139ZM213.507 10.4212C212.848 10.4212 212.266 10.316 211.761 10.1056C211.256 9.88124 210.828 9.52358 210.478 9.03268C210.127 8.52776 209.853 7.84751 209.657 6.99195L212.518 6.2556C212.673 6.97091 212.841 7.48284 213.023 7.79141C213.206 8.08595 213.458 8.23322 213.781 8.23322C213.991 8.23322 214.201 8.15608 214.412 8.00179C214.622 7.84751 214.903 7.55297 215.253 7.11818L216.137 6.00314C216.628 5.38601 217.091 4.90212 217.526 4.55148C217.96 4.18681 218.43 3.92032 218.935 3.75202C219.454 3.58371 220.071 3.49254 220.786 3.47852L220.955 5.91898C220.478 5.94703 220.064 6.03119 219.714 6.17144C219.377 6.29768 219.068 6.48001 218.788 6.71845C218.507 6.95688 218.213 7.27246 217.904 7.66518L217.21 8.52776C216.943 8.86437 216.628 9.17995 216.263 9.47449C215.899 9.755 215.485 9.98643 215.022 10.1688C214.573 10.3371 214.068 10.4212 213.507 10.4212Z" fill="white"/>
<path d="M187.278 27.2272C186.395 27.2272 185.715 27.129 185.238 26.9327C184.761 26.7363 184.34 26.4698 183.975 26.1332H184.102C183.709 26.568 183.309 26.8555 182.902 26.9958C182.482 27.1501 181.998 27.2272 181.451 27.2272C180.918 27.2272 180.448 27.101 180.041 26.8485C179.634 26.6101 179.319 26.2594 179.094 25.7966C178.87 25.3337 178.758 24.7797 178.758 24.1345C178.758 23.293 178.989 22.5496 179.452 21.9045C179.901 21.2733 180.553 20.7754 181.409 20.4107C182.264 20.0601 183.274 19.8848 184.438 19.8848C185.406 19.8848 186.248 19.9479 186.963 20.0741C187.664 20.2003 188.407 20.3967 189.193 20.6632L188.372 22.5567C187.825 22.3463 187.349 22.185 186.942 22.0728C186.521 21.9606 186.121 21.8834 185.743 21.8413C185.35 21.7993 184.922 21.7782 184.459 21.7782C183.674 21.7782 183.029 21.8834 182.524 22.0938C182.019 22.3182 181.654 22.6057 181.43 22.9564C181.191 23.307 181.072 23.6997 181.072 24.1345C181.072 24.4992 181.156 24.7867 181.325 24.9971C181.479 25.2215 181.71 25.3337 182.019 25.3337C182.299 25.3337 182.538 25.2285 182.734 25.0182C182.916 24.8218 183.029 24.5483 183.071 24.1977H185.09C185.118 24.4361 185.175 24.6465 185.259 24.8288C185.343 25.0111 185.476 25.1514 185.658 25.2496C185.841 25.3478 186.093 25.3969 186.416 25.3969C186.57 25.4109 186.738 25.4249 186.921 25.4389C187.089 25.467 187.271 25.481 187.468 25.481C187.748 25.481 187.973 25.4319 188.141 25.3337C188.295 25.2496 188.372 25.1093 188.372 24.913C188.372 24.7727 188.323 24.6605 188.225 24.5764C188.113 24.4922 187.959 24.4501 187.762 24.4501C187.58 24.4501 187.433 24.5062 187.32 24.6184C187.194 24.7306 187.131 24.906 187.131 25.1444C187.131 25.3267 187.18 25.488 187.278 25.6283C187.363 25.7826 187.482 25.9228 187.636 26.049L186.079 26.4488C185.911 26.2103 185.792 25.9368 185.722 25.6283C185.637 25.3197 185.595 25.0743 185.595 24.8919C185.595 24.2748 185.792 23.7699 186.184 23.3772C186.563 22.9844 187.117 22.7881 187.846 22.7881C188.548 22.7881 189.116 22.9844 189.551 23.3772C189.971 23.7839 190.182 24.2818 190.182 24.8709C190.182 25.2636 190.098 25.6353 189.929 25.9859C189.747 26.3506 189.445 26.6451 189.025 26.8696C188.604 27.108 188.022 27.2272 187.278 27.2272Z" fill="white"/>
<path d="M193.854 19.0002C192.788 19.0002 191.89 18.7548 191.161 18.2639C190.432 17.773 189.737 17.1559 189.078 16.4125L190.698 14.6032C190.993 14.9398 191.301 15.2484 191.624 15.5289C191.932 15.8094 192.269 16.0338 192.634 16.2021C193.012 16.3704 193.419 16.4546 193.854 16.4546C194.345 16.4546 194.723 16.3143 194.99 16.0338C195.256 15.7533 195.39 15.3325 195.39 14.7715C195.39 14.1123 195.242 13.5302 194.948 13.0253C194.653 12.5204 194.268 12.0715 193.791 11.6788C193.314 11.2721 192.809 10.9004 192.276 10.5638L193.938 8.22852C194.766 8.67734 195.509 9.21031 196.168 9.82744C196.827 10.4446 197.346 11.1459 197.725 11.9313C198.118 12.7027 198.314 13.5723 198.314 14.5401C198.314 15.8865 197.935 16.9665 197.178 17.78C196.421 18.5935 195.313 19.0002 193.854 19.0002Z" fill="white"/>
<path d="M185.867 19.0049C185.067 19.0049 184.387 18.9278 183.826 18.7735C183.265 18.6333 182.788 18.4299 182.396 18.1634C182.003 17.8829 181.652 17.5603 181.344 17.1956L181.491 17.2167C181.154 17.7076 180.797 18.0863 180.418 18.3527C180.053 18.6052 179.661 18.7735 179.24 18.8577C178.833 18.9558 178.377 19.0049 177.872 19.0049C176.764 19.0049 175.867 18.6122 175.179 17.8268C174.492 17.0413 174.148 15.9263 174.148 14.4817C174.148 13.1352 174.478 11.9991 175.137 11.0734C175.796 10.1337 176.729 9.4254 177.935 8.94853C179.142 8.47166 180.551 8.23322 182.164 8.23322C183.02 8.23322 183.798 8.28231 184.499 8.38049C185.201 8.47867 185.881 8.62594 186.54 8.8223C187.199 9.00463 187.894 9.24307 188.623 9.53761L187.34 11.8939C186.582 11.5573 185.916 11.2978 185.341 11.1155C184.78 10.9332 184.24 10.8069 183.721 10.7368C183.202 10.6526 182.634 10.6106 182.017 10.6106C180.867 10.6106 179.927 10.7789 179.198 11.1155C178.468 11.4381 177.928 11.8799 177.578 12.4409C177.241 12.9879 177.073 13.598 177.073 14.2713C177.073 15.0567 177.199 15.6177 177.451 15.9544C177.704 16.291 178.055 16.4593 178.503 16.4593C178.966 16.4593 179.338 16.291 179.618 15.9544C179.913 15.6177 180.088 15.1479 180.144 14.5448H182.732C182.774 15.0918 182.936 15.5336 183.216 15.8702C183.511 16.2068 184.001 16.4242 184.689 16.5224C184.899 16.5645 185.131 16.5995 185.383 16.6276C185.649 16.6416 185.93 16.6486 186.225 16.6486C186.617 16.6486 186.926 16.5715 187.15 16.4172C187.375 16.2629 187.487 16.0105 187.487 15.6598C187.487 15.4214 187.403 15.225 187.234 15.0707C187.08 14.9165 186.863 14.8393 186.582 14.8393C186.316 14.8393 186.084 14.9165 185.888 15.0707C185.706 15.225 185.614 15.4775 185.614 15.8281C185.614 16.0806 185.678 16.319 185.804 16.5434C185.93 16.7538 186.105 16.9432 186.33 17.1115L184.289 17.7006C184.051 17.3639 183.868 16.9782 183.742 16.5434C183.63 16.0946 183.574 15.737 183.574 15.4705C183.574 14.6149 183.84 13.9276 184.373 13.4087C184.92 12.8757 185.685 12.6092 186.666 12.6092C187.312 12.6092 187.873 12.7425 188.349 13.009C188.826 13.2754 189.198 13.6401 189.464 14.103C189.731 14.5518 189.864 15.0567 189.864 15.6177C189.864 16.0385 189.794 16.4523 189.654 16.859C189.528 17.2658 189.31 17.6304 189.002 17.953C188.707 18.2756 188.3 18.5351 187.781 18.7314C187.262 18.9138 186.624 19.0049 185.867 19.0049ZM181.407 10.4212C180.748 10.4212 180.165 10.316 179.661 10.1056C179.156 9.88124 178.728 9.52358 178.377 9.03268C178.027 8.52776 177.753 7.84751 177.557 6.99195L180.418 6.2556C180.572 6.97091 180.741 7.48284 180.923 7.79141C181.105 8.08595 181.358 8.23322 181.68 8.23322C181.891 8.23322 182.101 8.15608 182.311 8.00179C182.522 7.84751 182.802 7.55297 183.153 7.11818L184.037 6.00314C184.527 5.38601 184.99 4.90212 185.425 4.55148C185.86 4.18681 186.33 3.92032 186.835 3.75202C187.354 3.58371 187.971 3.49254 188.686 3.47852L188.854 5.91898C188.377 5.94703 187.964 6.03119 187.613 6.17144C187.276 6.29768 186.968 6.48001 186.687 6.71845C186.407 6.95688 186.112 7.27246 185.804 7.66518L185.109 8.52776C184.843 8.86437 184.527 9.17995 184.163 9.47449C183.798 9.755 183.384 9.98643 182.922 10.1688C182.473 10.3371 181.968 10.4212 181.407 10.4212Z" fill="white"/>
<path d="M156.164 13.7851C156.164 12.7472 156.388 11.8145 156.837 10.9869C157.286 10.1454 157.945 9.47919 158.815 8.98829C159.699 8.48336 160.779 8.2309 162.055 8.2309C163.345 8.2309 164.425 8.46934 165.295 8.94621C166.164 9.40906 166.817 10.0542 167.251 10.8818C167.7 11.7093 167.925 12.67 167.925 13.764C167.925 14.7879 167.707 15.6996 167.272 16.499C166.838 17.2845 166.185 17.9016 165.316 18.3504C164.446 18.7852 163.359 19.0026 162.055 19.0026C160.75 19.0026 159.656 18.7782 158.773 18.3294C157.903 17.8806 157.251 17.2634 156.816 16.478C156.381 15.6926 156.164 14.7949 156.164 13.7851ZM159.088 13.5116C159.088 14.3671 159.334 15.0754 159.825 15.6365C160.33 16.1835 161.073 16.457 162.055 16.457C162.714 16.457 163.261 16.3377 163.696 16.0993C164.131 15.8468 164.46 15.5102 164.685 15.0895C164.909 14.6547 165.021 14.1638 165.021 13.6168C165.021 13.0557 164.909 12.5508 164.685 12.102C164.474 11.6532 164.145 11.2955 163.696 11.029C163.261 10.7485 162.714 10.6083 162.055 10.6083C161.382 10.6083 160.828 10.7415 160.393 11.008C159.958 11.2745 159.628 11.6321 159.404 12.0809C159.194 12.5157 159.088 12.9926 159.088 13.5116ZM170.702 10.3348C170.056 10.3348 169.524 10.2366 169.103 10.0402C168.682 9.84385 168.345 9.5984 168.093 9.30386C167.854 8.9953 167.686 8.67271 167.588 8.33609C167.49 7.99948 167.441 7.69792 167.441 7.43144C167.441 6.85638 167.532 6.38652 167.714 6.02186C167.911 5.64316 168.107 5.30655 168.303 5.01201L170.554 5.15928C170.246 5.45382 170 5.74134 169.818 6.02186C169.636 6.30237 169.545 6.66002 169.545 7.09482C169.545 7.44546 169.65 7.73299 169.86 7.9574C170.085 8.18181 170.372 8.29402 170.723 8.29402C171.143 8.29402 171.445 8.18882 171.627 7.97844C171.824 7.76805 171.922 7.51559 171.922 7.22105C171.922 6.81431 171.754 6.51977 171.417 6.33743C171.08 6.1551 170.625 6.06393 170.049 6.06393H167.041C166.564 6.06393 166.192 6.18315 165.926 6.42159C165.659 6.66002 165.491 7.03872 165.421 7.55767H162.854C162.756 7.09482 162.574 6.73015 162.307 6.46366C162.055 6.19718 161.648 6.06393 161.087 6.06393H160.856C160.547 6.06393 160.281 6.16211 160.056 6.35847C159.832 6.55483 159.72 6.83534 159.72 7.20001C159.72 7.42442 159.769 7.61377 159.867 7.76805C159.979 7.92234 160.133 8.04155 160.33 8.12571C160.526 8.19584 160.75 8.2309 161.003 8.2309H161.718V10.5241H161.171C160.358 10.5241 159.642 10.3838 159.025 10.1033C158.422 9.80879 157.952 9.39503 157.616 8.86206C157.279 8.32908 157.111 7.70494 157.111 6.98963C157.111 6.02186 157.426 5.23642 158.058 4.63331C158.703 4.01618 159.579 3.70762 160.687 3.70762H160.94C161.557 3.70762 162.09 3.79879 162.539 3.98112C162.988 4.14943 163.352 4.38085 163.633 4.67539C163.913 4.96993 164.11 5.28551 164.222 5.62212H164.032C164.201 5.27148 164.418 4.9559 164.685 4.67539C164.951 4.38085 165.316 4.14943 165.779 3.98112C166.242 3.79879 166.845 3.70762 167.588 3.70762H168.85C169.762 3.70762 170.54 3.76372 171.186 3.87593C171.831 3.97411 172.399 4.21254 172.89 4.59124C173.254 4.85772 173.542 5.19434 173.752 5.60109C173.963 6.00783 174.068 6.52678 174.068 7.15794C174.068 8.08363 173.773 8.84803 173.184 9.45113C172.595 10.0402 171.768 10.3348 170.702 10.3348ZM171.375 0.509766C172.273 0.509766 172.995 0.699112 173.542 1.07781C174.089 1.44247 174.503 1.96142 174.783 2.63466L172.637 3.16062C172.553 3.00634 172.455 2.87309 172.343 2.76089C172.23 2.64868 172.097 2.56453 171.943 2.50842C171.789 2.45232 171.606 2.42427 171.396 2.42427C171.045 2.42427 170.772 2.50842 170.575 2.67673C170.393 2.83101 170.302 3.03439 170.302 3.28685C170.302 3.55334 170.379 3.79879 170.533 4.0232C170.688 4.23358 170.898 4.42293 171.165 4.59124L169.019 5.3907C168.752 5.15226 168.507 4.83669 168.282 4.44397C168.072 4.03722 167.967 3.57438 167.967 3.05543C167.967 2.6066 168.086 2.19285 168.324 1.81415C168.563 1.42143 168.934 1.10586 169.439 0.867421C169.944 0.628984 170.589 0.509766 171.375 0.509766Z" fill="white"/>
<path d="M142.124 8.22852C143.092 8.22852 143.898 8.42487 144.544 8.81759C145.189 9.21031 145.708 9.72926 146.1 10.3744C146.493 11.0196 146.774 11.7349 146.942 12.5204C147.11 13.2918 147.194 14.0702 147.194 14.8556C147.194 16.2722 147.019 17.6047 146.668 18.853C146.332 20.1012 145.841 21.2654 145.196 22.3454C144.565 23.4394 143.807 24.4492 142.924 25.3749C142.04 26.3146 141.065 27.1842 139.999 27.9837L138.211 26.0061C139.052 25.3468 139.845 24.6386 140.588 23.8812C141.346 23.1238 142.005 22.2963 142.566 21.3986C143.141 20.515 143.59 19.5402 143.912 18.4743C144.235 17.4083 144.396 16.2231 144.396 14.9188C144.396 14.4419 144.354 13.937 144.27 13.404C144.2 12.871 144.074 12.3731 143.891 11.9103C143.723 11.4474 143.485 11.0687 143.176 10.7742C142.881 10.4796 142.503 10.3324 142.04 10.3324C141.745 10.3324 141.493 10.4165 141.283 10.5848C141.072 10.7531 140.967 10.9775 140.967 11.2581C140.967 11.5386 141.044 11.763 141.198 11.9313C141.353 12.0856 141.542 12.1908 141.766 12.2469C142.005 12.303 142.229 12.331 142.44 12.331C143.015 12.331 143.506 12.1767 143.912 11.8682C144.319 11.5456 144.698 11.202 145.048 10.8373L145.806 13.0043C145.315 13.3549 144.775 13.6775 144.186 13.972C143.611 14.2666 142.896 14.4138 142.04 14.4138C140.974 14.4138 140.104 14.1614 139.431 13.6565C138.772 13.1515 138.442 12.3661 138.442 11.3001C138.442 10.7111 138.583 10.1851 138.863 9.72225C139.144 9.2594 139.557 8.89474 140.104 8.62825C140.651 8.36176 141.325 8.22852 142.124 8.22852Z" fill="white"/>
<path d="M131.149 27.2272C130.531 27.2272 130.027 27.115 129.634 26.8906C129.227 26.6662 128.841 26.3155 128.477 25.8387H128.961C128.624 26.1893 128.308 26.4628 128.014 26.6592C127.705 26.8696 127.383 27.0168 127.046 27.101C126.709 27.1851 126.303 27.2272 125.826 27.2272C125.012 27.2272 124.367 27.0519 123.89 26.7012C123.413 26.3506 123.077 25.9018 122.88 25.3548C122.684 24.8218 122.586 24.2748 122.586 23.7138C122.586 22.9003 122.754 22.206 123.091 21.631C123.413 21.0699 123.855 20.6351 124.416 20.3266C124.977 20.032 125.608 19.8848 126.31 19.8848C127.179 19.8848 127.839 20.0881 128.287 20.4949C128.722 20.9157 128.94 21.4276 128.94 22.0307C128.94 22.732 128.715 23.265 128.266 23.6296C127.803 23.9943 127.116 24.1766 126.205 24.1766C125.714 24.1766 125.272 24.0784 124.879 23.8821C124.472 23.6997 124.122 23.4753 123.827 23.2089L124.395 21.7782C124.564 22.0026 124.788 22.213 125.068 22.4094C125.335 22.6057 125.644 22.7039 125.994 22.7039C126.303 22.7039 126.548 22.6478 126.731 22.5356C126.899 22.4374 126.983 22.2761 126.983 22.0517C126.983 21.8975 126.934 21.7502 126.836 21.6099C126.724 21.4837 126.548 21.4206 126.31 21.4206C125.931 21.4206 125.587 21.5749 125.279 21.8834C124.97 22.192 124.816 22.739 124.816 23.5244V23.7559C124.816 24.1065 124.865 24.401 124.963 24.6395C125.047 24.8779 125.195 25.0532 125.405 25.1654C125.601 25.2776 125.854 25.3337 126.162 25.3337C126.709 25.3337 127.088 25.2075 127.299 24.955C127.495 24.7166 127.614 24.4641 127.656 24.1977H129.697C129.767 24.7026 129.928 25.0182 130.181 25.1444C130.419 25.2706 130.693 25.3337 131.001 25.3337C131.366 25.3337 131.633 25.2285 131.801 25.0182C131.955 24.8078 132.032 24.5623 132.032 24.2818C132.032 23.7068 131.815 23.2229 131.38 22.8302C130.945 22.4374 130.454 22.0868 129.907 21.7782L131.254 19.8848C131.843 20.1793 132.376 20.537 132.853 20.9577C133.33 21.3785 133.708 21.8554 133.989 22.3884C134.255 22.9213 134.389 23.5174 134.389 24.1766C134.389 25.0883 134.115 25.8246 133.568 26.3857C133.007 26.9467 132.201 27.2272 131.149 27.2272Z" fill="white"/>
<path d="M130.729 19.0049C130.056 19.0049 129.46 18.9068 128.941 18.7104C128.422 18.514 127.896 18.1844 127.363 17.7216C126.844 17.2447 126.22 16.5995 125.49 15.786C125.098 15.3372 124.789 15.0287 124.565 14.8603C124.34 14.678 124.081 14.5868 123.786 14.5868C123.562 14.5868 123.337 14.678 123.113 14.8603C122.903 15.0287 122.798 15.2951 122.798 15.6598C122.798 16.0946 122.91 16.3962 123.134 16.5645C123.373 16.7328 123.646 16.8169 123.955 16.8169C124.291 16.8169 124.628 16.6767 124.964 16.3962C125.301 16.1156 125.54 15.6528 125.68 15.0076L127.426 16.859C127.145 17.2517 126.851 17.6164 126.542 17.953C126.248 18.2756 125.876 18.5351 125.427 18.7314C124.978 18.9138 124.375 19.0049 123.618 19.0049C122.791 19.0049 122.11 18.8507 121.577 18.5421C121.058 18.2195 120.673 17.8057 120.42 17.3008C120.182 16.7959 120.062 16.2629 120.062 15.7019C120.062 15.0146 120.224 14.4256 120.546 13.9347C120.869 13.4297 121.311 13.037 121.872 12.7565C122.433 12.476 123.064 12.3357 123.765 12.3357C124.354 12.3357 124.873 12.4129 125.322 12.5672C125.771 12.7214 126.206 12.9739 126.627 13.3245C127.061 13.6752 127.538 14.138 128.057 14.7131C128.506 15.204 128.871 15.5757 129.151 15.8281C129.446 16.0806 129.712 16.2489 129.951 16.333C130.203 16.4172 130.491 16.4593 130.813 16.4593C131.206 16.4593 131.528 16.319 131.781 16.0385C132.047 15.758 132.181 15.3372 132.181 14.7762C132.181 14.117 132.033 13.5349 131.739 13.03C131.444 12.5251 131.059 12.0763 130.582 11.6835C130.119 11.2768 129.621 10.9051 129.088 10.5685L130.729 8.23322C131.557 8.68204 132.3 9.21501 132.959 9.83214C133.618 10.4493 134.137 11.1506 134.516 11.936C134.909 12.7074 135.105 13.577 135.105 14.5448C135.105 15.4424 134.937 16.2279 134.6 16.9011C134.263 17.5603 133.766 18.0792 133.106 18.4579C132.461 18.8226 131.669 19.0049 130.729 19.0049ZM133.885 21.6768C133.099 21.6768 132.468 21.5506 131.991 21.2981C131.528 21.0457 131.192 20.7161 130.981 20.3093C130.785 19.9026 130.687 19.4678 130.687 19.0049C130.687 18.8226 130.701 18.6333 130.729 18.4369C130.771 18.2405 130.827 18.0512 130.897 17.8689H133.611C133.541 17.9811 133.485 18.0933 133.443 18.2055C133.401 18.3037 133.38 18.4018 133.38 18.5C133.38 18.6543 133.415 18.7946 133.485 18.9208C133.555 19.047 133.653 19.1452 133.78 19.2153C133.906 19.2854 134.053 19.3205 134.221 19.3205C134.446 19.3205 134.642 19.2784 134.811 19.1943C134.993 19.1242 135.21 18.9979 135.463 18.8156L136.746 20.667C136.297 21.0036 135.841 21.2561 135.379 21.4244C134.93 21.5927 134.432 21.6768 133.885 21.6768ZM124.291 10.4212C123.632 10.4212 123.05 10.316 122.545 10.1056C122.04 9.88124 121.612 9.52358 121.262 9.03268C120.911 8.52776 120.638 7.84751 120.441 6.99195L123.302 6.2556C123.457 6.97091 123.625 7.48284 123.807 7.79141C123.99 8.08595 124.242 8.23322 124.565 8.23322C124.775 8.23322 124.986 8.15608 125.196 8.00179C125.406 7.84751 125.687 7.55297 126.037 7.11818L126.921 6.00314C127.412 5.38601 127.875 4.90212 128.31 4.55148C128.744 4.18681 129.214 3.92032 129.719 3.75202C130.238 3.58371 130.855 3.49254 131.571 3.47852L131.739 5.91898C131.262 5.94703 130.848 6.03119 130.498 6.17144C130.161 6.29767 129.852 6.48001 129.572 6.71845C129.291 6.95688 128.997 7.27246 128.688 7.66518L127.994 8.52776C127.728 8.86437 127.412 9.17995 127.047 9.47449C126.683 9.755 126.269 9.98643 125.806 10.1688C125.357 10.3371 124.852 10.4212 124.291 10.4212Z" fill="white"/>
<path d="M98.4492 13.7827C98.4492 12.7448 98.6736 11.8542 99.1225 11.1108C99.5713 10.3674 100.23 9.79238 101.1 9.38563C101.984 8.97889 103.057 8.77552 104.319 8.77552C105.623 8.77552 106.71 8.96486 107.58 9.34356C108.45 9.72225 109.102 10.2833 109.537 11.0266C109.985 11.756 110.21 12.6676 110.21 13.7616C110.21 14.7855 109.992 15.6972 109.558 16.4966C109.123 17.2821 108.464 17.8992 107.58 18.348C106.71 18.7828 105.623 19.0002 104.319 19.0002C103.029 19.0002 101.942 18.7758 101.058 18.327C100.188 17.8782 99.5362 17.261 99.1014 16.4756C98.6666 15.6902 98.4492 14.7925 98.4492 13.7827ZM101.374 13.5092C101.374 14.3647 101.619 15.073 102.11 15.6341C102.615 16.1811 103.351 16.4546 104.319 16.4546C104.978 16.4546 105.525 16.3354 105.96 16.0969C106.409 15.8445 106.738 15.5078 106.949 15.0871C107.173 14.6523 107.285 14.1614 107.285 13.6144C107.285 13.0533 107.173 12.5484 106.949 12.0996C106.738 11.6508 106.416 11.2931 105.981 11.0266C105.546 10.7461 104.992 10.6059 104.319 10.6059C103.66 10.6059 103.106 10.7391 102.657 11.0056C102.222 11.2721 101.9 11.6297 101.689 12.0786C101.479 12.5134 101.374 12.9902 101.374 13.5092ZM115.07 14.8767C114.424 14.8767 113.891 14.7785 113.471 14.5821C113.05 14.3858 112.713 14.1403 112.461 13.8458C112.222 13.5372 112.054 13.2146 111.956 12.878C111.858 12.5414 111.809 12.2328 111.809 11.9523C111.809 11.4053 111.9 10.9425 112.082 10.5638C112.279 10.1851 112.475 9.84147 112.671 9.5329L114.922 9.70121C114.614 9.99575 114.368 10.2833 114.186 10.5638C114.004 10.8443 113.913 11.202 113.913 11.6368C113.913 11.9874 114.018 12.2749 114.228 12.4993C114.453 12.7237 114.74 12.8359 115.091 12.8359C115.497 12.8359 115.799 12.7378 115.995 12.5414C116.192 12.331 116.29 12.0715 116.29 11.763C116.29 11.3422 116.122 11.0477 115.785 10.8794C115.448 10.697 114.993 10.6059 114.417 10.6059H98.6386V8.22852H112.608C113.464 8.22852 114.172 8.25657 114.733 8.31267C115.294 8.35475 115.771 8.4389 116.164 8.56513C116.57 8.69136 116.942 8.88772 117.279 9.15421C117.629 9.4207 117.91 9.75731 118.12 10.1641C118.331 10.5708 118.436 11.0827 118.436 11.6999C118.436 12.6115 118.141 13.3689 117.552 13.972C116.963 14.5751 116.136 14.8767 115.07 14.8767Z" fill="white"/>
<path d="M84.7685 19.0002C83.8709 19.0002 83.1486 18.853 82.6016 18.5584C82.0686 18.2499 81.6829 17.8571 81.4444 17.3803C81.22 16.9034 81.1078 16.3985 81.1078 15.8655C81.1078 15.1782 81.2621 14.6102 81.5707 14.1614C81.8792 13.7126 82.286 13.383 82.7909 13.1726C83.3099 12.9482 83.8569 12.8359 84.4319 12.8359C85.1612 12.8359 85.7714 12.9622 86.2623 13.2146C86.7672 13.4531 87.1809 13.7406 87.5035 14.0772C87.8401 14.3998 88.1066 14.6873 88.303 14.9398L87.23 17.0857C87.0757 16.707 86.8864 16.3494 86.662 16.0128C86.4516 15.6761 86.1991 15.4026 85.9046 15.1923C85.6101 14.9679 85.2594 14.8556 84.8527 14.8556C84.5441 14.8556 84.2636 14.9398 84.0111 15.1081C83.7587 15.2764 83.6324 15.5429 83.6324 15.9076C83.6324 16.2302 83.7376 16.4826 83.948 16.665C84.1584 16.8473 84.4389 16.9385 84.7896 16.9385C85.2524 16.9385 85.6171 16.8122 85.8836 16.5598C86.1641 16.3073 86.3604 15.9707 86.4726 15.5499C86.5849 15.1291 86.641 14.6733 86.641 14.1824V13.7827C86.641 13.1936 86.5638 12.6747 86.4095 12.2258C86.2552 11.777 86.0098 11.4264 85.6732 11.1739C85.3366 10.9074 84.8948 10.7742 84.3478 10.7742C84.0111 10.7742 83.7096 10.8443 83.4431 10.9846C83.1766 11.1108 82.9522 11.2931 82.7699 11.5316C82.6016 11.756 82.4683 12.0154 82.3701 12.31H79.6562C79.586 12.0856 79.4598 11.8401 79.2775 11.5736C79.1092 11.2931 78.8567 11.0547 78.5201 10.8583C78.1835 10.6479 77.7206 10.5428 77.1315 10.5428C76.6406 10.5428 76.2409 10.6269 75.9323 10.7952C75.6378 10.9495 75.4905 11.209 75.4905 11.5736C75.4905 11.7139 75.5116 11.8471 75.5537 11.9734C75.6098 12.0856 75.7079 12.1838 75.8482 12.2679C75.9744 12.338 76.1357 12.4012 76.3321 12.4573C76.5425 12.4993 76.8651 12.5204 77.2999 12.5204H78.5411V14.7084H77.2367C76.8019 14.7084 76.4653 14.7294 76.2269 14.7715C75.9885 14.8136 75.7991 14.8907 75.6589 15.0029C75.5607 15.0871 75.4765 15.1923 75.4064 15.3185C75.3503 15.4307 75.3222 15.5639 75.3222 15.7182C75.3222 15.9987 75.4134 16.2302 75.5957 16.4125C75.7921 16.5948 76.1077 16.686 76.5425 16.686C77.0053 16.686 77.4191 16.5668 77.7837 16.3283C78.1624 16.0899 78.5271 15.7743 78.8777 15.3816L80.6871 16.9805C80.3084 17.4153 79.8946 17.787 79.4458 18.0956C79.011 18.3901 78.5271 18.6145 77.9941 18.7688C77.4612 18.9231 76.851 19.0002 76.1638 19.0002C74.8454 19.0002 73.8495 18.7267 73.1763 18.1797C72.5171 17.6187 72.1875 16.9314 72.1875 16.118C72.1875 15.7252 72.2646 15.3606 72.4189 15.024C72.5732 14.6733 72.8116 14.3718 73.1342 14.1193C73.4708 13.8528 73.8916 13.6424 74.3965 13.4881L74.3755 13.7616C73.6742 13.5232 73.1623 13.1656 72.8397 12.6887C72.5171 12.2118 72.3558 11.6858 72.3558 11.1108C72.3558 10.2412 72.7345 9.54693 73.4919 9.02798C74.2493 8.495 75.2521 8.22852 76.5004 8.22852C77.2438 8.22852 77.8749 8.29864 78.3939 8.4389C78.9268 8.56513 79.4177 8.77552 79.8666 9.07006C80.3154 9.35057 80.7712 9.73628 81.2341 10.2272L80.7922 10.2482C81.1148 9.82744 81.4515 9.46979 81.8021 9.17525C82.1668 8.86668 82.5735 8.63526 83.0223 8.48098C83.4852 8.31267 84.0322 8.22852 84.6633 8.22852C85.7153 8.22852 86.5919 8.46695 87.2931 8.94382C87.9944 9.40667 88.5204 10.0589 88.871 10.9004C89.2357 11.7279 89.418 12.6817 89.418 13.7616C89.418 14.8697 89.2497 15.8164 88.9131 16.6018C88.5765 17.3733 88.0646 17.9693 87.3773 18.3901C86.69 18.7969 85.8205 19.0002 84.7685 19.0002Z" fill="white"/>
<path d="M56.0082 8.75448C57.1864 8.75448 58.2033 8.9298 59.0588 9.28044C59.9144 9.63108 60.5736 10.157 61.0364 10.8583C61.4993 11.5596 61.7307 12.4292 61.7307 13.4671C61.7307 14.3227 61.6536 15.0801 61.4993 15.7393C61.345 16.3985 61.1487 16.9875 60.9102 17.5065C60.6718 18.0114 60.4333 18.4813 60.1949 18.9161L57.3757 17.8221C57.6142 17.4995 57.8386 17.1418 58.049 16.7491C58.2734 16.3424 58.4557 15.8935 58.596 15.4026C58.7362 14.9117 58.8064 14.3788 58.8064 13.8037C58.8064 13.2567 58.7152 12.7378 58.5329 12.2469C58.3505 11.756 58.049 11.3633 57.6282 11.0687C57.2215 10.7601 56.6604 10.6059 55.9451 10.6059C55.3701 10.6059 54.8722 10.7391 54.4514 11.0056C54.0447 11.2721 53.7291 11.6438 53.5047 12.1206C53.2803 12.5835 53.168 13.1235 53.168 13.7406C53.168 14.5541 53.3013 15.3045 53.5678 15.9917C53.8343 16.665 54.1779 17.2681 54.5987 17.801L51.7585 18.9161C51.3237 18.1727 50.959 17.3592 50.6645 16.4756C50.3699 15.592 50.2227 14.6593 50.2227 13.6775C50.2227 12.7518 50.4401 11.9173 50.8748 11.1739C51.3237 10.4305 51.9759 9.84147 52.8314 9.40667C53.687 8.97188 54.7459 8.75448 56.0082 8.75448ZM66.5906 14.8767C65.9454 14.8767 65.4125 14.7785 64.9917 14.5821C64.5709 14.3858 64.2413 14.1403 64.0029 13.8458C63.7644 13.5372 63.5961 13.2146 63.498 12.878C63.3998 12.5414 63.3507 12.2328 63.3507 11.9523C63.3507 11.4053 63.4419 10.9425 63.6242 10.5638C63.8205 10.1851 64.0169 9.84147 64.2133 9.5329L66.4644 9.70121C66.1558 9.99575 65.9104 10.2833 65.728 10.5638C65.5457 10.8443 65.4545 11.202 65.4545 11.6368C65.4545 11.9874 65.5597 12.2749 65.7701 12.4993C65.9945 12.7237 66.282 12.8359 66.6327 12.8359C67.0394 12.8359 67.341 12.7378 67.5373 12.5414C67.7337 12.331 67.8319 12.0715 67.8319 11.763C67.8319 11.3422 67.6636 11.0477 67.327 10.8794C66.9903 10.697 66.5415 10.6059 65.9805 10.6059H50.3278V8.22852H64.1501C65.0057 8.22852 65.714 8.25657 66.275 8.31267C66.8361 8.35475 67.3129 8.4389 67.7057 8.56513C68.1124 8.69136 68.4841 8.88772 68.8207 9.15421C69.1713 9.4207 69.4519 9.75731 69.6622 10.1641C69.8726 10.5708 69.9778 11.0827 69.9778 11.6999C69.9778 12.6115 69.6763 13.3689 69.0732 13.972C68.4841 14.5751 67.6566 14.8767 66.5906 14.8767Z" fill="white"/>
<path d="M37.2227 14.3937C37.2227 13.51 37.433 12.7176 37.8538 12.0163C38.2746 11.315 38.8707 10.761 39.6421 10.3543C40.4135 9.94751 41.3322 9.74414 42.3981 9.74414C43.4781 9.74414 44.3968 9.94751 45.1542 10.3543C45.9116 10.761 46.4866 11.315 46.8793 12.0163C47.2861 12.7176 47.4894 13.51 47.4894 14.3937C47.4894 15.2773 47.2861 16.0697 46.8793 16.771C46.4726 17.4583 45.8835 18.0053 45.1121 18.412C44.3547 18.8047 43.436 19.0011 42.3561 19.0011C41.2901 19.0011 40.3714 18.7977 39.6 18.391C38.8286 17.9842 38.2395 17.4372 37.8328 16.75C37.426 16.0487 37.2227 15.2632 37.2227 14.3937ZM40.0418 14.3726C40.0418 15.0178 40.2312 15.5648 40.6099 16.0136C41.0026 16.4484 41.5846 16.6658 42.3561 16.6658C42.875 16.6658 43.3028 16.5676 43.6394 16.3713C43.976 16.1609 44.2285 15.8804 44.3968 15.5297C44.5791 15.1791 44.6703 14.7934 44.6703 14.3726C44.6703 13.7274 44.4669 13.1874 44.0602 12.7526C43.6675 12.3038 43.0994 12.0794 42.3561 12.0794C41.8652 12.0794 41.4444 12.1846 41.0937 12.395C40.7571 12.5914 40.4977 12.8649 40.3153 13.2155C40.133 13.5521 40.0418 13.9378 40.0418 14.3726Z" fill="white"/>
<path d="M27.2391 19.0002C25.6402 19.0002 24.2867 18.7408 23.1787 18.2218C22.0706 17.6888 21.2291 16.9735 20.654 16.0759C20.093 15.1642 19.8125 14.1403 19.8125 13.0043C19.8125 12.0225 20.0018 11.1739 20.3805 10.4586C20.7733 9.74329 21.3203 9.19629 22.0215 8.81759C22.7228 8.42487 23.5293 8.22852 24.441 8.22852C25.2825 8.22852 25.9628 8.3828 26.4817 8.69136C27.0007 8.9859 27.3794 9.37161 27.6178 9.84848C27.8562 10.3113 27.9754 10.7952 27.9754 11.3001C27.9754 11.9453 27.8352 12.4993 27.5547 12.9622C27.2742 13.425 26.8674 13.7757 26.3344 14.0141C25.8015 14.2525 25.1493 14.3718 24.3779 14.3718C23.8168 14.3718 23.3189 14.2946 22.8841 14.1403C22.4493 13.9861 22.0706 13.7967 21.748 13.5723C21.4395 13.3479 21.18 13.1445 20.9696 12.9622L21.4535 10.9846C21.6218 11.1949 21.8182 11.4053 22.0426 11.6157C22.281 11.8261 22.5475 12.0014 22.842 12.1417C23.1366 12.2679 23.4522 12.331 23.7888 12.331C24.2236 12.331 24.5742 12.2539 24.8407 12.0996C25.1072 11.9313 25.2404 11.6578 25.2404 11.2791C25.2404 11.0407 25.1563 10.8233 24.988 10.6269C24.8197 10.4165 24.5742 10.3113 24.2516 10.3113C23.7607 10.3113 23.354 10.5217 23.0314 10.9425C22.7088 11.3492 22.5475 11.8401 22.5475 12.4152V13.2357C22.5475 13.5723 22.6176 13.93 22.7579 14.3086C22.9122 14.6733 23.1646 15.024 23.5153 15.3606C23.8799 15.6832 24.3708 15.9496 24.988 16.16C25.6191 16.3564 26.4046 16.4546 27.3443 16.4546C28.6627 16.4546 29.7216 16.2302 30.5211 15.7813C31.3346 15.3185 31.7413 14.5962 31.7413 13.6144C31.7413 12.9552 31.538 12.4082 31.1312 11.9734C30.7385 11.5245 30.1214 11.0687 29.2798 10.6059L30.9208 8.22852C32.0289 8.77552 32.9265 9.49784 33.6138 10.3955C34.315 11.2791 34.6657 12.3661 34.6657 13.6565C34.6657 14.6523 34.3992 15.5569 33.8662 16.3704C33.3473 17.1699 32.5408 17.8081 31.4468 18.2849C30.3528 18.7618 28.9502 19.0002 27.2391 19.0002Z" fill="white"/>
<path d="M15.6737 7.2401C15.6737 7.731 15.5755 8.18683 15.3792 8.6076C15.1828 9.02837 14.9093 9.35798 14.5586 9.59641C14.18 9.8629 13.6891 10.0873 13.086 10.2696C12.4969 10.438 11.8938 10.5221 11.2766 10.5221H7.84736V8.22891H11.2977C11.7044 8.22891 12.006 8.20787 12.2023 8.1658C12.4127 8.10969 12.574 8.03255 12.6862 7.93437C12.7704 7.85022 12.8335 7.75905 12.8756 7.66087C12.9176 7.54867 12.9387 7.42945 12.9387 7.30322C12.9387 7.13491 12.9176 6.99465 12.8756 6.88245C12.8335 6.75622 12.7634 6.65102 12.6652 6.56687C12.553 6.46869 12.3917 6.39856 12.1813 6.35648C11.9849 6.31441 11.6553 6.29337 11.1925 6.29337H3.09266V3.91602H10.919C11.9148 3.91602 12.6862 3.99316 13.2332 4.14744C13.7942 4.2877 14.2781 4.52613 14.6849 4.86275C14.9794 5.11521 15.2179 5.4378 15.4002 5.83052C15.5825 6.22324 15.6737 6.6931 15.6737 7.2401ZM8.28917 19.0006C6.35363 19.0006 4.77574 18.7762 3.55551 18.3274C2.33527 17.8786 1.43763 17.2474 0.862579 16.4339C0.287526 15.6204 0 14.6807 0 13.6148C0 12.8013 0.189347 12.086 0.56804 11.4688C0.946733 10.8517 1.46568 10.3678 2.12489 10.0172C2.79812 9.66654 3.56252 9.49122 4.41809 9.49122C5.1895 9.49122 5.83468 9.63148 6.35363 9.91199C6.87258 10.1785 7.2653 10.5431 7.53179 11.006C7.79827 11.4688 7.93152 11.9878 7.93152 12.5628C7.93152 13.5446 7.61594 14.288 6.98479 14.7929C6.35363 15.2838 5.49105 15.5293 4.39705 15.5293C3.89212 15.5293 3.41525 15.4521 2.96643 15.2978C2.53163 15.1295 2.13892 14.9262 1.78827 14.6877C1.43763 14.4493 1.14309 14.2249 0.904656 14.0145L1.61997 12.3104C1.88645 12.6189 2.20904 12.9135 2.58774 13.194C2.96643 13.4605 3.41525 13.5937 3.9342 13.5937C4.35497 13.5937 4.6986 13.5096 4.96509 13.3413C5.2456 13.173 5.38586 12.9065 5.38586 12.5418C5.38586 12.2613 5.29469 12.0299 5.11236 11.8475C4.93002 11.6652 4.65652 11.574 4.29186 11.574C3.99732 11.574 3.7168 11.6582 3.45032 11.8265C3.18383 11.9808 2.96643 12.2192 2.79812 12.5418C2.62981 12.8504 2.54566 13.2361 2.54566 13.6989V13.8252C2.54566 14.2459 2.65085 14.6246 2.86124 14.9612C3.08565 15.2978 3.42928 15.5854 3.89212 15.8238C4.35497 16.0482 4.95106 16.2235 5.6804 16.3498C6.40973 16.462 7.28634 16.5181 8.31021 16.5181C9.39019 16.5181 10.3299 16.469 11.1294 16.3708C11.9288 16.2726 12.588 16.1184 13.107 15.908C13.6259 15.6836 14.0116 15.389 14.2641 15.0244C14.5306 14.6457 14.6638 14.1828 14.6638 13.6358V13.5727C14.6638 13.0117 14.4955 12.5348 14.1589 12.1421C13.8223 11.7494 13.3454 11.553 12.7283 11.553C12.4197 11.553 12.1322 11.6371 11.8657 11.8055C11.6133 11.9597 11.487 12.2122 11.487 12.5628C11.487 12.9415 11.6062 13.208 11.8447 13.3623C12.0831 13.5026 12.3777 13.5727 12.7283 13.5727C13.0789 13.5727 13.3735 13.5026 13.6119 13.3623C13.8504 13.222 14.0537 13.0257 14.222 12.7732C14.3903 12.5067 14.5236 12.1982 14.6218 11.8475L15.7789 13.3833C15.4843 13.8041 15.1828 14.1828 14.8742 14.5194C14.5797 14.842 14.222 15.0945 13.8013 15.2768C13.3805 15.4591 12.8335 15.5503 12.1603 15.5503C11.6273 15.5503 11.1153 15.4662 10.6244 15.2978C10.1335 15.1155 9.73382 14.828 9.42525 14.4353C9.13071 14.0285 8.98344 13.4885 8.98344 12.8153C8.98344 12.0018 9.285 11.3566 9.8881 10.8798C10.4912 10.3889 11.3327 10.1434 12.4127 10.1434C12.6792 10.1434 12.9176 10.1504 13.128 10.1645C13.3384 10.1785 13.5348 10.1995 13.7171 10.2276C13.8994 10.2416 14.0748 10.2696 14.2431 10.3117L11.8026 10.3538C11.6203 10.2977 11.4239 10.2556 11.2135 10.2276C11.0172 10.1855 10.8138 10.1574 10.6034 10.1434C10.407 10.1154 10.1967 10.1013 9.97225 10.1013L10.8769 8.46033C11.7605 8.50241 12.581 8.64968 13.3384 8.90214C14.1098 9.14058 14.7831 9.48421 15.3581 9.93303C15.9332 10.3678 16.382 10.9008 16.7046 11.532C17.0412 12.1491 17.2095 12.8574 17.2095 13.6568C17.2095 14.5545 17.0412 15.3399 16.7046 16.0132C16.368 16.6724 15.842 17.2264 15.1267 17.6752C14.4114 18.11 13.4857 18.4396 12.3496 18.664C11.2276 18.8884 9.87407 19.0006 8.28917 19.0006Z" fill="white"/>
</svg>
