<svg width="328" height="29" viewBox="0 0 328 29" fill="none" xmlns="http://www.w3.org/2000/svg">
<path d="M323.722 27.2282C323.077 27.2282 322.551 27.123 322.144 26.9126C321.723 26.7162 321.31 26.3586 320.903 25.8396H321.387C320.91 26.3586 320.468 26.7162 320.061 26.9126C319.641 27.123 319.122 27.2282 318.505 27.2282C317.887 27.2282 317.375 27.0879 316.969 26.8074C316.562 26.5269 316.26 26.1552 316.064 25.6924C315.868 25.2295 315.77 24.7316 315.77 24.1986C315.77 23.315 316.008 22.5506 316.485 21.9054C316.948 21.2603 317.586 20.7623 318.399 20.4117C319.199 20.0611 320.103 19.8857 321.113 19.8857C322.151 19.8857 323.077 20.0681 323.89 20.4327C324.69 20.8114 325.321 21.3234 325.784 21.9686C326.247 22.6278 326.478 23.3851 326.478 24.2407C326.478 24.7456 326.394 25.2225 326.226 25.6713C326.043 26.1342 325.749 26.5059 325.342 26.7864C324.935 27.0809 324.395 27.2282 323.722 27.2282ZM323.217 25.3347C323.498 25.3347 323.722 25.2295 323.89 25.0191C324.059 24.8088 324.143 24.5282 324.143 24.1776C324.143 23.4342 323.855 22.8452 323.28 22.4104C322.705 21.9896 321.983 21.7792 321.113 21.7792C320.174 21.7792 319.437 21.9896 318.904 22.4104C318.357 22.8311 318.084 23.4062 318.084 24.1355C318.084 24.5002 318.168 24.7877 318.336 24.9981C318.505 25.2225 318.736 25.3347 319.03 25.3347C319.311 25.3347 319.542 25.2646 319.725 25.1243C319.893 24.9981 320.033 24.8158 320.146 24.5773H322.081C322.193 24.8438 322.334 25.0332 322.502 25.1454C322.67 25.2716 322.909 25.3347 323.217 25.3347ZM320.082 28.5957L320.167 26.8916H322.018L322.165 28.5957H320.082ZM319.998 23.3361C319.998 23.0275 320.103 22.7961 320.314 22.6418C320.524 22.5015 320.791 22.4314 321.113 22.4314C321.478 22.4314 321.758 22.5085 321.955 22.6628C322.151 22.8171 322.249 23.0415 322.249 23.3361C322.249 23.6586 322.151 23.8901 321.955 24.0303C321.744 24.1706 321.464 24.2407 321.113 24.2407C320.777 24.2407 320.51 24.1636 320.314 24.0093C320.103 23.869 319.998 23.6446 319.998 23.3361Z" fill="white"/>
<path d="M322.799 19.0059C322.21 19.0059 321.642 18.9218 321.095 18.7535C320.562 18.5992 320.008 18.3116 319.433 17.8909C318.872 17.4701 318.255 16.881 317.581 16.1236C317.273 15.773 317.02 15.5135 316.824 15.3452C316.642 15.1629 316.487 15.0437 316.361 14.9876C316.235 14.9174 316.095 14.8824 315.94 14.8824C315.758 14.8824 315.59 14.9595 315.436 15.1138C315.281 15.2681 315.204 15.4785 315.204 15.7449C315.204 16.0956 315.281 16.4673 315.436 16.86C315.604 17.2527 315.842 17.6735 316.151 18.1223L313.205 19.027C312.953 18.5361 312.736 18.0171 312.553 17.4701C312.385 16.9091 312.301 16.306 312.301 15.6608C312.301 15.0156 312.455 14.4476 312.764 13.9567C313.072 13.4517 313.493 13.059 314.026 12.7785C314.573 12.484 315.19 12.3367 315.877 12.3367C316.522 12.3367 317.091 12.4349 317.581 12.6312C318.072 12.8276 318.528 13.1081 318.949 13.4728C319.384 13.8375 319.826 14.2722 320.274 14.7772C320.681 15.212 321.025 15.5556 321.305 15.8081C321.586 16.0465 321.852 16.2148 322.105 16.313C322.371 16.4112 322.659 16.4603 322.967 16.4603C323.36 16.4603 323.69 16.32 323.956 16.0395C324.223 15.759 324.356 15.3382 324.356 14.7772C324.356 14.118 324.209 13.5359 323.914 13.031C323.619 12.5261 323.234 12.0772 322.757 11.6845C322.28 11.2778 321.775 10.9061 321.242 10.5695L322.904 8.2342C323.732 8.68302 324.475 9.21599 325.134 9.83312C325.793 10.4503 326.312 11.1515 326.691 11.937C327.084 12.7084 327.28 13.578 327.28 14.5457C327.28 15.4434 327.105 16.2288 326.754 16.9021C326.418 17.5613 325.913 18.0802 325.239 18.4589C324.58 18.8236 323.767 19.0059 322.799 19.0059ZM316.53 10.4222C315.87 10.4222 315.288 10.317 314.783 10.1066C314.278 9.88221 313.851 9.52456 313.5 9.03366C313.149 8.52873 312.876 7.84849 312.679 6.99292L315.541 6.25657C315.695 6.97188 315.863 7.48382 316.046 7.79239C316.228 8.08693 316.48 8.2342 316.803 8.2342C317.013 8.2342 317.224 8.15705 317.434 8.00277C317.645 7.84849 317.925 7.55395 318.276 7.11915L319.159 6.00411C319.65 5.38698 320.113 4.9031 320.548 4.55246C320.983 4.18779 321.453 3.9213 321.957 3.75299C322.476 3.58468 323.094 3.49352 323.809 3.47949L323.977 5.91996C323.5 5.94801 323.087 6.03216 322.736 6.17242C322.399 6.29865 322.091 6.48099 321.81 6.71942C321.53 6.95786 321.235 7.27344 320.927 7.66616L320.232 8.52873C319.966 8.86535 319.65 9.18093 319.286 9.47547C318.921 9.75598 318.507 9.9874 318.044 10.1697C317.595 10.338 317.091 10.4222 316.53 10.4222Z" fill="white"/>
<path d="M299.574 14.3945C299.574 13.5109 299.785 12.7184 300.205 12.0172C300.626 11.3159 301.222 10.7619 301.994 10.3551C302.765 9.94837 303.684 9.745 304.75 9.745C305.83 9.745 306.748 9.94837 307.506 10.3551C308.263 10.7619 308.838 11.3159 309.231 12.0172C309.638 12.7184 309.841 13.5109 309.841 14.3945C309.841 15.2781 309.638 16.0706 309.231 16.7719C308.824 17.4591 308.235 18.0061 307.464 18.4129C306.706 18.8056 305.788 19.0019 304.708 19.0019C303.642 19.0019 302.723 18.7986 301.952 18.3918C301.18 17.9851 300.591 17.4381 300.184 16.7508C299.778 16.0495 299.574 15.2641 299.574 14.3945ZM302.393 14.3735C302.393 15.0186 302.583 15.5657 302.961 16.0145C303.354 16.4493 303.936 16.6667 304.708 16.6667C305.227 16.6667 305.654 16.5685 305.991 16.3721C306.328 16.1617 306.58 15.8812 306.748 15.5306C306.931 15.1799 307.022 14.7942 307.022 14.3735C307.022 13.7283 306.818 13.1883 306.412 12.7535C306.019 12.3047 305.451 12.0803 304.708 12.0803C304.217 12.0803 303.796 12.1855 303.445 12.3958C303.109 12.5922 302.849 12.8657 302.667 13.2163C302.485 13.553 302.393 13.9387 302.393 14.3735Z" fill="white"/>
<path d="M292.498 19.0059C291.909 19.0059 291.341 18.9218 290.794 18.7535C290.261 18.5992 289.707 18.3116 289.132 17.8909C288.571 17.4701 287.954 16.881 287.281 16.1236C286.972 15.773 286.72 15.5135 286.523 15.3452C286.341 15.1629 286.187 15.0437 286.06 14.9876C285.934 14.9174 285.794 14.8824 285.64 14.8824C285.457 14.8824 285.289 14.9595 285.135 15.1138C284.98 15.2681 284.903 15.4785 284.903 15.7449C284.903 16.0956 284.98 16.4673 285.135 16.86C285.303 17.2527 285.541 17.6735 285.85 18.1223L282.905 19.027C282.652 18.5361 282.435 18.0171 282.252 17.4701C282.084 16.9091 282 16.306 282 15.6608C282 15.0156 282.154 14.4476 282.463 13.9567C282.771 13.4517 283.192 13.059 283.725 12.7785C284.272 12.484 284.889 12.3367 285.577 12.3367C286.222 12.3367 286.79 12.4349 287.281 12.6312C287.772 12.8276 288.227 13.1081 288.648 13.4728C289.083 13.8375 289.525 14.2722 289.974 14.7772C290.38 15.212 290.724 15.5556 291.004 15.8081C291.285 16.0465 291.551 16.2148 291.804 16.313C292.07 16.4112 292.358 16.4603 292.667 16.4603C293.059 16.4603 293.389 16.32 293.655 16.0395C293.922 15.759 294.055 15.3382 294.055 14.7772C294.055 14.118 293.908 13.5359 293.613 13.031C293.319 12.5261 292.933 12.0772 292.456 11.6845C291.979 11.2778 291.474 10.9061 290.941 10.5695L292.603 8.2342C293.431 8.68302 294.174 9.21599 294.833 9.83312C295.493 10.4503 296.012 11.1515 296.39 11.937C296.783 12.7084 296.979 13.578 296.979 14.5457C296.979 15.4434 296.804 16.2288 296.453 16.9021C296.117 17.5613 295.612 18.0802 294.939 18.4589C294.279 18.8236 293.466 19.0059 292.498 19.0059ZM286.229 10.4222C285.57 10.4222 284.987 10.317 284.483 10.1066C283.978 9.88221 283.55 9.52456 283.199 9.03366C282.849 8.52873 282.575 7.84849 282.379 6.99292L285.24 6.25657C285.394 6.97188 285.563 7.48382 285.745 7.79239C285.927 8.08693 286.18 8.2342 286.502 8.2342C286.713 8.2342 286.923 8.15705 287.133 8.00277C287.344 7.84849 287.624 7.55395 287.975 7.11915L288.859 6.00411C289.349 5.38698 289.812 4.9031 290.247 4.55246C290.682 4.18779 291.152 3.9213 291.657 3.75299C292.176 3.58468 292.793 3.49352 293.508 3.47949L293.676 5.91996C293.199 5.94801 292.786 6.03216 292.435 6.17242C292.098 6.29865 291.79 6.48099 291.509 6.71942C291.229 6.95786 290.934 7.27344 290.626 7.66616L289.932 8.52873C289.665 8.86535 289.349 9.18093 288.985 9.47547C288.62 9.75598 288.206 9.9874 287.743 10.1697C287.295 10.338 286.79 10.4222 286.229 10.4222Z" fill="white"/>
<path d="M260.683 19.0012C259.785 19.0012 259.063 18.8539 258.516 18.5594C257.983 18.2508 257.597 17.8581 257.358 17.3812C257.134 16.9044 257.022 16.3994 257.022 15.8665C257.022 15.1792 257.176 14.6112 257.485 14.1624C257.793 13.7135 258.2 13.3839 258.705 13.1735C259.224 12.9491 259.771 12.8369 260.346 12.8369C261.075 12.8369 261.685 12.9632 262.176 13.2156C262.681 13.4541 263.095 13.7416 263.418 14.0782C263.754 14.4008 264.021 14.6883 264.217 14.9408L263.144 17.0867C262.99 16.708 262.8 16.3504 262.576 16.0137C262.366 15.6771 262.113 15.4036 261.819 15.1932C261.524 14.9688 261.173 14.8566 260.767 14.8566C260.458 14.8566 260.178 14.9408 259.925 15.1091C259.673 15.2774 259.547 15.5439 259.547 15.9085C259.547 16.2311 259.652 16.4836 259.862 16.6659C260.072 16.8483 260.353 16.9394 260.704 16.9394C261.166 16.9394 261.531 16.8132 261.798 16.5607C262.078 16.3083 262.275 15.9717 262.387 15.5509C262.499 15.1301 262.555 14.6743 262.555 14.1834V13.6574C262.555 13.0824 262.478 12.5634 262.324 12.1006C262.169 11.6377 261.924 11.2731 261.587 11.0066C261.265 10.7401 260.83 10.6068 260.283 10.6068C259.946 10.6068 259.638 10.684 259.357 10.8383C259.091 10.9785 258.866 11.1749 258.684 11.4273C258.502 11.6798 258.368 11.9743 258.284 12.311H255.57C255.5 12.0866 255.374 11.8411 255.192 11.5746C255.023 11.2941 254.771 11.0557 254.434 10.8593C254.098 10.6489 253.635 10.5437 253.046 10.5437C252.555 10.5437 252.155 10.6279 251.846 10.7962C251.552 10.9505 251.405 11.2099 251.405 11.5746C251.405 11.7149 251.426 11.8481 251.468 11.9743C251.524 12.0866 251.622 12.1847 251.762 12.2689C251.888 12.339 252.05 12.4021 252.246 12.4582C252.457 12.5003 252.779 12.5213 253.214 12.5213H254.455V14.7094H253.151C252.716 14.7094 252.379 14.7304 252.141 14.7725C251.903 14.8145 251.713 14.8917 251.573 15.0039C251.475 15.088 251.391 15.1932 251.32 15.3195C251.264 15.4317 251.236 15.5649 251.236 15.7192C251.236 15.9997 251.327 16.2311 251.51 16.4135C251.706 16.5958 252.022 16.687 252.457 16.687C252.919 16.687 253.333 16.5678 253.698 16.3293C254.076 16.0909 254.441 15.7753 254.792 15.3826L256.601 16.9815C256.222 17.4163 255.809 17.788 255.36 18.0966C254.925 18.3911 254.441 18.6155 253.908 18.7698C253.375 18.9241 252.765 19.0012 252.078 19.0012C250.759 19.0012 249.764 18.7277 249.09 18.1807C248.431 17.6197 248.102 16.9324 248.102 16.1189C248.102 15.7262 248.179 15.3615 248.333 15.0249C248.487 14.6743 248.726 14.3727 249.048 14.1203C249.385 13.8538 249.806 13.6434 250.311 13.4891L250.29 13.7626C249.602 13.5102 249.09 13.1806 248.754 12.7738C248.431 12.353 248.27 11.8551 248.27 11.2801C248.27 10.7611 248.452 10.3193 248.817 9.95465C249.196 9.57596 249.715 9.28142 250.374 9.07103C251.033 8.86065 251.79 8.75545 252.646 8.75545C253.403 8.75545 254.034 8.84662 254.539 9.02895C255.058 9.19726 255.514 9.44972 255.907 9.78634C256.314 10.1089 256.734 10.5087 257.169 10.9855L256.685 11.0066C257.022 10.5297 257.387 10.144 257.779 9.84946C258.172 9.54089 258.593 9.31648 259.042 9.17623C259.504 9.02194 259.988 8.9448 260.493 8.9448C261.559 8.9448 262.45 9.13415 263.165 9.51284C263.88 9.89153 264.42 10.4455 264.785 11.1749C265.15 11.9042 265.332 12.7948 265.332 13.8468C265.332 14.8847 265.164 15.7963 264.827 16.5818C264.491 17.3532 263.979 17.9493 263.291 18.3701C262.604 18.7908 261.735 19.0012 260.683 19.0012ZM270.213 14.8777C269.568 14.8777 269.035 14.7795 268.614 14.5831C268.193 14.3868 267.864 14.1413 267.625 13.8468C267.387 13.5382 267.219 13.2156 267.12 12.879C267.022 12.5424 266.973 12.2338 266.973 11.9533C266.973 11.3783 267.064 10.9084 267.247 10.5437C267.429 10.1791 267.618 9.84244 267.815 9.53388L270.087 9.70219C269.778 9.99673 269.533 10.2843 269.35 10.5648C269.168 10.8453 269.077 11.2029 269.077 11.6377C269.077 11.9884 269.182 12.2759 269.393 12.5003C269.617 12.7247 269.897 12.8369 270.234 12.8369C270.641 12.8369 270.942 12.7387 271.139 12.5424C271.349 12.332 271.454 12.0725 271.454 11.764C271.454 11.3432 271.279 11.0487 270.928 10.8803C270.592 10.698 270.136 10.6068 269.561 10.6068H255.255L253.824 10.0388L251.236 10.6068H248.333V8.22949H267.752C268.607 8.22949 269.315 8.25754 269.876 8.31365C270.451 8.35572 270.935 8.43988 271.328 8.56611C271.735 8.69234 272.106 8.8887 272.443 9.15519C272.794 9.42167 273.074 9.75829 273.285 10.165C273.495 10.5718 273.6 11.0837 273.6 11.7008C273.6 12.6125 273.299 13.3699 272.696 13.973C272.107 14.5761 271.279 14.8777 270.213 14.8777Z" fill="white"/>
<path d="M233.448 19.0012C232.775 19.0012 232.178 18.903 231.659 18.7067C231.141 18.5103 230.615 18.1807 230.082 17.7179C229.563 17.241 228.939 16.5958 228.209 15.7823C227.816 15.3335 227.508 15.0249 227.283 14.8566C227.059 14.6743 226.8 14.5831 226.505 14.5831C226.281 14.5831 226.056 14.6743 225.832 14.8566C225.621 15.0249 225.516 15.2914 225.516 15.6561C225.516 16.0909 225.628 16.3924 225.853 16.5607C226.091 16.729 226.365 16.8132 226.673 16.8132C227.01 16.8132 227.347 16.6729 227.683 16.3924C228.02 16.1119 228.258 15.6491 228.399 15.0039L230.145 16.8553C229.864 17.248 229.57 17.6127 229.261 17.9493C228.967 18.2719 228.595 18.5313 228.146 18.7277C227.697 18.91 227.094 19.0012 226.337 19.0012C225.509 19.0012 224.829 18.8469 224.296 18.5384C223.777 18.2158 223.391 17.802 223.139 17.2971C222.9 16.7781 222.781 16.2382 222.781 15.6771C222.781 15.0039 222.943 14.4218 223.265 13.9309C223.588 13.426 224.03 13.0333 224.591 12.7528C225.152 12.4723 225.783 12.332 226.484 12.332C227.073 12.332 227.592 12.4091 228.041 12.5634C228.49 12.7177 228.924 12.9702 229.345 13.3208C229.78 13.6715 230.257 14.1343 230.776 14.7094C231.225 15.2003 231.596 15.5719 231.891 15.8244C232.185 16.0769 232.452 16.2452 232.69 16.3293C232.929 16.4135 233.174 16.4555 233.427 16.4555C233.876 16.4555 234.233 16.3153 234.5 16.0348C234.766 15.7543 234.899 15.3054 234.899 14.6883C234.899 13.973 234.71 13.3208 234.331 12.7317C233.953 12.1427 233.434 11.6377 232.775 11.217C232.115 10.7962 231.365 10.4946 230.523 10.3123L235.552 10.2282C236.014 10.5367 236.414 10.9084 236.751 11.3432C237.101 11.764 237.368 12.2408 237.55 12.7738C237.733 13.2928 237.824 13.8608 237.824 14.4779C237.824 15.3896 237.655 16.1891 237.319 16.8763C236.982 17.5496 236.484 18.0755 235.825 18.4542C235.18 18.8189 234.387 19.0012 233.448 19.0012ZM242.515 14.8777C241.87 14.8777 241.337 14.7795 240.916 14.5831C240.496 14.3868 240.166 14.1413 239.928 13.8468C239.689 13.5382 239.521 13.2156 239.423 12.879C239.325 12.5424 239.275 12.2338 239.275 11.9533C239.275 11.3783 239.367 10.9084 239.549 10.5437C239.731 10.1791 239.921 9.84244 240.117 9.53388L242.368 9.70219C242.074 9.99673 241.835 10.2843 241.653 10.5648C241.47 10.8453 241.379 11.2029 241.379 11.6377C241.379 11.9884 241.484 12.2759 241.695 12.5003C241.919 12.7247 242.2 12.8369 242.536 12.8369C242.943 12.8369 243.245 12.7387 243.441 12.5424C243.637 12.332 243.736 12.0725 243.736 11.764C243.736 11.3432 243.567 11.0487 243.231 10.8803C242.894 10.698 242.445 10.6068 241.884 10.6068H225.011V8.22949H240.054C240.909 8.22949 241.618 8.25754 242.179 8.31365C242.74 8.35572 243.217 8.43988 243.609 8.56611C244.016 8.69234 244.388 8.8887 244.724 9.15519C245.089 9.42167 245.37 9.75829 245.566 10.165C245.776 10.5718 245.882 11.0837 245.882 11.7008C245.882 12.6125 245.587 13.3699 244.998 13.973C244.409 14.5761 243.581 14.8777 242.515 14.8777Z" fill="white"/>
<path d="M208.5 13.7884C208.5 12.7505 208.724 11.8178 209.173 10.9902C209.622 10.1487 210.281 9.48248 211.151 8.99158C212.034 8.48666 213.114 8.2342 214.391 8.2342C215.681 8.2342 216.761 8.47263 217.631 8.9495C218.5 9.41235 219.152 10.0575 219.587 10.885C220.036 11.7126 220.261 12.6733 220.261 13.7673C220.261 14.7912 220.043 15.7029 219.608 16.5023C219.174 17.2878 218.521 17.9049 217.652 18.3537C216.782 18.7885 215.695 19.0059 214.391 19.0059C213.086 19.0059 211.992 18.7815 211.109 18.3327C210.239 17.8839 209.587 17.2667 209.152 16.4813C208.717 15.6959 208.5 14.7982 208.5 13.7884ZM211.424 13.5149C211.424 14.3704 211.67 15.0787 212.161 15.6397C212.666 16.1868 213.409 16.4603 214.391 16.4603C215.05 16.4603 215.597 16.341 216.032 16.1026C216.467 15.8501 216.796 15.5135 217.021 15.0928C217.245 14.658 217.357 14.1671 217.357 13.6201C217.357 13.059 217.245 12.5541 217.021 12.1053C216.81 11.6565 216.481 11.2988 216.032 11.0323C215.597 10.7518 215.05 10.6115 214.391 10.6115C213.718 10.6115 213.164 10.7448 212.729 11.0113C212.294 11.2778 211.964 11.6354 211.74 12.0842C211.53 12.519 211.424 12.9959 211.424 13.5149ZM213.507 10.4222C212.848 10.4222 212.266 10.317 211.761 10.1066C211.256 9.88221 210.828 9.52456 210.478 9.03366C210.127 8.52873 209.853 7.84849 209.657 6.99292L212.518 6.25657C212.673 6.97188 212.841 7.48382 213.023 7.79239C213.206 8.08693 213.458 8.2342 213.781 8.2342C213.991 8.2342 214.201 8.15705 214.412 8.00277C214.622 7.84849 214.903 7.55395 215.253 7.11915L216.137 6.00411C216.628 5.38698 217.091 4.9031 217.526 4.55246C217.96 4.18779 218.43 3.9213 218.935 3.75299C219.454 3.58468 220.071 3.49352 220.786 3.47949L220.955 5.91996C220.478 5.94801 220.064 6.03216 219.714 6.17242C219.377 6.29865 219.068 6.48099 218.788 6.71942C218.507 6.95786 218.213 7.27344 217.904 7.66616L217.21 8.52873C216.943 8.86535 216.628 9.18093 216.263 9.47547C215.899 9.75598 215.485 9.9874 215.022 10.1697C214.573 10.338 214.068 10.4222 213.507 10.4222Z" fill="white"/>
<path d="M187.278 27.2282C186.395 27.2282 185.715 27.13 185.238 26.9336C184.761 26.7373 184.34 26.4708 183.975 26.1342H184.102C183.709 26.569 183.309 26.8565 182.902 26.9968C182.482 27.151 181.998 27.2282 181.451 27.2282C180.918 27.2282 180.448 27.102 180.041 26.8495C179.634 26.6111 179.319 26.2604 179.094 25.7976C178.87 25.3347 178.758 24.7807 178.758 24.1355C178.758 23.294 178.989 22.5506 179.452 21.9054C179.901 21.2743 180.553 20.7764 181.409 20.4117C182.264 20.0611 183.274 19.8857 184.438 19.8857C185.406 19.8857 186.248 19.9489 186.963 20.0751C187.664 20.2013 188.407 20.3977 189.193 20.6642L188.372 22.5576C187.825 22.3472 187.349 22.186 186.942 22.0737C186.521 21.9615 186.121 21.8844 185.743 21.8423C185.35 21.8002 184.922 21.7792 184.459 21.7792C183.674 21.7792 183.029 21.8844 182.524 22.0948C182.019 22.3192 181.654 22.6067 181.43 22.9574C181.191 23.308 181.072 23.7007 181.072 24.1355C181.072 24.5002 181.156 24.7877 181.325 24.9981C181.479 25.2225 181.71 25.3347 182.019 25.3347C182.299 25.3347 182.538 25.2295 182.734 25.0191C182.916 24.8228 183.029 24.5493 183.071 24.1986H185.09C185.118 24.4371 185.175 24.6475 185.259 24.8298C185.343 25.0121 185.476 25.1524 185.658 25.2506C185.841 25.3487 186.093 25.3978 186.416 25.3978C186.57 25.4119 186.738 25.4259 186.921 25.4399C187.089 25.468 187.271 25.482 187.468 25.482C187.748 25.482 187.973 25.4329 188.141 25.3347C188.295 25.2506 188.372 25.1103 188.372 24.9139C188.372 24.7737 188.323 24.6615 188.225 24.5773C188.113 24.4932 187.959 24.4511 187.762 24.4511C187.58 24.4511 187.433 24.5072 187.32 24.6194C187.194 24.7316 187.131 24.9069 187.131 25.1454C187.131 25.3277 187.18 25.489 187.278 25.6293C187.363 25.7835 187.482 25.9238 187.636 26.05L186.079 26.4498C185.911 26.2113 185.792 25.9378 185.722 25.6293C185.637 25.3207 185.595 25.0752 185.595 24.8929C185.595 24.2758 185.792 23.7709 186.184 23.3781C186.563 22.9854 187.117 22.7891 187.846 22.7891C188.548 22.7891 189.116 22.9854 189.551 23.3781C189.971 23.7849 190.182 24.2828 190.182 24.8719C190.182 25.2646 190.098 25.6363 189.929 25.9869C189.747 26.3516 189.445 26.6461 189.025 26.8705C188.604 27.109 188.022 27.2282 187.278 27.2282Z" fill="white"/>
<path d="M193.854 19.0012C192.788 19.0012 191.89 18.7558 191.161 18.2649C190.432 17.774 189.737 17.1568 189.078 16.4135L190.698 14.6042C190.993 14.9408 191.301 15.2493 191.624 15.5299C191.932 15.8104 192.269 16.0348 192.634 16.2031C193.012 16.3714 193.419 16.4555 193.854 16.4555C194.345 16.4555 194.723 16.3153 194.99 16.0348C195.256 15.7543 195.39 15.3335 195.39 14.7725C195.39 14.1133 195.242 13.5312 194.948 13.0263C194.653 12.5213 194.268 12.0725 193.791 11.6798C193.314 11.2731 192.809 10.9014 192.276 10.5648L193.938 8.22949C194.766 8.67831 195.509 9.21129 196.168 9.82842C196.827 10.4455 197.346 11.1468 197.725 11.9323C198.118 12.7037 198.314 13.5733 198.314 14.541C198.314 15.8875 197.935 16.9675 197.178 17.781C196.421 18.5945 195.313 19.0012 193.854 19.0012Z" fill="white"/>
<path d="M185.867 19.0059C185.067 19.0059 184.387 18.9288 183.826 18.7745C183.265 18.6342 182.788 18.4309 182.396 18.1644C182.003 17.8839 181.652 17.5613 181.344 17.1966L181.491 17.2176C181.154 17.7085 180.797 18.0872 180.418 18.3537C180.053 18.6062 179.661 18.7745 179.24 18.8586C178.833 18.9568 178.377 19.0059 177.872 19.0059C176.764 19.0059 175.867 18.6132 175.179 17.8278C174.492 17.0423 174.148 15.9273 174.148 14.4826C174.148 13.1362 174.478 12.0001 175.137 11.0744C175.796 10.1347 176.729 9.42638 177.935 8.9495C179.142 8.47263 180.551 8.2342 182.164 8.2342C183.02 8.2342 183.798 8.28329 184.499 8.38146C185.201 8.47964 185.881 8.62691 186.54 8.82327C187.199 9.00561 187.894 9.24404 188.623 9.53858L187.34 11.8949C186.582 11.5583 185.916 11.2988 185.341 11.1165C184.78 10.9341 184.24 10.8079 183.721 10.7378C183.202 10.6536 182.634 10.6115 182.017 10.6115C180.867 10.6115 179.927 10.7799 179.198 11.1165C178.468 11.4391 177.928 11.8809 177.578 12.4419C177.241 12.9889 177.073 13.599 177.073 14.2722C177.073 15.0577 177.199 15.6187 177.451 15.9553C177.704 16.2919 178.055 16.4603 178.503 16.4603C178.966 16.4603 179.338 16.2919 179.618 15.9553C179.913 15.6187 180.088 15.1489 180.144 14.5457H182.732C182.774 15.0927 182.936 15.5346 183.216 15.8712C183.511 16.2078 184.001 16.4252 184.689 16.5234C184.899 16.5654 185.131 16.6005 185.383 16.6286C185.649 16.6426 185.93 16.6496 186.225 16.6496C186.617 16.6496 186.926 16.5725 187.15 16.4182C187.375 16.2639 187.487 16.0114 187.487 15.6608C187.487 15.4224 187.403 15.226 187.234 15.0717C187.08 14.9174 186.863 14.8403 186.582 14.8403C186.316 14.8403 186.084 14.9174 185.888 15.0717C185.706 15.226 185.614 15.4785 185.614 15.8291C185.614 16.0816 185.678 16.32 185.804 16.5444C185.93 16.7548 186.105 16.9441 186.33 17.1124L184.289 17.7015C184.051 17.3649 183.868 16.9792 183.742 16.5444C183.63 16.0956 183.574 15.7379 183.574 15.4714C183.574 14.6159 183.84 13.9286 184.373 13.4097C184.92 12.8767 185.685 12.6102 186.666 12.6102C187.312 12.6102 187.873 12.7434 188.349 13.0099C188.826 13.2764 189.198 13.6411 189.464 14.1039C189.731 14.5528 189.864 15.0577 189.864 15.6187C189.864 16.0395 189.794 16.4532 189.654 16.86C189.528 17.2667 189.31 17.6314 189.002 17.954C188.707 18.2766 188.3 18.5361 187.781 18.7324C187.262 18.9147 186.624 19.0059 185.867 19.0059ZM181.407 10.4222C180.748 10.4222 180.165 10.317 179.661 10.1066C179.156 9.88221 178.728 9.52456 178.377 9.03366C178.027 8.52873 177.753 7.84849 177.557 6.99292L180.418 6.25657C180.572 6.97188 180.741 7.48382 180.923 7.79239C181.105 8.08693 181.358 8.2342 181.68 8.2342C181.891 8.2342 182.101 8.15705 182.311 8.00277C182.522 7.84849 182.802 7.55395 183.153 7.11915L184.037 6.00411C184.527 5.38698 184.99 4.9031 185.425 4.55246C185.86 4.18779 186.33 3.9213 186.835 3.75299C187.354 3.58468 187.971 3.49352 188.686 3.47949L188.854 5.91996C188.377 5.94801 187.964 6.03216 187.613 6.17242C187.276 6.29865 186.968 6.48099 186.687 6.71942C186.407 6.95786 186.112 7.27344 185.804 7.66616L185.109 8.52873C184.843 8.86535 184.527 9.18093 184.163 9.47547C183.798 9.75598 183.384 9.9874 182.922 10.1697C182.473 10.338 181.968 10.4222 181.407 10.4222Z" fill="white"/>
<path d="M156.164 13.786C156.164 12.7481 156.388 11.8154 156.837 10.9879C157.286 10.1464 157.945 9.48016 158.815 8.98926C159.699 8.48434 160.779 8.23188 162.055 8.23188C163.345 8.23188 164.425 8.47031 165.295 8.94719C166.164 9.41003 166.817 10.0552 167.251 10.8827C167.7 11.7102 167.925 12.671 167.925 13.765C167.925 14.7889 167.707 15.7005 167.272 16.5C166.838 17.2854 166.185 17.9026 165.316 18.3514C164.446 18.7862 163.359 19.0036 162.055 19.0036C160.75 19.0036 159.656 18.7792 158.773 18.3304C157.903 17.8815 157.251 17.2644 156.816 16.479C156.381 15.6935 156.164 14.7959 156.164 13.786ZM159.088 13.5125C159.088 14.3681 159.334 15.0764 159.825 15.6374C160.33 16.1844 161.073 16.4579 162.055 16.4579C162.714 16.4579 163.261 16.3387 163.696 16.1003C164.131 15.8478 164.46 15.5112 164.685 15.0904C164.909 14.6556 165.021 14.1647 165.021 13.6177C165.021 13.0567 164.909 12.5518 164.685 12.103C164.474 11.6541 164.145 11.2965 163.696 11.03C163.261 10.7495 162.714 10.6092 162.055 10.6092C161.382 10.6092 160.828 10.7425 160.393 11.009C159.958 11.2754 159.628 11.6331 159.404 12.0819C159.194 12.5167 159.088 12.9936 159.088 13.5125ZM170.702 10.3357C170.056 10.3357 169.524 10.2375 169.103 10.0412C168.682 9.84483 168.345 9.59938 168.093 9.30484C167.854 8.99628 167.686 8.67369 167.588 8.33707C167.49 8.00045 167.441 7.6989 167.441 7.43241C167.441 6.85736 167.532 6.3875 167.714 6.02283C167.911 5.64414 168.107 5.30752 168.303 5.01298L170.554 5.16025C170.246 5.45479 170 5.74232 169.818 6.02283C169.636 6.30335 169.545 6.661 169.545 7.0958C169.545 7.44644 169.65 7.73396 169.86 7.95838C170.085 8.18279 170.372 8.29499 170.723 8.29499C171.143 8.29499 171.445 8.1898 171.627 7.97941C171.824 7.76903 171.922 7.51657 171.922 7.22203C171.922 6.81528 171.754 6.52074 171.417 6.33841C171.08 6.15608 170.625 6.06491 170.049 6.06491H167.041C166.564 6.06491 166.192 6.18413 165.926 6.42256C165.659 6.661 165.491 7.03969 165.421 7.55864H162.854C162.756 7.0958 162.574 6.73113 162.307 6.46464C162.055 6.19815 161.648 6.06491 161.087 6.06491H160.856C160.547 6.06491 160.281 6.16309 160.056 6.35945C159.832 6.55581 159.72 6.83632 159.72 7.20099C159.72 7.4254 159.769 7.61475 159.867 7.76903C159.979 7.92331 160.133 8.04253 160.33 8.12668C160.526 8.19681 160.75 8.23188 161.003 8.23188H161.718V10.5251H161.171C160.358 10.5251 159.642 10.3848 159.025 10.1043C158.422 9.80977 157.952 9.39601 157.616 8.86303C157.279 8.33006 157.111 7.70591 157.111 6.9906C157.111 6.02283 157.426 5.23739 158.058 4.63429C158.703 4.01716 159.579 3.7086 160.687 3.7086H160.94C161.557 3.7086 162.09 3.79976 162.539 3.9821C162.988 4.1504 163.352 4.38183 163.633 4.67637C163.913 4.97091 164.11 5.28649 164.222 5.6231H164.032C164.201 5.27246 164.418 4.95688 164.685 4.67637C164.951 4.38183 165.316 4.1504 165.779 3.9821C166.242 3.79976 166.845 3.7086 167.588 3.7086H168.85C169.762 3.7086 170.54 3.7647 171.186 3.8769C171.831 3.97508 172.399 4.21352 172.89 4.59221C173.254 4.8587 173.542 5.19532 173.752 5.60206C173.963 6.00881 174.068 6.52776 174.068 7.15891C174.068 8.08461 173.773 8.84901 173.184 9.45211C172.595 10.0412 171.768 10.3357 170.702 10.3357ZM171.375 0.510742C172.273 0.510742 172.995 0.700089 173.542 1.07878C174.089 1.44345 174.503 1.9624 174.783 2.63563L172.637 3.16159C172.553 3.00731 172.455 2.87407 172.343 2.76186C172.23 2.64966 172.097 2.5655 171.943 2.5094C171.789 2.4533 171.606 2.42525 171.396 2.42525C171.045 2.42525 170.772 2.5094 170.575 2.67771C170.393 2.83199 170.302 3.03536 170.302 3.28783C170.302 3.55431 170.379 3.79976 170.533 4.02417C170.688 4.23456 170.898 4.42391 171.165 4.59221L169.019 5.39168C168.752 5.15324 168.507 4.83766 168.282 4.44494C168.072 4.0382 167.967 3.57535 167.967 3.0564C167.967 2.60758 168.086 2.19382 168.324 1.81513C168.563 1.42241 168.934 1.10683 169.439 0.868397C169.944 0.62996 170.589 0.510742 171.375 0.510742Z" fill="white"/>
<path d="M142.124 8.22949C143.092 8.22949 143.898 8.42585 144.544 8.81857C145.189 9.21129 145.708 9.73024 146.1 10.3754C146.493 11.0206 146.774 11.7359 146.942 12.5213C147.11 13.2928 147.194 14.0712 147.194 14.8566C147.194 16.2732 147.019 17.6057 146.668 18.8539C146.332 20.1022 145.841 21.2664 145.196 22.3463C144.565 23.4403 143.807 24.4502 142.924 25.3759C142.04 26.3156 141.065 27.1852 139.999 27.9847L138.211 26.007C139.052 25.3478 139.845 24.6395 140.588 23.8821C141.346 23.1248 142.005 22.2972 142.566 21.3996C143.141 20.516 143.59 19.5412 143.912 18.4752C144.235 17.4093 144.396 16.2241 144.396 14.9197C144.396 14.4429 144.354 13.9379 144.27 13.405C144.2 12.872 144.074 12.3741 143.891 11.9112C143.723 11.4484 143.485 11.0697 143.176 10.7752C142.881 10.4806 142.503 10.3333 142.04 10.3333C141.745 10.3333 141.493 10.4175 141.283 10.5858C141.072 10.7541 140.967 10.9785 140.967 11.259C140.967 11.5396 141.044 11.764 141.198 11.9323C141.353 12.0866 141.542 12.1917 141.766 12.2478C142.005 12.304 142.229 12.332 142.44 12.332C143.015 12.332 143.506 12.1777 143.912 11.8692C144.319 11.5466 144.698 11.2029 145.048 10.8383L145.806 13.0052C145.315 13.3559 144.775 13.6785 144.186 13.973C143.611 14.2675 142.896 14.4148 142.04 14.4148C140.974 14.4148 140.104 14.1624 139.431 13.6574C138.772 13.1525 138.442 12.3671 138.442 11.3011C138.442 10.712 138.583 10.1861 138.863 9.72323C139.144 9.26038 139.557 8.89571 140.104 8.62922C140.651 8.36274 141.325 8.22949 142.124 8.22949Z" fill="white"/>
<path d="M131.149 27.2282C130.531 27.2282 130.027 27.116 129.634 26.8916C129.227 26.6672 128.841 26.3165 128.477 25.8396H128.961C128.624 26.1903 128.308 26.4638 128.014 26.6601C127.705 26.8705 127.383 27.0178 127.046 27.102C126.709 27.1861 126.303 27.2282 125.826 27.2282C125.012 27.2282 124.367 27.0529 123.89 26.7022C123.413 26.3516 123.077 25.9028 122.88 25.3558C122.684 24.8228 122.586 24.2758 122.586 23.7148C122.586 22.9013 122.754 22.207 123.091 21.6319C123.413 21.0709 123.855 20.6361 124.416 20.3276C124.977 20.033 125.608 19.8857 126.31 19.8857C127.179 19.8857 127.839 20.0891 128.287 20.4959C128.722 20.9166 128.94 21.4286 128.94 22.0317C128.94 22.733 128.715 23.2659 128.266 23.6306C127.803 23.9953 127.116 24.1776 126.205 24.1776C125.714 24.1776 125.272 24.0794 124.879 23.8831C124.472 23.7007 124.122 23.4763 123.827 23.2098L124.395 21.7792C124.564 22.0036 124.788 22.214 125.068 22.4104C125.335 22.6067 125.644 22.7049 125.994 22.7049C126.303 22.7049 126.548 22.6488 126.731 22.5366C126.899 22.4384 126.983 22.2771 126.983 22.0527C126.983 21.8984 126.934 21.7512 126.836 21.6109C126.724 21.4847 126.548 21.4216 126.31 21.4216C125.931 21.4216 125.587 21.5758 125.279 21.8844C124.97 22.193 124.816 22.74 124.816 23.5254V23.7568C124.816 24.1075 124.865 24.402 124.963 24.6404C125.047 24.8789 125.195 25.0542 125.405 25.1664C125.601 25.2786 125.854 25.3347 126.162 25.3347C126.709 25.3347 127.088 25.2085 127.299 24.956C127.495 24.7176 127.614 24.4651 127.656 24.1986H129.697C129.767 24.7036 129.928 25.0191 130.181 25.1454C130.419 25.2716 130.693 25.3347 131.001 25.3347C131.366 25.3347 131.633 25.2295 131.801 25.0191C131.955 24.8088 132.032 24.5633 132.032 24.2828C132.032 23.7077 131.815 23.2239 131.38 22.8311C130.945 22.4384 130.454 22.0878 129.907 21.7792L131.254 19.8857C131.843 20.1803 132.376 20.5379 132.853 20.9587C133.33 21.3795 133.708 21.8564 133.989 22.3893C134.255 22.9223 134.389 23.5184 134.389 24.1776C134.389 25.0893 134.115 25.8256 133.568 26.3866C133.007 26.9477 132.201 27.2282 131.149 27.2282Z" fill="white"/>
<path d="M130.729 19.0059C130.056 19.0059 129.46 18.9077 128.941 18.7114C128.422 18.515 127.896 18.1854 127.363 17.7226C126.844 17.2457 126.22 16.6005 125.49 15.787C125.098 15.3382 124.789 15.0296 124.565 14.8613C124.34 14.679 124.081 14.5878 123.786 14.5878C123.562 14.5878 123.337 14.679 123.113 14.8613C122.903 15.0296 122.798 15.2961 122.798 15.6608C122.798 16.0956 122.91 16.3971 123.134 16.5654C123.373 16.7338 123.646 16.8179 123.955 16.8179C124.291 16.8179 124.628 16.6777 124.964 16.3971C125.301 16.1166 125.54 15.6538 125.68 15.0086L127.426 16.86C127.145 17.2527 126.851 17.6174 126.542 17.954C126.248 18.2766 125.876 18.5361 125.427 18.7324C124.978 18.9147 124.375 19.0059 123.618 19.0059C122.791 19.0059 122.11 18.8516 121.577 18.5431C121.058 18.2205 120.673 17.8067 120.42 17.3018C120.182 16.7969 120.062 16.2639 120.062 15.7029C120.062 15.0156 120.224 14.4265 120.546 13.9356C120.869 13.4307 121.311 13.038 121.872 12.7575C122.433 12.477 123.064 12.3367 123.765 12.3367C124.354 12.3367 124.873 12.4138 125.322 12.5681C125.771 12.7224 126.206 12.9749 126.627 13.3255C127.061 13.6762 127.538 14.139 128.057 14.7141C128.506 15.205 128.871 15.5766 129.151 15.8291C129.446 16.0816 129.712 16.2499 129.951 16.334C130.203 16.4182 130.491 16.4603 130.813 16.4603C131.206 16.4603 131.528 16.32 131.781 16.0395C132.047 15.759 132.181 15.3382 132.181 14.7772C132.181 14.118 132.033 13.5359 131.739 13.031C131.444 12.526 131.059 12.0772 130.582 11.6845C130.119 11.2778 129.621 10.9061 129.088 10.5695L130.729 8.2342C131.557 8.68302 132.3 9.21599 132.959 9.83312C133.618 10.4503 134.137 11.1515 134.516 11.937C134.909 12.7084 135.105 13.578 135.105 14.5457C135.105 15.4434 134.937 16.2288 134.6 16.9021C134.263 17.5613 133.766 18.0802 133.106 18.4589C132.461 18.8236 131.669 19.0059 130.729 19.0059ZM133.885 21.6778C133.099 21.6778 132.468 21.5516 131.991 21.2991C131.528 21.0466 131.192 20.717 130.981 20.3103C130.785 19.9036 130.687 19.4688 130.687 19.0059C130.687 18.8236 130.701 18.6342 130.729 18.4379C130.771 18.2415 130.827 18.0522 130.897 17.8698H133.611C133.541 17.982 133.485 18.0942 133.443 18.2064C133.401 18.3046 133.38 18.4028 133.38 18.501C133.38 18.6553 133.415 18.7955 133.485 18.9218C133.555 19.048 133.653 19.1462 133.78 19.2163C133.906 19.2864 134.053 19.3215 134.221 19.3215C134.446 19.3215 134.642 19.2794 134.811 19.1953C134.993 19.1251 135.21 18.9989 135.463 18.8166L136.746 20.668C136.297 21.0046 135.841 21.257 135.379 21.4253C134.93 21.5936 134.432 21.6778 133.885 21.6778ZM124.291 10.4222C123.632 10.4222 123.05 10.317 122.545 10.1066C122.04 9.88221 121.612 9.52456 121.262 9.03366C120.911 8.52873 120.638 7.84849 120.441 6.99292L123.302 6.25657C123.457 6.97188 123.625 7.48382 123.807 7.79239C123.99 8.08693 124.242 8.2342 124.565 8.2342C124.775 8.2342 124.986 8.15705 125.196 8.00277C125.406 7.84849 125.687 7.55395 126.037 7.11915L126.921 6.00411C127.412 5.38698 127.875 4.9031 128.31 4.55246C128.744 4.18779 129.214 3.9213 129.719 3.75299C130.238 3.58468 130.855 3.49352 131.571 3.47949L131.739 5.91996C131.262 5.94801 130.848 6.03216 130.498 6.17242C130.161 6.29865 129.852 6.48099 129.572 6.71942C129.291 6.95786 128.997 7.27344 128.688 7.66616L127.994 8.52873C127.728 8.86535 127.412 9.18093 127.047 9.47547C126.683 9.75598 126.269 9.9874 125.806 10.1697C125.357 10.338 124.852 10.4222 124.291 10.4222Z" fill="white"/>
<path d="M98.4492 13.7837C98.4492 12.7458 98.6736 11.8551 99.1225 11.1118C99.5713 10.3684 100.23 9.79335 101.1 9.38661C101.984 8.97986 103.057 8.77649 104.319 8.77649C105.623 8.77649 106.71 8.96584 107.58 9.34453C108.45 9.72323 109.102 10.2843 109.537 11.0276C109.985 11.7569 110.21 12.6686 110.21 13.7626C110.21 14.7865 109.992 15.6982 109.558 16.4976C109.123 17.2831 108.464 17.9002 107.58 18.349C106.71 18.7838 105.623 19.0012 104.319 19.0012C103.029 19.0012 101.942 18.7768 101.058 18.328C100.188 17.8792 99.5362 17.262 99.1014 16.4766C98.6666 15.6911 98.4492 14.7935 98.4492 13.7837ZM101.374 13.5102C101.374 14.3657 101.619 15.074 102.11 15.635C102.615 16.182 103.351 16.4555 104.319 16.4555C104.978 16.4555 105.525 16.3363 105.96 16.0979C106.409 15.8454 106.738 15.5088 106.949 15.088C107.173 14.6533 107.285 14.1624 107.285 13.6153C107.285 13.0543 107.173 12.5494 106.949 12.1006C106.738 11.6518 106.416 11.2941 105.981 11.0276C105.546 10.7471 104.992 10.6068 104.319 10.6068C103.66 10.6068 103.106 10.7401 102.657 11.0066C102.222 11.2731 101.9 11.6307 101.689 12.0795C101.479 12.5143 101.374 12.9912 101.374 13.5102ZM115.07 14.8777C114.424 14.8777 113.891 14.7795 113.471 14.5831C113.05 14.3868 112.713 14.1413 112.461 13.8468C112.222 13.5382 112.054 13.2156 111.956 12.879C111.858 12.5424 111.809 12.2338 111.809 11.9533C111.809 11.4063 111.9 10.9435 112.082 10.5648C112.279 10.1861 112.475 9.84244 112.671 9.53388L114.922 9.70219C114.614 9.99673 114.368 10.2843 114.186 10.5648C114.004 10.8453 113.913 11.2029 113.913 11.6377C113.913 11.9884 114.018 12.2759 114.228 12.5003C114.453 12.7247 114.74 12.8369 115.091 12.8369C115.497 12.8369 115.799 12.7387 115.995 12.5424C116.192 12.332 116.29 12.0725 116.29 11.764C116.29 11.3432 116.122 11.0487 115.785 10.8803C115.448 10.698 114.993 10.6068 114.417 10.6068H98.6386V8.22949H112.608C113.464 8.22949 114.172 8.25754 114.733 8.31365C115.294 8.35572 115.771 8.43988 116.164 8.56611C116.57 8.69234 116.942 8.8887 117.279 9.15519C117.629 9.42167 117.91 9.75829 118.12 10.165C118.331 10.5718 118.436 11.0837 118.436 11.7008C118.436 12.6125 118.141 13.3699 117.552 13.973C116.963 14.5761 116.136 14.8777 115.07 14.8777Z" fill="white"/>
<path d="M84.7685 19.0012C83.8709 19.0012 83.1486 18.8539 82.6016 18.5594C82.0686 18.2508 81.6829 17.8581 81.4444 17.3812C81.22 16.9044 81.1078 16.3994 81.1078 15.8665C81.1078 15.1792 81.2621 14.6112 81.5707 14.1624C81.8792 13.7135 82.286 13.3839 82.7909 13.1735C83.3099 12.9491 83.8569 12.8369 84.4319 12.8369C85.1612 12.8369 85.7714 12.9632 86.2623 13.2156C86.7672 13.4541 87.1809 13.7416 87.5035 14.0782C87.8401 14.4008 88.1066 14.6883 88.303 14.9408L87.23 17.0867C87.0757 16.708 86.8864 16.3504 86.662 16.0137C86.4516 15.6771 86.1991 15.4036 85.9046 15.1932C85.6101 14.9688 85.2594 14.8566 84.8527 14.8566C84.5441 14.8566 84.2636 14.9408 84.0111 15.1091C83.7587 15.2774 83.6324 15.5439 83.6324 15.9085C83.6324 16.2311 83.7376 16.4836 83.948 16.6659C84.1584 16.8483 84.4389 16.9394 84.7896 16.9394C85.2524 16.9394 85.6171 16.8132 85.8836 16.5607C86.1641 16.3083 86.3604 15.9717 86.4726 15.5509C86.5849 15.1301 86.641 14.6743 86.641 14.1834V13.7837C86.641 13.1946 86.5638 12.6756 86.4095 12.2268C86.2552 11.778 86.0098 11.4273 85.6732 11.1749C85.3366 10.9084 84.8948 10.7752 84.3478 10.7752C84.0111 10.7752 83.7096 10.8453 83.4431 10.9855C83.1766 11.1118 82.9522 11.2941 82.7699 11.5325C82.6016 11.7569 82.4683 12.0164 82.3701 12.311H79.6562C79.586 12.0866 79.4598 11.8411 79.2775 11.5746C79.1092 11.2941 78.8567 11.0557 78.5201 10.8593C78.1835 10.6489 77.7206 10.5437 77.1315 10.5437C76.6406 10.5437 76.2409 10.6279 75.9323 10.7962C75.6378 10.9505 75.4905 11.2099 75.4905 11.5746C75.4905 11.7149 75.5116 11.8481 75.5537 11.9743C75.6098 12.0866 75.7079 12.1847 75.8482 12.2689C75.9744 12.339 76.1357 12.4021 76.3321 12.4582C76.5425 12.5003 76.8651 12.5213 77.2999 12.5213H78.5411V14.7094H77.2367C76.8019 14.7094 76.4653 14.7304 76.2269 14.7725C75.9885 14.8145 75.7991 14.8917 75.6589 15.0039C75.5607 15.088 75.4765 15.1932 75.4064 15.3195C75.3503 15.4317 75.3222 15.5649 75.3222 15.7192C75.3222 15.9997 75.4134 16.2311 75.5957 16.4135C75.7921 16.5958 76.1077 16.687 76.5425 16.687C77.0053 16.687 77.4191 16.5678 77.7837 16.3293C78.1624 16.0909 78.5271 15.7753 78.8777 15.3826L80.6871 16.9815C80.3084 17.4163 79.8946 17.788 79.4458 18.0966C79.011 18.3911 78.5271 18.6155 77.9941 18.7698C77.4612 18.9241 76.851 19.0012 76.1638 19.0012C74.8454 19.0012 73.8495 18.7277 73.1763 18.1807C72.5171 17.6197 72.1875 16.9324 72.1875 16.1189C72.1875 15.7262 72.2646 15.3615 72.4189 15.0249C72.5732 14.6743 72.8116 14.3727 73.1342 14.1203C73.4708 13.8538 73.8916 13.6434 74.3965 13.4891L74.3755 13.7626C73.6742 13.5242 73.1623 13.1665 72.8397 12.6897C72.5171 12.2128 72.3558 11.6868 72.3558 11.1118C72.3558 10.2422 72.7345 9.5479 73.4919 9.02895C74.2493 8.49598 75.2521 8.22949 76.5004 8.22949C77.2438 8.22949 77.8749 8.29962 78.3939 8.43988C78.9268 8.56611 79.4177 8.77649 79.8666 9.07103C80.3154 9.35154 80.7712 9.73725 81.2341 10.2282L80.7922 10.2492C81.1148 9.82842 81.4515 9.47076 81.8021 9.17623C82.1668 8.86766 82.5735 8.63624 83.0223 8.48195C83.4852 8.31365 84.0322 8.22949 84.6633 8.22949C85.7153 8.22949 86.5919 8.46793 87.2931 8.9448C87.9944 9.40765 88.5204 10.0598 88.871 10.9014C89.2357 11.7289 89.418 12.6826 89.418 13.7626C89.418 14.8706 89.2497 15.8174 88.9131 16.6028C88.5765 17.3742 88.0646 17.9703 87.3773 18.3911C86.69 18.7978 85.8205 19.0012 84.7685 19.0012Z" fill="white"/>
<path d="M56.0082 8.75545C57.1864 8.75545 58.2033 8.93078 59.0588 9.28142C59.9144 9.63206 60.5736 10.158 61.0364 10.8593C61.4993 11.5606 61.7307 12.4302 61.7307 13.4681C61.7307 14.3236 61.6536 15.081 61.4993 15.7402C61.345 16.3994 61.1487 16.9885 60.9102 17.5075C60.6718 18.0124 60.4333 18.4823 60.1949 18.9171L57.3757 17.8231C57.6142 17.5005 57.8386 17.1428 58.049 16.7501C58.2734 16.3433 58.4557 15.8945 58.596 15.4036C58.7362 14.9127 58.8064 14.3797 58.8064 13.8047C58.8064 13.2577 58.7152 12.7387 58.5329 12.2478C58.3505 11.7569 58.049 11.3642 57.6282 11.0697C57.2215 10.7611 56.6604 10.6068 55.9451 10.6068C55.3701 10.6068 54.8722 10.7401 54.4514 11.0066C54.0447 11.2731 53.7291 11.6447 53.5047 12.1216C53.2803 12.5845 53.168 13.1245 53.168 13.7416C53.168 14.5551 53.3013 15.3054 53.5678 15.9927C53.8343 16.6659 54.1779 17.269 54.5987 17.802L51.7585 18.9171C51.3237 18.1737 50.959 17.3602 50.6645 16.4766C50.3699 15.593 50.2227 14.6603 50.2227 13.6785C50.2227 12.7528 50.4401 11.9182 50.8748 11.1749C51.3237 10.4315 51.9759 9.84244 52.8314 9.40765C53.687 8.97285 54.7459 8.75545 56.0082 8.75545ZM66.5906 14.8777C65.9454 14.8777 65.4125 14.7795 64.9917 14.5831C64.5709 14.3868 64.2413 14.1413 64.0029 13.8468C63.7644 13.5382 63.5961 13.2156 63.498 12.879C63.3998 12.5424 63.3507 12.2338 63.3507 11.9533C63.3507 11.4063 63.4419 10.9435 63.6242 10.5648C63.8205 10.1861 64.0169 9.84244 64.2133 9.53388L66.4644 9.70219C66.1558 9.99673 65.9104 10.2843 65.728 10.5648C65.5457 10.8453 65.4545 11.2029 65.4545 11.6377C65.4545 11.9884 65.5597 12.2759 65.7701 12.5003C65.9945 12.7247 66.282 12.8369 66.6327 12.8369C67.0394 12.8369 67.341 12.7387 67.5373 12.5424C67.7337 12.332 67.8319 12.0725 67.8319 11.764C67.8319 11.3432 67.6636 11.0487 67.327 10.8803C66.9903 10.698 66.5415 10.6068 65.9805 10.6068H50.3278V8.22949H64.1501C65.0057 8.22949 65.714 8.25754 66.275 8.31365C66.8361 8.35572 67.3129 8.43988 67.7057 8.56611C68.1124 8.69234 68.4841 8.8887 68.8207 9.15519C69.1713 9.42167 69.4519 9.75829 69.6622 10.165C69.8726 10.5718 69.9778 11.0837 69.9778 11.7008C69.9778 12.6125 69.6763 13.3699 69.0732 13.973C68.4841 14.5761 67.6566 14.8777 66.5906 14.8777Z" fill="white"/>
<path d="M37.2227 14.3946C37.2227 13.511 37.433 12.7186 37.8538 12.0173C38.2746 11.316 38.8707 10.762 39.6421 10.3552C40.4135 9.94849 41.3322 9.74512 42.3981 9.74512C43.4781 9.74512 44.3968 9.94849 45.1542 10.3552C45.9116 10.762 46.4866 11.316 46.8793 12.0173C47.2861 12.7186 47.4894 13.511 47.4894 14.3946C47.4894 15.2782 47.2861 16.0707 46.8793 16.772C46.4726 17.4592 45.8835 18.0062 45.1121 18.413C44.3547 18.8057 43.436 19.0021 42.3561 19.0021C41.2901 19.0021 40.3714 18.7987 39.6 18.3919C38.8286 17.9852 38.2395 17.4382 37.8328 16.7509C37.426 16.0497 37.2227 15.2642 37.2227 14.3946ZM40.0418 14.3736C40.0418 15.0188 40.2312 15.5658 40.6099 16.0146C41.0026 16.4494 41.5846 16.6668 42.3561 16.6668C42.875 16.6668 43.3028 16.5686 43.6394 16.3722C43.976 16.1619 44.2285 15.8813 44.3968 15.5307C44.5791 15.1801 44.6703 14.7944 44.6703 14.3736C44.6703 13.7284 44.4669 13.1884 44.0602 12.7536C43.6675 12.3048 43.0994 12.0804 42.3561 12.0804C41.8652 12.0804 41.4444 12.1856 41.0937 12.396C40.7571 12.5923 40.4977 12.8658 40.3153 13.2165C40.133 13.5531 40.0418 13.9388 40.0418 14.3736Z" fill="white"/>
<path d="M27.2391 19.0012C25.6402 19.0012 24.2867 18.7417 23.1787 18.2228C22.0706 17.6898 21.2291 16.9745 20.654 16.0769C20.093 15.1652 19.8125 14.1413 19.8125 13.0052C19.8125 12.0234 20.0018 11.1749 20.3805 10.4596C20.7733 9.74426 21.3203 9.19726 22.0215 8.81857C22.7228 8.42585 23.5293 8.22949 24.441 8.22949C25.2825 8.22949 25.9628 8.38377 26.4817 8.69234C27.0007 8.98688 27.3794 9.37258 27.6178 9.84946C27.8562 10.3123 27.9754 10.7962 27.9754 11.3011C27.9754 11.9463 27.8352 12.5003 27.5547 12.9632C27.2742 13.426 26.8674 13.7766 26.3344 14.0151C25.8015 14.2535 25.1493 14.3727 24.3779 14.3727C23.8168 14.3727 23.3189 14.2956 22.8841 14.1413C22.4493 13.987 22.0706 13.7977 21.748 13.5733C21.4395 13.3489 21.18 13.1455 20.9696 12.9632L21.4535 10.9855C21.6218 11.1959 21.8182 11.4063 22.0426 11.6167C22.281 11.8271 22.5475 12.0024 22.842 12.1427C23.1366 12.2689 23.4522 12.332 23.7888 12.332C24.2236 12.332 24.5742 12.2549 24.8407 12.1006C25.1072 11.9323 25.2404 11.6588 25.2404 11.2801C25.2404 11.0416 25.1563 10.8242 24.988 10.6279C24.8197 10.4175 24.5742 10.3123 24.2516 10.3123C23.7607 10.3123 23.354 10.5227 23.0314 10.9435C22.7088 11.3502 22.5475 11.8411 22.5475 12.4162V13.2367C22.5475 13.5733 22.6176 13.9309 22.7579 14.3096C22.9122 14.6743 23.1646 15.0249 23.5153 15.3615C23.8799 15.6841 24.3708 15.9506 24.988 16.161C25.6191 16.3574 26.4046 16.4555 27.3443 16.4555C28.6627 16.4555 29.7216 16.2311 30.5211 15.7823C31.3346 15.3195 31.7413 14.5971 31.7413 13.6153C31.7413 12.9561 31.538 12.4091 31.1312 11.9743C30.7385 11.5255 30.1214 11.0697 29.2798 10.6068L30.9208 8.22949C32.0289 8.77649 32.9265 9.49881 33.6138 10.3965C34.315 11.2801 34.6657 12.3671 34.6657 13.6574C34.6657 14.6532 34.3992 15.5579 33.8662 16.3714C33.3473 17.1709 32.5408 17.809 31.4468 18.2859C30.3528 18.7628 28.9502 19.0012 27.2391 19.0012Z" fill="white"/>
<path d="M15.6737 7.24108C15.6737 7.73198 15.5755 8.18781 15.3792 8.60858C15.1828 9.02935 14.9093 9.35895 14.5586 9.59739C14.18 9.86388 13.6891 10.0883 13.086 10.2706C12.4969 10.4389 11.8938 10.5231 11.2766 10.5231H7.84736V8.22989H11.2977C11.7044 8.22989 12.006 8.20885 12.2023 8.16677C12.4127 8.11067 12.574 8.03353 12.6862 7.93535C12.7704 7.85119 12.8335 7.76003 12.8756 7.66185C12.9176 7.54964 12.9387 7.43042 12.9387 7.30419C12.9387 7.13588 12.9176 6.99563 12.8756 6.88342C12.8335 6.75719 12.7634 6.652 12.6652 6.56784C12.553 6.46967 12.3917 6.39954 12.1813 6.35746C11.9849 6.31538 11.6553 6.29434 11.1925 6.29434H3.09266V3.91699H10.919C11.9148 3.91699 12.6862 3.99413 13.2332 4.14842C13.7942 4.28867 14.2781 4.52711 14.6849 4.86373C14.9794 5.11619 15.2179 5.43878 15.4002 5.8315C15.5825 6.22422 15.6737 6.69408 15.6737 7.24108ZM8.28917 19.0016C6.35363 19.0016 4.77574 18.7772 3.55551 18.3284C2.33527 17.8796 1.43763 17.2484 0.862579 16.4349C0.287526 15.6214 0 14.6817 0 13.6157C0 12.8023 0.189347 12.0869 0.56804 11.4698C0.946733 10.8527 1.46568 10.3688 2.12489 10.0182C2.79812 9.66752 3.56252 9.4922 4.41809 9.4922C5.1895 9.4922 5.83468 9.63245 6.35363 9.91297C6.87258 10.1795 7.2653 10.5441 7.53179 11.007C7.79827 11.4698 7.93152 11.9888 7.93152 12.5638C7.93152 13.5456 7.61594 14.289 6.98479 14.7939C6.35363 15.2848 5.49105 15.5302 4.39705 15.5302C3.89212 15.5302 3.41525 15.4531 2.96643 15.2988C2.53163 15.1305 2.13892 14.9271 1.78827 14.6887C1.43763 14.4503 1.14309 14.2259 0.904656 14.0155L1.61997 12.3114C1.88645 12.6199 2.20904 12.9145 2.58774 13.195C2.96643 13.4615 3.41525 13.5947 3.9342 13.5947C4.35497 13.5947 4.6986 13.5106 4.96509 13.3422C5.2456 13.1739 5.38586 12.9074 5.38586 12.5428C5.38586 12.2623 5.29469 12.0308 5.11236 11.8485C4.93002 11.6662 4.65652 11.575 4.29186 11.575C3.99732 11.575 3.7168 11.6592 3.45032 11.8275C3.18383 11.9818 2.96643 12.2202 2.79812 12.5428C2.62981 12.8513 2.54566 13.2371 2.54566 13.6999V13.8261C2.54566 14.2469 2.65085 14.6256 2.86124 14.9622C3.08565 15.2988 3.42928 15.5864 3.89212 15.8248C4.35497 16.0492 4.95106 16.2245 5.6804 16.3508C6.40973 16.463 7.28634 16.5191 8.31021 16.5191C9.39019 16.5191 10.3299 16.47 11.1294 16.3718C11.9288 16.2736 12.588 16.1193 13.107 15.9089C13.6259 15.6845 14.0116 15.39 14.2641 15.0253C14.5306 14.6466 14.6638 14.1838 14.6638 13.6368V13.5737C14.6638 13.0126 14.4955 12.5358 14.1589 12.1431C13.8223 11.7503 13.3454 11.554 12.7283 11.554C12.4197 11.554 12.1322 11.6381 11.8657 11.8064C11.6133 11.9607 11.487 12.2132 11.487 12.5638C11.487 12.9425 11.6062 13.209 11.8447 13.3633C12.0831 13.5035 12.3777 13.5737 12.7283 13.5737C13.0789 13.5737 13.3735 13.5035 13.6119 13.3633C13.8504 13.223 14.0537 13.0267 14.222 12.7742C14.3903 12.5077 14.5236 12.1992 14.6218 11.8485L15.7789 13.3843C15.4843 13.8051 15.1828 14.1838 14.8742 14.5204C14.5797 14.843 14.222 15.0955 13.8013 15.2778C13.3805 15.4601 12.8335 15.5513 12.1603 15.5513C11.6273 15.5513 11.1153 15.4671 10.6244 15.2988C10.1335 15.1165 9.73382 14.829 9.42525 14.4362C9.13071 14.0295 8.98344 13.4895 8.98344 12.8163C8.98344 12.0028 9.285 11.3576 9.8881 10.8807C10.4912 10.3898 11.3327 10.1444 12.4127 10.1444C12.6792 10.1444 12.9176 10.1514 13.128 10.1654C13.3384 10.1795 13.5348 10.2005 13.7171 10.2285C13.8994 10.2426 14.0748 10.2706 14.2431 10.3127L11.8026 10.3548C11.6203 10.2987 11.4239 10.2566 11.2135 10.2285C11.0172 10.1865 10.8138 10.1584 10.6034 10.1444C10.407 10.1163 10.1967 10.1023 9.97225 10.1023L10.8769 8.46131C11.7605 8.50339 12.581 8.65066 13.3384 8.90312C14.1098 9.14156 14.7831 9.48519 15.3581 9.93401C15.9332 10.3688 16.382 10.9018 16.7046 11.5329C17.0412 12.1501 17.2095 12.8584 17.2095 13.6578C17.2095 14.5555 17.0412 15.3409 16.7046 16.0141C16.368 16.6733 15.842 17.2274 15.1267 17.6762C14.4114 18.111 13.4857 18.4406 12.3496 18.665C11.2276 18.8894 9.87407 19.0016 8.28917 19.0016Z" fill="white"/>
</svg>
