<svg width="328" height="29" viewBox="0 0 328 29" fill="none" xmlns="http://www.w3.org/2000/svg">
<path d="M323.722 27.2174C323.077 27.2174 322.551 27.1122 322.144 26.9019C321.723 26.7055 321.31 26.3478 320.903 25.8289H321.387C320.91 26.3478 320.468 26.7055 320.061 26.9019C319.641 27.1122 319.122 27.2174 318.505 27.2174C317.887 27.2174 317.375 27.0772 316.969 26.7967C316.562 26.5162 316.26 26.1445 316.064 25.6816C315.868 25.2188 315.77 24.7209 315.77 24.1879C315.77 23.3043 316.008 22.5399 316.485 21.8947C316.948 21.2495 317.586 20.7516 318.399 20.401C319.199 20.0503 320.103 19.875 321.113 19.875C322.151 19.875 323.077 20.0573 323.89 20.422C324.69 20.8007 325.321 21.3126 325.784 21.9578C326.247 22.617 326.478 23.3744 326.478 24.23C326.478 24.7349 326.394 25.2118 326.226 25.6606C326.043 26.1234 325.749 26.4951 325.342 26.7756C324.935 27.0702 324.395 27.2174 323.722 27.2174ZM323.217 25.324C323.498 25.324 323.722 25.2188 323.89 25.0084C324.059 24.798 324.143 24.5175 324.143 24.1669C324.143 23.4235 323.855 22.8344 323.28 22.3996C322.705 21.9789 321.983 21.7685 321.113 21.7685C320.174 21.7685 319.437 21.9789 318.904 22.3996C318.357 22.8204 318.084 23.3954 318.084 24.1248C318.084 24.4894 318.168 24.777 318.336 24.9874C318.505 25.2118 318.736 25.324 319.03 25.324C319.311 25.324 319.542 25.2538 319.725 25.1136C319.893 24.9874 320.033 24.805 320.146 24.5666H322.081C322.193 24.8331 322.334 25.0224 322.502 25.1346C322.67 25.2609 322.909 25.324 323.217 25.324ZM320.082 28.5849L320.167 26.8808H322.018L322.165 28.5849H320.082ZM319.998 23.3253C319.998 23.0168 320.103 22.7853 320.314 22.631C320.524 22.4908 320.791 22.4207 321.113 22.4207C321.478 22.4207 321.758 22.4978 321.955 22.6521C322.151 22.8064 322.249 23.0308 322.249 23.3253C322.249 23.6479 322.151 23.8793 321.955 24.0196C321.744 24.1598 321.464 24.23 321.113 24.23C320.777 24.23 320.51 24.1528 320.314 23.9985C320.103 23.8583 319.998 23.6339 319.998 23.3253Z" fill="white"/>
<path d="M322.799 18.9952C322.21 18.9952 321.642 18.911 321.095 18.7427C320.562 18.5884 320.008 18.3009 319.433 17.8801C318.872 17.4594 318.255 16.8703 317.581 16.1129C317.273 15.7623 317.02 15.5028 316.824 15.3345C316.642 15.1521 316.487 15.0329 316.361 14.9768C316.235 14.9067 316.095 14.8716 315.94 14.8716C315.758 14.8716 315.59 14.9488 315.436 15.103C315.281 15.2573 315.204 15.4677 315.204 15.7342C315.204 16.0848 315.281 16.4565 315.436 16.8492C315.604 17.242 315.842 17.6627 316.151 18.1116L313.205 19.0162C312.953 18.5253 312.736 18.0064 312.553 17.4594C312.385 16.8983 312.301 16.2952 312.301 15.65C312.301 15.0049 312.455 14.4368 312.764 13.9459C313.072 13.441 313.493 13.0483 314.026 12.7678C314.573 12.4732 315.19 12.326 315.877 12.326C316.522 12.326 317.091 12.4241 317.581 12.6205C318.072 12.8169 318.528 13.0974 318.949 13.462C319.384 13.8267 319.826 14.2615 320.274 14.7664C320.681 15.2012 321.025 15.5449 321.305 15.7973C321.586 16.0358 321.852 16.2041 322.105 16.3022C322.371 16.4004 322.659 16.4495 322.967 16.4495C323.36 16.4495 323.69 16.3093 323.956 16.0287C324.223 15.7482 324.356 15.3275 324.356 14.7664C324.356 14.1072 324.209 13.5252 323.914 13.0202C323.619 12.5153 323.234 12.0665 322.757 11.6738C322.28 11.267 321.775 10.8953 321.242 10.5587L322.904 8.22345C323.732 8.67227 324.475 9.20525 325.134 9.82238C325.793 10.4395 326.312 11.1408 326.691 11.9262C327.084 12.6976 327.28 13.5672 327.28 14.535C327.28 15.4326 327.105 16.2181 326.754 16.8913C326.418 17.5505 325.913 18.0695 325.239 18.4482C324.58 18.8128 323.767 18.9952 322.799 18.9952ZM316.53 10.4115C315.87 10.4115 315.288 10.3063 314.783 10.0959C314.278 9.87147 313.851 9.51381 313.5 9.02292C313.149 8.51799 312.876 7.83775 312.679 6.98218L315.541 6.24583C315.695 6.96114 315.863 7.47308 316.046 7.78164C316.228 8.07618 316.48 8.22345 316.803 8.22345C317.013 8.22345 317.224 8.14631 317.434 7.99203C317.645 7.83775 317.925 7.54321 318.276 7.10841L319.159 5.99337C319.65 5.37624 320.113 4.89236 320.548 4.54171C320.983 4.17705 321.453 3.91056 321.957 3.74225C322.476 3.57394 323.094 3.48278 323.809 3.46875L323.977 5.90922C323.5 5.93727 323.087 6.02142 322.736 6.16168C322.399 6.28791 322.091 6.47024 321.81 6.70868C321.53 6.94712 321.235 7.26269 320.927 7.65541L320.232 8.51799C319.966 8.85461 319.65 9.17019 319.286 9.46473C318.921 9.74524 318.507 9.97666 318.044 10.159C317.595 10.3273 317.091 10.4115 316.53 10.4115Z" fill="white"/>
<path d="M299.574 14.3839C299.574 13.5003 299.785 12.7078 300.205 12.0065C300.626 11.3053 301.222 10.7512 301.994 10.3445C302.765 9.93775 303.684 9.73438 304.75 9.73438C305.83 9.73438 306.748 9.93775 307.506 10.3445C308.263 10.7512 308.838 11.3053 309.231 12.0065C309.638 12.7078 309.841 13.5003 309.841 14.3839C309.841 15.2675 309.638 16.06 309.231 16.7612C308.824 17.4485 308.235 17.9955 307.464 18.4022C306.706 18.795 305.788 18.9913 304.708 18.9913C303.642 18.9913 302.723 18.7879 301.952 18.3812C301.18 17.9745 300.591 17.4275 300.184 16.7402C299.778 16.0389 299.574 15.2535 299.574 14.3839ZM302.393 14.3628C302.393 15.008 302.583 15.555 302.961 16.0039C303.354 16.4386 303.936 16.656 304.708 16.656C305.227 16.656 305.654 16.5579 305.991 16.3615C306.328 16.1511 306.58 15.8706 306.748 15.52C306.931 15.1693 307.022 14.7836 307.022 14.3628C307.022 13.7177 306.818 13.1777 306.412 12.7429C306.019 12.2941 305.451 12.0697 304.708 12.0697C304.217 12.0697 303.796 12.1748 303.445 12.3852C303.109 12.5816 302.849 12.8551 302.667 13.2057C302.485 13.5423 302.393 13.9281 302.393 14.3628Z" fill="white"/>
<path d="M292.498 18.9952C291.909 18.9952 291.341 18.911 290.794 18.7427C290.261 18.5884 289.707 18.3009 289.132 17.8801C288.571 17.4594 287.954 16.8703 287.281 16.1129C286.972 15.7623 286.72 15.5028 286.523 15.3345C286.341 15.1521 286.187 15.0329 286.06 14.9768C285.934 14.9067 285.794 14.8716 285.64 14.8716C285.457 14.8716 285.289 14.9488 285.135 15.103C284.98 15.2573 284.903 15.4677 284.903 15.7342C284.903 16.0848 284.98 16.4565 285.135 16.8492C285.303 17.242 285.541 17.6627 285.85 18.1116L282.905 19.0162C282.652 18.5253 282.435 18.0064 282.252 17.4594C282.084 16.8983 282 16.2952 282 15.65C282 15.0049 282.154 14.4368 282.463 13.9459C282.771 13.441 283.192 13.0483 283.725 12.7678C284.272 12.4732 284.889 12.326 285.577 12.326C286.222 12.326 286.79 12.4241 287.281 12.6205C287.772 12.8169 288.227 13.0974 288.648 13.462C289.083 13.8267 289.525 14.2615 289.974 14.7664C290.38 15.2012 290.724 15.5449 291.004 15.7973C291.285 16.0358 291.551 16.2041 291.804 16.3022C292.07 16.4004 292.358 16.4495 292.667 16.4495C293.059 16.4495 293.389 16.3093 293.655 16.0287C293.922 15.7482 294.055 15.3275 294.055 14.7664C294.055 14.1072 293.908 13.5252 293.613 13.0202C293.319 12.5153 292.933 12.0665 292.456 11.6738C291.979 11.267 291.474 10.8953 290.941 10.5587L292.603 8.22345C293.431 8.67227 294.174 9.20525 294.833 9.82238C295.493 10.4395 296.012 11.1408 296.39 11.9262C296.783 12.6976 296.979 13.5672 296.979 14.535C296.979 15.4326 296.804 16.2181 296.453 16.8913C296.117 17.5505 295.612 18.0695 294.939 18.4482C294.279 18.8128 293.466 18.9952 292.498 18.9952ZM286.229 10.4115C285.57 10.4115 284.987 10.3063 284.483 10.0959C283.978 9.87147 283.55 9.51381 283.199 9.02292C282.849 8.51799 282.575 7.83775 282.379 6.98218L285.24 6.24583C285.394 6.96114 285.563 7.47308 285.745 7.78164C285.927 8.07618 286.18 8.22345 286.502 8.22345C286.713 8.22345 286.923 8.14631 287.133 7.99203C287.344 7.83775 287.624 7.54321 287.975 7.10841L288.859 5.99337C289.349 5.37624 289.812 4.89236 290.247 4.54171C290.682 4.17705 291.152 3.91056 291.657 3.74225C292.176 3.57394 292.793 3.48278 293.508 3.46875L293.676 5.90922C293.199 5.93727 292.786 6.02142 292.435 6.16168C292.098 6.28791 291.79 6.47024 291.509 6.70868C291.229 6.94712 290.934 7.26269 290.626 7.65541L289.932 8.51799C289.665 8.85461 289.349 9.17019 288.985 9.46473C288.62 9.74524 288.206 9.97666 287.743 10.159C287.295 10.3273 286.79 10.4115 286.229 10.4115Z" fill="white"/>
<path d="M260.683 18.9905C259.785 18.9905 259.063 18.8432 258.516 18.5487C257.983 18.2401 257.597 17.8474 257.358 17.3705C257.134 16.8936 257.022 16.3887 257.022 15.8557C257.022 15.1685 257.176 14.6004 257.485 14.1516C257.793 13.7028 258.2 13.3732 258.705 13.1628C259.224 12.9384 259.771 12.8262 260.346 12.8262C261.075 12.8262 261.685 12.9524 262.176 13.2049C262.681 13.4433 263.095 13.7308 263.418 14.0675C263.754 14.39 264.021 14.6776 264.217 14.93L263.144 17.076C262.99 16.6973 262.8 16.3396 262.576 16.003C262.366 15.6664 262.113 15.3929 261.819 15.1825C261.524 14.9581 261.173 14.8459 260.767 14.8459C260.458 14.8459 260.178 14.93 259.925 15.0983C259.673 15.2667 259.547 15.5331 259.547 15.8978C259.547 16.2204 259.652 16.4729 259.862 16.6552C260.072 16.8375 260.353 16.9287 260.704 16.9287C261.166 16.9287 261.531 16.8025 261.798 16.55C262.078 16.2975 262.275 15.9609 262.387 15.5402C262.499 15.1194 262.555 14.6635 262.555 14.1726V13.6467C262.555 13.0716 262.478 12.5527 262.324 12.0898C262.169 11.627 261.924 11.2623 261.587 10.9958C261.265 10.7293 260.83 10.5961 260.283 10.5961C259.946 10.5961 259.638 10.6732 259.357 10.8275C259.091 10.9678 258.866 11.1641 258.684 11.4166C258.502 11.6691 258.368 11.9636 258.284 12.3002H255.57C255.5 12.0758 255.374 11.8304 255.192 11.5639C255.023 11.2834 254.771 11.0449 254.434 10.8486C254.098 10.6382 253.635 10.533 253.046 10.533C252.555 10.533 252.155 10.6171 251.846 10.7854C251.552 10.9397 251.405 11.1992 251.405 11.5639C251.405 11.7041 251.426 11.8374 251.468 11.9636C251.524 12.0758 251.622 12.174 251.762 12.2581C251.888 12.3283 252.05 12.3914 252.246 12.4475C252.457 12.4896 252.779 12.5106 253.214 12.5106H254.455V14.6986H253.151C252.716 14.6986 252.379 14.7196 252.141 14.7617C251.903 14.8038 251.713 14.8809 251.573 14.9932C251.475 15.0773 251.391 15.1825 251.32 15.3087C251.264 15.4209 251.236 15.5542 251.236 15.7085C251.236 15.989 251.327 16.2204 251.51 16.4027C251.706 16.5851 252.022 16.6762 252.457 16.6762C252.919 16.6762 253.333 16.557 253.698 16.3186C254.076 16.0801 254.441 15.7646 254.792 15.3718L256.601 16.9708C256.222 17.4056 255.809 17.7772 255.36 18.0858C254.925 18.3804 254.441 18.6048 253.908 18.759C253.375 18.9133 252.765 18.9905 252.078 18.9905C250.759 18.9905 249.764 18.717 249.09 18.17C248.431 17.6089 248.102 16.9217 248.102 16.1082C248.102 15.7155 248.179 15.3508 248.333 15.0142C248.487 14.6635 248.726 14.362 249.048 14.1095C249.385 13.843 249.806 13.6327 250.311 13.4784L250.29 13.7519C249.602 13.4994 249.09 13.1698 248.754 12.7631C248.431 12.3423 248.27 11.8444 248.27 11.2693C248.27 10.7504 248.452 10.3086 248.817 9.94391C249.196 9.56521 249.715 9.27067 250.374 9.06029C251.033 8.8499 251.79 8.74471 252.646 8.74471C253.403 8.74471 254.034 8.83588 254.539 9.01821C255.058 9.18652 255.514 9.43898 255.907 9.7756C256.314 10.0982 256.734 10.4979 257.169 10.9748L256.685 10.9958C257.022 10.519 257.387 10.1333 257.779 9.83872C258.172 9.53015 258.593 9.30574 259.042 9.16548C259.504 9.0112 259.988 8.93406 260.493 8.93406C261.559 8.93406 262.45 9.12341 263.165 9.5021C263.88 9.88079 264.42 10.4348 264.785 11.1641C265.15 11.8935 265.332 12.7841 265.332 13.836C265.332 14.8739 265.164 15.7856 264.827 16.571C264.491 17.3424 263.979 17.9385 263.291 18.3593C262.604 18.7801 261.735 18.9905 260.683 18.9905ZM270.213 14.8669C269.568 14.8669 269.035 14.7687 268.614 14.5724C268.193 14.376 267.864 14.1306 267.625 13.836C267.387 13.5275 267.219 13.2049 267.12 12.8683C267.022 12.5316 266.973 12.2231 266.973 11.9426C266.973 11.3675 267.064 10.8977 267.247 10.533C267.429 10.1683 267.618 9.8317 267.815 9.52314L270.087 9.69144C269.778 9.98598 269.533 10.2735 269.35 10.554C269.168 10.8345 269.077 11.1922 269.077 11.627C269.077 11.9776 269.182 12.2652 269.393 12.4896C269.617 12.714 269.897 12.8262 270.234 12.8262C270.641 12.8262 270.942 12.728 271.139 12.5316C271.349 12.3213 271.454 12.0618 271.454 11.7532C271.454 11.3324 271.279 11.0379 270.928 10.8696C270.592 10.6873 270.136 10.5961 269.561 10.5961H255.255L253.824 10.0281L251.236 10.5961H248.333V8.21875H267.752C268.607 8.21875 269.315 8.2468 269.876 8.3029C270.451 8.34498 270.935 8.42914 271.328 8.55537C271.735 8.6816 272.106 8.87796 272.443 9.14444C272.794 9.41093 273.074 9.74755 273.285 10.1543C273.495 10.561 273.6 11.073 273.6 11.6901C273.6 12.6018 273.299 13.3592 272.696 13.9623C272.107 14.5654 271.279 14.8669 270.213 14.8669Z" fill="white"/>
<path d="M233.448 18.9905C232.775 18.9905 232.178 18.8923 231.659 18.6959C231.141 18.4996 230.615 18.17 230.082 17.7071C229.563 17.2302 228.939 16.5851 228.209 15.7716C227.816 15.3228 227.508 15.0142 227.283 14.8459C227.059 14.6635 226.8 14.5724 226.505 14.5724C226.281 14.5724 226.056 14.6635 225.832 14.8459C225.621 15.0142 225.516 15.2807 225.516 15.6453C225.516 16.0801 225.628 16.3817 225.853 16.55C226.091 16.7183 226.365 16.8025 226.673 16.8025C227.01 16.8025 227.347 16.6622 227.683 16.3817C228.02 16.1012 228.258 15.6383 228.399 14.9932L230.145 16.8445C229.864 17.2373 229.57 17.6019 229.261 17.9385C228.967 18.2611 228.595 18.5206 228.146 18.717C227.697 18.8993 227.094 18.9905 226.337 18.9905C225.509 18.9905 224.829 18.8362 224.296 18.5276C223.777 18.205 223.391 17.7913 223.139 17.2863C222.9 16.7674 222.781 16.2274 222.781 15.6664C222.781 14.9931 222.943 14.4111 223.265 13.9202C223.588 13.4153 224.03 13.0225 224.591 12.742C225.152 12.4615 225.783 12.3213 226.484 12.3213C227.073 12.3213 227.592 12.3984 228.041 12.5527C228.49 12.707 228.924 12.9594 229.345 13.3101C229.78 13.6607 230.257 14.1236 230.776 14.6986C231.225 15.1895 231.596 15.5612 231.891 15.8137C232.185 16.0661 232.452 16.2344 232.69 16.3186C232.929 16.4027 233.174 16.4448 233.427 16.4448C233.876 16.4448 234.233 16.3046 234.5 16.024C234.766 15.7435 234.899 15.2947 234.899 14.6776C234.899 13.9623 234.71 13.3101 234.331 12.721C233.953 12.1319 233.434 11.627 232.775 11.2062C232.115 10.7854 231.365 10.4839 230.523 10.3016L235.552 10.2174C236.014 10.526 236.414 10.8977 236.751 11.3324C237.101 11.7532 237.368 12.2301 237.55 12.7631C237.733 13.282 237.824 13.8501 237.824 14.4672C237.824 15.3789 237.655 16.1783 237.319 16.8656C236.982 17.5388 236.484 18.0648 235.825 18.4435C235.18 18.8081 234.387 18.9905 233.448 18.9905ZM242.515 14.8669C241.87 14.8669 241.337 14.7687 240.916 14.5724C240.496 14.376 240.166 14.1306 239.928 13.836C239.689 13.5275 239.521 13.2049 239.423 12.8683C239.325 12.5316 239.275 12.2231 239.275 11.9426C239.275 11.3675 239.367 10.8977 239.549 10.533C239.731 10.1683 239.921 9.8317 240.117 9.52314L242.368 9.69144C242.074 9.98598 241.835 10.2735 241.653 10.554C241.47 10.8345 241.379 11.1922 241.379 11.627C241.379 11.9776 241.484 12.2652 241.695 12.4896C241.919 12.714 242.2 12.8262 242.536 12.8262C242.943 12.8262 243.245 12.728 243.441 12.5316C243.637 12.3213 243.736 12.0618 243.736 11.7532C243.736 11.3324 243.567 11.0379 243.231 10.8696C242.894 10.6873 242.445 10.5961 241.884 10.5961H225.011V8.21875H240.054C240.909 8.21875 241.618 8.2468 242.179 8.3029C242.74 8.34498 243.217 8.42914 243.609 8.55537C244.016 8.6816 244.388 8.87796 244.724 9.14444C245.089 9.41093 245.37 9.74755 245.566 10.1543C245.776 10.561 245.882 11.073 245.882 11.6901C245.882 12.6018 245.587 13.3592 244.998 13.9623C244.409 14.5654 243.581 14.8669 242.515 14.8669Z" fill="white"/>
<path d="M208.5 13.7776C208.5 12.7397 208.724 11.807 209.173 10.9795C209.622 10.138 210.281 9.47174 211.151 8.98084C212.034 8.47592 213.114 8.22345 214.391 8.22345C215.681 8.22345 216.761 8.46189 217.631 8.93876C218.5 9.40161 219.152 10.0468 219.587 10.8743C220.036 11.7018 220.261 12.6626 220.261 13.7566C220.261 14.7805 220.043 15.6921 219.608 16.4916C219.174 17.277 218.521 17.8942 217.652 18.343C216.782 18.7778 215.695 18.9952 214.391 18.9952C213.086 18.9952 211.992 18.7708 211.109 18.3219C210.239 17.8731 209.587 17.256 209.152 16.4706C208.717 15.6851 208.5 14.7875 208.5 13.7776ZM211.424 13.5041C211.424 14.3597 211.67 15.068 212.161 15.629C212.666 16.176 213.409 16.4495 214.391 16.4495C215.05 16.4495 215.597 16.3303 216.032 16.0919C216.467 15.8394 216.796 15.5028 217.021 15.082C217.245 14.6472 217.357 14.1563 217.357 13.6093C217.357 13.0483 217.245 12.5434 217.021 12.0945C216.81 11.6457 216.481 11.2881 216.032 11.0216C215.597 10.7411 215.05 10.6008 214.391 10.6008C213.718 10.6008 213.164 10.734 212.729 11.0005C212.294 11.267 211.964 11.6247 211.74 12.0735C211.53 12.5083 211.424 12.9852 211.424 13.5041ZM213.507 10.4115C212.848 10.4115 212.266 10.3063 211.761 10.0959C211.256 9.87147 210.828 9.51381 210.478 9.02292C210.127 8.51799 209.853 7.83775 209.657 6.98218L212.518 6.24583C212.673 6.96114 212.841 7.47308 213.023 7.78164C213.206 8.07618 213.458 8.22345 213.781 8.22345C213.991 8.22345 214.201 8.14631 214.412 7.99203C214.622 7.83775 214.903 7.54321 215.253 7.10841L216.137 5.99337C216.628 5.37624 217.091 4.89236 217.526 4.54171C217.96 4.17705 218.43 3.91056 218.935 3.74225C219.454 3.57394 220.071 3.48278 220.786 3.46875L220.955 5.90922C220.478 5.93727 220.064 6.02142 219.714 6.16168C219.377 6.28791 219.068 6.47024 218.788 6.70868C218.507 6.94712 218.213 7.26269 217.904 7.65541L217.21 8.51799C216.943 8.85461 216.628 9.17019 216.263 9.46473C215.899 9.74524 215.485 9.97666 215.022 10.159C214.573 10.3273 214.068 10.4115 213.507 10.4115Z" fill="white"/>
<path d="M187.278 27.2174C186.395 27.2174 185.715 27.1193 185.238 26.9229C184.761 26.7265 184.34 26.4601 183.975 26.1234H184.102C183.709 26.5582 183.309 26.8458 182.902 26.986C182.482 27.1403 181.998 27.2174 181.451 27.2174C180.918 27.2174 180.448 27.0912 180.041 26.8387C179.634 26.6003 179.319 26.2497 179.094 25.7868C178.87 25.324 178.758 24.77 178.758 24.1248C178.758 23.2832 178.989 22.5399 179.452 21.8947C179.901 21.2635 180.553 20.7656 181.409 20.401C182.264 20.0503 183.274 19.875 184.438 19.875C185.406 19.875 186.248 19.9381 186.963 20.0643C187.664 20.1906 188.407 20.3869 189.193 20.6534L188.372 22.5469C187.825 22.3365 187.349 22.1752 186.942 22.063C186.521 21.9508 186.121 21.8737 185.743 21.8316C185.35 21.7895 184.922 21.7685 184.459 21.7685C183.674 21.7685 183.029 21.8737 182.524 22.084C182.019 22.3085 181.654 22.596 181.43 22.9466C181.191 23.2973 181.072 23.69 181.072 24.1248C181.072 24.4894 181.156 24.777 181.325 24.9874C181.479 25.2118 181.71 25.324 182.019 25.324C182.299 25.324 182.538 25.2188 182.734 25.0084C182.916 24.812 183.029 24.5385 183.071 24.1879H185.09C185.118 24.4263 185.175 24.6367 185.259 24.819C185.343 25.0014 185.476 25.1416 185.658 25.2398C185.841 25.338 186.093 25.3871 186.416 25.3871C186.57 25.4011 186.738 25.4151 186.921 25.4292C187.089 25.4572 187.271 25.4712 187.468 25.4712C187.748 25.4712 187.973 25.4222 188.141 25.324C188.295 25.2398 188.372 25.0996 188.372 24.9032C188.372 24.7629 188.323 24.6507 188.225 24.5666C188.113 24.4824 187.959 24.4404 187.762 24.4404C187.58 24.4404 187.433 24.4965 187.32 24.6087C187.194 24.7209 187.131 24.8962 187.131 25.1346C187.131 25.317 187.18 25.4783 187.278 25.6185C187.363 25.7728 187.482 25.9131 187.636 26.0393L186.079 26.439C185.911 26.2006 185.792 25.9271 185.722 25.6185C185.637 25.3099 185.595 25.0645 185.595 24.8822C185.595 24.265 185.792 23.7601 186.184 23.3674C186.563 22.9747 187.117 22.7783 187.846 22.7783C188.548 22.7783 189.116 22.9747 189.551 23.3674C189.971 23.7741 190.182 24.272 190.182 24.8611C190.182 25.2538 190.098 25.6255 189.929 25.9762C189.747 26.3408 189.445 26.6354 189.025 26.8598C188.604 27.0982 188.022 27.2174 187.278 27.2174Z" fill="white"/>
<path d="M193.854 18.9905C192.788 18.9905 191.89 18.745 191.161 18.2541C190.432 17.7632 189.737 17.1461 189.078 16.4027L190.698 14.5934C190.993 14.93 191.301 15.2386 191.624 15.5191C191.932 15.7996 192.269 16.024 192.634 16.1923C193.012 16.3607 193.419 16.4448 193.854 16.4448C194.345 16.4448 194.723 16.3046 194.99 16.024C195.256 15.7435 195.39 15.3228 195.39 14.7617C195.39 14.1025 195.242 13.5205 194.948 13.0155C194.653 12.5106 194.268 12.0618 193.791 11.6691C193.314 11.2623 192.809 10.8906 192.276 10.554L193.938 8.21875C194.766 8.66757 195.509 9.20055 196.168 9.81768C196.827 10.4348 197.346 11.1361 197.725 11.9215C198.118 12.6929 198.314 13.5625 198.314 14.5303C198.314 15.8768 197.935 16.9567 197.178 17.7702C196.421 18.5837 195.313 18.9905 193.854 18.9905Z" fill="white"/>
<path d="M185.867 18.9952C185.067 18.9952 184.387 18.918 183.826 18.7637C183.265 18.6235 182.788 18.4201 182.396 18.1536C182.003 17.8731 181.652 17.5505 181.344 17.1859L181.491 17.2069C181.154 17.6978 180.797 18.0765 180.418 18.343C180.053 18.5954 179.661 18.7637 179.24 18.8479C178.833 18.9461 178.377 18.9952 177.872 18.9952C176.764 18.9952 175.867 18.6025 175.179 17.817C174.492 17.0316 174.148 15.9165 174.148 14.4719C174.148 13.1254 174.478 11.9893 175.137 11.0637C175.796 10.1239 176.729 9.41564 177.935 8.93876C179.142 8.46189 180.551 8.22345 182.164 8.22345C183.02 8.22345 183.798 8.27254 184.499 8.37072C185.201 8.4689 185.881 8.61617 186.54 8.81253C187.199 8.99486 187.894 9.2333 188.623 9.52784L187.34 11.8842C186.582 11.5475 185.916 11.2881 185.341 11.1057C184.78 10.9234 184.24 10.7972 183.721 10.727C183.202 10.6429 182.634 10.6008 182.017 10.6008C180.867 10.6008 179.927 10.7691 179.198 11.1057C178.468 11.4283 177.928 11.8701 177.578 12.4312C177.241 12.9782 177.073 13.5883 177.073 14.2615C177.073 15.0469 177.199 15.608 177.451 15.9446C177.704 16.2812 178.055 16.4495 178.503 16.4495C178.966 16.4495 179.338 16.2812 179.618 15.9446C179.913 15.608 180.088 15.1381 180.144 14.535H182.732C182.774 15.082 182.936 15.5238 183.216 15.8604C183.511 16.197 184.001 16.4144 184.689 16.5126C184.899 16.5547 185.131 16.5898 185.383 16.6178C185.649 16.6318 185.93 16.6389 186.225 16.6389C186.617 16.6389 186.926 16.5617 187.15 16.4074C187.375 16.2532 187.487 16.0007 187.487 15.65C187.487 15.4116 187.403 15.2153 187.234 15.061C187.08 14.9067 186.863 14.8295 186.582 14.8295C186.316 14.8295 186.084 14.9067 185.888 15.061C185.706 15.2153 185.614 15.4677 185.614 15.8184C185.614 16.0708 185.678 16.3093 185.804 16.5337C185.93 16.7441 186.105 16.9334 186.33 17.1017L184.289 17.6908C184.051 17.3542 183.868 16.9685 183.742 16.5337C183.63 16.0848 183.574 15.7272 183.574 15.4607C183.574 14.6051 183.84 13.9179 184.373 13.3989C184.92 12.866 185.685 12.5995 186.666 12.5995C187.312 12.5995 187.873 12.7327 188.349 12.9992C188.826 13.2657 189.198 13.6304 189.464 14.0932C189.731 14.542 189.864 15.0469 189.864 15.608C189.864 16.0287 189.794 16.4425 189.654 16.8492C189.528 17.256 189.31 17.6207 189.002 17.9432C188.707 18.2658 188.3 18.5253 187.781 18.7217C187.262 18.904 186.624 18.9952 185.867 18.9952ZM181.407 10.4115C180.748 10.4115 180.165 10.3063 179.661 10.0959C179.156 9.87147 178.728 9.51381 178.377 9.02292C178.027 8.51799 177.753 7.83775 177.557 6.98218L180.418 6.24583C180.572 6.96114 180.741 7.47308 180.923 7.78164C181.105 8.07618 181.358 8.22345 181.68 8.22345C181.891 8.22345 182.101 8.14631 182.311 7.99203C182.522 7.83775 182.802 7.54321 183.153 7.10841L184.037 5.99337C184.527 5.37624 184.99 4.89236 185.425 4.54171C185.86 4.17705 186.33 3.91056 186.835 3.74225C187.354 3.57394 187.971 3.48278 188.686 3.46875L188.854 5.90922C188.377 5.93727 187.964 6.02142 187.613 6.16168C187.276 6.28791 186.968 6.47024 186.687 6.70868C186.407 6.94712 186.112 7.26269 185.804 7.65541L185.109 8.51799C184.843 8.85461 184.527 9.17019 184.163 9.46473C183.798 9.74524 183.384 9.97666 182.922 10.159C182.473 10.3273 181.968 10.4115 181.407 10.4115Z" fill="white"/>
<path d="M156.164 13.7753C156.164 12.7374 156.388 11.8047 156.837 10.9772C157.286 10.1356 157.945 9.46942 158.815 8.97852C159.699 8.4736 160.779 8.22113 162.055 8.22113C163.345 8.22113 164.425 8.45957 165.295 8.93644C166.164 9.39929 166.817 10.0445 167.251 10.872C167.7 11.6995 167.925 12.6603 167.925 13.7543C167.925 14.7781 167.707 15.6898 167.272 16.4893C166.838 17.2747 166.185 17.8918 165.316 18.3407C164.446 18.7755 163.359 18.9929 162.055 18.9929C160.75 18.9929 159.656 18.7684 158.773 18.3196C157.903 17.8708 157.251 17.2537 156.816 16.4682C156.381 15.6828 156.164 14.7852 156.164 13.7753ZM159.088 13.5018C159.088 14.3574 159.334 15.0657 159.825 15.6267C160.33 16.1737 161.073 16.4472 162.055 16.4472C162.714 16.4472 163.261 16.328 163.696 16.0895C164.131 15.8371 164.46 15.5005 164.685 15.0797C164.909 14.6449 165.021 14.154 165.021 13.607C165.021 13.046 164.909 12.541 164.685 12.0922C164.474 11.6434 164.145 11.2857 163.696 11.0193C163.261 10.7387 162.714 10.5985 162.055 10.5985C161.382 10.5985 160.828 10.7317 160.393 10.9982C159.958 11.2647 159.628 11.6224 159.404 12.0712C159.194 12.506 159.088 12.9829 159.088 13.5018ZM170.702 10.325C170.056 10.325 169.524 10.2268 169.103 10.0304C168.682 9.83409 168.345 9.58864 168.093 9.2941C167.854 8.98553 167.686 8.66294 167.588 8.32633C167.49 7.98971 167.441 7.68816 167.441 7.42167C167.441 6.84662 167.532 6.37676 167.714 6.01209C167.911 5.6334 168.107 5.29678 168.303 5.00224L170.554 5.14951C170.246 5.44405 170 5.73158 169.818 6.01209C169.636 6.2926 169.545 6.65026 169.545 7.08505C169.545 7.4357 169.65 7.72322 169.86 7.94763C170.085 8.17204 170.372 8.28425 170.723 8.28425C171.143 8.28425 171.445 8.17906 171.627 7.96867C171.824 7.75829 171.922 7.50583 171.922 7.21129C171.922 6.80454 171.754 6.51 171.417 6.32767C171.08 6.14533 170.625 6.05417 170.049 6.05417H167.041C166.564 6.05417 166.192 6.17339 165.926 6.41182C165.659 6.65026 165.491 7.02895 165.421 7.5479H162.854C162.756 7.08506 162.574 6.72039 162.307 6.4539C162.055 6.18741 161.648 6.05417 161.087 6.05417H160.856C160.547 6.05417 160.281 6.15235 160.056 6.34871C159.832 6.54507 159.72 6.82558 159.72 7.19025C159.72 7.41466 159.769 7.604 159.867 7.75829C159.979 7.91257 160.133 8.03179 160.33 8.11594C160.526 8.18607 160.75 8.22113 161.003 8.22113H161.718V10.5143H161.171C160.358 10.5143 159.642 10.3741 159.025 10.0936C158.422 9.79902 157.952 9.38527 157.616 8.85229C157.279 8.31931 157.111 7.69517 157.111 6.97986C157.111 6.01209 157.426 5.22665 158.058 4.62355C158.703 4.00642 159.579 3.69785 160.687 3.69785H160.94C161.557 3.69785 162.09 3.78902 162.539 3.97136C162.988 4.13966 163.352 4.37109 163.633 4.66563C163.913 4.96017 164.11 5.27574 164.222 5.61236H164.032C164.201 5.26172 164.418 4.94614 164.685 4.66563C164.951 4.37109 165.316 4.13966 165.779 3.97136C166.242 3.78902 166.845 3.69785 167.588 3.69785H168.85C169.762 3.69785 170.54 3.75396 171.186 3.86616C171.831 3.96434 172.399 4.20278 172.89 4.58147C173.254 4.84796 173.542 5.18458 173.752 5.59132C173.963 5.99806 174.068 6.51702 174.068 7.14817C174.068 8.07387 173.773 8.83826 173.184 9.44137C172.595 10.0304 171.768 10.325 170.702 10.325ZM171.375 0.5C172.273 0.5 172.995 0.689347 173.542 1.06804C174.089 1.43271 174.503 1.95166 174.783 2.62489L172.637 3.15085C172.553 2.99657 172.455 2.86333 172.343 2.75112C172.23 2.63892 172.097 2.55476 171.943 2.49866C171.789 2.44256 171.606 2.4145 171.396 2.4145C171.045 2.4145 170.772 2.49866 170.575 2.66697C170.393 2.82125 170.302 3.02462 170.302 3.27708C170.302 3.54357 170.379 3.78902 170.533 4.01343C170.688 4.22382 170.898 4.41316 171.165 4.58147L169.019 5.38093C168.752 5.1425 168.507 4.82692 168.282 4.4342C168.072 4.02746 167.967 3.56461 167.967 3.04566C167.967 2.59684 168.086 2.18308 168.324 1.80439C168.563 1.41167 168.934 1.09609 169.439 0.857655C169.944 0.619218 170.589 0.5 171.375 0.5Z" fill="white"/>
<path d="M142.124 8.21875C143.092 8.21875 143.898 8.41511 144.544 8.80783C145.189 9.20055 145.708 9.7195 146.1 10.3647C146.493 11.0099 146.774 11.7252 146.942 12.5106C147.11 13.282 147.194 14.0604 147.194 14.8459C147.194 16.2625 147.019 17.5949 146.668 18.8432C146.332 20.0915 145.841 21.2556 145.196 22.3356C144.565 23.4296 143.807 24.4394 142.924 25.3651C142.04 26.3049 141.065 27.1744 139.999 27.9739L138.211 25.9963C139.052 25.3371 139.845 24.6288 140.588 23.8714C141.346 23.114 142.005 22.2865 142.566 21.3889C143.141 20.5052 143.59 19.5305 143.912 18.4645C144.235 17.3986 144.396 16.2134 144.396 14.909C144.396 14.4321 144.354 13.9272 144.27 13.3942C144.2 12.8612 144.074 12.3633 143.891 11.9005C143.723 11.4376 143.485 11.0589 143.176 10.7644C142.881 10.4699 142.503 10.3226 142.04 10.3226C141.745 10.3226 141.493 10.4068 141.283 10.5751C141.072 10.7434 140.967 10.9678 140.967 11.2483C140.967 11.5288 141.044 11.7532 141.198 11.9215C141.353 12.0758 141.542 12.181 141.766 12.2371C142.005 12.2932 142.229 12.3213 142.44 12.3213C143.015 12.3213 143.506 12.167 143.912 11.8584C144.319 11.5358 144.698 11.1922 145.048 10.8275L145.806 12.9945C145.315 13.3451 144.775 13.6677 144.186 13.9623C143.611 14.2568 142.896 14.4041 142.04 14.4041C140.974 14.4041 140.104 14.1516 139.431 13.6467C138.772 13.1418 138.442 12.3563 138.442 11.2904C138.442 10.7013 138.583 10.1753 138.863 9.71248C139.144 9.24964 139.557 8.88497 140.104 8.61848C140.651 8.35199 141.325 8.21875 142.124 8.21875Z" fill="white"/>
<path d="M131.149 27.2174C130.531 27.2174 130.027 27.1052 129.634 26.8808C129.227 26.6564 128.841 26.3058 128.477 25.8289H128.961C128.624 26.1795 128.308 26.453 128.014 26.6494C127.705 26.8598 127.383 27.0071 127.046 27.0912C126.709 27.1754 126.303 27.2174 125.826 27.2174C125.012 27.2174 124.367 27.0421 123.89 26.6915C123.413 26.3408 123.077 25.892 122.88 25.345C122.684 24.812 122.586 24.265 122.586 23.704C122.586 22.8905 122.754 22.1962 123.091 21.6212C123.413 21.0602 123.855 20.6254 124.416 20.3168C124.977 20.0223 125.608 19.875 126.31 19.875C127.179 19.875 127.839 20.0784 128.287 20.4851C128.722 20.9059 128.94 21.4178 128.94 22.0209C128.94 22.7222 128.715 23.2552 128.266 23.6199C127.803 23.9845 127.116 24.1669 126.205 24.1669C125.714 24.1669 125.272 24.0687 124.879 23.8723C124.472 23.69 124.122 23.4656 123.827 23.1991L124.395 21.7685C124.564 21.9929 124.788 22.2033 125.068 22.3996C125.335 22.596 125.644 22.6942 125.994 22.6942C126.303 22.6942 126.548 22.6381 126.731 22.5259C126.899 22.4277 126.983 22.2664 126.983 22.042C126.983 21.8877 126.934 21.7404 126.836 21.6002C126.724 21.4739 126.548 21.4108 126.31 21.4108C125.931 21.4108 125.587 21.5651 125.279 21.8737C124.97 22.1822 124.816 22.7292 124.816 23.5147V23.7461C124.816 24.0967 124.865 24.3913 124.963 24.6297C125.047 24.8681 125.195 25.0435 125.405 25.1557C125.601 25.2679 125.854 25.324 126.162 25.324C126.709 25.324 127.088 25.1977 127.299 24.9453C127.495 24.7068 127.614 24.4544 127.656 24.1879H129.697C129.767 24.6928 129.928 25.0084 130.181 25.1346C130.419 25.2609 130.693 25.324 131.001 25.324C131.366 25.324 131.633 25.2188 131.801 25.0084C131.955 24.798 132.032 24.5526 132.032 24.272C132.032 23.697 131.815 23.2131 131.38 22.8204C130.945 22.4277 130.454 22.077 129.907 21.7685L131.254 19.875C131.843 20.1695 132.376 20.5272 132.853 20.948C133.33 21.3687 133.708 21.8456 133.989 22.3786C134.255 22.9116 134.389 23.5076 134.389 24.1669C134.389 25.0785 134.115 25.8149 133.568 26.3759C133.007 26.9369 132.201 27.2174 131.149 27.2174Z" fill="white"/>
<path d="M130.729 18.9952C130.056 18.9952 129.46 18.897 128.941 18.7006C128.422 18.5043 127.896 18.1747 127.363 17.7118C126.844 17.2349 126.22 16.5898 125.49 15.7763C125.098 15.3275 124.789 15.0189 124.565 14.8506C124.34 14.6682 124.081 14.5771 123.786 14.5771C123.562 14.5771 123.337 14.6682 123.113 14.8506C122.903 15.0189 122.798 15.2854 122.798 15.65C122.798 16.0848 122.91 16.3864 123.134 16.5547C123.373 16.723 123.646 16.8072 123.955 16.8072C124.291 16.8072 124.628 16.6669 124.964 16.3864C125.301 16.1059 125.54 15.643 125.68 14.9979L127.426 16.8492C127.145 17.242 126.851 17.6066 126.542 17.9432C126.248 18.2658 125.876 18.5253 125.427 18.7217C124.978 18.904 124.375 18.9952 123.618 18.9952C122.791 18.9952 122.11 18.8409 121.577 18.5323C121.058 18.2097 120.673 17.796 120.42 17.291C120.182 16.7861 120.062 16.2532 120.062 15.6921C120.062 15.0049 120.224 14.4158 120.546 13.9249C120.869 13.42 121.311 13.0272 121.872 12.7467C122.433 12.4662 123.064 12.326 123.765 12.326C124.354 12.326 124.873 12.4031 125.322 12.5574C125.771 12.7117 126.206 12.9641 126.627 13.3148C127.061 13.6654 127.538 14.1283 128.057 14.7033C128.506 15.1942 128.871 15.5659 129.151 15.8184C129.446 16.0708 129.712 16.2391 129.951 16.3233C130.203 16.4074 130.491 16.4495 130.813 16.4495C131.206 16.4495 131.528 16.3093 131.781 16.0287C132.047 15.7482 132.181 15.3275 132.181 14.7664C132.181 14.1072 132.033 13.5252 131.739 13.0202C131.444 12.5153 131.059 12.0665 130.582 11.6738C130.119 11.267 129.621 10.8953 129.088 10.5587L130.729 8.22345C131.557 8.67227 132.3 9.20525 132.959 9.82238C133.618 10.4395 134.137 11.1408 134.516 11.9262C134.909 12.6976 135.105 13.5672 135.105 14.535C135.105 15.4326 134.937 16.2181 134.6 16.8913C134.263 17.5505 133.766 18.0695 133.106 18.4482C132.461 18.8128 131.669 18.9952 130.729 18.9952ZM133.885 21.6671C133.099 21.6671 132.468 21.5408 131.991 21.2884C131.528 21.0359 131.192 20.7063 130.981 20.2996C130.785 19.8928 130.687 19.458 130.687 18.9952C130.687 18.8128 130.701 18.6235 130.729 18.4271C130.771 18.2308 130.827 18.0414 130.897 17.8591H133.611C133.541 17.9713 133.485 18.0835 133.443 18.1957C133.401 18.2939 133.38 18.3921 133.38 18.4902C133.38 18.6445 133.415 18.7848 133.485 18.911C133.555 19.0372 133.653 19.1354 133.78 19.2056C133.906 19.2757 134.053 19.3107 134.221 19.3107C134.446 19.3107 134.642 19.2687 134.811 19.1845C134.993 19.1144 135.21 18.9882 135.463 18.8058L136.746 20.6572C136.297 20.9938 135.841 21.2463 135.379 21.4146C134.93 21.5829 134.432 21.6671 133.885 21.6671ZM124.291 10.4115C123.632 10.4115 123.05 10.3063 122.545 10.0959C122.04 9.87147 121.612 9.51381 121.262 9.02292C120.911 8.51799 120.638 7.83775 120.441 6.98218L123.302 6.24583C123.457 6.96114 123.625 7.47308 123.807 7.78164C123.99 8.07618 124.242 8.22345 124.565 8.22345C124.775 8.22345 124.986 8.14631 125.196 7.99203C125.406 7.83775 125.687 7.54321 126.037 7.10841L126.921 5.99337C127.412 5.37624 127.875 4.89236 128.31 4.54171C128.744 4.17705 129.214 3.91056 129.719 3.74225C130.238 3.57394 130.855 3.48278 131.571 3.46875L131.739 5.90922C131.262 5.93727 130.848 6.02142 130.498 6.16168C130.161 6.28791 129.852 6.47024 129.572 6.70868C129.291 6.94712 128.997 7.26269 128.688 7.65541L127.994 8.51799C127.728 8.85461 127.412 9.17019 127.047 9.46473C126.683 9.74524 126.269 9.97666 125.806 10.159C125.357 10.3273 124.852 10.4115 124.291 10.4115Z" fill="white"/>
<path d="M98.4492 13.7729C98.4492 12.735 98.6736 11.8444 99.1225 11.101C99.5713 10.3577 100.23 9.78261 101.1 9.37587C101.984 8.96912 103.057 8.76575 104.319 8.76575C105.623 8.76575 106.71 8.9551 107.58 9.33379C108.45 9.71248 109.102 10.2735 109.537 11.0169C109.985 11.7462 110.21 12.6579 110.21 13.7519C110.21 14.7758 109.992 15.6874 109.558 16.4869C109.123 17.2723 108.464 17.8895 107.58 18.3383C106.71 18.7731 105.623 18.9905 104.319 18.9905C103.029 18.9905 101.942 18.7661 101.058 18.3172C100.188 17.8684 99.5362 17.2513 99.1014 16.4658C98.6666 15.6804 98.4492 14.7828 98.4492 13.7729ZM101.374 13.4994C101.374 14.355 101.619 15.0633 102.11 15.6243C102.615 16.1713 103.351 16.4448 104.319 16.4448C104.978 16.4448 105.525 16.3256 105.96 16.0872C106.409 15.8347 106.738 15.4981 106.949 15.0773C107.173 14.6425 107.285 14.1516 107.285 13.6046C107.285 13.0436 107.173 12.5387 106.949 12.0898C106.738 11.641 106.416 11.2834 105.981 11.0169C105.546 10.7364 104.992 10.5961 104.319 10.5961C103.66 10.5961 103.106 10.7293 102.657 10.9958C102.222 11.2623 101.9 11.62 101.689 12.0688C101.479 12.5036 101.374 12.9805 101.374 13.4994ZM115.07 14.8669C114.424 14.8669 113.891 14.7687 113.471 14.5724C113.05 14.376 112.713 14.1306 112.461 13.836C112.222 13.5275 112.054 13.2049 111.956 12.8683C111.858 12.5316 111.809 12.2231 111.809 11.9426C111.809 11.3956 111.9 10.9327 112.082 10.554C112.279 10.1753 112.475 9.8317 112.671 9.52314L114.922 9.69144C114.614 9.98598 114.368 10.2735 114.186 10.554C114.004 10.8345 113.913 11.1922 113.913 11.627C113.913 11.9776 114.018 12.2652 114.228 12.4896C114.453 12.714 114.74 12.8262 115.091 12.8262C115.497 12.8262 115.799 12.728 115.995 12.5316C116.192 12.3213 116.29 12.0618 116.29 11.7532C116.29 11.3324 116.122 11.0379 115.785 10.8696C115.448 10.6873 114.993 10.5961 114.417 10.5961H98.6386V8.21875H112.608C113.464 8.21875 114.172 8.2468 114.733 8.3029C115.294 8.34498 115.771 8.42914 116.164 8.55537C116.57 8.6816 116.942 8.87796 117.279 9.14444C117.629 9.41093 117.91 9.74755 118.12 10.1543C118.331 10.561 118.436 11.073 118.436 11.6901C118.436 12.6018 118.141 13.3592 117.552 13.9623C116.963 14.5654 116.136 14.8669 115.07 14.8669Z" fill="white"/>
<path d="M84.7685 18.9905C83.8709 18.9905 83.1486 18.8432 82.6016 18.5487C82.0686 18.2401 81.6829 17.8474 81.4444 17.3705C81.22 16.8936 81.1078 16.3887 81.1078 15.8557C81.1078 15.1685 81.2621 14.6004 81.5707 14.1516C81.8792 13.7028 82.286 13.3732 82.7909 13.1628C83.3099 12.9384 83.8569 12.8262 84.4319 12.8262C85.1612 12.8262 85.7714 12.9524 86.2623 13.2049C86.7672 13.4433 87.1809 13.7308 87.5035 14.0675C87.8401 14.39 88.1066 14.6776 88.303 14.93L87.23 17.076C87.0757 16.6973 86.8864 16.3396 86.662 16.003C86.4516 15.6664 86.1991 15.3929 85.9046 15.1825C85.6101 14.9581 85.2594 14.8459 84.8527 14.8459C84.5441 14.8459 84.2636 14.93 84.0111 15.0983C83.7587 15.2667 83.6324 15.5331 83.6324 15.8978C83.6324 16.2204 83.7376 16.4729 83.948 16.6552C84.1584 16.8375 84.4389 16.9287 84.7896 16.9287C85.2524 16.9287 85.6171 16.8025 85.8836 16.55C86.1641 16.2975 86.3604 15.9609 86.4726 15.5402C86.5849 15.1194 86.641 14.6635 86.641 14.1726V13.7729C86.641 13.1838 86.5638 12.6649 86.4095 12.2161C86.2552 11.7672 86.0098 11.4166 85.6732 11.1641C85.3366 10.8977 84.8948 10.7644 84.3478 10.7644C84.0111 10.7644 83.7096 10.8345 83.4431 10.9748C83.1766 11.101 82.9522 11.2834 82.7699 11.5218C82.6016 11.7462 82.4683 12.0057 82.3701 12.3002H79.6562C79.586 12.0758 79.4598 11.8304 79.2775 11.5639C79.1092 11.2834 78.8567 11.0449 78.5201 10.8486C78.1835 10.6382 77.7206 10.533 77.1315 10.533C76.6406 10.533 76.2409 10.6171 75.9323 10.7854C75.6378 10.9397 75.4905 11.1992 75.4905 11.5639C75.4905 11.7041 75.5116 11.8374 75.5537 11.9636C75.6098 12.0758 75.7079 12.174 75.8482 12.2581C75.9744 12.3283 76.1357 12.3914 76.3321 12.4475C76.5425 12.4896 76.8651 12.5106 77.2999 12.5106H78.5411V14.6986H77.2367C76.8019 14.6986 76.4653 14.7196 76.2269 14.7617C75.9885 14.8038 75.7991 14.8809 75.6589 14.9932C75.5607 15.0773 75.4765 15.1825 75.4064 15.3087C75.3503 15.4209 75.3222 15.5542 75.3222 15.7085C75.3222 15.989 75.4134 16.2204 75.5957 16.4027C75.7921 16.5851 76.1077 16.6762 76.5425 16.6762C77.0053 16.6762 77.4191 16.557 77.7837 16.3186C78.1624 16.0801 78.5271 15.7646 78.8777 15.3718L80.6871 16.9708C80.3084 17.4056 79.8946 17.7772 79.4458 18.0858C79.011 18.3804 78.5271 18.6048 77.9941 18.759C77.4612 18.9133 76.851 18.9905 76.1638 18.9905C74.8454 18.9905 73.8495 18.717 73.1763 18.17C72.5171 17.6089 72.1875 16.9217 72.1875 16.1082C72.1875 15.7155 72.2646 15.3508 72.4189 15.0142C72.5732 14.6635 72.8116 14.362 73.1342 14.1095C73.4708 13.843 73.8916 13.6327 74.3965 13.4784L74.3755 13.7519C73.6742 13.5134 73.1623 13.1558 72.8397 12.6789C72.5171 12.202 72.3558 11.6761 72.3558 11.101C72.3558 10.2314 72.7345 9.53716 73.4919 9.01821C74.2493 8.48524 75.2521 8.21875 76.5004 8.21875C77.2438 8.21875 77.8749 8.28888 78.3939 8.42913C78.9268 8.55536 79.4177 8.76575 79.8666 9.06029C80.3154 9.3408 80.7712 9.72651 81.2341 10.2174L80.7922 10.2384C81.1148 9.81768 81.4515 9.46002 81.8021 9.16548C82.1668 8.85692 82.5735 8.62549 83.0223 8.47121C83.4852 8.3029 84.0322 8.21875 84.6633 8.21875C85.7153 8.21875 86.5919 8.45719 87.2931 8.93406C87.9944 9.39691 88.5204 10.0491 88.871 10.8906C89.2357 11.7182 89.418 12.6719 89.418 13.7519C89.418 14.8599 89.2497 15.8066 88.9131 16.5921C88.5765 17.3635 88.0646 17.9596 87.3773 18.3804C86.69 18.7871 85.8205 18.9905 84.7685 18.9905Z" fill="white"/>
<path d="M56.0082 8.74471C57.1864 8.74471 58.2033 8.92003 59.0588 9.27068C59.9144 9.62132 60.5736 10.1473 61.0364 10.8486C61.4993 11.5498 61.7307 12.4194 61.7307 13.4573C61.7307 14.3129 61.6536 15.0703 61.4993 15.7295C61.345 16.3887 61.1487 16.9778 60.9102 17.4967C60.6718 18.0017 60.4333 18.4715 60.1949 18.9063L57.3757 17.8123C57.6142 17.4897 57.8386 17.1321 58.049 16.7393C58.2734 16.3326 58.4557 15.8838 58.596 15.3929C58.7362 14.902 58.8064 14.369 58.8064 13.794C58.8064 13.247 58.7152 12.728 58.5329 12.2371C58.3505 11.7462 58.049 11.3535 57.6282 11.0589C57.2215 10.7504 56.6604 10.5961 55.9451 10.5961C55.3701 10.5961 54.8722 10.7293 54.4514 10.9958C54.0447 11.2623 53.7291 11.634 53.5047 12.1109C53.2803 12.5737 53.168 13.1137 53.168 13.7308C53.168 14.5443 53.3013 15.2947 53.5678 15.982C53.8343 16.6552 54.1779 17.2583 54.5987 17.7913L51.7585 18.9063C51.3237 18.163 50.959 17.3495 50.6645 16.4658C50.3699 15.5822 50.2227 14.6495 50.2227 13.6677C50.2227 12.742 50.4401 11.9075 50.8748 11.1641C51.3237 10.4208 51.9759 9.8317 52.8314 9.39691C53.687 8.96211 54.7459 8.74471 56.0082 8.74471ZM66.5906 14.8669C65.9454 14.8669 65.4125 14.7687 64.9917 14.5724C64.5709 14.376 64.2413 14.1306 64.0029 13.836C63.7644 13.5275 63.5961 13.2049 63.498 12.8683C63.3998 12.5316 63.3507 12.2231 63.3507 11.9426C63.3507 11.3956 63.4419 10.9327 63.6242 10.554C63.8205 10.1753 64.0169 9.8317 64.2133 9.52314L66.4644 9.69144C66.1558 9.98598 65.9104 10.2735 65.728 10.554C65.5457 10.8345 65.4545 11.1922 65.4545 11.627C65.4545 11.9776 65.5597 12.2652 65.7701 12.4896C65.9945 12.714 66.282 12.8262 66.6327 12.8262C67.0394 12.8262 67.341 12.728 67.5373 12.5316C67.7337 12.3213 67.8319 12.0618 67.8319 11.7532C67.8319 11.3324 67.6636 11.0379 67.327 10.8696C66.9903 10.6873 66.5415 10.5961 65.9805 10.5961H50.3278V8.21875H64.1501C65.0057 8.21875 65.714 8.2468 66.275 8.3029C66.8361 8.34498 67.3129 8.42914 67.7057 8.55537C68.1124 8.6816 68.4841 8.87796 68.8207 9.14444C69.1713 9.41093 69.4519 9.74755 69.6622 10.1543C69.8726 10.561 69.9778 11.073 69.9778 11.6901C69.9778 12.6018 69.6763 13.3592 69.0732 13.9623C68.4841 14.5654 67.6566 14.8669 66.5906 14.8669Z" fill="white"/>
<path d="M37.2227 14.3839C37.2227 13.5003 37.433 12.7078 37.8538 12.0065C38.2746 11.3053 38.8707 10.7512 39.6421 10.3445C40.4135 9.93775 41.3322 9.73438 42.3981 9.73438C43.4781 9.73438 44.3968 9.93775 45.1542 10.3445C45.9116 10.7512 46.4866 11.3053 46.8793 12.0065C47.2861 12.7078 47.4894 13.5003 47.4894 14.3839C47.4894 15.2675 47.2861 16.06 46.8793 16.7612C46.4726 17.4485 45.8835 17.9955 45.1121 18.4022C44.3547 18.795 43.436 18.9913 42.3561 18.9913C41.2901 18.9913 40.3714 18.7879 39.6 18.3812C38.8286 17.9745 38.2395 17.4275 37.8328 16.7402C37.426 16.0389 37.2227 15.2535 37.2227 14.3839ZM40.0418 14.3628C40.0418 15.008 40.2312 15.555 40.6099 16.0039C41.0026 16.4386 41.5846 16.656 42.3561 16.656C42.875 16.656 43.3028 16.5579 43.6394 16.3615C43.976 16.1511 44.2285 15.8706 44.3968 15.52C44.5791 15.1693 44.6703 14.7836 44.6703 14.3628C44.6703 13.7177 44.4669 13.1777 44.0602 12.7429C43.6675 12.2941 43.0994 12.0697 42.3561 12.0697C41.8652 12.0697 41.4444 12.1748 41.0937 12.3852C40.7571 12.5816 40.4977 12.8551 40.3153 13.2057C40.133 13.5423 40.0418 13.9281 40.0418 14.3628Z" fill="white"/>
<path d="M27.2391 18.9905C25.6402 18.9905 24.2867 18.731 23.1787 18.212C22.0706 17.6791 21.2291 16.9638 20.654 16.0661C20.093 15.1544 19.8125 14.1306 19.8125 12.9945C19.8125 12.0127 20.0018 11.1641 20.3805 10.4488C20.7733 9.73352 21.3203 9.18652 22.0215 8.80783C22.7228 8.41511 23.5293 8.21875 24.441 8.21875C25.2825 8.21875 25.9628 8.37303 26.4817 8.6816C27.0007 8.97614 27.3794 9.36184 27.6178 9.83872C27.8562 10.3016 27.9754 10.7854 27.9754 11.2904C27.9754 11.9356 27.8352 12.4896 27.5547 12.9524C27.2742 13.4153 26.8674 13.7659 26.3344 14.0043C25.8015 14.2428 25.1493 14.362 24.3779 14.362C23.8168 14.362 23.3189 14.2849 22.8841 14.1306C22.4493 13.9763 22.0706 13.7869 21.748 13.5625C21.4395 13.3381 21.18 13.1347 20.9696 12.9524L21.4535 10.9748C21.6218 11.1852 21.8182 11.3956 22.0426 11.6059C22.281 11.8163 22.5475 11.9917 22.842 12.1319C23.1366 12.2581 23.4522 12.3213 23.7888 12.3213C24.2236 12.3213 24.5742 12.2441 24.8407 12.0898C25.1072 11.9215 25.2404 11.648 25.2404 11.2693C25.2404 11.0309 25.1563 10.8135 24.988 10.6171C24.8197 10.4068 24.5742 10.3016 24.2516 10.3016C23.7607 10.3016 23.354 10.5119 23.0314 10.9327C22.7088 11.3395 22.5475 11.8304 22.5475 12.4054V13.2259C22.5475 13.5625 22.6176 13.9202 22.7579 14.2989C22.9122 14.6635 23.1646 15.0142 23.5153 15.3508C23.8799 15.6734 24.3708 15.9399 24.988 16.1503C25.6191 16.3466 26.4046 16.4448 27.3443 16.4448C28.6627 16.4448 29.7216 16.2204 30.5211 15.7716C31.3346 15.3087 31.7413 14.5864 31.7413 13.6046C31.7413 12.9454 31.538 12.3984 31.1312 11.9636C30.7385 11.5148 30.1214 11.0589 29.2798 10.5961L30.9208 8.21875C32.0289 8.76575 32.9265 9.48807 33.6138 10.3857C34.315 11.2693 34.6657 12.3563 34.6657 13.6467C34.6657 14.6425 34.3992 15.5472 33.8662 16.3607C33.3473 17.1601 32.5408 17.7983 31.4468 18.2752C30.3528 18.752 28.9502 18.9905 27.2391 18.9905Z" fill="white"/>
<path d="M15.6737 7.23033C15.6737 7.72123 15.5755 8.17707 15.3792 8.59784C15.1828 9.01861 14.9093 9.34821 14.5586 9.58665C14.18 9.85314 13.6891 10.0775 13.086 10.2599C12.4969 10.4282 11.8938 10.5123 11.2766 10.5123H7.84736V8.21915H11.2977C11.7044 8.21915 12.006 8.19811 12.2023 8.15603C12.4127 8.09993 12.574 8.02279 12.6862 7.92461C12.7704 7.84045 12.8335 7.74928 12.8756 7.65111C12.9176 7.5389 12.9387 7.41968 12.9387 7.29345C12.9387 7.12514 12.9176 6.98489 12.8756 6.87268C12.8335 6.74645 12.7634 6.64126 12.6652 6.5571C12.553 6.45892 12.3917 6.38879 12.1813 6.34672C11.9849 6.30464 11.6553 6.2836 11.1925 6.2836H3.09266V3.90625H10.919C11.9148 3.90625 12.6862 3.98339 13.2332 4.13767C13.7942 4.27793 14.2781 4.51637 14.6849 4.85298C14.9794 5.10545 15.2179 5.42804 15.4002 5.82076C15.5825 6.21347 15.6737 6.68333 15.6737 7.23033ZM8.28917 18.9909C6.35363 18.9909 4.77574 18.7665 3.55551 18.3176C2.33527 17.8688 1.43763 17.2377 0.862579 16.4242C0.287526 15.6107 0 14.671 0 13.605C0 12.7915 0.189347 12.0762 0.56804 11.4591C0.946733 10.8419 1.46568 10.3581 2.12489 10.0074C2.79812 9.65678 3.56252 9.48145 4.41809 9.48145C5.1895 9.48145 5.83468 9.62171 6.35363 9.90223C6.87258 10.1687 7.2653 10.5334 7.53179 10.9962C7.79827 11.4591 7.93152 11.978 7.93152 12.5531C7.93152 13.5349 7.61594 14.2782 6.98479 14.7832C6.35363 15.2741 5.49105 15.5195 4.39705 15.5195C3.89212 15.5195 3.41525 15.4424 2.96643 15.2881C2.53163 15.1198 2.13892 14.9164 1.78827 14.678C1.43763 14.4395 1.14309 14.2151 0.904656 14.0047L1.61997 12.3006C1.88645 12.6092 2.20904 12.9037 2.58774 13.1842C2.96643 13.4507 3.41525 13.584 3.9342 13.584C4.35497 13.584 4.6986 13.4998 4.96509 13.3315C5.2456 13.1632 5.38586 12.8967 5.38586 12.532C5.38586 12.2515 5.29469 12.0201 5.11236 11.8378C4.93002 11.6554 4.65652 11.5643 4.29186 11.5643C3.99732 11.5643 3.7168 11.6484 3.45032 11.8167C3.18383 11.971 2.96643 12.2094 2.79812 12.532C2.62981 12.8406 2.54566 13.2263 2.54566 13.6892V13.8154C2.54566 14.2362 2.65085 14.6149 2.86124 14.9515C3.08565 15.2881 3.42928 15.5756 3.89212 15.814C4.35497 16.0385 4.95106 16.2138 5.6804 16.34C6.40973 16.4522 7.28634 16.5083 8.31021 16.5083C9.39019 16.5083 10.3299 16.4592 11.1294 16.361C11.9288 16.2629 12.588 16.1086 13.107 15.8982C13.6259 15.6738 14.0116 15.3793 14.2641 15.0146C14.5306 14.6359 14.6638 14.173 14.6638 13.626V13.5629C14.6638 13.0019 14.4955 12.525 14.1589 12.1323C13.8223 11.7396 13.3454 11.5432 12.7283 11.5432C12.4197 11.5432 12.1322 11.6274 11.8657 11.7957C11.6133 11.95 11.487 12.2024 11.487 12.5531C11.487 12.9318 11.6062 13.1983 11.8447 13.3525C12.0831 13.4928 12.3777 13.5629 12.7283 13.5629C13.0789 13.5629 13.3735 13.4928 13.6119 13.3525C13.8504 13.2123 14.0537 13.0159 14.222 12.7635C14.3903 12.497 14.5236 12.1884 14.6218 11.8378L15.7789 13.3736C15.4843 13.7943 15.1828 14.173 14.8742 14.5097C14.5797 14.8322 14.222 15.0847 13.8013 15.267C13.3805 15.4494 12.8335 15.5405 12.1603 15.5405C11.6273 15.5405 11.1153 15.4564 10.6244 15.2881C10.1335 15.1058 9.73382 14.8182 9.42525 14.4255C9.13071 14.0188 8.98344 13.4788 8.98344 12.8055C8.98344 11.9921 9.285 11.3469 9.8881 10.87C10.4912 10.3791 11.3327 10.1337 12.4127 10.1337C12.6792 10.1337 12.9176 10.1407 13.128 10.1547C13.3384 10.1687 13.5348 10.1898 13.7171 10.2178C13.8994 10.2318 14.0748 10.2599 14.2431 10.302L11.8026 10.344C11.6203 10.2879 11.4239 10.2459 11.2135 10.2178C11.0172 10.1757 10.8138 10.1477 10.6034 10.1337C10.407 10.1056 10.1967 10.0916 9.97225 10.0916L10.8769 8.45057C11.7605 8.49265 12.581 8.63992 13.3384 8.89238C14.1098 9.13081 14.7831 9.47444 15.3581 9.92326C15.9332 10.3581 16.382 10.891 16.7046 11.5222C17.0412 12.1393 17.2095 12.8476 17.2095 13.6471C17.2095 14.5447 17.0412 15.3302 16.7046 16.0034C16.368 16.6626 15.842 17.2166 15.1267 17.6654C14.4114 18.1002 13.4857 18.4298 12.3496 18.6542C11.2276 18.8787 9.87407 18.9909 8.28917 18.9909Z" fill="white"/>
</svg>
