<svg width="328" height="29" viewBox="0 0 328 29" fill="none" xmlns="http://www.w3.org/2000/svg">
<path d="M323.722 27.2272C323.077 27.2272 322.551 27.122 322.144 26.9116C321.723 26.7153 321.31 26.3576 320.903 25.8387H321.387C320.91 26.3576 320.468 26.7153 320.061 26.9116C319.641 27.122 319.122 27.2272 318.505 27.2272C317.887 27.2272 317.375 27.0869 316.969 26.8064C316.562 26.5259 316.26 26.1542 316.064 25.6914C315.868 25.2285 315.77 24.7306 315.77 24.1977C315.77 23.314 316.008 22.5496 316.485 21.9045C316.948 21.2593 317.586 20.7614 318.399 20.4107C319.199 20.0601 320.103 19.8848 321.113 19.8848C322.151 19.8848 323.077 20.0671 323.89 20.4318C324.69 20.8105 325.321 21.3224 325.784 21.9676C326.247 22.6268 326.478 23.3842 326.478 24.2397C326.478 24.7447 326.394 25.2215 326.226 25.6704C326.043 26.1332 325.749 26.5049 325.342 26.7854C324.935 27.0799 324.395 27.2272 323.722 27.2272ZM323.217 25.3337C323.498 25.3337 323.722 25.2285 323.89 25.0182C324.059 24.8078 324.143 24.5273 324.143 24.1766C324.143 23.4333 323.855 22.8442 323.28 22.4094C322.705 21.9886 321.983 21.7782 321.113 21.7782C320.174 21.7782 319.437 21.9886 318.904 22.4094C318.357 22.8302 318.084 23.4052 318.084 24.1345C318.084 24.4992 318.168 24.7867 318.336 24.9971C318.505 25.2215 318.736 25.3337 319.03 25.3337C319.311 25.3337 319.542 25.2636 319.725 25.1234C319.893 24.9971 320.033 24.8148 320.146 24.5764H322.081C322.193 24.8428 322.334 25.0322 322.502 25.1444C322.67 25.2706 322.909 25.3337 323.217 25.3337ZM320.082 28.5947L320.167 26.8906H322.018L322.165 28.5947H320.082ZM319.998 23.3351C319.998 23.0265 320.103 22.7951 320.314 22.6408C320.524 22.5006 320.791 22.4304 321.113 22.4304C321.478 22.4304 321.758 22.5076 321.955 22.6618C322.151 22.8161 322.249 23.0405 322.249 23.3351C322.249 23.6577 322.151 23.8891 321.955 24.0294C321.744 24.1696 321.464 24.2397 321.113 24.2397C320.777 24.2397 320.51 24.1626 320.314 24.0083C320.103 23.8681 319.998 23.6436 319.998 23.3351Z" fill="white"/>
<path d="M322.799 19.0049C322.21 19.0049 321.642 18.9208 321.095 18.7525C320.562 18.5982 320.008 18.3107 319.433 17.8899C318.872 17.4691 318.255 16.88 317.581 16.1227C317.273 15.772 317.02 15.5125 316.824 15.3442C316.642 15.1619 316.487 15.0427 316.361 14.9866C316.235 14.9165 316.095 14.8814 315.94 14.8814C315.758 14.8814 315.59 14.9585 315.436 15.1128C315.281 15.2671 315.204 15.4775 315.204 15.744C315.204 16.0946 315.281 16.4663 315.436 16.859C315.604 17.2517 315.842 17.6725 316.151 18.1213L313.205 19.026C312.953 18.5351 312.736 18.0161 312.553 17.4691C312.385 16.9081 312.301 16.305 312.301 15.6598C312.301 15.0146 312.455 14.4466 312.764 13.9557C313.072 13.4508 313.493 13.0581 314.026 12.7775C314.573 12.483 315.19 12.3357 315.877 12.3357C316.522 12.3357 317.091 12.4339 317.581 12.6303C318.072 12.8266 318.528 13.1071 318.949 13.4718C319.384 13.8365 319.826 14.2713 320.274 14.7762C320.681 15.211 321.025 15.5546 321.305 15.8071C321.586 16.0455 321.852 16.2138 322.105 16.312C322.371 16.4102 322.659 16.4593 322.967 16.4593C323.36 16.4593 323.69 16.319 323.956 16.0385C324.223 15.758 324.356 15.3372 324.356 14.7762C324.356 14.117 324.209 13.5349 323.914 13.03C323.619 12.5251 323.234 12.0763 322.757 11.6835C322.28 11.2768 321.775 10.9051 321.242 10.5685L322.904 8.23322C323.732 8.68204 324.475 9.21501 325.134 9.83214C325.793 10.4493 326.312 11.1506 326.691 11.936C327.084 12.7074 327.28 13.577 327.28 14.5448C327.28 15.4424 327.105 16.2279 326.754 16.9011C326.418 17.5603 325.913 18.0792 325.239 18.4579C324.58 18.8226 323.767 19.0049 322.799 19.0049ZM316.53 10.4212C315.87 10.4212 315.288 10.316 314.783 10.1056C314.278 9.88124 313.851 9.52358 313.5 9.03268C313.149 8.52776 312.876 7.84751 312.679 6.99195L315.541 6.2556C315.695 6.97091 315.863 7.48284 316.046 7.79141C316.228 8.08595 316.48 8.23322 316.803 8.23322C317.013 8.23322 317.224 8.15608 317.434 8.00179C317.645 7.84751 317.925 7.55297 318.276 7.11818L319.159 6.00314C319.65 5.38601 320.113 4.90212 320.548 4.55148C320.983 4.18681 321.453 3.92032 321.957 3.75202C322.476 3.58371 323.094 3.49254 323.809 3.47852L323.977 5.91898C323.5 5.94703 323.087 6.03119 322.736 6.17144C322.399 6.29768 322.091 6.48001 321.81 6.71845C321.53 6.95688 321.235 7.27246 320.927 7.66518L320.232 8.52776C319.966 8.86437 319.65 9.17995 319.286 9.47449C318.921 9.755 318.507 9.98643 318.044 10.1688C317.595 10.3371 317.091 10.4212 316.53 10.4212Z" fill="white"/>
<path d="M299.576 14.3937C299.576 13.51 299.787 12.7176 300.207 12.0163C300.628 11.315 301.224 10.761 301.996 10.3543C302.767 9.94751 303.686 9.74414 304.752 9.74414C305.832 9.74414 306.75 9.94751 307.508 10.3543C308.265 10.761 308.84 11.315 309.233 12.0163C309.64 12.7176 309.843 13.51 309.843 14.3937C309.843 15.2773 309.64 16.0697 309.233 16.771C308.826 17.4583 308.237 18.0053 307.466 18.412C306.708 18.8047 305.79 19.0011 304.71 19.0011C303.644 19.0011 302.725 18.7977 301.954 18.391C301.182 17.9842 300.593 17.4372 300.186 16.75C299.78 16.0487 299.576 15.2632 299.576 14.3937ZM302.395 14.3726C302.395 15.0178 302.585 15.5648 302.963 16.0136C303.356 16.4484 303.938 16.6658 304.71 16.6658C305.229 16.6658 305.656 16.5676 305.993 16.3713C306.33 16.1609 306.582 15.8804 306.75 15.5297C306.933 15.1791 307.024 14.7934 307.024 14.3726C307.024 13.7274 306.82 13.1874 306.414 12.7526C306.021 12.3038 305.453 12.0794 304.71 12.0794C304.219 12.0794 303.798 12.1846 303.447 12.395C303.111 12.5914 302.851 12.8649 302.669 13.2155C302.486 13.5521 302.395 13.9378 302.395 14.3726Z" fill="white"/>
<path d="M292.5 19.0049C291.911 19.0049 291.343 18.9208 290.796 18.7525C290.263 18.5982 289.709 18.3107 289.134 17.8899C288.573 17.4691 287.956 16.88 287.283 16.1227C286.974 15.772 286.722 15.5125 286.525 15.3442C286.343 15.1619 286.189 15.0427 286.062 14.9866C285.936 14.9165 285.796 14.8814 285.642 14.8814C285.459 14.8814 285.291 14.9585 285.137 15.1128C284.982 15.2671 284.905 15.4775 284.905 15.744C284.905 16.0946 284.982 16.4663 285.137 16.859C285.305 17.2517 285.543 17.6725 285.852 18.1213L282.907 19.026C282.654 18.5351 282.437 18.0161 282.254 17.4691C282.086 16.9081 282.002 16.305 282.002 15.6598C282.002 15.0146 282.156 14.4466 282.465 13.9557C282.773 13.4508 283.194 13.0581 283.727 12.7775C284.274 12.483 284.891 12.3357 285.578 12.3357C286.224 12.3357 286.792 12.4339 287.283 12.6303C287.774 12.8266 288.229 13.1071 288.65 13.4718C289.085 13.8365 289.527 14.2713 289.976 14.7762C290.382 15.211 290.726 15.5546 291.006 15.8071C291.287 16.0455 291.553 16.2138 291.806 16.312C292.072 16.4102 292.36 16.4593 292.668 16.4593C293.061 16.4593 293.391 16.319 293.657 16.0385C293.924 15.758 294.057 15.3372 294.057 14.7762C294.057 14.117 293.91 13.5349 293.615 13.03C293.321 12.5251 292.935 12.0763 292.458 11.6835C291.981 11.2768 291.476 10.9051 290.943 10.5685L292.605 8.23322C293.433 8.68204 294.176 9.21501 294.835 9.83214C295.495 10.4493 296.014 11.1506 296.392 11.936C296.785 12.7074 296.981 13.577 296.981 14.5448C296.981 15.4424 296.806 16.2279 296.455 16.9011C296.119 17.5603 295.614 18.0792 294.941 18.4579C294.281 18.8226 293.468 19.0049 292.5 19.0049ZM286.231 10.4212C285.571 10.4212 284.989 10.316 284.484 10.1056C283.98 9.88124 283.552 9.52358 283.201 9.03268C282.85 8.52776 282.577 7.84751 282.381 6.99195L285.242 6.2556C285.396 6.97091 285.564 7.48284 285.747 7.79141C285.929 8.08595 286.182 8.23322 286.504 8.23322C286.715 8.23322 286.925 8.15608 287.135 8.00179C287.346 7.84751 287.626 7.55297 287.977 7.11818L288.861 6.00314C289.351 5.38601 289.814 4.90212 290.249 4.55148C290.684 4.18681 291.154 3.92032 291.659 3.75202C292.178 3.58371 292.795 3.49254 293.51 3.47852L293.678 5.91898C293.201 5.94703 292.788 6.03119 292.437 6.17144C292.1 6.29768 291.792 6.48001 291.511 6.71845C291.231 6.95688 290.936 7.27246 290.628 7.66518L289.933 8.52776C289.667 8.86437 289.351 9.17995 288.987 9.47449C288.622 9.755 288.208 9.98643 287.745 10.1688C287.297 10.3371 286.792 10.4212 286.231 10.4212Z" fill="white"/>
<path d="M260.685 19.0002C259.787 19.0002 259.065 18.853 258.518 18.5584C257.985 18.2499 257.599 17.8571 257.36 17.3803C257.136 16.9034 257.024 16.3985 257.024 15.8655C257.024 15.1782 257.178 14.6102 257.487 14.1614C257.795 13.7126 258.202 13.383 258.707 13.1726C259.226 12.9482 259.773 12.8359 260.348 12.8359C261.077 12.8359 261.687 12.9622 262.178 13.2146C262.683 13.4531 263.097 13.7406 263.42 14.0772C263.756 14.3998 264.023 14.6873 264.219 14.9398L263.146 17.0857C262.992 16.707 262.802 16.3494 262.578 16.0128C262.368 15.6761 262.115 15.4026 261.821 15.1923C261.526 14.9679 261.175 14.8556 260.769 14.8556C260.46 14.8556 260.18 14.9398 259.927 15.1081C259.675 15.2764 259.548 15.5429 259.548 15.9076C259.548 16.2302 259.654 16.4826 259.864 16.665C260.074 16.8473 260.355 16.9385 260.706 16.9385C261.168 16.9385 261.533 16.8122 261.8 16.5598C262.08 16.3073 262.276 15.9707 262.389 15.5499C262.501 15.1291 262.557 14.6733 262.557 14.1824V13.6565C262.557 13.0814 262.48 12.5624 262.326 12.0996C262.171 11.6368 261.926 11.2721 261.589 11.0056C261.267 10.7391 260.832 10.6059 260.285 10.6059C259.948 10.6059 259.64 10.683 259.359 10.8373C259.093 10.9775 258.868 11.1739 258.686 11.4264C258.504 11.6788 258.37 11.9734 258.286 12.31H255.572C255.502 12.0856 255.376 11.8401 255.193 11.5736C255.025 11.2931 254.773 11.0547 254.436 10.8583C254.099 10.6479 253.637 10.5428 253.048 10.5428C252.557 10.5428 252.157 10.6269 251.848 10.7952C251.554 10.9495 251.407 11.209 251.407 11.5736C251.407 11.7139 251.428 11.8471 251.47 11.9734C251.526 12.0856 251.624 12.1838 251.764 12.2679C251.89 12.338 252.052 12.4012 252.248 12.4573C252.458 12.4993 252.781 12.5204 253.216 12.5204H254.457V14.7084H253.153C252.718 14.7084 252.381 14.7294 252.143 14.7715C251.904 14.8136 251.715 14.8907 251.575 15.0029C251.477 15.0871 251.393 15.1923 251.322 15.3185C251.266 15.4307 251.238 15.5639 251.238 15.7182C251.238 15.9987 251.329 16.2302 251.512 16.4125C251.708 16.5948 252.024 16.686 252.458 16.686C252.921 16.686 253.335 16.5668 253.7 16.3283C254.078 16.0899 254.443 15.7743 254.794 15.3816L256.603 16.9805C256.224 17.4153 255.811 17.787 255.362 18.0956C254.927 18.3901 254.443 18.6145 253.91 18.7688C253.377 18.9231 252.767 19.0002 252.08 19.0002C250.761 19.0002 249.766 18.7267 249.092 18.1797C248.433 17.6187 248.104 16.9314 248.104 16.118C248.104 15.7252 248.181 15.3606 248.335 15.024C248.489 14.6733 248.728 14.3718 249.05 14.1193C249.387 13.8528 249.808 13.6424 250.313 13.4881L250.292 13.7616C249.604 13.5092 249.092 13.1796 248.756 12.7728C248.433 12.3521 248.272 11.8542 248.272 11.2791C248.272 10.7601 248.454 10.3183 248.819 9.95367C249.198 9.57498 249.716 9.28044 250.376 9.07006C251.035 8.85967 251.792 8.75448 252.648 8.75448C253.405 8.75448 254.036 8.84564 254.541 9.02798C255.06 9.19629 255.516 9.44875 255.909 9.78536C256.316 10.108 256.736 10.5077 257.171 10.9846L256.687 11.0056C257.024 10.5287 257.388 10.143 257.781 9.84848C258.174 9.53992 258.595 9.31551 259.044 9.17525C259.506 9.02097 259.99 8.94382 260.495 8.94382C261.561 8.94382 262.452 9.13317 263.167 9.51186C263.882 9.89056 264.422 10.4446 264.787 11.1739C265.152 11.9032 265.334 12.7939 265.334 13.8458C265.334 14.8837 265.166 15.7954 264.829 16.5808C264.493 17.3522 263.981 17.9483 263.293 18.3691C262.606 18.7898 261.736 19.0002 260.685 19.0002ZM270.215 14.8767C269.57 14.8767 269.037 14.7785 268.616 14.5821C268.195 14.3858 267.866 14.1403 267.627 13.8458C267.389 13.5372 267.22 13.2146 267.122 12.878C267.024 12.5414 266.975 12.2328 266.975 11.9523C266.975 11.3773 267.066 10.9074 267.249 10.5428C267.431 10.1781 267.62 9.84147 267.817 9.5329L270.089 9.70121C269.78 9.99575 269.535 10.2833 269.352 10.5638C269.17 10.8443 269.079 11.202 269.079 11.6368C269.079 11.9874 269.184 12.2749 269.394 12.4993C269.619 12.7237 269.899 12.8359 270.236 12.8359C270.643 12.8359 270.944 12.7378 271.141 12.5414C271.351 12.331 271.456 12.0715 271.456 11.763C271.456 11.3422 271.281 11.0477 270.93 10.8794C270.594 10.697 270.138 10.6059 269.563 10.6059H255.257L253.826 10.0378L251.238 10.6059H248.335V8.22852H267.753C268.609 8.22852 269.317 8.25657 269.878 8.31267C270.453 8.35475 270.937 8.4389 271.33 8.56513C271.737 8.69136 272.108 8.88772 272.445 9.15421C272.796 9.4207 273.076 9.75731 273.287 10.1641C273.497 10.5708 273.602 11.0827 273.602 11.6999C273.602 12.6115 273.301 13.3689 272.698 13.972C272.108 14.5751 271.281 14.8767 270.215 14.8767Z" fill="white"/>
<path d="M233.446 19.0002C232.773 19.0002 232.176 18.9021 231.658 18.7057C231.139 18.5093 230.613 18.1797 230.08 17.7169C229.561 17.24 228.937 16.5948 228.207 15.7813C227.815 15.3325 227.506 15.024 227.282 14.8556C227.057 14.6733 226.798 14.5821 226.503 14.5821C226.279 14.5821 226.054 14.6733 225.83 14.8556C225.619 15.024 225.514 15.2904 225.514 15.6551C225.514 16.0899 225.626 16.3915 225.851 16.5598C226.089 16.7281 226.363 16.8122 226.671 16.8122C227.008 16.8122 227.345 16.672 227.681 16.3915C228.018 16.1109 228.256 15.6481 228.397 15.0029L230.143 16.8543C229.862 17.247 229.568 17.6117 229.259 17.9483C228.965 18.2709 228.593 18.5304 228.144 18.7267C227.695 18.9091 227.092 19.0002 226.335 19.0002C225.507 19.0002 224.827 18.8459 224.294 18.5374C223.775 18.2148 223.389 17.801 223.137 17.2961C222.899 16.7772 222.779 16.2372 222.779 15.6761C222.779 15.0029 222.941 14.4208 223.263 13.93C223.586 13.425 224.028 13.0323 224.589 12.7518C225.15 12.4713 225.781 12.331 226.482 12.331C227.071 12.331 227.59 12.4082 228.039 12.5624C228.488 12.7167 228.923 12.9692 229.343 13.3198C229.778 13.6705 230.255 14.1333 230.774 14.7084C231.223 15.1993 231.594 15.571 231.889 15.8234C232.184 16.0759 232.45 16.2442 232.688 16.3283C232.927 16.4125 233.172 16.4546 233.425 16.4546C233.874 16.4546 234.231 16.3143 234.498 16.0338C234.764 15.7533 234.897 15.3045 234.897 14.6873C234.897 13.972 234.708 13.3198 234.329 12.7308C233.951 12.1417 233.432 11.6368 232.773 11.216C232.113 10.7952 231.363 10.4937 230.521 10.3113L235.55 10.2272C236.013 10.5357 236.412 10.9074 236.749 11.3422C237.099 11.763 237.366 12.2399 237.548 12.7728C237.731 13.2918 237.822 13.8598 237.822 14.477C237.822 15.3886 237.654 16.1881 237.317 16.8753C236.98 17.5486 236.482 18.0745 235.823 18.4532C235.178 18.8179 234.386 19.0002 233.446 19.0002ZM242.513 14.8767C241.868 14.8767 241.335 14.7785 240.914 14.5821C240.494 14.3858 240.164 14.1403 239.926 13.8458C239.687 13.5372 239.519 13.2146 239.421 12.878C239.323 12.5414 239.273 12.2328 239.273 11.9523C239.273 11.3773 239.365 10.9074 239.547 10.5428C239.729 10.1781 239.919 9.84147 240.115 9.5329L242.366 9.70121C242.072 9.99575 241.833 10.2833 241.651 10.5638C241.469 10.8443 241.377 11.202 241.377 11.6368C241.377 11.9874 241.483 12.2749 241.693 12.4993C241.917 12.7237 242.198 12.8359 242.534 12.8359C242.941 12.8359 243.243 12.7378 243.439 12.5414C243.635 12.331 243.734 12.0715 243.734 11.763C243.734 11.3422 243.565 11.0477 243.229 10.8794C242.892 10.697 242.443 10.6059 241.882 10.6059H225.009V8.22852H240.052C240.907 8.22852 241.616 8.25657 242.177 8.31267C242.738 8.35475 243.215 8.4389 243.607 8.56513C244.014 8.69136 244.386 8.88772 244.722 9.15421C245.087 9.4207 245.368 9.75731 245.564 10.1641C245.774 10.5708 245.88 11.0827 245.88 11.6999C245.88 12.6115 245.585 13.3689 244.996 13.972C244.407 14.5751 243.579 14.8767 242.513 14.8767Z" fill="white"/>
<path d="M208.498 13.7874C208.498 12.7495 208.722 11.8168 209.171 10.9893C209.62 10.1477 210.279 9.4815 211.149 8.9906C212.033 8.48568 213.112 8.23322 214.389 8.23322C215.679 8.23322 216.759 8.47166 217.629 8.94853C218.498 9.41138 219.151 10.0566 219.585 10.8841C220.034 11.7116 220.259 12.6723 220.259 13.7663C220.259 14.7902 220.041 15.7019 219.606 16.5014C219.172 17.2868 218.519 17.9039 217.65 18.3527C216.78 18.7875 215.693 19.0049 214.389 19.0049C213.084 19.0049 211.99 18.7805 211.107 18.3317C210.237 17.8829 209.585 17.2658 209.15 16.4803C208.715 15.6949 208.498 14.7972 208.498 13.7874ZM211.422 13.5139C211.422 14.3695 211.668 15.0777 212.159 15.6388C212.664 16.1858 213.407 16.4593 214.389 16.4593C215.048 16.4593 215.595 16.3401 216.03 16.1016C216.465 15.8492 216.794 15.5125 217.019 15.0918C217.243 14.657 217.355 14.1661 217.355 13.6191C217.355 13.0581 217.243 12.5531 217.019 12.1043C216.808 11.6555 216.479 11.2978 216.03 11.0313C215.595 10.7508 215.048 10.6106 214.389 10.6106C213.716 10.6106 213.162 10.7438 212.727 11.0103C212.292 11.2768 211.962 11.6344 211.738 12.0833C211.528 12.5181 211.422 12.9949 211.422 13.5139ZM213.505 10.4212C212.846 10.4212 212.264 10.316 211.759 10.1056C211.254 9.88124 210.826 9.52358 210.476 9.03268C210.125 8.52776 209.852 7.84751 209.655 6.99195L212.516 6.2556C212.671 6.97091 212.839 7.48284 213.021 7.79141C213.204 8.08595 213.456 8.23322 213.779 8.23322C213.989 8.23322 214.199 8.15608 214.41 8.00179C214.62 7.84751 214.901 7.55297 215.251 7.11818L216.135 6.00314C216.626 5.38601 217.089 4.90212 217.524 4.55148C217.958 4.18681 218.428 3.92032 218.933 3.75202C219.452 3.58371 220.069 3.49254 220.785 3.47852L220.953 5.91898C220.476 5.94703 220.062 6.03119 219.712 6.17144C219.375 6.29768 219.066 6.48001 218.786 6.71845C218.505 6.95688 218.211 7.27246 217.902 7.66518L217.208 8.52776C216.941 8.86437 216.626 9.17995 216.261 9.47449C215.897 9.755 215.483 9.98643 215.02 10.1688C214.571 10.3371 214.066 10.4212 213.505 10.4212Z" fill="white"/>
<path d="M187.276 27.2272C186.393 27.2272 185.713 27.129 185.236 26.9327C184.759 26.7363 184.338 26.4698 183.973 26.1332H184.1C183.707 26.568 183.307 26.8555 182.9 26.9958C182.48 27.1501 181.996 27.2272 181.449 27.2272C180.916 27.2272 180.446 27.101 180.039 26.8485C179.632 26.6101 179.317 26.2594 179.092 25.7966C178.868 25.3337 178.756 24.7797 178.756 24.1345C178.756 23.293 178.987 22.5496 179.45 21.9045C179.899 21.2733 180.551 20.7754 181.407 20.4107C182.262 20.0601 183.272 19.8848 184.436 19.8848C185.404 19.8848 186.246 19.9479 186.961 20.0741C187.662 20.2003 188.406 20.3967 189.191 20.6632L188.37 22.5567C187.823 22.3463 187.347 22.185 186.94 22.0728C186.519 21.9606 186.119 21.8834 185.741 21.8413C185.348 21.7993 184.92 21.7782 184.457 21.7782C183.672 21.7782 183.027 21.8834 182.522 22.0938C182.017 22.3182 181.652 22.6057 181.428 22.9564C181.189 23.307 181.07 23.6997 181.07 24.1345C181.07 24.4992 181.154 24.7867 181.323 24.9971C181.477 25.2215 181.708 25.3337 182.017 25.3337C182.297 25.3337 182.536 25.2285 182.732 25.0182C182.914 24.8218 183.027 24.5483 183.069 24.1977H185.088C185.117 24.4361 185.173 24.6465 185.257 24.8288C185.341 25.0111 185.474 25.1514 185.656 25.2496C185.839 25.3478 186.091 25.3969 186.414 25.3969C186.568 25.4109 186.736 25.4249 186.919 25.4389C187.087 25.467 187.269 25.481 187.466 25.481C187.746 25.481 187.971 25.4319 188.139 25.3337C188.293 25.2496 188.37 25.1093 188.37 24.913C188.37 24.7727 188.321 24.6605 188.223 24.5764C188.111 24.4922 187.957 24.4501 187.76 24.4501C187.578 24.4501 187.431 24.5062 187.319 24.6184C187.192 24.7306 187.129 24.906 187.129 25.1444C187.129 25.3267 187.178 25.488 187.276 25.6283C187.361 25.7826 187.48 25.9228 187.634 26.049L186.077 26.4488C185.909 26.2103 185.79 25.9368 185.72 25.6283C185.635 25.3197 185.593 25.0743 185.593 24.8919C185.593 24.2748 185.79 23.7699 186.182 23.3772C186.561 22.9844 187.115 22.7881 187.845 22.7881C188.546 22.7881 189.114 22.9844 189.549 23.3772C189.969 23.7839 190.18 24.2818 190.18 24.8709C190.18 25.2636 190.096 25.6353 189.927 25.9859C189.745 26.3506 189.443 26.6451 189.023 26.8696C188.602 27.108 188.02 27.2272 187.276 27.2272Z" fill="white"/>
<path d="M193.856 19.0002C192.79 19.0002 191.892 18.7548 191.163 18.2639C190.434 17.773 189.739 17.1559 189.08 16.4125L190.7 14.6032C190.995 14.9398 191.303 15.2484 191.626 15.5289C191.934 15.8094 192.271 16.0338 192.636 16.2021C193.014 16.3704 193.421 16.4546 193.856 16.4546C194.347 16.4546 194.725 16.3143 194.992 16.0338C195.258 15.7533 195.392 15.3325 195.392 14.7715C195.392 14.1123 195.244 13.5302 194.95 13.0253C194.655 12.5204 194.27 12.0715 193.793 11.6788C193.316 11.2721 192.811 10.9004 192.278 10.5638L193.94 8.22852C194.767 8.67734 195.511 9.21031 196.17 9.82744C196.829 10.4446 197.348 11.1459 197.727 11.9313C198.12 12.7027 198.316 13.5723 198.316 14.5401C198.316 15.8865 197.937 16.9665 197.18 17.78C196.423 18.5935 195.314 19.0002 193.856 19.0002Z" fill="white"/>
<path d="M185.869 19.0049C185.069 19.0049 184.389 18.9278 183.828 18.7735C183.267 18.6333 182.79 18.4299 182.397 18.1634C182.005 17.8829 181.654 17.5603 181.346 17.1956L181.493 17.2167C181.156 17.7076 180.799 18.0863 180.42 18.3527C180.055 18.6052 179.662 18.7735 179.242 18.8577C178.835 18.9558 178.379 19.0049 177.874 19.0049C176.766 19.0049 175.869 18.6122 175.181 17.8268C174.494 17.0413 174.15 15.9263 174.15 14.4817C174.15 13.1352 174.48 11.9991 175.139 11.0734C175.798 10.1337 176.731 9.4254 177.937 8.94853C179.144 8.47166 180.553 8.23322 182.166 8.23322C183.022 8.23322 183.8 8.28231 184.501 8.38049C185.203 8.47867 185.883 8.62594 186.542 8.8223C187.201 9.00463 187.896 9.24307 188.625 9.53761L187.342 11.8939C186.584 11.5573 185.918 11.2978 185.343 11.1155C184.782 10.9332 184.242 10.8069 183.723 10.7368C183.204 10.6526 182.636 10.6106 182.019 10.6106C180.869 10.6106 179.929 10.7789 179.2 11.1155C178.47 11.4381 177.93 11.8799 177.58 12.4409C177.243 12.9879 177.075 13.598 177.075 14.2713C177.075 15.0567 177.201 15.6177 177.453 15.9544C177.706 16.291 178.057 16.4593 178.505 16.4593C178.968 16.4593 179.34 16.291 179.62 15.9544C179.915 15.6177 180.09 15.1479 180.146 14.5448H182.734C182.776 15.0918 182.937 15.5336 183.218 15.8702C183.513 16.2068 184.003 16.4242 184.691 16.5224C184.901 16.5645 185.133 16.5995 185.385 16.6276C185.651 16.6416 185.932 16.6486 186.227 16.6486C186.619 16.6486 186.928 16.5715 187.152 16.4172C187.377 16.2629 187.489 16.0105 187.489 15.6598C187.489 15.4214 187.405 15.225 187.236 15.0707C187.082 14.9165 186.865 14.8393 186.584 14.8393C186.318 14.8393 186.086 14.9165 185.89 15.0707C185.708 15.225 185.616 15.4775 185.616 15.8281C185.616 16.0806 185.68 16.319 185.806 16.5434C185.932 16.7538 186.107 16.9432 186.332 17.1115L184.291 17.7006C184.053 17.3639 183.87 16.9782 183.744 16.5434C183.632 16.0946 183.576 15.737 183.576 15.4705C183.576 14.6149 183.842 13.9276 184.375 13.4087C184.922 12.8757 185.687 12.6092 186.668 12.6092C187.313 12.6092 187.875 12.7425 188.351 13.009C188.828 13.2754 189.2 13.6401 189.466 14.103C189.733 14.5518 189.866 15.0567 189.866 15.6177C189.866 16.0385 189.796 16.4523 189.656 16.859C189.53 17.2658 189.312 17.6304 189.004 17.953C188.709 18.2756 188.302 18.5351 187.783 18.7314C187.264 18.9138 186.626 19.0049 185.869 19.0049ZM181.409 10.4212C180.749 10.4212 180.167 10.316 179.662 10.1056C179.158 9.88124 178.73 9.52358 178.379 9.03268C178.028 8.52776 177.755 7.84751 177.559 6.99195L180.42 6.2556C180.574 6.97091 180.742 7.48284 180.925 7.79141C181.107 8.08595 181.36 8.23322 181.682 8.23322C181.893 8.23322 182.103 8.15608 182.313 8.00179C182.524 7.84751 182.804 7.55297 183.155 7.11818L184.038 6.00314C184.529 5.38601 184.992 4.90212 185.427 4.55148C185.862 4.18681 186.332 3.92032 186.837 3.75202C187.356 3.58371 187.973 3.49254 188.688 3.47852L188.856 5.91898C188.379 5.94703 187.966 6.03119 187.615 6.17144C187.278 6.29768 186.97 6.48001 186.689 6.71845C186.409 6.95688 186.114 7.27246 185.806 7.66518L185.111 8.52776C184.845 8.86437 184.529 9.17995 184.165 9.47449C183.8 9.755 183.386 9.98643 182.923 10.1688C182.475 10.3371 181.97 10.4212 181.409 10.4212Z" fill="white"/>
<path d="M156.162 13.7851C156.162 12.7472 156.387 11.8145 156.835 10.9869C157.284 10.1454 157.943 9.47919 158.813 8.98829C159.697 8.48336 160.777 8.2309 162.053 8.2309C163.343 8.2309 164.423 8.46934 165.293 8.94621C166.162 9.40906 166.815 10.0542 167.249 10.8818C167.698 11.7093 167.923 12.67 167.923 13.764C167.923 14.7879 167.705 15.6996 167.27 16.499C166.836 17.2845 166.183 17.9016 165.314 18.3504C164.444 18.7852 163.357 19.0026 162.053 19.0026C160.749 19.0026 159.655 18.7782 158.771 18.3294C157.901 17.8806 157.249 17.2634 156.814 16.478C156.38 15.6926 156.162 14.7949 156.162 13.7851ZM159.086 13.5116C159.086 14.3671 159.332 15.0754 159.823 15.6365C160.328 16.1835 161.071 16.457 162.053 16.457C162.712 16.457 163.259 16.3377 163.694 16.0993C164.129 15.8468 164.458 15.5102 164.683 15.0895C164.907 14.6547 165.019 14.1638 165.019 13.6168C165.019 13.0557 164.907 12.5508 164.683 12.102C164.472 11.6532 164.143 11.2955 163.694 11.029C163.259 10.7485 162.712 10.6083 162.053 10.6083C161.38 10.6083 160.826 10.7415 160.391 11.008C159.956 11.2745 159.626 11.6321 159.402 12.0809C159.192 12.5157 159.086 12.9926 159.086 13.5116ZM170.7 10.3348C170.055 10.3348 169.522 10.2366 169.101 10.0402C168.68 9.84385 168.343 9.5984 168.091 9.30386C167.853 8.9953 167.684 8.67271 167.586 8.33609C167.488 7.99948 167.439 7.69792 167.439 7.43144C167.439 6.85638 167.53 6.38652 167.712 6.02186C167.909 5.64316 168.105 5.30655 168.301 5.01201L170.552 5.15928C170.244 5.45382 169.998 5.74134 169.816 6.02186C169.634 6.30237 169.543 6.66002 169.543 7.09482C169.543 7.44546 169.648 7.73299 169.858 7.9574C170.083 8.18181 170.37 8.29402 170.721 8.29402C171.142 8.29402 171.443 8.18882 171.625 7.97844C171.822 7.76805 171.92 7.51559 171.92 7.22105C171.92 6.81431 171.752 6.51977 171.415 6.33743C171.078 6.1551 170.623 6.06393 170.048 6.06393H167.039C166.562 6.06393 166.19 6.18315 165.924 6.42159C165.657 6.66002 165.489 7.03872 165.419 7.55767H162.852C162.754 7.09482 162.572 6.73015 162.305 6.46366C162.053 6.19718 161.646 6.06393 161.085 6.06393H160.854C160.545 6.06393 160.279 6.16211 160.054 6.35847C159.83 6.55483 159.718 6.83534 159.718 7.20001C159.718 7.42442 159.767 7.61377 159.865 7.76805C159.977 7.92234 160.131 8.04155 160.328 8.12571C160.524 8.19584 160.749 8.2309 161.001 8.2309H161.716V10.5241H161.169C160.356 10.5241 159.64 10.3838 159.023 10.1033C158.42 9.80879 157.95 9.39503 157.614 8.86206C157.277 8.32908 157.109 7.70494 157.109 6.98963C157.109 6.02186 157.424 5.23642 158.056 4.63331C158.701 4.01618 159.577 3.70762 160.685 3.70762H160.938C161.555 3.70762 162.088 3.79879 162.537 3.98112C162.986 4.14943 163.35 4.38085 163.631 4.67539C163.911 4.96993 164.108 5.28551 164.22 5.62212H164.031C164.199 5.27148 164.416 4.9559 164.683 4.67539C164.949 4.38085 165.314 4.14943 165.777 3.98112C166.24 3.79879 166.843 3.70762 167.586 3.70762H168.848C169.76 3.70762 170.538 3.76372 171.184 3.87593C171.829 3.97411 172.397 4.21254 172.888 4.59124C173.252 4.85772 173.54 5.19434 173.75 5.60109C173.961 6.00783 174.066 6.52678 174.066 7.15794C174.066 8.08363 173.771 8.84803 173.182 9.45113C172.593 10.0402 171.766 10.3348 170.7 10.3348ZM171.373 0.509766C172.271 0.509766 172.993 0.699112 173.54 1.07781C174.087 1.44247 174.501 1.96142 174.781 2.63466L172.635 3.16062C172.551 3.00634 172.453 2.87309 172.341 2.76089C172.229 2.64868 172.095 2.56453 171.941 2.50842C171.787 2.45232 171.604 2.42427 171.394 2.42427C171.043 2.42427 170.77 2.50842 170.573 2.67673C170.391 2.83101 170.3 3.03439 170.3 3.28685C170.3 3.55334 170.377 3.79879 170.531 4.0232C170.686 4.23358 170.896 4.42293 171.163 4.59124L169.017 5.3907C168.75 5.15226 168.505 4.83669 168.28 4.44397C168.07 4.03722 167.965 3.57438 167.965 3.05543C167.965 2.6066 168.084 2.19285 168.322 1.81415C168.561 1.42143 168.932 1.10586 169.437 0.867421C169.942 0.628984 170.588 0.509766 171.373 0.509766Z" fill="white"/>
<path d="M142.126 8.22852C143.094 8.22852 143.9 8.42487 144.545 8.81759C145.191 9.21031 145.71 9.72926 146.102 10.3744C146.495 11.0196 146.776 11.7349 146.944 12.5204C147.112 13.2918 147.196 14.0702 147.196 14.8556C147.196 16.2722 147.021 17.6047 146.67 18.853C146.334 20.1012 145.843 21.2654 145.198 22.3454C144.567 23.4394 143.809 24.4492 142.926 25.3749C142.042 26.3146 141.067 27.1842 140.001 27.9837L138.213 26.0061C139.054 25.3468 139.847 24.6386 140.59 23.8812C141.348 23.1238 142.007 22.2963 142.568 21.3986C143.143 20.515 143.592 19.5402 143.914 18.4743C144.237 17.4083 144.398 16.2231 144.398 14.9188C144.398 14.4419 144.356 13.937 144.272 13.404C144.202 12.871 144.076 12.3731 143.893 11.9103C143.725 11.4474 143.487 11.0687 143.178 10.7742C142.883 10.4796 142.505 10.3324 142.042 10.3324C141.747 10.3324 141.495 10.4165 141.285 10.5848C141.074 10.7531 140.969 10.9775 140.969 11.2581C140.969 11.5386 141.046 11.763 141.2 11.9313C141.355 12.0856 141.544 12.1908 141.768 12.2469C142.007 12.303 142.231 12.331 142.442 12.331C143.017 12.331 143.508 12.1767 143.914 11.8682C144.321 11.5456 144.7 11.202 145.05 10.8373L145.808 13.0043C145.317 13.3549 144.777 13.6775 144.188 13.972C143.613 14.2666 142.897 14.4138 142.042 14.4138C140.976 14.4138 140.106 14.1614 139.433 13.6565C138.774 13.1515 138.444 12.3661 138.444 11.3001C138.444 10.7111 138.585 10.1851 138.865 9.72225C139.146 9.2594 139.559 8.89474 140.106 8.62825C140.653 8.36176 141.327 8.22852 142.126 8.22852Z" fill="white"/>
<path d="M131.147 27.2272C130.53 27.2272 130.025 27.115 129.632 26.8906C129.225 26.6662 128.839 26.3155 128.475 25.8387H128.959C128.622 26.1893 128.306 26.4628 128.012 26.6592C127.703 26.8696 127.381 27.0168 127.044 27.101C126.708 27.1851 126.301 27.2272 125.824 27.2272C125.01 27.2272 124.365 27.0519 123.888 26.7012C123.412 26.3506 123.075 25.9018 122.879 25.3548C122.682 24.8218 122.584 24.2748 122.584 23.7138C122.584 22.9003 122.752 22.206 123.089 21.631C123.411 21.0699 123.853 20.6351 124.414 20.3266C124.975 20.032 125.607 19.8848 126.308 19.8848C127.177 19.8848 127.837 20.0881 128.285 20.4949C128.72 20.9157 128.938 21.4276 128.938 22.0307C128.938 22.732 128.713 23.265 128.264 23.6296C127.802 23.9943 127.114 24.1766 126.203 24.1766C125.712 24.1766 125.27 24.0784 124.877 23.8821C124.47 23.6997 124.12 23.4753 123.825 23.2089L124.393 21.7782C124.562 22.0026 124.786 22.213 125.067 22.4094C125.333 22.6057 125.642 22.7039 125.992 22.7039C126.301 22.7039 126.546 22.6478 126.729 22.5356C126.897 22.4374 126.981 22.2761 126.981 22.0517C126.981 21.8975 126.932 21.7502 126.834 21.6099C126.722 21.4837 126.546 21.4206 126.308 21.4206C125.929 21.4206 125.585 21.5749 125.277 21.8834C124.968 22.192 124.814 22.739 124.814 23.5244V23.7559C124.814 24.1065 124.863 24.401 124.961 24.6395C125.045 24.8779 125.193 25.0532 125.403 25.1654C125.6 25.2776 125.852 25.3337 126.161 25.3337C126.708 25.3337 127.086 25.2075 127.297 24.955C127.493 24.7166 127.612 24.4641 127.654 24.1977H129.695C129.765 24.7026 129.926 25.0182 130.179 25.1444C130.417 25.2706 130.691 25.3337 130.999 25.3337C131.364 25.3337 131.631 25.2285 131.799 25.0182C131.953 24.8078 132.03 24.5623 132.03 24.2818C132.03 23.7068 131.813 23.2229 131.378 22.8302C130.943 22.4374 130.452 22.0868 129.905 21.7782L131.252 19.8848C131.841 20.1793 132.374 20.537 132.851 20.9577C133.328 21.3785 133.706 21.8554 133.987 22.3884C134.253 22.9213 134.387 23.5174 134.387 24.1766C134.387 25.0883 134.113 25.8246 133.566 26.3857C133.005 26.9467 132.199 27.2272 131.147 27.2272Z" fill="white"/>
<path d="M130.731 19.0049C130.058 19.0049 129.462 18.9068 128.943 18.7104C128.424 18.514 127.898 18.1844 127.365 17.7216C126.846 17.2447 126.222 16.5995 125.492 15.786C125.1 15.3372 124.791 15.0287 124.567 14.8603C124.342 14.678 124.083 14.5868 123.788 14.5868C123.564 14.5868 123.339 14.678 123.115 14.8603C122.905 15.0287 122.799 15.2951 122.799 15.6598C122.799 16.0946 122.912 16.3962 123.136 16.5645C123.375 16.7328 123.648 16.8169 123.957 16.8169C124.293 16.8169 124.63 16.6767 124.966 16.3962C125.303 16.1156 125.541 15.6528 125.682 15.0076L127.428 16.859C127.147 17.2517 126.853 17.6164 126.544 17.953C126.25 18.2756 125.878 18.5351 125.429 18.7314C124.98 18.9138 124.377 19.0049 123.62 19.0049C122.792 19.0049 122.112 18.8507 121.579 18.5421C121.06 18.2195 120.675 17.8057 120.422 17.3008C120.184 16.7959 120.064 16.2629 120.064 15.7019C120.064 15.0146 120.226 14.4256 120.548 13.9347C120.871 13.4297 121.313 13.037 121.874 12.7565C122.435 12.476 123.066 12.3357 123.767 12.3357C124.356 12.3357 124.875 12.4129 125.324 12.5672C125.773 12.7214 126.208 12.9739 126.628 13.3245C127.063 13.6752 127.54 14.138 128.059 14.7131C128.508 15.204 128.873 15.5757 129.153 15.8281C129.448 16.0806 129.714 16.2489 129.953 16.333C130.205 16.4172 130.493 16.4593 130.815 16.4593C131.208 16.4593 131.53 16.319 131.783 16.0385C132.049 15.758 132.183 15.3372 132.183 14.7762C132.183 14.117 132.035 13.5349 131.741 13.03C131.446 12.5251 131.061 12.0763 130.584 11.6835C130.121 11.2768 129.623 10.9051 129.09 10.5685L130.731 8.23322C131.558 8.68204 132.302 9.21501 132.961 9.83214C133.62 10.4493 134.139 11.1506 134.518 11.936C134.911 12.7074 135.107 13.577 135.107 14.5448C135.107 15.4424 134.939 16.2279 134.602 16.9011C134.265 17.5603 133.768 18.0792 133.108 18.4579C132.463 18.8226 131.671 19.0049 130.731 19.0049ZM133.887 21.6768C133.101 21.6768 132.47 21.5506 131.993 21.2981C131.53 21.0457 131.194 20.7161 130.983 20.3093C130.787 19.9026 130.689 19.4678 130.689 19.0049C130.689 18.8226 130.703 18.6333 130.731 18.4369C130.773 18.2405 130.829 18.0512 130.899 17.8689H133.613C133.543 17.9811 133.487 18.0933 133.445 18.2055C133.403 18.3037 133.382 18.4018 133.382 18.5C133.382 18.6543 133.417 18.7946 133.487 18.9208C133.557 19.047 133.655 19.1452 133.782 19.2153C133.908 19.2854 134.055 19.3205 134.223 19.3205C134.448 19.3205 134.644 19.2784 134.812 19.1943C134.995 19.1242 135.212 18.9979 135.465 18.8156L136.748 20.667C136.299 21.0036 135.843 21.2561 135.38 21.4244C134.932 21.5927 134.434 21.6768 133.887 21.6768ZM124.293 10.4212C123.634 10.4212 123.052 10.316 122.547 10.1056C122.042 9.88124 121.614 9.52358 121.264 9.03268C120.913 8.52776 120.64 7.84751 120.443 6.99195L123.304 6.2556C123.459 6.97091 123.627 7.48284 123.809 7.79141C123.992 8.08595 124.244 8.23322 124.567 8.23322C124.777 8.23322 124.987 8.15608 125.198 8.00179C125.408 7.84751 125.689 7.55297 126.039 7.11818L126.923 6.00314C127.414 5.38601 127.877 4.90212 128.312 4.55148C128.746 4.18681 129.216 3.92032 129.721 3.75202C130.24 3.58371 130.857 3.49254 131.573 3.47852L131.741 5.91898C131.264 5.94703 130.85 6.03119 130.5 6.17144C130.163 6.29767 129.854 6.48001 129.574 6.71845C129.293 6.95688 128.999 7.27246 128.69 7.66518L127.996 8.52776C127.729 8.86437 127.414 9.17995 127.049 9.47449C126.685 9.755 126.271 9.98643 125.808 10.1688C125.359 10.3371 124.854 10.4212 124.293 10.4212Z" fill="white"/>
<path d="M98.4492 13.7827C98.4492 12.7448 98.6736 11.8542 99.1225 11.1108C99.5713 10.3674 100.23 9.79238 101.1 9.38563C101.984 8.97889 103.057 8.77552 104.319 8.77552C105.623 8.77552 106.71 8.96486 107.58 9.34356C108.45 9.72225 109.102 10.2833 109.537 11.0266C109.985 11.756 110.21 12.6676 110.21 13.7616C110.21 14.7855 109.992 15.6972 109.558 16.4966C109.123 17.2821 108.464 17.8992 107.58 18.348C106.71 18.7828 105.623 19.0002 104.319 19.0002C103.029 19.0002 101.942 18.7758 101.058 18.327C100.188 17.8782 99.5362 17.261 99.1014 16.4756C98.6666 15.6902 98.4492 14.7925 98.4492 13.7827ZM101.374 13.5092C101.374 14.3647 101.619 15.073 102.11 15.6341C102.615 16.1811 103.351 16.4546 104.319 16.4546C104.978 16.4546 105.525 16.3354 105.96 16.0969C106.409 15.8445 106.738 15.5078 106.949 15.0871C107.173 14.6523 107.285 14.1614 107.285 13.6144C107.285 13.0533 107.173 12.5484 106.949 12.0996C106.738 11.6508 106.416 11.2931 105.981 11.0266C105.546 10.7461 104.992 10.6059 104.319 10.6059C103.66 10.6059 103.106 10.7391 102.657 11.0056C102.222 11.2721 101.9 11.6297 101.689 12.0786C101.479 12.5134 101.374 12.9902 101.374 13.5092ZM115.07 14.8767C114.424 14.8767 113.891 14.7785 113.471 14.5821C113.05 14.3858 112.713 14.1403 112.461 13.8458C112.222 13.5372 112.054 13.2146 111.956 12.878C111.858 12.5414 111.809 12.2328 111.809 11.9523C111.809 11.4053 111.9 10.9425 112.082 10.5638C112.279 10.1851 112.475 9.84147 112.671 9.5329L114.922 9.70121C114.614 9.99575 114.368 10.2833 114.186 10.5638C114.004 10.8443 113.913 11.202 113.913 11.6368C113.913 11.9874 114.018 12.2749 114.228 12.4993C114.453 12.7237 114.74 12.8359 115.091 12.8359C115.497 12.8359 115.799 12.7378 115.995 12.5414C116.192 12.331 116.29 12.0715 116.29 11.763C116.29 11.3422 116.122 11.0477 115.785 10.8794C115.448 10.697 114.993 10.6059 114.417 10.6059H98.6386V8.22852H112.608C113.464 8.22852 114.172 8.25657 114.733 8.31267C115.294 8.35475 115.771 8.4389 116.164 8.56513C116.57 8.69136 116.942 8.88772 117.279 9.15421C117.629 9.4207 117.91 9.75731 118.12 10.1641C118.331 10.5708 118.436 11.0827 118.436 11.6999C118.436 12.6115 118.141 13.3689 117.552 13.972C116.963 14.5751 116.136 14.8767 115.07 14.8767Z" fill="white"/>
<path d="M84.7705 19.0002C83.8728 19.0002 83.1505 18.853 82.6035 18.5584C82.0705 18.2499 81.6848 17.8571 81.4464 17.3803C81.222 16.9034 81.1098 16.3985 81.1098 15.8655C81.1098 15.1782 81.2641 14.6102 81.5726 14.1614C81.8812 13.7126 82.2879 13.383 82.7929 13.1726C83.3118 12.9482 83.8588 12.8359 84.4339 12.8359C85.1632 12.8359 85.7733 12.9622 86.2642 13.2146C86.7691 13.4531 87.1829 13.7406 87.5055 14.0772C87.8421 14.3998 88.1086 14.6873 88.305 14.9398L87.232 17.0857C87.0777 16.707 86.8884 16.3494 86.6639 16.0128C86.4536 15.6761 86.2011 15.4026 85.9066 15.1923C85.612 14.9679 85.2614 14.8556 84.8546 14.8556C84.5461 14.8556 84.2656 14.9398 84.0131 15.1081C83.7606 15.2764 83.6344 15.5429 83.6344 15.9076C83.6344 16.2302 83.7396 16.4826 83.95 16.665C84.1604 16.8473 84.4409 16.9385 84.7915 16.9385C85.2544 16.9385 85.619 16.8122 85.8855 16.5598C86.166 16.3073 86.3624 15.9707 86.4746 15.5499C86.5868 15.1291 86.6429 14.6733 86.6429 14.1824V13.7827C86.6429 13.1936 86.5658 12.6747 86.4115 12.2258C86.2572 11.777 86.0118 11.4264 85.6751 11.1739C85.3385 10.9074 84.8967 10.7742 84.3497 10.7742C84.0131 10.7742 83.7115 10.8443 83.4451 10.9846C83.1786 11.1108 82.9542 11.2931 82.7718 11.5316C82.6035 11.756 82.4703 12.0154 82.3721 12.31H79.6581C79.588 12.0856 79.4618 11.8401 79.2794 11.5736C79.1111 11.2931 78.8587 11.0547 78.522 10.8583C78.1854 10.6479 77.7226 10.5428 77.1335 10.5428C76.6426 10.5428 76.2429 10.6269 75.9343 10.7952C75.6398 10.9495 75.4925 11.209 75.4925 11.5736C75.4925 11.7139 75.5135 11.8471 75.5556 11.9734C75.6117 12.0856 75.7099 12.1838 75.8501 12.2679C75.9764 12.338 76.1377 12.4012 76.334 12.4573C76.5444 12.4993 76.867 12.5204 77.3018 12.5204H78.5431V14.7084H77.2387C76.8039 14.7084 76.4673 14.7294 76.2288 14.7715C75.9904 14.8136 75.8011 14.8907 75.6608 15.0029C75.5626 15.0871 75.4785 15.1923 75.4083 15.3185C75.3522 15.4307 75.3242 15.5639 75.3242 15.7182C75.3242 15.9987 75.4154 16.2302 75.5977 16.4125C75.794 16.5948 76.1096 16.686 76.5444 16.686C77.0073 16.686 77.421 16.5668 77.7857 16.3283C78.1644 16.0899 78.5291 15.7743 78.8797 15.3816L80.689 16.9805C80.3103 17.4153 79.8966 17.787 79.4477 18.0956C79.0129 18.3901 78.5291 18.6145 77.9961 18.7688C77.4631 18.9231 76.853 19.0002 76.1657 19.0002C74.8473 19.0002 73.8515 18.7267 73.1783 18.1797C72.5191 17.6187 72.1895 16.9314 72.1895 16.118C72.1895 15.7252 72.2666 15.3606 72.4209 15.024C72.5752 14.6733 72.8136 14.3718 73.1362 14.1193C73.4728 13.8528 73.8936 13.6424 74.3985 13.4881L74.3775 13.7616C73.6762 13.5232 73.1642 13.1656 72.8416 12.6887C72.5191 12.2118 72.3578 11.6858 72.3578 11.1108C72.3578 10.2412 72.7364 9.54693 73.4938 9.02798C74.2512 8.495 75.2541 8.22852 76.5023 8.22852C77.2457 8.22852 77.8769 8.29864 78.3958 8.4389C78.9288 8.56513 79.4197 8.77552 79.8685 9.07006C80.3173 9.35057 80.7732 9.73628 81.236 10.2272L80.7942 10.2482C81.1168 9.82744 81.4534 9.46979 81.8041 9.17525C82.1687 8.86668 82.5755 8.63526 83.0243 8.48098C83.4871 8.31267 84.0341 8.22852 84.6653 8.22852C85.7172 8.22852 86.5938 8.46695 87.2951 8.94382C87.9964 9.40667 88.5223 10.0589 88.873 10.9004C89.2377 11.7279 89.42 12.6817 89.42 13.7616C89.42 14.8697 89.2517 15.8164 88.9151 16.6018C88.5784 17.3733 88.0665 17.9693 87.3793 18.3901C86.692 18.7969 85.8224 19.0002 84.7705 19.0002Z" fill="white"/>
<path d="M56.0082 8.75448C57.1864 8.75448 58.2033 8.9298 59.0588 9.28044C59.9144 9.63108 60.5736 10.157 61.0364 10.8583C61.4993 11.5596 61.7307 12.4292 61.7307 13.4671C61.7307 14.3227 61.6536 15.0801 61.4993 15.7393C61.345 16.3985 61.1487 16.9875 60.9102 17.5065C60.6718 18.0114 60.4333 18.4813 60.1949 18.9161L57.3757 17.8221C57.6142 17.4995 57.8386 17.1418 58.049 16.7491C58.2734 16.3424 58.4557 15.8935 58.596 15.4026C58.7362 14.9117 58.8064 14.3788 58.8064 13.8037C58.8064 13.2567 58.7152 12.7378 58.5329 12.2469C58.3505 11.756 58.049 11.3633 57.6282 11.0687C57.2215 10.7601 56.6604 10.6059 55.9451 10.6059C55.3701 10.6059 54.8722 10.7391 54.4514 11.0056C54.0447 11.2721 53.7291 11.6438 53.5047 12.1206C53.2803 12.5835 53.168 13.1235 53.168 13.7406C53.168 14.5541 53.3013 15.3045 53.5678 15.9917C53.8343 16.665 54.1779 17.2681 54.5987 17.801L51.7585 18.9161C51.3237 18.1727 50.959 17.3592 50.6645 16.4756C50.3699 15.592 50.2227 14.6593 50.2227 13.6775C50.2227 12.7518 50.4401 11.9173 50.8748 11.1739C51.3237 10.4305 51.9759 9.84147 52.8314 9.40667C53.687 8.97188 54.7459 8.75448 56.0082 8.75448ZM66.5906 14.8767C65.9454 14.8767 65.4125 14.7785 64.9917 14.5821C64.5709 14.3858 64.2413 14.1403 64.0029 13.8458C63.7644 13.5372 63.5961 13.2146 63.498 12.878C63.3998 12.5414 63.3507 12.2328 63.3507 11.9523C63.3507 11.4053 63.4419 10.9425 63.6242 10.5638C63.8205 10.1851 64.0169 9.84147 64.2133 9.5329L66.4644 9.70121C66.1558 9.99575 65.9104 10.2833 65.728 10.5638C65.5457 10.8443 65.4545 11.202 65.4545 11.6368C65.4545 11.9874 65.5597 12.2749 65.7701 12.4993C65.9945 12.7237 66.282 12.8359 66.6327 12.8359C67.0394 12.8359 67.341 12.7378 67.5373 12.5414C67.7337 12.331 67.8319 12.0715 67.8319 11.763C67.8319 11.3422 67.6636 11.0477 67.327 10.8794C66.9903 10.697 66.5415 10.6059 65.9805 10.6059H50.3278V8.22852H64.1501C65.0057 8.22852 65.714 8.25657 66.275 8.31267C66.8361 8.35475 67.3129 8.4389 67.7057 8.56513C68.1124 8.69136 68.4841 8.88772 68.8207 9.15421C69.1713 9.4207 69.4519 9.75731 69.6622 10.1641C69.8726 10.5708 69.9778 11.0827 69.9778 11.6999C69.9778 12.6115 69.6763 13.3689 69.0732 13.972C68.4841 14.5751 67.6566 14.8767 66.5906 14.8767Z" fill="white"/>
<path d="M37.2227 14.3937C37.2227 13.51 37.433 12.7176 37.8538 12.0163C38.2746 11.315 38.8707 10.761 39.6421 10.3543C40.4135 9.94751 41.3322 9.74414 42.3981 9.74414C43.4781 9.74414 44.3968 9.94751 45.1542 10.3543C45.9116 10.761 46.4866 11.315 46.8793 12.0163C47.2861 12.7176 47.4894 13.51 47.4894 14.3937C47.4894 15.2773 47.2861 16.0697 46.8793 16.771C46.4726 17.4583 45.8835 18.0053 45.1121 18.412C44.3547 18.8047 43.436 19.0011 42.3561 19.0011C41.2901 19.0011 40.3714 18.7977 39.6 18.391C38.8286 17.9842 38.2395 17.4372 37.8328 16.75C37.426 16.0487 37.2227 15.2632 37.2227 14.3937ZM40.0418 14.3726C40.0418 15.0178 40.2312 15.5648 40.6099 16.0136C41.0026 16.4484 41.5846 16.6658 42.3561 16.6658C42.875 16.6658 43.3028 16.5676 43.6394 16.3713C43.976 16.1609 44.2285 15.8804 44.3968 15.5297C44.5791 15.1791 44.6703 14.7934 44.6703 14.3726C44.6703 13.7274 44.4669 13.1874 44.0602 12.7526C43.6675 12.3038 43.0994 12.0794 42.3561 12.0794C41.8652 12.0794 41.4444 12.1846 41.0937 12.395C40.7571 12.5914 40.4977 12.8649 40.3153 13.2155C40.133 13.5521 40.0418 13.9378 40.0418 14.3726Z" fill="white"/>
<path d="M27.241 19.0002C25.6421 19.0002 24.2886 18.7408 23.1806 18.2218C22.0726 17.6888 21.231 16.9735 20.656 16.0759C20.095 15.1642 19.8145 14.1403 19.8145 13.0043C19.8145 12.0225 20.0038 11.1739 20.3825 10.4586C20.7752 9.74329 21.3222 9.19629 22.0235 8.81759C22.7248 8.42487 23.5313 8.22852 24.4429 8.22852C25.2845 8.22852 25.9647 8.3828 26.4837 8.69136C27.0026 8.9859 27.3813 9.37161 27.6197 9.84848C27.8582 10.3113 27.9774 10.7952 27.9774 11.3001C27.9774 11.9453 27.8371 12.4993 27.5566 12.9622C27.2761 13.425 26.8694 13.7757 26.3364 14.0141C25.8034 14.2525 25.1512 14.3718 24.3798 14.3718C23.8188 14.3718 23.3209 14.2946 22.8861 14.1403C22.4513 13.9861 22.0726 13.7967 21.75 13.5723C21.4414 13.3479 21.182 13.1445 20.9716 12.9622L21.4555 10.9846C21.6238 11.1949 21.8201 11.4053 22.0445 11.6157C22.283 11.8261 22.5495 12.0014 22.844 12.1417C23.1385 12.2679 23.4541 12.331 23.7907 12.331C24.2255 12.331 24.5762 12.2539 24.8427 12.0996C25.1091 11.9313 25.2424 11.6578 25.2424 11.2791C25.2424 11.0407 25.1582 10.8233 24.9899 10.6269C24.8216 10.4165 24.5762 10.3113 24.2536 10.3113C23.7627 10.3113 23.3559 10.5217 23.0333 10.9425C22.7108 11.3492 22.5495 11.8401 22.5495 12.4152V13.2357C22.5495 13.5723 22.6196 13.93 22.7598 14.3086C22.9141 14.6733 23.1666 15.024 23.5172 15.3606C23.8819 15.6832 24.3728 15.9496 24.9899 16.16C25.6211 16.3564 26.4065 16.4546 27.3462 16.4546C28.6647 16.4546 29.7236 16.2302 30.5231 15.7813C31.3365 15.3185 31.7433 14.5962 31.7433 13.6144C31.7433 12.9552 31.5399 12.4082 31.1332 11.9734C30.7405 11.5245 30.1233 11.0687 29.2818 10.6059L30.9228 8.22852C32.0308 8.77552 32.9285 9.49784 33.6157 10.3955C34.317 11.2791 34.6676 12.3661 34.6676 13.6565C34.6676 14.6523 34.4012 15.5569 33.8682 16.3704C33.3492 17.1699 32.5428 17.8081 31.4488 18.2849C30.3547 18.7618 28.9522 19.0002 27.241 19.0002Z" fill="white"/>
<path d="M15.6737 7.2401C15.6737 7.731 15.5755 8.18683 15.3792 8.6076C15.1828 9.02837 14.9093 9.35798 14.5586 9.59641C14.18 9.8629 13.6891 10.0873 13.086 10.2696C12.4969 10.438 11.8938 10.5221 11.2766 10.5221H7.84736V8.22891H11.2977C11.7044 8.22891 12.006 8.20787 12.2023 8.1658C12.4127 8.10969 12.574 8.03255 12.6862 7.93437C12.7704 7.85022 12.8335 7.75905 12.8756 7.66087C12.9176 7.54867 12.9387 7.42945 12.9387 7.30322C12.9387 7.13491 12.9176 6.99465 12.8756 6.88245C12.8335 6.75622 12.7634 6.65102 12.6652 6.56687C12.553 6.46869 12.3917 6.39856 12.1813 6.35648C11.9849 6.31441 11.6553 6.29337 11.1925 6.29337H3.09266V3.91602H10.919C11.9148 3.91602 12.6862 3.99316 13.2332 4.14744C13.7942 4.2877 14.2781 4.52613 14.6849 4.86275C14.9794 5.11521 15.2179 5.4378 15.4002 5.83052C15.5825 6.22324 15.6737 6.6931 15.6737 7.2401ZM8.28917 19.0006C6.35363 19.0006 4.77574 18.7762 3.55551 18.3274C2.33527 17.8786 1.43763 17.2474 0.862579 16.4339C0.287526 15.6204 0 14.6807 0 13.6148C0 12.8013 0.189347 12.086 0.56804 11.4688C0.946733 10.8517 1.46568 10.3678 2.12489 10.0172C2.79812 9.66654 3.56252 9.49122 4.41809 9.49122C5.1895 9.49122 5.83468 9.63148 6.35363 9.91199C6.87258 10.1785 7.2653 10.5431 7.53179 11.006C7.79827 11.4688 7.93152 11.9878 7.93152 12.5628C7.93152 13.5446 7.61594 14.288 6.98479 14.7929C6.35363 15.2838 5.49105 15.5293 4.39705 15.5293C3.89212 15.5293 3.41525 15.4521 2.96643 15.2978C2.53163 15.1295 2.13892 14.9262 1.78827 14.6877C1.43763 14.4493 1.14309 14.2249 0.904656 14.0145L1.61997 12.3104C1.88645 12.6189 2.20904 12.9135 2.58774 13.194C2.96643 13.4605 3.41525 13.5937 3.9342 13.5937C4.35497 13.5937 4.6986 13.5096 4.96509 13.3413C5.2456 13.173 5.38586 12.9065 5.38586 12.5418C5.38586 12.2613 5.29469 12.0299 5.11236 11.8475C4.93002 11.6652 4.65652 11.574 4.29186 11.574C3.99732 11.574 3.7168 11.6582 3.45032 11.8265C3.18383 11.9808 2.96643 12.2192 2.79812 12.5418C2.62981 12.8504 2.54566 13.2361 2.54566 13.6989V13.8252C2.54566 14.2459 2.65085 14.6246 2.86124 14.9612C3.08565 15.2978 3.42928 15.5854 3.89212 15.8238C4.35497 16.0482 4.95106 16.2235 5.6804 16.3498C6.40973 16.462 7.28634 16.5181 8.31021 16.5181C9.39019 16.5181 10.3299 16.469 11.1294 16.3708C11.9288 16.2726 12.588 16.1184 13.107 15.908C13.6259 15.6836 14.0116 15.389 14.2641 15.0244C14.5306 14.6457 14.6638 14.1828 14.6638 13.6358V13.5727C14.6638 13.0117 14.4955 12.5348 14.1589 12.1421C13.8223 11.7494 13.3454 11.553 12.7283 11.553C12.4197 11.553 12.1322 11.6371 11.8657 11.8055C11.6133 11.9597 11.487 12.2122 11.487 12.5628C11.487 12.9415 11.6062 13.208 11.8447 13.3623C12.0831 13.5026 12.3777 13.5727 12.7283 13.5727C13.0789 13.5727 13.3735 13.5026 13.6119 13.3623C13.8504 13.222 14.0537 13.0257 14.222 12.7732C14.3903 12.5067 14.5236 12.1982 14.6218 11.8475L15.7789 13.3833C15.4843 13.8041 15.1828 14.1828 14.8742 14.5194C14.5797 14.842 14.222 15.0945 13.8013 15.2768C13.3805 15.4591 12.8335 15.5503 12.1603 15.5503C11.6273 15.5503 11.1153 15.4662 10.6244 15.2978C10.1335 15.1155 9.73382 14.828 9.42525 14.4353C9.13071 14.0285 8.98344 13.4885 8.98344 12.8153C8.98344 12.0018 9.285 11.3566 9.8881 10.8798C10.4912 10.3889 11.3327 10.1434 12.4127 10.1434C12.6792 10.1434 12.9176 10.1504 13.128 10.1645C13.3384 10.1785 13.5348 10.1995 13.7171 10.2276C13.8994 10.2416 14.0748 10.2696 14.2431 10.3117L11.8026 10.3538C11.6203 10.2977 11.4239 10.2556 11.2135 10.2276C11.0172 10.1855 10.8138 10.1574 10.6034 10.1434C10.407 10.1154 10.1967 10.1013 9.97225 10.1013L10.8769 8.46033C11.7605 8.50241 12.581 8.64968 13.3384 8.90214C14.1098 9.14058 14.7831 9.48421 15.3581 9.93303C15.9332 10.3678 16.382 10.9008 16.7046 11.532C17.0412 12.1491 17.2095 12.8574 17.2095 13.6568C17.2095 14.5545 17.0412 15.3399 16.7046 16.0132C16.368 16.6724 15.842 17.2264 15.1267 17.6752C14.4114 18.11 13.4857 18.4396 12.3496 18.664C11.2276 18.8884 9.87407 19.0006 8.28917 19.0006Z" fill="white"/>
</svg>
