<svg width="328" height="29" viewBox="0 0 328 29" fill="none" xmlns="http://www.w3.org/2000/svg">
<path d="M323.722 27.2165C323.077 27.2165 322.551 27.1113 322.144 26.9009C321.723 26.7045 321.31 26.3469 320.903 25.8279H321.387C320.91 26.3469 320.468 26.7045 320.061 26.9009C319.641 27.1113 319.122 27.2165 318.505 27.2165C317.887 27.2165 317.375 27.0762 316.969 26.7957C316.562 26.5152 316.26 26.1435 316.064 25.6807C315.868 25.2178 315.77 24.7199 315.77 24.1869C315.77 23.3033 316.008 22.5389 316.485 21.8937C316.948 21.2485 317.586 20.7506 318.399 20.4C319.199 20.0493 320.103 19.874 321.113 19.874C322.151 19.874 323.077 20.0564 323.89 20.421C324.69 20.7997 325.321 21.3117 325.784 21.9568C326.247 22.616 326.478 23.3734 326.478 24.229C326.478 24.7339 326.394 25.2108 326.226 25.6596C326.043 26.1225 325.749 26.4941 325.342 26.7747C324.935 27.0692 324.395 27.2165 323.722 27.2165ZM323.217 25.323C323.498 25.323 323.722 25.2178 323.89 25.0074C324.059 24.797 324.143 24.5165 324.143 24.1659C324.143 23.4225 323.855 22.8334 323.28 22.3986C322.705 21.9779 321.983 21.7675 321.113 21.7675C320.174 21.7675 319.437 21.9779 318.904 22.3986C318.357 22.8194 318.084 23.3945 318.084 24.1238C318.084 24.4885 318.168 24.776 318.336 24.9864C318.505 25.2108 318.736 25.323 319.03 25.323C319.311 25.323 319.542 25.2529 319.725 25.1126C319.893 24.9864 320.033 24.804 320.146 24.5656H322.081C322.193 24.8321 322.334 25.0214 322.502 25.1337C322.67 25.2599 322.909 25.323 323.217 25.323ZM320.082 28.584L320.167 26.8798H322.018L322.165 28.584H320.082ZM319.998 23.3243C319.998 23.0158 320.103 22.7844 320.314 22.6301C320.524 22.4898 320.791 22.4197 321.113 22.4197C321.478 22.4197 321.758 22.4968 321.955 22.6511C322.151 22.8054 322.249 23.0298 322.249 23.3243C322.249 23.6469 322.151 23.8784 321.955 24.0186C321.744 24.1589 321.464 24.229 321.113 24.229C320.777 24.229 320.51 24.1519 320.314 23.9976C320.103 23.8573 319.998 23.6329 319.998 23.3243Z" fill="white"/>
<path d="M322.799 18.9942C322.21 18.9942 321.642 18.91 321.095 18.7417C320.562 18.5874 320.008 18.2999 319.433 17.8792C318.872 17.4584 318.255 16.8693 317.581 16.1119C317.273 15.7613 317.02 15.5018 316.824 15.3335C316.642 15.1512 316.487 15.0319 316.361 14.9758C316.235 14.9057 316.095 14.8706 315.94 14.8706C315.758 14.8706 315.59 14.9478 315.436 15.1021C315.281 15.2564 315.204 15.4667 315.204 15.7332C315.204 16.0839 315.281 16.4555 315.436 16.8483C315.604 17.241 315.842 17.6618 316.151 18.1106L313.205 19.0152C312.953 18.5243 312.736 18.0054 312.553 17.4584C312.385 16.8974 312.301 16.2943 312.301 15.6491C312.301 15.0039 312.455 14.4359 312.764 13.945C313.072 13.44 313.493 13.0473 314.026 12.7668C314.573 12.4723 315.19 12.325 315.877 12.325C316.522 12.325 317.091 12.4232 317.581 12.6195C318.072 12.8159 318.528 13.0964 318.949 13.4611C319.384 13.8257 319.826 14.2605 320.274 14.7655C320.681 15.2002 321.025 15.5439 321.305 15.7963C321.586 16.0348 321.852 16.2031 322.105 16.3013C322.371 16.3994 322.659 16.4485 322.967 16.4485C323.36 16.4485 323.69 16.3083 323.956 16.0278C324.223 15.7473 324.356 15.3265 324.356 14.7655C324.356 14.1062 324.209 13.5242 323.914 13.0193C323.619 12.5143 323.234 12.0655 322.757 11.6728C322.28 11.266 321.775 10.8944 321.242 10.5578L322.904 8.22248C323.732 8.6713 324.475 9.20427 325.134 9.8214C325.793 10.4385 326.312 11.1398 326.691 11.9253C327.084 12.6967 327.28 13.5663 327.28 14.534C327.28 15.4317 327.105 16.2171 326.754 16.8903C326.418 17.5495 325.913 18.0685 325.239 18.4472C324.58 18.8119 323.767 18.9942 322.799 18.9942ZM316.53 10.4105C315.87 10.4105 315.288 10.3053 314.783 10.0949C314.278 9.87049 313.851 9.51284 313.5 9.02194C313.149 8.51702 312.876 7.83677 312.679 6.9812L315.541 6.24486C315.695 6.96017 315.863 7.4721 316.046 7.78067C316.228 8.07521 316.48 8.22248 316.803 8.22248C317.013 8.22248 317.224 8.14534 317.434 7.99105C317.645 7.83677 317.925 7.54223 318.276 7.10743L319.159 5.99239C319.65 5.37526 320.113 4.89138 320.548 4.54074C320.983 4.17607 321.453 3.90958 321.957 3.74127C322.476 3.57297 323.094 3.4818 323.809 3.46777L323.977 5.90824C323.5 5.93629 323.087 6.02045 322.736 6.1607C322.399 6.28693 322.091 6.46927 321.81 6.7077C321.53 6.94614 321.235 7.26172 320.927 7.65444L320.232 8.51701C319.966 8.85363 319.65 9.16921 319.286 9.46375C318.921 9.74426 318.507 9.97569 318.044 10.158C317.595 10.3263 317.091 10.4105 316.53 10.4105Z" fill="white"/>
<path d="M299.576 14.3829C299.576 13.4993 299.787 12.7068 300.207 12.0056C300.628 11.3043 301.224 10.7503 301.996 10.3435C302.767 9.93677 303.686 9.7334 304.752 9.7334C305.832 9.7334 306.75 9.93677 307.508 10.3435C308.265 10.7503 308.84 11.3043 309.233 12.0056C309.64 12.7068 309.843 13.4993 309.843 14.3829C309.843 15.2665 309.64 16.059 309.233 16.7603C308.826 17.4475 308.237 17.9945 307.466 18.4013C306.708 18.794 305.79 18.9903 304.71 18.9903C303.644 18.9903 302.725 18.787 301.954 18.3802C301.182 17.9735 300.593 17.4265 300.186 16.7392C299.78 16.0379 299.576 15.2525 299.576 14.3829ZM302.395 14.3619C302.395 15.0071 302.585 15.5541 302.963 16.0029C303.356 16.4377 303.938 16.6551 304.71 16.6551C305.229 16.6551 305.656 16.5569 305.993 16.3605C306.33 16.1501 306.582 15.8696 306.75 15.519C306.933 15.1683 307.024 14.7826 307.024 14.3619C307.024 13.7167 306.82 13.1767 306.414 12.7419C306.021 12.2931 305.453 12.0687 304.71 12.0687C304.219 12.0687 303.798 12.1739 303.447 12.3843C303.111 12.5806 302.851 12.8541 302.669 13.2048C302.486 13.5414 302.395 13.9271 302.395 14.3619Z" fill="white"/>
<path d="M292.5 18.9942C291.911 18.9942 291.343 18.91 290.796 18.7417C290.263 18.5874 289.709 18.2999 289.134 17.8792C288.573 17.4584 287.956 16.8693 287.283 16.1119C286.974 15.7613 286.722 15.5018 286.525 15.3335C286.343 15.1512 286.189 15.0319 286.062 14.9758C285.936 14.9057 285.796 14.8706 285.642 14.8706C285.459 14.8706 285.291 14.9478 285.137 15.1021C284.982 15.2564 284.905 15.4667 284.905 15.7332C284.905 16.0839 284.982 16.4555 285.137 16.8483C285.305 17.241 285.543 17.6618 285.852 18.1106L282.907 19.0152C282.654 18.5243 282.437 18.0054 282.254 17.4584C282.086 16.8974 282.002 16.2943 282.002 15.6491C282.002 15.0039 282.156 14.4359 282.465 13.945C282.773 13.44 283.194 13.0473 283.727 12.7668C284.274 12.4723 284.891 12.325 285.578 12.325C286.224 12.325 286.792 12.4232 287.283 12.6195C287.774 12.8159 288.229 13.0964 288.65 13.4611C289.085 13.8257 289.527 14.2605 289.976 14.7655C290.382 15.2002 290.726 15.5439 291.006 15.7963C291.287 16.0348 291.553 16.2031 291.806 16.3013C292.072 16.3994 292.36 16.4485 292.668 16.4485C293.061 16.4485 293.391 16.3083 293.657 16.0278C293.924 15.7473 294.057 15.3265 294.057 14.7655C294.057 14.1062 293.91 13.5242 293.615 13.0193C293.321 12.5143 292.935 12.0655 292.458 11.6728C291.981 11.266 291.476 10.8944 290.943 10.5578L292.605 8.22248C293.433 8.6713 294.176 9.20427 294.835 9.8214C295.495 10.4385 296.014 11.1398 296.392 11.9253C296.785 12.6967 296.981 13.5663 296.981 14.534C296.981 15.4317 296.806 16.2171 296.455 16.8903C296.119 17.5495 295.614 18.0685 294.941 18.4472C294.281 18.8119 293.468 18.9942 292.5 18.9942ZM286.231 10.4105C285.571 10.4105 284.989 10.3053 284.484 10.0949C283.98 9.87049 283.552 9.51284 283.201 9.02194C282.85 8.51702 282.577 7.83677 282.381 6.9812L285.242 6.24486C285.396 6.96017 285.564 7.4721 285.747 7.78067C285.929 8.07521 286.182 8.22248 286.504 8.22248C286.715 8.22248 286.925 8.14534 287.135 7.99105C287.346 7.83677 287.626 7.54223 287.977 7.10743L288.861 5.99239C289.351 5.37526 289.814 4.89138 290.249 4.54074C290.684 4.17607 291.154 3.90958 291.659 3.74127C292.178 3.57297 292.795 3.4818 293.51 3.46777L293.678 5.90824C293.201 5.93629 292.788 6.02045 292.437 6.1607C292.1 6.28693 291.792 6.46927 291.511 6.7077C291.231 6.94614 290.936 7.26172 290.628 7.65444L289.933 8.51701C289.667 8.85363 289.351 9.16921 288.987 9.46375C288.622 9.74426 288.208 9.97569 287.745 10.158C287.297 10.3263 286.792 10.4105 286.231 10.4105Z" fill="white"/>
<path d="M260.685 18.9895C259.787 18.9895 259.065 18.8422 258.518 18.5477C257.985 18.2391 257.599 17.8464 257.36 17.3695C257.136 16.8927 257.024 16.3877 257.024 15.8548C257.024 15.1675 257.178 14.5995 257.487 14.1506C257.795 13.7018 258.202 13.3722 258.707 13.1618C259.226 12.9374 259.773 12.8252 260.348 12.8252C261.077 12.8252 261.687 12.9514 262.178 13.2039C262.683 13.4423 263.097 13.7299 263.42 14.0665C263.756 14.3891 264.023 14.6766 264.219 14.9291L263.146 17.075C262.992 16.6963 262.802 16.3386 262.578 16.002C262.368 15.6654 262.115 15.3919 261.821 15.1815C261.526 14.9571 261.175 14.8449 260.769 14.8449C260.46 14.8449 260.18 14.9291 259.927 15.0974C259.675 15.2657 259.548 15.5322 259.548 15.8968C259.548 16.2194 259.654 16.4719 259.864 16.6542C260.074 16.8365 260.355 16.9277 260.706 16.9277C261.168 16.9277 261.533 16.8015 261.8 16.549C262.08 16.2966 262.276 15.9599 262.389 15.5392C262.501 15.1184 262.557 14.6626 262.557 14.1717V13.6457C262.557 13.0707 262.48 12.5517 262.326 12.0889C262.171 11.626 261.926 11.2613 261.589 10.9949C261.267 10.7284 260.832 10.5951 260.285 10.5951C259.948 10.5951 259.64 10.6723 259.359 10.8265C259.093 10.9668 258.868 11.1632 258.686 11.4156C258.504 11.6681 258.37 11.9626 258.286 12.2992H255.572C255.502 12.0748 255.376 11.8294 255.193 11.5629C255.025 11.2824 254.773 11.0439 254.436 10.8476C254.099 10.6372 253.637 10.532 253.048 10.532C252.557 10.532 252.157 10.6162 251.848 10.7845C251.554 10.9388 251.407 11.1982 251.407 11.5629C251.407 11.7032 251.428 11.8364 251.47 11.9626C251.526 12.0748 251.624 12.173 251.764 12.2572C251.89 12.3273 252.052 12.3904 252.248 12.4465C252.458 12.4886 252.781 12.5096 253.216 12.5096H254.457V14.6976H253.153C252.718 14.6976 252.381 14.7187 252.143 14.7607C251.904 14.8028 251.715 14.88 251.575 14.9922C251.477 15.0763 251.393 15.1815 251.322 15.3078C251.266 15.42 251.238 15.5532 251.238 15.7075C251.238 15.988 251.329 16.2194 251.512 16.4018C251.708 16.5841 252.024 16.6753 252.458 16.6753C252.921 16.6753 253.335 16.556 253.7 16.3176C254.078 16.0792 254.443 15.7636 254.794 15.3709L256.603 16.9698C256.224 17.4046 255.811 17.7763 255.362 18.0848C254.927 18.3794 254.443 18.6038 253.91 18.7581C253.377 18.9123 252.767 18.9895 252.08 18.9895C250.761 18.9895 249.766 18.716 249.092 18.169C248.433 17.608 248.104 16.9207 248.104 16.1072C248.104 15.7145 248.181 15.3498 248.335 15.0132C248.489 14.6626 248.728 14.361 249.05 14.1086C249.387 13.8421 249.808 13.6317 250.313 13.4774L250.292 13.7509C249.604 13.4984 249.092 13.1688 248.756 12.7621C248.433 12.3413 248.272 11.8434 248.272 11.2684C248.272 10.7494 248.454 10.3076 248.819 9.94293C249.198 9.56424 249.716 9.2697 250.376 9.05931C251.035 8.84893 251.792 8.74374 252.648 8.74374C253.405 8.74374 254.036 8.8349 254.541 9.01724C255.06 9.18554 255.516 9.43801 255.909 9.77462C256.316 10.0972 256.736 10.4969 257.171 10.9738L256.687 10.9949C257.024 10.518 257.388 10.1323 257.781 9.83774C258.174 9.52917 258.595 9.30476 259.044 9.16451C259.506 9.01022 259.99 8.93308 260.495 8.93308C261.561 8.93308 262.452 9.12243 263.167 9.50112C263.882 9.87982 264.422 10.4338 264.787 11.1632C265.152 11.8925 265.334 12.7831 265.334 13.8351C265.334 14.873 265.166 15.7846 264.829 16.5701C264.493 17.3415 263.981 17.9376 263.293 18.3583C262.606 18.7791 261.736 18.9895 260.685 18.9895ZM270.215 14.8659C269.57 14.8659 269.037 14.7678 268.616 14.5714C268.195 14.375 267.866 14.1296 267.627 13.8351C267.389 13.5265 267.22 13.2039 267.122 12.8673C267.024 12.5307 266.975 12.2221 266.975 11.9416C266.975 11.3665 267.066 10.8967 267.249 10.532C267.431 10.1673 267.62 9.83073 267.817 9.52216L270.089 9.69047C269.78 9.98501 269.535 10.2725 269.352 10.553C269.17 10.8336 269.079 11.1912 269.079 11.626C269.079 11.9767 269.184 12.2642 269.394 12.4886C269.619 12.713 269.899 12.8252 270.236 12.8252C270.643 12.8252 270.944 12.727 271.141 12.5307C271.351 12.3203 271.456 12.0608 271.456 11.7522C271.456 11.3315 271.281 11.0369 270.93 10.8686C270.594 10.6863 270.138 10.5951 269.563 10.5951H255.257L253.826 10.0271L251.238 10.5951H248.335V8.21777H267.753C268.609 8.21777 269.317 8.24582 269.878 8.30193C270.453 8.344 270.937 8.42816 271.33 8.55439C271.737 8.68062 272.108 8.87698 272.445 9.14347C272.796 9.40995 273.076 9.74657 273.287 10.1533C273.497 10.5601 273.602 11.072 273.602 11.6891C273.602 12.6008 273.301 13.3582 272.698 13.9613C272.108 14.5644 271.281 14.8659 270.215 14.8659Z" fill="white"/>
<path d="M233.446 18.9895C232.773 18.9895 232.176 18.8913 231.658 18.695C231.139 18.4986 230.613 18.169 230.08 17.7061C229.561 17.2293 228.937 16.5841 228.207 15.7706C227.815 15.3218 227.506 15.0132 227.282 14.8449C227.057 14.6626 226.798 14.5714 226.503 14.5714C226.279 14.5714 226.054 14.6626 225.83 14.8449C225.619 15.0132 225.514 15.2797 225.514 15.6444C225.514 16.0792 225.626 16.3807 225.851 16.549C226.089 16.7173 226.363 16.8015 226.671 16.8015C227.008 16.8015 227.345 16.6612 227.681 16.3807C228.018 16.1002 228.256 15.6374 228.397 14.9922L230.143 16.8436C229.862 17.2363 229.568 17.6009 229.259 17.9376C228.965 18.2602 228.593 18.5196 228.144 18.716C227.695 18.8983 227.092 18.9895 226.335 18.9895C225.507 18.9895 224.827 18.8352 224.294 18.5266C223.775 18.2041 223.389 17.7903 223.137 17.2854C222.899 16.7664 222.779 16.2264 222.779 15.6654C222.779 14.9922 222.941 14.4101 223.263 13.9192C223.586 13.4143 224.028 13.0216 224.589 12.7411C225.15 12.4605 225.781 12.3203 226.482 12.3203C227.071 12.3203 227.59 12.3974 228.039 12.5517C228.488 12.706 228.923 12.9584 229.343 13.3091C229.778 13.6597 230.255 14.1226 230.774 14.6976C231.223 15.1885 231.594 15.5602 231.889 15.8127C232.184 16.0651 232.45 16.2334 232.688 16.3176C232.927 16.4018 233.172 16.4438 233.425 16.4438C233.874 16.4438 234.231 16.3036 234.498 16.0231C234.764 15.7425 234.897 15.2937 234.897 14.6766C234.897 13.9613 234.708 13.3091 234.329 12.72C233.951 12.1309 233.432 11.626 232.773 11.2052C232.113 10.7845 231.363 10.4829 230.521 10.3006L235.55 10.2164C236.013 10.525 236.412 10.8967 236.749 11.3315C237.099 11.7522 237.366 12.2291 237.548 12.7621C237.731 13.281 237.822 13.8491 237.822 14.4662C237.822 15.3779 237.654 16.1773 237.317 16.8646C236.98 17.5378 236.482 18.0638 235.823 18.4425C235.178 18.8072 234.386 18.9895 233.446 18.9895ZM242.513 14.8659C241.868 14.8659 241.335 14.7678 240.914 14.5714C240.494 14.375 240.164 14.1296 239.926 13.8351C239.687 13.5265 239.519 13.2039 239.421 12.8673C239.323 12.5307 239.273 12.2221 239.273 11.9416C239.273 11.3665 239.365 10.8967 239.547 10.532C239.729 10.1673 239.919 9.83073 240.115 9.52216L242.366 9.69047C242.072 9.98501 241.833 10.2725 241.651 10.553C241.469 10.8336 241.377 11.1912 241.377 11.626C241.377 11.9767 241.483 12.2642 241.693 12.4886C241.917 12.713 242.198 12.8252 242.534 12.8252C242.941 12.8252 243.243 12.727 243.439 12.5307C243.635 12.3203 243.734 12.0608 243.734 11.7522C243.734 11.3315 243.565 11.0369 243.229 10.8686C242.892 10.6863 242.443 10.5951 241.882 10.5951H225.009V8.21777H240.052C240.907 8.21777 241.616 8.24582 242.177 8.30193C242.738 8.344 243.215 8.42816 243.607 8.55439C244.014 8.68062 244.386 8.87698 244.722 9.14347C245.087 9.40995 245.368 9.74657 245.564 10.1533C245.774 10.5601 245.88 11.072 245.88 11.6891C245.88 12.6008 245.585 13.3582 244.996 13.9613C244.407 14.5644 243.579 14.8659 242.513 14.8659Z" fill="white"/>
<path d="M208.498 13.7766C208.498 12.7387 208.722 11.806 209.171 10.9785C209.62 10.137 210.279 9.47076 211.149 8.97986C212.033 8.47494 213.112 8.22248 214.389 8.22248C215.679 8.22248 216.759 8.46091 217.629 8.93779C218.498 9.40063 219.151 10.0458 219.585 10.8733C220.034 11.7008 220.259 12.6616 220.259 13.7556C220.259 14.7795 220.041 15.6911 219.606 16.4906C219.172 17.276 218.519 17.8932 217.65 18.342C216.78 18.7768 215.693 18.9942 214.389 18.9942C213.084 18.9942 211.99 18.7698 211.107 18.321C210.237 17.8721 209.585 17.255 209.15 16.4696C208.715 15.6841 208.498 14.7865 208.498 13.7766ZM211.422 13.5031C211.422 14.3587 211.668 15.067 212.159 15.628C212.664 16.175 213.407 16.4485 214.389 16.4485C215.048 16.4485 215.595 16.3293 216.03 16.0909C216.465 15.8384 216.794 15.5018 217.019 15.081C217.243 14.6462 217.355 14.1553 217.355 13.6083C217.355 13.0473 217.243 12.5424 217.019 12.0936C216.808 11.6447 216.479 11.2871 216.03 11.0206C215.595 10.7401 215.048 10.5998 214.389 10.5998C213.716 10.5998 213.162 10.7331 212.727 10.9996C212.292 11.266 211.962 11.6237 211.738 12.0725C211.528 12.5073 211.422 12.9842 211.422 13.5031ZM213.505 10.4105C212.846 10.4105 212.264 10.3053 211.759 10.0949C211.254 9.87049 210.826 9.51284 210.476 9.02194C210.125 8.51702 209.852 7.83677 209.655 6.9812L212.516 6.24486C212.671 6.96017 212.839 7.4721 213.021 7.78067C213.204 8.07521 213.456 8.22248 213.779 8.22248C213.989 8.22248 214.199 8.14534 214.41 7.99105C214.62 7.83677 214.901 7.54223 215.251 7.10743L216.135 5.99239C216.626 5.37526 217.089 4.89138 217.524 4.54074C217.958 4.17607 218.428 3.90958 218.933 3.74127C219.452 3.57297 220.069 3.4818 220.785 3.46777L220.953 5.90824C220.476 5.93629 220.062 6.02045 219.712 6.1607C219.375 6.28693 219.066 6.46927 218.786 6.7077C218.505 6.94614 218.211 7.26172 217.902 7.65444L217.208 8.51701C216.941 8.85363 216.626 9.16921 216.261 9.46375C215.897 9.74426 215.483 9.97569 215.02 10.158C214.571 10.3263 214.066 10.4105 213.505 10.4105Z" fill="white"/>
<path d="M187.276 27.2165C186.393 27.2165 185.713 27.1183 185.236 26.9219C184.759 26.7256 184.338 26.4591 183.973 26.1225H184.1C183.707 26.5573 183.307 26.8448 182.9 26.985C182.48 27.1393 181.996 27.2165 181.449 27.2165C180.916 27.2165 180.446 27.0902 180.039 26.8378C179.632 26.5993 179.317 26.2487 179.092 25.7858C178.868 25.323 178.756 24.769 178.756 24.1238C178.756 23.2823 178.987 22.5389 179.45 21.8937C179.899 21.2626 180.551 20.7647 181.407 20.4C182.262 20.0493 183.272 19.874 184.436 19.874C185.404 19.874 186.246 19.9371 186.961 20.0634C187.662 20.1896 188.406 20.386 189.191 20.6524L188.37 22.5459C187.823 22.3355 187.347 22.1742 186.94 22.062C186.519 21.9498 186.119 21.8727 185.741 21.8306C185.348 21.7885 184.92 21.7675 184.457 21.7675C183.672 21.7675 183.027 21.8727 182.522 22.0831C182.017 22.3075 181.652 22.595 181.428 22.9456C181.189 23.2963 181.07 23.689 181.07 24.1238C181.07 24.4885 181.154 24.776 181.323 24.9864C181.477 25.2108 181.708 25.323 182.017 25.323C182.297 25.323 182.536 25.2178 182.732 25.0074C182.914 24.8111 183.027 24.5376 183.069 24.1869H185.088C185.117 24.4254 185.173 24.6357 185.257 24.8181C185.341 25.0004 185.474 25.1407 185.656 25.2388C185.839 25.337 186.091 25.3861 186.414 25.3861C186.568 25.4001 186.736 25.4142 186.919 25.4282C187.087 25.4562 187.269 25.4703 187.466 25.4703C187.746 25.4703 187.971 25.4212 188.139 25.323C188.293 25.2388 188.37 25.0986 188.37 24.9022C188.37 24.762 188.321 24.6498 188.223 24.5656C188.111 24.4815 187.957 24.4394 187.76 24.4394C187.578 24.4394 187.431 24.4955 187.319 24.6077C187.192 24.7199 187.129 24.8952 187.129 25.1337C187.129 25.316 187.178 25.4773 187.276 25.6175C187.361 25.7718 187.48 25.9121 187.634 26.0383L186.077 26.438C185.909 26.1996 185.79 25.9261 185.72 25.6175C185.635 25.309 185.593 25.0635 185.593 24.8812C185.593 24.2641 185.79 23.7591 186.182 23.3664C186.561 22.9737 187.115 22.7773 187.845 22.7773C188.546 22.7773 189.114 22.9737 189.549 23.3664C189.969 23.7732 190.18 24.2711 190.18 24.8601C190.18 25.2529 190.096 25.6245 189.927 25.9752C189.745 26.3399 189.443 26.6344 189.023 26.8588C188.602 27.0972 188.02 27.2165 187.276 27.2165Z" fill="white"/>
<path d="M193.856 18.9895C192.79 18.9895 191.892 18.744 191.163 18.2531C190.434 17.7622 189.739 17.1451 189.08 16.4018L190.7 14.5924C190.995 14.9291 191.303 15.2376 191.626 15.5181C191.934 15.7986 192.271 16.0231 192.636 16.1914C193.014 16.3597 193.421 16.4438 193.856 16.4438C194.347 16.4438 194.725 16.3036 194.992 16.0231C195.258 15.7425 195.392 15.3218 195.392 14.7607C195.392 14.1015 195.244 13.5195 194.95 13.0146C194.655 12.5096 194.27 12.0608 193.793 11.6681C193.316 11.2613 192.811 10.8897 192.278 10.553L193.94 8.21777C194.767 8.66659 195.511 9.19957 196.17 9.8167C196.829 10.4338 197.348 11.1351 197.727 11.9206C198.12 12.692 198.316 13.5616 198.316 14.5293C198.316 15.8758 197.937 16.9558 197.18 17.7693C196.423 18.5827 195.314 18.9895 193.856 18.9895Z" fill="white"/>
<path d="M185.869 18.9942C185.069 18.9942 184.389 18.9171 183.828 18.7628C183.267 18.6225 182.79 18.4191 182.397 18.1527C182.005 17.8721 181.654 17.5496 181.346 17.1849L181.493 17.2059C181.156 17.6968 180.799 18.0755 180.42 18.342C180.055 18.5945 179.662 18.7628 179.242 18.8469C178.835 18.9451 178.379 18.9942 177.874 18.9942C176.766 18.9942 175.869 18.6015 175.181 17.816C174.494 17.0306 174.15 15.9156 174.15 14.4709C174.15 13.1244 174.48 11.9884 175.139 11.0627C175.798 10.123 176.731 9.41466 177.937 8.93779C179.144 8.46091 180.553 8.22248 182.166 8.22248C183.022 8.22248 183.8 8.27157 184.501 8.36975C185.203 8.46793 185.883 8.61519 186.542 8.81155C187.201 8.99389 187.896 9.23233 188.625 9.52686L187.342 11.8832C186.584 11.5466 185.918 11.2871 185.343 11.1048C184.782 10.9224 184.242 10.7962 183.723 10.7261C183.204 10.6419 182.636 10.5998 182.019 10.5998C180.869 10.5998 179.929 10.7681 179.2 11.1048C178.47 11.4273 177.93 11.8692 177.58 12.4302C177.243 12.9772 177.075 13.5873 177.075 14.2605C177.075 15.046 177.201 15.607 177.453 15.9436C177.706 16.2802 178.057 16.4485 178.505 16.4485C178.968 16.4485 179.34 16.2802 179.62 15.9436C179.915 15.607 180.09 15.1371 180.146 14.534H182.734C182.776 15.081 182.937 15.5228 183.218 15.8595C183.513 16.1961 184.003 16.4135 184.691 16.5117C184.901 16.5537 185.133 16.5888 185.385 16.6168C185.651 16.6309 185.932 16.6379 186.227 16.6379C186.619 16.6379 186.928 16.5607 187.152 16.4065C187.377 16.2522 187.489 15.9997 187.489 15.6491C187.489 15.4106 187.405 15.2143 187.236 15.06C187.082 14.9057 186.865 14.8286 186.584 14.8286C186.318 14.8286 186.086 14.9057 185.89 15.06C185.708 15.2143 185.616 15.4667 185.616 15.8174C185.616 16.0698 185.68 16.3083 185.806 16.5327C185.932 16.7431 186.107 16.9324 186.332 17.1007L184.291 17.6898C184.053 17.3532 183.87 16.9675 183.744 16.5327C183.632 16.0839 183.576 15.7262 183.576 15.4597C183.576 14.6042 183.842 13.9169 184.375 13.398C184.922 12.865 185.687 12.5985 186.668 12.5985C187.313 12.5985 187.875 12.7317 188.351 12.9982C188.828 13.2647 189.2 13.6294 189.466 14.0922C189.733 14.541 189.866 15.046 189.866 15.607C189.866 16.0278 189.796 16.4415 189.656 16.8483C189.53 17.255 189.312 17.6197 189.004 17.9423C188.709 18.2649 188.302 18.5243 187.783 18.7207C187.264 18.903 186.626 18.9942 185.869 18.9942ZM181.409 10.4105C180.749 10.4105 180.167 10.3053 179.662 10.0949C179.158 9.87049 178.73 9.51284 178.379 9.02194C178.028 8.51702 177.755 7.83677 177.559 6.9812L180.42 6.24486C180.574 6.96017 180.742 7.4721 180.925 7.78067C181.107 8.07521 181.36 8.22248 181.682 8.22248C181.893 8.22248 182.103 8.14534 182.313 7.99105C182.524 7.83677 182.804 7.54223 183.155 7.10743L184.038 5.99239C184.529 5.37526 184.992 4.89138 185.427 4.54074C185.862 4.17607 186.332 3.90958 186.837 3.74127C187.356 3.57297 187.973 3.4818 188.688 3.46777L188.856 5.90824C188.379 5.93629 187.966 6.02045 187.615 6.1607C187.278 6.28693 186.97 6.46927 186.689 6.7077C186.409 6.94614 186.114 7.26172 185.806 7.65444L185.111 8.51701C184.845 8.85363 184.529 9.16921 184.165 9.46375C183.8 9.74426 183.386 9.97569 182.923 10.158C182.475 10.3263 181.97 10.4105 181.409 10.4105Z" fill="white"/>
<path d="M156.162 13.7743C156.162 12.7364 156.387 11.8037 156.835 10.9762C157.284 10.1347 157.943 9.46844 158.813 8.97754C159.697 8.47262 160.777 8.22016 162.053 8.22016C163.343 8.22016 164.423 8.45859 165.293 8.93547C166.162 9.39831 166.815 10.0435 167.249 10.871C167.698 11.6985 167.923 12.6593 167.923 13.7533C167.923 14.7772 167.705 15.6888 167.27 16.4883C166.836 17.2737 166.183 17.8909 165.314 18.3397C164.444 18.7745 163.357 18.9919 162.053 18.9919C160.749 18.9919 159.655 18.7675 158.771 18.3186C157.901 17.8698 157.249 17.2527 156.814 16.4673C156.38 15.6818 156.162 14.7842 156.162 13.7743ZM159.086 13.5008C159.086 14.3564 159.332 15.0647 159.823 15.6257C160.328 16.1727 161.071 16.4462 162.053 16.4462C162.712 16.4462 163.259 16.327 163.694 16.0886C164.129 15.8361 164.458 15.4995 164.683 15.0787C164.907 14.6439 165.019 14.153 165.019 13.606C165.019 13.045 164.907 12.5401 164.683 12.0912C164.472 11.6424 164.143 11.2848 163.694 11.0183C163.259 10.7378 162.712 10.5975 162.053 10.5975C161.38 10.5975 160.826 10.7308 160.391 10.9972C159.956 11.2637 159.626 11.6214 159.402 12.0702C159.192 12.505 159.086 12.9819 159.086 13.5008ZM170.7 10.324C170.055 10.324 169.522 10.2258 169.101 10.0295C168.68 9.83311 168.343 9.58766 168.091 9.29312C167.853 8.98456 167.684 8.66197 167.586 8.32535C167.488 7.98873 167.439 7.68718 167.439 7.42069C167.439 6.84564 167.53 6.37578 167.712 6.01111C167.909 5.63242 168.105 5.2958 168.301 5.00126L170.552 5.14853C170.244 5.44307 169.998 5.7306 169.816 6.01111C169.634 6.29163 169.543 6.64928 169.543 7.08408C169.543 7.43472 169.648 7.72225 169.858 7.94666C170.083 8.17107 170.37 8.28327 170.721 8.28327C171.142 8.28327 171.443 8.17808 171.625 7.9677C171.822 7.75731 171.92 7.50485 171.92 7.21031C171.92 6.80356 171.752 6.50903 171.415 6.32669C171.078 6.14436 170.623 6.05319 170.048 6.05319H167.039C166.562 6.05319 166.19 6.17241 165.924 6.41085C165.657 6.64928 165.489 7.02798 165.419 7.54693H162.852C162.754 7.08408 162.572 6.71941 162.305 6.45292C162.053 6.18643 161.646 6.05319 161.085 6.05319H160.854C160.545 6.05319 160.279 6.15137 160.054 6.34773C159.83 6.54409 159.718 6.8246 159.718 7.18927C159.718 7.41368 159.767 7.60303 159.865 7.75731C159.977 7.91159 160.131 8.03081 160.328 8.11497C160.524 8.18509 160.749 8.22016 161.001 8.22016H161.716V10.5134H161.169C160.356 10.5134 159.64 10.3731 159.023 10.0926C158.42 9.79805 157.95 9.38429 157.614 8.85131C157.277 8.31834 157.109 7.69419 157.109 6.97889C157.109 6.01111 157.424 5.22568 158.056 4.62257C158.701 4.00544 159.577 3.69688 160.685 3.69688H160.938C161.555 3.69688 162.088 3.78804 162.537 3.97038C162.986 4.13869 163.35 4.37011 163.631 4.66465C163.911 4.95919 164.108 5.27477 164.22 5.61138H164.031C164.199 5.26074 164.416 4.94516 164.683 4.66465C164.949 4.37011 165.314 4.13869 165.777 3.97038C166.24 3.78804 166.843 3.69688 167.586 3.69688H168.848C169.76 3.69688 170.538 3.75298 171.184 3.86519C171.829 3.96337 172.397 4.2018 172.888 4.58049C173.252 4.84698 173.54 5.1836 173.75 5.59034C173.961 5.99709 174.066 6.51604 174.066 7.14719C174.066 8.07289 173.771 8.83729 173.182 9.44039C172.593 10.0295 171.766 10.324 170.7 10.324ZM171.373 0.499023C172.271 0.499023 172.993 0.68837 173.54 1.06706C174.087 1.43173 174.501 1.95068 174.781 2.62391L172.635 3.14988C172.551 2.99559 172.453 2.86235 172.341 2.75014C172.229 2.63794 172.095 2.55379 171.941 2.49768C171.787 2.44158 171.604 2.41353 171.394 2.41353C171.043 2.41353 170.77 2.49768 170.573 2.66599C170.391 2.82027 170.3 3.02365 170.3 3.27611C170.3 3.5426 170.377 3.78804 170.531 4.01245C170.686 4.22284 170.896 4.41219 171.163 4.58049L169.017 5.37996C168.75 5.14152 168.505 4.82594 168.28 4.43323C168.07 4.02648 167.965 3.56363 167.965 3.04468C167.965 2.59586 168.084 2.1821 168.322 1.80341C168.561 1.41069 168.932 1.09511 169.437 0.856678C169.942 0.618242 170.588 0.499023 171.373 0.499023Z" fill="white"/>
<path d="M142.126 8.21777C143.094 8.21777 143.9 8.41413 144.545 8.80685C145.191 9.19957 145.71 9.71852 146.102 10.3637C146.495 11.0089 146.776 11.7242 146.944 12.5096C147.112 13.281 147.196 14.0595 147.196 14.8449C147.196 16.2615 147.021 17.5939 146.67 18.8422C146.334 20.0905 145.843 21.2546 145.198 22.3346C144.567 23.4286 143.809 24.4385 142.926 25.3642C142.042 26.3039 141.067 27.1735 140.001 27.9729L138.213 25.9953C139.054 25.3361 139.847 24.6278 140.59 23.8704C141.348 23.113 142.007 22.2855 142.568 21.3879C143.143 20.5043 143.592 19.5295 143.914 18.4635C144.237 17.3976 144.398 16.2124 144.398 14.908C144.398 14.4311 144.356 13.9262 144.272 13.3932C144.202 12.8603 144.076 12.3624 143.893 11.8995C143.725 11.4367 143.487 11.058 143.178 10.7634C142.883 10.4689 142.505 10.3216 142.042 10.3216C141.747 10.3216 141.495 10.4058 141.285 10.5741C141.074 10.7424 140.969 10.9668 140.969 11.2473C140.969 11.5278 141.046 11.7522 141.2 11.9206C141.355 12.0748 141.544 12.18 141.768 12.2361C142.007 12.2922 142.231 12.3203 142.442 12.3203C143.017 12.3203 143.508 12.166 143.914 11.8574C144.321 11.5348 144.7 11.1912 145.05 10.8265L145.808 12.9935C145.317 13.3442 144.777 13.6667 144.188 13.9613C143.613 14.2558 142.897 14.4031 142.042 14.4031C140.976 14.4031 140.106 14.1506 139.433 13.6457C138.774 13.1408 138.444 12.3553 138.444 11.2894C138.444 10.7003 138.585 10.1744 138.865 9.71151C139.146 9.24866 139.559 8.88399 140.106 8.6175C140.653 8.35102 141.327 8.21777 142.126 8.21777Z" fill="white"/>
<path d="M131.147 27.2165C130.53 27.2165 130.025 27.1043 129.632 26.8798C129.225 26.6554 128.839 26.3048 128.475 25.8279H128.959C128.622 26.1786 128.306 26.4521 128.012 26.6484C127.703 26.8588 127.381 27.0061 127.044 27.0902C126.708 27.1744 126.301 27.2165 125.824 27.2165C125.01 27.2165 124.365 27.0411 123.888 26.6905C123.412 26.3399 123.075 25.891 122.879 25.344C122.682 24.8111 122.584 24.2641 122.584 23.703C122.584 22.8895 122.752 22.1953 123.089 21.6202C123.411 21.0592 123.853 20.6244 124.414 20.3158C124.975 20.0213 125.607 19.874 126.308 19.874C127.177 19.874 127.837 20.0774 128.285 20.4841C128.72 20.9049 128.938 21.4168 128.938 22.02C128.938 22.7212 128.713 23.2542 128.264 23.6189C127.802 23.9835 127.114 24.1659 126.203 24.1659C125.712 24.1659 125.27 24.0677 124.877 23.8713C124.47 23.689 124.12 23.4646 123.825 23.1981L124.393 21.7675C124.562 21.9919 124.786 22.2023 125.067 22.3986C125.333 22.595 125.642 22.6932 125.992 22.6932C126.301 22.6932 126.546 22.6371 126.729 22.5249C126.897 22.4267 126.981 22.2654 126.981 22.041C126.981 21.8867 126.932 21.7394 126.834 21.5992C126.722 21.4729 126.546 21.4098 126.308 21.4098C125.929 21.4098 125.585 21.5641 125.277 21.8727C124.968 22.1812 124.814 22.7282 124.814 23.5137V23.7451C124.814 24.0958 124.863 24.3903 124.961 24.6287C125.045 24.8672 125.193 25.0425 125.403 25.1547C125.6 25.2669 125.852 25.323 126.161 25.323C126.708 25.323 127.086 25.1968 127.297 24.9443C127.493 24.7059 127.612 24.4534 127.654 24.1869H129.695C129.765 24.6918 129.926 25.0074 130.179 25.1337C130.417 25.2599 130.691 25.323 130.999 25.323C131.364 25.323 131.631 25.2178 131.799 25.0074C131.953 24.797 132.03 24.5516 132.03 24.2711C132.03 23.696 131.813 23.2121 131.378 22.8194C130.943 22.4267 130.452 22.0761 129.905 21.7675L131.252 19.874C131.841 20.1686 132.374 20.5262 132.851 20.947C133.328 21.3678 133.706 21.8446 133.987 22.3776C134.253 22.9106 134.387 23.5067 134.387 24.1659C134.387 25.0775 134.113 25.8139 133.566 26.3749C133.005 26.936 132.199 27.2165 131.147 27.2165Z" fill="white"/>
<path d="M130.731 18.9942C130.058 18.9942 129.462 18.896 128.943 18.6997C128.424 18.5033 127.898 18.1737 127.365 17.7108C126.846 17.234 126.222 16.5888 125.492 15.7753C125.1 15.3265 124.791 15.0179 124.567 14.8496C124.342 14.6673 124.083 14.5761 123.788 14.5761C123.564 14.5761 123.339 14.6673 123.115 14.8496C122.905 15.0179 122.799 15.2844 122.799 15.6491C122.799 16.0839 122.912 16.3854 123.136 16.5537C123.375 16.722 123.648 16.8062 123.957 16.8062C124.293 16.8062 124.63 16.6659 124.966 16.3854C125.303 16.1049 125.541 15.6421 125.682 14.9969L127.428 16.8483C127.147 17.241 126.853 17.6057 126.544 17.9423C126.25 18.2649 125.878 18.5243 125.429 18.7207C124.98 18.903 124.377 18.9942 123.62 18.9942C122.792 18.9942 122.112 18.8399 121.579 18.5313C121.06 18.2088 120.675 17.795 120.422 17.2901C120.184 16.7851 120.064 16.2522 120.064 15.6911C120.064 15.0039 120.226 14.4148 120.548 13.9239C120.871 13.419 121.313 13.0263 121.874 12.7458C122.435 12.4652 123.066 12.325 123.767 12.325C124.356 12.325 124.875 12.4021 125.324 12.5564C125.773 12.7107 126.208 12.9632 126.628 13.3138C127.063 13.6644 127.54 14.1273 128.059 14.7023C128.508 15.1932 128.873 15.5649 129.153 15.8174C129.448 16.0698 129.714 16.2381 129.953 16.3223C130.205 16.4065 130.493 16.4485 130.815 16.4485C131.208 16.4485 131.53 16.3083 131.783 16.0278C132.049 15.7472 132.183 15.3265 132.183 14.7655C132.183 14.1062 132.035 13.5242 131.741 13.0193C131.446 12.5143 131.061 12.0655 130.584 11.6728C130.121 11.266 129.623 10.8944 129.09 10.5578L130.731 8.22248C131.558 8.6713 132.302 9.20427 132.961 9.8214C133.62 10.4385 134.139 11.1398 134.518 11.9253C134.911 12.6967 135.107 13.5663 135.107 14.534C135.107 15.4317 134.939 16.2171 134.602 16.8903C134.265 17.5495 133.768 18.0685 133.108 18.4472C132.463 18.8119 131.671 18.9942 130.731 18.9942ZM133.887 21.6661C133.101 21.6661 132.47 21.5399 131.993 21.2874C131.53 21.0349 131.194 20.7053 130.983 20.2986C130.787 19.8918 130.689 19.457 130.689 18.9942C130.689 18.8119 130.703 18.6225 130.731 18.4262C130.773 18.2298 130.829 18.0404 130.899 17.8581H133.613C133.543 17.9703 133.487 18.0825 133.445 18.1947C133.403 18.2929 133.382 18.3911 133.382 18.4893C133.382 18.6436 133.417 18.7838 133.487 18.91C133.557 19.0363 133.655 19.1344 133.782 19.2046C133.908 19.2747 134.055 19.3098 134.223 19.3098C134.448 19.3098 134.644 19.2677 134.812 19.1835C134.995 19.1134 135.212 18.9872 135.465 18.8048L136.748 20.6562C136.299 20.9929 135.843 21.2453 135.38 21.4136C134.932 21.5819 134.434 21.6661 133.887 21.6661ZM124.293 10.4105C123.634 10.4105 123.052 10.3053 122.547 10.0949C122.042 9.87049 121.614 9.51284 121.264 9.02194C120.913 8.51701 120.64 7.83677 120.443 6.9812L123.304 6.24486C123.459 6.96017 123.627 7.4721 123.809 7.78067C123.992 8.07521 124.244 8.22248 124.567 8.22248C124.777 8.22248 124.987 8.14534 125.198 7.99105C125.408 7.83677 125.689 7.54223 126.039 7.10743L126.923 5.99239C127.414 5.37526 127.877 4.89138 128.312 4.54074C128.746 4.17607 129.216 3.90958 129.721 3.74127C130.24 3.57297 130.857 3.4818 131.573 3.46777L131.741 5.90824C131.264 5.93629 130.85 6.02045 130.5 6.1607C130.163 6.28693 129.854 6.46927 129.574 6.7077C129.293 6.94614 128.999 7.26172 128.69 7.65444L127.996 8.51701C127.729 8.85363 127.414 9.16921 127.049 9.46375C126.685 9.74426 126.271 9.97569 125.808 10.158C125.359 10.3263 124.854 10.4105 124.293 10.4105Z" fill="white"/>
<path d="M98.4492 13.7719C98.4492 12.734 98.6736 11.8434 99.1225 11.1C99.5713 10.3567 100.23 9.78164 101.1 9.37489C101.984 8.96815 103.057 8.76477 104.319 8.76477C105.623 8.76477 106.71 8.95412 107.58 9.33281C108.45 9.71151 109.102 10.2725 109.537 11.0159C109.985 11.7452 110.21 12.6569 110.21 13.7509C110.21 14.7748 109.992 15.6864 109.558 16.4859C109.123 17.2713 108.464 17.8885 107.58 18.3373C106.71 18.7721 105.623 18.9895 104.319 18.9895C103.029 18.9895 101.942 18.7651 101.058 18.3163C100.188 17.8674 99.5362 17.2503 99.1014 16.4649C98.6666 15.6794 98.4492 14.7818 98.4492 13.7719ZM101.374 13.4984C101.374 14.354 101.619 15.0623 102.11 15.6233C102.615 16.1703 103.351 16.4438 104.319 16.4438C104.978 16.4438 105.525 16.3246 105.96 16.0862C106.409 15.8337 106.738 15.4971 106.949 15.0763C107.173 14.6415 107.285 14.1506 107.285 13.6036C107.285 13.0426 107.173 12.5377 106.949 12.0889C106.738 11.64 106.416 11.2824 105.981 11.0159C105.546 10.7354 104.992 10.5951 104.319 10.5951C103.66 10.5951 103.106 10.7284 102.657 10.9949C102.222 11.2613 101.9 11.619 101.689 12.0678C101.479 12.5026 101.374 12.9795 101.374 13.4984ZM115.07 14.8659C114.424 14.8659 113.891 14.7678 113.471 14.5714C113.05 14.375 112.713 14.1296 112.461 13.8351C112.222 13.5265 112.054 13.2039 111.956 12.8673C111.858 12.5307 111.809 12.2221 111.809 11.9416C111.809 11.3946 111.9 10.9317 112.082 10.553C112.279 10.1744 112.475 9.83073 112.671 9.52216L114.922 9.69047C114.614 9.98501 114.368 10.2725 114.186 10.553C114.004 10.8336 113.913 11.1912 113.913 11.626C113.913 11.9767 114.018 12.2642 114.228 12.4886C114.453 12.713 114.74 12.8252 115.091 12.8252C115.497 12.8252 115.799 12.727 115.995 12.5307C116.192 12.3203 116.29 12.0608 116.29 11.7522C116.29 11.3315 116.122 11.0369 115.785 10.8686C115.448 10.6863 114.993 10.5951 114.417 10.5951H98.6386V8.21777H112.608C113.464 8.21777 114.172 8.24582 114.733 8.30193C115.294 8.344 115.771 8.42816 116.164 8.55439C116.57 8.68062 116.942 8.87698 117.279 9.14347C117.629 9.40995 117.91 9.74657 118.12 10.1533C118.331 10.5601 118.436 11.072 118.436 11.6891C118.436 12.6008 118.141 13.3582 117.552 13.9613C116.963 14.5644 116.136 14.8659 115.07 14.8659Z" fill="white"/>
<path d="M84.7705 18.9895C83.8728 18.9895 83.1505 18.8422 82.6035 18.5477C82.0705 18.2391 81.6848 17.8464 81.4464 17.3695C81.222 16.8927 81.1098 16.3877 81.1098 15.8548C81.1098 15.1675 81.2641 14.5995 81.5726 14.1506C81.8812 13.7018 82.2879 13.3722 82.7929 13.1618C83.3118 12.9374 83.8588 12.8252 84.4339 12.8252C85.1632 12.8252 85.7733 12.9514 86.2642 13.2039C86.7691 13.4423 87.1829 13.7299 87.5055 14.0665C87.8421 14.3891 88.1086 14.6766 88.305 14.9291L87.232 17.075C87.0777 16.6963 86.8884 16.3386 86.6639 16.002C86.4536 15.6654 86.2011 15.3919 85.9066 15.1815C85.612 14.9571 85.2614 14.8449 84.8546 14.8449C84.5461 14.8449 84.2656 14.9291 84.0131 15.0974C83.7606 15.2657 83.6344 15.5322 83.6344 15.8968C83.6344 16.2194 83.7396 16.4719 83.95 16.6542C84.1604 16.8365 84.4409 16.9277 84.7915 16.9277C85.2544 16.9277 85.619 16.8015 85.8855 16.549C86.166 16.2966 86.3624 15.9599 86.4746 15.5392C86.5868 15.1184 86.6429 14.6626 86.6429 14.1717V13.7719C86.6429 13.1829 86.5658 12.6639 86.4115 12.2151C86.2572 11.7663 86.0118 11.4156 85.6751 11.1632C85.3385 10.8967 84.8967 10.7634 84.3497 10.7634C84.0131 10.7634 83.7115 10.8336 83.4451 10.9738C83.1786 11.1 82.9542 11.2824 82.7718 11.5208C82.6035 11.7452 82.4703 12.0047 82.3721 12.2992H79.6581C79.588 12.0748 79.4618 11.8294 79.2794 11.5629C79.1111 11.2824 78.8587 11.0439 78.522 10.8476C78.1854 10.6372 77.7226 10.532 77.1335 10.532C76.6426 10.532 76.2429 10.6162 75.9343 10.7845C75.6398 10.9388 75.4925 11.1982 75.4925 11.5629C75.4925 11.7032 75.5135 11.8364 75.5556 11.9626C75.6117 12.0748 75.7099 12.173 75.8501 12.2572C75.9764 12.3273 76.1377 12.3904 76.334 12.4465C76.5444 12.4886 76.867 12.5096 77.3018 12.5096H78.5431V14.6976H77.2387C76.8039 14.6976 76.4673 14.7187 76.2288 14.7607C75.9904 14.8028 75.8011 14.88 75.6608 14.9922C75.5626 15.0763 75.4785 15.1815 75.4083 15.3078C75.3522 15.42 75.3242 15.5532 75.3242 15.7075C75.3242 15.988 75.4154 16.2194 75.5977 16.4018C75.794 16.5841 76.1096 16.6753 76.5444 16.6753C77.0073 16.6753 77.421 16.556 77.7857 16.3176C78.1644 16.0792 78.5291 15.7636 78.8797 15.3709L80.689 16.9698C80.3103 17.4046 79.8966 17.7763 79.4477 18.0848C79.0129 18.3794 78.5291 18.6038 77.9961 18.7581C77.4631 18.9123 76.853 18.9895 76.1657 18.9895C74.8473 18.9895 73.8515 18.716 73.1783 18.169C72.5191 17.608 72.1895 16.9207 72.1895 16.1072C72.1895 15.7145 72.2666 15.3498 72.4209 15.0132C72.5752 14.6626 72.8136 14.361 73.1362 14.1086C73.4728 13.8421 73.8936 13.6317 74.3985 13.4774L74.3775 13.7509C73.6762 13.5125 73.1642 13.1548 72.8416 12.6779C72.5191 12.2011 72.3578 11.6751 72.3578 11.1C72.3578 10.2305 72.7364 9.53619 73.4938 9.01724C74.2512 8.48426 75.2541 8.21777 76.5023 8.21777C77.2457 8.21777 77.8769 8.2879 78.3958 8.42816C78.9288 8.55439 79.4197 8.76477 79.8685 9.05931C80.3173 9.33983 80.7732 9.72553 81.236 10.2164L80.7942 10.2375C81.1168 9.8167 81.4534 9.45905 81.8041 9.16451C82.1687 8.85594 82.5755 8.62452 83.0243 8.47023C83.4871 8.30193 84.0341 8.21777 84.6653 8.21777C85.7172 8.21777 86.5938 8.45621 87.2951 8.93308C87.9964 9.39593 88.5223 10.0481 88.873 10.8897C89.2377 11.7172 89.42 12.6709 89.42 13.7509C89.42 14.8589 89.2517 15.8057 88.9151 16.5911C88.5784 17.3625 88.0665 17.9586 87.3793 18.3794C86.692 18.7861 85.8224 18.9895 84.7705 18.9895Z" fill="white"/>
<path d="M56.0082 8.74374C57.1864 8.74374 58.2033 8.91906 59.0588 9.2697C59.9144 9.62034 60.5736 10.1463 61.0364 10.8476C61.4993 11.5489 61.7307 12.4185 61.7307 13.4564C61.7307 14.3119 61.6536 15.0693 61.4993 15.7285C61.345 16.3877 61.1487 16.9768 60.9102 17.4958C60.6718 18.0007 60.4333 18.4705 60.1949 18.9053L57.3757 17.8113C57.6142 17.4887 57.8386 17.1311 58.049 16.7384C58.2734 16.3316 58.4557 15.8828 58.596 15.3919C58.7362 14.901 58.8064 14.368 58.8064 13.793C58.8064 13.246 58.7152 12.727 58.5329 12.2361C58.3505 11.7452 58.049 11.3525 57.6282 11.058C57.2215 10.7494 56.6604 10.5951 55.9451 10.5951C55.3701 10.5951 54.8722 10.7284 54.4514 10.9949C54.0447 11.2613 53.7291 11.633 53.5047 12.1099C53.2803 12.5727 53.168 13.1127 53.168 13.7299C53.168 14.5434 53.3013 15.2937 53.5678 15.981C53.8343 16.6542 54.1779 17.2573 54.5987 17.7903L51.7585 18.9053C51.3237 18.162 50.959 17.3485 50.6645 16.4649C50.3699 15.5813 50.2227 14.6485 50.2227 13.6667C50.2227 12.7411 50.4401 11.9065 50.8748 11.1632C51.3237 10.4198 51.9759 9.83073 52.8314 9.39593C53.687 8.96113 54.7459 8.74374 56.0082 8.74374ZM66.5906 14.8659C65.9454 14.8659 65.4125 14.7678 64.9917 14.5714C64.5709 14.375 64.2413 14.1296 64.0029 13.8351C63.7644 13.5265 63.5961 13.2039 63.498 12.8673C63.3998 12.5307 63.3507 12.2221 63.3507 11.9416C63.3507 11.3946 63.4419 10.9317 63.6242 10.553C63.8205 10.1744 64.0169 9.83073 64.2133 9.52216L66.4644 9.69047C66.1558 9.98501 65.9104 10.2725 65.728 10.553C65.5457 10.8336 65.4545 11.1912 65.4545 11.626C65.4545 11.9767 65.5597 12.2642 65.7701 12.4886C65.9945 12.713 66.282 12.8252 66.6327 12.8252C67.0394 12.8252 67.341 12.727 67.5373 12.5307C67.7337 12.3203 67.8319 12.0608 67.8319 11.7522C67.8319 11.3315 67.6636 11.0369 67.327 10.8686C66.9903 10.6863 66.5415 10.5951 65.9805 10.5951H50.3278V8.21777H64.1501C65.0057 8.21777 65.714 8.24582 66.275 8.30193C66.8361 8.344 67.3129 8.42816 67.7057 8.55439C68.1124 8.68062 68.4841 8.87698 68.8207 9.14347C69.1713 9.40995 69.4519 9.74657 69.6622 10.1533C69.8726 10.5601 69.9778 11.072 69.9778 11.6891C69.9778 12.6008 69.6763 13.3582 69.0732 13.9613C68.4841 14.5644 67.6566 14.8659 66.5906 14.8659Z" fill="white"/>
<path d="M37.2227 14.3829C37.2227 13.4993 37.433 12.7068 37.8538 12.0056C38.2746 11.3043 38.8707 10.7503 39.6421 10.3435C40.4135 9.93677 41.3322 9.7334 42.3981 9.7334C43.4781 9.7334 44.3968 9.93677 45.1542 10.3435C45.9116 10.7503 46.4866 11.3043 46.8793 12.0056C47.2861 12.7068 47.4894 13.4993 47.4894 14.3829C47.4894 15.2665 47.2861 16.059 46.8793 16.7603C46.4726 17.4475 45.8835 17.9945 45.1121 18.4013C44.3547 18.794 43.436 18.9903 42.3561 18.9903C41.2901 18.9903 40.3714 18.787 39.6 18.3802C38.8286 17.9735 38.2395 17.4265 37.8328 16.7392C37.426 16.0379 37.2227 15.2525 37.2227 14.3829ZM40.0418 14.3619C40.0418 15.0071 40.2312 15.5541 40.6099 16.0029C41.0026 16.4377 41.5846 16.6551 42.3561 16.6551C42.875 16.6551 43.3028 16.5569 43.6394 16.3605C43.976 16.1501 44.2285 15.8696 44.3968 15.519C44.5791 15.1683 44.6703 14.7826 44.6703 14.3619C44.6703 13.7167 44.4669 13.1767 44.0602 12.7419C43.6675 12.2931 43.0994 12.0687 42.3561 12.0687C41.8652 12.0687 41.4444 12.1739 41.0937 12.3843C40.7571 12.5806 40.4977 12.8541 40.3153 13.2048C40.133 13.5414 40.0418 13.9271 40.0418 14.3619Z" fill="white"/>
<path d="M27.241 18.9895C25.6421 18.9895 24.2886 18.73 23.1806 18.2111C22.0726 17.6781 21.231 16.9628 20.656 16.0651C20.095 15.1535 19.8145 14.1296 19.8145 12.9935C19.8145 12.0117 20.0038 11.1632 20.3825 10.4479C20.7752 9.73255 21.3222 9.18554 22.0235 8.80685C22.7248 8.41413 23.5313 8.21777 24.4429 8.21777C25.2845 8.21777 25.9647 8.37206 26.4837 8.68062C27.0026 8.97516 27.3813 9.36087 27.6197 9.83774C27.8582 10.3006 27.9774 10.7845 27.9774 11.2894C27.9774 11.9346 27.8371 12.4886 27.5566 12.9514C27.2761 13.4143 26.8694 13.7649 26.3364 14.0034C25.8034 14.2418 25.1512 14.361 24.3798 14.361C23.8188 14.361 23.3209 14.2839 22.8861 14.1296C22.4513 13.9753 22.0726 13.786 21.75 13.5616C21.4414 13.3371 21.182 13.1338 20.9716 12.9514L21.4555 10.9738C21.6238 11.1842 21.8201 11.3946 22.0445 11.605C22.283 11.8154 22.5495 11.9907 22.844 12.1309C23.1385 12.2572 23.4541 12.3203 23.7907 12.3203C24.2255 12.3203 24.5762 12.2431 24.8427 12.0889C25.1091 11.9206 25.2424 11.6471 25.2424 11.2684C25.2424 11.0299 25.1582 10.8125 24.9899 10.6162C24.8216 10.4058 24.5762 10.3006 24.2536 10.3006C23.7627 10.3006 23.3559 10.511 23.0333 10.9317C22.7108 11.3385 22.5495 11.8294 22.5495 12.4044V13.2249C22.5495 13.5616 22.6196 13.9192 22.7598 14.2979C22.9141 14.6626 23.1666 15.0132 23.5172 15.3498C23.8819 15.6724 24.3728 15.9389 24.9899 16.1493C25.6211 16.3457 26.4065 16.4438 27.3462 16.4438C28.6647 16.4438 29.7236 16.2194 30.5231 15.7706C31.3365 15.3078 31.7433 14.5854 31.7433 13.6036C31.7433 12.9444 31.5399 12.3974 31.1332 11.9626C30.7405 11.5138 30.1233 11.058 29.2818 10.5951L30.9228 8.21777C32.0308 8.76477 32.9285 9.4871 33.6157 10.3847C34.317 11.2684 34.6676 12.3553 34.6676 13.6457C34.6676 14.6415 34.4012 15.5462 33.8682 16.3597C33.3492 17.1591 32.5428 17.7973 31.4488 18.2742C30.3547 18.7511 28.9522 18.9895 27.241 18.9895Z" fill="white"/>
<path d="M15.6737 7.22936C15.6737 7.72026 15.5755 8.17609 15.3792 8.59686C15.1828 9.01763 14.9093 9.34724 14.5586 9.58567C14.18 9.85216 13.6891 10.0766 13.086 10.2589C12.4969 10.4272 11.8938 10.5114 11.2766 10.5114H7.84736V8.21817H11.2977C11.7044 8.21817 12.006 8.19713 12.2023 8.15505C12.4127 8.09895 12.574 8.02181 12.6862 7.92363C12.7704 7.83948 12.8335 7.74831 12.8756 7.65013C12.9176 7.53792 12.9387 7.41871 12.9387 7.29247C12.9387 7.12417 12.9176 6.98391 12.8756 6.8717C12.8335 6.74547 12.7634 6.64028 12.6652 6.55613C12.553 6.45795 12.3917 6.38782 12.1813 6.34574C11.9849 6.30366 11.6553 6.28263 11.1925 6.28263H3.09266V3.90527H10.919C11.9148 3.90527 12.6862 3.98242 13.2332 4.1367C13.7942 4.27695 14.2781 4.51539 14.6849 4.85201C14.9794 5.10447 15.2179 5.42706 15.4002 5.81978C15.5825 6.2125 15.6737 6.68236 15.6737 7.22936ZM8.28917 18.9899C6.35363 18.9899 4.77574 18.7655 3.55551 18.3167C2.33527 17.8678 1.43763 17.2367 0.862579 16.4232C0.287526 15.6097 0 14.67 0 13.604C0 12.7905 0.189347 12.0752 0.56804 11.4581C0.946733 10.841 1.46568 10.3571 2.12489 10.0064C2.79812 9.6558 3.56252 9.48048 4.41809 9.48048C5.1895 9.48048 5.83468 9.62074 6.35363 9.90125C6.87258 10.1677 7.2653 10.5324 7.53179 10.9953C7.79827 11.4581 7.93152 11.977 7.93152 12.5521C7.93152 13.5339 7.61594 14.2773 6.98479 14.7822C6.35363 15.2731 5.49105 15.5185 4.39705 15.5185C3.89212 15.5185 3.41525 15.4414 2.96643 15.2871C2.53163 15.1188 2.13892 14.9154 1.78827 14.677C1.43763 14.4386 1.14309 14.2141 0.904656 14.0038L1.61997 12.2996C1.88645 12.6082 2.20904 12.9027 2.58774 13.1833C2.96643 13.4497 3.41525 13.583 3.9342 13.583C4.35497 13.583 4.6986 13.4988 4.96509 13.3305C5.2456 13.1622 5.38586 12.8957 5.38586 12.5311C5.38586 12.2505 5.29469 12.0191 5.11236 11.8368C4.93002 11.6545 4.65652 11.5633 4.29186 11.5633C3.99732 11.5633 3.7168 11.6474 3.45032 11.8158C3.18383 11.97 2.96643 12.2085 2.79812 12.5311C2.62981 12.8396 2.54566 13.2253 2.54566 13.6882V13.8144C2.54566 14.2352 2.65085 14.6139 2.86124 14.9505C3.08565 15.2871 3.42928 15.5746 3.89212 15.8131C4.35497 16.0375 4.95106 16.2128 5.6804 16.339C6.40973 16.4512 7.28634 16.5073 8.31021 16.5073C9.39019 16.5073 10.3299 16.4583 11.1294 16.3601C11.9288 16.2619 12.588 16.1076 13.107 15.8972C13.6259 15.6728 14.0116 15.3783 14.2641 15.0136C14.5306 14.6349 14.6638 14.1721 14.6638 13.6251V13.5619C14.6638 13.0009 14.4955 12.5241 14.1589 12.1313C13.8223 11.7386 13.3454 11.5423 12.7283 11.5423C12.4197 11.5423 12.1322 11.6264 11.8657 11.7947C11.6133 11.949 11.487 12.2015 11.487 12.5521C11.487 12.9308 11.6062 13.1973 11.8447 13.3516C12.0831 13.4918 12.3777 13.5619 12.7283 13.5619C13.0789 13.5619 13.3735 13.4918 13.6119 13.3516C13.8504 13.2113 14.0537 13.0149 14.222 12.7625C14.3903 12.496 14.5236 12.1874 14.6218 11.8368L15.7789 13.3726C15.4843 13.7934 15.1828 14.1721 14.8742 14.5087C14.5797 14.8313 14.222 15.0837 13.8013 15.2661C13.3805 15.4484 12.8335 15.5396 12.1603 15.5396C11.6273 15.5396 11.1153 15.4554 10.6244 15.2871C10.1335 15.1048 9.73382 14.8172 9.42525 14.4245C9.13071 14.0178 8.98344 13.4778 8.98344 12.8046C8.98344 11.9911 9.285 11.3459 9.8881 10.869C10.4912 10.3781 11.3327 10.1327 12.4127 10.1327C12.6792 10.1327 12.9176 10.1397 13.128 10.1537C13.3384 10.1677 13.5348 10.1888 13.7171 10.2168C13.8994 10.2309 14.0748 10.2589 14.2431 10.301L11.8026 10.3431C11.6203 10.287 11.4239 10.2449 11.2135 10.2168C11.0172 10.1748 10.8138 10.1467 10.6034 10.1327C10.407 10.1046 10.1967 10.0906 9.97225 10.0906L10.8769 8.44959C11.7605 8.49167 12.581 8.63894 13.3384 8.8914C14.1098 9.12984 14.7831 9.47347 15.3581 9.92229C15.9332 10.3571 16.382 10.8901 16.7046 11.5212C17.0412 12.1383 17.2095 12.8466 17.2095 13.6461C17.2095 14.5437 17.0412 15.3292 16.7046 16.0024C16.368 16.6616 15.842 17.2156 15.1267 17.6645C14.4114 18.0993 13.4857 18.4289 12.3496 18.6533C11.2276 18.8777 9.87407 18.9899 8.28917 18.9899Z" fill="white"/>
</svg>
