<svg width="328" height="30" viewBox="0 0 328 30" fill="none" xmlns="http://www.w3.org/2000/svg">
<path d="M323.722 27.6989C323.077 27.6989 322.551 27.5937 322.144 27.3833C321.723 27.1869 321.31 26.8293 320.903 26.3103H321.387C320.91 26.8293 320.468 27.1869 320.061 27.3833C319.641 27.5937 319.122 27.6989 318.505 27.6989C317.887 27.6989 317.375 27.5586 316.969 27.2781C316.562 26.9976 316.26 26.6259 316.064 26.1631C315.868 25.7002 315.77 25.2023 315.77 24.6693C315.77 23.7857 316.008 23.0213 316.485 22.3761C316.948 21.731 317.586 21.2331 318.399 20.8824C319.199 20.5318 320.103 20.3564 321.113 20.3564C322.151 20.3564 323.077 20.5388 323.89 20.9034C324.69 21.2821 325.321 21.7941 325.784 22.4393C326.247 23.0985 326.478 23.8559 326.478 24.7114C326.478 25.2163 326.394 25.6932 326.226 26.142C326.043 26.6049 325.749 26.9766 325.342 27.2571C324.935 27.5516 324.395 27.6989 323.722 27.6989ZM323.217 25.8054C323.498 25.8054 323.722 25.7002 323.89 25.4898C324.059 25.2795 324.143 24.9989 324.143 24.6483C324.143 23.9049 323.855 23.3159 323.28 22.8811C322.705 22.4603 321.983 22.2499 321.113 22.2499C320.174 22.2499 319.437 22.4603 318.904 22.8811C318.357 23.3018 318.084 23.8769 318.084 24.6062C318.084 24.9709 318.168 25.2584 318.336 25.4688C318.505 25.6932 318.736 25.8054 319.03 25.8054C319.311 25.8054 319.542 25.7353 319.725 25.595C319.893 25.4688 320.033 25.2865 320.146 25.048H322.081C322.193 25.3145 322.334 25.5039 322.502 25.6161C322.67 25.7423 322.909 25.8054 323.217 25.8054ZM320.082 29.0664L320.167 27.3623H322.018L322.165 29.0664H320.082ZM319.998 23.8068C319.998 23.4982 320.103 23.2668 320.314 23.1125C320.524 22.9722 320.791 22.9021 321.113 22.9021C321.478 22.9021 321.758 22.9792 321.955 23.1335C322.151 23.2878 322.249 23.5122 322.249 23.8068C322.249 24.1294 322.151 24.3608 321.955 24.501C321.744 24.6413 321.464 24.7114 321.113 24.7114C320.777 24.7114 320.51 24.6343 320.314 24.48C320.103 24.3397 319.998 24.1153 319.998 23.8068Z" fill="white"/>
<path d="M322.799 19.4766C322.21 19.4766 321.642 19.3925 321.095 19.2242C320.562 19.0699 320.008 18.7823 319.433 18.3616C318.872 17.9408 318.255 17.3517 317.581 16.5943C317.273 16.2437 317.02 15.9842 316.824 15.8159C316.642 15.6336 316.487 15.5144 316.361 15.4583C316.235 15.3881 316.095 15.3531 315.94 15.3531C315.758 15.3531 315.59 15.4302 315.436 15.5845C315.281 15.7388 315.204 15.9492 315.204 16.2156C315.204 16.5663 315.281 16.938 315.436 17.3307C315.604 17.7234 315.842 18.1442 316.151 18.593L313.205 19.4977C312.953 19.0068 312.736 18.4878 312.553 17.9408C312.385 17.3798 312.301 16.7767 312.301 16.1315C312.301 15.4863 312.455 14.9183 312.764 14.4274C313.072 13.9224 313.493 13.5297 314.026 13.2492C314.573 12.9547 315.19 12.8074 315.877 12.8074C316.522 12.8074 317.091 12.9056 317.581 13.1019C318.072 13.2983 318.528 13.5788 318.949 13.9435C319.384 14.3082 319.826 14.743 320.274 15.2479C320.681 15.6827 321.025 16.0263 321.305 16.2788C321.586 16.5172 321.852 16.6855 322.105 16.7837C322.371 16.8819 322.659 16.931 322.967 16.931C323.36 16.931 323.69 16.7907 323.956 16.5102C324.223 16.2297 324.356 15.8089 324.356 15.2479C324.356 14.5887 324.209 14.0066 323.914 13.5017C323.619 12.9968 323.234 12.5479 322.757 12.1552C322.28 11.7485 321.775 11.3768 321.242 11.0402L322.904 8.7049C323.732 9.15372 324.475 9.68669 325.134 10.3038C325.793 10.921 326.312 11.6222 326.691 12.4077C327.084 13.1791 327.28 14.0487 327.28 15.0165C327.28 15.9141 327.105 16.6995 326.754 17.3728C326.418 18.032 325.913 18.5509 325.239 18.9296C324.58 19.2943 323.767 19.4766 322.799 19.4766ZM316.53 10.8929C315.87 10.8929 315.288 10.7877 314.783 10.5773C314.278 10.3529 313.851 9.99526 313.5 9.50436C313.149 8.99944 312.876 8.31919 312.679 7.46363L315.541 6.72728C315.695 7.44259 315.863 7.95452 316.046 8.26309C316.228 8.55763 316.48 8.7049 316.803 8.7049C317.013 8.7049 317.224 8.62776 317.434 8.47347C317.645 8.31919 317.925 8.02465 318.276 7.58986L319.159 6.47482C319.65 5.85769 320.113 5.3738 320.548 5.02316C320.983 4.65849 321.453 4.392 321.957 4.22369C322.476 4.05539 323.094 3.96422 323.809 3.9502L323.977 6.39066C323.5 6.41871 323.087 6.50287 322.736 6.64312C322.399 6.76935 322.091 6.95169 321.81 7.19013C321.53 7.42856 321.235 7.74414 320.927 8.13686L320.232 8.99944C319.966 9.33605 319.65 9.65163 319.286 9.94617C318.921 10.2267 318.507 10.4581 318.044 10.6404C317.595 10.8087 317.091 10.8929 316.53 10.8929Z" fill="white"/>
<path d="M299.576 14.8653C299.576 13.9817 299.787 13.1893 300.207 12.488C300.628 11.7867 301.224 11.2327 301.996 10.8259C302.767 10.4192 303.686 10.2158 304.752 10.2158C305.832 10.2158 306.75 10.4192 307.508 10.8259C308.265 11.2327 308.84 11.7867 309.233 12.488C309.64 13.1893 309.843 13.9817 309.843 14.8653C309.843 15.7489 309.64 16.5414 309.233 17.2427C308.826 17.9299 308.237 18.4769 307.466 18.8837C306.708 19.2764 305.79 19.4728 304.71 19.4728C303.644 19.4728 302.725 19.2694 301.954 18.8626C301.182 18.4559 300.593 17.9089 300.186 17.2216C299.78 16.5204 299.576 15.7349 299.576 14.8653ZM302.395 14.8443C302.395 15.4895 302.585 16.0365 302.963 16.4853C303.356 16.9201 303.938 17.1375 304.71 17.1375C305.229 17.1375 305.656 17.0393 305.993 16.843C306.33 16.6326 306.582 16.3521 306.75 16.0014C306.933 15.6508 307.024 15.2651 307.024 14.8443C307.024 14.1991 306.82 13.6591 306.414 13.2243C306.021 12.7755 305.453 12.5511 304.71 12.5511C304.219 12.5511 303.798 12.6563 303.447 12.8667C303.111 13.063 302.851 13.3365 302.669 13.6872C302.486 14.0238 302.395 14.4095 302.395 14.8443Z" fill="white"/>
<path d="M292.5 19.4766C291.911 19.4766 291.343 19.3925 290.796 19.2242C290.263 19.0699 289.709 18.7823 289.134 18.3616C288.573 17.9408 287.956 17.3517 287.283 16.5943C286.974 16.2437 286.722 15.9842 286.525 15.8159C286.343 15.6336 286.189 15.5144 286.062 15.4583C285.936 15.3881 285.796 15.3531 285.642 15.3531C285.459 15.3531 285.291 15.4302 285.137 15.5845C284.982 15.7388 284.905 15.9492 284.905 16.2156C284.905 16.5663 284.982 16.938 285.137 17.3307C285.305 17.7234 285.543 18.1442 285.852 18.593L282.907 19.4977C282.654 19.0068 282.437 18.4878 282.254 17.9408C282.086 17.3798 282.002 16.7767 282.002 16.1315C282.002 15.4863 282.156 14.9183 282.465 14.4274C282.773 13.9224 283.194 13.5297 283.727 13.2492C284.274 12.9547 284.891 12.8074 285.578 12.8074C286.224 12.8074 286.792 12.9056 287.283 13.1019C287.774 13.2983 288.229 13.5788 288.65 13.9435C289.085 14.3082 289.527 14.743 289.976 15.2479C290.382 15.6827 290.726 16.0263 291.006 16.2788C291.287 16.5172 291.553 16.6855 291.806 16.7837C292.072 16.8819 292.36 16.931 292.668 16.931C293.061 16.931 293.391 16.7907 293.657 16.5102C293.924 16.2297 294.057 15.8089 294.057 15.2479C294.057 14.5887 293.91 14.0066 293.615 13.5017C293.321 12.9968 292.935 12.5479 292.458 12.1552C291.981 11.7485 291.476 11.3768 290.943 11.0402L292.605 8.7049C293.433 9.15372 294.176 9.68669 294.835 10.3038C295.495 10.921 296.014 11.6222 296.392 12.4077C296.785 13.1791 296.981 14.0487 296.981 15.0165C296.981 15.9141 296.806 16.6995 296.455 17.3728C296.119 18.032 295.614 18.5509 294.941 18.9296C294.281 19.2943 293.468 19.4766 292.5 19.4766ZM286.231 10.8929C285.571 10.8929 284.989 10.7877 284.484 10.5773C283.98 10.3529 283.552 9.99526 283.201 9.50436C282.85 8.99944 282.577 8.31919 282.381 7.46363L285.242 6.72728C285.396 7.44259 285.564 7.95452 285.747 8.26309C285.929 8.55763 286.182 8.7049 286.504 8.7049C286.715 8.7049 286.925 8.62776 287.135 8.47347C287.346 8.31919 287.626 8.02465 287.977 7.58986L288.861 6.47482C289.351 5.85769 289.814 5.3738 290.249 5.02316C290.684 4.65849 291.154 4.392 291.659 4.22369C292.178 4.05539 292.795 3.96422 293.51 3.9502L293.678 6.39066C293.201 6.41871 292.788 6.50287 292.437 6.64312C292.1 6.76935 291.792 6.95169 291.511 7.19013C291.231 7.42856 290.936 7.74414 290.628 8.13686L289.933 8.99944C289.667 9.33605 289.351 9.65163 288.987 9.94617C288.622 10.2267 288.208 10.4581 287.745 10.6404C287.297 10.8087 286.792 10.8929 286.231 10.8929Z" fill="white"/>
<path d="M260.685 19.4719C259.787 19.4719 259.065 19.3246 258.518 19.0301C257.985 18.7215 257.599 18.3288 257.36 17.8519C257.136 17.3751 257.024 16.8701 257.024 16.3372C257.024 15.6499 257.178 15.0819 257.487 14.6331C257.795 14.1842 258.202 13.8546 258.707 13.6442C259.226 13.4198 259.773 13.3076 260.348 13.3076C261.077 13.3076 261.687 13.4339 262.178 13.6863C262.683 13.9248 263.097 14.2123 263.42 14.5489C263.756 14.8715 264.023 15.159 264.219 15.4115L263.146 17.5574C262.992 17.1787 262.802 16.8211 262.578 16.4844C262.368 16.1478 262.115 15.8743 261.821 15.6639C261.526 15.4395 261.175 15.3273 260.769 15.3273C260.46 15.3273 260.18 15.4115 259.927 15.5798C259.675 15.7481 259.548 16.0146 259.548 16.3793C259.548 16.7018 259.654 16.9543 259.864 17.1366C260.074 17.319 260.355 17.4101 260.706 17.4101C261.168 17.4101 261.533 17.2839 261.8 17.0314C262.08 16.779 262.276 16.4424 262.389 16.0216C262.501 15.6008 262.557 15.145 262.557 14.6541V14.1281C262.557 13.5531 262.48 13.0341 262.326 12.5713C262.171 12.1084 261.926 11.7438 261.589 11.4773C261.267 11.2108 260.832 11.0775 260.285 11.0775C259.948 11.0775 259.64 11.1547 259.359 11.309C259.093 11.4492 258.868 11.6456 258.686 11.898C258.504 12.1505 258.37 12.445 258.286 12.7817H255.572C255.502 12.5573 255.376 12.3118 255.193 12.0453C255.025 11.7648 254.773 11.5264 254.436 11.33C254.099 11.1196 253.637 11.0144 253.048 11.0144C252.557 11.0144 252.157 11.0986 251.848 11.2669C251.554 11.4212 251.407 11.6807 251.407 12.0453C251.407 12.1856 251.428 12.3188 251.47 12.445C251.526 12.5573 251.624 12.6554 251.764 12.7396C251.89 12.8097 252.052 12.8728 252.248 12.9289C252.458 12.971 252.781 12.9921 253.216 12.9921H254.457V15.1801H253.153C252.718 15.1801 252.381 15.2011 252.143 15.2432C251.904 15.2852 251.715 15.3624 251.575 15.4746C251.477 15.5587 251.393 15.6639 251.322 15.7902C251.266 15.9024 251.238 16.0356 251.238 16.1899C251.238 16.4704 251.329 16.7018 251.512 16.8842C251.708 17.0665 252.024 17.1577 252.458 17.1577C252.921 17.1577 253.335 17.0385 253.7 16.8C254.078 16.5616 254.443 16.246 254.794 15.8533L256.603 17.4522C256.224 17.887 255.811 18.2587 255.362 18.5673C254.927 18.8618 254.443 19.0862 253.91 19.2405C253.377 19.3948 252.767 19.4719 252.08 19.4719C250.761 19.4719 249.766 19.1984 249.092 18.6514C248.433 18.0904 248.104 17.4031 248.104 16.5896C248.104 16.1969 248.181 15.8323 248.335 15.4956C248.489 15.145 248.728 14.8434 249.05 14.591C249.387 14.3245 249.808 14.1141 250.313 13.9598L250.292 14.2333C249.604 13.9809 249.092 13.6513 248.756 13.2445C248.433 12.8237 248.272 12.3258 248.272 11.7508C248.272 11.2318 248.454 10.79 248.819 10.4254C249.198 10.0467 249.716 9.75212 250.376 9.54173C251.035 9.33135 251.792 9.22616 252.648 9.22616C253.405 9.22616 254.036 9.31732 254.541 9.49966C255.06 9.66797 255.516 9.92043 255.909 10.257C256.316 10.5796 256.736 10.9794 257.171 11.4562L256.687 11.4773C257.024 11.0004 257.388 10.6147 257.781 10.3202C258.174 10.0116 258.595 9.78718 259.044 9.64693C259.506 9.49265 259.99 9.4155 260.495 9.4155C261.561 9.4155 262.452 9.60485 263.167 9.98354C263.882 10.3622 264.422 10.9163 264.787 11.6456C265.152 12.3749 265.334 13.2656 265.334 14.3175C265.334 15.3554 265.166 16.267 264.829 17.0525C264.493 17.8239 263.981 18.42 263.293 18.8408C262.606 19.2615 261.736 19.4719 260.685 19.4719ZM270.215 15.3484C269.57 15.3484 269.037 15.2502 268.616 15.0538C268.195 14.8575 267.866 14.612 267.627 14.3175C267.389 14.0089 267.22 13.6863 267.122 13.3497C267.024 13.0131 266.975 12.7045 266.975 12.424C266.975 11.849 267.066 11.3791 267.249 11.0144C267.431 10.6498 267.62 10.3131 267.817 10.0046L270.089 10.1729C269.78 10.4674 269.535 10.755 269.352 11.0355C269.17 11.316 269.079 11.6736 269.079 12.1084C269.079 12.4591 269.184 12.7466 269.394 12.971C269.619 13.1954 269.899 13.3076 270.236 13.3076C270.643 13.3076 270.944 13.2094 271.141 13.0131C271.351 12.8027 271.456 12.5432 271.456 12.2347C271.456 11.8139 271.281 11.5194 270.93 11.351C270.594 11.1687 270.138 11.0775 269.563 11.0775H255.257L253.826 10.5095L251.238 11.0775H248.335V8.7002H267.753C268.609 8.7002 269.317 8.72825 269.878 8.78435C270.453 8.82643 270.937 8.91058 271.33 9.03681C271.737 9.16304 272.108 9.3594 272.445 9.62589C272.796 9.89238 273.076 10.229 273.287 10.6357C273.497 11.0425 273.602 11.5544 273.602 12.1715C273.602 13.0832 273.301 13.8406 272.698 14.4437C272.108 15.0468 271.281 15.3484 270.215 15.3484Z" fill="white"/>
<path d="M233.446 19.4719C232.773 19.4719 232.176 19.3737 231.658 19.1774C231.139 18.981 230.613 18.6514 230.08 18.1886C229.561 17.7117 228.937 17.0665 228.207 16.253C227.815 15.8042 227.506 15.4956 227.282 15.3273C227.057 15.145 226.798 15.0538 226.503 15.0538C226.279 15.0538 226.054 15.145 225.83 15.3273C225.619 15.4956 225.514 15.7621 225.514 16.1268C225.514 16.5616 225.626 16.8631 225.851 17.0314C226.089 17.1998 226.363 17.2839 226.671 17.2839C227.008 17.2839 227.345 17.1437 227.681 16.8631C228.018 16.5826 228.256 16.1198 228.397 15.4746L230.143 17.326C229.862 17.7187 229.568 18.0834 229.259 18.42C228.965 18.7426 228.593 19.0021 228.144 19.1984C227.695 19.3807 227.092 19.4719 226.335 19.4719C225.507 19.4719 224.827 19.3176 224.294 19.0091C223.775 18.6865 223.389 18.2727 223.137 17.7678C222.899 17.2488 222.779 16.7089 222.779 16.1478C222.779 15.4746 222.941 14.8925 223.263 14.4016C223.586 13.8967 224.028 13.504 224.589 13.2235C225.15 12.943 225.781 12.8027 226.482 12.8027C227.071 12.8027 227.59 12.8798 228.039 13.0341C228.488 13.1884 228.923 13.4409 229.343 13.7915C229.778 14.1422 230.255 14.605 230.774 15.1801C231.223 15.671 231.594 16.0426 231.889 16.2951C232.184 16.5476 232.45 16.7159 232.688 16.8C232.927 16.8842 233.172 16.9263 233.425 16.9263C233.874 16.9263 234.231 16.786 234.498 16.5055C234.764 16.225 234.897 15.7761 234.897 15.159C234.897 14.4437 234.708 13.7915 234.329 13.2024C233.951 12.6134 233.432 12.1084 232.773 11.6877C232.113 11.2669 231.363 10.9653 230.521 10.783L235.55 10.6989C236.013 11.0074 236.412 11.3791 236.749 11.8139C237.099 12.2347 237.366 12.7115 237.548 13.2445C237.731 13.7635 237.822 14.3315 237.822 14.9486C237.822 15.8603 237.654 16.6598 237.317 17.347C236.98 18.0203 236.482 18.5462 235.823 18.9249C235.178 19.2896 234.386 19.4719 233.446 19.4719ZM242.513 15.3484C241.868 15.3484 241.335 15.2502 240.914 15.0538C240.494 14.8575 240.164 14.612 239.926 14.3175C239.687 14.0089 239.519 13.6863 239.421 13.3497C239.323 13.0131 239.273 12.7045 239.273 12.424C239.273 11.849 239.365 11.3791 239.547 11.0144C239.729 10.6498 239.919 10.3131 240.115 10.0046L242.366 10.1729C242.072 10.4674 241.833 10.755 241.651 11.0355C241.469 11.316 241.377 11.6736 241.377 12.1084C241.377 12.4591 241.483 12.7466 241.693 12.971C241.917 13.1954 242.198 13.3076 242.534 13.3076C242.941 13.3076 243.243 13.2094 243.439 13.0131C243.635 12.8027 243.734 12.5432 243.734 12.2347C243.734 11.8139 243.565 11.5194 243.229 11.351C242.892 11.1687 242.443 11.0775 241.882 11.0775H225.009V8.7002H240.052C240.907 8.7002 241.616 8.72825 242.177 8.78435C242.738 8.82643 243.215 8.91058 243.607 9.03681C244.014 9.16304 244.386 9.3594 244.722 9.62589C245.087 9.89238 245.368 10.229 245.564 10.6357C245.774 11.0425 245.88 11.5544 245.88 12.1715C245.88 13.0832 245.585 13.8406 244.996 14.4437C244.407 15.0468 243.579 15.3484 242.513 15.3484Z" fill="white"/>
<path d="M208.498 14.2591C208.498 13.2212 208.722 12.2885 209.171 11.4609C209.62 10.6194 210.279 9.95318 211.149 9.46228C212.033 8.95736 213.112 8.7049 214.389 8.7049C215.679 8.7049 216.759 8.94334 217.629 9.42021C218.498 9.88306 219.151 10.5282 219.585 11.3558C220.034 12.1833 220.259 13.144 220.259 14.238C220.259 15.2619 220.041 16.1736 219.606 16.973C219.172 17.7585 218.519 18.3756 217.65 18.8244C216.78 19.2592 215.693 19.4766 214.389 19.4766C213.084 19.4766 211.99 19.2522 211.107 18.8034C210.237 18.3546 209.585 17.7374 209.15 16.952C208.715 16.1666 208.498 15.2689 208.498 14.2591ZM211.422 13.9856C211.422 14.8411 211.668 15.5494 212.159 16.1105C212.664 16.6575 213.407 16.931 214.389 16.931C215.048 16.931 215.595 16.8117 216.03 16.5733C216.465 16.3208 216.794 15.9842 217.019 15.5635C217.243 15.1287 217.355 14.6378 217.355 14.0908C217.355 13.5297 217.243 13.0248 217.019 12.576C216.808 12.1272 216.479 11.7695 216.03 11.503C215.595 11.2225 215.048 11.0823 214.389 11.0823C213.716 11.0823 213.162 11.2155 212.727 11.482C212.292 11.7485 211.962 12.1061 211.738 12.5549C211.528 12.9897 211.422 13.4666 211.422 13.9856ZM213.505 10.8929C212.846 10.8929 212.264 10.7877 211.759 10.5773C211.254 10.3529 210.826 9.99526 210.476 9.50436C210.125 8.99944 209.852 8.31919 209.655 7.46363L212.516 6.72728C212.671 7.44259 212.839 7.95452 213.021 8.26309C213.204 8.55763 213.456 8.7049 213.779 8.7049C213.989 8.7049 214.199 8.62776 214.41 8.47347C214.62 8.31919 214.901 8.02465 215.251 7.58986L216.135 6.47482C216.626 5.85769 217.089 5.3738 217.524 5.02316C217.958 4.65849 218.428 4.392 218.933 4.22369C219.452 4.05539 220.069 3.96422 220.785 3.9502L220.953 6.39066C220.476 6.41871 220.062 6.50287 219.712 6.64312C219.375 6.76935 219.066 6.95169 218.786 7.19013C218.505 7.42856 218.211 7.74414 217.902 8.13686L217.208 8.99944C216.941 9.33605 216.626 9.65163 216.261 9.94617C215.897 10.2267 215.483 10.4581 215.02 10.6404C214.571 10.8087 214.066 10.8929 213.505 10.8929Z" fill="white"/>
<path d="M187.276 27.6989C186.393 27.6989 185.713 27.6007 185.236 27.4043C184.759 27.208 184.338 26.9415 183.973 26.6049H184.1C183.707 27.0397 183.307 27.3272 182.9 27.4675C182.48 27.6217 181.996 27.6989 181.449 27.6989C180.916 27.6989 180.446 27.5727 180.039 27.3202C179.632 27.0818 179.317 26.7311 179.092 26.2683C178.868 25.8054 178.756 25.2514 178.756 24.6062C178.756 23.7647 178.987 23.0213 179.45 22.3761C179.899 21.745 180.551 21.2471 181.407 20.8824C182.262 20.5318 183.272 20.3564 184.436 20.3564C185.404 20.3564 186.246 20.4196 186.961 20.5458C187.662 20.672 188.406 20.8684 189.191 21.1349L188.37 23.0283C187.823 22.818 187.347 22.6567 186.94 22.5445C186.519 22.4322 186.119 22.3551 185.741 22.313C185.348 22.271 184.92 22.2499 184.457 22.2499C183.672 22.2499 183.027 22.3551 182.522 22.5655C182.017 22.7899 181.652 23.0774 181.428 23.4281C181.189 23.7787 181.07 24.1714 181.07 24.6062C181.07 24.9709 181.154 25.2584 181.323 25.4688C181.477 25.6932 181.708 25.8054 182.017 25.8054C182.297 25.8054 182.536 25.7002 182.732 25.4898C182.914 25.2935 183.027 25.02 183.069 24.6693H185.088C185.117 24.9078 185.173 25.1182 185.257 25.3005C185.341 25.4828 185.474 25.6231 185.656 25.7213C185.839 25.8194 186.091 25.8685 186.414 25.8685C186.568 25.8826 186.736 25.8966 186.919 25.9106C187.087 25.9387 187.269 25.9527 187.466 25.9527C187.746 25.9527 187.971 25.9036 188.139 25.8054C188.293 25.7213 188.37 25.581 188.37 25.3846C188.37 25.2444 188.321 25.1322 188.223 25.048C188.111 24.9639 187.957 24.9218 187.76 24.9218C187.578 24.9218 187.431 24.9779 187.319 25.0901C187.192 25.2023 187.129 25.3776 187.129 25.6161C187.129 25.7984 187.178 25.9597 187.276 26.1C187.361 26.2542 187.48 26.3945 187.634 26.5207L186.077 26.9205C185.909 26.682 185.79 26.4085 185.72 26.1C185.635 25.7914 185.593 25.5459 185.593 25.3636C185.593 24.7465 185.79 24.2416 186.182 23.8488C186.561 23.4561 187.115 23.2598 187.845 23.2598C188.546 23.2598 189.114 23.4561 189.549 23.8488C189.969 24.2556 190.18 24.7535 190.18 25.3426C190.18 25.7353 190.096 26.107 189.927 26.4576C189.745 26.8223 189.443 27.1168 189.023 27.3412C188.602 27.5797 188.02 27.6989 187.276 27.6989Z" fill="white"/>
<path d="M193.856 19.4719C192.79 19.4719 191.892 19.2265 191.163 18.7356C190.434 18.2447 189.739 17.6275 189.08 16.8842L190.7 15.0749C190.995 15.4115 191.303 15.72 191.626 16.0006C191.934 16.2811 192.271 16.5055 192.636 16.6738C193.014 16.8421 193.421 16.9263 193.856 16.9263C194.347 16.9263 194.725 16.786 194.992 16.5055C195.258 16.225 195.392 15.8042 195.392 15.2432C195.392 14.584 195.244 14.0019 194.95 13.497C194.655 12.9921 194.27 12.5432 193.793 12.1505C193.316 11.7438 192.811 11.3721 192.278 11.0355L193.94 8.7002C194.767 9.14902 195.511 9.68199 196.17 10.2991C196.829 10.9163 197.348 11.6175 197.727 12.403C198.12 13.1744 198.316 14.044 198.316 15.0117C198.316 16.3582 197.937 17.4382 197.18 18.2517C196.423 19.0652 195.314 19.4719 193.856 19.4719Z" fill="white"/>
<path d="M185.869 19.4766C185.069 19.4766 184.389 19.3995 183.828 19.2452C183.267 19.1049 182.79 18.9016 182.397 18.6351C182.005 18.3546 181.654 18.032 181.346 17.6673L181.493 17.6883C181.156 18.1792 180.799 18.5579 180.42 18.8244C180.055 19.0769 179.662 19.2452 179.242 19.3293C178.835 19.4275 178.379 19.4766 177.874 19.4766C176.766 19.4766 175.869 19.0839 175.181 18.2985C174.494 17.513 174.15 16.398 174.15 14.9533C174.15 13.6069 174.48 12.4708 175.139 11.5451C175.798 10.6054 176.731 9.89708 177.937 9.42021C179.144 8.94334 180.553 8.7049 182.166 8.7049C183.022 8.7049 183.8 8.75399 184.501 8.85217C185.203 8.95035 185.883 9.09762 186.542 9.29398C187.201 9.47631 187.896 9.71475 188.625 10.0093L187.342 12.3656C186.584 12.029 185.918 11.7695 185.343 11.5872C184.782 11.4048 184.242 11.2786 183.723 11.2085C183.204 11.1243 182.636 11.0823 182.019 11.0823C180.869 11.0823 179.929 11.2506 179.2 11.5872C178.47 11.9098 177.93 12.3516 177.58 12.9126C177.243 13.4596 177.075 14.0697 177.075 14.743C177.075 15.5284 177.201 16.0894 177.453 16.426C177.706 16.7626 178.057 16.931 178.505 16.931C178.968 16.931 179.34 16.7626 179.62 16.426C179.915 16.0894 180.09 15.6196 180.146 15.0165H182.734C182.776 15.5635 182.937 16.0053 183.218 16.3419C183.513 16.6785 184.003 16.8959 184.691 16.9941C184.901 17.0361 185.133 17.0712 185.385 17.0993C185.651 17.1133 185.932 17.1203 186.227 17.1203C186.619 17.1203 186.928 17.0432 187.152 16.8889C187.377 16.7346 187.489 16.4821 187.489 16.1315C187.489 15.8931 187.405 15.6967 187.236 15.5424C187.082 15.3881 186.865 15.311 186.584 15.311C186.318 15.311 186.086 15.3881 185.89 15.5424C185.708 15.6967 185.616 15.9492 185.616 16.2998C185.616 16.5523 185.68 16.7907 185.806 17.0151C185.932 17.2255 186.107 17.4148 186.332 17.5832L184.291 18.1722C184.053 17.8356 183.87 17.4499 183.744 17.0151C183.632 16.5663 183.576 16.2086 183.576 15.9421C183.576 15.0866 183.842 14.3993 184.375 13.8804C184.922 13.3474 185.687 13.0809 186.668 13.0809C187.313 13.0809 187.875 13.2142 188.351 13.4806C188.828 13.7471 189.2 14.1118 189.466 14.5746C189.733 15.0235 189.866 15.5284 189.866 16.0894C189.866 16.5102 189.796 16.9239 189.656 17.3307C189.53 17.7374 189.312 18.1021 189.004 18.4247C188.709 18.7473 188.302 19.0068 187.783 19.2031C187.264 19.3854 186.626 19.4766 185.869 19.4766ZM181.409 10.8929C180.749 10.8929 180.167 10.7877 179.662 10.5773C179.158 10.3529 178.73 9.99526 178.379 9.50436C178.028 8.99944 177.755 8.31919 177.559 7.46363L180.42 6.72728C180.574 7.44259 180.742 7.95452 180.925 8.26309C181.107 8.55763 181.36 8.7049 181.682 8.7049C181.893 8.7049 182.103 8.62776 182.313 8.47347C182.524 8.31919 182.804 8.02465 183.155 7.58986L184.038 6.47482C184.529 5.85769 184.992 5.3738 185.427 5.02316C185.862 4.65849 186.332 4.392 186.837 4.22369C187.356 4.05539 187.973 3.96422 188.688 3.9502L188.856 6.39066C188.379 6.41871 187.966 6.50287 187.615 6.64312C187.278 6.76935 186.97 6.95169 186.689 7.19013C186.409 7.42856 186.114 7.74414 185.806 8.13686L185.111 8.99944C184.845 9.33605 184.529 9.65163 184.165 9.94617C183.8 10.2267 183.386 10.4581 182.923 10.6404C182.475 10.8087 181.97 10.8929 181.409 10.8929Z" fill="white"/>
<path d="M156.162 14.2567C156.162 13.2188 156.387 12.2861 156.835 11.4586C157.284 10.6171 157.943 9.95086 158.813 9.45997C159.697 8.95504 160.777 8.70258 162.053 8.70258C163.343 8.70258 164.423 8.94102 165.293 9.41789C166.162 9.88074 166.815 10.5259 167.249 11.3534C167.698 12.1809 167.923 13.1417 167.923 14.2357C167.923 15.2596 167.705 16.1713 167.27 16.9707C166.836 17.7562 166.183 18.3733 165.314 18.8221C164.444 19.2569 163.357 19.4743 162.053 19.4743C160.749 19.4743 159.655 19.2499 158.771 18.8011C157.901 18.3522 157.249 17.7351 156.814 16.9497C156.38 16.1642 156.162 15.2666 156.162 14.2567ZM159.086 13.9832C159.086 14.8388 159.332 15.5471 159.823 16.1081C160.328 16.6551 161.071 16.9286 162.053 16.9286C162.712 16.9286 163.259 16.8094 163.694 16.571C164.129 16.3185 164.458 15.9819 164.683 15.5611C164.907 15.1263 165.019 14.6354 165.019 14.0884C165.019 13.5274 164.907 13.0225 164.683 12.5737C164.472 12.1248 164.143 11.7672 163.694 11.5007C163.259 11.2202 162.712 11.0799 162.053 11.0799C161.38 11.0799 160.826 11.2132 160.391 11.4797C159.956 11.7462 159.626 12.1038 159.402 12.5526C159.192 12.9874 159.086 13.4643 159.086 13.9832ZM170.7 10.8064C170.055 10.8064 169.522 10.7083 169.101 10.5119C168.68 10.3155 168.343 10.0701 168.091 9.77554C167.853 9.46698 167.684 9.14439 167.586 8.80777C167.488 8.47116 167.439 8.1696 167.439 7.90312C167.439 7.32806 167.53 6.8582 167.712 6.49354C167.909 6.11484 168.105 5.77823 168.301 5.48369L170.552 5.63096C170.244 5.9255 169.998 6.21302 169.816 6.49354C169.634 6.77405 169.543 7.1317 169.543 7.5665C169.543 7.91714 169.648 8.20467 169.858 8.42908C170.083 8.65349 170.37 8.7657 170.721 8.7657C171.142 8.7657 171.443 8.6605 171.625 8.45012C171.822 8.23973 171.92 7.98727 171.92 7.69273C171.92 7.28599 171.752 6.99145 171.415 6.80911C171.078 6.62678 170.623 6.53561 170.048 6.53561H167.039C166.562 6.53561 166.19 6.65483 165.924 6.89327C165.657 7.1317 165.489 7.5104 165.419 8.02935H162.852C162.754 7.5665 162.572 7.20183 162.305 6.93534C162.053 6.66886 161.646 6.53561 161.085 6.53561H160.854C160.545 6.53561 160.279 6.63379 160.054 6.83015C159.83 7.02651 159.718 7.30702 159.718 7.67169C159.718 7.8961 159.767 8.08545 159.865 8.23973C159.977 8.39401 160.131 8.51323 160.328 8.59739C160.524 8.66752 160.749 8.70258 161.001 8.70258H161.716V10.9958H161.169C160.356 10.9958 159.64 10.8555 159.023 10.575C158.42 10.2805 157.95 9.86671 157.614 9.33374C157.277 8.80076 157.109 8.17662 157.109 7.46131C157.109 6.49354 157.424 5.7081 158.056 5.10499C158.701 4.48786 159.577 4.1793 160.685 4.1793H160.938C161.555 4.1793 162.088 4.27047 162.537 4.4528C162.986 4.62111 163.35 4.85253 163.631 5.14707C163.911 5.44161 164.108 5.75719 164.22 6.0938H164.031C164.199 5.74316 164.416 5.42758 164.683 5.14707C164.949 4.85253 165.314 4.62111 165.777 4.4528C166.24 4.27047 166.843 4.1793 167.586 4.1793H168.848C169.76 4.1793 170.538 4.2354 171.184 4.34761C171.829 4.44579 172.397 4.68422 172.888 5.06292C173.252 5.3294 173.54 5.66602 173.75 6.07277C173.961 6.47951 174.066 6.99846 174.066 7.62962C174.066 8.55531 173.771 9.31971 173.182 9.92281C172.593 10.5119 171.766 10.8064 170.7 10.8064ZM171.373 0.981445C172.271 0.981445 172.993 1.17079 173.54 1.54949C174.087 1.91415 174.501 2.4331 174.781 3.10634L172.635 3.6323C172.551 3.47802 172.453 3.34477 172.341 3.23257C172.229 3.12036 172.095 3.03621 171.941 2.9801C171.787 2.924 171.604 2.89595 171.394 2.89595C171.043 2.89595 170.77 2.9801 170.573 3.14841C170.391 3.30269 170.3 3.50607 170.3 3.75853C170.3 4.02502 170.377 4.27047 170.531 4.49488C170.686 4.70526 170.896 4.89461 171.163 5.06292L169.017 5.86238C168.75 5.62394 168.505 5.30837 168.28 4.91565C168.07 4.5089 167.965 4.04605 167.965 3.5271C167.965 3.07828 168.084 2.66453 168.322 2.28583C168.561 1.89311 168.932 1.57754 169.437 1.3391C169.942 1.10066 170.588 0.981445 171.373 0.981445Z" fill="white"/>
<path d="M142.126 8.7002C143.094 8.7002 143.9 8.89655 144.545 9.28927C145.191 9.68199 145.71 10.2009 146.102 10.8461C146.495 11.4913 146.776 12.2066 146.944 12.9921C147.112 13.7635 147.196 14.5419 147.196 15.3273C147.196 16.7439 147.021 18.0764 146.67 19.3246C146.334 20.5729 145.843 21.7371 145.198 22.817C144.567 23.911 143.809 24.9209 142.926 25.8466C142.042 26.7863 141.067 27.6559 140.001 28.4554L138.213 26.4777C139.054 25.8185 139.847 25.1102 140.59 24.3528C141.348 23.5955 142.007 22.7679 142.568 21.8703C143.143 20.9867 143.592 20.0119 143.914 18.9459C144.237 17.88 144.398 16.6948 144.398 15.3904C144.398 14.9136 144.356 14.4086 144.272 13.8757C144.202 13.3427 144.076 12.8448 143.893 12.3819C143.725 11.9191 143.487 11.5404 143.178 11.2459C142.883 10.9513 142.505 10.804 142.042 10.804C141.747 10.804 141.495 10.8882 141.285 11.0565C141.074 11.2248 140.969 11.4492 140.969 11.7297C140.969 12.0103 141.046 12.2347 141.2 12.403C141.355 12.5573 141.544 12.6624 141.768 12.7186C142.007 12.7747 142.231 12.8027 142.442 12.8027C143.017 12.8027 143.508 12.6484 143.914 12.3399C144.321 12.0173 144.7 11.6736 145.05 11.309L145.808 13.4759C145.317 13.8266 144.777 14.1492 144.188 14.4437C143.613 14.7382 142.897 14.8855 142.042 14.8855C140.976 14.8855 140.106 14.6331 139.433 14.1281C138.774 13.6232 138.444 12.8378 138.444 11.7718C138.444 11.1827 138.585 10.6568 138.865 10.1939C139.146 9.73108 139.559 9.36641 140.106 9.09993C140.653 8.83344 141.327 8.7002 142.126 8.7002Z" fill="white"/>
<path d="M131.147 27.6989C130.53 27.6989 130.025 27.5867 129.632 27.3623C129.225 27.1379 128.839 26.7872 128.475 26.3103H128.959C128.622 26.661 128.306 26.9345 128.012 27.1308C127.703 27.3412 127.381 27.4885 127.044 27.5727C126.708 27.6568 126.301 27.6989 125.824 27.6989C125.01 27.6989 124.365 27.5236 123.888 27.1729C123.412 26.8223 123.075 26.3735 122.879 25.8265C122.682 25.2935 122.584 24.7465 122.584 24.1855C122.584 23.372 122.752 22.6777 123.089 22.1026C123.411 21.5416 123.853 21.1068 124.414 20.7983C124.975 20.5037 125.607 20.3564 126.308 20.3564C127.177 20.3564 127.837 20.5598 128.285 20.9666C128.72 21.3873 128.938 21.8993 128.938 22.5024C128.938 23.2037 128.713 23.7366 128.264 24.1013C127.802 24.466 127.114 24.6483 126.203 24.6483C125.712 24.6483 125.27 24.5501 124.877 24.3538C124.47 24.1714 124.12 23.947 123.825 23.6805L124.393 22.2499C124.562 22.4743 124.786 22.6847 125.067 22.8811C125.333 23.0774 125.642 23.1756 125.992 23.1756C126.301 23.1756 126.546 23.1195 126.729 23.0073C126.897 22.9091 126.981 22.7478 126.981 22.5234C126.981 22.3691 126.932 22.2219 126.834 22.0816C126.722 21.9554 126.546 21.8923 126.308 21.8923C125.929 21.8923 125.585 22.0465 125.277 22.3551C124.968 22.6637 124.814 23.2107 124.814 23.9961V24.2275C124.814 24.5782 124.863 24.8727 124.961 25.1111C125.045 25.3496 125.193 25.5249 125.403 25.6371C125.6 25.7493 125.852 25.8054 126.161 25.8054C126.708 25.8054 127.086 25.6792 127.297 25.4267C127.493 25.1883 127.612 24.9358 127.654 24.6693H129.695C129.765 25.1743 129.926 25.4898 130.179 25.6161C130.417 25.7423 130.691 25.8054 130.999 25.8054C131.364 25.8054 131.631 25.7002 131.799 25.4898C131.953 25.2795 132.03 25.034 132.03 24.7535C132.03 24.1784 131.813 23.6946 131.378 23.3018C130.943 22.9091 130.452 22.5585 129.905 22.2499L131.252 20.3564C131.841 20.651 132.374 21.0086 132.851 21.4294C133.328 21.8502 133.706 22.3271 133.987 22.86C134.253 23.393 134.387 23.9891 134.387 24.6483C134.387 25.56 134.113 26.2963 133.566 26.8573C133.005 27.4184 132.199 27.6989 131.147 27.6989Z" fill="white"/>
<path d="M130.731 19.4766C130.058 19.4766 129.462 19.3784 128.943 19.1821C128.424 18.9857 127.898 18.6561 127.365 18.1933C126.846 17.7164 126.222 17.0712 125.492 16.2577C125.1 15.8089 124.791 15.5003 124.567 15.332C124.342 15.1497 124.083 15.0585 123.788 15.0585C123.564 15.0585 123.339 15.1497 123.115 15.332C122.905 15.5003 122.799 15.7668 122.799 16.1315C122.799 16.5663 122.912 16.8678 123.136 17.0361C123.375 17.2045 123.648 17.2886 123.957 17.2886C124.293 17.2886 124.63 17.1484 124.966 16.8678C125.303 16.5873 125.541 16.1245 125.682 15.4793L127.428 17.3307C127.147 17.7234 126.853 18.0881 126.544 18.4247C126.25 18.7473 125.878 19.0068 125.429 19.2031C124.98 19.3854 124.377 19.4766 123.62 19.4766C122.792 19.4766 122.112 19.3223 121.579 19.0138C121.06 18.6912 120.675 18.2774 120.422 17.7725C120.184 17.2676 120.064 16.7346 120.064 16.1736C120.064 15.4863 120.226 14.8972 120.548 14.4063C120.871 13.9014 121.313 13.5087 121.874 13.2282C122.435 12.9477 123.066 12.8074 123.767 12.8074C124.356 12.8074 124.875 12.8845 125.324 13.0388C125.773 13.1931 126.208 13.4456 126.628 13.7962C127.063 14.1469 127.54 14.6097 128.059 15.1848C128.508 15.6757 128.873 16.0473 129.153 16.2998C129.448 16.5523 129.714 16.7206 129.953 16.8047C130.205 16.8889 130.493 16.931 130.815 16.931C131.208 16.931 131.53 16.7907 131.783 16.5102C132.049 16.2297 132.183 15.8089 132.183 15.2479C132.183 14.5887 132.035 14.0066 131.741 13.5017C131.446 12.9968 131.061 12.5479 130.584 12.1552C130.121 11.7485 129.623 11.3768 129.09 11.0402L130.731 8.7049C131.558 9.15372 132.302 9.68669 132.961 10.3038C133.62 10.921 134.139 11.6222 134.518 12.4077C134.911 13.1791 135.107 14.0487 135.107 15.0165C135.107 15.9141 134.939 16.6995 134.602 17.3728C134.265 18.032 133.768 18.5509 133.108 18.9296C132.463 19.2943 131.671 19.4766 130.731 19.4766ZM133.887 22.1485C133.101 22.1485 132.47 22.0223 131.993 21.7698C131.53 21.5173 131.194 21.1877 130.983 20.781C130.787 20.3743 130.689 19.9395 130.689 19.4766C130.689 19.2943 130.703 19.1049 130.731 18.9086C130.773 18.7122 130.829 18.5229 130.899 18.3405H133.613C133.543 18.4527 133.487 18.5649 133.445 18.6772C133.403 18.7753 133.382 18.8735 133.382 18.9717C133.382 19.126 133.417 19.2662 133.487 19.3925C133.557 19.5187 133.655 19.6169 133.782 19.687C133.908 19.7571 134.055 19.7922 134.223 19.7922C134.448 19.7922 134.644 19.7501 134.812 19.666C134.995 19.5958 135.212 19.4696 135.465 19.2873L136.748 21.1387C136.299 21.4753 135.843 21.7277 135.38 21.896C134.932 22.0644 134.434 22.1485 133.887 22.1485ZM124.293 10.8929C123.634 10.8929 123.052 10.7877 122.547 10.5773C122.042 10.3529 121.614 9.99526 121.264 9.50436C120.913 8.99944 120.64 8.31919 120.443 7.46363L123.304 6.72728C123.459 7.44259 123.627 7.95452 123.809 8.26309C123.992 8.55763 124.244 8.7049 124.567 8.7049C124.777 8.7049 124.987 8.62776 125.198 8.47347C125.408 8.31919 125.689 8.02465 126.039 7.58986L126.923 6.47482C127.414 5.85769 127.877 5.3738 128.312 5.02316C128.746 4.65849 129.216 4.392 129.721 4.22369C130.24 4.05539 130.857 3.96422 131.573 3.9502L131.741 6.39066C131.264 6.41871 130.85 6.50287 130.5 6.64312C130.163 6.76935 129.854 6.95169 129.574 7.19013C129.293 7.42856 128.999 7.74414 128.69 8.13686L127.996 8.99944C127.729 9.33605 127.414 9.65163 127.049 9.94617C126.685 10.2267 126.271 10.4581 125.808 10.6404C125.359 10.8087 124.854 10.8929 124.293 10.8929Z" fill="white"/>
<path d="M98.4492 14.2544C98.4492 13.2165 98.6736 12.3258 99.1225 11.5825C99.5713 10.8391 100.23 10.2641 101.1 9.85731C101.984 9.45057 103.057 9.2472 104.319 9.2472C105.623 9.2472 106.71 9.43654 107.58 9.81524C108.45 10.1939 109.102 10.755 109.537 11.4983C109.985 12.2277 110.21 13.1393 110.21 14.2333C110.21 15.2572 109.992 16.1689 109.558 16.9683C109.123 17.7538 108.464 18.3709 107.58 18.8197C106.71 19.2545 105.623 19.4719 104.319 19.4719C103.029 19.4719 101.942 19.2475 101.058 18.7987C100.188 18.3499 99.5362 17.7327 99.1014 16.9473C98.6666 16.1619 98.4492 15.2642 98.4492 14.2544ZM101.374 13.9809C101.374 14.8364 101.619 15.5447 102.11 16.1057C102.615 16.6528 103.351 16.9263 104.319 16.9263C104.978 16.9263 105.525 16.807 105.96 16.5686C106.409 16.3161 106.738 15.9795 106.949 15.5587C107.173 15.124 107.285 14.6331 107.285 14.0861C107.285 13.525 107.173 13.0201 106.949 12.5713C106.738 12.1225 106.416 11.7648 105.981 11.4983C105.546 11.2178 104.992 11.0775 104.319 11.0775C103.66 11.0775 103.106 11.2108 102.657 11.4773C102.222 11.7438 101.9 12.1014 101.689 12.5502C101.479 12.985 101.374 13.4619 101.374 13.9809ZM115.07 15.3484C114.424 15.3484 113.891 15.2502 113.471 15.0538C113.05 14.8575 112.713 14.612 112.461 14.3175C112.222 14.0089 112.054 13.6863 111.956 13.3497C111.858 13.0131 111.809 12.7045 111.809 12.424C111.809 11.877 111.9 11.4142 112.082 11.0355C112.279 10.6568 112.475 10.3131 112.671 10.0046L114.922 10.1729C114.614 10.4674 114.368 10.755 114.186 11.0355C114.004 11.316 113.913 11.6736 113.913 12.1084C113.913 12.4591 114.018 12.7466 114.228 12.971C114.453 13.1954 114.74 13.3076 115.091 13.3076C115.497 13.3076 115.799 13.2094 115.995 13.0131C116.192 12.8027 116.29 12.5432 116.29 12.2347C116.29 11.8139 116.122 11.5194 115.785 11.351C115.448 11.1687 114.993 11.0775 114.417 11.0775H98.6386V8.7002H112.608C113.464 8.7002 114.172 8.72825 114.733 8.78435C115.294 8.82643 115.771 8.91058 116.164 9.03681C116.57 9.16304 116.942 9.3594 117.279 9.62589C117.629 9.89238 117.91 10.229 118.12 10.6357C118.331 11.0425 118.436 11.5544 118.436 12.1715C118.436 13.0832 118.141 13.8406 117.552 14.4437C116.963 15.0468 116.136 15.3484 115.07 15.3484Z" fill="white"/>
<path d="M84.7705 19.4719C83.8728 19.4719 83.1505 19.3246 82.6035 19.0301C82.0705 18.7215 81.6848 18.3288 81.4464 17.8519C81.222 17.3751 81.1098 16.8701 81.1098 16.3372C81.1098 15.6499 81.2641 15.0819 81.5726 14.6331C81.8812 14.1842 82.2879 13.8546 82.7929 13.6442C83.3118 13.4198 83.8588 13.3076 84.4339 13.3076C85.1632 13.3076 85.7733 13.4339 86.2642 13.6863C86.7691 13.9248 87.1829 14.2123 87.5055 14.5489C87.8421 14.8715 88.1086 15.159 88.305 15.4115L87.232 17.5574C87.0777 17.1787 86.8884 16.8211 86.6639 16.4844C86.4536 16.1478 86.2011 15.8743 85.9066 15.6639C85.612 15.4395 85.2614 15.3273 84.8546 15.3273C84.5461 15.3273 84.2656 15.4115 84.0131 15.5798C83.7606 15.7481 83.6344 16.0146 83.6344 16.3793C83.6344 16.7018 83.7396 16.9543 83.95 17.1366C84.1604 17.319 84.4409 17.4101 84.7915 17.4101C85.2544 17.4101 85.619 17.2839 85.8855 17.0314C86.166 16.779 86.3624 16.4424 86.4746 16.0216C86.5868 15.6008 86.6429 15.145 86.6429 14.6541V14.2544C86.6429 13.6653 86.5658 13.1463 86.4115 12.6975C86.2572 12.2487 86.0118 11.898 85.6751 11.6456C85.3385 11.3791 84.8967 11.2459 84.3497 11.2459C84.0131 11.2459 83.7115 11.316 83.4451 11.4562C83.1786 11.5825 82.9542 11.7648 82.7718 12.0032C82.6035 12.2277 82.4703 12.4871 82.3721 12.7817H79.6581C79.588 12.5573 79.4618 12.3118 79.2794 12.0453C79.1111 11.7648 78.8587 11.5264 78.522 11.33C78.1854 11.1196 77.7226 11.0144 77.1335 11.0144C76.6426 11.0144 76.2429 11.0986 75.9343 11.2669C75.6398 11.4212 75.4925 11.6807 75.4925 12.0453C75.4925 12.1856 75.5135 12.3188 75.5556 12.445C75.6117 12.5573 75.7099 12.6554 75.8501 12.7396C75.9764 12.8097 76.1377 12.8728 76.334 12.9289C76.5444 12.971 76.867 12.9921 77.3018 12.9921H78.5431V15.1801H77.2387C76.8039 15.1801 76.4673 15.2011 76.2288 15.2432C75.9904 15.2852 75.8011 15.3624 75.6608 15.4746C75.5626 15.5587 75.4785 15.6639 75.4083 15.7902C75.3522 15.9024 75.3242 16.0356 75.3242 16.1899C75.3242 16.4704 75.4154 16.7018 75.5977 16.8842C75.794 17.0665 76.1096 17.1577 76.5444 17.1577C77.0073 17.1577 77.421 17.0385 77.7857 16.8C78.1644 16.5616 78.5291 16.246 78.8797 15.8533L80.689 17.4522C80.3103 17.887 79.8966 18.2587 79.4477 18.5673C79.0129 18.8618 78.5291 19.0862 77.9961 19.2405C77.4631 19.3948 76.853 19.4719 76.1657 19.4719C74.8473 19.4719 73.8515 19.1984 73.1783 18.6514C72.5191 18.0904 72.1895 17.4031 72.1895 16.5896C72.1895 16.1969 72.2666 15.8323 72.4209 15.4956C72.5752 15.145 72.8136 14.8434 73.1362 14.591C73.4728 14.3245 73.8936 14.1141 74.3985 13.9598L74.3775 14.2333C73.6762 13.9949 73.1642 13.6372 72.8416 13.1604C72.5191 12.6835 72.3578 12.1575 72.3578 11.5825C72.3578 10.7129 72.7364 10.0186 73.4938 9.49966C74.2512 8.96668 75.2541 8.7002 76.5023 8.7002C77.2457 8.7002 77.8769 8.77032 78.3958 8.91058C78.9288 9.03681 79.4197 9.2472 79.8685 9.54173C80.3173 9.82225 80.7732 10.208 81.236 10.6989L80.7942 10.7199C81.1168 10.2991 81.4534 9.94147 81.8041 9.64693C82.1687 9.33836 82.5755 9.10694 83.0243 8.95266C83.4871 8.78435 84.0341 8.7002 84.6653 8.7002C85.7172 8.7002 86.5938 8.93863 87.2951 9.4155C87.9964 9.87835 88.5223 10.5305 88.873 11.3721C89.2377 12.1996 89.42 13.1533 89.42 14.2333C89.42 15.3414 89.2517 16.2881 88.9151 17.0735C88.5784 17.8449 88.0665 18.441 87.3793 18.8618C86.692 19.2685 85.8224 19.4719 84.7705 19.4719Z" fill="white"/>
<path d="M56.0082 9.22616C57.1864 9.22616 58.2033 9.40148 59.0588 9.75212C59.9144 10.1028 60.5736 10.6287 61.0364 11.33C61.4993 12.0313 61.7307 12.9009 61.7307 13.9388C61.7307 14.7944 61.6536 15.5517 61.4993 16.2109C61.345 16.8701 61.1487 17.4592 60.9102 17.9782C60.6718 18.4831 60.4333 18.953 60.1949 19.3878L57.3757 18.2938C57.6142 17.9712 57.8386 17.6135 58.049 17.2208C58.2734 16.814 58.4557 16.3652 58.596 15.8743C58.7362 15.3834 58.8064 14.8505 58.8064 14.2754C58.8064 13.7284 58.7152 13.2094 58.5329 12.7186C58.3505 12.2277 58.049 11.8349 57.6282 11.5404C57.2215 11.2318 56.6604 11.0775 55.9451 11.0775C55.3701 11.0775 54.8722 11.2108 54.4514 11.4773C54.0447 11.7438 53.7291 12.1154 53.5047 12.5923C53.2803 13.0552 53.168 13.5952 53.168 14.2123C53.168 15.0258 53.3013 15.7761 53.5678 16.4634C53.8343 17.1366 54.1779 17.7397 54.5987 18.2727L51.7585 19.3878C51.3237 18.6444 50.959 17.8309 50.6645 16.9473C50.3699 16.0637 50.2227 15.131 50.2227 14.1492C50.2227 13.2235 50.4401 12.3889 50.8748 11.6456C51.3237 10.9022 51.9759 10.3131 52.8314 9.87835C53.687 9.44356 54.7459 9.22616 56.0082 9.22616ZM66.5906 15.3484C65.9454 15.3484 65.4125 15.2502 64.9917 15.0538C64.5709 14.8575 64.2413 14.612 64.0029 14.3175C63.7644 14.0089 63.5961 13.6863 63.498 13.3497C63.3998 13.0131 63.3507 12.7045 63.3507 12.424C63.3507 11.877 63.4419 11.4142 63.6242 11.0355C63.8205 10.6568 64.0169 10.3131 64.2133 10.0046L66.4644 10.1729C66.1558 10.4674 65.9104 10.755 65.728 11.0355C65.5457 11.316 65.4545 11.6736 65.4545 12.1084C65.4545 12.4591 65.5597 12.7466 65.7701 12.971C65.9945 13.1954 66.282 13.3076 66.6327 13.3076C67.0394 13.3076 67.341 13.2094 67.5373 13.0131C67.7337 12.8027 67.8319 12.5432 67.8319 12.2347C67.8319 11.8139 67.6636 11.5194 67.327 11.351C66.9903 11.1687 66.5415 11.0775 65.9805 11.0775H50.3278V8.7002H64.1501C65.0057 8.7002 65.714 8.72825 66.275 8.78435C66.8361 8.82643 67.3129 8.91058 67.7057 9.03681C68.1124 9.16304 68.4841 9.3594 68.8207 9.62589C69.1713 9.89238 69.4519 10.229 69.6622 10.6357C69.8726 11.0425 69.9778 11.5544 69.9778 12.1715C69.9778 13.0832 69.6763 13.8406 69.0732 14.4437C68.4841 15.0468 67.6566 15.3484 66.5906 15.3484Z" fill="white"/>
<path d="M37.2227 14.8653C37.2227 13.9817 37.433 13.1893 37.8538 12.488C38.2746 11.7867 38.8707 11.2327 39.6421 10.8259C40.4135 10.4192 41.3322 10.2158 42.3981 10.2158C43.4781 10.2158 44.3968 10.4192 45.1542 10.8259C45.9116 11.2327 46.4866 11.7867 46.8793 12.488C47.2861 13.1893 47.4894 13.9817 47.4894 14.8653C47.4894 15.7489 47.2861 16.5414 46.8793 17.2427C46.4726 17.9299 45.8835 18.4769 45.1121 18.8837C44.3547 19.2764 43.436 19.4728 42.3561 19.4728C41.2901 19.4728 40.3714 19.2694 39.6 18.8626C38.8286 18.4559 38.2395 17.9089 37.8328 17.2216C37.426 16.5204 37.2227 15.7349 37.2227 14.8653ZM40.0418 14.8443C40.0418 15.4895 40.2312 16.0365 40.6099 16.4853C41.0026 16.9201 41.5846 17.1375 42.3561 17.1375C42.875 17.1375 43.3028 17.0393 43.6394 16.843C43.976 16.6326 44.2285 16.3521 44.3968 16.0014C44.5791 15.6508 44.6703 15.2651 44.6703 14.8443C44.6703 14.1991 44.4669 13.6591 44.0602 13.2243C43.6675 12.7755 43.0994 12.5511 42.3561 12.5511C41.8652 12.5511 41.4444 12.6563 41.0937 12.8667C40.7571 13.063 40.4977 13.3365 40.3153 13.6872C40.133 14.0238 40.0418 14.4095 40.0418 14.8443Z" fill="white"/>
<path d="M27.241 19.4719C25.6421 19.4719 24.2886 19.2124 23.1806 18.6935C22.0726 18.1605 21.231 17.4452 20.656 16.5476C20.095 15.6359 19.8145 14.612 19.8145 13.4759C19.8145 12.4941 20.0038 11.6456 20.3825 10.9303C20.7752 10.215 21.3222 9.66797 22.0235 9.28927C22.7248 8.89655 23.5313 8.7002 24.4429 8.7002C25.2845 8.7002 25.9647 8.85448 26.4837 9.16304C27.0026 9.45758 27.3813 9.84329 27.6197 10.3202C27.8582 10.783 27.9774 11.2669 27.9774 11.7718C27.9774 12.417 27.8371 12.971 27.5566 13.4339C27.2761 13.8967 26.8694 14.2473 26.3364 14.4858C25.8034 14.7242 25.1512 14.8434 24.3798 14.8434C23.8188 14.8434 23.3209 14.7663 22.8861 14.612C22.4513 14.4577 22.0726 14.2684 21.75 14.044C21.4414 13.8196 21.182 13.6162 20.9716 13.4339L21.4555 11.4562C21.6238 11.6666 21.8201 11.877 22.0445 12.0874C22.283 12.2978 22.5495 12.4731 22.844 12.6134C23.1385 12.7396 23.4541 12.8027 23.7907 12.8027C24.2255 12.8027 24.5762 12.7256 24.8427 12.5713C25.1091 12.403 25.2424 12.1295 25.2424 11.7508C25.2424 11.5123 25.1582 11.2949 24.9899 11.0986C24.8216 10.8882 24.5762 10.783 24.2536 10.783C23.7627 10.783 23.3559 10.9934 23.0333 11.4142C22.7108 11.8209 22.5495 12.3118 22.5495 12.8869V13.7074C22.5495 14.044 22.6196 14.4016 22.7598 14.7803C22.9141 15.145 23.1666 15.4956 23.5172 15.8323C23.8819 16.1548 24.3728 16.4213 24.9899 16.6317C25.6211 16.8281 26.4065 16.9263 27.3462 16.9263C28.6647 16.9263 29.7236 16.7018 30.5231 16.253C31.3365 15.7902 31.7433 15.0679 31.7433 14.0861C31.7433 13.4268 31.5399 12.8798 31.1332 12.445C30.7405 11.9962 30.1233 11.5404 29.2818 11.0775L30.9228 8.7002C32.0308 9.2472 32.9285 9.96952 33.6157 10.8672C34.317 11.7508 34.6676 12.8378 34.6676 14.1281C34.6676 15.124 34.4012 16.0286 33.8682 16.8421C33.3492 17.6416 32.5428 18.2797 31.4488 18.7566C30.3547 19.2335 28.9522 19.4719 27.241 19.4719Z" fill="white"/>
<path d="M15.6737 7.71178C15.6737 8.20268 15.5755 8.65851 15.3792 9.07928C15.1828 9.50005 14.9093 9.82966 14.5586 10.0681C14.18 10.3346 13.6891 10.559 13.086 10.7413C12.4969 10.9096 11.8938 10.9938 11.2766 10.9938H7.84736V8.70059H11.2977C11.7044 8.70059 12.006 8.67955 12.2023 8.63748C12.4127 8.58137 12.574 8.50423 12.6862 8.40605C12.7704 8.3219 12.8335 8.23073 12.8756 8.13255C12.9176 8.02035 12.9387 7.90113 12.9387 7.7749C12.9387 7.60659 12.9176 7.46633 12.8756 7.35413C12.8335 7.2279 12.7634 7.1227 12.6652 7.03855C12.553 6.94037 12.3917 6.87024 12.1813 6.82816C11.9849 6.78609 11.6553 6.76505 11.1925 6.76505H3.09266V4.3877H10.919C11.9148 4.3877 12.6862 4.46484 13.2332 4.61912C13.7942 4.75938 14.2781 4.99781 14.6849 5.33443C14.9794 5.58689 15.2179 5.90948 15.4002 6.3022C15.5825 6.69492 15.6737 7.16478 15.6737 7.71178ZM8.28917 19.4723C6.35363 19.4723 4.77574 19.2479 3.55551 18.7991C2.33527 18.3503 1.43763 17.7191 0.862579 16.9056C0.287526 16.0921 0 15.1524 0 14.0864C0 13.273 0.189347 12.5577 0.56804 11.9405C0.946733 11.3234 1.46568 10.8395 2.12489 10.4889C2.79812 10.1382 3.56252 9.9629 4.41809 9.9629C5.1895 9.9629 5.83468 10.1032 6.35363 10.3837C6.87258 10.6502 7.2653 11.0148 7.53179 11.4777C7.79827 11.9405 7.93152 12.4595 7.93152 13.0345C7.93152 14.0163 7.61594 14.7597 6.98479 15.2646C6.35363 15.7555 5.49105 16.001 4.39705 16.001C3.89212 16.001 3.41525 15.9238 2.96643 15.7695C2.53163 15.6012 2.13892 15.3979 1.78827 15.1594C1.43763 14.921 1.14309 14.6966 0.904656 14.4862L1.61997 12.7821C1.88645 13.0906 2.20904 13.3852 2.58774 13.6657C2.96643 13.9322 3.41525 14.0654 3.9342 14.0654C4.35497 14.0654 4.6986 13.9813 4.96509 13.8129C5.2456 13.6446 5.38586 13.3782 5.38586 13.0135C5.38586 12.733 5.29469 12.5015 5.11236 12.3192C4.93002 12.1369 4.65652 12.0457 4.29186 12.0457C3.99732 12.0457 3.7168 12.1299 3.45032 12.2982C3.18383 12.4525 2.96643 12.6909 2.79812 13.0135C2.62981 13.3221 2.54566 13.7078 2.54566 14.1706V14.2968C2.54566 14.7176 2.65085 15.0963 2.86124 15.4329C3.08565 15.7695 3.42928 16.0571 3.89212 16.2955C4.35497 16.5199 4.95106 16.6952 5.6804 16.8215C6.40973 16.9337 7.28634 16.9898 8.31021 16.9898C9.39019 16.9898 10.3299 16.9407 11.1294 16.8425C11.9288 16.7443 12.588 16.59 13.107 16.3796C13.6259 16.1552 14.0116 15.8607 14.2641 15.496C14.5306 15.1173 14.6638 14.6545 14.6638 14.1075V14.0444C14.6638 13.4833 14.4955 13.0065 14.1589 12.6138C13.8223 12.221 13.3454 12.0247 12.7283 12.0247C12.4197 12.0247 12.1322 12.1088 11.8657 12.2771C11.6133 12.4314 11.487 12.6839 11.487 13.0345C11.487 13.4132 11.6062 13.6797 11.8447 13.834C12.0831 13.9742 12.3777 14.0444 12.7283 14.0444C13.0789 14.0444 13.3735 13.9742 13.6119 13.834C13.8504 13.6937 14.0537 13.4974 14.222 13.2449C14.3903 12.9784 14.5236 12.6699 14.6218 12.3192L15.7789 13.855C15.4843 14.2758 15.1828 14.6545 14.8742 14.9911C14.5797 15.3137 14.222 15.5662 13.8013 15.7485C13.3805 15.9308 12.8335 16.022 12.1603 16.022C11.6273 16.022 11.1153 15.9378 10.6244 15.7695C10.1335 15.5872 9.73382 15.2997 9.42525 14.907C9.13071 14.5002 8.98344 13.9602 8.98344 13.287C8.98344 12.4735 9.285 11.8283 9.8881 11.3514C10.4912 10.8605 11.3327 10.6151 12.4127 10.6151C12.6792 10.6151 12.9176 10.6221 13.128 10.6361C13.3384 10.6502 13.5348 10.6712 13.7171 10.6992C13.8994 10.7133 14.0748 10.7413 14.2431 10.7834L11.8026 10.8255C11.6203 10.7694 11.4239 10.7273 11.2135 10.6992C11.0172 10.6572 10.8138 10.6291 10.6034 10.6151C10.407 10.587 10.1967 10.573 9.97225 10.573L10.8769 8.93201C11.7605 8.97409 12.581 9.12136 13.3384 9.37382C14.1098 9.61226 14.7831 9.95589 15.3581 10.4047C15.9332 10.8395 16.382 11.3725 16.7046 12.0036C17.0412 12.6208 17.2095 13.3291 17.2095 14.1285C17.2095 15.0262 17.0412 15.8116 16.7046 16.4848C16.368 17.144 15.842 17.6981 15.1267 18.1469C14.4114 18.5817 13.4857 18.9113 12.3496 19.1357C11.2276 19.3601 9.87407 19.4723 8.28917 19.4723Z" fill="white"/>
</svg>
