<svg width="328" height="29" viewBox="0 0 328 29" fill="none" xmlns="http://www.w3.org/2000/svg">
<path d="M323.722 27.2282C323.077 27.2282 322.551 27.123 322.144 26.9126C321.723 26.7162 321.31 26.3586 320.903 25.8396H321.387C320.91 26.3586 320.468 26.7162 320.061 26.9126C319.641 27.123 319.122 27.2282 318.505 27.2282C317.887 27.2282 317.375 27.0879 316.969 26.8074C316.562 26.5269 316.26 26.1552 316.064 25.6924C315.868 25.2295 315.77 24.7316 315.77 24.1986C315.77 23.315 316.008 22.5506 316.485 21.9054C316.948 21.2602 317.586 20.7623 318.399 20.4117C319.199 20.061 320.103 19.8857 321.113 19.8857C322.151 19.8857 323.077 20.0681 323.89 20.4327C324.69 20.8114 325.321 21.3234 325.784 21.9685C326.247 22.6277 326.478 23.3851 326.478 24.2407C326.478 24.7456 326.394 25.2225 326.226 25.6713C326.043 26.1342 325.749 26.5058 325.342 26.7864C324.935 27.0809 324.395 27.2282 323.722 27.2282ZM323.217 25.3347C323.498 25.3347 323.722 25.2295 323.89 25.0191C324.059 24.8087 324.143 24.5282 324.143 24.1776C324.143 23.4342 323.855 22.8451 323.28 22.4104C322.705 21.9896 321.983 21.7792 321.113 21.7792C320.174 21.7792 319.437 21.9896 318.904 22.4104C318.357 22.8311 318.084 23.4062 318.084 24.1355C318.084 24.5002 318.168 24.7877 318.336 24.9981C318.505 25.2225 318.736 25.3347 319.03 25.3347C319.311 25.3347 319.542 25.2646 319.725 25.1243C319.893 24.9981 320.033 24.8158 320.146 24.5773H322.081C322.193 24.8438 322.334 25.0332 322.502 25.1454C322.67 25.2716 322.909 25.3347 323.217 25.3347ZM320.082 28.5957L320.167 26.8916H322.018L322.165 28.5957H320.082ZM319.998 23.336C319.998 23.0275 320.103 22.7961 320.314 22.6418C320.524 22.5015 320.791 22.4314 321.113 22.4314C321.478 22.4314 321.758 22.5085 321.955 22.6628C322.151 22.8171 322.249 23.0415 322.249 23.336C322.249 23.6586 322.151 23.8901 321.955 24.0303C321.744 24.1706 321.464 24.2407 321.113 24.2407C320.777 24.2407 320.51 24.1636 320.314 24.0093C320.103 23.869 319.998 23.6446 319.998 23.336Z" fill="white"/>
<path d="M322.799 19.0059C322.21 19.0059 321.642 18.9217 321.095 18.7534C320.562 18.5992 320.008 18.3116 319.433 17.8909C318.872 17.4701 318.255 16.881 317.581 16.1236C317.273 15.773 317.02 15.5135 316.824 15.3452C316.642 15.1629 316.487 15.0436 316.361 14.9875C316.235 14.9174 316.095 14.8823 315.94 14.8823C315.758 14.8823 315.59 14.9595 315.436 15.1138C315.281 15.2681 315.204 15.4784 315.204 15.7449C315.204 16.0956 315.281 16.4672 315.436 16.86C315.604 17.2527 315.842 17.6735 316.151 18.1223L313.205 19.0269C312.953 18.536 312.736 18.0171 312.553 17.4701C312.385 16.9091 312.301 16.306 312.301 15.6608C312.301 15.0156 312.455 14.4476 312.764 13.9567C313.072 13.4517 313.493 13.059 314.026 12.7785C314.573 12.484 315.19 12.3367 315.877 12.3367C316.522 12.3367 317.091 12.4349 317.581 12.6312C318.072 12.8276 318.528 13.1081 318.949 13.4728C319.384 13.8374 319.826 14.2722 320.274 14.7772C320.681 15.212 321.025 15.5556 321.305 15.808C321.586 16.0465 321.852 16.2148 322.105 16.313C322.371 16.4111 322.659 16.4602 322.967 16.4602C323.36 16.4602 323.69 16.32 323.956 16.0395C324.223 15.759 324.356 15.3382 324.356 14.7772C324.356 14.118 324.209 13.5359 323.914 13.031C323.619 12.526 323.234 12.0772 322.757 11.6845C322.28 11.2778 321.775 10.9061 321.242 10.5695L322.904 8.23418C323.732 8.683 324.475 9.21598 325.134 9.83311C325.793 10.4502 326.312 11.1515 326.691 11.937C327.084 12.7084 327.28 13.578 327.28 14.5457C327.28 15.4434 327.105 16.2288 326.754 16.902C326.418 17.5613 325.913 18.0802 325.239 18.4589C324.58 18.8236 323.767 19.0059 322.799 19.0059ZM316.53 10.4222C315.87 10.4222 315.288 10.317 314.783 10.1066C314.278 9.8822 313.851 9.52454 313.5 9.03364C313.149 8.52872 312.876 7.84847 312.679 6.99291L315.541 6.25656C315.695 6.97187 315.863 7.48381 316.046 7.79237C316.228 8.08691 316.48 8.23418 316.803 8.23418C317.013 8.23418 317.224 8.15704 317.434 8.00276C317.645 7.84847 317.925 7.55393 318.276 7.11914L319.159 6.0041C319.65 5.38697 320.113 4.90308 320.548 4.55244C320.983 4.18777 321.453 3.92128 321.957 3.75298C322.476 3.58467 323.094 3.4935 323.809 3.47948L323.977 5.91994C323.5 5.948 323.087 6.03215 322.736 6.17241C322.399 6.29864 322.091 6.48097 321.81 6.71941C321.53 6.95784 321.235 7.27342 320.927 7.66614L320.232 8.52872C319.966 8.86533 319.65 9.18091 319.286 9.47545C318.921 9.75597 318.507 9.98739 318.044 10.1697C317.595 10.338 317.091 10.4222 316.53 10.4222Z" fill="white"/>
<path d="M299.576 14.3945C299.576 13.5108 299.787 12.7184 300.207 12.0171C300.628 11.3158 301.224 10.7618 301.996 10.3551C302.767 9.94832 303.686 9.74495 304.752 9.74495C305.832 9.74495 306.75 9.94832 307.508 10.3551C308.265 10.7618 308.84 11.3158 309.233 12.0171C309.64 12.7184 309.843 13.5108 309.843 14.3945C309.843 15.2781 309.64 16.0705 309.233 16.7718C308.826 17.4591 308.237 18.0061 307.466 18.4128C306.708 18.8055 305.79 19.0019 304.71 19.0019C303.644 19.0019 302.725 18.7985 301.954 18.3918C301.182 17.985 300.593 17.438 300.186 16.7508C299.78 16.0495 299.576 15.2641 299.576 14.3945ZM302.395 14.3734C302.395 15.0186 302.585 15.5656 302.963 16.0144C303.356 16.4492 303.938 16.6666 304.71 16.6666C305.229 16.6666 305.656 16.5684 305.993 16.3721C306.33 16.1617 306.582 15.8812 306.75 15.5305C306.933 15.1799 307.024 14.7942 307.024 14.3734C307.024 13.7282 306.82 13.1883 306.414 12.7535C306.021 12.3046 305.453 12.0802 304.71 12.0802C304.219 12.0802 303.798 12.1854 303.447 12.3958C303.111 12.5922 302.851 12.8657 302.669 13.2163C302.486 13.5529 302.395 13.9386 302.395 14.3734Z" fill="white"/>
<path d="M292.5 19.0059C291.911 19.0059 291.343 18.9217 290.796 18.7534C290.263 18.5992 289.709 18.3116 289.134 17.8909C288.573 17.4701 287.956 16.881 287.283 16.1236C286.974 15.773 286.722 15.5135 286.525 15.3452C286.343 15.1629 286.189 15.0436 286.062 14.9875C285.936 14.9174 285.796 14.8823 285.642 14.8823C285.459 14.8823 285.291 14.9595 285.137 15.1138C284.982 15.2681 284.905 15.4784 284.905 15.7449C284.905 16.0956 284.982 16.4672 285.137 16.86C285.305 17.2527 285.543 17.6735 285.852 18.1223L282.907 19.0269C282.654 18.536 282.437 18.0171 282.254 17.4701C282.086 16.9091 282.002 16.306 282.002 15.6608C282.002 15.0156 282.156 14.4476 282.465 13.9567C282.773 13.4517 283.194 13.059 283.727 12.7785C284.274 12.484 284.891 12.3367 285.578 12.3367C286.224 12.3367 286.792 12.4349 287.283 12.6312C287.774 12.8276 288.229 13.1081 288.65 13.4728C289.085 13.8374 289.527 14.2722 289.976 14.7772C290.382 15.212 290.726 15.5556 291.006 15.808C291.287 16.0465 291.553 16.2148 291.806 16.313C292.072 16.4111 292.36 16.4602 292.668 16.4602C293.061 16.4602 293.391 16.32 293.657 16.0395C293.924 15.759 294.057 15.3382 294.057 14.7772C294.057 14.118 293.91 13.5359 293.615 13.031C293.321 12.526 292.935 12.0772 292.458 11.6845C291.981 11.2778 291.476 10.9061 290.943 10.5695L292.605 8.23418C293.433 8.683 294.176 9.21598 294.835 9.83311C295.495 10.4502 296.014 11.1515 296.392 11.937C296.785 12.7084 296.981 13.578 296.981 14.5457C296.981 15.4434 296.806 16.2288 296.455 16.902C296.119 17.5613 295.614 18.0802 294.941 18.4589C294.281 18.8236 293.468 19.0059 292.5 19.0059ZM286.231 10.4222C285.571 10.4222 284.989 10.317 284.484 10.1066C283.98 9.8822 283.552 9.52454 283.201 9.03364C282.85 8.52872 282.577 7.84847 282.381 6.99291L285.242 6.25656C285.396 6.97187 285.564 7.48381 285.747 7.79237C285.929 8.08691 286.182 8.23418 286.504 8.23418C286.715 8.23418 286.925 8.15704 287.135 8.00276C287.346 7.84847 287.626 7.55393 287.977 7.11914L288.861 6.0041C289.351 5.38697 289.814 4.90308 290.249 4.55244C290.684 4.18777 291.154 3.92128 291.659 3.75298C292.178 3.58467 292.795 3.4935 293.51 3.47948L293.678 5.91994C293.201 5.948 292.788 6.03215 292.437 6.17241C292.1 6.29864 291.792 6.48097 291.511 6.71941C291.231 6.95784 290.936 7.27342 290.628 7.66614L289.933 8.52872C289.667 8.86533 289.351 9.18091 288.987 9.47545C288.622 9.75597 288.208 9.98739 287.745 10.1697C287.297 10.338 286.792 10.4222 286.231 10.4222Z" fill="white"/>
<path d="M260.685 19.0012C259.787 19.0012 259.065 18.8539 258.518 18.5594C257.985 18.2508 257.599 17.8581 257.36 17.3812C257.136 16.9044 257.024 16.3994 257.024 15.8665C257.024 15.1792 257.178 14.6112 257.487 14.1623C257.795 13.7135 258.202 13.3839 258.707 13.1735C259.226 12.9491 259.773 12.8369 260.348 12.8369C261.077 12.8369 261.687 12.9631 262.178 13.2156C262.683 13.454 263.097 13.7416 263.42 14.0782C263.756 14.4008 264.023 14.6883 264.219 14.9408L263.146 17.0867C262.992 16.708 262.802 16.3503 262.578 16.0137C262.368 15.6771 262.115 15.4036 261.821 15.1932C261.526 14.9688 261.175 14.8566 260.769 14.8566C260.46 14.8566 260.18 14.9408 259.927 15.1091C259.675 15.2774 259.548 15.5439 259.548 15.9085C259.548 16.2311 259.654 16.4836 259.864 16.6659C260.074 16.8483 260.355 16.9394 260.706 16.9394C261.168 16.9394 261.533 16.8132 261.8 16.5607C262.08 16.3083 262.276 15.9716 262.389 15.5509C262.501 15.1301 262.557 14.6743 262.557 14.1834V13.6574C262.557 13.0824 262.48 12.5634 262.326 12.1006C262.171 11.6377 261.926 11.273 261.589 11.0066C261.267 10.7401 260.832 10.6068 260.285 10.6068C259.948 10.6068 259.64 10.684 259.359 10.8383C259.093 10.9785 258.868 11.1749 258.686 11.4273C258.504 11.6798 258.37 11.9743 258.286 12.3109H255.572C255.502 12.0865 255.376 11.8411 255.193 11.5746C255.025 11.2941 254.773 11.0556 254.436 10.8593C254.099 10.6489 253.637 10.5437 253.048 10.5437C252.557 10.5437 252.157 10.6279 251.848 10.7962C251.554 10.9505 251.407 11.2099 251.407 11.5746C251.407 11.7149 251.428 11.8481 251.47 11.9743C251.526 12.0865 251.624 12.1847 251.764 12.2689C251.89 12.339 252.052 12.4021 252.248 12.4582C252.458 12.5003 252.781 12.5213 253.216 12.5213H254.457V14.7093H253.153C252.718 14.7093 252.381 14.7304 252.143 14.7725C251.904 14.8145 251.715 14.8917 251.575 15.0039C251.477 15.088 251.393 15.1932 251.322 15.3195C251.266 15.4317 251.238 15.5649 251.238 15.7192C251.238 15.9997 251.329 16.2311 251.512 16.4135C251.708 16.5958 252.024 16.687 252.458 16.687C252.921 16.687 253.335 16.5677 253.7 16.3293C254.078 16.0909 254.443 15.7753 254.794 15.3826L256.603 16.9815C256.224 17.4163 255.811 17.788 255.362 18.0965C254.927 18.3911 254.443 18.6155 253.91 18.7698C253.377 18.9241 252.767 19.0012 252.08 19.0012C250.761 19.0012 249.766 18.7277 249.092 18.1807C248.433 17.6197 248.104 16.9324 248.104 16.1189C248.104 15.7262 248.181 15.3615 248.335 15.0249C248.489 14.6743 248.728 14.3727 249.05 14.1203C249.387 13.8538 249.808 13.6434 250.313 13.4891L250.292 13.7626C249.604 13.5101 249.092 13.1805 248.756 12.7738C248.433 12.353 248.272 11.8551 248.272 11.2801C248.272 10.7611 248.454 10.3193 248.819 9.95463C249.198 9.57594 249.716 9.2814 250.376 9.07102C251.035 8.86063 251.792 8.75544 252.648 8.75544C253.405 8.75544 254.036 8.84661 254.541 9.02894C255.06 9.19725 255.516 9.44971 255.909 9.78633C256.316 10.1089 256.736 10.5086 257.171 10.9855L256.687 11.0066C257.024 10.5297 257.388 10.144 257.781 9.84944C258.174 9.54088 258.595 9.31647 259.044 9.17621C259.506 9.02193 259.99 8.94479 260.495 8.94479C261.561 8.94479 262.452 9.13413 263.167 9.51283C263.882 9.89152 264.422 10.4455 264.787 11.1749C265.152 11.9042 265.334 12.7948 265.334 13.8468C265.334 14.8847 265.166 15.7963 264.829 16.5818C264.493 17.3532 263.981 17.9493 263.293 18.37C262.606 18.7908 261.736 19.0012 260.685 19.0012ZM270.215 14.8776C269.57 14.8776 269.037 14.7795 268.616 14.5831C268.195 14.3867 267.866 14.1413 267.627 13.8468C267.389 13.5382 267.22 13.2156 267.122 12.879C267.024 12.5424 266.975 12.2338 266.975 11.9533C266.975 11.3782 267.066 10.9084 267.249 10.5437C267.431 10.179 267.62 9.84243 267.817 9.53386L270.089 9.70217C269.78 9.99671 269.535 10.2842 269.352 10.5648C269.17 10.8453 269.079 11.2029 269.079 11.6377C269.079 11.9884 269.184 12.2759 269.394 12.5003C269.619 12.7247 269.899 12.8369 270.236 12.8369C270.643 12.8369 270.944 12.7387 271.141 12.5424C271.351 12.332 271.456 12.0725 271.456 11.7639C271.456 11.3432 271.281 11.0486 270.93 10.8803C270.594 10.698 270.138 10.6068 269.563 10.6068H255.257L253.826 10.0388L251.238 10.6068H248.335V8.22948H267.753C268.609 8.22948 269.317 8.25753 269.878 8.31363C270.453 8.35571 270.937 8.43986 271.33 8.56609C271.737 8.69232 272.108 8.88868 272.445 9.15517C272.796 9.42166 273.076 9.75828 273.287 10.165C273.497 10.5718 273.602 11.0837 273.602 11.7008C273.602 12.6125 273.301 13.3699 272.698 13.973C272.108 14.5761 271.281 14.8776 270.215 14.8776Z" fill="white"/>
<path d="M233.446 19.0012C232.773 19.0012 232.176 18.903 231.658 18.7067C231.139 18.5103 230.613 18.1807 230.08 17.7178C229.561 17.241 228.937 16.5958 228.207 15.7823C227.815 15.3335 227.506 15.0249 227.282 14.8566C227.057 14.6743 226.798 14.5831 226.503 14.5831C226.279 14.5831 226.054 14.6743 225.83 14.8566C225.619 15.0249 225.514 15.2914 225.514 15.6561C225.514 16.0909 225.626 16.3924 225.851 16.5607C226.089 16.729 226.363 16.8132 226.671 16.8132C227.008 16.8132 227.345 16.6729 227.681 16.3924C228.018 16.1119 228.256 15.6491 228.397 15.0039L230.143 16.8553C229.862 17.248 229.568 17.6127 229.259 17.9493C228.965 18.2719 228.593 18.5313 228.144 18.7277C227.695 18.91 227.092 19.0012 226.335 19.0012C225.507 19.0012 224.827 18.8469 224.294 18.5383C223.775 18.2158 223.389 17.802 223.137 17.2971C222.899 16.7781 222.779 16.2381 222.779 15.6771C222.779 15.0039 222.941 14.4218 223.263 13.9309C223.586 13.426 224.028 13.0333 224.589 12.7528C225.15 12.4722 225.781 12.332 226.482 12.332C227.071 12.332 227.59 12.4091 228.039 12.5634C228.488 12.7177 228.923 12.9702 229.343 13.3208C229.778 13.6714 230.255 14.1343 230.774 14.7093C231.223 15.2002 231.594 15.5719 231.889 15.8244C232.184 16.0768 232.45 16.2451 232.688 16.3293C232.927 16.4135 233.172 16.4555 233.425 16.4555C233.874 16.4555 234.231 16.3153 234.498 16.0348C234.764 15.7543 234.897 15.3054 234.897 14.6883C234.897 13.973 234.708 13.3208 234.329 12.7317C233.951 12.1426 233.432 11.6377 232.773 11.2169C232.113 10.7962 231.363 10.4946 230.521 10.3123L235.55 10.2281C236.013 10.5367 236.412 10.9084 236.749 11.3432C237.099 11.7639 237.366 12.2408 237.548 12.7738C237.731 13.2927 237.822 13.8608 237.822 14.4779C237.822 15.3896 237.654 16.189 237.317 16.8763C236.98 17.5495 236.482 18.0755 235.823 18.4542C235.178 18.8189 234.386 19.0012 233.446 19.0012ZM242.513 14.8776C241.868 14.8776 241.335 14.7795 240.914 14.5831C240.494 14.3867 240.164 14.1413 239.926 13.8468C239.687 13.5382 239.519 13.2156 239.421 12.879C239.323 12.5424 239.273 12.2338 239.273 11.9533C239.273 11.3782 239.365 10.9084 239.547 10.5437C239.729 10.179 239.919 9.84243 240.115 9.53386L242.366 9.70217C242.072 9.99671 241.833 10.2842 241.651 10.5648C241.469 10.8453 241.377 11.2029 241.377 11.6377C241.377 11.9884 241.483 12.2759 241.693 12.5003C241.917 12.7247 242.198 12.8369 242.534 12.8369C242.941 12.8369 243.243 12.7387 243.439 12.5424C243.635 12.332 243.734 12.0725 243.734 11.7639C243.734 11.3432 243.565 11.0486 243.229 10.8803C242.892 10.698 242.443 10.6068 241.882 10.6068H225.009V8.22948H240.052C240.907 8.22948 241.616 8.25753 242.177 8.31363C242.738 8.35571 243.215 8.43986 243.607 8.56609C244.014 8.69232 244.386 8.88868 244.722 9.15517C245.087 9.42166 245.368 9.75828 245.564 10.165C245.774 10.5718 245.88 11.0837 245.88 11.7008C245.88 12.6125 245.585 13.3699 244.996 13.973C244.407 14.5761 243.579 14.8776 242.513 14.8776Z" fill="white"/>
<path d="M208.498 13.7883C208.498 12.7504 208.722 11.8177 209.171 10.9902C209.62 10.1487 210.279 9.48246 211.149 8.99157C212.033 8.48664 213.112 8.23418 214.389 8.23418C215.679 8.23418 216.759 8.47262 217.629 8.94949C218.498 9.41234 219.151 10.0575 219.585 10.885C220.034 11.7125 220.259 12.6733 220.259 13.7673C220.259 14.7912 220.041 15.7029 219.606 16.5023C219.172 17.2878 218.519 17.9049 217.65 18.3537C216.78 18.7885 215.693 19.0059 214.389 19.0059C213.084 19.0059 211.99 18.7815 211.107 18.3327C210.237 17.8838 209.585 17.2667 209.15 16.4813C208.715 15.6958 208.498 14.7982 208.498 13.7883ZM211.422 13.5148C211.422 14.3704 211.668 15.0787 212.159 15.6397C212.664 16.1867 213.407 16.4602 214.389 16.4602C215.048 16.4602 215.595 16.341 216.03 16.1026C216.465 15.8501 216.794 15.5135 217.019 15.0927C217.243 14.6579 217.355 14.167 217.355 13.62C217.355 13.059 217.243 12.5541 217.019 12.1053C216.808 11.6564 216.479 11.2988 216.03 11.0323C215.595 10.7518 215.048 10.6115 214.389 10.6115C213.716 10.6115 213.162 10.7448 212.727 11.0113C212.292 11.2778 211.962 11.6354 211.738 12.0842C211.528 12.519 211.422 12.9959 211.422 13.5148ZM213.505 10.4222C212.846 10.4222 212.264 10.317 211.759 10.1066C211.254 9.8822 210.826 9.52454 210.476 9.03364C210.125 8.52872 209.852 7.84847 209.655 6.99291L212.516 6.25656C212.671 6.97187 212.839 7.48381 213.021 7.79237C213.204 8.08691 213.456 8.23418 213.779 8.23418C213.989 8.23418 214.199 8.15704 214.41 8.00276C214.62 7.84847 214.901 7.55393 215.251 7.11914L216.135 6.0041C216.626 5.38697 217.089 4.90308 217.524 4.55244C217.958 4.18777 218.428 3.92128 218.933 3.75298C219.452 3.58467 220.069 3.4935 220.785 3.47948L220.953 5.91994C220.476 5.948 220.062 6.03215 219.712 6.17241C219.375 6.29864 219.066 6.48097 218.786 6.71941C218.505 6.95784 218.211 7.27342 217.902 7.66614L217.208 8.52872C216.941 8.86533 216.626 9.18091 216.261 9.47545C215.897 9.75597 215.483 9.98739 215.02 10.1697C214.571 10.338 214.066 10.4222 213.505 10.4222Z" fill="white"/>
<path d="M187.276 27.2282C186.393 27.2282 185.713 27.13 185.236 26.9336C184.759 26.7373 184.338 26.4708 183.973 26.1342H184.1C183.707 26.569 183.307 26.8565 182.9 26.9967C182.48 27.151 181.996 27.2282 181.449 27.2282C180.916 27.2282 180.446 27.1019 180.039 26.8495C179.632 26.611 179.317 26.2604 179.092 25.7975C178.868 25.3347 178.756 24.7807 178.756 24.1355C178.756 23.294 178.987 22.5506 179.45 21.9054C179.899 21.2743 180.551 20.7764 181.407 20.4117C182.262 20.061 183.272 19.8857 184.436 19.8857C185.404 19.8857 186.246 19.9488 186.961 20.0751C187.662 20.2013 188.406 20.3977 189.191 20.6642L188.37 22.5576C187.823 22.3472 187.347 22.1859 186.94 22.0737C186.519 21.9615 186.119 21.8844 185.741 21.8423C185.348 21.8002 184.92 21.7792 184.457 21.7792C183.672 21.7792 183.027 21.8844 182.522 22.0948C182.017 22.3192 181.652 22.6067 181.428 22.9573C181.189 23.308 181.07 23.7007 181.07 24.1355C181.07 24.5002 181.154 24.7877 181.323 24.9981C181.477 25.2225 181.708 25.3347 182.017 25.3347C182.297 25.3347 182.536 25.2295 182.732 25.0191C182.914 24.8228 183.027 24.5493 183.069 24.1986H185.088C185.117 24.4371 185.173 24.6474 185.257 24.8298C185.341 25.0121 185.474 25.1524 185.656 25.2505C185.839 25.3487 186.091 25.3978 186.414 25.3978C186.568 25.4118 186.736 25.4259 186.919 25.4399C187.087 25.4679 187.269 25.482 187.466 25.482C187.746 25.482 187.971 25.4329 188.139 25.3347C188.293 25.2505 188.37 25.1103 188.37 24.9139C188.37 24.7737 188.321 24.6615 188.223 24.5773C188.111 24.4932 187.957 24.4511 187.76 24.4511C187.578 24.4511 187.431 24.5072 187.319 24.6194C187.192 24.7316 187.129 24.9069 187.129 25.1454C187.129 25.3277 187.178 25.489 187.276 25.6292C187.361 25.7835 187.48 25.9238 187.634 26.05L186.077 26.4497C185.909 26.2113 185.79 25.9378 185.72 25.6292C185.635 25.3207 185.593 25.0752 185.593 24.8929C185.593 24.2758 185.79 23.7708 186.182 23.3781C186.561 22.9854 187.115 22.789 187.845 22.789C188.546 22.789 189.114 22.9854 189.549 23.3781C189.969 23.7849 190.18 24.2828 190.18 24.8719C190.18 25.2646 190.096 25.6363 189.927 25.9869C189.745 26.3516 189.443 26.6461 189.023 26.8705C188.602 27.1089 188.02 27.2282 187.276 27.2282Z" fill="white"/>
<path d="M193.856 19.0012C192.79 19.0012 191.892 18.7557 191.163 18.2648C190.434 17.7739 189.739 17.1568 189.08 16.4135L190.7 14.6041C190.995 14.9408 191.303 15.2493 191.626 15.5298C191.934 15.8104 192.271 16.0348 192.636 16.2031C193.014 16.3714 193.421 16.4555 193.856 16.4555C194.347 16.4555 194.725 16.3153 194.992 16.0348C195.258 15.7543 195.392 15.3335 195.392 14.7725C195.392 14.1132 195.244 13.5312 194.95 13.0263C194.655 12.5213 194.27 12.0725 193.793 11.6798C193.316 11.273 192.811 10.9014 192.278 10.5648L193.94 8.22948C194.767 8.6783 195.511 9.21127 196.17 9.8284C196.829 10.4455 197.348 11.1468 197.727 11.9323C198.12 12.7037 198.316 13.5733 198.316 14.541C198.316 15.8875 197.937 16.9675 197.18 17.781C196.423 18.5944 195.314 19.0012 193.856 19.0012Z" fill="white"/>
<path d="M185.869 19.0059C185.069 19.0059 184.389 18.9288 183.828 18.7745C183.267 18.6342 182.79 18.4308 182.397 18.1644C182.005 17.8838 181.654 17.5613 181.346 17.1966L181.493 17.2176C181.156 17.7085 180.799 18.0872 180.42 18.3537C180.055 18.6062 179.662 18.7745 179.242 18.8586C178.835 18.9568 178.379 19.0059 177.874 19.0059C176.766 19.0059 175.869 18.6132 175.181 17.8277C174.494 17.0423 174.15 15.9273 174.15 14.4826C174.15 13.1362 174.48 12.0001 175.139 11.0744C175.798 10.1347 176.731 9.42636 177.937 8.94949C179.144 8.47262 180.553 8.23418 182.166 8.23418C183.022 8.23418 183.8 8.28327 184.501 8.38145C185.203 8.47963 185.883 8.6269 186.542 8.82326C187.201 9.00559 187.896 9.24403 188.625 9.53857L187.342 11.8949C186.584 11.5583 185.918 11.2988 185.343 11.1165C184.782 10.9341 184.242 10.8079 183.723 10.7378C183.204 10.6536 182.636 10.6115 182.019 10.6115C180.869 10.6115 179.929 10.7798 179.2 11.1165C178.47 11.439 177.93 11.8809 177.58 12.4419C177.243 12.9889 177.075 13.599 177.075 14.2722C177.075 15.0577 177.201 15.6187 177.453 15.9553C177.706 16.2919 178.057 16.4602 178.505 16.4602C178.968 16.4602 179.34 16.2919 179.62 15.9553C179.915 15.6187 180.09 15.1488 180.146 14.5457H182.734C182.776 15.0927 182.937 15.5345 183.218 15.8712C183.513 16.2078 184.003 16.4252 184.691 16.5234C184.901 16.5654 185.133 16.6005 185.385 16.6285C185.651 16.6426 185.932 16.6496 186.227 16.6496C186.619 16.6496 186.928 16.5724 187.152 16.4182C187.377 16.2639 187.489 16.0114 187.489 15.6608C187.489 15.4223 187.405 15.226 187.236 15.0717C187.082 14.9174 186.865 14.8403 186.584 14.8403C186.318 14.8403 186.086 14.9174 185.89 15.0717C185.708 15.226 185.616 15.4784 185.616 15.8291C185.616 16.0815 185.68 16.32 185.806 16.5444C185.932 16.7548 186.107 16.9441 186.332 17.1124L184.291 17.7015C184.053 17.3649 183.87 16.9792 183.744 16.5444C183.632 16.0956 183.576 15.7379 183.576 15.4714C183.576 14.6159 183.842 13.9286 184.375 13.4097C184.922 12.8767 185.687 12.6102 186.668 12.6102C187.313 12.6102 187.875 12.7434 188.351 13.0099C188.828 13.2764 189.2 13.6411 189.466 14.1039C189.733 14.5527 189.866 15.0577 189.866 15.6187C189.866 16.0395 189.796 16.4532 189.656 16.86C189.53 17.2667 189.312 17.6314 189.004 17.954C188.709 18.2766 188.302 18.536 187.783 18.7324C187.264 18.9147 186.626 19.0059 185.869 19.0059ZM181.409 10.4222C180.749 10.4222 180.167 10.317 179.662 10.1066C179.158 9.8822 178.73 9.52454 178.379 9.03364C178.028 8.52872 177.755 7.84847 177.559 6.99291L180.42 6.25656C180.574 6.97187 180.742 7.48381 180.925 7.79237C181.107 8.08691 181.36 8.23418 181.682 8.23418C181.893 8.23418 182.103 8.15704 182.313 8.00276C182.524 7.84847 182.804 7.55393 183.155 7.11914L184.038 6.0041C184.529 5.38697 184.992 4.90308 185.427 4.55244C185.862 4.18777 186.332 3.92128 186.837 3.75298C187.356 3.58467 187.973 3.4935 188.688 3.47948L188.856 5.91994C188.379 5.948 187.966 6.03215 187.615 6.17241C187.278 6.29864 186.97 6.48097 186.689 6.71941C186.409 6.95784 186.114 7.27342 185.806 7.66614L185.111 8.52872C184.845 8.86533 184.529 9.18091 184.165 9.47545C183.8 9.75597 183.386 9.98739 182.923 10.1697C182.475 10.338 181.97 10.4222 181.409 10.4222Z" fill="white"/>
<path d="M156.162 13.786C156.162 12.7481 156.387 11.8154 156.835 10.9879C157.284 10.1464 157.943 9.48015 158.813 8.98925C159.697 8.48432 160.777 8.23186 162.053 8.23186C163.343 8.23186 164.423 8.4703 165.293 8.94717C166.162 9.41002 166.815 10.0552 167.249 10.8827C167.698 11.7102 167.923 12.671 167.923 13.765C167.923 14.7889 167.705 15.7005 167.27 16.5C166.836 17.2854 166.183 17.9026 165.314 18.3514C164.444 18.7862 163.357 19.0036 162.053 19.0036C160.749 19.0036 159.655 18.7792 158.771 18.3303C157.901 17.8815 157.249 17.2644 156.814 16.479C156.38 15.6935 156.162 14.7959 156.162 13.786ZM159.086 13.5125C159.086 14.3681 159.332 15.0764 159.823 15.6374C160.328 16.1844 161.071 16.4579 162.053 16.4579C162.712 16.4579 163.259 16.3387 163.694 16.1003C164.129 15.8478 164.458 15.5112 164.683 15.0904C164.907 14.6556 165.019 14.1647 165.019 13.6177C165.019 13.0567 164.907 12.5518 164.683 12.1029C164.472 11.6541 164.143 11.2965 163.694 11.03C163.259 10.7495 162.712 10.6092 162.053 10.6092C161.38 10.6092 160.826 10.7425 160.391 11.0089C159.956 11.2754 159.626 11.6331 159.402 12.0819C159.192 12.5167 159.086 12.9936 159.086 13.5125ZM170.7 10.3357C170.055 10.3357 169.522 10.2375 169.101 10.0412C168.68 9.84481 168.343 9.59936 168.091 9.30483C167.853 8.99626 167.684 8.67367 167.586 8.33705C167.488 8.00044 167.439 7.69888 167.439 7.4324C167.439 6.85734 167.53 6.38748 167.712 6.02282C167.909 5.64412 168.105 5.30751 168.301 5.01297L170.552 5.16024C170.244 5.45478 169.998 5.7423 169.816 6.02282C169.634 6.30333 169.543 6.66098 169.543 7.09578C169.543 7.44642 169.648 7.73395 169.858 7.95836C170.083 8.18277 170.37 8.29498 170.721 8.29498C171.142 8.29498 171.443 8.18978 171.625 7.9794C171.822 7.76901 171.92 7.51655 171.92 7.22201C171.92 6.81527 171.752 6.52073 171.415 6.3384C171.078 6.15606 170.623 6.06489 170.048 6.06489H167.039C166.562 6.06489 166.19 6.18411 165.924 6.42255C165.657 6.66099 165.489 7.03968 165.419 7.55863H162.852C162.754 7.09578 162.572 6.73111 162.305 6.46463C162.053 6.19814 161.646 6.06489 161.085 6.06489H160.854C160.545 6.06489 160.279 6.16307 160.054 6.35943C159.83 6.55579 159.718 6.83631 159.718 7.20097C159.718 7.42538 159.767 7.61473 159.865 7.76901C159.977 7.9233 160.131 8.04251 160.328 8.12667C160.524 8.1968 160.749 8.23186 161.001 8.23186H161.716V10.5251H161.169C160.356 10.5251 159.64 10.3848 159.023 10.1043C158.42 9.80975 157.95 9.39599 157.614 8.86302C157.277 8.33004 157.109 7.7059 157.109 6.99059C157.109 6.02282 157.424 5.23738 158.056 4.63428C158.701 4.01715 159.577 3.70858 160.685 3.70858H160.938C161.555 3.70858 162.088 3.79975 162.537 3.98208C162.986 4.15039 163.35 4.38181 163.631 4.67635C163.911 4.97089 164.108 5.28647 164.22 5.62309H164.031C164.199 5.27244 164.416 4.95687 164.683 4.67635C164.949 4.38181 165.314 4.15039 165.777 3.98208C166.24 3.79975 166.843 3.70858 167.586 3.70858H168.848C169.76 3.70858 170.538 3.76468 171.184 3.87689C171.829 3.97507 172.397 4.21351 172.888 4.5922C173.252 4.85869 173.54 5.1953 173.75 5.60205C173.961 6.00879 174.066 6.52774 174.066 7.1589C174.066 8.08459 173.771 8.84899 173.182 9.45209C172.593 10.0412 171.766 10.3357 170.7 10.3357ZM171.373 0.510727C172.271 0.510727 172.993 0.700073 173.54 1.07877C174.087 1.44343 174.501 1.96238 174.781 2.63562L172.635 3.16158C172.551 3.0073 172.453 2.87405 172.341 2.76185C172.229 2.64964 172.095 2.56549 171.941 2.50939C171.787 2.45328 171.604 2.42523 171.394 2.42523C171.043 2.42523 170.77 2.50939 170.573 2.67769C170.391 2.83198 170.3 3.03535 170.3 3.28781C170.3 3.5543 170.377 3.79975 170.531 4.02416C170.686 4.23454 170.896 4.42389 171.163 4.5922L169.017 5.39166C168.75 5.15323 168.505 4.83765 168.28 4.44493C168.07 4.03818 167.965 3.57534 167.965 3.05639C167.965 2.60756 168.084 2.19381 168.322 1.81511C168.561 1.4224 168.932 1.10682 169.437 0.868382C169.942 0.629945 170.588 0.510727 171.373 0.510727Z" fill="white"/>
<path d="M142.126 8.22948C143.094 8.22948 143.9 8.42584 144.545 8.81855C145.191 9.21127 145.71 9.73022 146.102 10.3754C146.495 11.0206 146.776 11.7359 146.944 12.5213C147.112 13.2927 147.196 14.0712 147.196 14.8566C147.196 16.2732 147.021 17.6056 146.67 18.8539C146.334 20.1022 145.843 21.2663 145.198 22.3463C144.567 23.4403 143.809 24.4502 142.926 25.3759C142.042 26.3156 141.067 27.1852 140.001 27.9846L138.213 26.007C139.054 25.3478 139.847 24.6395 140.59 23.8821C141.348 23.1247 142.007 22.2972 142.568 21.3996C143.143 20.516 143.592 19.5412 143.914 18.4752C144.237 17.4093 144.398 16.2241 144.398 14.9197C144.398 14.4429 144.356 13.9379 144.272 13.405C144.202 12.872 144.076 12.3741 143.893 11.9112C143.725 11.4484 143.487 11.0697 143.178 10.7751C142.883 10.4806 142.505 10.3333 142.042 10.3333C141.747 10.3333 141.495 10.4175 141.285 10.5858C141.074 10.7541 140.969 10.9785 140.969 11.259C140.969 11.5395 141.046 11.7639 141.2 11.9323C141.355 12.0865 141.544 12.1917 141.768 12.2478C142.007 12.3039 142.231 12.332 142.442 12.332C143.017 12.332 143.508 12.1777 143.914 11.8691C144.321 11.5465 144.7 11.2029 145.05 10.8383L145.808 13.0052C145.317 13.3559 144.777 13.6785 144.188 13.973C143.613 14.2675 142.897 14.4148 142.042 14.4148C140.976 14.4148 140.106 14.1623 139.433 13.6574C138.774 13.1525 138.444 12.367 138.444 11.3011C138.444 10.712 138.585 10.1861 138.865 9.72321C139.146 9.26036 139.559 8.8957 140.106 8.62921C140.653 8.36272 141.327 8.22948 142.126 8.22948Z" fill="white"/>
<path d="M131.147 27.2282C130.53 27.2282 130.025 27.116 129.632 26.8916C129.225 26.6671 128.839 26.3165 128.475 25.8396H128.959C128.622 26.1903 128.306 26.4638 128.012 26.6601C127.703 26.8705 127.381 27.0178 127.044 27.1019C126.708 27.1861 126.301 27.2282 125.824 27.2282C125.01 27.2282 124.365 27.0528 123.888 26.7022C123.412 26.3516 123.075 25.9027 122.879 25.3557C122.682 24.8228 122.584 24.2758 122.584 23.7147C122.584 22.9012 122.752 22.207 123.089 21.6319C123.411 21.0709 123.853 20.6361 124.414 20.3275C124.975 20.033 125.607 19.8857 126.308 19.8857C127.177 19.8857 127.837 20.0891 128.285 20.4958C128.72 20.9166 128.938 21.4286 128.938 22.0317C128.938 22.7329 128.713 23.2659 128.264 23.6306C127.802 23.9952 127.114 24.1776 126.203 24.1776C125.712 24.1776 125.27 24.0794 124.877 23.883C124.47 23.7007 124.12 23.4763 123.825 23.2098L124.393 21.7792C124.562 22.0036 124.786 22.214 125.067 22.4103C125.333 22.6067 125.642 22.7049 125.992 22.7049C126.301 22.7049 126.546 22.6488 126.729 22.5366C126.897 22.4384 126.981 22.2771 126.981 22.0527C126.981 21.8984 126.932 21.7511 126.834 21.6109C126.722 21.4847 126.546 21.4215 126.308 21.4215C125.929 21.4215 125.585 21.5758 125.277 21.8844C124.968 22.193 124.814 22.74 124.814 23.5254V23.7568C124.814 24.1075 124.863 24.402 124.961 24.6404C125.045 24.8789 125.193 25.0542 125.403 25.1664C125.6 25.2786 125.852 25.3347 126.161 25.3347C126.708 25.3347 127.086 25.2085 127.297 24.956C127.493 24.7176 127.612 24.4651 127.654 24.1986H129.695C129.765 24.7035 129.926 25.0191 130.179 25.1454C130.417 25.2716 130.691 25.3347 130.999 25.3347C131.364 25.3347 131.631 25.2295 131.799 25.0191C131.953 24.8087 132.03 24.5633 132.03 24.2828C132.03 23.7077 131.813 23.2238 131.378 22.8311C130.943 22.4384 130.452 22.0878 129.905 21.7792L131.252 19.8857C131.841 20.1803 132.374 20.5379 132.851 20.9587C133.328 21.3795 133.706 21.8563 133.987 22.3893C134.253 22.9223 134.387 23.5184 134.387 24.1776C134.387 25.0893 134.113 25.8256 133.566 26.3866C133.005 26.9477 132.199 27.2282 131.147 27.2282Z" fill="white"/>
<path d="M130.731 19.0059C130.058 19.0059 129.462 18.9077 128.943 18.7114C128.424 18.515 127.898 18.1854 127.365 17.7225C126.846 17.2457 126.222 16.6005 125.492 15.787C125.1 15.3382 124.791 15.0296 124.567 14.8613C124.342 14.679 124.083 14.5878 123.788 14.5878C123.564 14.5878 123.339 14.679 123.115 14.8613C122.905 15.0296 122.799 15.2961 122.799 15.6608C122.799 16.0956 122.912 16.3971 123.136 16.5654C123.375 16.7337 123.648 16.8179 123.957 16.8179C124.293 16.8179 124.63 16.6776 124.966 16.3971C125.303 16.1166 125.541 15.6538 125.682 15.0086L127.428 16.86C127.147 17.2527 126.853 17.6174 126.544 17.954C126.25 18.2766 125.878 18.536 125.429 18.7324C124.98 18.9147 124.377 19.0059 123.62 19.0059C122.792 19.0059 122.112 18.8516 121.579 18.543C121.06 18.2205 120.675 17.8067 120.422 17.3018C120.184 16.7969 120.064 16.2639 120.064 15.7029C120.064 15.0156 120.226 14.4265 120.548 13.9356C120.871 13.4307 121.313 13.038 121.874 12.7575C122.435 12.4769 123.066 12.3367 123.767 12.3367C124.356 12.3367 124.875 12.4138 125.324 12.5681C125.773 12.7224 126.208 12.9749 126.628 13.3255C127.063 13.6761 127.54 14.139 128.059 14.714C128.508 15.2049 128.873 15.5766 129.153 15.8291C129.448 16.0815 129.714 16.2499 129.953 16.334C130.205 16.4182 130.493 16.4602 130.815 16.4602C131.208 16.4602 131.53 16.32 131.783 16.0395C132.049 15.759 132.183 15.3382 132.183 14.7772C132.183 14.1179 132.035 13.5359 131.741 13.031C131.446 12.526 131.061 12.0772 130.584 11.6845C130.121 11.2778 129.623 10.9061 129.09 10.5695L130.731 8.23418C131.558 8.683 132.302 9.21598 132.961 9.83311C133.62 10.4502 134.139 11.1515 134.518 11.937C134.911 12.7084 135.107 13.578 135.107 14.5457C135.107 15.4434 134.939 16.2288 134.602 16.902C134.265 17.5613 133.768 18.0802 133.108 18.4589C132.463 18.8236 131.671 19.0059 130.731 19.0059ZM133.887 21.6778C133.101 21.6778 132.47 21.5516 131.993 21.2991C131.53 21.0466 131.194 20.717 130.983 20.3103C130.787 19.9035 130.689 19.4687 130.689 19.0059C130.689 18.8236 130.703 18.6342 130.731 18.4379C130.773 18.2415 130.829 18.0522 130.899 17.8698H133.613C133.543 17.982 133.487 18.0942 133.445 18.2064C133.403 18.3046 133.382 18.4028 133.382 18.501C133.382 18.6553 133.417 18.7955 133.487 18.9217C133.557 19.048 133.655 19.1462 133.782 19.2163C133.908 19.2864 134.055 19.3215 134.223 19.3215C134.448 19.3215 134.644 19.2794 134.812 19.1952C134.995 19.1251 135.212 18.9989 135.465 18.8165L136.748 20.6679C136.299 21.0046 135.843 21.257 135.38 21.4253C134.932 21.5936 134.434 21.6778 133.887 21.6778ZM124.293 10.4222C123.634 10.4222 123.052 10.317 122.547 10.1066C122.042 9.8822 121.614 9.52454 121.264 9.03364C120.913 8.52872 120.64 7.84847 120.443 6.99291L123.304 6.25656C123.459 6.97187 123.627 7.48381 123.809 7.79237C123.992 8.08691 124.244 8.23418 124.567 8.23418C124.777 8.23418 124.987 8.15704 125.198 8.00276C125.408 7.84847 125.689 7.55393 126.039 7.11914L126.923 6.0041C127.414 5.38697 127.877 4.90308 128.312 4.55244C128.746 4.18777 129.216 3.92128 129.721 3.75298C130.24 3.58467 130.857 3.4935 131.573 3.47948L131.741 5.91994C131.264 5.94799 130.85 6.03215 130.5 6.17241C130.163 6.29864 129.854 6.48097 129.574 6.71941C129.293 6.95784 128.999 7.27342 128.69 7.66614L127.996 8.52872C127.729 8.86533 127.414 9.18091 127.049 9.47545C126.685 9.75597 126.271 9.98739 125.808 10.1697C125.359 10.338 124.854 10.4222 124.293 10.4222Z" fill="white"/>
<path d="M98.4492 13.7836C98.4492 12.7457 98.6736 11.8551 99.1225 11.1118C99.5713 10.3684 100.23 9.79334 101.1 9.38659C101.984 8.97985 103.057 8.77648 104.319 8.77648C105.623 8.77648 106.71 8.96582 107.58 9.34452C108.45 9.72321 109.102 10.2842 109.537 11.0276C109.985 11.7569 110.21 12.6686 110.21 13.7626C110.21 14.7865 109.992 15.6981 109.558 16.4976C109.123 17.283 108.464 17.9002 107.58 18.349C106.71 18.7838 105.623 19.0012 104.319 19.0012C103.029 19.0012 101.942 18.7768 101.058 18.328C100.188 17.8791 99.5362 17.262 99.1014 16.4766C98.6666 15.6911 98.4492 14.7935 98.4492 13.7836ZM101.374 13.5101C101.374 14.3657 101.619 15.074 102.11 15.635C102.615 16.182 103.351 16.4555 104.319 16.4555C104.978 16.4555 105.525 16.3363 105.96 16.0979C106.409 15.8454 106.738 15.5088 106.949 15.088C107.173 14.6532 107.285 14.1623 107.285 13.6153C107.285 13.0543 107.173 12.5494 106.949 12.1006C106.738 11.6517 106.416 11.2941 105.981 11.0276C105.546 10.7471 104.992 10.6068 104.319 10.6068C103.66 10.6068 103.106 10.7401 102.657 11.0066C102.222 11.273 101.9 11.6307 101.689 12.0795C101.479 12.5143 101.374 12.9912 101.374 13.5101ZM115.07 14.8776C114.424 14.8776 113.891 14.7795 113.471 14.5831C113.05 14.3867 112.713 14.1413 112.461 13.8468C112.222 13.5382 112.054 13.2156 111.956 12.879C111.858 12.5424 111.809 12.2338 111.809 11.9533C111.809 11.4063 111.9 10.9434 112.082 10.5648C112.279 10.1861 112.475 9.84243 112.671 9.53386L114.922 9.70217C114.614 9.99671 114.368 10.2842 114.186 10.5648C114.004 10.8453 113.913 11.2029 113.913 11.6377C113.913 11.9884 114.018 12.2759 114.228 12.5003C114.453 12.7247 114.74 12.8369 115.091 12.8369C115.497 12.8369 115.799 12.7387 115.995 12.5424C116.192 12.332 116.29 12.0725 116.29 11.7639C116.29 11.3432 116.122 11.0486 115.785 10.8803C115.448 10.698 114.993 10.6068 114.417 10.6068H98.6386V8.22948H112.608C113.464 8.22948 114.172 8.25753 114.733 8.31363C115.294 8.35571 115.771 8.43986 116.164 8.56609C116.57 8.69232 116.942 8.88868 117.279 9.15517C117.629 9.42166 117.91 9.75828 118.12 10.165C118.331 10.5718 118.436 11.0837 118.436 11.7008C118.436 12.6125 118.141 13.3699 117.552 13.973C116.963 14.5761 116.136 14.8776 115.07 14.8776Z" fill="white"/>
<path d="M84.7705 19.0012C83.8728 19.0012 83.1505 18.8539 82.6035 18.5594C82.0705 18.2508 81.6848 17.8581 81.4464 17.3812C81.222 16.9044 81.1098 16.3994 81.1098 15.8665C81.1098 15.1792 81.2641 14.6112 81.5726 14.1623C81.8812 13.7135 82.2879 13.3839 82.7929 13.1735C83.3118 12.9491 83.8588 12.8369 84.4339 12.8369C85.1632 12.8369 85.7733 12.9631 86.2642 13.2156C86.7691 13.454 87.1829 13.7416 87.5055 14.0782C87.8421 14.4008 88.1086 14.6883 88.305 14.9408L87.232 17.0867C87.0777 16.708 86.8884 16.3503 86.6639 16.0137C86.4536 15.6771 86.2011 15.4036 85.9066 15.1932C85.612 14.9688 85.2614 14.8566 84.8546 14.8566C84.5461 14.8566 84.2656 14.9408 84.0131 15.1091C83.7606 15.2774 83.6344 15.5439 83.6344 15.9085C83.6344 16.2311 83.7396 16.4836 83.95 16.6659C84.1604 16.8483 84.4409 16.9394 84.7915 16.9394C85.2544 16.9394 85.619 16.8132 85.8855 16.5607C86.166 16.3083 86.3624 15.9716 86.4746 15.5509C86.5868 15.1301 86.6429 14.6743 86.6429 14.1834V13.7836C86.6429 13.1946 86.5658 12.6756 86.4115 12.2268C86.2572 11.778 86.0118 11.4273 85.6751 11.1749C85.3385 10.9084 84.8967 10.7751 84.3497 10.7751C84.0131 10.7751 83.7115 10.8453 83.4451 10.9855C83.1786 11.1118 82.9542 11.2941 82.7718 11.5325C82.6035 11.7569 82.4703 12.0164 82.3721 12.3109H79.6581C79.588 12.0865 79.4618 11.8411 79.2794 11.5746C79.1111 11.2941 78.8587 11.0556 78.522 10.8593C78.1854 10.6489 77.7226 10.5437 77.1335 10.5437C76.6426 10.5437 76.2429 10.6279 75.9343 10.7962C75.6398 10.9505 75.4925 11.2099 75.4925 11.5746C75.4925 11.7149 75.5135 11.8481 75.5556 11.9743C75.6117 12.0865 75.7099 12.1847 75.8501 12.2689C75.9764 12.339 76.1377 12.4021 76.334 12.4582C76.5444 12.5003 76.867 12.5213 77.3018 12.5213H78.5431V14.7093H77.2387C76.8039 14.7093 76.4673 14.7304 76.2288 14.7725C75.9904 14.8145 75.8011 14.8917 75.6608 15.0039C75.5626 15.088 75.4785 15.1932 75.4083 15.3195C75.3522 15.4317 75.3242 15.5649 75.3242 15.7192C75.3242 15.9997 75.4154 16.2311 75.5977 16.4135C75.794 16.5958 76.1096 16.687 76.5444 16.687C77.0073 16.687 77.421 16.5677 77.7857 16.3293C78.1644 16.0909 78.5291 15.7753 78.8797 15.3826L80.689 16.9815C80.3103 17.4163 79.8966 17.788 79.4477 18.0965C79.0129 18.3911 78.5291 18.6155 77.9961 18.7698C77.4631 18.9241 76.853 19.0012 76.1657 19.0012C74.8473 19.0012 73.8515 18.7277 73.1783 18.1807C72.5191 17.6197 72.1895 16.9324 72.1895 16.1189C72.1895 15.7262 72.2666 15.3615 72.4209 15.0249C72.5752 14.6743 72.8136 14.3727 73.1362 14.1203C73.4728 13.8538 73.8936 13.6434 74.3985 13.4891L74.3775 13.7626C73.6762 13.5242 73.1642 13.1665 72.8416 12.6896C72.5191 12.2128 72.3578 11.6868 72.3578 11.1118C72.3578 10.2422 72.7364 9.54789 73.4938 9.02894C74.2512 8.49596 75.2541 8.22948 76.5023 8.22948C77.2457 8.22948 77.8769 8.2996 78.3958 8.43986C78.9288 8.56609 79.4197 8.77648 79.8685 9.07102C80.3173 9.35153 80.7732 9.73724 81.236 10.2281L80.7942 10.2492C81.1168 9.8284 81.4534 9.47075 81.8041 9.17621C82.1687 8.86765 82.5755 8.63622 83.0243 8.48194C83.4871 8.31363 84.0341 8.22948 84.6653 8.22948C85.7172 8.22948 86.5938 8.46791 87.2951 8.94479C87.9964 9.40763 88.5223 10.0598 88.873 10.9014C89.2377 11.7289 89.42 12.6826 89.42 13.7626C89.42 14.8706 89.2517 15.8174 88.9151 16.6028C88.5784 17.3742 88.0665 17.9703 87.3793 18.3911C86.692 18.7978 85.8224 19.0012 84.7705 19.0012Z" fill="white"/>
<path d="M56.0082 8.75544C57.1864 8.75544 58.2033 8.93076 59.0588 9.2814C59.9144 9.63204 60.5736 10.158 61.0364 10.8593C61.4993 11.5606 61.7307 12.4302 61.7307 13.4681C61.7307 14.3236 61.6536 15.081 61.4993 15.7402C61.345 16.3994 61.1487 16.9885 60.9102 17.5075C60.6718 18.0124 60.4333 18.4822 60.1949 18.917L57.3757 17.823C57.6142 17.5004 57.8386 17.1428 58.049 16.7501C58.2734 16.3433 58.4557 15.8945 58.596 15.4036C58.7362 14.9127 58.8064 14.3797 58.8064 13.8047C58.8064 13.2577 58.7152 12.7387 58.5329 12.2478C58.3505 11.7569 58.049 11.3642 57.6282 11.0697C57.2215 10.7611 56.6604 10.6068 55.9451 10.6068C55.3701 10.6068 54.8722 10.7401 54.4514 11.0066C54.0447 11.273 53.7291 11.6447 53.5047 12.1216C53.2803 12.5844 53.168 13.1244 53.168 13.7416C53.168 14.5551 53.3013 15.3054 53.5678 15.9927C53.8343 16.6659 54.1779 17.269 54.5987 17.802L51.7585 18.917C51.3237 18.1737 50.959 17.3602 50.6645 16.4766C50.3699 15.593 50.2227 14.6602 50.2227 13.6785C50.2227 12.7528 50.4401 11.9182 50.8748 11.1749C51.3237 10.4315 51.9759 9.84243 52.8314 9.40763C53.687 8.97284 54.7459 8.75544 56.0082 8.75544ZM66.5906 14.8776C65.9454 14.8776 65.4125 14.7795 64.9917 14.5831C64.5709 14.3867 64.2413 14.1413 64.0029 13.8468C63.7644 13.5382 63.5961 13.2156 63.498 12.879C63.3998 12.5424 63.3507 12.2338 63.3507 11.9533C63.3507 11.4063 63.4419 10.9434 63.6242 10.5648C63.8205 10.1861 64.0169 9.84243 64.2133 9.53386L66.4644 9.70217C66.1558 9.99671 65.9104 10.2842 65.728 10.5648C65.5457 10.8453 65.4545 11.2029 65.4545 11.6377C65.4545 11.9884 65.5597 12.2759 65.7701 12.5003C65.9945 12.7247 66.282 12.8369 66.6327 12.8369C67.0394 12.8369 67.341 12.7387 67.5373 12.5424C67.7337 12.332 67.8319 12.0725 67.8319 11.7639C67.8319 11.3432 67.6636 11.0486 67.327 10.8803C66.9903 10.698 66.5415 10.6068 65.9805 10.6068H50.3278V8.22948H64.1501C65.0057 8.22948 65.714 8.25753 66.275 8.31363C66.8361 8.35571 67.3129 8.43986 67.7057 8.56609C68.1124 8.69232 68.4841 8.88868 68.8207 9.15517C69.1713 9.42166 69.4519 9.75828 69.6622 10.165C69.8726 10.5718 69.9778 11.0837 69.9778 11.7008C69.9778 12.6125 69.6763 13.3699 69.0732 13.973C68.4841 14.5761 67.6566 14.8776 66.5906 14.8776Z" fill="white"/>
<path d="M37.2227 14.3946C37.2227 13.511 37.433 12.7185 37.8538 12.0173C38.2746 11.316 38.8707 10.762 39.6421 10.3552C40.4135 9.94847 41.3322 9.7451 42.3981 9.7451C43.4781 9.7451 44.3968 9.94847 45.1542 10.3552C45.9116 10.762 46.4866 11.316 46.8793 12.0173C47.2861 12.7185 47.4894 13.511 47.4894 14.3946C47.4894 15.2782 47.2861 16.0707 46.8793 16.772C46.4726 17.4592 45.8835 18.0062 45.1121 18.413C44.3547 18.8057 43.436 19.002 42.3561 19.002C41.2901 19.002 40.3714 18.7987 39.6 18.3919C38.8286 17.9852 38.2395 17.4382 37.8328 16.7509C37.426 16.0496 37.2227 15.2642 37.2227 14.3946ZM40.0418 14.3736C40.0418 15.0188 40.2312 15.5658 40.6099 16.0146C41.0026 16.4494 41.5846 16.6668 42.3561 16.6668C42.875 16.6668 43.3028 16.5686 43.6394 16.3722C43.976 16.1618 44.2285 15.8813 44.3968 15.5307C44.5791 15.1801 44.6703 14.7943 44.6703 14.3736C44.6703 13.7284 44.4669 13.1884 44.0602 12.7536C43.6675 12.3048 43.0994 12.0804 42.3561 12.0804C41.8652 12.0804 41.4444 12.1856 41.0937 12.396C40.7571 12.5923 40.4977 12.8658 40.3153 13.2165C40.133 13.5531 40.0418 13.9388 40.0418 14.3736Z" fill="white"/>
<path d="M27.241 19.0012C25.6421 19.0012 24.2886 18.7417 23.1806 18.2228C22.0726 17.6898 21.231 16.9745 20.656 16.0768C20.095 15.1652 19.8145 14.1413 19.8145 13.0052C19.8145 12.0234 20.0038 11.1749 20.3825 10.4596C20.7752 9.74425 21.3222 9.19725 22.0235 8.81855C22.7248 8.42584 23.5313 8.22948 24.4429 8.22948C25.2845 8.22948 25.9647 8.38376 26.4837 8.69232C27.0026 8.98686 27.3813 9.37257 27.6197 9.84944C27.8582 10.3123 27.9774 10.7962 27.9774 11.3011C27.9774 11.9463 27.8371 12.5003 27.5566 12.9631C27.2761 13.426 26.8694 13.7766 26.3364 14.0151C25.8034 14.2535 25.1512 14.3727 24.3798 14.3727C23.8188 14.3727 23.3209 14.2956 22.8861 14.1413C22.4513 13.987 22.0726 13.7977 21.75 13.5733C21.4414 13.3488 21.182 13.1455 20.9716 12.9631L21.4555 10.9855C21.6238 11.1959 21.8201 11.4063 22.0445 11.6167C22.283 11.8271 22.5495 12.0024 22.844 12.1426C23.1385 12.2689 23.4541 12.332 23.7907 12.332C24.2255 12.332 24.5762 12.2548 24.8427 12.1006C25.1091 11.9323 25.2424 11.6588 25.2424 11.2801C25.2424 11.0416 25.1582 10.8242 24.9899 10.6279C24.8216 10.4175 24.5762 10.3123 24.2536 10.3123C23.7627 10.3123 23.3559 10.5227 23.0333 10.9434C22.7108 11.3502 22.5495 11.8411 22.5495 12.4161V13.2366C22.5495 13.5733 22.6196 13.9309 22.7598 14.3096C22.9141 14.6743 23.1666 15.0249 23.5172 15.3615C23.8819 15.6841 24.3728 15.9506 24.9899 16.161C25.6211 16.3574 26.4065 16.4555 27.3462 16.4555C28.6647 16.4555 29.7236 16.2311 30.5231 15.7823C31.3365 15.3195 31.7433 14.5971 31.7433 13.6153C31.7433 12.9561 31.5399 12.4091 31.1332 11.9743C30.7405 11.5255 30.1233 11.0697 29.2818 10.6068L30.9228 8.22948C32.0308 8.77648 32.9285 9.4988 33.6157 10.3964C34.317 11.2801 34.6676 12.367 34.6676 13.6574C34.6676 14.6532 34.4012 15.5579 33.8682 16.3714C33.3492 17.1708 32.5428 17.809 31.4488 18.2859C30.3547 18.7628 28.9522 19.0012 27.241 19.0012Z" fill="white"/>
<path d="M15.6737 7.24106C15.6737 7.73196 15.5755 8.1878 15.3792 8.60857C15.1828 9.02934 14.9093 9.35894 14.5586 9.59738C14.18 9.86386 13.6891 10.0883 13.086 10.2706C12.4969 10.4389 11.8938 10.5231 11.2766 10.5231H7.84736V8.22987H11.2977C11.7044 8.22987 12.006 8.20883 12.2023 8.16676C12.4127 8.11065 12.574 8.03351 12.6862 7.93533C12.7704 7.85118 12.8335 7.76001 12.8756 7.66183C12.9176 7.54963 12.9387 7.43041 12.9387 7.30418C12.9387 7.13587 12.9176 6.99561 12.8756 6.88341C12.8335 6.75718 12.7634 6.65198 12.6652 6.56783C12.553 6.46965 12.3917 6.39952 12.1813 6.35744C11.9849 6.31537 11.6553 6.29433 11.1925 6.29433H3.09266V3.91698H10.919C11.9148 3.91698 12.6862 3.99412 13.2332 4.1484C13.7942 4.28866 14.2781 4.52709 14.6849 4.86371C14.9794 5.11617 15.2179 5.43876 15.4002 5.83148C15.5825 6.2242 15.6737 6.69406 15.6737 7.24106ZM8.28917 19.0016C6.35363 19.0016 4.77574 18.7772 3.55551 18.3284C2.33527 17.8795 1.43763 17.2484 0.862579 16.4349C0.287526 15.6214 0 14.6817 0 13.6157C0 12.8022 0.189347 12.0869 0.56804 11.4698C0.946733 10.8527 1.46568 10.3688 2.12489 10.0181C2.79812 9.6675 3.56252 9.49218 4.41809 9.49218C5.1895 9.49218 5.83468 9.63244 6.35363 9.91295C6.87258 10.1794 7.2653 10.5441 7.53179 11.007C7.79827 11.4698 7.93152 11.9888 7.93152 12.5638C7.93152 13.5456 7.61594 14.289 6.98479 14.7939C6.35363 15.2848 5.49105 15.5302 4.39705 15.5302C3.89212 15.5302 3.41525 15.4531 2.96643 15.2988C2.53163 15.1305 2.13892 14.9271 1.78827 14.6887C1.43763 14.4503 1.14309 14.2258 0.904656 14.0155L1.61997 12.3113C1.88645 12.6199 2.20904 12.9144 2.58774 13.195C2.96643 13.4614 3.41525 13.5947 3.9342 13.5947C4.35497 13.5947 4.6986 13.5105 4.96509 13.3422C5.2456 13.1739 5.38586 12.9074 5.38586 12.5428C5.38586 12.2623 5.29469 12.0308 5.11236 11.8485C4.93002 11.6662 4.65652 11.575 4.29186 11.575C3.99732 11.575 3.7168 11.6591 3.45032 11.8275C3.18383 11.9817 2.96643 12.2202 2.79812 12.5428C2.62981 12.8513 2.54566 13.237 2.54566 13.6999V13.8261C2.54566 14.2469 2.65085 14.6256 2.86124 14.9622C3.08565 15.2988 3.42928 15.5863 3.89212 15.8248C4.35497 16.0492 4.95106 16.2245 5.6804 16.3507C6.40973 16.4629 7.28634 16.519 8.31021 16.519C9.39019 16.519 10.3299 16.47 11.1294 16.3718C11.9288 16.2736 12.588 16.1193 13.107 15.9089C13.6259 15.6845 14.0116 15.39 14.2641 15.0253C14.5306 14.6466 14.6638 14.1838 14.6638 13.6368V13.5737C14.6638 13.0126 14.4955 12.5358 14.1589 12.143C13.8223 11.7503 13.3454 11.554 12.7283 11.554C12.4197 11.554 12.1322 11.6381 11.8657 11.8064C11.6133 11.9607 11.487 12.2132 11.487 12.5638C11.487 12.9425 11.6062 13.209 11.8447 13.3633C12.0831 13.5035 12.3777 13.5737 12.7283 13.5737C13.0789 13.5737 13.3735 13.5035 13.6119 13.3633C13.8504 13.223 14.0537 13.0267 14.222 12.7742C14.3903 12.5077 14.5236 12.1991 14.6218 11.8485L15.7789 13.3843C15.4843 13.8051 15.1828 14.1838 14.8742 14.5204C14.5797 14.843 14.222 15.0954 13.8013 15.2778C13.3805 15.4601 12.8335 15.5513 12.1603 15.5513C11.6273 15.5513 11.1153 15.4671 10.6244 15.2988C10.1335 15.1165 9.73382 14.829 9.42525 14.4362C9.13071 14.0295 8.98344 13.4895 8.98344 12.8163C8.98344 12.0028 9.285 11.3576 9.8881 10.8807C10.4912 10.3898 11.3327 10.1444 12.4127 10.1444C12.6792 10.1444 12.9176 10.1514 13.128 10.1654C13.3384 10.1794 13.5348 10.2005 13.7171 10.2285C13.8994 10.2426 14.0748 10.2706 14.2431 10.3127L11.8026 10.3548C11.6203 10.2987 11.4239 10.2566 11.2135 10.2285C11.0172 10.1865 10.8138 10.1584 10.6034 10.1444C10.407 10.1163 10.1967 10.1023 9.97225 10.1023L10.8769 8.4613C11.7605 8.50337 12.581 8.65064 13.3384 8.9031C14.1098 9.14154 14.7831 9.48517 15.3581 9.93399C15.9332 10.3688 16.382 10.9018 16.7046 11.5329C17.0412 12.15 17.2095 12.8583 17.2095 13.6578C17.2095 14.5555 17.0412 15.3409 16.7046 16.0141C16.368 16.6733 15.842 17.2273 15.1267 17.6762C14.4114 18.111 13.4857 18.4406 12.3496 18.665C11.2276 18.8894 9.87407 19.0016 8.28917 19.0016Z" fill="white"/>
</svg>
