<svg width="328" height="29" viewBox="0 0 328 29" fill="none" xmlns="http://www.w3.org/2000/svg">
<path d="M323.722 27.2292C323.077 27.2292 322.551 27.124 322.144 26.9136C321.723 26.7172 321.31 26.3596 320.903 25.8406H321.387C320.91 26.3596 320.468 26.7172 320.061 26.9136C319.641 27.124 319.122 27.2292 318.505 27.2292C317.887 27.2292 317.375 27.0889 316.969 26.8084C316.562 26.5279 316.26 26.1562 316.064 25.6933C315.868 25.2305 315.77 24.7326 315.77 24.1996C315.77 23.316 316.008 22.5516 316.485 21.9064C316.948 21.2612 317.586 20.7633 318.399 20.4127C319.199 20.062 320.103 19.8867 321.113 19.8867C322.151 19.8867 323.077 20.0691 323.89 20.4337C324.69 20.8124 325.321 21.3244 325.784 21.9695C326.247 22.6287 326.478 23.3861 326.478 24.2417C326.478 24.7466 326.394 25.2235 326.226 25.6723C326.043 26.1352 325.749 26.5068 325.342 26.7874C324.935 27.0819 324.395 27.2292 323.722 27.2292ZM323.217 25.3357C323.498 25.3357 323.722 25.2305 323.89 25.0201C324.059 24.8097 324.143 24.5292 324.143 24.1786C324.143 23.4352 323.855 22.8461 323.28 22.4113C322.705 21.9906 321.983 21.7802 321.113 21.7802C320.174 21.7802 319.437 21.9906 318.904 22.4113C318.357 22.8321 318.084 23.4072 318.084 24.1365C318.084 24.5012 318.168 24.7887 318.336 24.9991C318.505 25.2235 318.736 25.3357 319.03 25.3357C319.311 25.3357 319.542 25.2656 319.725 25.1253C319.893 24.9991 320.033 24.8167 320.146 24.5783H322.081C322.193 24.8448 322.334 25.0341 322.502 25.1463C322.67 25.2726 322.909 25.3357 323.217 25.3357ZM320.082 28.5967L320.167 26.8925H322.018L322.165 28.5967H320.082ZM319.998 23.337C319.998 23.0285 320.103 22.797 320.314 22.6428C320.524 22.5025 320.791 22.4324 321.113 22.4324C321.478 22.4324 321.758 22.5095 321.955 22.6638C322.151 22.8181 322.249 23.0425 322.249 23.337C322.249 23.6596 322.151 23.891 321.955 24.0313C321.744 24.1716 321.464 24.2417 321.113 24.2417C320.777 24.2417 320.51 24.1645 320.314 24.0103C320.103 23.87 319.998 23.6456 319.998 23.337Z" fill="white"/>
<path d="M322.799 19.0069C322.21 19.0069 321.642 18.9227 321.095 18.7544C320.562 18.6001 320.008 18.3126 319.433 17.8918C318.872 17.4711 318.255 16.882 317.581 16.1246C317.273 15.774 317.02 15.5145 316.824 15.3462C316.642 15.1639 316.487 15.0446 316.361 14.9885C316.235 14.9184 316.095 14.8833 315.94 14.8833C315.758 14.8833 315.59 14.9605 315.436 15.1148C315.281 15.269 315.204 15.4794 315.204 15.7459C315.204 16.0966 315.281 16.4682 315.436 16.861C315.604 17.2537 315.842 17.6744 316.151 18.1233L313.205 19.0279C312.953 18.537 312.736 18.0181 312.553 17.4711C312.385 16.9101 312.301 16.3069 312.301 15.6618C312.301 15.0166 312.455 14.4485 312.764 13.9576C313.072 13.4527 313.493 13.06 314.026 12.7795C314.573 12.485 315.19 12.3377 315.877 12.3377C316.522 12.3377 317.091 12.4359 317.581 12.6322C318.072 12.8286 318.528 13.1091 318.949 13.4738C319.384 13.8384 319.826 14.2732 320.274 14.7781C320.681 15.2129 321.025 15.5566 321.305 15.809C321.586 16.0475 321.852 16.2158 322.105 16.314C322.371 16.4121 322.659 16.4612 322.967 16.4612C323.36 16.4612 323.69 16.321 323.956 16.0405C324.223 15.7599 324.356 15.3392 324.356 14.7781C324.356 14.1189 324.209 13.5369 323.914 13.032C323.619 12.527 323.234 12.0782 322.757 11.6855C322.28 11.2787 321.775 10.9071 321.242 10.5704L322.904 8.23517C323.732 8.68399 324.475 9.21697 325.134 9.8341C325.793 10.4512 326.312 11.1525 326.691 11.938C327.084 12.7094 327.28 13.579 327.28 14.5467C327.28 15.4444 327.105 16.2298 326.754 16.903C326.418 17.5622 325.913 18.0812 325.239 18.4599C324.58 18.8246 323.767 19.0069 322.799 19.0069ZM316.53 10.4232C315.87 10.4232 315.288 10.318 314.783 10.1076C314.278 9.88319 313.851 9.52553 313.5 9.03464C313.149 8.52971 312.876 7.84947 312.679 6.9939L315.541 6.25755C315.695 6.97286 315.863 7.4848 316.046 7.79336C316.228 8.0879 316.48 8.23517 316.803 8.23517C317.013 8.23517 317.224 8.15803 317.434 8.00375C317.645 7.84947 317.925 7.55493 318.276 7.12013L319.159 6.00509C319.65 5.38796 320.113 4.90407 320.548 4.55343C320.983 4.18876 321.453 3.92228 321.957 3.75397C322.476 3.58566 323.094 3.49449 323.809 3.48047L323.977 5.92094C323.5 5.94899 323.087 6.03314 322.736 6.1734C322.399 6.29963 322.091 6.48196 321.81 6.7204C321.53 6.95884 321.235 7.27441 320.927 7.66713L320.232 8.52971C319.966 8.86633 319.65 9.18191 319.286 9.47644C318.921 9.75696 318.507 9.98838 318.044 10.1707C317.595 10.339 317.091 10.4232 316.53 10.4232Z" fill="white"/>
<path d="M299.576 14.3956C299.576 13.512 299.786 12.7195 300.207 12.0183C300.628 11.317 301.224 10.763 301.995 10.3562C302.767 9.94947 303.685 9.74609 304.751 9.74609C305.831 9.74609 306.75 9.94947 307.507 10.3562C308.265 10.763 308.84 11.317 309.233 12.0183C309.639 12.7195 309.843 13.512 309.843 14.3956C309.843 15.2792 309.639 16.0717 309.233 16.773C308.826 17.4602 308.237 18.0072 307.465 18.414C306.708 18.8067 305.789 19.003 304.709 19.003C303.643 19.003 302.725 18.7997 301.953 18.3929C301.182 17.9862 300.593 17.4392 300.186 16.7519C299.779 16.0506 299.576 15.2652 299.576 14.3956ZM302.395 14.3746C302.395 15.0197 302.584 15.5667 302.963 16.0156C303.356 16.4504 303.938 16.6678 304.709 16.6678C305.228 16.6678 305.656 16.5696 305.993 16.3732C306.329 16.1628 306.582 15.8823 306.75 15.5317C306.932 15.181 307.024 14.7953 307.024 14.3746C307.024 13.7294 306.82 13.1894 306.413 12.7546C306.021 12.3058 305.453 12.0814 304.709 12.0814C304.218 12.0814 303.798 12.1866 303.447 12.3969C303.11 12.5933 302.851 12.8668 302.669 13.2174C302.486 13.5541 302.395 13.9398 302.395 14.3746Z" fill="white"/>
<path d="M292.5 19.0069C291.911 19.0069 291.343 18.9227 290.796 18.7544C290.263 18.6001 289.709 18.3126 289.134 17.8918C288.573 17.4711 287.956 16.882 287.283 16.1246C286.974 15.774 286.722 15.5145 286.525 15.3462C286.343 15.1639 286.189 15.0446 286.062 14.9885C285.936 14.9184 285.796 14.8833 285.642 14.8833C285.459 14.8833 285.291 14.9605 285.137 15.1148C284.982 15.269 284.905 15.4794 284.905 15.7459C284.905 16.0966 284.982 16.4682 285.137 16.861C285.305 17.2537 285.543 17.6744 285.852 18.1233L282.907 19.0279C282.654 18.537 282.437 18.0181 282.254 17.4711C282.086 16.9101 282.002 16.3069 282.002 15.6618C282.002 15.0166 282.156 14.4485 282.465 13.9576C282.773 13.4527 283.194 13.06 283.727 12.7795C284.274 12.485 284.891 12.3377 285.578 12.3377C286.224 12.3377 286.792 12.4359 287.283 12.6322C287.774 12.8286 288.229 13.1091 288.65 13.4738C289.085 13.8384 289.527 14.2732 289.976 14.7781C290.382 15.2129 290.726 15.5566 291.006 15.809C291.287 16.0475 291.553 16.2158 291.806 16.314C292.072 16.4121 292.36 16.4612 292.668 16.4612C293.061 16.4612 293.391 16.321 293.657 16.0405C293.924 15.7599 294.057 15.3392 294.057 14.7781C294.057 14.1189 293.91 13.5369 293.615 13.032C293.321 12.527 292.935 12.0782 292.458 11.6855C291.981 11.2787 291.476 10.9071 290.943 10.5704L292.605 8.23517C293.433 8.68399 294.176 9.21697 294.835 9.8341C295.495 10.4512 296.014 11.1525 296.392 11.938C296.785 12.7094 296.981 13.579 296.981 14.5467C296.981 15.4444 296.806 16.2298 296.455 16.903C296.119 17.5622 295.614 18.0812 294.941 18.4599C294.281 18.8246 293.468 19.0069 292.5 19.0069ZM286.231 10.4232C285.571 10.4232 284.989 10.318 284.484 10.1076C283.98 9.88319 283.552 9.52553 283.201 9.03464C282.85 8.52971 282.577 7.84947 282.381 6.9939L285.242 6.25755C285.396 6.97286 285.564 7.4848 285.747 7.79336C285.929 8.0879 286.182 8.23517 286.504 8.23517C286.715 8.23517 286.925 8.15803 287.135 8.00375C287.346 7.84947 287.626 7.55493 287.977 7.12013L288.861 6.00509C289.351 5.38796 289.814 4.90407 290.249 4.55343C290.684 4.18876 291.154 3.92228 291.659 3.75397C292.178 3.58566 292.795 3.49449 293.51 3.48047L293.678 5.92094C293.201 5.94899 292.788 6.03314 292.437 6.1734C292.1 6.29963 291.792 6.48196 291.511 6.7204C291.231 6.95884 290.936 7.27441 290.628 7.66713L289.933 8.52971C289.667 8.86633 289.351 9.18191 288.987 9.47644C288.622 9.75696 288.208 9.98838 287.745 10.1707C287.297 10.339 286.792 10.4232 286.231 10.4232Z" fill="white"/>
<path d="M260.685 19.0022C259.787 19.0022 259.065 18.8549 258.518 18.5604C257.985 18.2518 257.599 17.8591 257.36 17.3822C257.136 16.9053 257.024 16.4004 257.024 15.8674C257.024 15.1802 257.178 14.6121 257.487 14.1633C257.795 13.7145 258.202 13.3849 258.707 13.1745C259.226 12.9501 259.773 12.8379 260.348 12.8379C261.077 12.8379 261.687 12.9641 262.178 13.2166C262.683 13.455 263.097 13.7426 263.42 14.0792C263.756 14.4018 264.023 14.6893 264.219 14.9418L263.146 17.0877C262.992 16.709 262.802 16.3513 262.578 16.0147C262.368 15.6781 262.115 15.4046 261.821 15.1942C261.526 14.9698 261.175 14.8576 260.769 14.8576C260.46 14.8576 260.18 14.9418 259.927 15.1101C259.675 15.2784 259.548 15.5449 259.548 15.9095C259.548 16.2321 259.654 16.4846 259.864 16.6669C260.074 16.8492 260.355 16.9404 260.706 16.9404C261.168 16.9404 261.533 16.8142 261.8 16.5617C262.08 16.3093 262.276 15.9726 262.389 15.5519C262.501 15.1311 262.557 14.6753 262.557 14.1844V13.6584C262.557 13.0834 262.48 12.5644 262.326 12.1016C262.171 11.6387 261.926 11.274 261.589 11.0076C261.267 10.7411 260.832 10.6078 260.285 10.6078C259.948 10.6078 259.64 10.685 259.359 10.8392C259.093 10.9795 258.868 11.1759 258.686 11.4283C258.504 11.6808 258.37 11.9753 258.286 12.3119H255.572C255.502 12.0875 255.376 11.8421 255.193 11.5756C255.025 11.2951 254.773 11.0566 254.436 10.8603C254.099 10.6499 253.637 10.5447 253.048 10.5447C252.557 10.5447 252.157 10.6289 251.848 10.7972C251.554 10.9514 251.407 11.2109 251.407 11.5756C251.407 11.7158 251.428 11.8491 251.47 11.9753C251.526 12.0875 251.624 12.1857 251.764 12.2699C251.89 12.34 252.052 12.4031 252.248 12.4592C252.458 12.5013 252.781 12.5223 253.216 12.5223H254.457V14.7103H253.153C252.718 14.7103 252.381 14.7314 252.143 14.7734C251.904 14.8155 251.715 14.8927 251.575 15.0049C251.477 15.089 251.393 15.1942 251.322 15.3204C251.266 15.4327 251.238 15.5659 251.238 15.7202C251.238 16.0007 251.329 16.2321 251.512 16.4144C251.708 16.5968 252.024 16.688 252.458 16.688C252.921 16.688 253.335 16.5687 253.7 16.3303C254.078 16.0919 254.443 15.7763 254.794 15.3836L256.603 16.9825C256.224 17.4173 255.811 17.789 255.362 18.0975C254.927 18.3921 254.443 18.6165 253.91 18.7708C253.377 18.925 252.767 19.0022 252.08 19.0022C250.761 19.0022 249.766 18.7287 249.092 18.1817C248.433 17.6207 248.104 16.9334 248.104 16.1199C248.104 15.7272 248.181 15.3625 248.335 15.0259C248.489 14.6753 248.728 14.3737 249.05 14.1213C249.387 13.8548 249.808 13.6444 250.313 13.4901L250.292 13.7636C249.604 13.5111 249.092 13.1815 248.756 12.7748C248.433 12.354 248.272 11.8561 248.272 11.2811C248.272 10.7621 248.454 10.3203 248.819 9.95563C249.198 9.57693 249.716 9.28239 250.376 9.07201C251.035 8.86162 251.792 8.75643 252.648 8.75643C253.405 8.75643 254.036 8.8476 254.541 9.02993C255.06 9.19824 255.516 9.4507 255.909 9.78732C256.316 10.1099 256.736 10.5096 257.171 10.9865L256.687 11.0076C257.024 10.5307 257.388 10.145 257.781 9.85043C258.174 9.54187 258.595 9.31746 259.044 9.1772C259.506 9.02292 259.99 8.94578 260.495 8.94578C261.561 8.94578 262.452 9.13512 263.167 9.51382C263.882 9.89251 264.422 10.4465 264.787 11.1759C265.152 11.9052 265.334 12.7958 265.334 13.8478C265.334 14.8857 265.166 15.7973 264.829 16.5828C264.493 17.3542 263.981 17.9503 263.293 18.371C262.606 18.7918 261.736 19.0022 260.685 19.0022ZM270.215 14.8786C269.57 14.8786 269.037 14.7805 268.616 14.5841C268.195 14.3877 267.866 14.1423 267.627 13.8478C267.389 13.5392 267.22 13.2166 267.122 12.88C267.024 12.5434 266.975 12.2348 266.975 11.9543C266.975 11.3792 267.066 10.9094 267.249 10.5447C267.431 10.18 267.62 9.84342 267.817 9.53486L270.089 9.70316C269.78 9.9977 269.535 10.2852 269.352 10.5657C269.17 10.8463 269.079 11.2039 269.079 11.6387C269.079 11.9893 269.184 12.2769 269.394 12.5013C269.619 12.7257 269.899 12.8379 270.236 12.8379C270.643 12.8379 270.944 12.7397 271.141 12.5434C271.351 12.333 271.456 12.0735 271.456 11.7649C271.456 11.3442 271.281 11.0496 270.93 10.8813C270.594 10.699 270.138 10.6078 269.563 10.6078H255.257L253.826 10.0398L251.238 10.6078H248.335V8.23047H267.753C268.609 8.23047 269.317 8.25852 269.878 8.31462C270.453 8.3567 270.937 8.44085 271.33 8.56708C271.737 8.69332 272.108 8.88967 272.445 9.15616C272.796 9.42265 273.076 9.75927 273.287 10.166C273.497 10.5728 273.602 11.0847 273.602 11.7018C273.602 12.6135 273.301 13.3709 272.698 13.974C272.108 14.5771 271.281 14.8786 270.215 14.8786Z" fill="white"/>
<path d="M233.446 19.0022C232.773 19.0022 232.176 18.904 231.658 18.7076C231.139 18.5113 230.613 18.1817 230.08 17.7188C229.561 17.242 228.937 16.5968 228.207 15.7833C227.815 15.3345 227.506 15.0259 227.282 14.8576C227.057 14.6753 226.798 14.5841 226.503 14.5841C226.279 14.5841 226.054 14.6753 225.83 14.8576C225.619 15.0259 225.514 15.2924 225.514 15.6571C225.514 16.0919 225.626 16.3934 225.851 16.5617C226.089 16.73 226.363 16.8142 226.671 16.8142C227.008 16.8142 227.345 16.6739 227.681 16.3934C228.018 16.1129 228.256 15.6501 228.397 15.0049L230.143 16.8563C229.862 17.249 229.568 17.6136 229.259 17.9503C228.965 18.2729 228.593 18.5323 228.144 18.7287C227.695 18.911 227.092 19.0022 226.335 19.0022C225.507 19.0022 224.827 18.8479 224.294 18.5393C223.775 18.2167 223.389 17.803 223.137 17.2981C222.899 16.7791 222.779 16.2391 222.779 15.6781C222.779 15.0049 222.941 14.4228 223.263 13.9319C223.586 13.427 224.028 13.0343 224.589 12.7537C225.15 12.4732 225.781 12.333 226.482 12.333C227.071 12.333 227.59 12.4101 228.039 12.5644C228.488 12.7187 228.923 12.9711 229.343 13.3218C229.778 13.6724 230.255 14.1353 230.774 14.7103C231.223 15.2012 231.594 15.5729 231.889 15.8254C232.184 16.0778 232.45 16.2461 232.688 16.3303C232.927 16.4144 233.172 16.4565 233.425 16.4565C233.874 16.4565 234.231 16.3163 234.498 16.0358C234.764 15.7552 234.897 15.3064 234.897 14.6893C234.897 13.974 234.708 13.3218 234.329 12.7327C233.951 12.1436 233.432 11.6387 232.773 11.2179C232.113 10.7972 231.363 10.4956 230.521 10.3133L235.55 10.2291C236.013 10.5377 236.412 10.9094 236.749 11.3442C237.099 11.7649 237.366 12.2418 237.548 12.7748C237.731 13.2937 237.822 13.8618 237.822 14.4789C237.822 15.3906 237.654 16.19 237.317 16.8773C236.98 17.5505 236.482 18.0765 235.823 18.4552C235.178 18.8199 234.386 19.0022 233.446 19.0022ZM242.513 14.8786C241.868 14.8786 241.335 14.7805 240.914 14.5841C240.494 14.3877 240.164 14.1423 239.926 13.8478C239.687 13.5392 239.519 13.2166 239.421 12.88C239.323 12.5434 239.273 12.2348 239.273 11.9543C239.273 11.3792 239.365 10.9094 239.547 10.5447C239.729 10.18 239.919 9.84342 240.115 9.53486L242.366 9.70316C242.072 9.9977 241.833 10.2852 241.651 10.5657C241.469 10.8463 241.377 11.2039 241.377 11.6387C241.377 11.9893 241.483 12.2769 241.693 12.5013C241.917 12.7257 242.198 12.8379 242.534 12.8379C242.941 12.8379 243.243 12.7397 243.439 12.5434C243.635 12.333 243.734 12.0735 243.734 11.7649C243.734 11.3442 243.565 11.0496 243.229 10.8813C242.892 10.699 242.443 10.6078 241.882 10.6078H225.009V8.23047H240.052C240.907 8.23047 241.616 8.25852 242.177 8.31462C242.738 8.3567 243.215 8.44085 243.607 8.56708C244.014 8.69332 244.386 8.88967 244.722 9.15616C245.087 9.42265 245.368 9.75927 245.564 10.166C245.774 10.5728 245.88 11.0847 245.88 11.7018C245.88 12.6135 245.585 13.3709 244.996 13.974C244.407 14.5771 243.579 14.8786 242.513 14.8786Z" fill="white"/>
<path d="M208.498 13.7893C208.498 12.7514 208.722 11.8187 209.171 10.9912C209.62 10.1497 210.279 9.48346 211.149 8.99256C212.033 8.48763 213.112 8.23517 214.389 8.23517C215.679 8.23517 216.759 8.47361 217.629 8.95048C218.498 9.41333 219.151 10.0585 219.585 10.886C220.034 11.7135 220.259 12.6743 220.259 13.7683C220.259 14.7922 220.041 15.7038 219.606 16.5033C219.172 17.2887 218.519 17.9059 217.65 18.3547C216.78 18.7895 215.693 19.0069 214.389 19.0069C213.084 19.0069 211.99 18.7825 211.107 18.3337C210.237 17.8848 209.585 17.2677 209.15 16.4823C208.715 15.6968 208.498 14.7992 208.498 13.7893ZM211.422 13.5158C211.422 14.3714 211.668 15.0797 212.159 15.6407C212.664 16.1877 213.407 16.4612 214.389 16.4612C215.048 16.4612 215.595 16.342 216.03 16.1036C216.465 15.8511 216.794 15.5145 217.019 15.0937C217.243 14.6589 217.355 14.168 217.355 13.621C217.355 13.06 217.243 12.5551 217.019 12.1063C216.808 11.6574 216.479 11.2998 216.03 11.0333C215.595 10.7528 215.048 10.6125 214.389 10.6125C213.716 10.6125 213.162 10.7458 212.727 11.0123C212.292 11.2787 211.962 11.6364 211.738 12.0852C211.528 12.52 211.422 12.9969 211.422 13.5158ZM213.505 10.4232C212.846 10.4232 212.264 10.318 211.759 10.1076C211.254 9.88319 210.826 9.52553 210.476 9.03464C210.125 8.52971 209.852 7.84947 209.655 6.9939L212.516 6.25755C212.671 6.97286 212.839 7.4848 213.021 7.79336C213.204 8.0879 213.456 8.23517 213.779 8.23517C213.989 8.23517 214.199 8.15803 214.41 8.00375C214.62 7.84947 214.901 7.55493 215.251 7.12013L216.135 6.00509C216.626 5.38796 217.089 4.90407 217.524 4.55343C217.958 4.18876 218.428 3.92228 218.933 3.75397C219.452 3.58566 220.069 3.49449 220.785 3.48047L220.953 5.92094C220.476 5.94899 220.062 6.03314 219.712 6.1734C219.375 6.29963 219.066 6.48196 218.786 6.7204C218.505 6.95884 218.211 7.27441 217.902 7.66713L217.208 8.52971C216.941 8.86633 216.626 9.18191 216.261 9.47644C215.897 9.75696 215.483 9.98838 215.02 10.1707C214.571 10.339 214.066 10.4232 213.505 10.4232Z" fill="white"/>
<path d="M187.276 27.2292C186.393 27.2292 185.713 27.131 185.236 26.9346C184.759 26.7383 184.338 26.4718 183.973 26.1352H184.1C183.707 26.57 183.307 26.8575 182.9 26.9977C182.48 27.152 181.996 27.2292 181.449 27.2292C180.916 27.2292 180.446 27.1029 180.039 26.8505C179.632 26.612 179.317 26.2614 179.092 25.7985C178.868 25.3357 178.756 24.7817 178.756 24.1365C178.756 23.295 178.987 22.5516 179.45 21.9064C179.899 21.2753 180.551 20.7774 181.407 20.4127C182.262 20.062 183.272 19.8867 184.436 19.8867C185.404 19.8867 186.246 19.9498 186.961 20.0761C187.662 20.2023 188.406 20.3987 189.191 20.6651L188.37 22.5586C187.823 22.3482 187.347 22.1869 186.94 22.0747C186.519 21.9625 186.119 21.8854 185.741 21.8433C185.348 21.8012 184.92 21.7802 184.457 21.7802C183.672 21.7802 183.027 21.8854 182.522 22.0958C182.017 22.3202 181.652 22.6077 181.428 22.9583C181.189 23.309 181.07 23.7017 181.07 24.1365C181.07 24.5012 181.154 24.7887 181.323 24.9991C181.477 25.2235 181.708 25.3357 182.017 25.3357C182.297 25.3357 182.536 25.2305 182.732 25.0201C182.914 24.8238 183.027 24.5503 183.069 24.1996H185.088C185.117 24.438 185.173 24.6484 185.257 24.8308C185.341 25.0131 185.474 25.1534 185.656 25.2515C185.839 25.3497 186.091 25.3988 186.414 25.3988C186.568 25.4128 186.736 25.4269 186.919 25.4409C187.087 25.4689 187.269 25.483 187.466 25.483C187.746 25.483 187.971 25.4339 188.139 25.3357C188.293 25.2515 188.37 25.1113 188.37 24.9149C188.37 24.7747 188.321 24.6625 188.223 24.5783C188.111 24.4942 187.957 24.4521 187.76 24.4521C187.578 24.4521 187.431 24.5082 187.319 24.6204C187.192 24.7326 187.129 24.9079 187.129 25.1463C187.129 25.3287 187.178 25.49 187.276 25.6302C187.361 25.7845 187.48 25.9248 187.634 26.051L186.077 26.4507C185.909 26.2123 185.79 25.9388 185.72 25.6302C185.635 25.3217 185.593 25.0762 185.593 24.8939C185.593 24.2768 185.79 23.7718 186.182 23.3791C186.561 22.9864 187.115 22.79 187.845 22.79C188.546 22.79 189.114 22.9864 189.549 23.3791C189.969 23.7859 190.18 24.2838 190.18 24.8728C190.18 25.2656 190.096 25.6372 189.927 25.9879C189.745 26.3526 189.443 26.6471 189.023 26.8715C188.602 27.1099 188.02 27.2292 187.276 27.2292Z" fill="white"/>
<path d="M193.856 19.0022C192.79 19.0022 191.892 18.7567 191.163 18.2658C190.434 17.7749 189.739 17.1578 189.08 16.4144L190.7 14.6051C190.995 14.9418 191.303 15.2503 191.626 15.5308C191.934 15.8113 192.271 16.0358 192.636 16.2041C193.014 16.3724 193.421 16.4565 193.856 16.4565C194.347 16.4565 194.725 16.3163 194.992 16.0358C195.258 15.7552 195.392 15.3345 195.392 14.7734C195.392 14.1142 195.244 13.5322 194.95 13.0272C194.655 12.5223 194.27 12.0735 193.793 11.6808C193.316 11.274 192.811 10.9024 192.278 10.5657L193.94 8.23047C194.767 8.67929 195.511 9.21226 196.17 9.82939C196.829 10.4465 197.348 11.1478 197.727 11.9332C198.12 12.7047 198.316 13.5742 198.316 14.542C198.316 15.8885 197.937 16.9685 197.18 17.782C196.423 18.5954 195.314 19.0022 193.856 19.0022Z" fill="white"/>
<path d="M185.869 19.0069C185.069 19.0069 184.389 18.9297 183.828 18.7755C183.267 18.6352 182.79 18.4318 182.397 18.1653C182.005 17.8848 181.654 17.5622 181.346 17.1976L181.493 17.2186C181.156 17.7095 180.799 18.0882 180.42 18.3547C180.055 18.6072 179.662 18.7755 179.242 18.8596C178.835 18.9578 178.379 19.0069 177.874 19.0069C176.766 19.0069 175.869 18.6142 175.181 17.8287C174.494 17.0433 174.15 15.9283 174.15 14.4836C174.15 13.1371 174.48 12.0011 175.139 11.0754C175.798 10.1357 176.731 9.42735 177.937 8.95048C179.144 8.47361 180.553 8.23517 182.166 8.23517C183.022 8.23517 183.8 8.28426 184.501 8.38244C185.203 8.48062 185.883 8.62789 186.542 8.82425C187.201 9.00658 187.896 9.24502 188.625 9.53956L187.342 11.8959C186.584 11.5593 185.918 11.2998 185.343 11.1174C184.782 10.9351 184.242 10.8089 183.723 10.7388C183.204 10.6546 182.636 10.6125 182.019 10.6125C180.869 10.6125 179.929 10.7808 179.2 11.1174C178.47 11.44 177.93 11.8818 177.58 12.4429C177.243 12.9899 177.075 13.6 177.075 14.2732C177.075 15.0587 177.201 15.6197 177.453 15.9563C177.706 16.2929 178.057 16.4612 178.505 16.4612C178.968 16.4612 179.34 16.2929 179.62 15.9563C179.915 15.6197 180.09 15.1498 180.146 14.5467H182.734C182.776 15.0937 182.937 15.5355 183.218 15.8722C183.513 16.2088 184.003 16.4262 184.691 16.5243C184.901 16.5664 185.133 16.6015 185.385 16.6295C185.651 16.6436 185.932 16.6506 186.227 16.6506C186.619 16.6506 186.928 16.5734 187.152 16.4192C187.377 16.2649 187.489 16.0124 187.489 15.6618C187.489 15.4233 187.405 15.227 187.236 15.0727C187.082 14.9184 186.865 14.8413 186.584 14.8413C186.318 14.8413 186.086 14.9184 185.89 15.0727C185.708 15.227 185.616 15.4794 185.616 15.8301C185.616 16.0825 185.68 16.321 185.806 16.5454C185.932 16.7558 186.107 16.9451 186.332 17.1134L184.291 17.7025C184.053 17.3659 183.87 16.9802 183.744 16.5454C183.632 16.0966 183.576 15.7389 183.576 15.4724C183.576 14.6169 183.842 13.9296 184.375 13.4106C184.922 12.8777 185.687 12.6112 186.668 12.6112C187.313 12.6112 187.875 12.7444 188.351 13.0109C188.828 13.2774 189.2 13.6421 189.466 14.1049C189.733 14.5537 189.866 15.0587 189.866 15.6197C189.866 16.0405 189.796 16.4542 189.656 16.861C189.53 17.2677 189.312 17.6324 189.004 17.955C188.709 18.2776 188.302 18.537 187.783 18.7334C187.264 18.9157 186.626 19.0069 185.869 19.0069ZM181.409 10.4232C180.749 10.4232 180.167 10.318 179.662 10.1076C179.158 9.88319 178.73 9.52553 178.379 9.03464C178.028 8.52971 177.755 7.84947 177.559 6.9939L180.42 6.25755C180.574 6.97286 180.742 7.4848 180.925 7.79336C181.107 8.0879 181.36 8.23517 181.682 8.23517C181.893 8.23517 182.103 8.15803 182.313 8.00375C182.524 7.84947 182.804 7.55493 183.155 7.12013L184.038 6.00509C184.529 5.38796 184.992 4.90407 185.427 4.55343C185.862 4.18876 186.332 3.92228 186.837 3.75397C187.356 3.58566 187.973 3.49449 188.688 3.48047L188.856 5.92094C188.379 5.94899 187.966 6.03314 187.615 6.1734C187.278 6.29963 186.97 6.48196 186.689 6.7204C186.409 6.95884 186.114 7.27441 185.806 7.66713L185.111 8.52971C184.845 8.86633 184.529 9.18191 184.165 9.47644C183.8 9.75696 183.386 9.98838 182.923 10.1707C182.475 10.339 181.97 10.4232 181.409 10.4232Z" fill="white"/>
<path d="M156.162 13.787C156.162 12.7491 156.387 11.8164 156.835 10.9889C157.284 10.1474 157.943 9.48114 158.813 8.99024C159.697 8.48532 160.777 8.23285 162.053 8.23285C163.343 8.23285 164.423 8.47129 165.293 8.94816C166.162 9.41101 166.815 10.0562 167.249 10.8837C167.698 11.7112 167.923 12.672 167.923 13.766C167.923 14.7899 167.705 15.7015 167.27 16.501C166.836 17.2864 166.183 17.9036 165.314 18.3524C164.444 18.7872 163.357 19.0046 162.053 19.0046C160.749 19.0046 159.655 18.7802 158.771 18.3313C157.901 17.8825 157.249 17.2654 156.814 16.4799C156.38 15.6945 156.162 14.7969 156.162 13.787ZM159.086 13.5135C159.086 14.3691 159.332 15.0774 159.823 15.6384C160.328 16.1854 161.071 16.4589 162.053 16.4589C162.712 16.4589 163.259 16.3397 163.694 16.1013C164.129 15.8488 164.458 15.5122 164.683 15.0914C164.907 14.6566 165.019 14.1657 165.019 13.6187C165.019 13.0577 164.907 12.5528 164.683 12.1039C164.472 11.6551 164.143 11.2975 163.694 11.031C163.259 10.7505 162.712 10.6102 162.053 10.6102C161.38 10.6102 160.826 10.7434 160.391 11.0099C159.956 11.2764 159.626 11.6341 159.402 12.0829C159.192 12.5177 159.086 12.9946 159.086 13.5135ZM170.7 10.3367C170.055 10.3367 169.522 10.2385 169.101 10.0422C168.68 9.84581 168.343 9.60036 168.091 9.30582C167.853 8.99725 167.684 8.67466 167.586 8.33805C167.488 8.00143 167.439 7.69988 167.439 7.43339C167.439 6.85834 167.53 6.38848 167.712 6.02381C167.909 5.64512 168.105 5.3085 168.301 5.01396L170.552 5.16123C170.244 5.45577 169.998 5.7433 169.816 6.02381C169.634 6.30432 169.543 6.66198 169.543 7.09677C169.543 7.44741 169.648 7.73494 169.858 7.95935C170.083 8.18376 170.37 8.29597 170.721 8.29597C171.142 8.29597 171.443 8.19078 171.625 7.98039C171.822 7.77001 171.92 7.51754 171.92 7.223C171.92 6.81626 171.752 6.52172 171.415 6.33939C171.078 6.15705 170.623 6.06589 170.048 6.06589H167.039C166.562 6.06589 166.19 6.1851 165.924 6.42354C165.657 6.66198 165.489 7.04067 165.419 7.55962H162.852C162.754 7.09677 162.572 6.73211 162.305 6.46562C162.053 6.19913 161.646 6.06589 161.085 6.06589H160.854C160.545 6.06589 160.279 6.16407 160.054 6.36042C159.83 6.55678 159.718 6.8373 159.718 7.20197C159.718 7.42638 159.767 7.61572 159.865 7.77001C159.977 7.92429 160.131 8.04351 160.328 8.12766C160.524 8.19779 160.749 8.23285 161.001 8.23285H161.716V10.526H161.169C160.356 10.526 159.64 10.3858 159.023 10.1053C158.42 9.81074 157.95 9.39699 157.614 8.86401C157.277 8.33103 157.109 7.70689 157.109 6.99158C157.109 6.02381 157.424 5.23837 158.056 4.63527C158.701 4.01814 159.577 3.70957 160.685 3.70957H160.938C161.555 3.70957 162.088 3.80074 162.537 3.98307C162.986 4.15138 163.35 4.38281 163.631 4.67734C163.911 4.97188 164.108 5.28746 164.22 5.62408H164.031C164.199 5.27344 164.416 4.95786 164.683 4.67734C164.949 4.38281 165.314 4.15138 165.777 3.98307C166.24 3.80074 166.843 3.70957 167.586 3.70957H168.848C169.76 3.70957 170.538 3.76568 171.184 3.87788C171.829 3.97606 172.397 4.2145 172.888 4.59319C173.252 4.85968 173.54 5.19629 173.75 5.60304C173.961 6.00978 174.066 6.52873 174.066 7.15989C174.066 8.08558 173.771 8.84998 173.182 9.45309C172.593 10.0422 171.766 10.3367 170.7 10.3367ZM171.373 0.511719C172.271 0.511719 172.993 0.701065 173.54 1.07976C174.087 1.44443 174.501 1.96338 174.781 2.63661L172.635 3.16257C172.551 3.00829 172.453 2.87504 172.341 2.76284C172.229 2.65063 172.095 2.56648 171.941 2.51038C171.787 2.45428 171.604 2.42622 171.394 2.42622C171.043 2.42622 170.77 2.51038 170.573 2.67868C170.391 2.83297 170.3 3.03634 170.3 3.2888C170.3 3.55529 170.377 3.80074 170.531 4.02515C170.686 4.23553 170.896 4.42488 171.163 4.59319L169.017 5.39265C168.75 5.15422 168.505 4.83864 168.28 4.44592C168.07 4.03918 167.965 3.57633 167.965 3.05738C167.965 2.60856 168.084 2.1948 168.322 1.81611C168.561 1.42339 168.932 1.10781 169.437 0.869374C169.942 0.630937 170.588 0.511719 171.373 0.511719Z" fill="white"/>
<path d="M142.126 8.23047C143.094 8.23047 143.9 8.42683 144.545 8.81955C145.191 9.21226 145.71 9.73122 146.102 10.3764C146.495 11.0216 146.776 11.7369 146.944 12.5223C147.112 13.2937 147.196 14.0722 147.196 14.8576C147.196 16.2742 147.021 17.6066 146.67 18.8549C146.334 20.1032 145.843 21.2673 145.198 22.3473C144.567 23.4413 143.809 24.4512 142.926 25.3769C142.042 26.3166 141.067 27.1862 140.001 27.9856L138.213 26.008C139.054 25.3488 139.847 24.6405 140.59 23.8831C141.348 23.1257 142.007 22.2982 142.568 21.4006C143.143 20.517 143.592 19.5422 143.914 18.4762C144.237 17.4103 144.398 16.2251 144.398 14.9207C144.398 14.4438 144.356 13.9389 144.272 13.4059C144.202 12.873 144.076 12.3751 143.893 11.9122C143.725 11.4494 143.487 11.0707 143.178 10.7761C142.883 10.4816 142.505 10.3343 142.042 10.3343C141.747 10.3343 141.495 10.4185 141.285 10.5868C141.074 10.7551 140.969 10.9795 140.969 11.26C140.969 11.5405 141.046 11.7649 141.2 11.9332C141.355 12.0875 141.544 12.1927 141.768 12.2488C142.007 12.3049 142.231 12.333 142.442 12.333C143.017 12.333 143.508 12.1787 143.914 11.8701C144.321 11.5475 144.7 11.2039 145.05 10.8392L145.808 13.0062C145.317 13.3569 144.777 13.6794 144.188 13.974C143.613 14.2685 142.897 14.4158 142.042 14.4158C140.976 14.4158 140.106 14.1633 139.433 13.6584C138.774 13.1535 138.444 12.368 138.444 11.3021C138.444 10.713 138.585 10.187 138.865 9.7242C139.146 9.26136 139.559 8.89669 140.106 8.6302C140.653 8.36371 141.327 8.23047 142.126 8.23047Z" fill="white"/>
<path d="M131.147 27.2292C130.53 27.2292 130.025 27.117 129.632 26.8925C129.225 26.6681 128.839 26.3175 128.475 25.8406H128.959C128.622 26.1913 128.306 26.4648 128.012 26.6611C127.703 26.8715 127.381 27.0188 127.044 27.1029C126.708 27.1871 126.301 27.2292 125.824 27.2292C125.01 27.2292 124.365 27.0538 123.888 26.7032C123.412 26.3526 123.075 25.9037 122.879 25.3567C122.682 24.8238 122.584 24.2768 122.584 23.7157C122.584 22.9022 122.752 22.208 123.089 21.6329C123.411 21.0719 123.853 20.6371 124.414 20.3285C124.975 20.034 125.607 19.8867 126.308 19.8867C127.177 19.8867 127.837 20.0901 128.285 20.4968C128.72 20.9176 128.938 21.4295 128.938 22.0326C128.938 22.7339 128.713 23.2669 128.264 23.6316C127.802 23.9962 127.114 24.1786 126.203 24.1786C125.712 24.1786 125.27 24.0804 124.877 23.884C124.47 23.7017 124.12 23.4773 123.825 23.2108L124.393 21.7802C124.562 22.0046 124.786 22.215 125.067 22.4113C125.333 22.6077 125.642 22.7059 125.992 22.7059C126.301 22.7059 126.546 22.6498 126.729 22.5376C126.897 22.4394 126.981 22.2781 126.981 22.0537C126.981 21.8994 126.932 21.7521 126.834 21.6119C126.722 21.4856 126.546 21.4225 126.308 21.4225C125.929 21.4225 125.585 21.5768 125.277 21.8854C124.968 22.1939 124.814 22.7409 124.814 23.5264V23.7578C124.814 24.1084 124.863 24.403 124.961 24.6414C125.045 24.8799 125.193 25.0552 125.403 25.1674C125.6 25.2796 125.852 25.3357 126.161 25.3357C126.708 25.3357 127.086 25.2095 127.297 24.957C127.493 24.7186 127.612 24.4661 127.654 24.1996H129.695C129.765 24.7045 129.926 25.0201 130.179 25.1463C130.417 25.2726 130.691 25.3357 130.999 25.3357C131.364 25.3357 131.631 25.2305 131.799 25.0201C131.953 24.8097 132.03 24.5643 132.03 24.2838C132.03 23.7087 131.813 23.2248 131.378 22.8321C130.943 22.4394 130.452 22.0888 129.905 21.7802L131.252 19.8867C131.841 20.1813 132.374 20.5389 132.851 20.9597C133.328 21.3805 133.706 21.8573 133.987 22.3903C134.253 22.9233 134.387 23.5194 134.387 24.1786C134.387 25.0902 134.113 25.8266 133.566 26.3876C133.005 26.9486 132.199 27.2292 131.147 27.2292Z" fill="white"/>
<path d="M130.731 19.0069C130.058 19.0069 129.462 18.9087 128.943 18.7123C128.424 18.516 127.898 18.1864 127.365 17.7235C126.846 17.2467 126.222 16.6015 125.492 15.788C125.1 15.3392 124.791 15.0306 124.567 14.8623C124.342 14.68 124.083 14.5888 123.788 14.5888C123.564 14.5888 123.339 14.68 123.115 14.8623C122.905 15.0306 122.799 15.2971 122.799 15.6618C122.799 16.0966 122.912 16.3981 123.136 16.5664C123.375 16.7347 123.648 16.8189 123.957 16.8189C124.293 16.8189 124.63 16.6786 124.966 16.3981C125.303 16.1176 125.541 15.6548 125.682 15.0096L127.428 16.861C127.147 17.2537 126.853 17.6183 126.544 17.955C126.25 18.2776 125.878 18.537 125.429 18.7334C124.98 18.9157 124.377 19.0069 123.62 19.0069C122.792 19.0069 122.112 18.8526 121.579 18.544C121.06 18.2215 120.675 17.8077 120.422 17.3028C120.184 16.7978 120.064 16.2649 120.064 15.7038C120.064 15.0166 120.226 14.4275 120.548 13.9366C120.871 13.4317 121.313 13.039 121.874 12.7585C122.435 12.4779 123.066 12.3377 123.767 12.3377C124.356 12.3377 124.875 12.4148 125.324 12.5691C125.773 12.7234 126.208 12.9758 126.628 13.3265C127.063 13.6771 127.54 14.14 128.059 14.715C128.508 15.2059 128.873 15.5776 129.153 15.8301C129.448 16.0825 129.714 16.2508 129.953 16.335C130.205 16.4192 130.493 16.4612 130.815 16.4612C131.208 16.4612 131.53 16.321 131.783 16.0405C132.049 15.7599 132.183 15.3392 132.183 14.7781C132.183 14.1189 132.035 13.5369 131.741 13.032C131.446 12.527 131.061 12.0782 130.584 11.6855C130.121 11.2787 129.623 10.9071 129.09 10.5704L130.731 8.23517C131.558 8.68399 132.302 9.21697 132.961 9.8341C133.62 10.4512 134.139 11.1525 134.518 11.9379C134.911 12.7094 135.107 13.579 135.107 14.5467C135.107 15.4444 134.939 16.2298 134.602 16.903C134.265 17.5622 133.768 18.0812 133.108 18.4599C132.463 18.8246 131.671 19.0069 130.731 19.0069ZM133.887 21.6788C133.101 21.6788 132.47 21.5525 131.993 21.3001C131.53 21.0476 131.194 20.718 130.983 20.3113C130.787 19.9045 130.689 19.4697 130.689 19.0069C130.689 18.8246 130.703 18.6352 130.731 18.4388C130.773 18.2425 130.829 18.0531 130.899 17.8708H133.613C133.543 17.983 133.487 18.0952 133.445 18.2074C133.403 18.3056 133.382 18.4038 133.382 18.502C133.382 18.6562 133.417 18.7965 133.487 18.9227C133.557 19.049 133.655 19.1471 133.782 19.2173C133.908 19.2874 134.055 19.3225 134.223 19.3225C134.448 19.3225 134.644 19.2804 134.812 19.1962C134.995 19.1261 135.212 18.9999 135.465 18.8175L136.748 20.6689C136.299 21.0055 135.843 21.258 135.38 21.4263C134.932 21.5946 134.434 21.6788 133.887 21.6788ZM124.293 10.4232C123.634 10.4232 123.052 10.318 122.547 10.1076C122.042 9.88319 121.614 9.52553 121.264 9.03463C120.913 8.52971 120.64 7.84947 120.443 6.9939L123.304 6.25755C123.459 6.97286 123.627 7.4848 123.809 7.79336C123.992 8.0879 124.244 8.23517 124.567 8.23517C124.777 8.23517 124.987 8.15803 125.198 8.00375C125.408 7.84947 125.689 7.55493 126.039 7.12013L126.923 6.00509C127.414 5.38796 127.877 4.90407 128.312 4.55343C128.746 4.18876 129.216 3.92228 129.721 3.75397C130.24 3.58566 130.857 3.49449 131.573 3.48047L131.741 5.92094C131.264 5.94899 130.85 6.03314 130.5 6.1734C130.163 6.29963 129.854 6.48196 129.574 6.7204C129.293 6.95884 128.999 7.27441 128.69 7.66713L127.996 8.52971C127.729 8.86633 127.414 9.18191 127.049 9.47644C126.685 9.75696 126.271 9.98838 125.808 10.1707C125.359 10.339 124.854 10.4232 124.293 10.4232Z" fill="white"/>
<path d="M98.4492 13.7846C98.4492 12.7467 98.6736 11.8561 99.1225 11.1127C99.5713 10.3694 100.23 9.79433 101.1 9.38759C101.984 8.98084 103.057 8.77747 104.319 8.77747C105.623 8.77747 106.71 8.96682 107.58 9.34551C108.45 9.7242 109.102 10.2852 109.537 11.0286C109.985 11.7579 110.21 12.6696 110.21 13.7636C110.21 14.7875 109.992 15.6991 109.558 16.4986C109.123 17.284 108.464 17.9012 107.58 18.35C106.71 18.7848 105.623 19.0022 104.319 19.0022C103.029 19.0022 101.942 18.7778 101.058 18.329C100.188 17.8801 99.5362 17.263 99.1014 16.4776C98.6666 15.6921 98.4492 14.7945 98.4492 13.7846ZM101.374 13.5111C101.374 14.3667 101.619 15.075 102.11 15.636C102.615 16.183 103.351 16.4565 104.319 16.4565C104.978 16.4565 105.525 16.3373 105.96 16.0989C106.409 15.8464 106.738 15.5098 106.949 15.089C107.173 14.6542 107.285 14.1633 107.285 13.6163C107.285 13.0553 107.173 12.5504 106.949 12.1016C106.738 11.6527 106.416 11.2951 105.981 11.0286C105.546 10.7481 104.992 10.6078 104.319 10.6078C103.66 10.6078 103.106 10.7411 102.657 11.0076C102.222 11.274 101.9 11.6317 101.689 12.0805C101.479 12.5153 101.374 12.9922 101.374 13.5111ZM115.07 14.8786C114.424 14.8786 113.891 14.7805 113.471 14.5841C113.05 14.3877 112.713 14.1423 112.461 13.8478C112.222 13.5392 112.054 13.2166 111.956 12.88C111.858 12.5434 111.809 12.2348 111.809 11.9543C111.809 11.4073 111.9 10.9444 112.082 10.5657C112.279 10.1871 112.475 9.84342 112.671 9.53486L114.922 9.70316C114.614 9.9977 114.368 10.2852 114.186 10.5657C114.004 10.8463 113.913 11.2039 113.913 11.6387C113.913 11.9893 114.018 12.2769 114.228 12.5013C114.453 12.7257 114.74 12.8379 115.091 12.8379C115.497 12.8379 115.799 12.7397 115.995 12.5434C116.192 12.333 116.29 12.0735 116.29 11.7649C116.29 11.3442 116.122 11.0496 115.785 10.8813C115.448 10.699 114.993 10.6078 114.417 10.6078H98.6386V8.23047H112.608C113.464 8.23047 114.172 8.25852 114.733 8.31462C115.294 8.3567 115.771 8.44085 116.164 8.56708C116.57 8.69332 116.942 8.88967 117.279 9.15616C117.629 9.42265 117.91 9.75927 118.12 10.166C118.331 10.5728 118.436 11.0847 118.436 11.7018C118.436 12.6135 118.141 13.3709 117.552 13.974C116.963 14.5771 116.136 14.8786 115.07 14.8786Z" fill="white"/>
<path d="M84.7705 19.0022C83.8728 19.0022 83.1505 18.8549 82.6035 18.5604C82.0705 18.2518 81.6848 17.8591 81.4464 17.3822C81.222 16.9053 81.1098 16.4004 81.1098 15.8674C81.1098 15.1802 81.2641 14.6121 81.5726 14.1633C81.8812 13.7145 82.2879 13.3849 82.7929 13.1745C83.3118 12.9501 83.8588 12.8379 84.4339 12.8379C85.1632 12.8379 85.7733 12.9641 86.2642 13.2166C86.7691 13.455 87.1829 13.7426 87.5055 14.0792C87.8421 14.4018 88.1086 14.6893 88.305 14.9418L87.232 17.0877C87.0777 16.709 86.8884 16.3513 86.6639 16.0147C86.4536 15.6781 86.2011 15.4046 85.9066 15.1942C85.612 14.9698 85.2614 14.8576 84.8546 14.8576C84.5461 14.8576 84.2656 14.9418 84.0131 15.1101C83.7606 15.2784 83.6344 15.5449 83.6344 15.9095C83.6344 16.2321 83.7396 16.4846 83.95 16.6669C84.1604 16.8492 84.4409 16.9404 84.7915 16.9404C85.2544 16.9404 85.619 16.8142 85.8855 16.5617C86.166 16.3093 86.3624 15.9726 86.4746 15.5519C86.5868 15.1311 86.6429 14.6753 86.6429 14.1844V13.7846C86.6429 13.1956 86.5658 12.6766 86.4115 12.2278C86.2572 11.779 86.0118 11.4283 85.6751 11.1759C85.3385 10.9094 84.8967 10.7761 84.3497 10.7761C84.0131 10.7761 83.7115 10.8463 83.4451 10.9865C83.1786 11.1127 82.9542 11.2951 82.7718 11.5335C82.6035 11.7579 82.4703 12.0174 82.3721 12.3119H79.6581C79.588 12.0875 79.4618 11.8421 79.2794 11.5756C79.1111 11.2951 78.8587 11.0566 78.522 10.8603C78.1854 10.6499 77.7226 10.5447 77.1335 10.5447C76.6426 10.5447 76.2429 10.6289 75.9343 10.7972C75.6398 10.9514 75.4925 11.2109 75.4925 11.5756C75.4925 11.7158 75.5135 11.8491 75.5556 11.9753C75.6117 12.0875 75.7099 12.1857 75.8501 12.2699C75.9764 12.34 76.1377 12.4031 76.334 12.4592C76.5444 12.5013 76.867 12.5223 77.3018 12.5223H78.5431V14.7103H77.2387C76.8039 14.7103 76.4673 14.7314 76.2288 14.7734C75.9904 14.8155 75.8011 14.8927 75.6608 15.0049C75.5626 15.089 75.4785 15.1942 75.4083 15.3204C75.3522 15.4327 75.3242 15.5659 75.3242 15.7202C75.3242 16.0007 75.4154 16.2321 75.5977 16.4144C75.794 16.5968 76.1096 16.688 76.5444 16.688C77.0073 16.688 77.421 16.5687 77.7857 16.3303C78.1644 16.0919 78.5291 15.7763 78.8797 15.3836L80.689 16.9825C80.3103 17.4173 79.8966 17.789 79.4477 18.0975C79.0129 18.3921 78.5291 18.6165 77.9961 18.7708C77.4631 18.925 76.853 19.0022 76.1657 19.0022C74.8473 19.0022 73.8515 18.7287 73.1783 18.1817C72.5191 17.6207 72.1895 16.9334 72.1895 16.1199C72.1895 15.7272 72.2666 15.3625 72.4209 15.0259C72.5752 14.6753 72.8136 14.3737 73.1362 14.1213C73.4728 13.8548 73.8936 13.6444 74.3985 13.4901L74.3775 13.7636C73.6762 13.5252 73.1642 13.1675 72.8416 12.6906C72.5191 12.2138 72.3578 11.6878 72.3578 11.1127C72.3578 10.2432 72.7364 9.54888 73.4938 9.02993C74.2512 8.49696 75.2541 8.23047 76.5023 8.23047C77.2457 8.23047 77.8769 8.3006 78.3958 8.44085C78.9288 8.56708 79.4197 8.77747 79.8685 9.07201C80.3173 9.35252 80.7732 9.73823 81.236 10.2291L80.7942 10.2502C81.1168 9.8294 81.4534 9.47174 81.8041 9.1772C82.1687 8.86864 82.5755 8.63721 83.0243 8.48293C83.4871 8.31462 84.0341 8.23047 84.6653 8.23047C85.7172 8.23047 86.5938 8.46891 87.2951 8.94578C87.9964 9.40862 88.5223 10.0608 88.873 10.9024C89.2377 11.7299 89.42 12.6836 89.42 13.7636C89.42 14.8716 89.2517 15.8184 88.9151 16.6038C88.5784 17.3752 88.0665 17.9713 87.3793 18.3921C86.692 18.7988 85.8224 19.0022 84.7705 19.0022Z" fill="white"/>
<path d="M56.0082 8.75643C57.1864 8.75643 58.2033 8.93175 59.0588 9.28239C59.9144 9.63304 60.5736 10.159 61.0364 10.8603C61.4993 11.5616 61.7307 12.4312 61.7307 13.4691C61.7307 14.3246 61.6536 15.082 61.4993 15.7412C61.345 16.4004 61.1487 16.9895 60.9102 17.5085C60.6718 18.0134 60.4333 18.4832 60.1949 18.918L57.3757 17.824C57.6142 17.5014 57.8386 17.1438 58.049 16.7511C58.2734 16.3443 58.4557 15.8955 58.596 15.4046C58.7362 14.9137 58.8064 14.3807 58.8064 13.8057C58.8064 13.2587 58.7152 12.7397 58.5329 12.2488C58.3505 11.7579 58.049 11.3652 57.6282 11.0707C57.2215 10.7621 56.6604 10.6078 55.9451 10.6078C55.3701 10.6078 54.8722 10.7411 54.4514 11.0076C54.0447 11.274 53.7291 11.6457 53.5047 12.1226C53.2803 12.5854 53.168 13.1254 53.168 13.7426C53.168 14.556 53.3013 15.3064 53.5678 15.9937C53.8343 16.6669 54.1779 17.27 54.5987 17.803L51.7585 18.918C51.3237 18.1747 50.959 17.3612 50.6645 16.4776C50.3699 15.5939 50.2227 14.6612 50.2227 13.6794C50.2227 12.7537 50.4401 11.9192 50.8748 11.1759C51.3237 10.4325 51.9759 9.84342 52.8314 9.40862C53.687 8.97383 54.7459 8.75643 56.0082 8.75643ZM66.5906 14.8786C65.9454 14.8786 65.4125 14.7805 64.9917 14.5841C64.5709 14.3877 64.2413 14.1423 64.0029 13.8478C63.7644 13.5392 63.5961 13.2166 63.498 12.88C63.3998 12.5434 63.3507 12.2348 63.3507 11.9543C63.3507 11.4073 63.4419 10.9444 63.6242 10.5657C63.8205 10.1871 64.0169 9.84342 64.2133 9.53486L66.4644 9.70316C66.1558 9.9977 65.9104 10.2852 65.728 10.5657C65.5457 10.8463 65.4545 11.2039 65.4545 11.6387C65.4545 11.9893 65.5597 12.2769 65.7701 12.5013C65.9945 12.7257 66.282 12.8379 66.6327 12.8379C67.0394 12.8379 67.341 12.7397 67.5373 12.5434C67.7337 12.333 67.8319 12.0735 67.8319 11.7649C67.8319 11.3442 67.6636 11.0496 67.327 10.8813C66.9903 10.699 66.5415 10.6078 65.9805 10.6078H50.3278V8.23047H64.1501C65.0057 8.23047 65.714 8.25852 66.275 8.31462C66.8361 8.3567 67.3129 8.44085 67.7057 8.56708C68.1124 8.69332 68.4841 8.88967 68.8207 9.15616C69.1713 9.42265 69.4519 9.75927 69.6622 10.166C69.8726 10.5728 69.9778 11.0847 69.9778 11.7018C69.9778 12.6135 69.6763 13.3709 69.0732 13.974C68.4841 14.5771 67.6566 14.8786 66.5906 14.8786Z" fill="white"/>
<path d="M37.2227 14.3956C37.2227 13.512 37.433 12.7195 37.8538 12.0183C38.2746 11.317 38.8707 10.763 39.6421 10.3562C40.4135 9.94947 41.3322 9.74609 42.3981 9.74609C43.4781 9.74609 44.3968 9.94947 45.1542 10.3562C45.9116 10.763 46.4866 11.317 46.8793 12.0183C47.2861 12.7195 47.4894 13.512 47.4894 14.3956C47.4894 15.2792 47.2861 16.0717 46.8793 16.773C46.4726 17.4602 45.8835 18.0072 45.1121 18.414C44.3547 18.8067 43.436 19.003 42.3561 19.003C41.2901 19.003 40.3714 18.7997 39.6 18.3929C38.8286 17.9862 38.2395 17.4392 37.8328 16.7519C37.426 16.0506 37.2227 15.2652 37.2227 14.3956ZM40.0418 14.3746C40.0418 15.0197 40.2312 15.5667 40.6099 16.0156C41.0026 16.4504 41.5846 16.6678 42.3561 16.6678C42.875 16.6678 43.3028 16.5696 43.6394 16.3732C43.976 16.1628 44.2285 15.8823 44.3968 15.5317C44.5791 15.181 44.6703 14.7953 44.6703 14.3746C44.6703 13.7294 44.4669 13.1894 44.0602 12.7546C43.6675 12.3058 43.0994 12.0814 42.3561 12.0814C41.8652 12.0814 41.4444 12.1866 41.0937 12.3969C40.7571 12.5933 40.4977 12.8668 40.3153 13.2174C40.133 13.5541 40.0418 13.9398 40.0418 14.3746Z" fill="white"/>
<path d="M27.241 19.0022C25.6421 19.0022 24.2886 18.7427 23.1806 18.2238C22.0726 17.6908 21.231 16.9755 20.656 16.0778C20.095 15.1662 19.8145 14.1423 19.8145 13.0062C19.8145 12.0244 20.0038 11.1759 20.3825 10.4605C20.7752 9.74524 21.3222 9.19824 22.0235 8.81955C22.7248 8.42683 23.5313 8.23047 24.4429 8.23047C25.2845 8.23047 25.9647 8.38475 26.4837 8.69332C27.0026 8.98785 27.3813 9.37356 27.6197 9.85043C27.8582 10.3133 27.9774 10.7972 27.9774 11.3021C27.9774 11.9473 27.8371 12.5013 27.5566 12.9641C27.2761 13.427 26.8694 13.7776 26.3364 14.0161C25.8034 14.2545 25.1512 14.3737 24.3798 14.3737C23.8188 14.3737 23.3209 14.2966 22.8861 14.1423C22.4513 13.988 22.0726 13.7987 21.75 13.5742C21.4414 13.3498 21.182 13.1465 20.9716 12.9641L21.4555 10.9865C21.6238 11.1969 21.8201 11.4073 22.0445 11.6177C22.283 11.8281 22.5495 12.0034 22.844 12.1436C23.1385 12.2699 23.4541 12.333 23.7907 12.333C24.2255 12.333 24.5762 12.2558 24.8427 12.1016C25.1091 11.9332 25.2424 11.6597 25.2424 11.2811C25.2424 11.0426 25.1582 10.8252 24.9899 10.6289C24.8216 10.4185 24.5762 10.3133 24.2536 10.3133C23.7627 10.3133 23.3559 10.5237 23.0333 10.9444C22.7108 11.3512 22.5495 11.8421 22.5495 12.4171V13.2376C22.5495 13.5742 22.6196 13.9319 22.7598 14.3106C22.9141 14.6753 23.1666 15.0259 23.5172 15.3625C23.8819 15.6851 24.3728 15.9516 24.9899 16.162C25.6211 16.3583 26.4065 16.4565 27.3462 16.4565C28.6647 16.4565 29.7236 16.2321 30.5231 15.7833C31.3365 15.3204 31.7433 14.5981 31.7433 13.6163C31.7433 12.9571 31.5399 12.4101 31.1332 11.9753C30.7405 11.5265 30.1233 11.0707 29.2818 10.6078L30.9228 8.23047C32.0308 8.77747 32.9285 9.49979 33.6157 10.3974C34.317 11.2811 34.6676 12.368 34.6676 13.6584C34.6676 14.6542 34.4012 15.5589 33.8682 16.3724C33.3492 17.1718 32.5428 17.81 31.4488 18.2869C30.3547 18.7637 28.9522 19.0022 27.241 19.0022Z" fill="white"/>
<path d="M15.6737 7.24205C15.6737 7.73295 15.5755 8.18879 15.3792 8.60956C15.1828 9.03033 14.9093 9.35993 14.5586 9.59837C14.18 9.86486 13.6891 10.0893 13.086 10.2716C12.4969 10.4399 11.8938 10.5241 11.2766 10.5241H7.84736V8.23086H11.2977C11.7044 8.23086 12.006 8.20983 12.2023 8.16775C12.4127 8.11165 12.574 8.0345 12.6862 7.93633C12.7704 7.85217 12.8335 7.761 12.8756 7.66282C12.9176 7.55062 12.9387 7.4314 12.9387 7.30517C12.9387 7.13686 12.9176 6.9966 12.8756 6.8844C12.8335 6.75817 12.7634 6.65298 12.6652 6.56882C12.553 6.47064 12.3917 6.40051 12.1813 6.35844C11.9849 6.31636 11.6553 6.29532 11.1925 6.29532H3.09266V3.91797H10.919C11.9148 3.91797 12.6862 3.99511 13.2332 4.14939C13.7942 4.28965 14.2781 4.52809 14.6849 4.8647C14.9794 5.11716 15.2179 5.43976 15.4002 5.83247C15.5825 6.22519 15.6737 6.69505 15.6737 7.24205ZM8.28917 19.0026C6.35363 19.0026 4.77574 18.7782 3.55551 18.3293C2.33527 17.8805 1.43763 17.2494 0.862579 16.4359C0.287526 15.6224 0 14.6827 0 13.6167C0 12.8032 0.189347 12.0879 0.56804 11.4708C0.946733 10.8537 1.46568 10.3698 2.12489 10.0191C2.79812 9.6685 3.56252 9.49317 4.41809 9.49317C5.1895 9.49317 5.83468 9.63343 6.35363 9.91394C6.87258 10.1804 7.2653 10.5451 7.53179 11.0079C7.79827 11.4708 7.93152 11.9897 7.93152 12.5648C7.93152 13.5466 7.61594 14.29 6.98479 14.7949C6.35363 15.2858 5.49105 15.5312 4.39705 15.5312C3.89212 15.5312 3.41525 15.4541 2.96643 15.2998C2.53163 15.1315 2.13892 14.9281 1.78827 14.6897C1.43763 14.4513 1.14309 14.2268 0.904656 14.0165L1.61997 12.3123C1.88645 12.6209 2.20904 12.9154 2.58774 13.196C2.96643 13.4624 3.41525 13.5957 3.9342 13.5957C4.35497 13.5957 4.6986 13.5115 4.96509 13.3432C5.2456 13.1749 5.38586 12.9084 5.38586 12.5438C5.38586 12.2632 5.29469 12.0318 5.11236 11.8495C4.93002 11.6672 4.65652 11.576 4.29186 11.576C3.99732 11.576 3.7168 11.6601 3.45032 11.8284C3.18383 11.9827 2.96643 12.2212 2.79812 12.5438C2.62981 12.8523 2.54566 13.238 2.54566 13.7009V13.8271C2.54566 14.2479 2.65085 14.6266 2.86124 14.9632C3.08565 15.2998 3.42928 15.5873 3.89212 15.8258C4.35497 16.0502 4.95106 16.2255 5.6804 16.3517C6.40973 16.4639 7.28634 16.52 8.31021 16.52C9.39019 16.52 10.3299 16.4709 11.1294 16.3728C11.9288 16.2746 12.588 16.1203 13.107 15.9099C13.6259 15.6855 14.0116 15.391 14.2641 15.0263C14.5306 14.6476 14.6638 14.1848 14.6638 13.6378V13.5746C14.6638 13.0136 14.4955 12.5367 14.1589 12.144C13.8223 11.7513 13.3454 11.5549 12.7283 11.5549C12.4197 11.5549 12.1322 11.6391 11.8657 11.8074C11.6133 11.9617 11.487 12.2142 11.487 12.5648C11.487 12.9435 11.6062 13.21 11.8447 13.3643C12.0831 13.5045 12.3777 13.5746 12.7283 13.5746C13.0789 13.5746 13.3735 13.5045 13.6119 13.3643C13.8504 13.224 14.0537 13.0276 14.222 12.7752C14.3903 12.5087 14.5236 12.2001 14.6218 11.8495L15.7789 13.3853C15.4843 13.8061 15.1828 14.1848 14.8742 14.5214C14.5797 14.844 14.222 15.0964 13.8013 15.2788C13.3805 15.4611 12.8335 15.5523 12.1603 15.5523C11.6273 15.5523 11.1153 15.4681 10.6244 15.2998C10.1335 15.1175 9.73382 14.8299 9.42525 14.4372C9.13071 14.0305 8.98344 13.4905 8.98344 12.8173C8.98344 12.0038 9.285 11.3586 9.8881 10.8817C10.4912 10.3908 11.3327 10.1454 12.4127 10.1454C12.6792 10.1454 12.9176 10.1524 13.128 10.1664C13.3384 10.1804 13.5348 10.2015 13.7171 10.2295C13.8994 10.2435 14.0748 10.2716 14.2431 10.3137L11.8026 10.3558C11.6203 10.2997 11.4239 10.2576 11.2135 10.2295C11.0172 10.1874 10.8138 10.1594 10.6034 10.1454C10.407 10.1173 10.1967 10.1033 9.97225 10.1033L10.8769 8.46229C11.7605 8.50436 12.581 8.65163 13.3384 8.9041C14.1098 9.14253 14.7831 9.48616 15.3581 9.93498C15.9332 10.3698 16.382 10.9028 16.7046 11.5339C17.0412 12.151 17.2095 12.8593 17.2095 13.6588C17.2095 14.5564 17.0412 15.3419 16.7046 16.0151C16.368 16.6743 15.842 17.2283 15.1267 17.6772C14.4114 18.112 13.4857 18.4416 12.3496 18.666C11.2276 18.8904 9.87407 19.0026 8.28917 19.0026Z" fill="white"/>
</svg>
