<svg width="328" height="29" viewBox="0 0 328 29" fill="none" xmlns="http://www.w3.org/2000/svg">
<path d="M323.722 27.2917C323.077 27.2917 322.551 27.1865 322.144 26.9761C321.723 26.7797 321.31 26.4221 320.903 25.9031H321.387C320.91 26.4221 320.468 26.7797 320.061 26.9761C319.641 27.1865 319.122 27.2917 318.505 27.2917C317.887 27.2917 317.375 27.1514 316.969 26.8709C316.562 26.5904 316.26 26.2187 316.064 25.7558C315.868 25.293 315.77 24.7951 315.77 24.2621C315.77 23.3785 316.008 22.6141 316.485 21.9689C316.948 21.3237 317.586 20.8258 318.399 20.4752C319.199 20.1245 320.103 19.9492 321.113 19.9492C322.151 19.9492 323.077 20.1316 323.89 20.4962C324.69 20.8749 325.321 21.3869 325.784 22.032C326.247 22.6912 326.478 23.4486 326.478 24.3042C326.478 24.8091 326.394 25.286 326.226 25.7348C326.043 26.1977 325.749 26.5693 325.342 26.8499C324.935 27.1444 324.395 27.2917 323.722 27.2917ZM323.217 25.3982C323.498 25.3982 323.722 25.293 323.89 25.0826C324.059 24.8722 324.143 24.5917 324.143 24.2411C324.143 23.4977 323.855 22.9086 323.28 22.4738C322.705 22.0531 321.983 21.8427 321.113 21.8427C320.174 21.8427 319.437 22.0531 318.904 22.4738C318.357 22.8946 318.084 23.4697 318.084 24.199C318.084 24.5637 318.168 24.8512 318.336 25.0616C318.505 25.286 318.736 25.3982 319.03 25.3982C319.311 25.3982 319.542 25.3281 319.725 25.1878C319.893 25.0616 320.033 24.8792 320.146 24.6408H322.081C322.193 24.9073 322.334 25.0966 322.502 25.2088C322.67 25.3351 322.909 25.3982 323.217 25.3982ZM320.082 28.6592L320.167 26.955H322.018L322.165 28.6592H320.082ZM319.998 23.3995C319.998 23.091 320.103 22.8595 320.314 22.7053C320.524 22.565 320.791 22.4949 321.113 22.4949C321.478 22.4949 321.758 22.572 321.955 22.7263C322.151 22.8806 322.249 23.105 322.249 23.3995C322.249 23.7221 322.151 23.9535 321.955 24.0938C321.744 24.2341 321.464 24.3042 321.113 24.3042C320.777 24.3042 320.51 24.227 320.314 24.0728C320.103 23.9325 319.998 23.7081 319.998 23.3995Z" fill="white"/>
<path d="M322.799 19.0694C322.21 19.0694 321.642 18.9852 321.095 18.8169C320.562 18.6626 320.008 18.3751 319.433 17.9543C318.872 17.5336 318.255 16.9445 317.581 16.1871C317.273 15.8365 317.02 15.577 316.824 15.4087C316.642 15.2264 316.487 15.1071 316.361 15.051C316.235 14.9809 316.095 14.9458 315.94 14.9458C315.758 14.9458 315.59 15.023 315.436 15.1773C315.281 15.3315 315.204 15.5419 315.204 15.8084C315.204 16.1591 315.281 16.5307 315.436 16.9235C315.604 17.3162 315.842 17.7369 316.151 18.1858L313.205 19.0904C312.953 18.5995 312.736 18.0806 312.553 17.5336C312.385 16.9726 312.301 16.3694 312.301 15.7243C312.301 15.0791 312.455 14.511 312.764 14.0201C313.072 13.5152 313.493 13.1225 314.026 12.842C314.573 12.5475 315.19 12.4002 315.877 12.4002C316.522 12.4002 317.091 12.4984 317.581 12.6947C318.072 12.8911 318.528 13.1716 318.949 13.5363C319.384 13.9009 319.826 14.3357 320.274 14.8406C320.681 15.2754 321.025 15.6191 321.305 15.8715C321.586 16.11 321.852 16.2783 322.105 16.3765C322.371 16.4746 322.659 16.5237 322.967 16.5237C323.36 16.5237 323.69 16.3835 323.956 16.103C324.223 15.8224 324.356 15.4017 324.356 14.8406C324.356 14.1814 324.209 13.5994 323.914 13.0945C323.619 12.5895 323.234 12.1407 322.757 11.748C322.28 11.3412 321.775 10.9696 321.242 10.6329L322.904 8.29767C323.732 8.74649 324.475 9.27947 325.134 9.8966C325.793 10.5137 326.312 11.215 326.691 12.0005C327.084 12.7719 327.28 13.6415 327.28 14.6092C327.28 15.5069 327.105 16.2923 326.754 16.9655C326.418 17.6247 325.913 18.1437 325.239 18.5224C324.58 18.8871 323.767 19.0694 322.799 19.0694ZM316.53 10.4857C315.87 10.4857 315.288 10.3805 314.783 10.1701C314.278 9.94569 313.851 9.58803 313.5 9.09714C313.149 8.59221 312.876 7.91197 312.679 7.0564L315.541 6.32005C315.695 7.03536 315.863 7.5473 316.046 7.85586C316.228 8.1504 316.48 8.29767 316.803 8.29767C317.013 8.29767 317.224 8.22053 317.434 8.06625C317.645 7.91197 317.925 7.61743 318.276 7.18263L319.159 6.06759C319.65 5.45046 320.113 4.96657 320.548 4.61593C320.983 4.25126 321.453 3.98478 321.957 3.81647C322.476 3.64816 323.094 3.55699 323.809 3.54297L323.977 5.98344C323.5 6.01149 323.087 6.09564 322.736 6.2359C322.399 6.36213 322.091 6.54446 321.81 6.7829C321.53 7.02134 321.235 7.33691 320.927 7.72963L320.232 8.59221C319.966 8.92883 319.65 9.24441 319.286 9.53894C318.921 9.81946 318.507 10.0509 318.044 10.2332C317.595 10.4015 317.091 10.4857 316.53 10.4857Z" fill="white"/>
<path d="M299.576 14.4581C299.576 13.5745 299.786 12.782 300.207 12.0808C300.628 11.3795 301.224 10.8255 301.995 10.4187C302.767 10.012 303.685 9.80859 304.751 9.80859C305.831 9.80859 306.75 10.012 307.507 10.4187C308.265 10.8255 308.84 11.3795 309.233 12.0808C309.639 12.782 309.843 13.5745 309.843 14.4581C309.843 15.3417 309.639 16.1342 309.233 16.8355C308.826 17.5227 308.237 18.0697 307.465 18.4765C306.708 18.8692 305.789 19.0655 304.709 19.0655C303.643 19.0655 302.725 18.8622 301.953 18.4554C301.182 18.0487 300.593 17.5017 300.186 16.8144C299.779 16.1131 299.576 15.3277 299.576 14.4581ZM302.395 14.4371C302.395 15.0822 302.584 15.6292 302.963 16.0781C303.356 16.5129 303.938 16.7303 304.709 16.7303C305.228 16.7303 305.656 16.6321 305.993 16.4357C306.329 16.2253 306.582 15.9448 306.75 15.5942C306.932 15.2435 307.024 14.8578 307.024 14.4371C307.024 13.7919 306.82 13.2519 306.413 12.8171C306.021 12.3683 305.453 12.1439 304.709 12.1439C304.218 12.1439 303.798 12.2491 303.447 12.4594C303.11 12.6558 302.851 12.9293 302.669 13.2799C302.486 13.6166 302.395 14.0023 302.395 14.4371Z" fill="white"/>
<path d="M292.5 19.0694C291.911 19.0694 291.343 18.9852 290.796 18.8169C290.263 18.6626 289.709 18.3751 289.134 17.9543C288.573 17.5336 287.956 16.9445 287.283 16.1871C286.974 15.8365 286.722 15.577 286.525 15.4087C286.343 15.2264 286.189 15.1071 286.062 15.051C285.936 14.9809 285.796 14.9458 285.642 14.9458C285.459 14.9458 285.291 15.023 285.137 15.1773C284.982 15.3315 284.905 15.5419 284.905 15.8084C284.905 16.1591 284.982 16.5307 285.137 16.9235C285.305 17.3162 285.543 17.7369 285.852 18.1858L282.907 19.0904C282.654 18.5995 282.437 18.0806 282.254 17.5336C282.086 16.9726 282.002 16.3694 282.002 15.7243C282.002 15.0791 282.156 14.511 282.465 14.0201C282.773 13.5152 283.194 13.1225 283.727 12.842C284.274 12.5475 284.891 12.4002 285.578 12.4002C286.224 12.4002 286.792 12.4984 287.283 12.6947C287.774 12.8911 288.229 13.1716 288.65 13.5363C289.085 13.9009 289.527 14.3357 289.976 14.8406C290.382 15.2754 290.726 15.6191 291.006 15.8715C291.287 16.11 291.553 16.2783 291.806 16.3765C292.072 16.4746 292.36 16.5237 292.668 16.5237C293.061 16.5237 293.391 16.3835 293.657 16.103C293.924 15.8224 294.057 15.4017 294.057 14.8406C294.057 14.1814 293.91 13.5994 293.615 13.0945C293.321 12.5895 292.935 12.1407 292.458 11.748C291.981 11.3412 291.476 10.9696 290.943 10.6329L292.605 8.29767C293.433 8.74649 294.176 9.27947 294.835 9.8966C295.495 10.5137 296.014 11.215 296.392 12.0005C296.785 12.7719 296.981 13.6415 296.981 14.6092C296.981 15.5069 296.806 16.2923 296.455 16.9655C296.119 17.6247 295.614 18.1437 294.941 18.5224C294.281 18.8871 293.468 19.0694 292.5 19.0694ZM286.231 10.4857C285.571 10.4857 284.989 10.3805 284.484 10.1701C283.98 9.94569 283.552 9.58803 283.201 9.09714C282.85 8.59221 282.577 7.91197 282.381 7.0564L285.242 6.32005C285.396 7.03536 285.564 7.5473 285.747 7.85586C285.929 8.1504 286.182 8.29767 286.504 8.29767C286.715 8.29767 286.925 8.22053 287.135 8.06625C287.346 7.91197 287.626 7.61743 287.977 7.18263L288.861 6.06759C289.351 5.45046 289.814 4.96657 290.249 4.61593C290.684 4.25126 291.154 3.98478 291.659 3.81647C292.178 3.64816 292.795 3.55699 293.51 3.54297L293.678 5.98344C293.201 6.01149 292.788 6.09564 292.437 6.2359C292.1 6.36213 291.792 6.54446 291.511 6.7829C291.231 7.02134 290.936 7.33691 290.628 7.72963L289.933 8.59221C289.667 8.92883 289.351 9.24441 288.987 9.53894C288.622 9.81946 288.208 10.0509 287.745 10.2332C287.297 10.4015 286.792 10.4857 286.231 10.4857Z" fill="white"/>
<path d="M260.685 19.0647C259.787 19.0647 259.065 18.9174 258.518 18.6229C257.985 18.3143 257.599 17.9216 257.36 17.4447C257.136 16.9678 257.024 16.4629 257.024 15.9299C257.024 15.2427 257.178 14.6746 257.487 14.2258C257.795 13.777 258.202 13.4474 258.707 13.237C259.226 13.0126 259.773 12.9004 260.348 12.9004C261.077 12.9004 261.687 13.0266 262.178 13.2791C262.683 13.5175 263.097 13.8051 263.42 14.1417C263.756 14.4643 264.023 14.7518 264.219 15.0043L263.146 17.1502C262.992 16.7715 262.802 16.4138 262.578 16.0772C262.368 15.7406 262.115 15.4671 261.821 15.2567C261.526 15.0323 261.175 14.9201 260.769 14.9201C260.46 14.9201 260.18 15.0043 259.927 15.1726C259.675 15.3409 259.548 15.6074 259.548 15.972C259.548 16.2946 259.654 16.5471 259.864 16.7294C260.074 16.9117 260.355 17.0029 260.706 17.0029C261.168 17.0029 261.533 16.8767 261.8 16.6242C262.08 16.3718 262.276 16.0351 262.389 15.6144C262.501 15.1936 262.557 14.7378 262.557 14.2469V13.7209C262.557 13.1459 262.48 12.6269 262.326 12.1641C262.171 11.7012 261.926 11.3365 261.589 11.0701C261.267 10.8036 260.832 10.6703 260.285 10.6703C259.948 10.6703 259.64 10.7475 259.359 10.9017C259.093 11.042 258.868 11.2384 258.686 11.4908C258.504 11.7433 258.37 12.0378 258.286 12.3744H255.572C255.502 12.15 255.376 11.9046 255.193 11.6381C255.025 11.3576 254.773 11.1191 254.436 10.9228C254.099 10.7124 253.637 10.6072 253.048 10.6072C252.557 10.6072 252.157 10.6914 251.848 10.8597C251.554 11.0139 251.407 11.2734 251.407 11.6381C251.407 11.7783 251.428 11.9116 251.47 12.0378C251.526 12.15 251.624 12.2482 251.764 12.3324C251.89 12.4025 252.052 12.4656 252.248 12.5217C252.458 12.5638 252.781 12.5848 253.216 12.5848H254.457V14.7728H253.153C252.718 14.7728 252.381 14.7939 252.143 14.8359C251.904 14.878 251.715 14.9552 251.575 15.0674C251.477 15.1515 251.393 15.2567 251.322 15.3829C251.266 15.4952 251.238 15.6284 251.238 15.7827C251.238 16.0632 251.329 16.2946 251.512 16.4769C251.708 16.6593 252.024 16.7505 252.458 16.7505C252.921 16.7505 253.335 16.6312 253.7 16.3928C254.078 16.1544 254.443 15.8388 254.794 15.4461L256.603 17.045C256.224 17.4798 255.811 17.8515 255.362 18.16C254.927 18.4546 254.443 18.679 253.91 18.8333C253.377 18.9875 252.767 19.0647 252.08 19.0647C250.761 19.0647 249.766 18.7912 249.092 18.2442C248.433 17.6832 248.104 16.9959 248.104 16.1824C248.104 15.7897 248.181 15.425 248.335 15.0884C248.489 14.7378 248.728 14.4362 249.05 14.1838C249.387 13.9173 249.808 13.7069 250.313 13.5526L250.292 13.8261C249.604 13.5736 249.092 13.244 248.756 12.8373C248.433 12.4165 248.272 11.9186 248.272 11.3436C248.272 10.8246 248.454 10.3828 248.819 10.0181C249.198 9.63943 249.716 9.34489 250.376 9.13451C251.035 8.92412 251.792 8.81893 252.648 8.81893C253.405 8.81893 254.036 8.9101 254.541 9.09243C255.06 9.26074 255.516 9.5132 255.909 9.84982C256.316 10.1724 256.736 10.5721 257.171 11.049L256.687 11.0701C257.024 10.5932 257.388 10.2075 257.781 9.91293C258.174 9.60437 258.595 9.37996 259.044 9.2397C259.506 9.08542 259.99 9.00828 260.495 9.00828C261.561 9.00828 262.452 9.19762 263.167 9.57632C263.882 9.95501 264.422 10.509 264.787 11.2384C265.152 11.9677 265.334 12.8583 265.334 13.9103C265.334 14.9482 265.166 15.8598 264.829 16.6453C264.493 17.4167 263.981 18.0128 263.293 18.4335C262.606 18.8543 261.736 19.0647 260.685 19.0647ZM270.215 14.9411C269.57 14.9411 269.037 14.843 268.616 14.6466C268.195 14.4502 267.866 14.2048 267.627 13.9103C267.389 13.6017 267.22 13.2791 267.122 12.9425C267.024 12.6059 266.975 12.2973 266.975 12.0168C266.975 11.4417 267.066 10.9719 267.249 10.6072C267.431 10.2425 267.62 9.90592 267.817 9.59736L270.089 9.76566C269.78 10.0602 269.535 10.3477 269.352 10.6282C269.17 10.9088 269.079 11.2664 269.079 11.7012C269.079 12.0518 269.184 12.3394 269.394 12.5638C269.619 12.7882 269.899 12.9004 270.236 12.9004C270.643 12.9004 270.944 12.8022 271.141 12.6059C271.351 12.3955 271.456 12.136 271.456 11.8274C271.456 11.4067 271.281 11.1121 270.93 10.9438C270.594 10.7615 270.138 10.6703 269.563 10.6703H255.257L253.826 10.1023L251.238 10.6703H248.335V8.29297H267.753C268.609 8.29297 269.317 8.32102 269.878 8.37712C270.453 8.4192 270.937 8.50335 271.33 8.62958C271.737 8.75582 272.108 8.95217 272.445 9.21866C272.796 9.48515 273.076 9.82177 273.287 10.2285C273.497 10.6353 273.602 11.1472 273.602 11.7643C273.602 12.676 273.301 13.4334 272.698 14.0365C272.108 14.6396 271.281 14.9411 270.215 14.9411Z" fill="white"/>
<path d="M233.446 19.0647C232.773 19.0647 232.176 18.9665 231.658 18.7701C231.139 18.5738 230.613 18.2442 230.08 17.7813C229.561 17.3045 228.937 16.6593 228.207 15.8458C227.815 15.397 227.506 15.0884 227.282 14.9201C227.057 14.7378 226.798 14.6466 226.503 14.6466C226.279 14.6466 226.054 14.7378 225.83 14.9201C225.619 15.0884 225.514 15.3549 225.514 15.7196C225.514 16.1544 225.626 16.4559 225.851 16.6242C226.089 16.7925 226.363 16.8767 226.671 16.8767C227.008 16.8767 227.345 16.7364 227.681 16.4559C228.018 16.1754 228.256 15.7126 228.397 15.0674L230.143 16.9188C229.862 17.3115 229.568 17.6761 229.259 18.0128C228.965 18.3354 228.593 18.5948 228.144 18.7912C227.695 18.9735 227.092 19.0647 226.335 19.0647C225.507 19.0647 224.827 18.9104 224.294 18.6018C223.775 18.2792 223.389 17.8655 223.137 17.3606C222.899 16.8416 222.779 16.3016 222.779 15.7406C222.779 15.0674 222.941 14.4853 223.263 13.9944C223.586 13.4895 224.028 13.0968 224.589 12.8162C225.15 12.5357 225.781 12.3955 226.482 12.3955C227.071 12.3955 227.59 12.4726 228.039 12.6269C228.488 12.7812 228.923 13.0336 229.343 13.3843C229.778 13.7349 230.255 14.1978 230.774 14.7728C231.223 15.2637 231.594 15.6354 231.889 15.8879C232.184 16.1403 232.45 16.3086 232.688 16.3928C232.927 16.4769 233.172 16.519 233.425 16.519C233.874 16.519 234.231 16.3788 234.498 16.0983C234.764 15.8177 234.897 15.3689 234.897 14.7518C234.897 14.0365 234.708 13.3843 234.329 12.7952C233.951 12.2061 233.432 11.7012 232.773 11.2804C232.113 10.8597 231.363 10.5581 230.521 10.3758L235.55 10.2916C236.013 10.6002 236.412 10.9719 236.749 11.4067C237.099 11.8274 237.366 12.3043 237.548 12.8373C237.731 13.3562 237.822 13.9243 237.822 14.5414C237.822 15.4531 237.654 16.2525 237.317 16.9398C236.98 17.613 236.482 18.139 235.823 18.5177C235.178 18.8824 234.386 19.0647 233.446 19.0647ZM242.513 14.9411C241.868 14.9411 241.335 14.843 240.914 14.6466C240.494 14.4502 240.164 14.2048 239.926 13.9103C239.687 13.6017 239.519 13.2791 239.421 12.9425C239.323 12.6059 239.273 12.2973 239.273 12.0168C239.273 11.4417 239.365 10.9719 239.547 10.6072C239.729 10.2425 239.919 9.90592 240.115 9.59736L242.366 9.76566C242.072 10.0602 241.833 10.3477 241.651 10.6282C241.469 10.9088 241.377 11.2664 241.377 11.7012C241.377 12.0518 241.483 12.3394 241.693 12.5638C241.917 12.7882 242.198 12.9004 242.534 12.9004C242.941 12.9004 243.243 12.8022 243.439 12.6059C243.635 12.3955 243.734 12.136 243.734 11.8274C243.734 11.4067 243.565 11.1121 243.229 10.9438C242.892 10.7615 242.443 10.6703 241.882 10.6703H225.009V8.29297H240.052C240.907 8.29297 241.616 8.32102 242.177 8.37712C242.738 8.4192 243.215 8.50335 243.607 8.62958C244.014 8.75582 244.386 8.95217 244.722 9.21866C245.087 9.48515 245.368 9.82177 245.564 10.2285C245.774 10.6353 245.88 11.1472 245.88 11.7643C245.88 12.676 245.585 13.4334 244.996 14.0365C244.407 14.6396 243.579 14.9411 242.513 14.9411Z" fill="white"/>
<path d="M208.498 13.8518C208.498 12.8139 208.722 11.8812 209.171 11.0537C209.62 10.2122 210.279 9.54596 211.149 9.05506C212.033 8.55013 213.112 8.29767 214.389 8.29767C215.679 8.29767 216.759 8.53611 217.629 9.01298C218.498 9.47583 219.151 10.121 219.585 10.9485C220.034 11.776 220.259 12.7368 220.259 13.8308C220.259 14.8547 220.041 15.7663 219.606 16.5658C219.172 17.3512 218.519 17.9684 217.65 18.4172C216.78 18.852 215.693 19.0694 214.389 19.0694C213.084 19.0694 211.99 18.845 211.107 18.3962C210.237 17.9473 209.585 17.3302 209.15 16.5448C208.715 15.7593 208.498 14.8617 208.498 13.8518ZM211.422 13.5783C211.422 14.4339 211.668 15.1422 212.159 15.7032C212.664 16.2502 213.407 16.5237 214.389 16.5237C215.048 16.5237 215.595 16.4045 216.03 16.1661C216.465 15.9136 216.794 15.577 217.019 15.1562C217.243 14.7214 217.355 14.2305 217.355 13.6835C217.355 13.1225 217.243 12.6176 217.019 12.1688C216.808 11.7199 216.479 11.3623 216.03 11.0958C215.595 10.8153 215.048 10.675 214.389 10.675C213.716 10.675 213.162 10.8083 212.727 11.0748C212.292 11.3412 211.962 11.6989 211.738 12.1477C211.528 12.5825 211.422 13.0594 211.422 13.5783ZM213.505 10.4857C212.846 10.4857 212.264 10.3805 211.759 10.1701C211.254 9.94569 210.826 9.58803 210.476 9.09714C210.125 8.59221 209.852 7.91197 209.655 7.0564L212.516 6.32005C212.671 7.03536 212.839 7.5473 213.021 7.85586C213.204 8.1504 213.456 8.29767 213.779 8.29767C213.989 8.29767 214.199 8.22053 214.41 8.06625C214.62 7.91197 214.901 7.61743 215.251 7.18263L216.135 6.06759C216.626 5.45046 217.089 4.96657 217.524 4.61593C217.958 4.25126 218.428 3.98478 218.933 3.81647C219.452 3.64816 220.069 3.55699 220.785 3.54297L220.953 5.98344C220.476 6.01149 220.062 6.09564 219.712 6.2359C219.375 6.36213 219.066 6.54446 218.786 6.7829C218.505 7.02134 218.211 7.33691 217.902 7.72963L217.208 8.59221C216.941 8.92883 216.626 9.24441 216.261 9.53894C215.897 9.81946 215.483 10.0509 215.02 10.2332C214.571 10.4015 214.066 10.4857 213.505 10.4857Z" fill="white"/>
<path d="M187.276 27.2917C186.393 27.2917 185.713 27.1935 185.236 26.9971C184.759 26.8008 184.338 26.5343 183.973 26.1977H184.1C183.707 26.6325 183.307 26.92 182.9 27.0602C182.48 27.2145 181.996 27.2917 181.449 27.2917C180.916 27.2917 180.446 27.1654 180.039 26.913C179.632 26.6745 179.317 26.3239 179.092 25.861C178.868 25.3982 178.756 24.8442 178.756 24.199C178.756 23.3575 178.987 22.6141 179.45 21.9689C179.899 21.3378 180.551 20.8399 181.407 20.4752C182.262 20.1245 183.272 19.9492 184.436 19.9492C185.404 19.9492 186.246 20.0123 186.961 20.1386C187.662 20.2648 188.406 20.4612 189.191 20.7276L188.37 22.6211C187.823 22.4107 187.347 22.2494 186.94 22.1372C186.519 22.025 186.119 21.9479 185.741 21.9058C185.348 21.8637 184.92 21.8427 184.457 21.8427C183.672 21.8427 183.027 21.9479 182.522 22.1583C182.017 22.3827 181.652 22.6702 181.428 23.0208C181.189 23.3715 181.07 23.7642 181.07 24.199C181.07 24.5637 181.154 24.8512 181.323 25.0616C181.477 25.286 181.708 25.3982 182.017 25.3982C182.297 25.3982 182.536 25.293 182.732 25.0826C182.914 24.8863 183.027 24.6128 183.069 24.2621H185.088C185.117 24.5005 185.173 24.7109 185.257 24.8933C185.341 25.0756 185.474 25.2159 185.656 25.314C185.839 25.4122 186.091 25.4613 186.414 25.4613C186.568 25.4753 186.736 25.4894 186.919 25.5034C187.087 25.5314 187.269 25.5455 187.466 25.5455C187.746 25.5455 187.971 25.4964 188.139 25.3982C188.293 25.314 188.37 25.1738 188.37 24.9774C188.37 24.8372 188.321 24.725 188.223 24.6408C188.111 24.5567 187.957 24.5146 187.76 24.5146C187.578 24.5146 187.431 24.5707 187.319 24.6829C187.192 24.7951 187.129 24.9704 187.129 25.2088C187.129 25.3912 187.178 25.5525 187.276 25.6927C187.361 25.847 187.48 25.9873 187.634 26.1135L186.077 26.5132C185.909 26.2748 185.79 26.0013 185.72 25.6927C185.635 25.3842 185.593 25.1387 185.593 24.9564C185.593 24.3393 185.79 23.8343 186.182 23.4416C186.561 23.0489 187.115 22.8525 187.845 22.8525C188.546 22.8525 189.114 23.0489 189.549 23.4416C189.969 23.8484 190.18 24.3463 190.18 24.9353C190.18 25.3281 190.096 25.6997 189.927 26.0504C189.745 26.4151 189.443 26.7096 189.023 26.934C188.602 27.1724 188.02 27.2917 187.276 27.2917Z" fill="white"/>
<path d="M193.856 19.0647C192.79 19.0647 191.892 18.8192 191.163 18.3283C190.434 17.8374 189.739 17.2203 189.08 16.4769L190.7 14.6676C190.995 15.0043 191.303 15.3128 191.626 15.5933C191.934 15.8738 192.271 16.0983 192.636 16.2666C193.014 16.4349 193.421 16.519 193.856 16.519C194.347 16.519 194.725 16.3788 194.992 16.0983C195.258 15.8177 195.392 15.397 195.392 14.8359C195.392 14.1767 195.244 13.5947 194.95 13.0897C194.655 12.5848 194.27 12.136 193.793 11.7433C193.316 11.3365 192.811 10.9649 192.278 10.6282L193.94 8.29297C194.767 8.74179 195.511 9.27476 196.17 9.89189C196.829 10.509 197.348 11.2103 197.727 11.9957C198.12 12.7672 198.316 13.6367 198.316 14.6045C198.316 15.951 197.937 17.031 197.18 17.8445C196.423 18.6579 195.314 19.0647 193.856 19.0647Z" fill="white"/>
<path d="M185.869 19.0694C185.069 19.0694 184.389 18.9922 183.828 18.838C183.267 18.6977 182.79 18.4943 182.397 18.2278C182.005 17.9473 181.654 17.6247 181.346 17.2601L181.493 17.2811C181.156 17.772 180.799 18.1507 180.42 18.4172C180.055 18.6697 179.662 18.838 179.242 18.9221C178.835 19.0203 178.379 19.0694 177.874 19.0694C176.766 19.0694 175.869 18.6767 175.181 17.8912C174.494 17.1058 174.15 15.9908 174.15 14.5461C174.15 13.1996 174.48 12.0636 175.139 11.1379C175.798 10.1982 176.731 9.48985 177.937 9.01298C179.144 8.53611 180.553 8.29767 182.166 8.29767C183.022 8.29767 183.8 8.34676 184.501 8.44494C185.203 8.54312 185.883 8.69039 186.542 8.88675C187.201 9.06908 187.896 9.30752 188.625 9.60206L187.342 11.9584C186.584 11.6218 185.918 11.3623 185.343 11.1799C184.782 10.9976 184.242 10.8714 183.723 10.8013C183.204 10.7171 182.636 10.675 182.019 10.675C180.869 10.675 179.929 10.8433 179.2 11.1799C178.47 11.5025 177.93 11.9443 177.58 12.5054C177.243 13.0524 177.075 13.6625 177.075 14.3357C177.075 15.1212 177.201 15.6822 177.453 16.0188C177.706 16.3554 178.057 16.5237 178.505 16.5237C178.968 16.5237 179.34 16.3554 179.62 16.0188C179.915 15.6822 180.09 15.2123 180.146 14.6092H182.734C182.776 15.1562 182.937 15.598 183.218 15.9347C183.513 16.2713 184.003 16.4887 184.691 16.5868C184.901 16.6289 185.133 16.664 185.385 16.692C185.651 16.7061 185.932 16.7131 186.227 16.7131C186.619 16.7131 186.928 16.6359 187.152 16.4817C187.377 16.3274 187.489 16.0749 187.489 15.7243C187.489 15.4858 187.405 15.2895 187.236 15.1352C187.082 14.9809 186.865 14.9038 186.584 14.9038C186.318 14.9038 186.086 14.9809 185.89 15.1352C185.708 15.2895 185.616 15.5419 185.616 15.8926C185.616 16.145 185.68 16.3835 185.806 16.6079C185.932 16.8183 186.107 17.0076 186.332 17.1759L184.291 17.765C184.053 17.4284 183.87 17.0427 183.744 16.6079C183.632 16.1591 183.576 15.8014 183.576 15.5349C183.576 14.6794 183.842 13.9921 184.375 13.4731C184.922 12.9402 185.687 12.6737 186.668 12.6737C187.313 12.6737 187.875 12.8069 188.351 13.0734C188.828 13.3399 189.2 13.7046 189.466 14.1674C189.733 14.6162 189.866 15.1212 189.866 15.6822C189.866 16.103 189.796 16.5167 189.656 16.9235C189.53 17.3302 189.312 17.6949 189.004 18.0175C188.709 18.3401 188.302 18.5995 187.783 18.7959C187.264 18.9782 186.626 19.0694 185.869 19.0694ZM181.409 10.4857C180.749 10.4857 180.167 10.3805 179.662 10.1701C179.158 9.94569 178.73 9.58803 178.379 9.09714C178.028 8.59221 177.755 7.91197 177.559 7.0564L180.42 6.32005C180.574 7.03536 180.742 7.5473 180.925 7.85586C181.107 8.1504 181.36 8.29767 181.682 8.29767C181.893 8.29767 182.103 8.22053 182.313 8.06625C182.524 7.91197 182.804 7.61743 183.155 7.18263L184.038 6.06759C184.529 5.45046 184.992 4.96657 185.427 4.61593C185.862 4.25126 186.332 3.98478 186.837 3.81647C187.356 3.64816 187.973 3.55699 188.688 3.54297L188.856 5.98344C188.379 6.01149 187.966 6.09564 187.615 6.2359C187.278 6.36213 186.97 6.54446 186.689 6.7829C186.409 7.02134 186.114 7.33691 185.806 7.72963L185.111 8.59221C184.845 8.92883 184.529 9.24441 184.165 9.53894C183.8 9.81946 183.386 10.0509 182.923 10.2332C182.475 10.4015 181.97 10.4857 181.409 10.4857Z" fill="white"/>
<path d="M156.162 13.8495C156.162 12.8116 156.387 11.8789 156.835 11.0514C157.284 10.2099 157.943 9.54364 158.813 9.05274C159.697 8.54782 160.777 8.29535 162.053 8.29535C163.343 8.29535 164.423 8.53379 165.293 9.01066C166.162 9.47351 166.815 10.1187 167.249 10.9462C167.698 11.7737 167.923 12.7345 167.923 13.8285C167.923 14.8524 167.705 15.764 167.27 16.5635C166.836 17.3489 166.183 17.9661 165.314 18.4149C164.444 18.8497 163.357 19.0671 162.053 19.0671C160.749 19.0671 159.655 18.8427 158.771 18.3938C157.901 17.945 157.249 17.3279 156.814 16.5424C156.38 15.757 156.162 14.8594 156.162 13.8495ZM159.086 13.576C159.086 14.4316 159.332 15.1399 159.823 15.7009C160.328 16.2479 161.071 16.5214 162.053 16.5214C162.712 16.5214 163.259 16.4022 163.694 16.1638C164.129 15.9113 164.458 15.5747 164.683 15.1539C164.907 14.7191 165.019 14.2282 165.019 13.6812C165.019 13.1202 164.907 12.6153 164.683 12.1664C164.472 11.7176 164.143 11.36 163.694 11.0935C163.259 10.813 162.712 10.6727 162.053 10.6727C161.38 10.6727 160.826 10.8059 160.391 11.0724C159.956 11.3389 159.626 11.6966 159.402 12.1454C159.192 12.5802 159.086 13.0571 159.086 13.576ZM170.7 10.3992C170.055 10.3992 169.522 10.301 169.101 10.1047C168.68 9.90831 168.343 9.66286 168.091 9.36832C167.853 9.05975 167.684 8.73716 167.586 8.40055C167.488 8.06393 167.439 7.76238 167.439 7.49589C167.439 6.92084 167.53 6.45098 167.712 6.08631C167.909 5.70762 168.105 5.371 168.301 5.07646L170.552 5.22373C170.244 5.51827 169.998 5.8058 169.816 6.08631C169.634 6.36682 169.543 6.72448 169.543 7.15927C169.543 7.50991 169.648 7.79744 169.858 8.02185C170.083 8.24626 170.37 8.35847 170.721 8.35847C171.142 8.35847 171.443 8.25328 171.625 8.04289C171.822 7.83251 171.92 7.58004 171.92 7.2855C171.92 6.87876 171.752 6.58422 171.415 6.40189C171.078 6.21955 170.623 6.12839 170.048 6.12839H167.039C166.562 6.12839 166.19 6.2476 165.924 6.48604C165.657 6.72448 165.489 7.10317 165.419 7.62212H162.852C162.754 7.15927 162.572 6.79461 162.305 6.52812C162.053 6.26163 161.646 6.12839 161.085 6.12839H160.854C160.545 6.12839 160.279 6.22657 160.054 6.42292C159.83 6.61928 159.718 6.8998 159.718 7.26447C159.718 7.48888 159.767 7.67822 159.865 7.83251C159.977 7.98679 160.131 8.10601 160.328 8.19016C160.524 8.26029 160.749 8.29535 161.001 8.29535H161.716V10.5885H161.169C160.356 10.5885 159.64 10.4483 159.023 10.1678C158.42 9.87324 157.95 9.45949 157.614 8.92651C157.277 8.39353 157.109 7.76939 157.109 7.05408C157.109 6.08631 157.424 5.30087 158.056 4.69777C158.701 4.08064 159.577 3.77207 160.685 3.77207H160.938C161.555 3.77207 162.088 3.86324 162.537 4.04557C162.986 4.21388 163.35 4.44531 163.631 4.73984C163.911 5.03438 164.108 5.34996 164.22 5.68658H164.031C164.199 5.33594 164.416 5.02036 164.683 4.73984C164.949 4.44531 165.314 4.21388 165.777 4.04557C166.24 3.86324 166.843 3.77207 167.586 3.77207H168.848C169.76 3.77207 170.538 3.82818 171.184 3.94038C171.829 4.03856 172.397 4.277 172.888 4.65569C173.252 4.92218 173.54 5.25879 173.75 5.66554C173.961 6.07228 174.066 6.59123 174.066 7.22239C174.066 8.14808 173.771 8.91248 173.182 9.51559C172.593 10.1047 171.766 10.3992 170.7 10.3992ZM171.373 0.574219C172.271 0.574219 172.993 0.763565 173.54 1.14226C174.087 1.50693 174.501 2.02588 174.781 2.69911L172.635 3.22507C172.551 3.07079 172.453 2.93754 172.341 2.82534C172.229 2.71313 172.095 2.62898 171.941 2.57288C171.787 2.51678 171.604 2.48872 171.394 2.48872C171.043 2.48872 170.77 2.57288 170.573 2.74118C170.391 2.89547 170.3 3.09884 170.3 3.3513C170.3 3.61779 170.377 3.86324 170.531 4.08765C170.686 4.29803 170.896 4.48738 171.163 4.65569L169.017 5.45515C168.75 5.21672 168.505 4.90114 168.28 4.50842C168.07 4.10168 167.965 3.63883 167.965 3.11988C167.965 2.67106 168.084 2.2573 168.322 1.87861C168.561 1.48589 168.932 1.17031 169.437 0.931874C169.942 0.693437 170.588 0.574219 171.373 0.574219Z" fill="white"/>
<path d="M142.126 8.29297C143.094 8.29297 143.9 8.48933 144.545 8.88205C145.191 9.27476 145.71 9.79372 146.102 10.4389C146.495 11.0841 146.776 11.7994 146.944 12.5848C147.112 13.3562 147.196 14.1347 147.196 14.9201C147.196 16.3367 147.021 17.6691 146.67 18.9174C146.334 20.1657 145.843 21.3298 145.198 22.4098C144.567 23.5038 143.809 24.5137 142.926 25.4394C142.042 26.3791 141.067 27.2487 140.001 28.0481L138.213 26.0705C139.054 25.4113 139.847 24.703 140.59 23.9456C141.348 23.1882 142.007 22.3607 142.568 21.4631C143.143 20.5795 143.592 19.6047 143.914 18.5387C144.237 17.4728 144.398 16.2876 144.398 14.9832C144.398 14.5063 144.356 14.0014 144.272 13.4684C144.202 12.9355 144.076 12.4376 143.893 11.9747C143.725 11.5119 143.487 11.1332 143.178 10.8386C142.883 10.5441 142.505 10.3968 142.042 10.3968C141.747 10.3968 141.495 10.481 141.285 10.6493C141.074 10.8176 140.969 11.042 140.969 11.3225C140.969 11.603 141.046 11.8274 141.2 11.9957C141.355 12.15 141.544 12.2552 141.768 12.3113C142.007 12.3674 142.231 12.3955 142.442 12.3955C143.017 12.3955 143.508 12.2412 143.914 11.9326C144.321 11.61 144.7 11.2664 145.05 10.9017L145.808 13.0687C145.317 13.4194 144.777 13.7419 144.188 14.0365C143.613 14.331 142.897 14.4783 142.042 14.4783C140.976 14.4783 140.106 14.2258 139.433 13.7209C138.774 13.216 138.444 12.4305 138.444 11.3646C138.444 10.7755 138.585 10.2495 138.865 9.7867C139.146 9.32386 139.559 8.95919 140.106 8.6927C140.653 8.42621 141.327 8.29297 142.126 8.29297Z" fill="white"/>
<path d="M131.147 27.2917C130.53 27.2917 130.025 27.1795 129.632 26.955C129.225 26.7306 128.839 26.38 128.475 25.9031H128.959C128.622 26.2538 128.306 26.5273 128.012 26.7236C127.703 26.934 127.381 27.0813 127.044 27.1654C126.708 27.2496 126.301 27.2917 125.824 27.2917C125.01 27.2917 124.365 27.1163 123.888 26.7657C123.412 26.4151 123.075 25.9662 122.879 25.4192C122.682 24.8863 122.584 24.3393 122.584 23.7782C122.584 22.9647 122.752 22.2705 123.089 21.6954C123.411 21.1344 123.853 20.6996 124.414 20.391C124.975 20.0965 125.607 19.9492 126.308 19.9492C127.177 19.9492 127.837 20.1526 128.285 20.5593C128.72 20.9801 128.938 21.492 128.938 22.0951C128.938 22.7964 128.713 23.3294 128.264 23.6941C127.802 24.0587 127.114 24.2411 126.203 24.2411C125.712 24.2411 125.27 24.1429 124.877 23.9465C124.47 23.7642 124.12 23.5398 123.825 23.2733L124.393 21.8427C124.562 22.0671 124.786 22.2775 125.067 22.4738C125.333 22.6702 125.642 22.7684 125.992 22.7684C126.301 22.7684 126.546 22.7123 126.729 22.6001C126.897 22.5019 126.981 22.3406 126.981 22.1162C126.981 21.9619 126.932 21.8146 126.834 21.6744C126.722 21.5481 126.546 21.485 126.308 21.485C125.929 21.485 125.585 21.6393 125.277 21.9479C124.968 22.2564 124.814 22.8034 124.814 23.5889V23.8203C124.814 24.1709 124.863 24.4655 124.961 24.7039C125.045 24.9424 125.193 25.1177 125.403 25.2299C125.6 25.3421 125.852 25.3982 126.161 25.3982C126.708 25.3982 127.086 25.272 127.297 25.0195C127.493 24.7811 127.612 24.5286 127.654 24.2621H129.695C129.765 24.767 129.926 25.0826 130.179 25.2088C130.417 25.3351 130.691 25.3982 130.999 25.3982C131.364 25.3982 131.631 25.293 131.799 25.0826C131.953 24.8722 132.03 24.6268 132.03 24.3463C132.03 23.7712 131.813 23.2873 131.378 22.8946C130.943 22.5019 130.452 22.1513 129.905 21.8427L131.252 19.9492C131.841 20.2438 132.374 20.6014 132.851 21.0222C133.328 21.443 133.706 21.9198 133.987 22.4528C134.253 22.9858 134.387 23.5819 134.387 24.2411C134.387 25.1527 134.113 25.8891 133.566 26.4501C133.005 27.0111 132.199 27.2917 131.147 27.2917Z" fill="white"/>
<path d="M130.731 19.0694C130.058 19.0694 129.462 18.9712 128.943 18.7748C128.424 18.5785 127.898 18.2489 127.365 17.786C126.846 17.3092 126.222 16.664 125.492 15.8505C125.1 15.4017 124.791 15.0931 124.567 14.9248C124.342 14.7425 124.083 14.6513 123.788 14.6513C123.564 14.6513 123.339 14.7425 123.115 14.9248C122.905 15.0931 122.799 15.3596 122.799 15.7243C122.799 16.1591 122.912 16.4606 123.136 16.6289C123.375 16.7972 123.648 16.8814 123.957 16.8814C124.293 16.8814 124.63 16.7411 124.966 16.4606C125.303 16.1801 125.541 15.7173 125.682 15.0721L127.428 16.9235C127.147 17.3162 126.853 17.6808 126.544 18.0175C126.25 18.3401 125.878 18.5995 125.429 18.7959C124.98 18.9782 124.377 19.0694 123.62 19.0694C122.792 19.0694 122.112 18.9151 121.579 18.6065C121.06 18.284 120.675 17.8702 120.422 17.3653C120.184 16.8603 120.064 16.3274 120.064 15.7663C120.064 15.0791 120.226 14.49 120.548 13.9991C120.871 13.4942 121.313 13.1015 121.874 12.821C122.435 12.5404 123.066 12.4002 123.767 12.4002C124.356 12.4002 124.875 12.4773 125.324 12.6316C125.773 12.7859 126.208 13.0383 126.628 13.389C127.063 13.7396 127.54 14.2025 128.059 14.7775C128.508 15.2684 128.873 15.6401 129.153 15.8926C129.448 16.145 129.714 16.3133 129.953 16.3975C130.205 16.4817 130.493 16.5237 130.815 16.5237C131.208 16.5237 131.53 16.3835 131.783 16.103C132.049 15.8224 132.183 15.4017 132.183 14.8406C132.183 14.1814 132.035 13.5994 131.741 13.0945C131.446 12.5895 131.061 12.1407 130.584 11.748C130.121 11.3412 129.623 10.9696 129.09 10.6329L130.731 8.29767C131.558 8.74649 132.302 9.27947 132.961 9.8966C133.62 10.5137 134.139 11.215 134.518 12.0004C134.911 12.7719 135.107 13.6415 135.107 14.6092C135.107 15.5069 134.939 16.2923 134.602 16.9655C134.265 17.6247 133.768 18.1437 133.108 18.5224C132.463 18.8871 131.671 19.0694 130.731 19.0694ZM133.887 21.7413C133.101 21.7413 132.47 21.615 131.993 21.3626C131.53 21.1101 131.194 20.7805 130.983 20.3738C130.787 19.967 130.689 19.5322 130.689 19.0694C130.689 18.8871 130.703 18.6977 130.731 18.5013C130.773 18.305 130.829 18.1156 130.899 17.9333H133.613C133.543 18.0455 133.487 18.1577 133.445 18.2699C133.403 18.3681 133.382 18.4663 133.382 18.5645C133.382 18.7187 133.417 18.859 133.487 18.9852C133.557 19.1115 133.655 19.2096 133.782 19.2798C133.908 19.3499 134.055 19.385 134.223 19.385C134.448 19.385 134.644 19.3429 134.812 19.2587C134.995 19.1886 135.212 19.0624 135.465 18.88L136.748 20.7314C136.299 21.068 135.843 21.3205 135.38 21.4888C134.932 21.6571 134.434 21.7413 133.887 21.7413ZM124.293 10.4857C123.634 10.4857 123.052 10.3805 122.547 10.1701C122.042 9.94569 121.614 9.58803 121.264 9.09713C120.913 8.59221 120.64 7.91197 120.443 7.0564L123.304 6.32005C123.459 7.03536 123.627 7.5473 123.809 7.85586C123.992 8.1504 124.244 8.29767 124.567 8.29767C124.777 8.29767 124.987 8.22053 125.198 8.06625C125.408 7.91197 125.689 7.61743 126.039 7.18263L126.923 6.06759C127.414 5.45046 127.877 4.96657 128.312 4.61593C128.746 4.25126 129.216 3.98478 129.721 3.81647C130.24 3.64816 130.857 3.55699 131.573 3.54297L131.741 5.98344C131.264 6.01149 130.85 6.09564 130.5 6.2359C130.163 6.36213 129.854 6.54446 129.574 6.7829C129.293 7.02134 128.999 7.33691 128.69 7.72963L127.996 8.59221C127.729 8.92883 127.414 9.24441 127.049 9.53894C126.685 9.81946 126.271 10.0509 125.808 10.2332C125.359 10.4015 124.854 10.4857 124.293 10.4857Z" fill="white"/>
<path d="M98.4492 13.8471C98.4492 12.8092 98.6736 11.9186 99.1225 11.1752C99.5713 10.4319 100.23 9.85683 101.1 9.45009C101.984 9.04334 103.057 8.83997 104.319 8.83997C105.623 8.83997 106.71 9.02932 107.58 9.40801C108.45 9.7867 109.102 10.3477 109.537 11.0911C109.985 11.8204 110.21 12.7321 110.21 13.8261C110.21 14.85 109.992 15.7616 109.558 16.5611C109.123 17.3465 108.464 17.9637 107.58 18.4125C106.71 18.8473 105.623 19.0647 104.319 19.0647C103.029 19.0647 101.942 18.8403 101.058 18.3915C100.188 17.9426 99.5362 17.3255 99.1014 16.5401C98.6666 15.7546 98.4492 14.857 98.4492 13.8471ZM101.374 13.5736C101.374 14.4292 101.619 15.1375 102.11 15.6985C102.615 16.2455 103.351 16.519 104.319 16.519C104.978 16.519 105.525 16.3998 105.96 16.1614C106.409 15.9089 106.738 15.5723 106.949 15.1515C107.173 14.7167 107.285 14.2258 107.285 13.6788C107.285 13.1178 107.173 12.6129 106.949 12.1641C106.738 11.7152 106.416 11.3576 105.981 11.0911C105.546 10.8106 104.992 10.6703 104.319 10.6703C103.66 10.6703 103.106 10.8036 102.657 11.0701C102.222 11.3365 101.9 11.6942 101.689 12.143C101.479 12.5778 101.374 13.0547 101.374 13.5736ZM115.07 14.9411C114.424 14.9411 113.891 14.843 113.471 14.6466C113.05 14.4502 112.713 14.2048 112.461 13.9103C112.222 13.6017 112.054 13.2791 111.956 12.9425C111.858 12.6059 111.809 12.2973 111.809 12.0168C111.809 11.4698 111.9 11.0069 112.082 10.6282C112.279 10.2496 112.475 9.90592 112.671 9.59736L114.922 9.76566C114.614 10.0602 114.368 10.3477 114.186 10.6282C114.004 10.9088 113.913 11.2664 113.913 11.7012C113.913 12.0518 114.018 12.3394 114.228 12.5638C114.453 12.7882 114.74 12.9004 115.091 12.9004C115.497 12.9004 115.799 12.8022 115.995 12.6059C116.192 12.3955 116.29 12.136 116.29 11.8274C116.29 11.4067 116.122 11.1121 115.785 10.9438C115.448 10.7615 114.993 10.6703 114.417 10.6703H98.6386V8.29297H112.608C113.464 8.29297 114.172 8.32102 114.733 8.37712C115.294 8.4192 115.771 8.50335 116.164 8.62958C116.57 8.75582 116.942 8.95217 117.279 9.21866C117.629 9.48515 117.91 9.82177 118.12 10.2285C118.331 10.6353 118.436 11.1472 118.436 11.7643C118.436 12.676 118.141 13.4334 117.552 14.0365C116.963 14.6396 116.136 14.9411 115.07 14.9411Z" fill="white"/>
<path d="M84.7705 19.0647C83.8728 19.0647 83.1505 18.9174 82.6035 18.6229C82.0705 18.3143 81.6848 17.9216 81.4464 17.4447C81.222 16.9678 81.1098 16.4629 81.1098 15.9299C81.1098 15.2427 81.2641 14.6746 81.5726 14.2258C81.8812 13.777 82.2879 13.4474 82.7929 13.237C83.3118 13.0126 83.8588 12.9004 84.4339 12.9004C85.1632 12.9004 85.7733 13.0266 86.2642 13.2791C86.7691 13.5175 87.1829 13.8051 87.5055 14.1417C87.8421 14.4643 88.1086 14.7518 88.305 15.0043L87.232 17.1502C87.0777 16.7715 86.8884 16.4138 86.6639 16.0772C86.4536 15.7406 86.2011 15.4671 85.9066 15.2567C85.612 15.0323 85.2614 14.9201 84.8546 14.9201C84.5461 14.9201 84.2656 15.0043 84.0131 15.1726C83.7606 15.3409 83.6344 15.6074 83.6344 15.972C83.6344 16.2946 83.7396 16.5471 83.95 16.7294C84.1604 16.9117 84.4409 17.0029 84.7915 17.0029C85.2544 17.0029 85.619 16.8767 85.8855 16.6242C86.166 16.3718 86.3624 16.0351 86.4746 15.6144C86.5868 15.1936 86.6429 14.7378 86.6429 14.2469V13.8471C86.6429 13.2581 86.5658 12.7391 86.4115 12.2903C86.2572 11.8415 86.0118 11.4908 85.6751 11.2384C85.3385 10.9719 84.8967 10.8386 84.3497 10.8386C84.0131 10.8386 83.7115 10.9088 83.4451 11.049C83.1786 11.1752 82.9542 11.3576 82.7718 11.596C82.6035 11.8204 82.4703 12.0799 82.3721 12.3744H79.6581C79.588 12.15 79.4618 11.9046 79.2794 11.6381C79.1111 11.3576 78.8587 11.1191 78.522 10.9228C78.1854 10.7124 77.7226 10.6072 77.1335 10.6072C76.6426 10.6072 76.2429 10.6914 75.9343 10.8597C75.6398 11.0139 75.4925 11.2734 75.4925 11.6381C75.4925 11.7783 75.5135 11.9116 75.5556 12.0378C75.6117 12.15 75.7099 12.2482 75.8501 12.3324C75.9764 12.4025 76.1377 12.4656 76.334 12.5217C76.5444 12.5638 76.867 12.5848 77.3018 12.5848H78.5431V14.7728H77.2387C76.8039 14.7728 76.4673 14.7939 76.2288 14.8359C75.9904 14.878 75.8011 14.9552 75.6608 15.0674C75.5626 15.1515 75.4785 15.2567 75.4083 15.3829C75.3522 15.4952 75.3242 15.6284 75.3242 15.7827C75.3242 16.0632 75.4154 16.2946 75.5977 16.4769C75.794 16.6593 76.1096 16.7505 76.5444 16.7505C77.0073 16.7505 77.421 16.6312 77.7857 16.3928C78.1644 16.1544 78.5291 15.8388 78.8797 15.4461L80.689 17.045C80.3103 17.4798 79.8966 17.8515 79.4477 18.16C79.0129 18.4546 78.5291 18.679 77.9961 18.8333C77.4631 18.9875 76.853 19.0647 76.1657 19.0647C74.8473 19.0647 73.8515 18.7912 73.1783 18.2442C72.5191 17.6832 72.1895 16.9959 72.1895 16.1824C72.1895 15.7897 72.2666 15.425 72.4209 15.0884C72.5752 14.7378 72.8136 14.4362 73.1362 14.1838C73.4728 13.9173 73.8936 13.7069 74.3985 13.5526L74.3775 13.8261C73.6762 13.5877 73.1642 13.23 72.8416 12.7531C72.5191 12.2763 72.3578 11.7503 72.3578 11.1752C72.3578 10.3057 72.7364 9.61138 73.4938 9.09243C74.2512 8.55946 75.2541 8.29297 76.5023 8.29297C77.2457 8.29297 77.8769 8.3631 78.3958 8.50335C78.9288 8.62958 79.4197 8.83997 79.8685 9.13451C80.3173 9.41502 80.7732 9.80073 81.236 10.2916L80.7942 10.3127C81.1168 9.8919 81.4534 9.53424 81.8041 9.2397C82.1687 8.93114 82.5755 8.69971 83.0243 8.54543C83.4871 8.37712 84.0341 8.29297 84.6653 8.29297C85.7172 8.29297 86.5938 8.53141 87.2951 9.00828C87.9964 9.47112 88.5223 10.1233 88.873 10.9649C89.2377 11.7924 89.42 12.7461 89.42 13.8261C89.42 14.9341 89.2517 15.8809 88.9151 16.6663C88.5784 17.4377 88.0665 18.0338 87.3793 18.4546C86.692 18.8613 85.8224 19.0647 84.7705 19.0647Z" fill="white"/>
<path d="M56.0082 8.81893C57.1864 8.81893 58.2033 8.99425 59.0588 9.34489C59.9144 9.69554 60.5736 10.2215 61.0364 10.9228C61.4993 11.6241 61.7307 12.4937 61.7307 13.5316C61.7307 14.3871 61.6536 15.1445 61.4993 15.8037C61.345 16.4629 61.1487 17.052 60.9102 17.571C60.6718 18.0759 60.4333 18.5457 60.1949 18.9805L57.3757 17.8865C57.6142 17.5639 57.8386 17.2063 58.049 16.8136C58.2734 16.4068 58.4557 15.958 58.596 15.4671C58.7362 14.9762 58.8064 14.4432 58.8064 13.8682C58.8064 13.3212 58.7152 12.8022 58.5329 12.3113C58.3505 11.8204 58.049 11.4277 57.6282 11.1332C57.2215 10.8246 56.6604 10.6703 55.9451 10.6703C55.3701 10.6703 54.8722 10.8036 54.4514 11.0701C54.0447 11.3365 53.7291 11.7082 53.5047 12.1851C53.2803 12.6479 53.168 13.1879 53.168 13.8051C53.168 14.6185 53.3013 15.3689 53.5678 16.0562C53.8343 16.7294 54.1779 17.3325 54.5987 17.8655L51.7585 18.9805C51.3237 18.2372 50.959 17.4237 50.6645 16.5401C50.3699 15.6564 50.2227 14.7237 50.2227 13.7419C50.2227 12.8162 50.4401 11.9817 50.8748 11.2384C51.3237 10.495 51.9759 9.90592 52.8314 9.47112C53.687 9.03633 54.7459 8.81893 56.0082 8.81893ZM66.5906 14.9411C65.9454 14.9411 65.4125 14.843 64.9917 14.6466C64.5709 14.4502 64.2413 14.2048 64.0029 13.9103C63.7644 13.6017 63.5961 13.2791 63.498 12.9425C63.3998 12.6059 63.3507 12.2973 63.3507 12.0168C63.3507 11.4698 63.4419 11.0069 63.6242 10.6282C63.8205 10.2496 64.0169 9.90592 64.2133 9.59736L66.4644 9.76566C66.1558 10.0602 65.9104 10.3477 65.728 10.6282C65.5457 10.9088 65.4545 11.2664 65.4545 11.7012C65.4545 12.0518 65.5597 12.3394 65.7701 12.5638C65.9945 12.7882 66.282 12.9004 66.6327 12.9004C67.0394 12.9004 67.341 12.8022 67.5373 12.6059C67.7337 12.3955 67.8319 12.136 67.8319 11.8274C67.8319 11.4067 67.6636 11.1121 67.327 10.9438C66.9903 10.7615 66.5415 10.6703 65.9805 10.6703H50.3278V8.29297H64.1501C65.0057 8.29297 65.714 8.32102 66.275 8.37712C66.8361 8.4192 67.3129 8.50335 67.7057 8.62958C68.1124 8.75582 68.4841 8.95217 68.8207 9.21866C69.1713 9.48515 69.4519 9.82177 69.6622 10.2285C69.8726 10.6353 69.9778 11.1472 69.9778 11.7643C69.9778 12.676 69.6763 13.4334 69.0732 14.0365C68.4841 14.6396 67.6566 14.9411 66.5906 14.9411Z" fill="white"/>
<path d="M37.2227 14.4581C37.2227 13.5745 37.433 12.782 37.8538 12.0808C38.2746 11.3795 38.8707 10.8255 39.6421 10.4187C40.4135 10.012 41.3322 9.80859 42.3981 9.80859C43.4781 9.80859 44.3968 10.012 45.1542 10.4187C45.9116 10.8255 46.4866 11.3795 46.8793 12.0808C47.2861 12.782 47.4894 13.5745 47.4894 14.4581C47.4894 15.3417 47.2861 16.1342 46.8793 16.8355C46.4726 17.5227 45.8835 18.0697 45.1121 18.4765C44.3547 18.8692 43.436 19.0655 42.3561 19.0655C41.2901 19.0655 40.3714 18.8622 39.6 18.4554C38.8286 18.0487 38.2395 17.5017 37.8328 16.8144C37.426 16.1131 37.2227 15.3277 37.2227 14.4581ZM40.0418 14.4371C40.0418 15.0822 40.2312 15.6292 40.6099 16.0781C41.0026 16.5129 41.5846 16.7303 42.3561 16.7303C42.875 16.7303 43.3028 16.6321 43.6394 16.4357C43.976 16.2253 44.2285 15.9448 44.3968 15.5942C44.5791 15.2435 44.6703 14.8578 44.6703 14.4371C44.6703 13.7919 44.4669 13.2519 44.0602 12.8171C43.6675 12.3683 43.0994 12.1439 42.3561 12.1439C41.8652 12.1439 41.4444 12.2491 41.0937 12.4594C40.7571 12.6558 40.4977 12.9293 40.3153 13.2799C40.133 13.6166 40.0418 14.0023 40.0418 14.4371Z" fill="white"/>
<path d="M27.241 19.0647C25.6421 19.0647 24.2886 18.8052 23.1806 18.2863C22.0726 17.7533 21.231 17.038 20.656 16.1403C20.095 15.2287 19.8145 14.2048 19.8145 13.0687C19.8145 12.0869 20.0038 11.2384 20.3825 10.523C20.7752 9.80774 21.3222 9.26074 22.0235 8.88205C22.7248 8.48933 23.5313 8.29297 24.4429 8.29297C25.2845 8.29297 25.9647 8.44725 26.4837 8.75582C27.0026 9.05035 27.3813 9.43606 27.6197 9.91293C27.8582 10.3758 27.9774 10.8597 27.9774 11.3646C27.9774 12.0098 27.8371 12.5638 27.5566 13.0266C27.2761 13.4895 26.8694 13.8401 26.3364 14.0786C25.8034 14.317 25.1512 14.4362 24.3798 14.4362C23.8188 14.4362 23.3209 14.3591 22.8861 14.2048C22.4513 14.0505 22.0726 13.8612 21.75 13.6367C21.4414 13.4123 21.182 13.209 20.9716 13.0266L21.4555 11.049C21.6238 11.2594 21.8201 11.4698 22.0445 11.6802C22.283 11.8906 22.5495 12.0659 22.844 12.2061C23.1385 12.3324 23.4541 12.3955 23.7907 12.3955C24.2255 12.3955 24.5762 12.3183 24.8427 12.1641C25.1091 11.9957 25.2424 11.7222 25.2424 11.3436C25.2424 11.1051 25.1582 10.8877 24.9899 10.6914C24.8216 10.481 24.5762 10.3758 24.2536 10.3758C23.7627 10.3758 23.3559 10.5862 23.0333 11.0069C22.7108 11.4137 22.5495 11.9046 22.5495 12.4796V13.3001C22.5495 13.6367 22.6196 13.9944 22.7598 14.3731C22.9141 14.7378 23.1666 15.0884 23.5172 15.425C23.8819 15.7476 24.3728 16.0141 24.9899 16.2245C25.6211 16.4208 26.4065 16.519 27.3462 16.519C28.6647 16.519 29.7236 16.2946 30.5231 15.8458C31.3365 15.3829 31.7433 14.6606 31.7433 13.6788C31.7433 13.0196 31.5399 12.4726 31.1332 12.0378C30.7405 11.589 30.1233 11.1332 29.2818 10.6703L30.9228 8.29297C32.0308 8.83997 32.9285 9.56229 33.6157 10.4599C34.317 11.3436 34.6676 12.4305 34.6676 13.7209C34.6676 14.7167 34.4012 15.6214 33.8682 16.4349C33.3492 17.2343 32.5428 17.8725 31.4488 18.3494C30.3547 18.8262 28.9522 19.0647 27.241 19.0647Z" fill="white"/>
<path d="M15.6737 7.30455C15.6737 7.79545 15.5755 8.25129 15.3792 8.67206C15.1828 9.09283 14.9093 9.42243 14.5586 9.66087C14.18 9.92736 13.6891 10.1518 13.086 10.3341C12.4969 10.5024 11.8938 10.5866 11.2766 10.5866H7.84736V8.29336H11.2977C11.7044 8.29336 12.006 8.27233 12.2023 8.23025C12.4127 8.17415 12.574 8.097 12.6862 7.99883C12.7704 7.91467 12.8335 7.8235 12.8756 7.72532C12.9176 7.61312 12.9387 7.4939 12.9387 7.36767C12.9387 7.19936 12.9176 7.0591 12.8756 6.9469C12.8335 6.82067 12.7634 6.71548 12.6652 6.63132C12.553 6.53314 12.3917 6.46301 12.1813 6.42094C11.9849 6.37886 11.6553 6.35782 11.1925 6.35782H3.09266V3.98047H10.919C11.9148 3.98047 12.6862 4.05761 13.2332 4.21189C13.7942 4.35215 14.2781 4.59059 14.6849 4.9272C14.9794 5.17966 15.2179 5.50226 15.4002 5.89497C15.5825 6.28769 15.6737 6.75755 15.6737 7.30455ZM8.28917 19.0651C6.35363 19.0651 4.77574 18.8407 3.55551 18.3918C2.33527 17.943 1.43763 17.3119 0.862579 16.4984C0.287526 15.6849 0 14.7452 0 13.6792C0 12.8657 0.189347 12.1504 0.56804 11.5333C0.946733 10.9162 1.46568 10.4323 2.12489 10.0816C2.79812 9.731 3.56252 9.55567 4.41809 9.55567C5.1895 9.55567 5.83468 9.69593 6.35363 9.97644C6.87258 10.2429 7.2653 10.6076 7.53179 11.0704C7.79827 11.5333 7.93152 12.0522 7.93152 12.6273C7.93152 13.6091 7.61594 14.3525 6.98479 14.8574C6.35363 15.3483 5.49105 15.5937 4.39705 15.5937C3.89212 15.5937 3.41525 15.5166 2.96643 15.3623C2.53163 15.194 2.13892 14.9906 1.78827 14.7522C1.43763 14.5138 1.14309 14.2893 0.904656 14.079L1.61997 12.3748C1.88645 12.6834 2.20904 12.9779 2.58774 13.2585C2.96643 13.5249 3.41525 13.6582 3.9342 13.6582C4.35497 13.6582 4.6986 13.574 4.96509 13.4057C5.2456 13.2374 5.38586 12.9709 5.38586 12.6063C5.38586 12.3257 5.29469 12.0943 5.11236 11.912C4.93002 11.7297 4.65652 11.6385 4.29186 11.6385C3.99732 11.6385 3.7168 11.7226 3.45032 11.8909C3.18383 12.0452 2.96643 12.2837 2.79812 12.6063C2.62981 12.9148 2.54566 13.3005 2.54566 13.7634V13.8896C2.54566 14.3104 2.65085 14.6891 2.86124 15.0257C3.08565 15.3623 3.42928 15.6498 3.89212 15.8883C4.35497 16.1127 4.95106 16.288 5.6804 16.4142C6.40973 16.5264 7.28634 16.5825 8.31021 16.5825C9.39019 16.5825 10.3299 16.5334 11.1294 16.4353C11.9288 16.3371 12.588 16.1828 13.107 15.9724C13.6259 15.748 14.0116 15.4535 14.2641 15.0888C14.5306 14.7101 14.6638 14.2473 14.6638 13.7003V13.6371C14.6638 13.0761 14.4955 12.5992 14.1589 12.2065C13.8223 11.8138 13.3454 11.6174 12.7283 11.6174C12.4197 11.6174 12.1322 11.7016 11.8657 11.8699C11.6133 12.0242 11.487 12.2767 11.487 12.6273C11.487 13.006 11.6062 13.2725 11.8447 13.4268C12.0831 13.567 12.3777 13.6371 12.7283 13.6371C13.0789 13.6371 13.3735 13.567 13.6119 13.4268C13.8504 13.2865 14.0537 13.0901 14.222 12.8377C14.3903 12.5712 14.5236 12.2626 14.6218 11.912L15.7789 13.4478C15.4843 13.8686 15.1828 14.2473 14.8742 14.5839C14.5797 14.9065 14.222 15.1589 13.8013 15.3413C13.3805 15.5236 12.8335 15.6148 12.1603 15.6148C11.6273 15.6148 11.1153 15.5306 10.6244 15.3623C10.1335 15.18 9.73382 14.8924 9.42525 14.4997C9.13071 14.093 8.98344 13.553 8.98344 12.8798C8.98344 12.0663 9.285 11.4211 9.8881 10.9442C10.4912 10.4533 11.3327 10.2079 12.4127 10.2079C12.6792 10.2079 12.9176 10.2149 13.128 10.2289C13.3384 10.2429 13.5348 10.264 13.7171 10.292C13.8994 10.306 14.0748 10.3341 14.2431 10.3762L11.8026 10.4183C11.6203 10.3622 11.4239 10.3201 11.2135 10.292C11.0172 10.2499 10.8138 10.2219 10.6034 10.2079C10.407 10.1798 10.1967 10.1658 9.97225 10.1658L10.8769 8.52479C11.7605 8.56686 12.581 8.71413 13.3384 8.9666C14.1098 9.20503 14.7831 9.54866 15.3581 9.99748C15.9332 10.4323 16.382 10.9653 16.7046 11.5964C17.0412 12.2135 17.2095 12.9218 17.2095 13.7213C17.2095 14.6189 17.0412 15.4044 16.7046 16.0776C16.368 16.7368 15.842 17.2908 15.1267 17.7397C14.4114 18.1745 13.4857 18.5041 12.3496 18.7285C11.2276 18.9529 9.87407 19.0651 8.28917 19.0651Z" fill="white"/>
</svg>
