<svg width="290" height="25" viewBox="0 0 290 25" fill="none" xmlns="http://www.w3.org/2000/svg">
<path d="M286.495 23.2289C285.93 23.2289 285.469 23.1383 285.112 22.9569C284.743 22.7876 284.381 22.4793 284.024 22.032H284.448C284.03 22.4793 283.643 22.7876 283.287 22.9569C282.918 23.1383 282.463 23.2289 281.922 23.2289C281.381 23.2289 280.933 23.108 280.576 22.8662C280.22 22.6244 279.955 22.304 279.783 21.905C279.611 21.506 279.525 21.0768 279.525 20.6173C279.525 19.8556 279.734 19.1967 280.152 18.6405C280.558 18.0843 281.117 17.6551 281.83 17.3528C282.531 17.0506 283.324 16.8994 284.209 16.8994C285.118 16.8994 285.93 17.0566 286.643 17.371C287.343 17.6974 287.896 18.1387 288.302 18.6949C288.708 19.2632 288.911 19.9161 288.911 20.6536C288.911 21.0889 288.837 21.5 288.689 21.8869C288.53 22.2859 288.271 22.6063 287.915 22.8481C287.558 23.102 287.085 23.2289 286.495 23.2289ZM286.053 21.5967C286.298 21.5967 286.495 21.506 286.643 21.3246C286.79 21.1433 286.864 20.9015 286.864 20.5992C286.864 19.9584 286.612 19.4506 286.108 19.0758C285.604 18.713 284.971 18.5317 284.209 18.5317C283.385 18.5317 282.74 18.713 282.273 19.0758C281.793 19.4385 281.553 19.9342 281.553 20.5629C281.553 20.8773 281.627 21.1251 281.775 21.3065C281.922 21.5 282.125 21.5967 282.383 21.5967C282.629 21.5967 282.832 21.5362 282.992 21.4153C283.139 21.3065 283.262 21.1493 283.36 20.9438H285.057C285.155 21.1735 285.278 21.3367 285.426 21.4335C285.573 21.5423 285.782 21.5967 286.053 21.5967ZM283.305 24.4078L283.379 22.9388H285.002L285.131 24.4078H283.305ZM283.231 19.8737C283.231 19.6078 283.324 19.4083 283.508 19.2753C283.692 19.1543 283.926 19.0939 284.209 19.0939C284.528 19.0939 284.774 19.1604 284.946 19.2934C285.118 19.4264 285.204 19.6198 285.204 19.8737C285.204 20.1518 285.118 20.3513 284.946 20.4722C284.762 20.5931 284.516 20.6536 284.209 20.6536C283.914 20.6536 283.68 20.5871 283.508 20.4541C283.324 20.3332 283.231 20.1397 283.231 19.8737Z" fill="#FF5858"/>
<path d="M285.918 15.9427C285.402 15.9427 284.903 15.8716 284.424 15.7293C283.956 15.5989 283.47 15.3559 282.966 15.0003C282.474 14.6447 281.932 14.1469 281.342 13.5068C281.071 13.2104 280.85 12.9911 280.677 12.8489C280.517 12.6948 280.382 12.5941 280.271 12.5466C280.161 12.4874 280.038 12.4577 279.902 12.4577C279.742 12.4577 279.595 12.5229 279.459 12.6533C279.324 12.7837 279.256 12.9615 279.256 13.1867C279.256 13.4831 279.324 13.7972 279.459 14.1291C279.607 14.461 279.816 14.8166 280.087 15.1959L277.503 15.9605C277.282 15.5456 277.091 15.107 276.931 14.6447C276.783 14.1706 276.71 13.6609 276.71 13.1156C276.71 12.5703 276.845 12.0903 277.116 11.6754C277.386 11.2487 277.755 10.9168 278.223 10.6797C278.703 10.4308 279.244 10.3063 279.847 10.3063C280.413 10.3063 280.911 10.3893 281.342 10.5552C281.772 10.7212 282.172 10.9583 282.541 11.2665C282.923 11.5746 283.31 11.9421 283.704 12.3688C284.061 12.7363 284.362 13.0267 284.608 13.2401C284.854 13.4416 285.088 13.5838 285.309 13.6668C285.543 13.7498 285.795 13.7913 286.066 13.7913C286.411 13.7913 286.7 13.6727 286.933 13.4357C287.167 13.1986 287.284 12.843 287.284 12.3688C287.284 11.8117 287.155 11.3198 286.897 10.8931C286.638 10.4663 286.3 10.087 285.882 9.75513C285.463 9.41138 285.02 9.09726 284.553 8.81277L286.011 6.83916C286.737 7.21847 287.389 7.6689 287.967 8.19046C288.545 8.71202 289 9.30469 289.333 9.96849C289.677 10.6204 289.849 11.3554 289.849 12.1733C289.849 12.9319 289.695 13.5957 289.388 14.1646C289.093 14.7218 288.65 15.1604 288.059 15.4804C287.481 15.7886 286.767 15.9427 285.918 15.9427ZM280.419 8.68831C279.841 8.68831 279.33 8.59941 278.887 8.42161C278.444 8.23195 278.069 7.92968 277.761 7.51481C277.454 7.08808 277.214 6.51318 277.042 5.79012L279.552 5.1678C279.687 5.77234 279.835 6.20499 279.995 6.46577C280.154 6.71469 280.376 6.83916 280.659 6.83916C280.843 6.83916 281.028 6.77396 281.213 6.64357C281.397 6.51318 281.643 6.26426 281.951 5.8968L282.726 4.95444C283.156 4.43288 283.562 4.02394 283.944 3.7276C284.325 3.4194 284.737 3.19419 285.18 3.05194C285.635 2.9097 286.177 2.83265 286.804 2.8208L286.952 4.88332C286.534 4.90703 286.171 4.97815 285.863 5.09668C285.568 5.20336 285.297 5.35746 285.051 5.55897C284.805 5.76048 284.547 6.02719 284.276 6.35909L283.667 7.08808C283.433 7.37256 283.156 7.63927 282.837 7.8882C282.517 8.12527 282.154 8.32085 281.748 8.47495C281.354 8.61719 280.911 8.68831 280.419 8.68831Z" fill="#FF5858"/>
<path d="M265.447 12.6948C265.447 11.8885 265.639 11.1654 266.024 10.5255C266.409 9.88557 266.954 9.38003 267.659 9.00888C268.364 8.63772 269.204 8.45215 270.178 8.45215C271.165 8.45215 272.005 8.63772 272.698 9.00888C273.39 9.38003 273.916 9.88557 274.275 10.5255C274.647 11.1654 274.832 11.8885 274.832 12.6948C274.832 13.5011 274.647 14.2242 274.275 14.8641C273.903 15.4913 273.364 15.9904 272.659 16.3615C271.967 16.7199 271.127 16.8991 270.14 16.8991C269.165 16.8991 268.325 16.7135 267.62 16.3423C266.915 15.9712 266.377 15.4721 266.005 14.8449C265.633 14.205 265.447 13.4883 265.447 12.6948ZM268.024 12.6756C268.024 13.2643 268.197 13.7635 268.543 14.173C268.902 14.5698 269.435 14.7681 270.14 14.7681C270.614 14.7681 271.005 14.6786 271.313 14.4994C271.621 14.3074 271.851 14.0514 272.005 13.7315C272.172 13.4115 272.255 13.0596 272.255 12.6756C272.255 12.0869 272.069 11.5941 271.698 11.1974C271.339 10.7879 270.819 10.5831 270.14 10.5831C269.691 10.5831 269.306 10.6791 268.986 10.871C268.678 11.0502 268.441 11.2998 268.274 11.6197C268.108 11.9269 268.024 12.2789 268.024 12.6756Z" fill="#FF5858"/>
<path d="M258.701 15.9427C258.184 15.9427 257.686 15.8716 257.206 15.7293C256.738 15.5989 256.252 15.3559 255.748 15.0003C255.256 14.6447 254.714 14.1469 254.124 13.5068C253.853 13.2104 253.632 12.9911 253.459 12.8489C253.299 12.6948 253.164 12.5941 253.053 12.5466C252.943 12.4874 252.82 12.4577 252.684 12.4577C252.524 12.4577 252.377 12.5229 252.241 12.6533C252.106 12.7837 252.038 12.9615 252.038 13.1867C252.038 13.4831 252.106 13.7972 252.241 14.1291C252.389 14.461 252.598 14.8166 252.869 15.1959L250.285 15.9605C250.064 15.5456 249.873 15.107 249.713 14.6447C249.566 14.1706 249.492 13.6609 249.492 13.1156C249.492 12.5703 249.627 12.0903 249.898 11.6754C250.168 11.2487 250.537 10.9168 251.005 10.6797C251.485 10.4308 252.026 10.3063 252.629 10.3063C253.195 10.3063 253.693 10.3893 254.124 10.5552C254.554 10.7212 254.954 10.9583 255.323 11.2665C255.705 11.5746 256.092 11.9421 256.486 12.3688C256.843 12.7363 257.144 13.0267 257.39 13.2401C257.636 13.4416 257.87 13.5838 258.092 13.6668C258.325 13.7498 258.578 13.7913 258.848 13.7913C259.193 13.7913 259.482 13.6727 259.716 13.4357C259.949 13.1986 260.066 12.843 260.066 12.3688C260.066 11.8117 259.937 11.3198 259.679 10.8931C259.42 10.4663 259.082 10.087 258.664 9.75513C258.245 9.41138 257.802 9.09726 257.335 8.81277L258.793 6.83916C259.519 7.21847 260.171 7.6689 260.749 8.19046C261.327 8.71202 261.782 9.30469 262.115 9.96849C262.459 10.6204 262.631 11.3554 262.631 12.1733C262.631 12.9319 262.478 13.5957 262.17 14.1646C261.875 14.7218 261.432 15.1604 260.841 15.4804C260.263 15.7886 259.549 15.9427 258.701 15.9427ZM253.201 8.68831C252.623 8.68831 252.112 8.59941 251.669 8.42161C251.226 8.23195 250.851 7.92968 250.544 7.51481C250.236 7.08808 249.996 6.51318 249.824 5.79012L252.334 5.1678C252.469 5.77234 252.617 6.20499 252.777 6.46577C252.937 6.71469 253.158 6.83916 253.441 6.83916C253.626 6.83916 253.81 6.77396 253.995 6.64357C254.179 6.51318 254.425 6.26426 254.733 5.8968L255.508 4.95444C255.939 4.43288 256.344 4.02394 256.726 3.7276C257.107 3.4194 257.519 3.19419 257.962 3.05194C258.418 2.9097 258.959 2.83265 259.586 2.8208L259.734 4.88332C259.316 4.90703 258.953 4.97815 258.645 5.09668C258.35 5.20336 258.079 5.35746 257.833 5.55897C257.587 5.76048 257.329 6.02719 257.058 6.35909L256.449 7.08808C256.215 7.37256 255.939 7.63927 255.619 7.8882C255.299 8.12527 254.936 8.32085 254.53 8.47495C254.136 8.61719 253.693 8.68831 253.201 8.68831Z" fill="#FF5858"/>
<path d="M230.572 15.9607C229.779 15.9607 229.141 15.8324 228.658 15.5757C228.187 15.3069 227.846 14.9647 227.636 14.5492C227.437 14.1337 227.338 13.6937 227.338 13.2294C227.338 12.6305 227.474 12.1356 227.747 11.7445C228.02 11.3535 228.379 11.0663 228.825 10.883C229.283 10.6875 229.767 10.5897 230.275 10.5897C230.919 10.5897 231.458 10.6997 231.892 10.9196C232.338 11.1274 232.703 11.3779 232.988 11.6712C233.285 11.9523 233.521 12.2028 233.694 12.4228L232.746 14.2925C232.61 13.9626 232.443 13.651 232.245 13.3577C232.059 13.0644 231.836 12.8261 231.576 12.6428C231.315 12.4472 231.006 12.3495 230.646 12.3495C230.374 12.3495 230.126 12.4228 229.903 12.5694C229.68 12.7161 229.568 12.9483 229.568 13.266C229.568 13.5471 229.661 13.7671 229.847 13.9259C230.033 14.0848 230.281 14.1642 230.591 14.1642C230.999 14.1642 231.322 14.0542 231.557 13.8343C231.805 13.6143 231.978 13.321 232.077 12.9544C232.177 12.5878 232.226 12.1906 232.226 11.7629V11.3046C232.226 10.8035 232.158 10.3514 232.022 9.9481C231.885 9.54482 231.669 9.22708 231.371 8.99489C231.086 8.76269 230.702 8.6466 230.219 8.6466C229.922 8.6466 229.649 8.71381 229.401 8.84824C229.166 8.97045 228.967 9.14154 228.806 9.36151C228.645 9.58148 228.528 9.83811 228.453 10.1314H226.056C225.994 9.93588 225.882 9.72202 225.721 9.48983C225.573 9.24541 225.35 9.03766 225.052 8.86657C224.755 8.68326 224.346 8.59161 223.826 8.59161C223.392 8.59161 223.039 8.66493 222.766 8.81158C222.506 8.94601 222.376 9.17209 222.376 9.48983C222.376 9.61203 222.395 9.72813 222.432 9.83811C222.481 9.93588 222.568 10.0214 222.692 10.0947C222.803 10.1559 222.946 10.2108 223.119 10.2597C223.305 10.2964 223.59 10.3147 223.974 10.3147H225.071V12.2211H223.919C223.534 12.2211 223.237 12.2395 223.026 12.2761C222.816 12.3128 222.649 12.38 222.525 12.4778C222.438 12.5511 222.364 12.6428 222.302 12.7527C222.252 12.8505 222.227 12.9666 222.227 13.101C222.227 13.3454 222.308 13.5471 222.469 13.706C222.642 13.8648 222.921 13.9443 223.305 13.9443C223.714 13.9443 224.08 13.8404 224.402 13.6326C224.736 13.4249 225.058 13.1499 225.368 12.8077L226.966 14.2009C226.632 14.5797 226.266 14.9036 225.87 15.1724C225.486 15.4291 225.058 15.6246 224.588 15.759C224.117 15.8935 223.578 15.9607 222.971 15.9607C221.806 15.9607 220.926 15.7224 220.332 15.2458C219.749 14.7569 219.458 14.1581 219.458 13.4493C219.458 13.1071 219.526 12.7894 219.663 12.4961C219.799 12.1906 220.009 11.9278 220.294 11.7079C220.592 11.4757 220.964 11.2924 221.41 11.1579L221.391 11.3962C220.784 11.1763 220.332 10.8891 220.034 10.5347C219.749 10.1681 219.607 9.73424 219.607 9.23319C219.607 8.78103 219.768 8.39607 220.09 8.07834C220.425 7.74838 220.883 7.49174 221.465 7.30843C222.048 7.12512 222.717 7.03347 223.472 7.03347C224.142 7.03347 224.699 7.1129 225.145 7.27177C225.604 7.41842 226.006 7.63839 226.353 7.93169C226.713 8.21276 227.084 8.56105 227.468 8.97656L227.041 8.99489C227.338 8.57939 227.66 8.24332 228.007 7.98668C228.354 7.71783 228.726 7.5223 229.122 7.40009C229.531 7.26566 229.959 7.19845 230.405 7.19845C231.346 7.19845 232.133 7.36343 232.765 7.69339C233.397 8.02334 233.874 8.50606 234.196 9.14154C234.518 9.77701 234.679 10.553 234.679 11.4696C234.679 12.3739 234.531 13.1682 234.233 13.8526C233.936 14.5247 233.484 15.0441 232.877 15.4107C232.269 15.7774 231.501 15.9607 230.572 15.9607ZM238.991 12.3678C238.421 12.3678 237.95 12.2822 237.579 12.1112C237.207 11.9401 236.916 11.7262 236.705 11.4696C236.494 11.2007 236.346 10.9196 236.259 10.6263C236.172 10.3331 236.129 10.0642 236.129 9.81978C236.129 9.31874 236.209 8.90934 236.371 8.59161C236.532 8.27387 236.699 7.98057 236.872 7.71172L238.88 7.85837C238.607 8.115 238.39 8.36552 238.229 8.60994C238.068 8.85435 237.987 9.16598 237.987 9.54482C237.987 9.85033 238.08 10.1009 238.266 10.2964C238.464 10.4919 238.712 10.5897 239.01 10.5897C239.369 10.5897 239.635 10.5041 239.809 10.3331C239.995 10.1497 240.088 9.92366 240.088 9.6548C240.088 9.28818 239.933 9.03155 239.623 8.8849C239.326 8.72603 238.923 8.6466 238.415 8.6466H225.777L224.513 8.15166L222.227 8.6466H219.663V6.5752H236.817C237.572 6.5752 238.198 6.59964 238.694 6.64852C239.202 6.68518 239.629 6.75851 239.976 6.86849C240.335 6.97848 240.664 7.14957 240.961 7.38176C241.271 7.61395 241.519 7.90725 241.704 8.26165C241.89 8.61605 241.983 9.0621 241.983 9.59981C241.983 10.3942 241.717 11.0541 241.184 11.5796C240.664 12.105 239.933 12.3678 238.991 12.3678Z" fill="#FF5858"/>
<path d="M207.406 15.9607C206.804 15.9607 206.271 15.8751 205.807 15.704C205.343 15.5329 204.873 15.2458 204.397 14.8425C203.933 14.427 203.375 13.8648 202.723 13.156C202.372 12.765 202.096 12.4961 201.896 12.3495C201.695 12.1906 201.463 12.1112 201.2 12.1112C201 12.1112 200.799 12.1906 200.598 12.3495C200.41 12.4961 200.316 12.7283 200.316 13.046C200.316 13.4249 200.417 13.6876 200.617 13.8343C200.83 13.9809 201.075 14.0542 201.351 14.0542C201.651 14.0542 201.952 13.932 202.253 13.6876C202.554 13.4432 202.767 13.0399 202.893 12.4778L204.453 14.0909C204.203 14.4331 203.939 14.7508 203.664 15.0441C203.4 15.3252 203.068 15.5513 202.667 15.7224C202.266 15.8812 201.727 15.9607 201.05 15.9607C200.31 15.9607 199.702 15.8262 199.226 15.5574C198.762 15.2763 198.417 14.9158 198.191 14.4759C197.978 14.0237 197.872 13.5532 197.872 13.0644C197.872 12.4778 198.016 11.9706 198.304 11.5429C198.592 11.103 198.987 10.7608 199.489 10.5164C199.99 10.2719 200.554 10.1497 201.181 10.1497C201.708 10.1497 202.172 10.217 202.573 10.3514C202.974 10.4858 203.363 10.7058 203.739 11.0113C204.127 11.3168 204.554 11.7201 205.018 12.2211C205.419 12.6489 205.751 12.9727 206.014 13.1927C206.277 13.4127 206.516 13.5593 206.729 13.6326C206.942 13.706 207.161 13.7426 207.387 13.7426C207.788 13.7426 208.108 13.6204 208.346 13.376C208.584 13.1316 208.703 12.7405 208.703 12.2028C208.703 11.5796 208.534 11.0113 208.196 10.498C207.857 9.98476 207.393 9.54482 206.804 9.1782C206.215 8.81158 205.544 8.54883 204.792 8.38996L209.286 8.31664C209.7 8.5855 210.057 8.90934 210.358 9.28818C210.672 9.6548 210.91 10.0703 211.073 10.5347C211.236 10.9869 211.317 11.4818 211.317 12.0195C211.317 12.8138 211.167 13.5104 210.866 14.1092C210.565 14.6958 210.12 15.1541 209.531 15.4841C208.954 15.8018 208.246 15.9607 207.406 15.9607ZM215.511 12.3678C214.934 12.3678 214.458 12.2822 214.082 12.1112C213.706 11.9401 213.411 11.7262 213.198 11.4696C212.985 11.2007 212.834 10.9196 212.746 10.6263C212.659 10.3331 212.615 10.0642 212.615 9.81978C212.615 9.31874 212.696 8.90934 212.859 8.59161C213.022 8.27387 213.192 7.98057 213.367 7.71172L215.379 7.85837C215.116 8.115 214.903 8.36552 214.74 8.60994C214.577 8.85435 214.495 9.16598 214.495 9.54482C214.495 9.85033 214.589 10.1009 214.777 10.2964C214.978 10.4919 215.229 10.5897 215.53 10.5897C215.893 10.5897 216.163 10.5041 216.338 10.3331C216.514 10.1497 216.602 9.92366 216.602 9.6548C216.602 9.28818 216.451 9.03155 216.15 8.8849C215.849 8.72603 215.448 8.6466 214.947 8.6466H199.865V6.5752H213.311C214.075 6.5752 214.708 6.59964 215.21 6.64852C215.711 6.68518 216.138 6.75851 216.489 6.86849C216.852 6.97848 217.184 7.14957 217.485 7.38176C217.811 7.61395 218.062 7.90725 218.238 8.26165C218.426 8.61605 218.52 9.0621 218.52 9.59981C218.52 10.3942 218.256 11.0541 217.73 11.5796C217.203 12.105 216.464 12.3678 215.511 12.3678Z" fill="#FF5858"/>
<path d="M184.732 11.545C184.732 10.6666 184.935 9.87729 185.341 9.17698C185.747 8.4648 186.343 7.901 187.129 7.48556C187.928 7.05825 188.905 6.8446 190.059 6.8446C191.226 6.8446 192.202 7.04638 192.989 7.44995C193.775 7.84165 194.365 8.38765 194.758 9.08796C195.164 9.78826 195.367 10.6013 195.367 11.5272C195.367 12.3936 195.17 13.1652 194.777 13.8417C194.384 14.5064 193.794 15.0287 193.008 15.4085C192.221 15.7765 191.238 15.9605 190.059 15.9605C188.879 15.9605 187.89 15.7706 187.091 15.3907C186.305 15.0109 185.715 14.4886 185.322 13.8239C184.929 13.1592 184.732 12.3996 184.732 11.545ZM187.376 11.3135C187.376 12.0376 187.598 12.637 188.042 13.1118C188.499 13.5747 189.171 13.8061 190.059 13.8061C190.655 13.8061 191.15 13.7052 191.543 13.5035C191.936 13.2898 192.234 13.0049 192.437 12.6488C192.64 12.2809 192.741 11.8654 192.741 11.4025C192.741 10.9277 192.64 10.5004 192.437 10.1206C192.247 9.74079 191.949 9.43811 191.543 9.21259C191.15 8.9752 190.655 8.8565 190.059 8.8565C189.45 8.8565 188.949 8.96926 188.556 9.19478C188.163 9.42031 187.865 9.72298 187.662 10.1028C187.471 10.4708 187.376 10.8743 187.376 11.3135ZM189.26 8.69626C188.664 8.69626 188.137 8.60724 187.681 8.42919C187.224 8.23928 186.837 7.9366 186.52 7.52117C186.203 7.09386 185.956 6.51819 185.778 5.79414L188.366 5.17098C188.505 5.77633 188.657 6.20957 188.822 6.47071C188.987 6.71997 189.215 6.8446 189.507 6.8446C189.697 6.8446 189.888 6.77932 190.078 6.64875C190.268 6.51819 190.522 6.26892 190.839 5.90097L191.638 4.95733C192.082 4.43507 192.5 4.02557 192.893 3.72883C193.287 3.42022 193.712 3.19469 194.168 3.05226C194.637 2.90982 195.195 2.83267 195.842 2.8208L195.995 4.88611C195.563 4.90985 195.189 4.98107 194.872 5.09977C194.568 5.20659 194.289 5.3609 194.035 5.56268C193.781 5.76447 193.515 6.03153 193.236 6.36388L192.608 7.09386C192.367 7.37873 192.082 7.6458 191.752 7.89506C191.422 8.13245 191.048 8.3283 190.63 8.48261C190.224 8.62504 189.767 8.69626 189.26 8.69626Z" fill="#FF5858"/>
<path d="M166.153 23.4692C165.354 23.4692 164.74 23.3814 164.309 23.2057C163.878 23.03 163.497 22.7916 163.168 22.4904H163.282C162.927 22.8794 162.566 23.1367 162.198 23.2622C161.818 23.4002 161.381 23.4692 160.886 23.4692C160.405 23.4692 159.98 23.3563 159.612 23.1304C159.245 22.9171 158.96 22.6033 158.757 22.1892C158.554 21.775 158.453 21.2793 158.453 20.702C158.453 19.949 158.662 19.2839 159.08 18.7066C159.486 18.1418 160.075 17.6963 160.848 17.37C161.621 17.0563 162.534 16.8994 163.586 16.8994C164.461 16.8994 165.221 16.9559 165.868 17.0688C166.501 17.1818 167.173 17.3575 167.883 17.5959L167.142 19.2902C166.647 19.1019 166.216 18.9576 165.849 18.8572C165.468 18.7568 165.107 18.6878 164.765 18.6501C164.41 18.6125 164.023 18.5936 163.605 18.5936C162.895 18.5936 162.312 18.6878 161.856 18.876C161.4 19.0768 161.07 19.3341 160.867 19.6478C160.652 19.9616 160.544 20.313 160.544 20.702C160.544 21.0283 160.62 21.2856 160.772 21.4738C160.912 21.6746 161.121 21.775 161.4 21.775C161.653 21.775 161.869 21.6809 162.046 21.4927C162.211 21.317 162.312 21.0722 162.35 20.7585H164.176C164.201 20.9718 164.252 21.1601 164.328 21.3232C164.404 21.4864 164.524 21.6119 164.689 21.6997C164.854 21.7876 165.082 21.8315 165.373 21.8315C165.513 21.844 165.665 21.8566 165.83 21.8691C165.982 21.8942 166.147 21.9068 166.324 21.9068C166.577 21.9068 166.78 21.8629 166.932 21.775C167.072 21.6997 167.142 21.5742 167.142 21.3985C167.142 21.273 167.097 21.1726 167.008 21.0973C166.907 21.022 166.768 20.9844 166.59 20.9844C166.425 20.9844 166.292 21.0346 166.191 21.135C166.077 21.2354 166.02 21.3923 166.02 21.6056C166.02 21.7687 166.064 21.9131 166.153 22.0386C166.229 22.1766 166.337 22.3021 166.476 22.4151L165.069 22.7727C164.917 22.5594 164.809 22.3147 164.746 22.0386C164.67 21.7625 164.632 21.5429 164.632 21.3797C164.632 20.8275 164.809 20.3757 165.164 20.0243C165.506 19.6729 166.007 19.4972 166.666 19.4972C167.3 19.4972 167.813 19.6729 168.206 20.0243C168.587 20.3883 168.777 20.8338 168.777 21.3609C168.777 21.7123 168.701 22.0448 168.549 22.3586C168.384 22.6849 168.111 22.9484 167.731 23.1492C167.351 23.3626 166.825 23.4692 166.153 23.4692Z" fill="#FF5858"/>
<path d="M172.206 15.9607C171.231 15.9607 170.41 15.7468 169.743 15.3191C169.076 14.8914 168.441 14.3537 167.838 13.706L169.32 12.1295C169.589 12.4228 169.871 12.6916 170.166 12.9361C170.448 13.1805 170.756 13.376 171.09 13.5226C171.436 13.6693 171.808 13.7426 172.206 13.7426C172.655 13.7426 173.001 13.6204 173.245 13.376C173.489 13.1316 173.61 12.765 173.61 12.2761C173.61 11.7018 173.476 11.1946 173.206 10.7547C172.937 10.3147 172.584 9.92366 172.148 9.58148C171.712 9.22708 171.25 8.90323 170.763 8.60994L172.283 6.5752C173.04 6.96626 173.719 7.43064 174.322 7.96835C174.925 8.50606 175.4 9.11709 175.746 9.80145C176.105 10.4736 176.285 11.2313 176.285 12.0745C176.285 13.2477 175.939 14.1887 175.246 14.8975C174.553 15.6063 173.54 15.9607 172.206 15.9607Z" fill="#FF5858"/>
<path d="M165.196 15.9605C164.48 15.9605 163.87 15.8952 163.368 15.7646C162.865 15.6459 162.438 15.4738 162.086 15.2483C161.734 15.0109 161.42 14.7379 161.144 14.4293L161.276 14.4471C160.974 14.8625 160.654 15.183 160.315 15.4085C159.988 15.6222 159.636 15.7646 159.259 15.8358C158.895 15.9189 158.486 15.9605 158.034 15.9605C157.042 15.9605 156.237 15.6281 155.622 14.9634C155.006 14.2987 154.698 13.3551 154.698 12.1325C154.698 10.993 154.994 10.0316 155.584 9.2482C156.175 8.45293 157.01 7.85352 158.091 7.44995C159.171 7.04638 160.434 6.8446 161.879 6.8446C162.645 6.8446 163.343 6.88614 163.971 6.96923C164.599 7.05232 165.208 7.17695 165.799 7.34312C166.389 7.49743 167.011 7.69921 167.665 7.94847L166.515 9.94257C165.837 9.6577 165.24 9.43811 164.725 9.28381C164.222 9.1295 163.738 9.02267 163.273 8.96333C162.809 8.89211 162.3 8.8565 161.747 8.8565C160.717 8.8565 159.875 8.99894 159.221 9.28381C158.568 9.55681 158.084 9.9307 157.77 10.4055C157.469 10.8684 157.318 11.3847 157.318 11.9545C157.318 12.6192 157.431 13.094 157.657 13.3788C157.883 13.6637 158.198 13.8061 158.6 13.8061C159.014 13.8061 159.347 13.6637 159.598 13.3788C159.862 13.094 160.019 12.6963 160.07 12.1859H162.388C162.425 12.6488 162.57 13.0227 162.821 13.3076C163.085 13.5925 163.525 13.7765 164.14 13.8595C164.329 13.8952 164.536 13.9248 164.762 13.9486C165.001 13.9604 165.252 13.9664 165.516 13.9664C165.868 13.9664 166.144 13.9011 166.345 13.7705C166.546 13.64 166.647 13.4263 166.647 13.1296C166.647 12.9278 166.572 12.7616 166.421 12.631C166.283 12.5005 166.088 12.4352 165.837 12.4352C165.598 12.4352 165.391 12.5005 165.215 12.631C165.051 12.7616 164.97 12.9753 164.97 13.272C164.97 13.4857 165.026 13.6874 165.139 13.8773C165.252 14.0554 165.409 14.2156 165.61 14.3581L163.782 14.8566C163.569 14.5717 163.405 14.2453 163.292 13.8773C163.192 13.4975 163.142 13.1948 163.142 12.9693C163.142 12.2453 163.38 11.6637 163.858 11.2245C164.348 10.7734 165.032 10.5479 165.912 10.5479C166.49 10.5479 166.992 10.6607 167.42 10.8862C167.847 11.1117 168.18 11.4203 168.418 11.812C168.657 12.1919 168.777 12.6192 168.777 13.094C168.777 13.45 168.714 13.8002 168.588 14.1444C168.475 14.4886 168.28 14.7972 168.004 15.0702C167.74 15.3432 167.376 15.5628 166.911 15.729C166.446 15.8833 165.874 15.9605 165.196 15.9605ZM161.2 8.69626C160.61 8.69626 160.088 8.60724 159.636 8.42919C159.184 8.23928 158.801 7.9366 158.486 7.52117C158.172 7.09386 157.927 6.51819 157.751 5.79414L160.315 5.17098C160.453 5.77633 160.604 6.20957 160.767 6.47071C160.93 6.71997 161.156 6.8446 161.445 6.8446C161.634 6.8446 161.822 6.77932 162.011 6.64875C162.199 6.51819 162.45 6.26892 162.765 5.90097L163.556 4.95733C163.996 4.43507 164.411 4.02557 164.8 3.72883C165.189 3.42022 165.61 3.19469 166.063 3.05226C166.528 2.90982 167.08 2.83267 167.721 2.8208L167.872 4.88611C167.445 4.90985 167.074 4.98107 166.76 5.09977C166.458 5.20659 166.182 5.3609 165.931 5.56268C165.679 5.76447 165.416 6.03153 165.139 6.36388L164.517 7.09386C164.279 7.37873 163.996 7.6458 163.669 7.89506C163.343 8.13245 162.972 8.3283 162.557 8.48261C162.155 8.62504 161.703 8.69626 161.2 8.69626Z" fill="#FF5858"/>
<path d="M138.743 11.4591C138.743 10.5636 138.947 9.75886 139.354 9.0449C139.761 8.31883 140.359 7.74403 141.148 7.32049C141.95 6.88485 142.93 6.66703 144.088 6.66703C145.259 6.66703 146.239 6.87275 147.028 7.28419C147.817 7.68352 148.408 8.24017 148.803 8.95414C149.21 9.6681 149.414 10.497 149.414 11.4409C149.414 12.3243 149.217 13.1109 148.822 13.8006C148.428 14.4783 147.836 15.0107 147.047 15.398C146.258 15.7731 145.272 15.9607 144.088 15.9607C142.904 15.9607 141.912 15.7671 141.11 15.3798C140.321 14.9926 139.729 14.4601 139.335 13.7825C138.94 13.1048 138.743 12.3303 138.743 11.4591ZM141.396 11.2231C141.396 11.9613 141.619 12.5724 142.065 13.0564C142.523 13.5284 143.197 13.7643 144.088 13.7643C144.686 13.7643 145.182 13.6615 145.577 13.4557C145.971 13.2379 146.271 12.9475 146.474 12.5845C146.678 12.2093 146.78 11.7858 146.78 11.3139C146.78 10.8298 146.678 10.3942 146.474 10.0069C146.283 9.6197 145.984 9.31112 145.577 9.0812C145.182 8.83918 144.686 8.71817 144.088 8.71817C143.477 8.71817 142.974 8.83313 142.58 9.06305C142.185 9.29297 141.886 9.60155 141.683 9.98878C141.492 10.3639 141.396 10.7754 141.396 11.2231ZM151.934 8.48219C151.348 8.48219 150.865 8.39749 150.483 8.22807C150.101 8.05866 149.796 7.84689 149.567 7.59276C149.35 7.32654 149.198 7.04821 149.108 6.75779C149.019 6.46736 148.975 6.20719 148.975 5.97727C148.975 5.48112 149.058 5.07573 149.223 4.76111C149.401 4.43438 149.579 4.14395 149.757 3.88983L151.8 4.01689C151.52 4.27101 151.297 4.51908 151.132 4.76111C150.966 5.00313 150.884 5.31171 150.884 5.68684C150.884 5.98937 150.979 6.23744 151.17 6.43106C151.374 6.62468 151.635 6.72148 151.953 6.72148C152.334 6.72148 152.608 6.63073 152.774 6.44921C152.952 6.26769 153.041 6.04987 153.041 5.79575C153.041 5.44482 152.888 5.19069 152.583 5.03338C152.277 4.87607 151.864 4.79741 151.342 4.79741H148.612C148.179 4.79741 147.842 4.90027 147.6 5.10599C147.359 5.31171 147.206 5.63844 147.142 6.08618H144.813C144.724 5.68684 144.559 5.37221 144.317 5.14229C144.088 4.91237 143.719 4.79741 143.21 4.79741H143C142.72 4.79741 142.478 4.88212 142.275 5.05153C142.071 5.22095 141.969 5.46297 141.969 5.7776C141.969 5.97122 142.014 6.13458 142.103 6.26769C142.205 6.4008 142.345 6.50366 142.523 6.57627C142.701 6.63678 142.904 6.66703 143.134 6.66703H143.783V8.64556H143.286C142.548 8.64556 141.899 8.52455 141.339 8.28253C140.792 8.0284 140.366 7.67142 140.06 7.21158C139.755 6.75174 139.602 6.21324 139.602 5.59608C139.602 4.76111 139.888 4.08344 140.461 3.5631C141.046 3.03065 141.842 2.76442 142.847 2.76442H143.076C143.636 2.76442 144.12 2.84308 144.527 3.0004C144.934 3.14561 145.265 3.34528 145.52 3.5994C145.774 3.85352 145.952 4.1258 146.054 4.41622H145.882C146.035 4.1137 146.232 3.84142 146.474 3.5994C146.716 3.34528 147.047 3.14561 147.467 3.0004C147.887 2.84308 148.434 2.76442 149.108 2.76442H150.254C151.081 2.76442 151.787 2.81283 152.373 2.90964C152.958 2.99434 153.473 3.20006 153.919 3.52679C154.25 3.75671 154.511 4.04714 154.702 4.39807C154.892 4.749 154.988 5.19675 154.988 5.7413C154.988 6.53997 154.721 7.19948 154.186 7.71983C153.652 8.22807 152.901 8.48219 151.934 8.48219ZM152.544 0.00537109C153.359 0.00537109 154.014 0.168736 154.511 0.495466C155.007 0.810095 155.382 1.25784 155.637 1.83869L153.69 2.29248C153.613 2.15937 153.524 2.04441 153.423 1.9476C153.321 1.85079 153.2 1.77818 153.06 1.72978C152.92 1.68137 152.754 1.65717 152.564 1.65717C152.245 1.65717 151.997 1.72978 151.819 1.87499C151.654 2.0081 151.571 2.18357 151.571 2.40139C151.571 2.63131 151.641 2.84308 151.781 3.0367C151.921 3.21821 152.112 3.38158 152.354 3.52679L150.406 4.21656C150.165 4.01084 149.942 3.73856 149.738 3.39973C149.547 3.0488 149.452 2.64946 149.452 2.20172C149.452 1.81449 149.56 1.4575 149.777 1.13077C149.993 0.791942 150.33 0.519668 150.788 0.313949C151.246 0.10823 151.832 0.00537109 152.544 0.00537109Z" fill="#FF5858"/>
<path d="M126.058 6.5752C126.867 6.5752 127.541 6.74311 128.081 7.07895C128.62 7.41479 129.053 7.85858 129.382 8.41031C129.71 8.96204 129.944 9.57375 130.085 10.2454C130.226 10.9051 130.296 11.5708 130.296 12.2425C130.296 13.4539 130.15 14.5933 129.857 15.6608C129.575 16.7283 129.165 17.7238 128.626 18.6474C128.098 19.5829 127.465 20.4465 126.727 21.2381C125.988 22.0417 125.173 22.7854 124.282 23.469L122.788 21.7779C123.491 21.2141 124.153 20.6084 124.775 19.9607C125.408 19.3131 125.959 18.6054 126.428 17.8378C126.908 17.0821 127.283 16.2485 127.553 15.337C127.823 14.4254 127.957 13.4119 127.957 12.2964C127.957 11.8886 127.922 11.4568 127.852 11.0011C127.793 10.5453 127.688 10.1195 127.535 9.72368C127.395 9.32787 127.195 9.00402 126.938 8.75215C126.691 8.50027 126.375 8.37433 125.988 8.37433C125.742 8.37433 125.531 8.44629 125.355 8.59022C125.179 8.73415 125.091 8.92606 125.091 9.16595C125.091 9.40583 125.156 9.59774 125.285 9.74167C125.414 9.8736 125.572 9.96356 125.759 10.0115C125.959 10.0595 126.146 10.0835 126.322 10.0835C126.803 10.0835 127.213 9.95157 127.553 9.68769C127.893 9.41183 128.209 9.11797 128.503 8.80612L129.136 10.6592C128.725 10.9591 128.274 11.2349 127.782 11.4868C127.301 11.7387 126.703 11.8646 125.988 11.8646C125.097 11.8646 124.37 11.6487 123.808 11.217C123.257 10.7852 122.981 10.1135 122.981 9.20193C122.981 8.69817 123.098 8.24839 123.333 7.85258C123.567 7.45677 123.913 7.14492 124.37 6.91703C124.827 6.68914 125.39 6.5752 126.058 6.5752Z" fill="#FF5858"/>
<path d="M116.2 23.4692C115.66 23.4692 115.218 23.3688 114.875 23.1681C114.519 22.9673 114.181 22.6535 113.862 22.2268H114.286C113.991 22.5406 113.715 22.7853 113.458 22.961C113.188 23.1492 112.905 23.281 112.611 23.3563C112.317 23.4316 111.961 23.4692 111.544 23.4692C110.832 23.4692 110.268 23.3124 109.851 22.9986C109.433 22.6849 109.139 22.2833 108.967 21.7938C108.795 21.317 108.71 20.8275 108.71 20.3255C108.71 19.5976 108.857 18.9764 109.151 18.4619C109.433 17.9599 109.82 17.5708 110.311 17.2947C110.801 17.0312 111.353 16.8994 111.967 16.8994C112.728 16.8994 113.304 17.0814 113.697 17.4453C114.077 17.8218 114.267 18.2799 114.267 18.8195C114.267 19.447 114.071 19.9239 113.678 20.2502C113.274 20.5765 112.672 20.7397 111.875 20.7397C111.445 20.7397 111.059 20.6518 110.716 20.4761C110.36 20.313 110.053 20.1122 109.795 19.8737L110.292 18.5936C110.439 18.7944 110.636 18.9827 110.881 19.1584C111.114 19.3341 111.384 19.4219 111.691 19.4219C111.961 19.4219 112.175 19.3717 112.335 19.2713C112.482 19.1835 112.556 19.0392 112.556 18.8384C112.556 18.7003 112.513 18.5685 112.427 18.443C112.329 18.3301 112.175 18.2736 111.967 18.2736C111.636 18.2736 111.335 18.4117 111.065 18.6878C110.795 18.9639 110.66 19.4533 110.66 20.1561V20.3632C110.66 20.6769 110.703 20.9405 110.789 21.1538C110.863 21.3672 110.992 21.524 111.176 21.6244C111.347 21.7248 111.568 21.775 111.838 21.775C112.317 21.775 112.648 21.6621 112.832 21.4362C113.004 21.2228 113.108 20.9969 113.145 20.7585H114.93C114.991 21.2103 115.132 21.4927 115.353 21.6056C115.562 21.7185 115.801 21.775 116.071 21.775C116.39 21.775 116.623 21.6809 116.77 21.4927C116.905 21.3044 116.972 21.0848 116.972 20.8338C116.972 20.3192 116.782 19.8863 116.402 19.5349C116.022 19.1835 115.592 18.8697 115.114 18.5936L116.292 16.8994C116.807 17.163 117.273 17.483 117.69 17.8595C118.107 18.236 118.439 18.6627 118.684 19.1396C118.917 19.6165 119.034 20.1498 119.034 20.7397C119.034 21.5554 118.794 22.2143 118.316 22.7163C117.825 23.2183 117.12 23.4692 116.2 23.4692Z" fill="#FF5858"/>
<path d="M116.433 16.4335C115.827 16.4335 115.291 16.3475 114.824 16.1753C114.357 16.0031 113.883 15.7142 113.404 15.3084C112.936 14.8903 112.375 14.3246 111.718 13.6114C111.365 13.2179 111.087 12.9473 110.885 12.7998C110.683 12.6399 110.449 12.56 110.184 12.56C109.982 12.56 109.78 12.6399 109.578 12.7998C109.389 12.9473 109.294 13.181 109.294 13.5007C109.294 13.8819 109.395 14.1463 109.597 14.2939C109.812 14.4414 110.058 14.5152 110.336 14.5152C110.639 14.5152 110.942 14.3922 111.245 14.1463C111.548 13.9004 111.762 13.4946 111.889 12.9289L113.46 14.5521C113.208 14.8964 112.943 15.2161 112.665 15.5113C112.4 15.7941 112.065 16.0216 111.661 16.1937C111.257 16.3536 110.715 16.4335 110.033 16.4335C109.288 16.4335 108.676 16.2983 108.196 16.0277C107.729 15.7449 107.382 15.3821 107.154 14.9395C106.94 14.4968 106.833 14.0295 106.833 13.5376C106.833 12.9351 106.978 12.4186 107.268 11.9882C107.558 11.5455 107.956 11.2012 108.461 10.9552C108.966 10.7093 109.534 10.5863 110.165 10.5863C110.696 10.5863 111.163 10.654 111.567 10.7892C111.971 10.9245 112.362 11.1458 112.741 11.4533C113.132 11.7607 113.561 12.1665 114.028 12.6707C114.432 13.1011 114.761 13.4269 115.013 13.6483C115.278 13.8696 115.518 14.0172 115.733 14.091C115.96 14.1647 116.219 14.2016 116.509 14.2016C116.863 14.2016 117.153 14.0787 117.38 13.8327C117.62 13.5868 117.74 13.2179 117.74 12.726C117.74 12.148 117.607 11.6377 117.342 11.195C117.077 10.7523 116.73 10.3588 116.301 10.0145C115.884 9.65791 115.436 9.33204 114.956 9.03691L116.433 6.98947C117.178 7.38297 117.847 7.85026 118.441 8.39132C119.034 8.93239 119.501 9.54724 119.842 10.2359C120.195 10.9122 120.372 11.6746 120.372 12.5231C120.372 13.3101 120.221 13.9987 119.918 14.589C119.615 15.1669 119.167 15.6219 118.573 15.954C117.993 16.2737 117.279 16.4335 116.433 16.4335ZM119.274 18.7761C118.567 18.7761 117.999 18.6654 117.57 18.4441C117.153 18.2227 116.85 17.9338 116.661 17.5772C116.484 17.2205 116.396 16.8393 116.396 16.4335C116.396 16.2737 116.408 16.1077 116.433 15.9355C116.471 15.7634 116.522 15.5973 116.585 15.4375H119.028C118.965 15.5359 118.914 15.6342 118.876 15.7326C118.838 15.8187 118.819 15.9048 118.819 15.9908C118.819 16.1261 118.851 16.2491 118.914 16.3598C118.977 16.4704 119.066 16.5565 119.179 16.618C119.293 16.6795 119.425 16.7102 119.577 16.7102C119.779 16.7102 119.956 16.6733 120.107 16.5995C120.271 16.5381 120.467 16.4274 120.694 16.2675L121.849 17.8907C121.445 18.1859 121.035 18.4072 120.618 18.5548C120.214 18.7023 119.766 18.7761 119.274 18.7761ZM110.639 8.9078C110.045 8.9078 109.522 8.81557 109.067 8.63111C108.613 8.43436 108.228 8.12079 107.912 7.6904C107.596 7.24771 107.35 6.6513 107.173 5.90119L109.749 5.2556C109.888 5.88274 110.039 6.33158 110.203 6.60212C110.367 6.86035 110.595 6.98947 110.885 6.98947C111.074 6.98947 111.264 6.92184 111.453 6.78657C111.642 6.6513 111.895 6.39307 112.211 6.01186L113.006 5.03425C113.448 4.49319 113.864 4.06894 114.256 3.76152C114.647 3.4418 115.07 3.20815 115.524 3.06059C115.992 2.91303 116.547 2.8331 117.191 2.8208L117.342 4.96047C116.913 4.98507 116.541 5.05885 116.225 5.18182C115.922 5.29249 115.644 5.45235 115.392 5.6614C115.139 5.87045 114.874 6.14713 114.597 6.49144L113.972 7.24771C113.732 7.54283 113.448 7.81952 113.119 8.07775C112.791 8.32369 112.419 8.52659 112.002 8.68645C111.598 8.83401 111.144 8.9078 110.639 8.9078Z" fill="#FF5858"/>
<path d="M88.0615 11.4146C88.0615 10.5103 88.2618 9.73424 88.6622 9.08654C89.0626 8.43885 89.6508 7.9378 90.4267 7.5834C91.215 7.229 92.1724 7.0518 93.2986 7.0518C94.4624 7.0518 95.4323 7.21678 96.2081 7.54674C96.984 7.8767 97.5659 8.36552 97.9538 9.01322C98.3543 9.64869 98.5545 10.443 98.5545 11.3962C98.5545 12.2884 98.3605 13.0827 97.9726 13.7793C97.5847 14.4636 96.9965 15.0013 96.2081 15.3924C95.4323 15.7712 94.4624 15.9607 93.2986 15.9607C92.1473 15.9607 91.1775 15.7651 90.3891 15.3741C89.6133 14.983 89.0314 14.4453 88.6434 13.7609C88.2555 13.0766 88.0615 12.2945 88.0615 11.4146ZM90.6707 11.1763C90.6707 11.9217 90.8897 12.5389 91.3277 13.0277C91.7782 13.5043 92.4352 13.7426 93.2986 13.7426C93.8868 13.7426 94.3748 13.6387 94.7628 13.431C95.1632 13.211 95.4573 12.9177 95.645 12.5511C95.8452 12.1723 95.9453 11.7445 95.9453 11.2679C95.9453 10.7791 95.8452 10.3392 95.645 9.9481C95.4573 9.55704 95.1695 9.24541 94.7815 9.01322C94.3936 8.7688 93.8993 8.6466 93.2986 8.6466C92.7105 8.6466 92.2162 8.76269 91.8157 8.99489C91.4278 9.22708 91.14 9.53871 90.9523 9.92977C90.7645 10.3086 90.6707 10.7241 90.6707 11.1763ZM102.891 12.3678C102.315 12.3678 101.839 12.2822 101.464 12.1112C101.089 11.9401 100.788 11.7262 100.563 11.4696C100.35 11.2007 100.2 10.9196 100.112 10.6263C100.025 10.3331 99.9811 10.0642 99.9811 9.81978C99.9811 9.34318 100.062 8.93989 100.225 8.60994C100.4 8.27998 100.575 7.98057 100.751 7.71172L102.759 7.85837C102.484 8.115 102.265 8.36552 102.102 8.60994C101.94 8.85435 101.858 9.16598 101.858 9.54482C101.858 9.85033 101.952 10.1009 102.14 10.2964C102.34 10.4919 102.596 10.5897 102.909 10.5897C103.272 10.5897 103.541 10.5041 103.716 10.3331C103.892 10.1497 103.979 9.92366 103.979 9.6548C103.979 9.28818 103.829 9.03155 103.529 8.8849C103.228 8.72603 102.822 8.6466 102.309 8.6466H88.2305V6.5752H100.694C101.458 6.5752 102.09 6.59964 102.59 6.64852C103.091 6.68518 103.516 6.75851 103.867 6.86849C104.23 6.97848 104.561 7.14957 104.862 7.38176C105.174 7.61395 105.425 7.90725 105.612 8.26165C105.8 8.61605 105.894 9.0621 105.894 9.59981C105.894 10.3942 105.631 11.0541 105.106 11.5796C104.58 12.105 103.842 12.3678 102.891 12.3678Z" fill="#FF5858"/>
<path d="M75.5624 15.9607C74.7801 15.9607 74.1506 15.8324 73.6738 15.5757C73.2093 15.3069 72.8732 14.9647 72.6654 14.5492C72.4698 14.1337 72.372 13.6937 72.372 13.2294C72.372 12.6305 72.5065 12.1356 72.7754 11.7445C73.0443 11.3535 73.3988 11.0663 73.8389 10.883C74.2911 10.6875 74.7679 10.5897 75.269 10.5897C75.9047 10.5897 76.4364 10.6997 76.8642 10.9196C77.3043 11.1274 77.6649 11.3779 77.946 11.6712C78.2394 11.9523 78.4716 12.2028 78.6428 12.4228L77.7076 14.2925C77.5732 13.9626 77.4082 13.651 77.2126 13.3577C77.0292 13.0644 76.8092 12.8261 76.5525 12.6428C76.2958 12.4472 75.9902 12.3495 75.6357 12.3495C75.3668 12.3495 75.1223 12.4228 74.9023 12.5694C74.6823 12.7161 74.5723 12.9483 74.5723 13.266C74.5723 13.5471 74.664 13.7671 74.8473 13.9259C75.0307 14.0848 75.2751 14.1642 75.5807 14.1642C75.9841 14.1642 76.3019 14.0542 76.5342 13.8343C76.7786 13.6143 76.9498 13.321 77.0476 12.9544C77.1454 12.5878 77.1943 12.1906 77.1943 11.7629V11.4146C77.1943 10.9013 77.127 10.4491 76.9926 10.0581C76.8581 9.66702 76.6442 9.36151 76.3508 9.14154C76.0575 8.90934 75.6724 8.79325 75.1957 8.79325C74.9023 8.79325 74.6395 8.85435 74.4073 8.97656C74.175 9.08654 73.9794 9.24541 73.8205 9.45316C73.6738 9.64869 73.5577 9.87478 73.4721 10.1314H71.1069C71.0458 9.93588 70.9357 9.72202 70.7768 9.48983C70.6301 9.24541 70.4101 9.03766 70.1168 8.86657C69.8234 8.68326 69.42 8.59161 68.9066 8.59161C68.4788 8.59161 68.1304 8.66493 67.8615 8.81158C67.6048 8.94601 67.4764 9.17209 67.4764 9.48983C67.4764 9.61203 67.4948 9.72813 67.5315 9.83811C67.5803 9.93588 67.6659 10.0214 67.7881 10.0947C67.8982 10.1559 68.0387 10.2108 68.2099 10.2597C68.3932 10.2964 68.6744 10.3147 69.0533 10.3147H70.1351V12.2211H68.9983C68.6194 12.2211 68.326 12.2395 68.1182 12.2761C67.9104 12.3128 67.7454 12.38 67.6231 12.4778C67.5376 12.5511 67.4642 12.6428 67.4031 12.7527C67.3542 12.8505 67.3298 12.9666 67.3298 13.101C67.3298 13.3454 67.4092 13.5471 67.5681 13.706C67.7393 13.8648 68.0143 13.9443 68.3932 13.9443C68.7966 13.9443 69.1572 13.8404 69.475 13.6326C69.8051 13.4249 70.1229 13.1499 70.4285 12.8077L72.0053 14.2009C71.6753 14.5797 71.3147 14.9036 70.9235 15.1724C70.5446 15.4291 70.1229 15.6246 69.6584 15.759C69.1939 15.8935 68.6621 15.9607 68.0632 15.9607C66.9142 15.9607 66.0463 15.7224 65.4595 15.2458C64.885 14.7569 64.5978 14.1581 64.5978 13.4493C64.5978 13.1071 64.665 12.7894 64.7995 12.4961C64.9339 12.1906 65.1417 11.9278 65.4229 11.7079C65.7162 11.4757 66.0829 11.2924 66.523 11.1579L66.5047 11.3962C65.8935 11.1885 65.4473 10.8769 65.1662 10.4614C64.885 10.0459 64.7445 9.58759 64.7445 9.08654C64.7445 8.32886 65.0745 7.72394 65.7346 7.27177C66.3947 6.80739 67.2686 6.5752 68.3566 6.5752C69.0044 6.5752 69.5545 6.6363 70.0067 6.7585C70.4712 6.86849 70.8991 7.0518 71.2902 7.30843C71.6814 7.55285 72.0787 7.88892 72.482 8.31664L72.097 8.33497C72.3781 7.96835 72.6715 7.65672 72.9771 7.40009C73.2949 7.13124 73.6494 6.92959 74.0406 6.79517C74.4439 6.64852 74.9207 6.5752 75.4707 6.5752C76.3875 6.5752 77.1515 6.78295 77.7627 7.19845C78.3738 7.60173 78.8322 8.16999 79.1378 8.90323C79.4556 9.62425 79.6145 10.4553 79.6145 11.3962C79.6145 12.3617 79.4679 13.1866 79.1745 13.8709C78.8811 14.5431 78.435 15.0625 77.836 15.4291C77.237 15.7835 76.4792 15.9607 75.5624 15.9607Z" fill="#FF5858"/>
<path d="M50.1108 7.03708C51.1743 7.03708 52.0922 7.19104 52.8645 7.49896C53.6368 7.80688 54.2318 8.26877 54.6496 8.88461C55.0674 9.50046 55.2763 10.2641 55.2763 11.1756C55.2763 11.9269 55.2067 12.592 55.0674 13.1709C54.9281 13.7498 54.7509 14.2671 54.5357 14.7228C54.3204 15.1662 54.1052 15.5788 53.89 15.9607L51.3452 15C51.5604 14.7167 51.763 14.4026 51.9529 14.0577C52.1555 13.7005 52.3201 13.3064 52.4467 12.8753C52.5733 12.4442 52.6366 11.9762 52.6366 11.4712C52.6366 10.9908 52.5543 10.5351 52.3897 10.104C52.2251 9.67289 51.9529 9.32802 51.5731 9.06937C51.2059 8.79839 50.6995 8.66291 50.0538 8.66291C49.5347 8.66291 49.0853 8.77992 48.7055 9.01394C48.3383 9.24796 48.0534 9.57436 47.8509 9.99313C47.6483 10.3996 47.547 10.8738 47.547 11.4157C47.547 12.1301 47.6673 12.7891 47.9078 13.3926C48.1484 13.9838 48.4586 14.5134 48.8384 14.9815L46.2746 15.9607C45.8822 15.3079 45.553 14.5935 45.2871 13.8175C45.0212 13.0416 44.8883 12.2225 44.8883 11.3603C44.8883 10.5474 45.0845 9.81454 45.477 9.16174C45.8822 8.50895 46.4709 7.99164 47.2432 7.60981C48.0155 7.22799 48.9713 7.03708 50.1108 7.03708ZM59.6632 12.4134C59.0808 12.4134 58.5997 12.3272 58.2199 12.1547C57.8401 11.9823 57.5425 11.7668 57.3273 11.5081C57.1121 11.2371 56.9602 10.9539 56.8715 10.6582C56.7829 10.3626 56.7386 10.0917 56.7386 9.84533C56.7386 9.36497 56.8209 8.95851 56.9855 8.62596C57.1627 8.2934 57.34 7.99164 57.5172 7.72067L59.5492 7.86847C59.2707 8.12712 59.0491 8.37962 58.8846 8.62596C58.72 8.8723 58.6377 9.18638 58.6377 9.5682C58.6377 9.87612 58.7326 10.1286 58.9225 10.3257C59.1251 10.5228 59.3846 10.6213 59.7012 10.6213C60.0683 10.6213 60.3405 10.5351 60.5178 10.3626C60.695 10.1779 60.7836 9.95002 60.7836 9.67905C60.7836 9.30955 60.6317 9.05089 60.3279 8.90309C60.024 8.74297 59.6189 8.66291 59.1124 8.66291H44.9833V6.5752H57.4602C58.2325 6.5752 58.8719 6.59983 59.3783 6.6491C59.8847 6.68605 60.3152 6.75995 60.6697 6.8708C61.0369 6.98165 61.3724 7.15409 61.6762 7.38811C61.9927 7.62213 62.2459 7.91774 62.4358 8.27493C62.6258 8.63212 62.7207 9.08168 62.7207 9.62363C62.7207 10.4242 62.4485 11.0893 61.9041 11.619C61.3724 12.1486 60.6254 12.4134 59.6632 12.4134Z" fill="#FF5858"/>
<path d="M33.6257 12.6948C33.6257 11.8885 33.8181 11.1654 34.2027 10.5255C34.5874 9.88557 35.1323 9.38003 35.8375 9.00888C36.5427 8.63772 37.3825 8.45215 38.3569 8.45215C39.3442 8.45215 40.184 8.63772 40.8764 9.00888C41.5688 9.38003 42.0945 9.88557 42.4535 10.5255C42.8253 11.1654 43.0112 11.8885 43.0112 12.6948C43.0112 13.5011 42.8253 14.2242 42.4535 14.8641C42.0816 15.4913 41.5431 15.9904 40.8379 16.3615C40.1456 16.7199 39.3057 16.8991 38.3185 16.8991C37.344 16.8991 36.5042 16.7135 35.799 16.3423C35.0938 15.9712 34.5553 15.4721 34.1835 14.8449C33.8116 14.205 33.6257 13.4883 33.6257 12.6948ZM36.2029 12.6756C36.2029 13.2643 36.376 13.7635 36.7222 14.173C37.0812 14.5698 37.6133 14.7681 38.3185 14.7681C38.7929 14.7681 39.1839 14.6786 39.4917 14.4994C39.7994 14.3074 40.0302 14.0514 40.184 13.7315C40.3507 13.4115 40.434 13.0596 40.434 12.6756C40.434 12.0869 40.2481 11.5941 39.8763 11.1974C39.5173 10.7879 38.998 10.5831 38.3185 10.5831C37.8697 10.5831 37.4851 10.6791 37.1645 10.871C36.8568 11.0502 36.6196 11.2998 36.4529 11.6197C36.2862 11.9269 36.2029 12.2789 36.2029 12.6756Z" fill="#FF5858"/>
<path d="M25.1787 15.9607C23.7643 15.9607 22.5669 15.7346 21.5867 15.2824C20.6065 14.818 19.8621 14.1948 19.3533 13.4127C18.857 12.6183 18.6089 11.7262 18.6089 10.7363C18.6089 9.88089 18.7764 9.14154 19.1114 8.51828C19.4588 7.89503 19.9427 7.41842 20.5631 7.08846C21.1835 6.74628 21.8969 6.5752 22.7034 6.5752C23.4479 6.5752 24.0496 6.70962 24.5087 6.97848C24.9678 7.23511 25.3028 7.57118 25.5137 7.98668C25.7247 8.38996 25.8301 8.81158 25.8301 9.25152C25.8301 9.81367 25.706 10.2964 25.4579 10.6997C25.2097 11.103 24.8499 11.4085 24.3784 11.6162C23.9069 11.824 23.33 11.9278 22.6476 11.9278C22.1513 11.9278 21.7108 11.8606 21.3262 11.7262C20.9415 11.5918 20.6065 11.4268 20.3211 11.2313C20.0482 11.0357 19.8186 10.8585 19.6325 10.6997L20.0606 8.97656C20.2095 9.15987 20.3832 9.34318 20.5817 9.52649C20.7926 9.7098 21.0284 9.86256 21.2889 9.98476C21.5495 10.0947 21.8287 10.1497 22.1264 10.1497C22.5111 10.1497 22.8213 10.0825 23.057 9.9481C23.2928 9.80145 23.4106 9.56315 23.4106 9.23319C23.4106 9.02544 23.3362 8.83602 23.1873 8.66493C23.0384 8.48162 22.8213 8.38996 22.5359 8.38996C22.1016 8.38996 21.7418 8.57327 21.4564 8.93989C21.1711 9.29429 21.0284 9.72202 21.0284 10.2231V10.938C21.0284 11.2313 21.0904 11.5429 21.2145 11.8729C21.351 12.1906 21.5743 12.4961 21.8845 12.7894C22.2071 13.0705 22.6414 13.3027 23.1873 13.486C23.7456 13.6571 24.4405 13.7426 25.2718 13.7426C26.4381 13.7426 27.3749 13.5471 28.0821 13.156C28.8017 12.7527 29.1616 12.1234 29.1616 11.2679C29.1616 10.6936 28.9817 10.217 28.6218 9.83811C28.2744 9.44705 27.7285 9.04988 26.984 8.6466L28.4357 6.5752C29.4159 7.0518 30.21 7.68117 30.818 8.46329C31.4384 9.23319 31.7486 10.1803 31.7486 11.3046C31.7486 12.1723 31.5128 12.9605 31.0413 13.6693C30.5822 14.3659 29.8688 14.9219 28.901 15.3374C27.9332 15.7529 26.6924 15.9607 25.1787 15.9607Z" fill="#FF5858"/>
<path d="M14.4532 5.71629C14.4532 6.1439 14.3676 6.54096 14.1962 6.90747C14.0249 7.27399 13.7862 7.5611 13.4803 7.76879C13.1498 8.00092 12.7215 8.1964 12.1952 8.35522C11.6812 8.50183 11.1549 8.57513 10.6164 8.57513H7.62411V6.57761H10.6348C10.9897 6.57761 11.2529 6.55928 11.4242 6.52263C11.6078 6.47376 11.7485 6.40657 11.8464 6.32105C11.9199 6.24774 11.9749 6.16833 12.0116 6.08281C12.0484 5.98507 12.0667 5.88123 12.0667 5.77127C12.0667 5.62466 12.0484 5.50249 12.0116 5.40475C11.9749 5.2948 11.9137 5.20317 11.8281 5.12986C11.7302 5.04434 11.5894 4.98326 11.4058 4.9466C11.2345 4.90995 10.9469 4.89163 10.543 4.89163H3.47522V2.8208H10.3044C11.1733 2.8208 11.8464 2.888 12.3237 3.02239C12.8133 3.14456 13.2355 3.35225 13.5904 3.64547C13.8474 3.86538 14.0555 4.14637 14.2146 4.48846C14.3737 4.83054 14.4532 5.23982 14.4532 5.71629ZM8.00962 15.9605C6.3207 15.9605 4.94385 15.765 3.8791 15.374C2.81434 14.9831 2.03107 14.4333 1.52929 13.7247C1.0275 13.0161 0.776611 12.1975 0.776611 11.269C0.776611 10.5604 0.941832 9.93736 1.27227 9.3998C1.60272 8.86224 2.05554 8.44074 2.63076 8.13531C3.21821 7.82988 3.88522 7.67716 4.63177 7.67716C5.30489 7.67716 5.86787 7.79934 6.3207 8.04368C6.77352 8.27581 7.11621 8.59346 7.34874 8.99663C7.58127 9.3998 7.69754 9.85183 7.69754 10.3527C7.69754 11.208 7.42217 11.8555 6.87143 12.2953C6.3207 12.7229 5.56802 12.9367 4.61341 12.9367C4.17282 12.9367 3.75671 12.8695 3.36508 12.7351C2.98568 12.5885 2.643 12.4114 2.33703 12.2037C2.03107 11.996 1.77406 11.8005 1.566 11.6172L2.19017 10.1328C2.4227 10.4016 2.70419 10.6582 3.03463 10.9025C3.36508 11.1346 3.75671 11.2507 4.20954 11.2507C4.5767 11.2507 4.87654 11.1774 5.10908 11.0308C5.35385 10.8842 5.47623 10.6521 5.47623 10.3344C5.47623 10.0901 5.39668 9.88849 5.23758 9.72966C5.07848 9.57084 4.83983 9.49143 4.52162 9.49143C4.26461 9.49143 4.01984 9.56473 3.78731 9.71134C3.55477 9.84573 3.36508 10.0534 3.21821 10.3344C3.07135 10.6032 2.99792 10.9392 2.99792 11.3423V11.4523C2.99792 11.8188 3.08971 12.1487 3.27329 12.4419C3.4691 12.7351 3.76895 12.9856 4.17282 13.1933C4.5767 13.3887 5.09684 13.5414 5.73324 13.6514C6.36965 13.7491 7.13456 13.798 8.02798 13.798C8.97035 13.798 9.79034 13.7552 10.4879 13.6697C11.1855 13.5842 11.7608 13.4498 12.2136 13.2666C12.6664 13.0711 13.003 12.8145 13.2233 12.4969C13.4558 12.167 13.5721 11.7638 13.5721 11.2874V11.2324C13.5721 10.7437 13.4252 10.3283 13.1315 9.98623C12.8378 9.64414 12.4216 9.4731 11.8831 9.4731C11.6139 9.4731 11.363 9.5464 11.1305 9.69301C10.9102 9.8274 10.8 10.0473 10.8 10.3527C10.8 10.6826 10.9041 10.9147 11.1121 11.0491C11.3202 11.1713 11.5772 11.2324 11.8831 11.2324C12.1891 11.2324 12.4461 11.1713 12.6542 11.0491C12.8622 10.927 13.0397 10.7559 13.1865 10.536C13.3334 10.3039 13.4497 10.0351 13.5353 9.72966L14.545 11.0675C14.288 11.434 14.0249 11.7638 13.7556 12.0571C13.4986 12.338 13.1866 12.558 12.8194 12.7168C12.4522 12.8756 11.9749 12.955 11.3875 12.955C10.9224 12.955 10.4757 12.8817 10.0473 12.7351C9.619 12.5763 9.2702 12.3258 9.00095 11.9837C8.74394 11.6294 8.61543 11.1591 8.61543 10.5727C8.61543 9.86405 8.87856 9.30206 9.40482 8.88667C9.93108 8.45907 10.6654 8.24527 11.6078 8.24527C11.8403 8.24527 12.0484 8.25137 12.2319 8.26359C12.4155 8.27581 12.5869 8.29413 12.746 8.31857C12.9051 8.33079 13.058 8.35522 13.2049 8.39187L11.0754 8.42852C10.9163 8.37965 10.7449 8.343 10.5614 8.31857C10.39 8.28192 10.2126 8.25748 10.029 8.24527C9.85765 8.22083 9.67407 8.20861 9.47826 8.20861L10.2676 6.77919C11.0387 6.81585 11.7546 6.94413 12.4155 7.16404C13.0886 7.37173 13.6761 7.67105 14.1779 8.06201C14.6797 8.44074 15.0713 8.905 15.3528 9.45477C15.6465 9.99233 15.7934 10.6093 15.7934 11.3057C15.7934 12.0876 15.6465 12.7718 15.3528 13.3582C15.0591 13.9324 14.6001 14.415 13.9759 14.8059C13.3518 15.1847 12.544 15.4718 11.5527 15.6673C10.5736 15.8627 9.39258 15.9605 8.00962 15.9605Z" fill="#FF5858"/>
</svg>
