<svg width="290" height="25" viewBox="0 0 290 25" fill="none" xmlns="http://www.w3.org/2000/svg">
<path d="M286.497 23.228C285.932 23.228 285.471 23.1373 285.114 22.9559C284.746 22.7867 284.383 22.4783 284.026 22.031H284.451C284.033 22.4783 283.645 22.7867 283.289 22.9559C282.92 23.1373 282.465 23.228 281.924 23.228C281.384 23.228 280.935 23.1071 280.578 22.8652C280.222 22.6234 279.958 22.303 279.785 21.904C279.613 21.505 279.527 21.0758 279.527 20.6164C279.527 19.8546 279.736 19.1957 280.154 18.6395C280.56 18.0833 281.119 17.6541 281.832 17.3518C282.533 17.0496 283.326 16.8984 284.211 16.8984C285.121 16.8984 285.932 17.0556 286.645 17.37C287.346 17.6964 287.899 18.1377 288.304 18.6939C288.71 19.2622 288.913 19.9151 288.913 20.6526C288.913 21.0879 288.839 21.499 288.692 21.8859C288.532 22.2849 288.274 22.6053 287.917 22.8471C287.561 23.101 287.087 23.228 286.497 23.228ZM286.055 21.5957C286.301 21.5957 286.497 21.505 286.645 21.3237C286.792 21.1423 286.866 20.9005 286.866 20.5982C286.866 19.9574 286.614 19.4496 286.11 19.0748C285.606 18.7121 284.973 18.5307 284.211 18.5307C283.387 18.5307 282.742 18.7121 282.275 19.0748C281.795 19.4375 281.556 19.9332 281.556 20.5619C281.556 20.8763 281.629 21.1242 281.777 21.3055C281.924 21.499 282.127 21.5957 282.385 21.5957C282.631 21.5957 282.834 21.5353 282.994 21.4143C283.141 21.3055 283.264 21.1484 283.363 20.9428H285.059C285.157 21.1725 285.28 21.3358 285.428 21.4325C285.575 21.5413 285.784 21.5957 286.055 21.5957ZM283.307 24.4068L283.381 22.9378H285.004L285.133 24.4068H283.307ZM283.234 19.8728C283.234 19.6068 283.326 19.4073 283.51 19.2743C283.695 19.1534 283.928 19.0929 284.211 19.0929C284.53 19.0929 284.776 19.1594 284.948 19.2924C285.121 19.4254 285.207 19.6189 285.207 19.8728C285.207 20.1509 285.121 20.3504 284.948 20.4713C284.764 20.5922 284.518 20.6526 284.211 20.6526C283.916 20.6526 283.682 20.5861 283.51 20.4531C283.326 20.3322 283.234 20.1388 283.234 19.8728Z" fill="#FF5858"/>
<path d="M285.92 15.9422C285.403 15.9422 284.905 15.8711 284.425 15.7288C283.957 15.5984 283.471 15.3554 282.967 14.9998C282.475 14.6442 281.934 14.1464 281.343 13.5063C281.072 13.21 280.851 12.9907 280.679 12.8484C280.519 12.6943 280.383 12.5936 280.273 12.5462C280.162 12.4869 280.039 12.4573 279.904 12.4573C279.744 12.4573 279.596 12.5224 279.461 12.6528C279.325 12.7832 279.258 12.961 279.258 13.1862C279.258 13.4826 279.325 13.7967 279.461 14.1286C279.608 14.4605 279.817 14.8161 280.088 15.1954L277.504 15.96C277.283 15.5451 277.092 15.1065 276.932 14.6442C276.785 14.1701 276.711 13.6604 276.711 13.1151C276.711 12.5699 276.846 12.0898 277.117 11.6749C277.388 11.2482 277.757 10.9163 278.224 10.6792C278.704 10.4303 279.245 10.3058 279.848 10.3058C280.414 10.3058 280.912 10.3888 281.343 10.5548C281.774 10.7207 282.173 10.9578 282.543 11.266C282.924 11.5742 283.312 11.9416 283.705 12.3684C284.062 12.7358 284.363 13.0262 284.609 13.2396C284.856 13.4411 285.089 13.5833 285.311 13.6663C285.545 13.7493 285.797 13.7908 286.067 13.7908C286.412 13.7908 286.701 13.6722 286.935 13.4352C287.169 13.1981 287.285 12.8425 287.285 12.3684C287.285 11.8112 287.156 11.3193 286.898 10.8926C286.64 10.4659 286.301 10.0865 285.883 9.75464C285.465 9.41089 285.022 9.09677 284.554 8.81228L286.012 6.83867C286.738 7.21798 287.39 7.66842 287.968 8.18997C288.546 8.71153 289.002 9.30421 289.334 9.96801C289.678 10.62 289.851 11.3549 289.851 12.1728C289.851 12.9314 289.697 13.5952 289.389 14.1642C289.094 14.7213 288.651 15.1599 288.061 15.4799C287.482 15.7881 286.769 15.9422 285.92 15.9422ZM280.42 8.68782C279.842 8.68782 279.331 8.59892 278.889 8.42112C278.446 8.23146 278.07 7.92919 277.763 7.51432C277.455 7.08759 277.215 6.51269 277.043 5.78963L279.553 5.16732C279.688 5.77185 279.836 6.2045 279.996 6.46528C280.156 6.7142 280.377 6.83867 280.66 6.83867C280.845 6.83867 281.029 6.77347 281.214 6.64308C281.398 6.51269 281.644 6.26377 281.952 5.89631L282.727 4.95395C283.158 4.4324 283.564 4.02345 283.945 3.72711C284.327 3.41892 284.739 3.1937 285.182 3.05146C285.637 2.90921 286.178 2.83217 286.806 2.82031L286.953 4.88283C286.535 4.90654 286.172 4.97766 285.864 5.09619C285.569 5.20288 285.298 5.35697 285.052 5.55848C284.806 5.75999 284.548 6.0267 284.277 6.3586L283.668 7.08759C283.435 7.37208 283.158 7.63878 282.838 7.88771C282.518 8.12478 282.155 8.32036 281.749 8.47446C281.355 8.6167 280.912 8.68782 280.42 8.68782Z" fill="#FF5858"/>
<path d="M265.449 12.6919C265.449 11.8856 265.642 11.1625 266.026 10.5226C266.411 9.88264 266.956 9.3771 267.661 9.00595C268.366 8.6348 269.206 8.44922 270.18 8.44922C271.168 8.44922 272.008 8.6348 272.7 9.00595C273.392 9.3771 273.918 9.88264 274.277 10.5226C274.649 11.1625 274.835 11.8856 274.835 12.6919C274.835 13.4982 274.649 14.2213 274.277 14.8612C273.905 15.4883 273.367 15.9875 272.661 16.3586C271.969 16.717 271.129 16.8961 270.142 16.8961C269.168 16.8961 268.328 16.7106 267.622 16.3394C266.917 15.9683 266.379 15.4691 266.007 14.842C265.635 14.2021 265.449 13.4854 265.449 12.6919ZM268.026 12.6727C268.026 13.2614 268.199 13.7605 268.546 14.1701C268.905 14.5668 269.437 14.7652 270.142 14.7652C270.616 14.7652 271.007 14.6756 271.315 14.4965C271.623 14.3045 271.854 14.0485 272.008 13.7285C272.174 13.4086 272.258 13.0566 272.258 12.6727C272.258 12.084 272.072 11.5912 271.7 11.1945C271.341 10.7849 270.822 10.5801 270.142 10.5801C269.693 10.5801 269.309 10.6761 268.988 10.8681C268.68 11.0473 268.443 11.2969 268.276 11.6168C268.11 11.924 268.026 12.2759 268.026 12.6727Z" fill="#FF5858"/>
<path d="M258.701 15.9422C258.184 15.9422 257.686 15.8711 257.206 15.7288C256.739 15.5984 256.253 15.3554 255.748 14.9998C255.256 14.6442 254.715 14.1464 254.124 13.5063C253.854 13.21 253.632 12.9907 253.46 12.8484C253.3 12.6943 253.165 12.5936 253.054 12.5462C252.943 12.4869 252.82 12.4573 252.685 12.4573C252.525 12.4573 252.377 12.5224 252.242 12.6528C252.107 12.7832 252.039 12.961 252.039 13.1862C252.039 13.4826 252.107 13.7967 252.242 14.1286C252.39 14.4605 252.599 14.8161 252.869 15.1954L250.286 15.96C250.064 15.5451 249.874 15.1065 249.714 14.6442C249.566 14.1701 249.492 13.6604 249.492 13.1151C249.492 12.5699 249.628 12.0898 249.898 11.6749C250.169 11.2482 250.538 10.9163 251.005 10.6792C251.485 10.4303 252.027 10.3058 252.629 10.3058C253.195 10.3058 253.694 10.3888 254.124 10.5548C254.555 10.7207 254.955 10.9578 255.324 11.266C255.705 11.5742 256.093 11.9416 256.486 12.3684C256.843 12.7358 257.145 13.0262 257.391 13.2396C257.637 13.4411 257.871 13.5833 258.092 13.6663C258.326 13.7493 258.578 13.7908 258.849 13.7908C259.193 13.7908 259.482 13.6722 259.716 13.4352C259.95 13.1981 260.067 12.8425 260.067 12.3684C260.067 11.8112 259.937 11.3193 259.679 10.8926C259.421 10.4659 259.082 10.0865 258.664 9.75464C258.246 9.41089 257.803 9.09677 257.335 8.81228L258.793 6.83867C259.519 7.21798 260.171 7.66842 260.749 8.18997C261.328 8.71153 261.783 9.30421 262.115 9.96801C262.46 10.62 262.632 11.3549 262.632 12.1728C262.632 12.9314 262.478 13.5952 262.17 14.1642C261.875 14.7213 261.432 15.1599 260.842 15.4799C260.264 15.7881 259.55 15.9422 258.701 15.9422ZM253.202 8.68782C252.623 8.68782 252.113 8.59892 251.67 8.42112C251.227 8.23146 250.852 7.92919 250.544 7.51432C250.237 7.08759 249.997 6.51269 249.824 5.78963L252.334 5.16732C252.47 5.77185 252.617 6.2045 252.777 6.46528C252.937 6.7142 253.158 6.83867 253.441 6.83867C253.626 6.83867 253.811 6.77347 253.995 6.64308C254.18 6.51269 254.426 6.26377 254.733 5.89631L255.508 4.95395C255.939 4.4324 256.345 4.02345 256.726 3.72711C257.108 3.41892 257.52 3.1937 257.963 3.05146C258.418 2.90921 258.959 2.83217 259.587 2.82031L259.734 4.88283C259.316 4.90654 258.953 4.97766 258.646 5.09619C258.35 5.20288 258.08 5.35697 257.834 5.55848C257.588 5.75999 257.329 6.0267 257.059 6.3586L256.45 7.08759C256.216 7.37208 255.939 7.63878 255.619 7.88771C255.299 8.12478 254.936 8.32036 254.53 8.47446C254.137 8.6167 253.694 8.68782 253.202 8.68782Z" fill="#FF5858"/>
<path d="M230.571 15.9597C229.778 15.9597 229.14 15.8314 228.657 15.5747C228.186 15.3059 227.845 14.9637 227.634 14.5482C227.436 14.1327 227.337 13.6928 227.337 13.2284C227.337 12.6296 227.473 12.1346 227.746 11.7436C228.019 11.3525 228.378 11.0653 228.824 10.882C229.282 10.6865 229.766 10.5887 230.274 10.5887C230.918 10.5887 231.457 10.6987 231.89 10.9187C232.336 11.1264 232.702 11.3769 232.987 11.6702C233.284 11.9513 233.52 12.2018 233.693 12.4218L232.745 14.2916C232.609 13.9616 232.442 13.65 232.244 13.3567C232.058 13.0634 231.835 12.8251 231.575 12.6418C231.314 12.4463 231.005 12.3485 230.645 12.3485C230.373 12.3485 230.125 12.4218 229.902 12.5685C229.679 12.7151 229.567 12.9473 229.567 13.265C229.567 13.5461 229.66 13.7661 229.846 13.925C230.032 14.0838 230.28 14.1633 230.59 14.1633C230.998 14.1633 231.321 14.0533 231.556 13.8333C231.804 13.6133 231.977 13.32 232.076 12.9534C232.175 12.5868 232.225 12.1896 232.225 11.7619V11.3036C232.225 10.8026 232.157 10.3504 232.021 9.94712C231.884 9.54384 231.667 9.2261 231.37 8.99391C231.085 8.76172 230.701 8.64562 230.218 8.64562C229.92 8.64562 229.648 8.71284 229.4 8.84726C229.165 8.96947 228.966 9.14056 228.805 9.36053C228.644 9.5805 228.527 9.83714 228.452 10.1304H226.055C225.993 9.9349 225.881 9.72104 225.72 9.48885C225.572 9.24443 225.348 9.03668 225.051 8.86559C224.754 8.68228 224.345 8.59063 223.825 8.59063C223.391 8.59063 223.038 8.66395 222.765 8.8106C222.505 8.94503 222.375 9.17111 222.375 9.48885C222.375 9.61105 222.393 9.72715 222.431 9.83714C222.48 9.9349 222.567 10.0204 222.691 10.0938C222.802 10.1549 222.945 10.2099 223.118 10.2587C223.304 10.2954 223.589 10.3137 223.973 10.3137H225.07V12.2202H223.917C223.533 12.2202 223.236 12.2385 223.025 12.2752C222.815 12.3118 222.647 12.379 222.524 12.4768C222.437 12.5501 222.362 12.6418 222.301 12.7518C222.251 12.8495 222.226 12.9656 222.226 13.1001C222.226 13.3445 222.307 13.5461 222.468 13.705C222.641 13.8638 222.92 13.9433 223.304 13.9433C223.713 13.9433 224.079 13.8394 224.401 13.6317C224.735 13.4239 225.057 13.1489 225.367 12.8068L226.965 14.1999C226.631 14.5788 226.265 14.9026 225.869 15.1715C225.485 15.4281 225.057 15.6236 224.587 15.7581C224.116 15.8925 223.577 15.9597 222.97 15.9597C221.805 15.9597 220.925 15.7214 220.331 15.2448C219.748 14.756 219.457 14.1571 219.457 13.4483C219.457 13.1062 219.525 12.7884 219.661 12.4951C219.798 12.1896 220.008 11.9269 220.293 11.7069C220.591 11.4747 220.962 11.2914 221.408 11.157L221.39 11.3953C220.783 11.1753 220.331 10.8881 220.033 10.5337C219.748 10.1671 219.606 9.73326 219.606 9.23221C219.606 8.78005 219.767 8.3951 220.089 8.07736C220.423 7.7474 220.882 7.49077 221.464 7.30746C222.047 7.12415 222.716 7.03249 223.471 7.03249C224.14 7.03249 224.698 7.11193 225.144 7.2708C225.602 7.41744 226.005 7.63742 226.352 7.93071C226.711 8.21179 227.083 8.56008 227.467 8.97558L227.04 8.99391C227.337 8.57841 227.659 8.24234 228.006 7.98571C228.353 7.71685 228.725 7.52132 229.121 7.39911C229.53 7.26469 229.958 7.19747 230.404 7.19747C231.345 7.19747 232.132 7.36245 232.764 7.69241C233.396 8.02237 233.873 8.50508 234.195 9.14056C234.517 9.77603 234.678 10.552 234.678 11.4686C234.678 12.3729 234.53 13.1673 234.232 13.8516C233.935 14.5238 233.483 15.0431 232.875 15.4098C232.268 15.7764 231.5 15.9597 230.571 15.9597ZM238.99 12.3668C238.42 12.3668 237.949 12.2813 237.577 12.1102C237.206 11.9391 236.915 11.7252 236.704 11.4686C236.493 11.1997 236.345 10.9187 236.258 10.6254C236.171 10.3321 236.128 10.0632 236.128 9.81881C236.128 9.31776 236.208 8.90837 236.369 8.59063C236.531 8.27289 236.698 7.9796 236.871 7.71074L238.878 7.85739C238.606 8.11402 238.389 8.36455 238.228 8.60896C238.067 8.85337 237.986 9.165 237.986 9.54384C237.986 9.84936 238.079 10.0999 238.265 10.2954C238.463 10.4909 238.711 10.5887 239.009 10.5887C239.368 10.5887 239.634 10.5032 239.808 10.3321C239.994 10.1488 240.086 9.92268 240.086 9.65383C240.086 9.28721 239.932 9.03057 239.622 8.88393C239.325 8.72506 238.922 8.64562 238.414 8.64562H225.776L224.512 8.15068L222.226 8.64562H219.661V6.57422H236.815C237.571 6.57422 238.197 6.59866 238.693 6.64754C239.201 6.6842 239.628 6.75753 239.975 6.86751C240.334 6.9775 240.663 7.14859 240.96 7.38078C241.27 7.61298 241.518 7.90627 241.703 8.26067C241.889 8.61507 241.982 9.06112 241.982 9.59883C241.982 10.3932 241.716 11.0531 241.183 11.5786C240.663 12.1041 239.932 12.3668 238.99 12.3668Z" fill="#FF5858"/>
<path d="M207.405 15.9597C206.804 15.9597 206.271 15.8741 205.807 15.7031C205.343 15.532 204.873 15.2448 204.396 14.8415C203.933 14.426 203.375 13.8638 202.723 13.155C202.372 12.764 202.096 12.4951 201.895 12.3485C201.695 12.1896 201.463 12.1102 201.2 12.1102C200.999 12.1102 200.798 12.1896 200.598 12.3485C200.41 12.4951 200.316 12.7273 200.316 13.0451C200.316 13.4239 200.416 13.6866 200.617 13.8333C200.83 13.9799 201.074 14.0533 201.35 14.0533C201.651 14.0533 201.952 13.9311 202.253 13.6866C202.554 13.4422 202.767 13.039 202.892 12.4768L204.453 14.0899C204.202 14.4321 203.939 14.7498 203.663 15.0431C203.4 15.3242 203.068 15.5503 202.666 15.7214C202.265 15.8803 201.726 15.9597 201.049 15.9597C200.309 15.9597 199.701 15.8253 199.225 15.5564C198.761 15.2753 198.416 14.9148 198.191 14.4749C197.978 14.0227 197.871 13.5522 197.871 13.0634C197.871 12.4768 198.015 11.9696 198.304 11.5419C198.592 11.102 198.987 10.7598 199.488 10.5154C199.99 10.271 200.554 10.1488 201.181 10.1488C201.707 10.1488 202.171 10.216 202.572 10.3504C202.974 10.4848 203.362 10.7048 203.738 11.0103C204.127 11.3158 204.553 11.7191 205.017 12.2202C205.418 12.6479 205.75 12.9717 206.014 13.1917C206.277 13.4117 206.515 13.5583 206.728 13.6317C206.941 13.705 207.161 13.7416 207.386 13.7416C207.788 13.7416 208.107 13.6194 208.346 13.375C208.584 13.1306 208.703 12.7395 208.703 12.2018C208.703 11.5786 208.534 11.0103 208.195 10.4971C207.857 9.98379 207.393 9.54384 206.804 9.17722C206.214 8.8106 205.544 8.54786 204.791 8.38899L209.286 8.31566C209.7 8.58452 210.057 8.90837 210.358 9.28721C210.671 9.65383 210.909 10.0693 211.072 10.5337C211.235 10.9859 211.317 11.4808 211.317 12.0185C211.317 12.8129 211.166 13.5094 210.865 14.1083C210.565 14.6949 210.12 15.1531 209.53 15.4831C208.954 15.8008 208.245 15.9597 207.405 15.9597ZM215.51 12.3668C214.934 12.3668 214.457 12.2813 214.081 12.1102C213.705 11.9391 213.41 11.7252 213.197 11.4686C212.984 11.1997 212.834 10.9187 212.746 10.6254C212.658 10.3321 212.614 10.0632 212.614 9.81881C212.614 9.31776 212.696 8.90837 212.859 8.59063C213.022 8.27289 213.191 7.9796 213.367 7.71074L215.379 7.85739C215.115 8.11402 214.902 8.36455 214.739 8.60896C214.576 8.85337 214.495 9.165 214.495 9.54384C214.495 9.84936 214.589 10.0999 214.777 10.2954C214.978 10.4909 215.228 10.5887 215.529 10.5887C215.893 10.5887 216.162 10.5032 216.338 10.3321C216.513 10.1488 216.601 9.92268 216.601 9.65383C216.601 9.28721 216.451 9.03057 216.15 8.88393C215.849 8.72506 215.448 8.64562 214.946 8.64562H199.864V6.57422H213.31C214.075 6.57422 214.708 6.59866 215.209 6.64754C215.711 6.6842 216.137 6.75753 216.488 6.86751C216.852 6.9775 217.184 7.14859 217.485 7.38078C217.811 7.61298 218.062 7.90627 218.237 8.26067C218.425 8.61507 218.519 9.06112 218.519 9.59883C218.519 10.3932 218.256 11.0531 217.729 11.5786C217.203 12.1041 216.463 12.3668 215.51 12.3668Z" fill="#FF5858"/>
<path d="M184.734 11.5445C184.734 10.6661 184.937 9.8768 185.343 9.17649C185.749 8.46431 186.345 7.90051 187.131 7.48507C187.931 7.05777 188.907 6.84411 190.061 6.84411C191.228 6.84411 192.205 7.0459 192.991 7.44946C193.777 7.84116 194.367 8.38716 194.76 9.08747C195.166 9.78778 195.369 10.6008 195.369 11.5267C195.369 12.3932 195.173 13.1647 194.779 13.8413C194.386 14.5059 193.796 15.0282 193.01 15.408C192.224 15.776 191.241 15.96 190.061 15.96C188.882 15.96 187.892 15.7701 187.093 15.3902C186.307 15.0104 185.717 14.4881 185.324 13.8234C184.931 13.1587 184.734 12.3991 184.734 11.5445ZM187.379 11.313C187.379 12.0371 187.601 12.6365 188.045 13.1113C188.501 13.5742 189.173 13.8056 190.061 13.8056C190.657 13.8056 191.152 13.7047 191.545 13.503C191.938 13.2893 192.236 13.0044 192.439 12.6484C192.642 12.2804 192.744 11.865 192.744 11.402C192.744 10.9273 192.642 10.5 192.439 10.1201C192.249 9.7403 191.951 9.43762 191.545 9.2121C191.152 8.97471 190.657 8.85601 190.061 8.85601C189.452 8.85601 188.951 8.96877 188.558 9.1943C188.165 9.41982 187.867 9.72249 187.664 10.1023C187.474 10.4703 187.379 10.8738 187.379 11.313ZM189.262 8.69577C188.666 8.69577 188.14 8.60675 187.683 8.42871C187.227 8.23879 186.84 7.93612 186.523 7.52068C186.206 7.09337 185.958 6.5177 185.781 5.79365L188.368 5.1705C188.508 5.77585 188.66 6.20909 188.825 6.47022C188.99 6.71948 189.218 6.84411 189.51 6.84411C189.7 6.84411 189.89 6.77883 190.08 6.64826C190.271 6.5177 190.524 6.26844 190.841 5.90048L191.64 4.95684C192.084 4.43458 192.503 4.02508 192.896 3.72834C193.289 3.41973 193.714 3.1942 194.171 3.05177C194.64 2.90933 195.198 2.83218 195.845 2.82031L195.997 4.88563C195.566 4.90936 195.192 4.98058 194.874 5.09928C194.57 5.2061 194.291 5.36041 194.037 5.56219C193.784 5.76398 193.517 6.03104 193.238 6.36339L192.611 7.09337C192.37 7.37824 192.084 7.64531 191.754 7.89457C191.425 8.13197 191.051 8.32781 190.632 8.48212C190.226 8.62455 189.77 8.69577 189.262 8.69577Z" fill="#FF5858"/>
<path d="M166.153 23.4683C165.355 23.4683 164.74 23.3804 164.309 23.2047C163.878 23.029 163.498 22.7906 163.168 22.4894H163.282C162.927 22.8784 162.566 23.1357 162.199 23.2612C161.818 23.3992 161.381 23.4683 160.887 23.4683C160.405 23.4683 159.981 23.3553 159.613 23.1294C159.245 22.9161 158.96 22.6023 158.757 22.1882C158.555 21.774 158.453 21.2783 158.453 20.701C158.453 19.948 158.662 19.2829 159.081 18.7056C159.486 18.1409 160.076 17.6954 160.849 17.3691C161.622 17.0553 162.535 16.8984 163.587 16.8984C164.461 16.8984 165.222 16.9549 165.868 17.0679C166.502 17.1808 167.174 17.3565 167.884 17.595L167.142 19.2892C166.648 19.1009 166.217 18.9566 165.849 18.8562C165.469 18.7558 165.108 18.6868 164.765 18.6491C164.411 18.6115 164.024 18.5927 163.606 18.5927C162.896 18.5927 162.313 18.6868 161.856 18.875C161.4 19.0758 161.071 19.3331 160.868 19.6468C160.652 19.9606 160.545 20.312 160.545 20.701C160.545 21.0273 160.621 21.2846 160.773 21.4728C160.912 21.6736 161.121 21.774 161.4 21.774C161.654 21.774 161.869 21.6799 162.047 21.4917C162.211 21.316 162.313 21.0713 162.351 20.7575H164.176C164.201 20.9709 164.252 21.1591 164.328 21.3222C164.404 21.4854 164.525 21.6109 164.689 21.6987C164.854 21.7866 165.082 21.8305 165.374 21.8305C165.513 21.8431 165.665 21.8556 165.83 21.8682C165.982 21.8933 166.147 21.9058 166.324 21.9058C166.578 21.9058 166.781 21.8619 166.933 21.774C167.072 21.6987 167.142 21.5732 167.142 21.3975C167.142 21.272 167.098 21.1717 167.009 21.0964C166.908 21.0211 166.768 20.9834 166.591 20.9834C166.426 20.9834 166.293 21.0336 166.191 21.134C166.077 21.2344 166.02 21.3913 166.02 21.6046C166.02 21.7678 166.065 21.9121 166.153 22.0376C166.229 22.1756 166.337 22.3011 166.477 22.4141L165.07 22.7718C164.918 22.5584 164.81 22.3137 164.746 22.0376C164.67 21.7615 164.632 21.5419 164.632 21.3787C164.632 20.8265 164.81 20.3747 165.165 20.0233C165.507 19.6719 166.008 19.4963 166.667 19.4963C167.3 19.4963 167.814 19.6719 168.207 20.0233C168.587 20.3873 168.777 20.8328 168.777 21.3599C168.777 21.7113 168.701 22.0439 168.549 22.3576C168.384 22.6839 168.112 22.9475 167.731 23.1482C167.351 23.3616 166.825 23.4683 166.153 23.4683Z" fill="#FF5858"/>
<path d="M172.208 15.9597C171.233 15.9597 170.412 15.7458 169.745 15.3181C169.078 14.8904 168.443 14.3527 167.84 13.705L169.321 12.1285C169.591 12.4218 169.873 12.6907 170.168 12.9351C170.45 13.1795 170.758 13.375 171.092 13.5217C171.438 13.6683 171.81 13.7416 172.208 13.7416C172.657 13.7416 173.003 13.6194 173.247 13.375C173.49 13.1306 173.612 12.764 173.612 12.2752C173.612 11.7008 173.478 11.1936 173.208 10.7537C172.939 10.3137 172.586 9.92268 172.15 9.5805C171.714 9.2261 171.252 8.90226 170.765 8.60896L172.285 6.57422C173.041 6.96528 173.721 7.42966 174.324 7.96737C174.927 8.50508 175.402 9.11612 175.748 9.80048C176.107 10.4726 176.287 11.2303 176.287 12.0735C176.287 13.2467 175.94 14.1877 175.248 14.8965C174.555 15.6053 173.542 15.9597 172.208 15.9597Z" fill="#FF5858"/>
<path d="M165.197 15.96C164.48 15.96 163.871 15.8947 163.369 15.7641C162.866 15.6454 162.439 15.4733 162.087 15.2478C161.735 15.0104 161.421 14.7374 161.145 14.4288L161.277 14.4466C160.975 14.862 160.655 15.1825 160.315 15.408C159.989 15.6217 159.637 15.7641 159.26 15.8353C158.896 15.9184 158.487 15.96 158.035 15.96C157.042 15.96 156.238 15.6276 155.623 14.9629C155.007 14.2982 154.699 13.3546 154.699 12.132C154.699 10.9925 154.994 10.0311 155.585 9.24771C156.176 8.45244 157.011 7.85303 158.092 7.44946C159.172 7.0459 160.435 6.84411 161.88 6.84411C162.646 6.84411 163.343 6.88566 163.972 6.96874C164.6 7.05183 165.209 7.17646 165.8 7.34264C166.39 7.49694 167.012 7.69872 167.666 7.94799L166.516 9.94208C165.837 9.65721 165.241 9.43762 164.725 9.28332C164.223 9.12901 163.739 9.02219 163.274 8.96284C162.809 8.89162 162.301 8.85601 161.748 8.85601C160.717 8.85601 159.876 8.99845 159.222 9.28332C158.569 9.55632 158.085 9.93021 157.771 10.405C157.47 10.8679 157.319 11.3842 157.319 11.954C157.319 12.6187 157.432 13.0935 157.658 13.3783C157.884 13.6632 158.198 13.8056 158.6 13.8056C159.015 13.8056 159.348 13.6632 159.599 13.3783C159.863 13.0935 160.02 12.6958 160.07 12.1854H162.389C162.426 12.6484 162.571 13.0222 162.822 13.3071C163.086 13.592 163.526 13.776 164.141 13.8591C164.33 13.8947 164.537 13.9243 164.763 13.9481C165.002 13.9599 165.253 13.9659 165.517 13.9659C165.869 13.9659 166.145 13.9006 166.346 13.77C166.547 13.6395 166.648 13.4258 166.648 13.1291C166.648 12.9273 166.572 12.7611 166.422 12.6305C166.283 12.5 166.089 12.4347 165.837 12.4347C165.599 12.4347 165.391 12.5 165.215 12.6305C165.052 12.7611 164.97 12.9748 164.97 13.2715C164.97 13.4852 165.027 13.6869 165.14 13.8769C165.253 14.0549 165.41 14.2151 165.611 14.3576L163.783 14.8561C163.57 14.5712 163.406 14.2448 163.293 13.8769C163.193 13.497 163.142 13.1944 163.142 12.9688C163.142 12.2448 163.381 11.6632 163.859 11.224C164.349 10.773 165.033 10.5474 165.913 10.5474C166.491 10.5474 166.993 10.6602 167.421 10.8857C167.848 11.1112 168.181 11.4198 168.419 11.8115C168.658 12.1914 168.777 12.6187 168.777 13.0935C168.777 13.4496 168.715 13.7997 168.589 14.1439C168.476 14.4881 168.281 14.7968 168.005 15.0698C167.741 15.3428 167.377 15.5623 166.912 15.7285C166.447 15.8828 165.875 15.96 165.197 15.96ZM161.201 8.69577C160.611 8.69577 160.089 8.60675 159.637 8.42871C159.185 8.23879 158.801 7.93612 158.487 7.52068C158.173 7.09337 157.928 6.5177 157.752 5.79365L160.315 5.1705C160.454 5.77585 160.604 6.20909 160.768 6.47022C160.931 6.71948 161.157 6.84411 161.446 6.84411C161.635 6.84411 161.823 6.77883 162.012 6.64826C162.2 6.5177 162.451 6.26844 162.765 5.90048L163.557 4.95684C163.997 4.43458 164.411 4.02508 164.801 3.72834C165.19 3.41973 165.611 3.1942 166.064 3.05177C166.528 2.90933 167.081 2.83218 167.722 2.82031L167.873 4.88563C167.446 4.90936 167.075 4.98058 166.761 5.09928C166.459 5.2061 166.183 5.36041 165.932 5.56219C165.68 5.76398 165.417 6.03104 165.14 6.36339L164.518 7.09337C164.279 7.37824 163.997 7.64531 163.67 7.89457C163.343 8.13197 162.973 8.32781 162.558 8.48212C162.156 8.62455 161.704 8.69577 161.201 8.69577Z" fill="#FF5858"/>
<path d="M138.742 11.4576C138.742 10.5621 138.946 9.7574 139.353 9.04343C139.76 8.31737 140.358 7.74256 141.147 7.31902C141.949 6.88338 142.929 6.66557 144.087 6.66557C145.258 6.66557 146.238 6.87128 147.027 7.28272C147.816 7.68206 148.408 8.23871 148.802 8.95267C149.209 9.66664 149.413 10.4956 149.413 11.4395C149.413 12.3228 149.216 13.1094 148.821 13.7992C148.427 14.4768 147.835 15.0093 147.046 15.3965C146.257 15.7716 145.271 15.9592 144.087 15.9592C142.904 15.9592 141.911 15.7656 141.109 15.3784C140.32 14.9911 139.728 14.4587 139.334 13.781C138.939 13.1034 138.742 12.3289 138.742 11.4576ZM141.396 11.2216C141.396 11.9598 141.618 12.5709 142.064 13.0549C142.522 13.5269 143.196 13.7629 144.087 13.7629C144.685 13.7629 145.182 13.66 145.576 13.4543C145.971 13.2365 146.27 12.946 146.473 12.583C146.677 12.2079 146.779 11.7843 146.779 11.3124C146.779 10.8283 146.677 10.3927 146.473 10.0055C146.282 9.61823 145.983 9.30966 145.576 9.07973C145.182 8.83771 144.685 8.7167 144.087 8.7167C143.476 8.7167 142.974 8.83166 142.579 9.06158C142.185 9.2915 141.886 9.60008 141.682 9.98732C141.491 10.3625 141.396 10.7739 141.396 11.2216ZM151.933 8.48073C151.347 8.48073 150.864 8.39602 150.482 8.22661C150.1 8.05719 149.795 7.84542 149.566 7.5913C149.349 7.32508 149.197 7.04675 149.108 6.75632C149.018 6.4659 148.974 6.20572 148.974 5.9758C148.974 5.47966 149.057 5.07427 149.222 4.75964C149.4 4.43291 149.578 4.14248 149.757 3.88836L151.799 4.01542C151.519 4.26955 151.296 4.51762 151.131 4.75964C150.966 5.00166 150.883 5.31024 150.883 5.68537C150.883 5.9879 150.978 6.23598 151.169 6.42959C151.373 6.62321 151.634 6.72002 151.952 6.72002C152.334 6.72002 152.607 6.62926 152.773 6.44774C152.951 6.26623 153.04 6.04841 153.04 5.79428C153.04 5.44335 152.887 5.18923 152.582 5.03192C152.276 4.8746 151.863 4.79594 151.341 4.79594H148.611C148.179 4.79594 147.841 4.8988 147.6 5.10452C147.358 5.31024 147.205 5.63697 147.141 6.08471H144.813C144.723 5.68538 144.558 5.37075 144.316 5.14083C144.087 4.9109 143.718 4.79594 143.209 4.79594H142.999C142.719 4.79594 142.477 4.88065 142.274 5.05007C142.07 5.21948 141.968 5.4615 141.968 5.77613C141.968 5.96975 142.013 6.13312 142.102 6.26623C142.204 6.39934 142.344 6.5022 142.522 6.57481C142.7 6.63531 142.904 6.66557 143.133 6.66557H143.782V8.64409H143.285C142.547 8.64409 141.898 8.52308 141.338 8.28106C140.791 8.02694 140.365 7.66996 140.059 7.21011C139.754 6.75027 139.601 6.21177 139.601 5.59462C139.601 4.75964 139.888 4.08198 140.46 3.56163C141.046 3.02918 141.841 2.76296 142.846 2.76296H143.075C143.635 2.76296 144.119 2.84162 144.526 2.99893C144.933 3.14414 145.264 3.34381 145.519 3.59793C145.773 3.85206 145.952 4.12433 146.053 4.41476H145.882C146.034 4.11223 146.231 3.83996 146.473 3.59793C146.715 3.34381 147.046 3.14414 147.466 2.99893C147.886 2.84162 148.433 2.76296 149.108 2.76296H150.253C151.08 2.76296 151.786 2.81136 152.372 2.90817C152.957 2.99288 153.473 3.1986 153.918 3.52533C154.249 3.75525 154.51 4.04568 154.701 4.39661C154.892 4.74754 154.987 5.19528 154.987 5.73983C154.987 6.5385 154.72 7.19801 154.185 7.71836C153.651 8.22661 152.9 8.48073 151.933 8.48073ZM152.544 0.00390625C153.358 0.00390625 154.013 0.167271 154.51 0.494001C155.006 0.80863 155.382 1.25637 155.636 1.83722L153.689 2.29101C153.613 2.1579 153.524 2.04294 153.422 1.94613C153.32 1.84932 153.199 1.77672 153.059 1.72831C152.919 1.67991 152.754 1.65571 152.563 1.65571C152.245 1.65571 151.996 1.72831 151.818 1.87353C151.653 2.00664 151.57 2.18211 151.57 2.39993C151.57 2.62985 151.64 2.84162 151.78 3.03523C151.92 3.21675 152.111 3.38011 152.353 3.52533L150.406 4.21509C150.164 4.00937 149.941 3.7371 149.738 3.39827C149.547 3.04733 149.451 2.648 149.451 2.20026C149.451 1.81302 149.559 1.45604 149.776 1.12931C149.992 0.790478 150.329 0.518203 150.787 0.312485C151.246 0.106766 151.831 0.00390625 152.544 0.00390625Z" fill="#FF5858"/>
<path d="M126.06 6.57422C126.869 6.57422 127.543 6.74214 128.082 7.07797C128.621 7.41381 129.055 7.8576 129.383 8.40933C129.711 8.96107 129.946 9.57277 130.086 10.2444C130.227 10.9041 130.297 11.5698 130.297 12.2415C130.297 13.4529 130.151 14.5924 129.858 15.6598C129.576 16.7273 129.166 17.7228 128.627 18.6464C128.099 19.5819 127.466 20.4455 126.728 21.2371C125.989 22.0408 125.175 22.7844 124.284 23.4681L122.789 21.7769C123.492 21.2132 124.155 20.6075 124.776 19.9598C125.409 19.3121 125.96 18.6044 126.429 17.8368C126.91 17.0812 127.285 16.2476 127.554 15.336C127.824 14.4244 127.959 13.4109 127.959 12.2955C127.959 11.8877 127.924 11.4559 127.853 11.0001C127.795 10.5443 127.689 10.1185 127.537 9.7227C127.396 9.32689 127.197 9.00305 126.939 8.75117C126.693 8.49929 126.376 8.37335 125.989 8.37335C125.743 8.37335 125.532 8.44532 125.356 8.58925C125.18 8.73318 125.093 8.92508 125.093 9.16497C125.093 9.40485 125.157 9.59676 125.286 9.74069C125.415 9.87263 125.573 9.96258 125.761 10.0106C125.96 10.0585 126.148 10.0825 126.323 10.0825C126.804 10.0825 127.214 9.95059 127.554 9.68672C127.894 9.41085 128.211 9.11699 128.504 8.80514L129.137 10.6582C128.727 10.9581 128.275 11.234 127.783 11.4858C127.302 11.7377 126.704 11.8637 125.989 11.8637C125.098 11.8637 124.372 11.6478 123.809 11.216C123.258 10.7842 122.982 10.1125 122.982 9.20095C122.982 8.69719 123.1 8.24741 123.334 7.8516C123.569 7.45579 123.914 7.14394 124.372 6.91605C124.829 6.68816 125.392 6.57422 126.06 6.57422Z" fill="#FF5858"/>
<path d="M116.201 23.4683C115.661 23.4683 115.219 23.3679 114.876 23.1671C114.52 22.9663 114.183 22.6525 113.864 22.2258H114.287C113.993 22.5396 113.717 22.7843 113.459 22.96C113.189 23.1482 112.907 23.28 112.612 23.3553C112.318 23.4306 111.962 23.4683 111.545 23.4683C110.833 23.4683 110.269 23.3114 109.852 22.9977C109.435 22.6839 109.14 22.2823 108.969 21.7929C108.797 21.316 108.711 20.8265 108.711 20.3245C108.711 19.5967 108.858 18.9754 109.153 18.4609C109.435 17.9589 109.821 17.5699 110.312 17.2938C110.803 17.0302 111.355 16.8984 111.968 16.8984C112.729 16.8984 113.306 17.0804 113.698 17.4444C114.078 17.8209 114.269 18.2789 114.269 18.8186C114.269 19.4461 114.072 19.9229 113.68 20.2492C113.275 20.5755 112.674 20.7387 111.876 20.7387C111.447 20.7387 111.06 20.6508 110.717 20.4751C110.361 20.312 110.054 20.1112 109.797 19.8727L110.294 18.5927C110.441 18.7935 110.637 18.9817 110.882 19.1574C111.116 19.3331 111.385 19.421 111.692 19.421C111.962 19.421 112.177 19.3708 112.336 19.2704C112.484 19.1825 112.557 19.0382 112.557 18.8374C112.557 18.6993 112.514 18.5676 112.428 18.4421C112.33 18.3291 112.177 18.2726 111.968 18.2726C111.637 18.2726 111.336 18.4107 111.067 18.6868C110.797 18.9629 110.662 19.4523 110.662 20.1551V20.3622C110.662 20.6759 110.705 20.9395 110.79 21.1528C110.864 21.3662 110.993 21.523 111.177 21.6234C111.349 21.7238 111.57 21.774 111.839 21.774C112.318 21.774 112.649 21.6611 112.833 21.4352C113.005 21.2219 113.109 20.996 113.146 20.7575H114.931C114.992 21.2093 115.134 21.4917 115.354 21.6046C115.563 21.7176 115.802 21.774 116.072 21.774C116.391 21.774 116.624 21.6799 116.771 21.4917C116.906 21.3034 116.974 21.0838 116.974 20.8328C116.974 20.3183 116.784 19.8853 116.403 19.5339C116.023 19.1825 115.594 18.8688 115.115 18.5927L116.293 16.8984C116.808 17.162 117.274 17.482 117.692 17.8585C118.109 18.235 118.44 18.6617 118.685 19.1386C118.918 19.6155 119.035 20.1488 119.035 20.7387C119.035 21.5544 118.796 22.2133 118.317 22.7153C117.826 23.2173 117.121 23.4683 116.201 23.4683Z" fill="#FF5858"/>
<path d="M116.433 16.433C115.827 16.433 115.29 16.347 114.823 16.1748C114.356 16.0027 113.883 15.7137 113.403 15.3079C112.936 14.8898 112.374 14.3241 111.718 13.6109C111.364 13.2174 111.086 12.9469 110.884 12.7993C110.682 12.6394 110.449 12.5595 110.184 12.5595C109.982 12.5595 109.78 12.6394 109.578 12.7993C109.388 12.9469 109.294 13.1805 109.294 13.5002C109.294 13.8814 109.395 14.1458 109.597 14.2934C109.811 14.4409 110.058 14.5147 110.335 14.5147C110.638 14.5147 110.941 14.3918 111.244 14.1458C111.547 13.8999 111.762 13.4941 111.888 12.9284L113.46 14.5516C113.207 14.8959 112.942 15.2156 112.665 15.5108C112.399 15.7936 112.065 16.0211 111.661 16.1933C111.257 16.3531 110.714 16.433 110.032 16.433C109.287 16.433 108.675 16.2978 108.195 16.0272C107.728 15.7444 107.381 15.3817 107.154 14.939C106.939 14.4963 106.832 14.029 106.832 13.5371C106.832 12.9346 106.977 12.4181 107.268 11.9877C107.558 11.545 107.956 11.2007 108.461 10.9548C108.966 10.7088 109.534 10.5858 110.165 10.5858C110.695 10.5858 111.162 10.6535 111.566 10.7887C111.97 10.924 112.362 11.1454 112.74 11.4528C113.132 11.7602 113.561 12.166 114.028 12.6702C114.432 13.1006 114.76 13.4264 115.013 13.6478C115.278 13.8691 115.518 14.0167 115.732 14.0905C115.959 14.1643 116.218 14.2011 116.509 14.2011C116.862 14.2011 117.153 14.0782 117.38 13.8322C117.62 13.5863 117.74 13.2174 117.74 12.7255C117.74 12.1476 117.607 11.6372 117.342 11.1945C117.077 10.7519 116.73 10.3583 116.3 10.014C115.884 9.65742 115.436 9.33155 114.956 9.03643L116.433 6.98898C117.178 7.38248 117.847 7.84977 118.44 8.39083C119.034 8.9319 119.501 9.54675 119.842 10.2354C120.195 10.9117 120.372 11.6741 120.372 12.5226C120.372 13.3096 120.22 13.9982 119.917 14.5885C119.614 15.1665 119.166 15.6214 118.573 15.9535C117.992 16.2732 117.279 16.433 116.433 16.433ZM119.273 18.7756C118.566 18.7756 117.998 18.6649 117.569 18.4436C117.153 18.2223 116.85 17.9333 116.66 17.5767C116.483 17.2201 116.395 16.8388 116.395 16.433C116.395 16.2732 116.408 16.1072 116.433 15.935C116.471 15.7629 116.521 15.5969 116.584 15.437H119.027C118.964 15.5354 118.914 15.6337 118.876 15.7321C118.838 15.8182 118.819 15.9043 118.819 15.9904C118.819 16.1256 118.85 16.2486 118.914 16.3593C118.977 16.4699 119.065 16.556 119.179 16.6175C119.292 16.679 119.425 16.7097 119.576 16.7097C119.778 16.7097 119.955 16.6728 120.107 16.5991C120.271 16.5376 120.466 16.4269 120.694 16.267L121.849 17.8902C121.445 18.1854 121.035 18.4067 120.618 18.5543C120.214 18.7018 119.766 18.7756 119.273 18.7756ZM110.638 8.90731C110.045 8.90731 109.521 8.81508 109.067 8.63063C108.612 8.43388 108.227 8.1203 107.911 7.68991C107.596 7.24722 107.35 6.65082 107.173 5.9007L109.748 5.25511C109.887 5.88226 110.039 6.33109 110.203 6.60163C110.367 6.85986 110.594 6.98898 110.884 6.98898C111.074 6.98898 111.263 6.92135 111.453 6.78608C111.642 6.65082 111.894 6.39258 112.21 6.01137L113.005 5.03377C113.447 4.4927 113.864 4.06845 114.255 3.76103C114.647 3.44131 115.069 3.20767 115.524 3.0601C115.991 2.91254 116.547 2.83261 117.19 2.82031L117.342 4.95998C116.913 4.98458 116.54 5.05836 116.225 5.18133C115.922 5.292 115.644 5.45186 115.391 5.66091C115.139 5.86996 114.874 6.14664 114.596 6.49095L113.971 7.24722C113.731 7.54234 113.447 7.81903 113.119 8.07726C112.791 8.3232 112.418 8.5261 112.002 8.68596C111.598 8.83353 111.143 8.90731 110.638 8.90731Z" fill="#FF5858"/>
<path d="M88.0625 11.4136C88.0625 10.5093 88.2627 9.73326 88.6632 9.08557C89.0636 8.43787 89.6518 7.93682 90.4276 7.58242C91.216 7.22802 92.1733 7.05082 93.2996 7.05082C94.4634 7.05082 95.4332 7.2158 96.2091 7.54576C96.985 7.87572 97.5669 8.36455 97.9548 9.01224C98.3552 9.64772 98.5555 10.4421 98.5555 11.3953C98.5555 12.2874 98.3615 13.0817 97.9736 13.7783C97.5856 14.4627 96.9975 15.0004 96.2091 15.3914C95.4332 15.7703 94.4634 15.9597 93.2996 15.9597C92.1483 15.9597 91.1785 15.7642 90.3901 15.3731C89.6142 14.982 89.0323 14.4443 88.6444 13.76C88.2565 13.0756 88.0625 12.2935 88.0625 11.4136ZM90.6717 11.1753C90.6717 11.9208 90.8907 12.5379 91.3287 13.0267C91.7792 13.5033 92.4361 13.7416 93.2996 13.7416C93.8878 13.7416 94.3758 13.6378 94.7637 13.43C95.1642 13.21 95.4583 12.9167 95.646 12.5501C95.8462 12.1713 95.9463 11.7436 95.9463 11.267C95.9463 10.7781 95.8462 10.3382 95.646 9.94712C95.4583 9.55606 95.1704 9.24443 94.7825 9.01224C94.3946 8.76783 93.9003 8.64562 93.2996 8.64562C92.7114 8.64562 92.2171 8.76172 91.8167 8.99391C91.4288 9.2261 91.1409 9.53773 90.9532 9.92879C90.7655 10.3076 90.6717 10.7231 90.6717 11.1753ZM102.892 12.3668C102.316 12.3668 101.84 12.2813 101.465 12.1102C101.09 11.9391 100.789 11.7252 100.564 11.4686C100.351 11.1997 100.201 10.9187 100.113 10.6254C100.026 10.3321 99.9821 10.0632 99.9821 9.81881C99.9821 9.3422 100.063 8.93892 100.226 8.60896C100.401 8.279 100.576 7.9796 100.752 7.71074L102.76 7.85739C102.485 8.11402 102.266 8.36455 102.103 8.60896C101.94 8.85337 101.859 9.165 101.859 9.54384C101.859 9.84936 101.953 10.0999 102.141 10.2954C102.341 10.4909 102.597 10.5887 102.91 10.5887C103.273 10.5887 103.542 10.5032 103.717 10.3321C103.893 10.1488 103.98 9.92268 103.98 9.65383C103.98 9.28721 103.83 9.03057 103.53 8.88393C103.229 8.72506 102.823 8.64562 102.31 8.64562H88.2314V6.57422H100.695C101.459 6.57422 102.091 6.59866 102.591 6.64754C103.092 6.6842 103.517 6.75753 103.868 6.86751C104.231 6.9775 104.562 7.14859 104.863 7.38078C105.175 7.61298 105.426 7.90627 105.613 8.26067C105.801 8.61507 105.895 9.06112 105.895 9.59883C105.895 10.3932 105.632 11.0531 105.107 11.5786C104.581 12.1041 103.843 12.3668 102.892 12.3668Z" fill="#FF5858"/>
<path d="M75.5623 15.9597C74.78 15.9597 74.1504 15.8314 73.6737 15.5747C73.2092 15.3059 72.8731 14.9637 72.6653 14.5482C72.4697 14.1327 72.3719 13.6928 72.3719 13.2284C72.3719 12.6296 72.5064 12.1346 72.7753 11.7436C73.0442 11.3525 73.3987 11.0653 73.8387 10.882C74.291 10.6865 74.7677 10.5887 75.2689 10.5887C75.9045 10.5887 76.4363 10.6987 76.8641 10.9187C77.3041 11.1264 77.6647 11.3769 77.9459 11.6702C78.2393 11.9513 78.4715 12.2018 78.6426 12.4218L77.7075 14.2916C77.5731 13.9616 77.408 13.65 77.2125 13.3567C77.0291 13.0634 76.8091 12.8251 76.5524 12.6418C76.2957 12.4463 75.9901 12.3485 75.6356 12.3485C75.3667 12.3485 75.1222 12.4218 74.9022 12.5685C74.6822 12.7151 74.5722 12.9473 74.5722 13.265C74.5722 13.5461 74.6638 13.7661 74.8472 13.925C75.0305 14.0838 75.275 14.1633 75.5806 14.1633C75.984 14.1633 76.3018 14.0533 76.5341 13.8333C76.7785 13.6133 76.9497 13.32 77.0475 12.9534C77.1452 12.5868 77.1941 12.1896 77.1941 11.7619V11.4136C77.1941 10.9003 77.1269 10.4482 76.9924 10.0571C76.858 9.66605 76.6441 9.36053 76.3507 9.14056C76.0573 8.90837 75.6723 8.79227 75.1956 8.79227C74.9022 8.79227 74.6394 8.85337 74.4071 8.97558C74.1749 9.08557 73.9793 9.24444 73.8204 9.45219C73.6737 9.64772 73.5576 9.8738 73.472 10.1304H71.1067C71.0456 9.9349 70.9356 9.72104 70.7767 9.48885C70.63 9.24443 70.41 9.03668 70.1166 8.86559C69.8233 8.68228 69.4199 8.59063 68.9065 8.59063C68.4787 8.59063 68.1303 8.66395 67.8614 8.8106C67.6047 8.94503 67.4763 9.17111 67.4763 9.48885C67.4763 9.61105 67.4947 9.72715 67.5313 9.83714C67.5802 9.9349 67.6658 10.0204 67.788 10.0938C67.898 10.1549 68.0386 10.2099 68.2097 10.2587C68.3931 10.2954 68.6742 10.3137 69.0532 10.3137H70.135V12.2202H68.9982C68.6192 12.2202 68.3259 12.2385 68.1181 12.2752C67.9103 12.3118 67.7452 12.379 67.623 12.4768C67.5374 12.5501 67.4641 12.6418 67.403 12.7518C67.3541 12.8495 67.3296 12.9656 67.3296 13.1001C67.3296 13.3445 67.4091 13.5461 67.568 13.705C67.7391 13.8638 68.0142 13.9433 68.3931 13.9433C68.7965 13.9433 69.1571 13.8394 69.4749 13.6317C69.8049 13.4239 70.1227 13.1489 70.4283 12.8068L72.0052 14.1999C71.6752 14.5788 71.3146 14.9026 70.9234 15.1715C70.5445 15.4281 70.1227 15.6236 69.6582 15.7581C69.1937 15.8925 68.662 15.9597 68.0631 15.9597C66.914 15.9597 66.0462 15.7214 65.4594 15.2448C64.8849 14.756 64.5977 14.1571 64.5977 13.4483C64.5977 13.1062 64.6649 12.7884 64.7993 12.4951C64.9338 12.1896 65.1416 11.9269 65.4227 11.7069C65.7161 11.4747 66.0828 11.2914 66.5229 11.157L66.5045 11.3953C65.8934 11.1875 65.4472 10.8759 65.1661 10.4604C64.8849 10.0449 64.7443 9.58661 64.7443 9.08557C64.7443 8.32789 65.0744 7.72296 65.7345 7.2708C66.3945 6.80641 67.2685 6.57422 68.3564 6.57422C69.0043 6.57422 69.5543 6.63532 70.0066 6.75753C70.4711 6.86751 70.8989 7.05082 71.2901 7.30746C71.6813 7.55187 72.0785 7.88794 72.4819 8.31566L72.0969 8.334C72.378 7.96737 72.6714 7.65575 72.977 7.39911C73.2948 7.13026 73.6493 6.92862 74.0404 6.79419C74.4438 6.64754 74.9205 6.57422 75.4706 6.57422C76.3874 6.57422 77.1513 6.78197 77.7625 7.19747C78.3737 7.60075 78.8321 8.16902 79.1377 8.90226C79.4555 9.62328 79.6144 10.4543 79.6144 11.3953C79.6144 12.3607 79.4677 13.1856 79.1744 13.87C78.881 14.5421 78.4348 15.0615 77.8359 15.4281C77.2369 15.7825 76.479 15.9597 75.5623 15.9597Z" fill="#FF5858"/>
<path d="M50.1131 7.0361C51.1766 7.0361 52.0945 7.19006 52.8668 7.49799C53.6391 7.80591 54.2341 8.26779 54.6519 8.88364C55.0697 9.49948 55.2786 10.2631 55.2786 11.1746C55.2786 11.9259 55.209 12.591 55.0697 13.1699C54.9304 13.7488 54.7532 14.2661 54.538 14.7218C54.3227 15.1653 54.1075 15.5779 53.8923 15.9597L51.3475 14.999C51.5627 14.7157 51.7653 14.4016 51.9552 14.0567C52.1578 13.6995 52.3224 13.3054 52.449 12.8743C52.5756 12.4432 52.6389 11.9752 52.6389 11.4702C52.6389 10.9898 52.5566 10.5341 52.392 10.103C52.2274 9.67192 51.9552 9.32704 51.5754 9.06839C51.2082 8.79742 50.7018 8.66193 50.0561 8.66193C49.5371 8.66193 49.0876 8.77894 48.7078 9.01296C48.3406 9.24698 48.0558 9.57338 47.8532 9.99216C47.6506 10.3986 47.5493 10.8728 47.5493 11.4148C47.5493 12.1291 47.6696 12.7881 47.9102 13.3916C48.1507 13.9828 48.4609 14.5125 48.8407 14.9805L46.277 15.9597C45.8845 15.3069 45.5553 14.5925 45.2894 13.8166C45.0236 13.0406 44.8906 12.2215 44.8906 11.3593C44.8906 10.5464 45.0869 9.81356 45.4793 9.16077C45.8845 8.50797 46.4732 7.99066 47.2455 7.60884C48.0178 7.22701 48.9737 7.0361 50.1131 7.0361ZM59.6655 12.4124C59.0831 12.4124 58.602 12.3262 58.2222 12.1538C57.8424 11.9813 57.5449 11.7658 57.3296 11.5071C57.1144 11.2362 56.9625 10.9529 56.8738 10.6573C56.7852 10.3617 56.7409 10.0907 56.7409 9.84435C56.7409 9.364 56.8232 8.95754 56.9878 8.62498C57.165 8.29243 57.3423 7.99066 57.5195 7.71969L59.5516 7.86749C59.273 8.12615 59.0515 8.37864 58.8869 8.62498C58.7223 8.87132 58.64 9.1854 58.64 9.56722C58.64 9.87515 58.735 10.1276 58.9249 10.3247C59.1274 10.5218 59.387 10.6203 59.7035 10.6203C60.0706 10.6203 60.3428 10.5341 60.5201 10.3617C60.6973 10.1769 60.786 9.94905 60.786 9.67808C60.786 9.30857 60.634 9.04991 60.3302 8.90211C60.0263 8.74199 59.6212 8.66193 59.1148 8.66193H44.9856V6.57422H57.4626C58.2349 6.57422 58.8742 6.59885 59.3806 6.64812C59.8871 6.68507 60.3175 6.75897 60.672 6.86982C61.0392 6.98068 61.3747 7.15311 61.6785 7.38713C61.995 7.62115 62.2483 7.91676 62.4382 8.27395C62.6281 8.63114 62.723 9.08071 62.723 9.62265C62.723 10.4232 62.4508 11.0884 61.9064 11.618C61.3747 12.1476 60.6277 12.4124 59.6655 12.4124Z" fill="#FF5858"/>
<path d="M33.625 12.6919C33.625 11.8856 33.8173 11.1625 34.202 10.5226C34.5866 9.88264 35.1315 9.3771 35.8367 9.00595C36.5419 8.6348 37.3818 8.44922 38.3562 8.44922C39.3435 8.44922 40.1833 8.6348 40.8757 9.00595C41.568 9.3771 42.0937 9.88264 42.4527 10.5226C42.8246 11.1625 43.0105 11.8856 43.0105 12.6919C43.0105 13.4982 42.8246 14.2213 42.4527 14.8612C42.0809 15.4883 41.5424 15.9875 40.8372 16.3586C40.1448 16.717 39.305 16.8961 38.3177 16.8961C37.3433 16.8961 36.5035 16.7106 35.7983 16.3394C35.0931 15.9683 34.5546 15.4691 34.1827 14.842C33.8109 14.2021 33.625 13.4854 33.625 12.6919ZM36.2022 12.6727C36.2022 13.2614 36.3753 13.7605 36.7214 14.1701C37.0804 14.5668 37.6125 14.7652 38.3177 14.7652C38.7921 14.7652 39.1832 14.6756 39.4909 14.4965C39.7986 14.3045 40.0294 14.0485 40.1833 13.7285C40.35 13.4086 40.4333 13.0566 40.4333 12.6727C40.4333 12.084 40.2474 11.5912 39.8756 11.1945C39.5166 10.7849 38.9973 10.5801 38.3177 10.5801C37.869 10.5801 37.4843 10.6761 37.1638 10.8681C36.8561 11.0473 36.6189 11.2969 36.4522 11.6168C36.2855 11.924 36.2022 12.2759 36.2022 12.6727Z" fill="#FF5858"/>
<path d="M25.1792 15.9597C23.7647 15.9597 22.5674 15.7336 21.5872 15.2814C20.607 14.8171 19.8625 14.1938 19.3538 13.4117C18.8575 12.6173 18.6094 11.7252 18.6094 10.7354C18.6094 9.87991 18.7769 9.14056 19.1119 8.5173C19.4593 7.89405 19.9432 7.41744 20.5636 7.08749C21.184 6.74531 21.8974 6.57422 22.7039 6.57422C23.4483 6.57422 24.0501 6.70865 24.5092 6.9775C24.9683 7.23413 25.3033 7.5702 25.5142 7.98571C25.7251 8.38899 25.8306 8.8106 25.8306 9.25055C25.8306 9.8127 25.7065 10.2954 25.4584 10.6987C25.2102 11.102 24.8504 11.4075 24.3789 11.6152C23.9074 11.823 23.3305 11.9269 22.6481 11.9269C22.1517 11.9269 21.7113 11.8597 21.3266 11.7252C20.942 11.5908 20.607 11.4258 20.3216 11.2303C20.0487 11.0348 19.8191 10.8576 19.633 10.6987L20.0611 8.97558C20.21 9.15889 20.3837 9.3422 20.5822 9.52551C20.7931 9.70882 21.0289 9.86158 21.2894 9.98379C21.55 10.0938 21.8292 10.1488 22.1269 10.1488C22.5116 10.1488 22.8218 10.0816 23.0575 9.94712C23.2933 9.80048 23.4111 9.56217 23.4111 9.23221C23.4111 9.02446 23.3367 8.83504 23.1878 8.66395C23.0389 8.48064 22.8218 8.38899 22.5364 8.38899C22.1021 8.38899 21.7423 8.5723 21.4569 8.93892C21.1715 9.29332 21.0289 9.72104 21.0289 10.2221V10.937C21.0289 11.2303 21.0909 11.5419 21.215 11.8719C21.3515 12.1896 21.5748 12.4951 21.885 12.7884C22.2076 13.0695 22.6418 13.3017 23.1878 13.485C23.7461 13.6561 24.441 13.7416 25.2723 13.7416C26.4386 13.7416 27.3754 13.5461 28.0826 13.155C28.8022 12.7518 29.1621 12.1224 29.1621 11.267C29.1621 10.6926 28.9821 10.216 28.6223 9.83714C28.2749 9.44608 27.729 9.0489 26.9845 8.64562L28.4362 6.57422C29.4164 7.05082 30.2105 7.68019 30.8185 8.46231C31.4388 9.23221 31.749 10.1793 31.749 11.3036C31.749 12.1713 31.5133 12.9595 31.0418 13.6683C30.5827 14.3649 29.8693 14.9209 28.9015 15.3364C27.9337 15.7519 26.6929 15.9597 25.1792 15.9597Z" fill="#FF5858"/>
<path d="M14.454 5.7158C14.454 6.14341 14.3683 6.54047 14.197 6.90699C14.0256 7.2735 13.787 7.56061 13.481 7.7683C13.1506 8.00043 12.7222 8.19591 12.196 8.35473C11.6819 8.50134 11.1557 8.57464 10.6172 8.57464H7.62484V6.57712H10.6355C10.9905 6.57712 11.2536 6.55879 11.4249 6.52214C11.6085 6.47327 11.7492 6.40608 11.8472 6.32056C11.9206 6.24725 11.9757 6.16784 12.0124 6.08232C12.0491 5.98458 12.0675 5.88074 12.0675 5.77078C12.0675 5.62417 12.0491 5.502 12.0124 5.40426C11.9757 5.29431 11.9145 5.20268 11.8288 5.12937C11.7309 5.04385 11.5901 4.98277 11.4066 4.94612C11.2352 4.90946 10.9476 4.89114 10.5437 4.89114H3.47595V2.82031H10.3051C11.174 2.82031 11.8472 2.88751 12.3245 3.0219C12.814 3.14407 13.2362 3.35176 13.5912 3.64498C13.8482 3.86489 14.0562 4.14589 14.2153 4.48797C14.3744 4.83005 14.454 5.23933 14.454 5.7158ZM8.01036 15.96C6.32143 15.96 4.94459 15.7645 3.87983 15.3735C2.81507 14.9826 2.0318 14.4328 1.53002 13.7242C1.02824 13.0156 0.777344 12.1971 0.777344 11.2685C0.777344 10.5599 0.942565 9.93687 1.27301 9.39931C1.60345 8.86175 2.05628 8.44025 2.63149 8.13482C3.21894 7.82939 3.88595 7.67667 4.6325 7.67667C5.30563 7.67667 5.8686 7.79885 6.32143 8.04319C6.77426 8.27532 7.11694 8.59297 7.34947 8.99614C7.582 9.39931 7.69827 9.85135 7.69827 10.3523C7.69827 11.2075 7.4229 11.855 6.87217 12.2948C6.32143 12.7224 5.56875 12.9362 4.61414 12.9362C4.17355 12.9362 3.75744 12.869 3.36581 12.7346C2.98641 12.588 2.64373 12.4109 2.33777 12.2032C2.0318 11.9955 1.77479 11.8 1.56673 11.6167L2.1909 10.1323C2.42344 10.4011 2.70492 10.6577 3.03537 10.902C3.36581 11.1342 3.75744 11.2502 4.21027 11.2502C4.57743 11.2502 4.87727 11.1769 5.10981 11.0303C5.35458 10.8837 5.47697 10.6516 5.47697 10.3339C5.47697 10.0896 5.39741 9.888 5.23831 9.72917C5.07921 9.57035 4.84056 9.49094 4.52235 9.49094C4.26534 9.49094 4.02057 9.56424 3.78804 9.71085C3.55551 9.84524 3.36581 10.0529 3.21894 10.3339C3.07208 10.6027 2.99865 10.9387 2.99865 11.3419V11.4518C2.99865 11.8183 3.09044 12.1482 3.27402 12.4414C3.46984 12.7346 3.76968 12.9851 4.17355 13.1928C4.57743 13.3882 5.09757 13.541 5.73398 13.6509C6.37038 13.7487 7.1353 13.7975 8.02871 13.7975C8.97109 13.7975 9.79107 13.7548 10.4887 13.6692C11.1863 13.5837 11.7615 13.4493 12.2143 13.2661C12.6671 13.0706 13.0037 12.814 13.224 12.4964C13.4565 12.1665 13.5728 11.7633 13.5728 11.2869V11.2319C13.5728 10.7432 13.4259 10.3278 13.1322 9.98574C12.8385 9.64365 12.4224 9.47261 11.8839 9.47261C11.6146 9.47261 11.3637 9.54592 11.1312 9.69252C10.9109 9.82691 10.8008 10.0468 10.8008 10.3523C10.8008 10.6821 10.9048 10.9142 11.1128 11.0486C11.3209 11.1708 11.5779 11.2319 11.8839 11.2319C12.1898 11.2319 12.4468 11.1708 12.6549 11.0486C12.863 10.9265 13.0404 10.7554 13.1873 10.5355C13.3341 10.3034 13.4504 10.0346 13.5361 9.72917L14.5458 11.067C14.2888 11.4335 14.0256 11.7633 13.7564 12.0566C13.4994 12.3376 13.1873 12.5575 12.8201 12.7163C12.453 12.8751 11.9757 12.9545 11.3882 12.9545C10.9231 12.9545 10.4764 12.8812 10.0481 12.7346C9.61973 12.5758 9.27093 12.3253 9.00168 11.9833C8.74467 11.629 8.61617 11.1586 8.61617 10.5722C8.61617 9.86356 8.8793 9.30157 9.40556 8.88618C9.93182 8.45858 10.6661 8.24478 11.6085 8.24478C11.841 8.24478 12.0491 8.25089 12.2327 8.2631C12.4163 8.27532 12.5876 8.29365 12.7467 8.31808C12.9058 8.3303 13.0588 8.35473 13.2056 8.39138L11.0761 8.42804C10.917 8.37917 10.7457 8.34251 10.5621 8.31808C10.3908 8.28143 10.2133 8.25699 10.0297 8.24478C9.85838 8.22034 9.6748 8.20813 9.47899 8.20813L10.2684 6.7787C11.0394 6.81536 11.7554 6.94364 12.4163 7.16355C13.0894 7.37124 13.6768 7.67057 14.1786 8.06152C14.6804 8.44025 15.072 8.90451 15.3535 9.45429C15.6472 9.99185 15.7941 10.6088 15.7941 11.3052C15.7941 12.0871 15.6472 12.7713 15.3535 13.3577C15.0598 13.9319 14.6008 14.4145 13.9767 14.8054C13.3525 15.1842 12.5448 15.4713 11.5534 15.6668C10.5743 15.8622 9.39332 15.96 8.01036 15.96Z" fill="#FF5858"/>
</svg>
