<svg width="290" height="25" viewBox="0 0 290 25" fill="none" xmlns="http://www.w3.org/2000/svg">
<path d="M286.495 23.228C285.93 23.228 285.469 23.1373 285.112 22.9559C284.744 22.7867 284.381 22.4783 284.025 22.031H284.449C284.031 22.4783 283.643 22.7867 283.287 22.9559C282.918 23.1373 282.463 23.228 281.922 23.228C281.382 23.228 280.933 23.1071 280.576 22.8652C280.22 22.6234 279.956 22.303 279.784 21.904C279.611 21.505 279.525 21.0758 279.525 20.6164C279.525 19.8546 279.734 19.1957 280.152 18.6395C280.558 18.0833 281.117 17.6541 281.83 17.3518C282.531 17.0496 283.324 16.8984 284.209 16.8984C285.119 16.8984 285.93 17.0556 286.643 17.37C287.344 17.6964 287.897 18.1377 288.302 18.6939C288.708 19.2622 288.911 19.9151 288.911 20.6526C288.911 21.0879 288.837 21.499 288.69 21.8859C288.53 22.2849 288.272 22.6053 287.915 22.8471C287.559 23.101 287.085 23.228 286.495 23.228ZM286.053 21.5957C286.299 21.5957 286.495 21.505 286.643 21.3237C286.79 21.1423 286.864 20.9005 286.864 20.5982C286.864 19.9574 286.612 19.4496 286.108 19.0748C285.604 18.7121 284.971 18.5307 284.209 18.5307C283.385 18.5307 282.74 18.7121 282.273 19.0748C281.793 19.4375 281.554 19.9332 281.554 20.5619C281.554 20.8763 281.627 21.1242 281.775 21.3055C281.922 21.499 282.125 21.5957 282.383 21.5957C282.629 21.5957 282.832 21.5353 282.992 21.4143C283.139 21.3055 283.262 21.1484 283.361 20.9428H285.057C285.155 21.1725 285.278 21.3358 285.426 21.4325C285.573 21.5413 285.782 21.5957 286.053 21.5957ZM283.305 24.4068L283.379 22.9378H285.002L285.131 24.4068H283.305ZM283.232 19.8728C283.232 19.6068 283.324 19.4073 283.508 19.2743C283.693 19.1534 283.926 19.0929 284.209 19.0929C284.529 19.0929 284.774 19.1594 284.946 19.2924C285.119 19.4254 285.205 19.6189 285.205 19.8728C285.205 20.1509 285.119 20.3504 284.946 20.4713C284.762 20.5922 284.516 20.6526 284.209 20.6526C283.914 20.6526 283.68 20.5861 283.508 20.4531C283.324 20.3322 283.232 20.1388 283.232 19.8728Z" fill="#FF5858"/>
<path d="M285.92 15.9422C285.403 15.9422 284.905 15.8711 284.425 15.7288C283.957 15.5984 283.471 15.3554 282.967 14.9998C282.475 14.6442 281.934 14.1464 281.343 13.5063C281.072 13.21 280.851 12.9907 280.679 12.8484C280.519 12.6943 280.383 12.5936 280.273 12.5462C280.162 12.4869 280.039 12.4573 279.904 12.4573C279.744 12.4573 279.596 12.5224 279.461 12.6528C279.325 12.7832 279.258 12.961 279.258 13.1862C279.258 13.4826 279.325 13.7967 279.461 14.1286C279.608 14.4605 279.817 14.8161 280.088 15.1954L277.504 15.96C277.283 15.5451 277.092 15.1065 276.932 14.6442C276.785 14.1701 276.711 13.6604 276.711 13.1151C276.711 12.5699 276.846 12.0898 277.117 11.6749C277.388 11.2482 277.757 10.9163 278.224 10.6792C278.704 10.4303 279.245 10.3058 279.848 10.3058C280.414 10.3058 280.912 10.3888 281.343 10.5548C281.774 10.7207 282.173 10.9578 282.543 11.266C282.924 11.5742 283.312 11.9416 283.705 12.3684C284.062 12.7358 284.363 13.0262 284.609 13.2396C284.856 13.4411 285.089 13.5833 285.311 13.6663C285.545 13.7493 285.797 13.7908 286.067 13.7908C286.412 13.7908 286.701 13.6722 286.935 13.4352C287.169 13.1981 287.285 12.8425 287.285 12.3684C287.285 11.8112 287.156 11.3193 286.898 10.8926C286.64 10.4659 286.301 10.0865 285.883 9.75464C285.465 9.41089 285.022 9.09677 284.554 8.81228L286.012 6.83867C286.738 7.21798 287.39 7.66842 287.968 8.18997C288.546 8.71153 289.002 9.30421 289.334 9.96801C289.678 10.62 289.851 11.3549 289.851 12.1728C289.851 12.9314 289.697 13.5952 289.389 14.1642C289.094 14.7213 288.651 15.1599 288.061 15.4799C287.482 15.7881 286.769 15.9422 285.92 15.9422ZM280.42 8.68782C279.842 8.68782 279.331 8.59892 278.889 8.42112C278.446 8.23146 278.07 7.92919 277.763 7.51432C277.455 7.08759 277.215 6.51269 277.043 5.78963L279.553 5.16732C279.688 5.77185 279.836 6.2045 279.996 6.46528C280.156 6.7142 280.377 6.83867 280.66 6.83867C280.845 6.83867 281.029 6.77347 281.214 6.64308C281.398 6.51269 281.644 6.26377 281.952 5.89631L282.727 4.95395C283.158 4.4324 283.564 4.02345 283.945 3.72711C284.327 3.41892 284.739 3.1937 285.182 3.05146C285.637 2.90921 286.178 2.83217 286.806 2.82031L286.953 4.88283C286.535 4.90654 286.172 4.97766 285.864 5.09619C285.569 5.20288 285.298 5.35697 285.052 5.55848C284.806 5.75999 284.548 6.0267 284.277 6.3586L283.668 7.08759C283.435 7.37208 283.158 7.63878 282.838 7.88771C282.518 8.12478 282.155 8.32036 281.749 8.47446C281.355 8.6167 280.912 8.68782 280.42 8.68782Z" fill="#FF5858"/>
<path d="M265.447 12.6919C265.447 11.8856 265.64 11.1625 266.024 10.5226C266.409 9.88264 266.954 9.3771 267.659 9.00595C268.364 8.6348 269.204 8.44922 270.178 8.44922C271.166 8.44922 272.006 8.6348 272.698 9.00595C273.39 9.3771 273.916 9.88264 274.275 10.5226C274.647 11.1625 274.833 11.8856 274.833 12.6919C274.833 13.4982 274.647 14.2213 274.275 14.8612C273.903 15.4883 273.365 15.9875 272.659 16.3586C271.967 16.717 271.127 16.8961 270.14 16.8961C269.166 16.8961 268.326 16.7106 267.621 16.3394C266.915 15.9683 266.377 15.4691 266.005 14.842C265.633 14.2021 265.447 13.4854 265.447 12.6919ZM268.024 12.6727C268.024 13.2614 268.198 13.7605 268.544 14.1701C268.903 14.5668 269.435 14.7652 270.14 14.7652C270.614 14.7652 271.005 14.6756 271.313 14.4965C271.621 14.3045 271.852 14.0485 272.006 13.7285C272.172 13.4086 272.256 13.0566 272.256 12.6727C272.256 12.084 272.07 11.5912 271.698 11.1945C271.339 10.7849 270.82 10.5801 270.14 10.5801C269.691 10.5801 269.307 10.6761 268.986 10.8681C268.678 11.0473 268.441 11.2969 268.274 11.6168C268.108 11.924 268.024 12.2759 268.024 12.6727Z" fill="#FF5858"/>
<path d="M258.701 15.9422C258.184 15.9422 257.686 15.8711 257.206 15.7288C256.739 15.5984 256.253 15.3554 255.748 14.9998C255.256 14.6442 254.715 14.1464 254.124 13.5063C253.854 13.21 253.632 12.9907 253.46 12.8484C253.3 12.6943 253.165 12.5936 253.054 12.5462C252.943 12.4869 252.82 12.4573 252.685 12.4573C252.525 12.4573 252.377 12.5224 252.242 12.6528C252.107 12.7832 252.039 12.961 252.039 13.1862C252.039 13.4826 252.107 13.7967 252.242 14.1286C252.39 14.4605 252.599 14.8161 252.869 15.1954L250.286 15.96C250.064 15.5451 249.874 15.1065 249.714 14.6442C249.566 14.1701 249.492 13.6604 249.492 13.1151C249.492 12.5699 249.628 12.0898 249.898 11.6749C250.169 11.2482 250.538 10.9163 251.005 10.6792C251.485 10.4303 252.027 10.3058 252.629 10.3058C253.195 10.3058 253.694 10.3888 254.124 10.5548C254.555 10.7207 254.955 10.9578 255.324 11.266C255.705 11.5742 256.093 11.9416 256.486 12.3684C256.843 12.7358 257.145 13.0262 257.391 13.2396C257.637 13.4411 257.871 13.5833 258.092 13.6663C258.326 13.7493 258.578 13.7908 258.849 13.7908C259.193 13.7908 259.482 13.6722 259.716 13.4352C259.95 13.1981 260.067 12.8425 260.067 12.3684C260.067 11.8112 259.937 11.3193 259.679 10.8926C259.421 10.4659 259.082 10.0865 258.664 9.75464C258.246 9.41089 257.803 9.09677 257.335 8.81228L258.793 6.83867C259.519 7.21798 260.171 7.66842 260.749 8.18997C261.328 8.71153 261.783 9.30421 262.115 9.96801C262.46 10.62 262.632 11.3549 262.632 12.1728C262.632 12.9314 262.478 13.5952 262.17 14.1642C261.875 14.7213 261.432 15.1599 260.842 15.4799C260.264 15.7881 259.55 15.9422 258.701 15.9422ZM253.202 8.68782C252.623 8.68782 252.113 8.59892 251.67 8.42112C251.227 8.23146 250.852 7.92919 250.544 7.51432C250.237 7.08759 249.997 6.51269 249.824 5.78963L252.334 5.16732C252.47 5.77185 252.617 6.2045 252.777 6.46528C252.937 6.7142 253.158 6.83867 253.441 6.83867C253.626 6.83867 253.811 6.77347 253.995 6.64308C254.18 6.51269 254.426 6.26377 254.733 5.89631L255.508 4.95395C255.939 4.4324 256.345 4.02345 256.726 3.72711C257.108 3.41892 257.52 3.1937 257.963 3.05146C258.418 2.90921 258.959 2.83217 259.587 2.82031L259.734 4.88283C259.316 4.90654 258.953 4.97766 258.646 5.09619C258.35 5.20288 258.08 5.35697 257.834 5.55848C257.588 5.75999 257.329 6.0267 257.059 6.3586L256.45 7.08759C256.216 7.37208 255.939 7.63878 255.619 7.88771C255.299 8.12478 254.936 8.32036 254.53 8.47446C254.137 8.6167 253.694 8.68782 253.202 8.68782Z" fill="#FF5858"/>
<path d="M230.573 15.9597C229.78 15.9597 229.142 15.8314 228.659 15.5747C228.188 15.3059 227.847 14.9637 227.636 14.5482C227.438 14.1327 227.339 13.6928 227.339 13.2284C227.339 12.6296 227.475 12.1346 227.748 11.7436C228.021 11.3525 228.38 11.0653 228.826 10.882C229.284 10.6865 229.768 10.5887 230.276 10.5887C230.92 10.5887 231.459 10.6987 231.892 10.9187C232.338 11.1264 232.704 11.3769 232.989 11.6702C233.286 11.9513 233.522 12.2018 233.695 12.4218L232.747 14.2916C232.611 13.9616 232.444 13.65 232.246 13.3567C232.06 13.0634 231.837 12.8251 231.576 12.6418C231.316 12.4463 231.007 12.3485 230.647 12.3485C230.375 12.3485 230.127 12.4218 229.904 12.5685C229.681 12.7151 229.569 12.9473 229.569 13.265C229.569 13.5461 229.662 13.7661 229.848 13.925C230.034 14.0838 230.282 14.1633 230.591 14.1633C231 14.1633 231.322 14.0533 231.558 13.8333C231.806 13.6133 231.979 13.32 232.078 12.9534C232.177 12.5868 232.227 12.1896 232.227 11.7619V11.3036C232.227 10.8026 232.159 10.3504 232.022 9.94712C231.886 9.54384 231.669 9.2261 231.372 8.99391C231.087 8.76172 230.703 8.64562 230.22 8.64562C229.922 8.64562 229.65 8.71284 229.402 8.84726C229.167 8.96947 228.968 9.14056 228.807 9.36053C228.646 9.5805 228.529 9.83714 228.454 10.1304H226.057C225.995 9.9349 225.883 9.72104 225.722 9.48885C225.573 9.24443 225.35 9.03668 225.053 8.86559C224.756 8.68228 224.347 8.59063 223.826 8.59063C223.393 8.59063 223.04 8.66395 222.767 8.8106C222.507 8.94503 222.377 9.17111 222.377 9.48885C222.377 9.61105 222.395 9.72715 222.433 9.83714C222.482 9.9349 222.569 10.0204 222.693 10.0938C222.804 10.1549 222.947 10.2099 223.12 10.2587C223.306 10.2954 223.591 10.3137 223.975 10.3137H225.072V12.2202H223.919C223.535 12.2202 223.238 12.2385 223.027 12.2752C222.817 12.3118 222.649 12.379 222.526 12.4768C222.439 12.5501 222.364 12.6418 222.303 12.7518C222.253 12.8495 222.228 12.9656 222.228 13.1001C222.228 13.3445 222.309 13.5461 222.47 13.705C222.643 13.8638 222.922 13.9433 223.306 13.9433C223.715 13.9433 224.08 13.8394 224.403 13.6317C224.737 13.4239 225.059 13.1489 225.369 12.8068L226.967 14.1999C226.633 14.5788 226.267 14.9026 225.871 15.1715C225.487 15.4281 225.059 15.6236 224.588 15.7581C224.118 15.8925 223.579 15.9597 222.972 15.9597C221.807 15.9597 220.927 15.7214 220.332 15.2448C219.75 14.756 219.459 14.1571 219.459 13.4483C219.459 13.1062 219.527 12.7884 219.663 12.4951C219.8 12.1896 220.01 11.9269 220.295 11.7069C220.593 11.4747 220.964 11.2914 221.41 11.157L221.392 11.3953C220.785 11.1753 220.332 10.8881 220.035 10.5337C219.75 10.1671 219.608 9.73326 219.608 9.23221C219.608 8.78005 219.769 8.3951 220.091 8.07736C220.425 7.7474 220.884 7.49077 221.466 7.30746C222.048 7.12415 222.718 7.03249 223.473 7.03249C224.142 7.03249 224.7 7.11193 225.146 7.2708C225.604 7.41744 226.007 7.63742 226.354 7.93071C226.713 8.21179 227.085 8.56008 227.469 8.97558L227.042 8.99391C227.339 8.57841 227.661 8.24234 228.008 7.98571C228.355 7.71685 228.727 7.52132 229.123 7.39911C229.532 7.26469 229.96 7.19747 230.406 7.19747C231.347 7.19747 232.134 7.36245 232.766 7.69241C233.398 8.02237 233.875 8.50508 234.197 9.14056C234.519 9.77603 234.68 10.552 234.68 11.4686C234.68 12.3729 234.531 13.1673 234.234 13.8516C233.937 14.5238 233.485 15.0431 232.877 15.4098C232.27 15.7764 231.502 15.9597 230.573 15.9597ZM238.992 12.3668C238.422 12.3668 237.951 12.2813 237.579 12.1102C237.208 11.9391 236.917 11.7252 236.706 11.4686C236.495 11.1997 236.347 10.9187 236.26 10.6254C236.173 10.3321 236.13 10.0632 236.13 9.81881C236.13 9.31776 236.21 8.90837 236.371 8.59063C236.532 8.27289 236.7 7.9796 236.873 7.71074L238.88 7.85739C238.608 8.11402 238.391 8.36455 238.23 8.60896C238.069 8.85337 237.988 9.165 237.988 9.54384C237.988 9.84936 238.081 10.0999 238.267 10.2954C238.465 10.4909 238.713 10.5887 239.01 10.5887C239.37 10.5887 239.636 10.5032 239.81 10.3321C239.996 10.1488 240.088 9.92268 240.088 9.65383C240.088 9.28721 239.934 9.03057 239.624 8.88393C239.326 8.72506 238.924 8.64562 238.416 8.64562H225.778L224.514 8.15068L222.228 8.64562H219.663V6.57422H236.817C237.573 6.57422 238.199 6.59866 238.695 6.64754C239.203 6.6842 239.63 6.75753 239.977 6.86751C240.336 6.9775 240.665 7.14859 240.962 7.38078C241.272 7.61298 241.519 7.90627 241.705 8.26067C241.891 8.61507 241.984 9.06112 241.984 9.59883C241.984 10.3932 241.718 11.0531 241.185 11.5786C240.665 12.1041 239.934 12.3668 238.992 12.3668Z" fill="#FF5858"/>
<path d="M207.407 15.9597C206.805 15.9597 206.273 15.8741 205.809 15.7031C205.345 15.532 204.875 15.2448 204.398 14.8415C203.935 14.426 203.377 13.8638 202.725 13.155C202.374 12.764 202.098 12.4951 201.897 12.3485C201.697 12.1896 201.465 12.1102 201.202 12.1102C201.001 12.1102 200.8 12.1896 200.6 12.3485C200.412 12.4951 200.318 12.7273 200.318 13.0451C200.318 13.4239 200.418 13.6866 200.619 13.8333C200.832 13.9799 201.076 14.0533 201.352 14.0533C201.653 14.0533 201.954 13.9311 202.255 13.6866C202.556 13.4422 202.769 13.039 202.894 12.4768L204.455 14.0899C204.204 14.4321 203.941 14.7498 203.665 15.0431C203.402 15.3242 203.07 15.5503 202.668 15.7214C202.267 15.8803 201.728 15.9597 201.051 15.9597C200.311 15.9597 199.703 15.8253 199.227 15.5564C198.763 15.2753 198.418 14.9148 198.193 14.4749C197.98 14.0227 197.873 13.5522 197.873 13.0634C197.873 12.4768 198.017 11.9696 198.306 11.5419C198.594 11.102 198.989 10.7598 199.49 10.5154C199.992 10.271 200.556 10.1488 201.183 10.1488C201.709 10.1488 202.173 10.216 202.574 10.3504C202.976 10.4848 203.364 10.7048 203.74 11.0103C204.129 11.3158 204.555 11.7191 205.019 12.2202C205.42 12.6479 205.752 12.9717 206.016 13.1917C206.279 13.4117 206.517 13.5583 206.73 13.6317C206.943 13.705 207.163 13.7416 207.388 13.7416C207.79 13.7416 208.109 13.6194 208.347 13.375C208.586 13.1306 208.705 12.7395 208.705 12.2018C208.705 11.5786 208.536 11.0103 208.197 10.4971C207.859 9.98379 207.395 9.54384 206.805 9.17722C206.216 8.8106 205.546 8.54786 204.793 8.38899L209.288 8.31566C209.701 8.58452 210.059 8.90837 210.36 9.28721C210.673 9.65383 210.911 10.0693 211.074 10.5337C211.237 10.9859 211.319 11.4808 211.319 12.0185C211.319 12.8129 211.168 13.5094 210.867 14.1083C210.567 14.6949 210.121 15.1531 209.532 15.4831C208.956 15.8008 208.247 15.9597 207.407 15.9597ZM215.512 12.3668C214.936 12.3668 214.459 12.2813 214.083 12.1102C213.707 11.9391 213.412 11.7252 213.199 11.4686C212.986 11.1997 212.836 10.9187 212.748 10.6254C212.66 10.3321 212.616 10.0632 212.616 9.81881C212.616 9.31776 212.698 8.90837 212.861 8.59063C213.024 8.27289 213.193 7.9796 213.368 7.71074L215.381 7.85739C215.117 8.11402 214.904 8.36455 214.741 8.60896C214.578 8.85337 214.497 9.165 214.497 9.54384C214.497 9.84936 214.591 10.0999 214.779 10.2954C214.979 10.4909 215.23 10.5887 215.531 10.5887C215.895 10.5887 216.164 10.5032 216.34 10.3321C216.515 10.1488 216.603 9.92268 216.603 9.65383C216.603 9.28721 216.453 9.03057 216.152 8.88393C215.851 8.72506 215.45 8.64562 214.948 8.64562H199.866V6.57422H213.312C214.077 6.57422 214.71 6.59866 215.211 6.64754C215.713 6.6842 216.139 6.75753 216.49 6.86751C216.854 6.9775 217.186 7.14859 217.487 7.38078C217.813 7.61298 218.063 7.90627 218.239 8.26067C218.427 8.61507 218.521 9.06112 218.521 9.59883C218.521 10.3932 218.258 11.0531 217.731 11.5786C217.205 12.1041 216.465 12.3668 215.512 12.3668Z" fill="#FF5858"/>
<path d="M184.732 11.5445C184.732 10.6661 184.935 9.8768 185.341 9.17649C185.747 8.46431 186.343 7.90051 187.13 7.48507C187.929 7.05777 188.905 6.84411 190.059 6.84411C191.226 6.84411 192.203 7.0459 192.989 7.44946C193.775 7.84116 194.365 8.38716 194.758 9.08747C195.164 9.78778 195.367 10.6008 195.367 11.5267C195.367 12.3932 195.171 13.1647 194.777 13.8413C194.384 14.5059 193.794 15.0282 193.008 15.408C192.222 15.776 191.239 15.96 190.059 15.96C188.88 15.96 187.89 15.7701 187.091 15.3902C186.305 15.0104 185.715 14.4881 185.322 13.8234C184.929 13.1587 184.732 12.3991 184.732 11.5445ZM187.377 11.313C187.377 12.0371 187.599 12.6365 188.043 13.1113C188.499 13.5742 189.171 13.8056 190.059 13.8056C190.655 13.8056 191.15 13.7047 191.543 13.503C191.936 13.2893 192.234 13.0044 192.437 12.6484C192.64 12.2804 192.742 11.865 192.742 11.402C192.742 10.9273 192.64 10.5 192.437 10.1201C192.247 9.7403 191.949 9.43762 191.543 9.2121C191.15 8.97471 190.655 8.85601 190.059 8.85601C189.451 8.85601 188.95 8.96877 188.556 9.1943C188.163 9.41982 187.865 9.72249 187.662 10.1023C187.472 10.4703 187.377 10.8738 187.377 11.313ZM189.26 8.69577C188.664 8.69577 188.138 8.60675 187.681 8.42871C187.225 8.23879 186.838 7.93612 186.521 7.52068C186.204 7.09337 185.956 6.5177 185.779 5.79365L188.366 5.1705C188.506 5.77585 188.658 6.20909 188.823 6.47022C188.988 6.71948 189.216 6.84411 189.508 6.84411C189.698 6.84411 189.888 6.77883 190.078 6.64826C190.269 6.5177 190.522 6.26844 190.839 5.90048L191.638 4.95684C192.082 4.43458 192.501 4.02508 192.894 3.72834C193.287 3.41973 193.712 3.1942 194.169 3.05177C194.638 2.90933 195.196 2.83218 195.843 2.82031L195.995 4.88563C195.564 4.90936 195.19 4.98058 194.873 5.09928C194.568 5.2061 194.289 5.36041 194.035 5.56219C193.782 5.76398 193.515 6.03104 193.236 6.36339L192.609 7.09337C192.368 7.37824 192.082 7.64531 191.753 7.89457C191.423 8.13197 191.049 8.32781 190.63 8.48212C190.224 8.62455 189.768 8.69577 189.26 8.69577Z" fill="#FF5858"/>
<path d="M166.153 23.4683C165.355 23.4683 164.74 23.3804 164.309 23.2047C163.878 23.029 163.498 22.7906 163.168 22.4894H163.282C162.927 22.8784 162.566 23.1357 162.199 23.2612C161.818 23.3992 161.381 23.4683 160.887 23.4683C160.405 23.4683 159.981 23.3553 159.613 23.1294C159.245 22.9161 158.96 22.6023 158.757 22.1882C158.555 21.774 158.453 21.2783 158.453 20.701C158.453 19.948 158.662 19.2829 159.081 18.7056C159.486 18.1409 160.076 17.6954 160.849 17.3691C161.622 17.0553 162.535 16.8984 163.587 16.8984C164.461 16.8984 165.222 16.9549 165.868 17.0679C166.502 17.1808 167.174 17.3565 167.884 17.595L167.142 19.2892C166.648 19.1009 166.217 18.9566 165.849 18.8562C165.469 18.7558 165.108 18.6868 164.765 18.6491C164.411 18.6115 164.024 18.5927 163.606 18.5927C162.896 18.5927 162.313 18.6868 161.856 18.875C161.4 19.0758 161.071 19.3331 160.868 19.6468C160.652 19.9606 160.545 20.312 160.545 20.701C160.545 21.0273 160.621 21.2846 160.773 21.4728C160.912 21.6736 161.121 21.774 161.4 21.774C161.654 21.774 161.869 21.6799 162.047 21.4917C162.211 21.316 162.313 21.0713 162.351 20.7575H164.176C164.201 20.9709 164.252 21.1591 164.328 21.3222C164.404 21.4854 164.525 21.6109 164.689 21.6987C164.854 21.7866 165.082 21.8305 165.374 21.8305C165.513 21.8431 165.665 21.8556 165.83 21.8682C165.982 21.8933 166.147 21.9058 166.324 21.9058C166.578 21.9058 166.781 21.8619 166.933 21.774C167.072 21.6987 167.142 21.5732 167.142 21.3975C167.142 21.272 167.098 21.1717 167.009 21.0964C166.908 21.0211 166.768 20.9834 166.591 20.9834C166.426 20.9834 166.293 21.0336 166.191 21.134C166.077 21.2344 166.02 21.3913 166.02 21.6046C166.02 21.7678 166.065 21.9121 166.153 22.0376C166.229 22.1756 166.337 22.3011 166.477 22.4141L165.07 22.7718C164.918 22.5584 164.81 22.3137 164.746 22.0376C164.67 21.7615 164.632 21.5419 164.632 21.3787C164.632 20.8265 164.81 20.3747 165.165 20.0233C165.507 19.6719 166.008 19.4963 166.667 19.4963C167.3 19.4963 167.814 19.6719 168.207 20.0233C168.587 20.3873 168.777 20.8328 168.777 21.3599C168.777 21.7113 168.701 22.0439 168.549 22.3576C168.384 22.6839 168.112 22.9475 167.731 23.1482C167.351 23.3616 166.825 23.4683 166.153 23.4683Z" fill="#FF5858"/>
<path d="M172.206 15.9597C171.231 15.9597 170.41 15.7458 169.743 15.3181C169.076 14.8904 168.441 14.3527 167.838 13.705L169.319 12.1285C169.589 12.4218 169.871 12.6907 170.166 12.9351C170.448 13.1795 170.756 13.375 171.09 13.5217C171.436 13.6683 171.808 13.7416 172.206 13.7416C172.655 13.7416 173.001 13.6194 173.245 13.375C173.488 13.1306 173.61 12.764 173.61 12.2752C173.61 11.7008 173.476 11.1936 173.206 10.7537C172.937 10.3137 172.584 9.92268 172.148 9.5805C171.712 9.2261 171.25 8.90226 170.763 8.60896L172.283 6.57422C173.039 6.96528 173.719 7.42966 174.322 7.96737C174.925 8.50508 175.4 9.11612 175.746 9.80048C176.105 10.4726 176.285 11.2303 176.285 12.0735C176.285 13.2467 175.938 14.1877 175.246 14.8965C174.553 15.6053 173.54 15.9597 172.206 15.9597Z" fill="#FF5858"/>
<path d="M165.197 15.96C164.48 15.96 163.871 15.8947 163.369 15.7641C162.866 15.6454 162.439 15.4733 162.087 15.2478C161.735 15.0104 161.421 14.7374 161.145 14.4288L161.277 14.4466C160.975 14.862 160.655 15.1825 160.315 15.408C159.989 15.6217 159.637 15.7641 159.26 15.8353C158.896 15.9184 158.487 15.96 158.035 15.96C157.042 15.96 156.238 15.6276 155.623 14.9629C155.007 14.2982 154.699 13.3546 154.699 12.132C154.699 10.9925 154.994 10.0311 155.585 9.24771C156.176 8.45244 157.011 7.85303 158.092 7.44946C159.172 7.0459 160.435 6.84411 161.88 6.84411C162.646 6.84411 163.343 6.88566 163.972 6.96874C164.6 7.05183 165.209 7.17646 165.8 7.34264C166.39 7.49694 167.012 7.69872 167.666 7.94799L166.516 9.94208C165.837 9.65721 165.241 9.43762 164.725 9.28332C164.223 9.12901 163.739 9.02219 163.274 8.96284C162.809 8.89162 162.301 8.85601 161.748 8.85601C160.717 8.85601 159.876 8.99845 159.222 9.28332C158.569 9.55632 158.085 9.93021 157.771 10.405C157.47 10.8679 157.319 11.3842 157.319 11.954C157.319 12.6187 157.432 13.0935 157.658 13.3783C157.884 13.6632 158.198 13.8056 158.6 13.8056C159.015 13.8056 159.348 13.6632 159.599 13.3783C159.863 13.0935 160.02 12.6958 160.07 12.1854H162.389C162.426 12.6484 162.571 13.0222 162.822 13.3071C163.086 13.592 163.526 13.776 164.141 13.8591C164.33 13.8947 164.537 13.9243 164.763 13.9481C165.002 13.9599 165.253 13.9659 165.517 13.9659C165.869 13.9659 166.145 13.9006 166.346 13.77C166.547 13.6395 166.648 13.4258 166.648 13.1291C166.648 12.9273 166.572 12.7611 166.422 12.6305C166.283 12.5 166.089 12.4347 165.837 12.4347C165.599 12.4347 165.391 12.5 165.215 12.6305C165.052 12.7611 164.97 12.9748 164.97 13.2715C164.97 13.4852 165.027 13.6869 165.14 13.8769C165.253 14.0549 165.41 14.2151 165.611 14.3576L163.783 14.8561C163.57 14.5712 163.406 14.2448 163.293 13.8769C163.193 13.497 163.142 13.1944 163.142 12.9688C163.142 12.2448 163.381 11.6632 163.859 11.224C164.349 10.773 165.033 10.5474 165.913 10.5474C166.491 10.5474 166.993 10.6602 167.421 10.8857C167.848 11.1112 168.181 11.4198 168.419 11.8115C168.658 12.1914 168.777 12.6187 168.777 13.0935C168.777 13.4496 168.715 13.7997 168.589 14.1439C168.476 14.4881 168.281 14.7968 168.005 15.0698C167.741 15.3428 167.377 15.5623 166.912 15.7285C166.447 15.8828 165.875 15.96 165.197 15.96ZM161.201 8.69577C160.611 8.69577 160.089 8.60675 159.637 8.42871C159.185 8.23879 158.801 7.93612 158.487 7.52068C158.173 7.09337 157.928 6.5177 157.752 5.79365L160.315 5.1705C160.454 5.77585 160.604 6.20909 160.768 6.47022C160.931 6.71948 161.157 6.84411 161.446 6.84411C161.635 6.84411 161.823 6.77883 162.012 6.64826C162.2 6.5177 162.451 6.26844 162.765 5.90048L163.557 4.95684C163.997 4.43458 164.411 4.02508 164.801 3.72834C165.19 3.41973 165.611 3.1942 166.064 3.05177C166.528 2.90933 167.081 2.83218 167.722 2.82031L167.873 4.88563C167.446 4.90936 167.075 4.98058 166.761 5.09928C166.459 5.2061 166.183 5.36041 165.932 5.56219C165.68 5.76398 165.417 6.03104 165.14 6.36339L164.518 7.09337C164.279 7.37824 163.997 7.64531 163.67 7.89457C163.343 8.13197 162.973 8.32781 162.558 8.48212C162.156 8.62455 161.704 8.69577 161.201 8.69577Z" fill="#FF5858"/>
<path d="M138.744 11.4576C138.744 10.5621 138.948 9.7574 139.355 9.04343C139.762 8.31737 140.36 7.74256 141.149 7.31902C141.951 6.88338 142.931 6.66557 144.089 6.66557C145.26 6.66557 146.24 6.87128 147.029 7.28272C147.818 7.68206 148.41 8.23871 148.804 8.95267C149.211 9.66664 149.415 10.4956 149.415 11.4395C149.415 12.3228 149.218 13.1094 148.823 13.7992C148.429 14.4768 147.837 15.0093 147.048 15.3965C146.259 15.7716 145.273 15.9592 144.089 15.9592C142.906 15.9592 141.913 15.7656 141.111 15.3784C140.322 14.9911 139.73 14.4587 139.336 13.781C138.941 13.1034 138.744 12.3289 138.744 11.4576ZM141.398 11.2216C141.398 11.9598 141.62 12.5709 142.066 13.0549C142.524 13.5269 143.198 13.7629 144.089 13.7629C144.687 13.7629 145.184 13.66 145.578 13.4543C145.973 13.2365 146.272 12.946 146.475 12.583C146.679 12.2079 146.781 11.7843 146.781 11.3124C146.781 10.8283 146.679 10.3927 146.475 10.0055C146.284 9.61823 145.985 9.30966 145.578 9.07973C145.184 8.83771 144.687 8.7167 144.089 8.7167C143.478 8.7167 142.976 8.83166 142.581 9.06158C142.187 9.2915 141.887 9.60008 141.684 9.98732C141.493 10.3625 141.398 10.7739 141.398 11.2216ZM151.935 8.48073C151.349 8.48073 150.866 8.39602 150.484 8.22661C150.102 8.05719 149.797 7.84542 149.568 7.5913C149.351 7.32508 149.199 7.04675 149.11 6.75632C149.02 6.4659 148.976 6.20572 148.976 5.9758C148.976 5.47966 149.059 5.07427 149.224 4.75964C149.402 4.43291 149.58 4.14248 149.759 3.88836L151.801 4.01542C151.521 4.26955 151.298 4.51762 151.133 4.75964C150.968 5.00166 150.885 5.31024 150.885 5.68537C150.885 5.9879 150.98 6.23598 151.171 6.42959C151.375 6.62321 151.636 6.72002 151.954 6.72002C152.336 6.72002 152.609 6.62926 152.775 6.44774C152.953 6.26623 153.042 6.04841 153.042 5.79428C153.042 5.44335 152.889 5.18923 152.584 5.03192C152.278 4.8746 151.865 4.79594 151.343 4.79594H148.613C148.181 4.79594 147.843 4.8988 147.601 5.10452C147.36 5.31024 147.207 5.63697 147.143 6.08471H144.814C144.725 5.68538 144.56 5.37075 144.318 5.14083C144.089 4.9109 143.72 4.79594 143.211 4.79594H143.001C142.721 4.79594 142.479 4.88065 142.276 5.05007C142.072 5.21948 141.97 5.4615 141.97 5.77613C141.97 5.96975 142.015 6.13312 142.104 6.26623C142.206 6.39934 142.346 6.5022 142.524 6.57481C142.702 6.63531 142.906 6.66557 143.135 6.66557H143.784V8.64409H143.287C142.549 8.64409 141.9 8.52308 141.34 8.28106C140.793 8.02694 140.367 7.66996 140.061 7.21011C139.756 6.75027 139.603 6.21177 139.603 5.59462C139.603 4.75964 139.889 4.08198 140.462 3.56163C141.048 3.02918 141.843 2.76296 142.848 2.76296H143.077C143.637 2.76296 144.121 2.84162 144.528 2.99893C144.935 3.14414 145.266 3.34381 145.521 3.59793C145.775 3.85206 145.953 4.12433 146.055 4.41476H145.883C146.036 4.11223 146.233 3.83996 146.475 3.59793C146.717 3.34381 147.048 3.14414 147.468 2.99893C147.888 2.84162 148.435 2.76296 149.11 2.76296H150.255C151.082 2.76296 151.788 2.81136 152.374 2.90817C152.959 2.99288 153.475 3.1986 153.92 3.52533C154.251 3.75525 154.512 4.04568 154.703 4.39661C154.894 4.74754 154.989 5.19528 154.989 5.73983C154.989 6.5385 154.722 7.19801 154.187 7.71836C153.653 8.22661 152.902 8.48073 151.935 8.48073ZM152.546 0.00390625C153.36 0.00390625 154.015 0.167271 154.512 0.494001C155.008 0.80863 155.383 1.25637 155.638 1.83722L153.691 2.29101C153.615 2.1579 153.525 2.04294 153.424 1.94613C153.322 1.84932 153.201 1.77672 153.061 1.72831C152.921 1.67991 152.756 1.65571 152.565 1.65571C152.247 1.65571 151.998 1.72831 151.82 1.87353C151.655 2.00664 151.572 2.18211 151.572 2.39993C151.572 2.62985 151.642 2.84162 151.782 3.03523C151.922 3.21675 152.113 3.38011 152.355 3.52533L150.408 4.21509C150.166 4.00937 149.943 3.7371 149.739 3.39827C149.549 3.04733 149.453 2.648 149.453 2.20026C149.453 1.81302 149.561 1.45604 149.778 1.12931C149.994 0.790478 150.331 0.518203 150.789 0.312485C151.248 0.106766 151.833 0.00390625 152.546 0.00390625Z" fill="#FF5858"/>
<path d="M126.06 6.57422C126.869 6.57422 127.543 6.74214 128.082 7.07797C128.621 7.41381 129.055 7.8576 129.383 8.40933C129.711 8.96107 129.946 9.57277 130.086 10.2444C130.227 10.9041 130.297 11.5698 130.297 12.2415C130.297 13.4529 130.151 14.5924 129.858 15.6598C129.576 16.7273 129.166 17.7228 128.627 18.6464C128.099 19.5819 127.466 20.4455 126.728 21.2371C125.989 22.0408 125.175 22.7844 124.284 23.4681L122.789 21.7769C123.492 21.2132 124.155 20.6075 124.776 19.9598C125.409 19.3121 125.96 18.6044 126.429 17.8368C126.91 17.0812 127.285 16.2476 127.554 15.336C127.824 14.4244 127.959 13.4109 127.959 12.2955C127.959 11.8877 127.924 11.4559 127.853 11.0001C127.795 10.5443 127.689 10.1185 127.537 9.7227C127.396 9.32689 127.197 9.00305 126.939 8.75117C126.693 8.49929 126.376 8.37335 125.989 8.37335C125.743 8.37335 125.532 8.44532 125.356 8.58925C125.18 8.73318 125.093 8.92508 125.093 9.16497C125.093 9.40485 125.157 9.59676 125.286 9.74069C125.415 9.87263 125.573 9.96258 125.761 10.0106C125.96 10.0585 126.148 10.0825 126.323 10.0825C126.804 10.0825 127.214 9.95059 127.554 9.68672C127.894 9.41085 128.211 9.11699 128.504 8.80514L129.137 10.6582C128.727 10.9581 128.275 11.234 127.783 11.4858C127.302 11.7377 126.704 11.8637 125.989 11.8637C125.098 11.8637 124.372 11.6478 123.809 11.216C123.258 10.7842 122.982 10.1125 122.982 9.20095C122.982 8.69719 123.1 8.24741 123.334 7.8516C123.569 7.45579 123.914 7.14394 124.372 6.91605C124.829 6.68816 125.392 6.57422 126.06 6.57422Z" fill="#FF5858"/>
<path d="M116.201 23.4683C115.661 23.4683 115.219 23.3679 114.876 23.1671C114.52 22.9663 114.183 22.6525 113.864 22.2258H114.287C113.993 22.5396 113.717 22.7843 113.459 22.96C113.189 23.1482 112.907 23.28 112.612 23.3553C112.318 23.4306 111.962 23.4683 111.545 23.4683C110.833 23.4683 110.269 23.3114 109.852 22.9977C109.435 22.6839 109.14 22.2823 108.969 21.7929C108.797 21.316 108.711 20.8265 108.711 20.3245C108.711 19.5967 108.858 18.9754 109.153 18.4609C109.435 17.9589 109.821 17.5699 110.312 17.2938C110.803 17.0302 111.355 16.8984 111.968 16.8984C112.729 16.8984 113.306 17.0804 113.698 17.4444C114.078 17.8209 114.269 18.2789 114.269 18.8186C114.269 19.4461 114.072 19.9229 113.68 20.2492C113.275 20.5755 112.674 20.7387 111.876 20.7387C111.447 20.7387 111.06 20.6508 110.717 20.4751C110.361 20.312 110.054 20.1112 109.797 19.8727L110.294 18.5927C110.441 18.7935 110.637 18.9817 110.882 19.1574C111.116 19.3331 111.385 19.421 111.692 19.421C111.962 19.421 112.177 19.3708 112.336 19.2704C112.484 19.1825 112.557 19.0382 112.557 18.8374C112.557 18.6993 112.514 18.5676 112.428 18.4421C112.33 18.3291 112.177 18.2726 111.968 18.2726C111.637 18.2726 111.336 18.4107 111.067 18.6868C110.797 18.9629 110.662 19.4523 110.662 20.1551V20.3622C110.662 20.6759 110.705 20.9395 110.79 21.1528C110.864 21.3662 110.993 21.523 111.177 21.6234C111.349 21.7238 111.57 21.774 111.839 21.774C112.318 21.774 112.649 21.6611 112.833 21.4352C113.005 21.2219 113.109 20.996 113.146 20.7575H114.931C114.992 21.2093 115.134 21.4917 115.354 21.6046C115.563 21.7176 115.802 21.774 116.072 21.774C116.391 21.774 116.624 21.6799 116.771 21.4917C116.906 21.3034 116.974 21.0838 116.974 20.8328C116.974 20.3183 116.784 19.8853 116.403 19.5339C116.023 19.1825 115.594 18.8688 115.115 18.5927L116.293 16.8984C116.808 17.162 117.274 17.482 117.692 17.8585C118.109 18.235 118.44 18.6617 118.685 19.1386C118.918 19.6155 119.035 20.1488 119.035 20.7387C119.035 21.5544 118.796 22.2133 118.317 22.7153C117.826 23.2173 117.121 23.4683 116.201 23.4683Z" fill="#FF5858"/>
<path d="M116.435 16.433C115.829 16.433 115.292 16.347 114.825 16.1748C114.358 16.0027 113.885 15.7137 113.405 15.3079C112.938 14.8898 112.376 14.3241 111.72 13.6109C111.366 13.2174 111.088 12.9469 110.886 12.7993C110.684 12.6394 110.451 12.5595 110.186 12.5595C109.984 12.5595 109.782 12.6394 109.58 12.7993C109.39 12.9469 109.296 13.1805 109.296 13.5002C109.296 13.8814 109.397 14.1458 109.599 14.2934C109.813 14.4409 110.06 14.5147 110.337 14.5147C110.64 14.5147 110.943 14.3918 111.246 14.1458C111.549 13.8999 111.764 13.4941 111.89 12.9284L113.462 14.5516C113.209 14.8959 112.944 15.2156 112.666 15.5108C112.401 15.7936 112.067 16.0211 111.663 16.1933C111.259 16.3531 110.716 16.433 110.034 16.433C109.289 16.433 108.677 16.2978 108.197 16.0272C107.73 15.7444 107.383 15.3817 107.156 14.939C106.941 14.4963 106.834 14.029 106.834 13.5371C106.834 12.9346 106.979 12.4181 107.27 11.9877C107.56 11.545 107.958 11.2007 108.463 10.9548C108.968 10.7088 109.536 10.5858 110.167 10.5858C110.697 10.5858 111.164 10.6535 111.568 10.7887C111.972 10.924 112.363 11.1454 112.742 11.4528C113.134 11.7602 113.563 12.166 114.03 12.6702C114.434 13.1006 114.762 13.4264 115.015 13.6478C115.28 13.8691 115.52 14.0167 115.734 14.0905C115.961 14.1643 116.22 14.2011 116.511 14.2011C116.864 14.2011 117.154 14.0782 117.382 13.8322C117.622 13.5863 117.741 13.2174 117.741 12.7255C117.741 12.1476 117.609 11.6372 117.344 11.1945C117.079 10.7519 116.732 10.3583 116.302 10.014C115.886 9.65742 115.438 9.33155 114.958 9.03643L116.435 6.98898C117.18 7.38248 117.849 7.84977 118.442 8.39083C119.035 8.9319 119.503 9.54675 119.843 10.2354C120.197 10.9117 120.374 11.6741 120.374 12.5226C120.374 13.3096 120.222 13.9982 119.919 14.5885C119.616 15.1665 119.168 15.6214 118.575 15.9535C117.994 16.2732 117.281 16.433 116.435 16.433ZM119.275 18.7756C118.568 18.7756 118 18.6649 117.571 18.4436C117.154 18.2223 116.851 17.9333 116.662 17.5767C116.485 17.2201 116.397 16.8388 116.397 16.433C116.397 16.2732 116.41 16.1072 116.435 15.935C116.473 15.7629 116.523 15.5969 116.586 15.437H119.029C118.966 15.5354 118.916 15.6337 118.878 15.7321C118.84 15.8182 118.821 15.9043 118.821 15.9904C118.821 16.1256 118.852 16.2486 118.916 16.3593C118.979 16.4699 119.067 16.556 119.181 16.6175C119.294 16.679 119.427 16.7097 119.578 16.7097C119.78 16.7097 119.957 16.6728 120.109 16.5991C120.273 16.5376 120.468 16.4269 120.696 16.267L121.851 17.8902C121.447 18.1854 121.036 18.4067 120.62 18.5543C120.216 18.7018 119.768 18.7756 119.275 18.7756ZM110.64 8.90731C110.047 8.90731 109.523 8.81508 109.069 8.63063C108.614 8.43388 108.229 8.1203 107.913 7.68991C107.598 7.24722 107.352 6.65082 107.175 5.9007L109.75 5.25511C109.889 5.88226 110.041 6.33109 110.205 6.60163C110.369 6.85986 110.596 6.98898 110.886 6.98898C111.076 6.98898 111.265 6.92135 111.455 6.78608C111.644 6.65082 111.896 6.39258 112.212 6.01137L113.007 5.03377C113.449 4.4927 113.866 4.06845 114.257 3.76103C114.649 3.44131 115.071 3.20767 115.526 3.0601C115.993 2.91254 116.548 2.83261 117.192 2.82031L117.344 4.95998C116.915 4.98458 116.542 5.05836 116.227 5.18133C115.924 5.292 115.646 5.45186 115.393 5.66091C115.141 5.86996 114.876 6.14664 114.598 6.49095L113.973 7.24722C113.733 7.54234 113.449 7.81903 113.121 8.07726C112.793 8.3232 112.42 8.5261 112.004 8.68596C111.6 8.83353 111.145 8.90731 110.64 8.90731Z" fill="#FF5858"/>
<path d="M88.0625 11.4136C88.0625 10.5093 88.2627 9.73326 88.6632 9.08557C89.0636 8.43787 89.6518 7.93682 90.4276 7.58242C91.216 7.22802 92.1733 7.05082 93.2996 7.05082C94.4634 7.05082 95.4332 7.2158 96.2091 7.54576C96.985 7.87572 97.5669 8.36455 97.9548 9.01224C98.3552 9.64772 98.5555 10.4421 98.5555 11.3953C98.5555 12.2874 98.3615 13.0817 97.9736 13.7783C97.5856 14.4627 96.9975 15.0004 96.2091 15.3914C95.4332 15.7703 94.4634 15.9597 93.2996 15.9597C92.1483 15.9597 91.1785 15.7642 90.3901 15.3731C89.6142 14.982 89.0323 14.4443 88.6444 13.76C88.2565 13.0756 88.0625 12.2935 88.0625 11.4136ZM90.6717 11.1753C90.6717 11.9208 90.8907 12.5379 91.3287 13.0267C91.7792 13.5033 92.4361 13.7416 93.2996 13.7416C93.8878 13.7416 94.3758 13.6378 94.7637 13.43C95.1642 13.21 95.4583 12.9167 95.646 12.5501C95.8462 12.1713 95.9463 11.7436 95.9463 11.267C95.9463 10.7781 95.8462 10.3382 95.646 9.94712C95.4583 9.55606 95.1704 9.24443 94.7825 9.01224C94.3946 8.76783 93.9003 8.64562 93.2996 8.64562C92.7114 8.64562 92.2171 8.76172 91.8167 8.99391C91.4288 9.2261 91.1409 9.53773 90.9532 9.92879C90.7655 10.3076 90.6717 10.7231 90.6717 11.1753ZM102.892 12.3668C102.316 12.3668 101.84 12.2813 101.465 12.1102C101.09 11.9391 100.789 11.7252 100.564 11.4686C100.351 11.1997 100.201 10.9187 100.113 10.6254C100.026 10.3321 99.9821 10.0632 99.9821 9.81881C99.9821 9.3422 100.063 8.93892 100.226 8.60896C100.401 8.279 100.576 7.9796 100.752 7.71074L102.76 7.85739C102.485 8.11402 102.266 8.36455 102.103 8.60896C101.94 8.85337 101.859 9.165 101.859 9.54384C101.859 9.84936 101.953 10.0999 102.141 10.2954C102.341 10.4909 102.597 10.5887 102.91 10.5887C103.273 10.5887 103.542 10.5032 103.717 10.3321C103.893 10.1488 103.98 9.92268 103.98 9.65383C103.98 9.28721 103.83 9.03057 103.53 8.88393C103.229 8.72506 102.823 8.64562 102.31 8.64562H88.2314V6.57422H100.695C101.459 6.57422 102.091 6.59866 102.591 6.64754C103.092 6.6842 103.517 6.75753 103.868 6.86751C104.231 6.9775 104.562 7.14859 104.863 7.38078C105.175 7.61298 105.426 7.90627 105.613 8.26067C105.801 8.61507 105.895 9.06112 105.895 9.59883C105.895 10.3932 105.632 11.0531 105.107 11.5786C104.581 12.1041 103.843 12.3668 102.892 12.3668Z" fill="#FF5858"/>
<path d="M75.5623 15.9597C74.78 15.9597 74.1504 15.8314 73.6737 15.5747C73.2092 15.3059 72.8731 14.9637 72.6653 14.5482C72.4697 14.1327 72.3719 13.6928 72.3719 13.2284C72.3719 12.6296 72.5064 12.1346 72.7753 11.7436C73.0442 11.3525 73.3987 11.0653 73.8387 10.882C74.291 10.6865 74.7677 10.5887 75.2689 10.5887C75.9045 10.5887 76.4363 10.6987 76.8641 10.9187C77.3041 11.1264 77.6647 11.3769 77.9459 11.6702C78.2393 11.9513 78.4715 12.2018 78.6426 12.4218L77.7075 14.2916C77.5731 13.9616 77.408 13.65 77.2125 13.3567C77.0291 13.0634 76.8091 12.8251 76.5524 12.6418C76.2957 12.4463 75.9901 12.3485 75.6356 12.3485C75.3667 12.3485 75.1222 12.4218 74.9022 12.5685C74.6822 12.7151 74.5722 12.9473 74.5722 13.265C74.5722 13.5461 74.6638 13.7661 74.8472 13.925C75.0305 14.0838 75.275 14.1633 75.5806 14.1633C75.984 14.1633 76.3018 14.0533 76.5341 13.8333C76.7785 13.6133 76.9497 13.32 77.0475 12.9534C77.1452 12.5868 77.1941 12.1896 77.1941 11.7619V11.4136C77.1941 10.9003 77.1269 10.4482 76.9924 10.0571C76.858 9.66605 76.6441 9.36053 76.3507 9.14056C76.0573 8.90837 75.6723 8.79227 75.1956 8.79227C74.9022 8.79227 74.6394 8.85337 74.4071 8.97558C74.1749 9.08557 73.9793 9.24444 73.8204 9.45219C73.6737 9.64772 73.5576 9.8738 73.472 10.1304H71.1067C71.0456 9.9349 70.9356 9.72104 70.7767 9.48885C70.63 9.24443 70.41 9.03668 70.1166 8.86559C69.8233 8.68228 69.4199 8.59063 68.9065 8.59063C68.4787 8.59063 68.1303 8.66395 67.8614 8.8106C67.6047 8.94503 67.4763 9.17111 67.4763 9.48885C67.4763 9.61105 67.4947 9.72715 67.5313 9.83714C67.5802 9.9349 67.6658 10.0204 67.788 10.0938C67.898 10.1549 68.0386 10.2099 68.2097 10.2587C68.3931 10.2954 68.6742 10.3137 69.0532 10.3137H70.135V12.2202H68.9982C68.6192 12.2202 68.3259 12.2385 68.1181 12.2752C67.9103 12.3118 67.7452 12.379 67.623 12.4768C67.5374 12.5501 67.4641 12.6418 67.403 12.7518C67.3541 12.8495 67.3296 12.9656 67.3296 13.1001C67.3296 13.3445 67.4091 13.5461 67.568 13.705C67.7391 13.8638 68.0142 13.9433 68.3931 13.9433C68.7965 13.9433 69.1571 13.8394 69.4749 13.6317C69.8049 13.4239 70.1227 13.1489 70.4283 12.8068L72.0052 14.1999C71.6752 14.5788 71.3146 14.9026 70.9234 15.1715C70.5445 15.4281 70.1227 15.6236 69.6582 15.7581C69.1937 15.8925 68.662 15.9597 68.0631 15.9597C66.914 15.9597 66.0462 15.7214 65.4594 15.2448C64.8849 14.756 64.5977 14.1571 64.5977 13.4483C64.5977 13.1062 64.6649 12.7884 64.7993 12.4951C64.9338 12.1896 65.1416 11.9269 65.4227 11.7069C65.7161 11.4747 66.0828 11.2914 66.5229 11.157L66.5045 11.3953C65.8934 11.1875 65.4472 10.8759 65.1661 10.4604C64.8849 10.0449 64.7443 9.58661 64.7443 9.08557C64.7443 8.32789 65.0744 7.72296 65.7345 7.2708C66.3945 6.80641 67.2685 6.57422 68.3564 6.57422C69.0043 6.57422 69.5543 6.63532 70.0066 6.75753C70.4711 6.86751 70.8989 7.05082 71.2901 7.30746C71.6813 7.55187 72.0785 7.88794 72.4819 8.31566L72.0969 8.334C72.378 7.96737 72.6714 7.65575 72.977 7.39911C73.2948 7.13026 73.6493 6.92862 74.0404 6.79419C74.4438 6.64754 74.9205 6.57422 75.4706 6.57422C76.3874 6.57422 77.1513 6.78197 77.7625 7.19747C78.3737 7.60075 78.8321 8.16902 79.1377 8.90226C79.4555 9.62328 79.6144 10.4543 79.6144 11.3953C79.6144 12.3607 79.4677 13.1856 79.1744 13.87C78.881 14.5421 78.4348 15.0615 77.8359 15.4281C77.2369 15.7825 76.479 15.9597 75.5623 15.9597Z" fill="#FF5858"/>
<path d="M50.1112 7.0361C51.1746 7.0361 52.0925 7.19006 52.8648 7.49799C53.6371 7.80591 54.2322 8.26779 54.65 8.88364C55.0678 9.49948 55.2767 10.2631 55.2767 11.1746C55.2767 11.9259 55.207 12.591 55.0678 13.1699C54.9285 13.7488 54.7512 14.2661 54.536 14.7218C54.3208 15.1653 54.1056 15.5779 53.8903 15.9597L51.3456 14.999C51.5608 14.7157 51.7634 14.4016 51.9533 14.0567C52.1558 13.6995 52.3204 13.3054 52.447 12.8743C52.5736 12.4432 52.6369 11.9752 52.6369 11.4702C52.6369 10.9898 52.5546 10.5341 52.3901 10.103C52.2255 9.67192 51.9533 9.32704 51.5734 9.06839C51.2063 8.79742 50.6999 8.66193 50.0542 8.66193C49.5351 8.66193 49.0856 8.77894 48.7058 9.01296C48.3387 9.24698 48.0538 9.57338 47.8512 9.99216C47.6487 10.3986 47.5474 10.8728 47.5474 11.4148C47.5474 12.1291 47.6677 12.7881 47.9082 13.3916C48.1488 13.9828 48.4589 14.5125 48.8388 14.9805L46.275 15.9597C45.8825 15.3069 45.5533 14.5925 45.2875 13.8166C45.0216 13.0406 44.8887 12.2215 44.8887 11.3593C44.8887 10.5464 45.0849 9.81356 45.4774 9.16077C45.8825 8.50797 46.4712 7.99066 47.2435 7.60884C48.0158 7.22701 48.9717 7.0361 50.1112 7.0361ZM59.6635 12.4124C59.0812 12.4124 58.6001 12.3262 58.2202 12.1538C57.8404 11.9813 57.5429 11.7658 57.3277 11.5071C57.1124 11.2362 56.9605 10.9529 56.8719 10.6573C56.7833 10.3617 56.739 10.0907 56.739 9.84435C56.739 9.364 56.8213 8.95754 56.9858 8.62498C57.1631 8.29243 57.3403 7.99066 57.5176 7.71969L59.5496 7.86749C59.2711 8.12615 59.0495 8.37864 58.8849 8.62498C58.7203 8.87132 58.638 9.1854 58.638 9.56722C58.638 9.87515 58.733 10.1276 58.9229 10.3247C59.1255 10.5218 59.385 10.6203 59.7015 10.6203C60.0687 10.6203 60.3409 10.5341 60.5181 10.3617C60.6954 10.1769 60.784 9.94905 60.784 9.67808C60.784 9.30857 60.6321 9.04991 60.3282 8.90211C60.0244 8.74199 59.6192 8.66193 59.1128 8.66193H44.9836V6.57422H57.4606C58.2329 6.57422 58.8723 6.59885 59.3787 6.64812C59.8851 6.68507 60.3156 6.75897 60.6701 6.86982C61.0372 6.98068 61.3727 7.15311 61.6766 7.38713C61.9931 7.62115 62.2463 7.91676 62.4362 8.27395C62.6261 8.63114 62.7211 9.08071 62.7211 9.62265C62.7211 10.4232 62.4489 11.0884 61.9045 11.618C61.3727 12.1476 60.6258 12.4124 59.6635 12.4124Z" fill="#FF5858"/>
<path d="M33.627 12.6919C33.627 11.8856 33.8193 11.1625 34.2039 10.5226C34.5886 9.88264 35.1335 9.3771 35.8387 9.00595C36.5439 8.6348 37.3837 8.44922 38.3582 8.44922C39.3454 8.44922 40.1852 8.6348 40.8776 9.00595C41.57 9.3771 42.0957 9.88264 42.4547 10.5226C42.8265 11.1625 43.0124 11.8856 43.0124 12.6919C43.0124 13.4982 42.8265 14.2213 42.4547 14.8612C42.0829 15.4883 41.5443 15.9875 40.8392 16.3586C40.1468 16.717 39.307 16.8961 38.3197 16.8961C37.3452 16.8961 36.5054 16.7106 35.8002 16.3394C35.095 15.9683 34.5565 15.4691 34.1847 14.842C33.8129 14.2021 33.627 13.4854 33.627 12.6919ZM36.2041 12.6727C36.2041 13.2614 36.3772 13.7605 36.7234 14.1701C37.0824 14.5668 37.6145 14.7652 38.3197 14.7652C38.7941 14.7652 39.1852 14.6756 39.4929 14.4965C39.8006 14.3045 40.0314 14.0485 40.1852 13.7285C40.3519 13.4086 40.4353 13.0566 40.4353 12.6727C40.4353 12.084 40.2494 11.5912 39.8775 11.1945C39.5185 10.7849 38.9992 10.5801 38.3197 10.5801C37.8709 10.5801 37.4863 10.6761 37.1657 10.8681C36.858 11.0473 36.6208 11.2969 36.4541 11.6168C36.2875 11.924 36.2041 12.2759 36.2041 12.6727Z" fill="#FF5858"/>
<path d="M25.1792 15.9597C23.7647 15.9597 22.5674 15.7336 21.5872 15.2814C20.607 14.8171 19.8625 14.1938 19.3538 13.4117C18.8575 12.6173 18.6094 11.7252 18.6094 10.7354C18.6094 9.87991 18.7769 9.14056 19.1119 8.5173C19.4593 7.89405 19.9432 7.41744 20.5636 7.08749C21.184 6.74531 21.8974 6.57422 22.7039 6.57422C23.4483 6.57422 24.0501 6.70865 24.5092 6.9775C24.9683 7.23413 25.3033 7.5702 25.5142 7.98571C25.7251 8.38899 25.8306 8.8106 25.8306 9.25055C25.8306 9.8127 25.7065 10.2954 25.4584 10.6987C25.2102 11.102 24.8504 11.4075 24.3789 11.6152C23.9074 11.823 23.3305 11.9269 22.6481 11.9269C22.1517 11.9269 21.7113 11.8597 21.3266 11.7252C20.942 11.5908 20.607 11.4258 20.3216 11.2303C20.0487 11.0348 19.8191 10.8576 19.633 10.6987L20.0611 8.97558C20.21 9.15889 20.3837 9.3422 20.5822 9.52551C20.7931 9.70882 21.0289 9.86158 21.2894 9.98379C21.55 10.0938 21.8292 10.1488 22.1269 10.1488C22.5116 10.1488 22.8218 10.0816 23.0575 9.94712C23.2933 9.80048 23.4111 9.56217 23.4111 9.23221C23.4111 9.02446 23.3367 8.83504 23.1878 8.66395C23.0389 8.48064 22.8218 8.38899 22.5364 8.38899C22.1021 8.38899 21.7423 8.5723 21.4569 8.93892C21.1715 9.29332 21.0289 9.72104 21.0289 10.2221V10.937C21.0289 11.2303 21.0909 11.5419 21.215 11.8719C21.3515 12.1896 21.5748 12.4951 21.885 12.7884C22.2076 13.0695 22.6418 13.3017 23.1878 13.485C23.7461 13.6561 24.441 13.7416 25.2723 13.7416C26.4386 13.7416 27.3754 13.5461 28.0826 13.155C28.8022 12.7518 29.1621 12.1224 29.1621 11.267C29.1621 10.6926 28.9821 10.216 28.6223 9.83714C28.2749 9.44608 27.729 9.0489 26.9845 8.64562L28.4362 6.57422C29.4164 7.05082 30.2105 7.68019 30.8185 8.46231C31.4388 9.23221 31.749 10.1793 31.749 11.3036C31.749 12.1713 31.5133 12.9595 31.0418 13.6683C30.5827 14.3649 29.8693 14.9209 28.9015 15.3364C27.9337 15.7519 26.6929 15.9597 25.1792 15.9597Z" fill="#FF5858"/>
<path d="M14.454 5.7158C14.454 6.14341 14.3683 6.54047 14.197 6.90699C14.0256 7.2735 13.787 7.56061 13.481 7.7683C13.1506 8.00043 12.7222 8.19591 12.196 8.35473C11.6819 8.50134 11.1557 8.57464 10.6172 8.57464H7.62484V6.57712H10.6355C10.9905 6.57712 11.2536 6.55879 11.4249 6.52214C11.6085 6.47327 11.7492 6.40608 11.8472 6.32056C11.9206 6.24725 11.9757 6.16784 12.0124 6.08232C12.0491 5.98458 12.0675 5.88074 12.0675 5.77078C12.0675 5.62417 12.0491 5.502 12.0124 5.40426C11.9757 5.29431 11.9145 5.20268 11.8288 5.12937C11.7309 5.04385 11.5901 4.98277 11.4066 4.94612C11.2352 4.90946 10.9476 4.89114 10.5437 4.89114H3.47595V2.82031H10.3051C11.174 2.82031 11.8472 2.88751 12.3245 3.0219C12.814 3.14407 13.2362 3.35176 13.5912 3.64498C13.8482 3.86489 14.0562 4.14589 14.2153 4.48797C14.3744 4.83005 14.454 5.23933 14.454 5.7158ZM8.01036 15.96C6.32143 15.96 4.94459 15.7645 3.87983 15.3735C2.81507 14.9826 2.0318 14.4328 1.53002 13.7242C1.02824 13.0156 0.777344 12.1971 0.777344 11.2685C0.777344 10.5599 0.942565 9.93687 1.27301 9.39931C1.60345 8.86175 2.05628 8.44025 2.63149 8.13482C3.21894 7.82939 3.88595 7.67667 4.6325 7.67667C5.30563 7.67667 5.8686 7.79885 6.32143 8.04319C6.77426 8.27532 7.11694 8.59297 7.34947 8.99614C7.582 9.39931 7.69827 9.85135 7.69827 10.3523C7.69827 11.2075 7.4229 11.855 6.87217 12.2948C6.32143 12.7224 5.56875 12.9362 4.61414 12.9362C4.17355 12.9362 3.75744 12.869 3.36581 12.7346C2.98641 12.588 2.64373 12.4109 2.33777 12.2032C2.0318 11.9955 1.77479 11.8 1.56673 11.6167L2.1909 10.1323C2.42344 10.4011 2.70492 10.6577 3.03537 10.902C3.36581 11.1342 3.75744 11.2502 4.21027 11.2502C4.57743 11.2502 4.87727 11.1769 5.10981 11.0303C5.35458 10.8837 5.47697 10.6516 5.47697 10.3339C5.47697 10.0896 5.39741 9.888 5.23831 9.72917C5.07921 9.57035 4.84056 9.49094 4.52235 9.49094C4.26534 9.49094 4.02057 9.56424 3.78804 9.71085C3.55551 9.84524 3.36581 10.0529 3.21894 10.3339C3.07208 10.6027 2.99865 10.9387 2.99865 11.3419V11.4518C2.99865 11.8183 3.09044 12.1482 3.27402 12.4414C3.46984 12.7346 3.76968 12.9851 4.17355 13.1928C4.57743 13.3882 5.09757 13.541 5.73398 13.6509C6.37038 13.7487 7.1353 13.7975 8.02871 13.7975C8.97109 13.7975 9.79107 13.7548 10.4887 13.6692C11.1863 13.5837 11.7615 13.4493 12.2143 13.2661C12.6671 13.0706 13.0037 12.814 13.224 12.4964C13.4565 12.1665 13.5728 11.7633 13.5728 11.2869V11.2319C13.5728 10.7432 13.4259 10.3278 13.1322 9.98574C12.8385 9.64365 12.4224 9.47261 11.8839 9.47261C11.6146 9.47261 11.3637 9.54592 11.1312 9.69252C10.9109 9.82691 10.8008 10.0468 10.8008 10.3523C10.8008 10.6821 10.9048 10.9142 11.1128 11.0486C11.3209 11.1708 11.5779 11.2319 11.8839 11.2319C12.1898 11.2319 12.4468 11.1708 12.6549 11.0486C12.863 10.9265 13.0404 10.7554 13.1873 10.5355C13.3341 10.3034 13.4504 10.0346 13.5361 9.72917L14.5458 11.067C14.2888 11.4335 14.0256 11.7633 13.7564 12.0566C13.4994 12.3376 13.1873 12.5575 12.8201 12.7163C12.453 12.8751 11.9757 12.9545 11.3882 12.9545C10.9231 12.9545 10.4764 12.8812 10.0481 12.7346C9.61973 12.5758 9.27093 12.3253 9.00168 11.9833C8.74467 11.629 8.61617 11.1586 8.61617 10.5722C8.61617 9.86356 8.8793 9.30157 9.40556 8.88618C9.93182 8.45858 10.6661 8.24478 11.6085 8.24478C11.841 8.24478 12.0491 8.25089 12.2327 8.2631C12.4163 8.27532 12.5876 8.29365 12.7467 8.31808C12.9058 8.3303 13.0588 8.35473 13.2056 8.39138L11.0761 8.42804C10.917 8.37917 10.7457 8.34251 10.5621 8.31808C10.3908 8.28143 10.2133 8.25699 10.0297 8.24478C9.85838 8.22034 9.6748 8.20813 9.47899 8.20813L10.2684 6.7787C11.0394 6.81536 11.7554 6.94364 12.4163 7.16355C13.0894 7.37124 13.6768 7.67057 14.1786 8.06152C14.6804 8.44025 15.072 8.90451 15.3535 9.45429C15.6472 9.99185 15.7941 10.6088 15.7941 11.3052C15.7941 12.0871 15.6472 12.7713 15.3535 13.3577C15.0598 13.9319 14.6008 14.4145 13.9767 14.8054C13.3525 15.1842 12.5448 15.4713 11.5534 15.6668C10.5743 15.8622 9.39332 15.96 8.01036 15.96Z" fill="#FF5858"/>
</svg>
