<svg width="290" height="25" viewBox="0 0 290 25" fill="none" xmlns="http://www.w3.org/2000/svg">
<path d="M286.495 23.2289C285.929 23.2289 285.468 23.1383 285.112 22.9569C284.743 22.7876 284.381 22.4793 284.024 22.032H284.448C284.03 22.4793 283.643 22.7876 283.286 22.9569C282.918 23.1383 282.463 23.2289 281.922 23.2289C281.381 23.2289 280.932 23.108 280.576 22.8662C280.219 22.6244 279.955 22.304 279.783 21.905C279.611 21.506 279.525 21.0768 279.525 20.6173C279.525 19.8556 279.734 19.1967 280.152 18.6405C280.557 18.0843 281.117 17.6551 281.83 17.3528C282.53 17.0506 283.323 16.8994 284.208 16.8994C285.118 16.8994 285.929 17.0566 286.642 17.371C287.343 17.6974 287.896 18.1387 288.302 18.6949C288.708 19.2632 288.91 19.9161 288.91 20.6536C288.91 21.0889 288.837 21.5 288.689 21.8869C288.529 22.2859 288.271 22.6063 287.915 22.8481C287.558 23.102 287.085 23.2289 286.495 23.2289ZM286.052 21.5967C286.298 21.5967 286.495 21.506 286.642 21.3246C286.79 21.1433 286.864 20.9015 286.864 20.5992C286.864 19.9584 286.612 19.4506 286.108 19.0758C285.604 18.713 284.971 18.5317 284.208 18.5317C283.385 18.5317 282.739 18.713 282.272 19.0758C281.793 19.4385 281.553 19.9342 281.553 20.5629C281.553 20.8773 281.627 21.1251 281.774 21.3065C281.922 21.5 282.125 21.5967 282.383 21.5967C282.629 21.5967 282.832 21.5362 282.991 21.4153C283.139 21.3065 283.262 21.1493 283.36 20.9438H285.057C285.155 21.1735 285.278 21.3367 285.425 21.4335C285.573 21.5423 285.782 21.5967 286.052 21.5967ZM283.305 24.4078L283.379 22.9388H285.001L285.13 24.4078H283.305ZM283.231 19.8737C283.231 19.6078 283.323 19.4083 283.508 19.2753C283.692 19.1543 283.926 19.0939 284.208 19.0939C284.528 19.0939 284.774 19.1604 284.946 19.2934C285.118 19.4264 285.204 19.6198 285.204 19.8737C285.204 20.1518 285.118 20.3513 284.946 20.4722C284.762 20.5931 284.516 20.6536 284.208 20.6536C283.913 20.6536 283.68 20.5871 283.508 20.4541C283.323 20.3332 283.231 20.1397 283.231 19.8737Z" fill="#FF5858"/>
<path d="M285.918 15.9432C285.402 15.9432 284.903 15.8721 284.423 15.7298C283.956 15.5994 283.47 15.3564 282.966 15.0008C282.473 14.6452 281.932 14.1474 281.342 13.5073C281.071 13.2109 280.849 12.9916 280.677 12.8494C280.517 12.6953 280.382 12.5945 280.271 12.5471C280.16 12.4879 280.037 12.4582 279.902 12.4582C279.742 12.4582 279.595 12.5234 279.459 12.6538C279.324 12.7842 279.256 12.962 279.256 13.1872C279.256 13.4836 279.324 13.7977 279.459 14.1296C279.607 14.4615 279.816 14.8171 280.087 15.1964L277.503 15.961C277.282 15.5461 277.091 15.1075 276.931 14.6452C276.783 14.1711 276.709 13.6614 276.709 13.1161C276.709 12.5708 276.845 12.0908 277.115 11.6759C277.386 11.2492 277.755 10.9173 278.223 10.6802C278.703 10.4313 279.244 10.3068 279.847 10.3068C280.413 10.3068 280.911 10.3898 281.342 10.5557C281.772 10.7217 282.172 10.9588 282.541 11.2669C282.923 11.5751 283.31 11.9426 283.704 12.3693C284.061 12.7368 284.362 13.0272 284.608 13.2406C284.854 13.4421 285.088 13.5843 285.309 13.6673C285.543 13.7503 285.795 13.7918 286.066 13.7918C286.41 13.7918 286.7 13.6732 286.933 13.4361C287.167 13.1991 287.284 12.8435 287.284 12.3693C287.284 11.8122 287.155 11.3203 286.896 10.8936C286.638 10.4668 286.3 10.0875 285.881 9.75562C285.463 9.41186 285.02 9.09775 284.553 8.81326L286.011 6.83964C286.736 7.21896 287.389 7.66939 287.967 8.19095C288.545 8.7125 289 9.30518 289.332 9.96898C289.677 10.6209 289.849 11.3558 289.849 12.1737C289.849 12.9324 289.695 13.5962 289.388 14.1651C289.093 14.7223 288.65 15.1608 288.059 15.4809C287.481 15.7891 286.767 15.9432 285.918 15.9432ZM280.419 8.6888C279.841 8.6888 279.33 8.5999 278.887 8.42209C278.444 8.23244 278.069 7.93017 277.761 7.5153C277.454 7.08857 277.214 6.51367 277.042 5.7906L279.551 5.16829C279.687 5.77282 279.834 6.20548 279.994 6.46626C280.154 6.71518 280.376 6.83964 280.659 6.83964C280.843 6.83964 281.028 6.77445 281.212 6.64406C281.397 6.51367 281.643 6.26475 281.951 5.89729L282.726 4.95493C283.156 4.43337 283.562 4.02442 283.944 3.72809C284.325 3.41989 284.737 3.19468 285.18 3.05243C285.635 2.91019 286.177 2.83314 286.804 2.82129L286.952 4.88381C286.533 4.90751 286.171 4.97864 285.863 5.09717C285.568 5.20385 285.297 5.35795 285.051 5.55946C284.805 5.76097 284.547 6.02767 284.276 6.35957L283.667 7.08857C283.433 7.37305 283.156 7.63976 282.836 7.88868C282.517 8.12575 282.154 8.32134 281.748 8.47543C281.354 8.61768 280.911 8.6888 280.419 8.6888Z" fill="#FF5858"/>
<path d="M265.447 12.6958C265.447 11.8895 265.639 11.1664 266.024 10.5265C266.408 9.88654 266.953 9.38101 267.659 9.00985C268.364 8.6387 269.204 8.45312 270.178 8.45312C271.165 8.45312 272.005 8.6387 272.697 9.00985C273.39 9.38101 273.915 9.88654 274.275 10.5265C274.646 11.1664 274.832 11.8895 274.832 12.6958C274.832 13.5021 274.646 14.2252 274.275 14.8651C273.903 15.4922 273.364 15.9914 272.659 16.3625C271.967 16.7209 271.127 16.9001 270.14 16.9001C269.165 16.9001 268.325 16.7145 267.62 16.3433C266.915 15.9722 266.376 15.473 266.005 14.8459C265.633 14.206 265.447 13.4893 265.447 12.6958ZM268.024 12.6766C268.024 13.2653 268.197 13.7645 268.543 14.174C268.902 14.5707 269.434 14.7691 270.14 14.7691C270.614 14.7691 271.005 14.6795 271.313 14.5004C271.62 14.3084 271.851 14.0524 272.005 13.7325C272.172 13.4125 272.255 13.0605 272.255 12.6766C272.255 12.0879 272.069 11.5951 271.697 11.1984C271.338 10.7888 270.819 10.5841 270.14 10.5841C269.691 10.5841 269.306 10.68 268.986 10.872C268.678 11.0512 268.441 11.3008 268.274 11.6207C268.107 11.9279 268.024 12.2798 268.024 12.6766Z" fill="#FF5858"/>
<path d="M258.7 15.9432C258.183 15.9432 257.685 15.8721 257.205 15.7298C256.738 15.5994 256.252 15.3564 255.747 15.0008C255.255 14.6452 254.714 14.1474 254.123 13.5073C253.853 13.2109 253.631 12.9916 253.459 12.8494C253.299 12.6953 253.164 12.5945 253.053 12.5471C252.942 12.4879 252.819 12.4582 252.684 12.4582C252.524 12.4582 252.376 12.5234 252.241 12.6538C252.106 12.7842 252.038 12.962 252.038 13.1872C252.038 13.4836 252.106 13.7977 252.241 14.1296C252.389 14.4615 252.598 14.8171 252.868 15.1964L250.285 15.961C250.063 15.5461 249.873 15.1075 249.713 14.6452C249.565 14.1711 249.491 13.6614 249.491 13.1161C249.491 12.5708 249.627 12.0908 249.897 11.6759C250.168 11.2492 250.537 10.9173 251.004 10.6802C251.484 10.4313 252.026 10.3068 252.628 10.3068C253.194 10.3068 253.693 10.3898 254.123 10.5557C254.554 10.7217 254.954 10.9588 255.323 11.2669C255.704 11.5751 256.092 11.9426 256.486 12.3693C256.842 12.7368 257.144 13.0272 257.39 13.2406C257.636 13.4421 257.87 13.5843 258.091 13.6673C258.325 13.7503 258.577 13.7918 258.848 13.7918C259.192 13.7918 259.481 13.6732 259.715 13.4361C259.949 13.1991 260.066 12.8435 260.066 12.3693C260.066 11.8122 259.937 11.3203 259.678 10.8936C259.42 10.4668 259.081 10.0875 258.663 9.75562C258.245 9.41186 257.802 9.09775 257.334 8.81326L258.792 6.83964C259.518 7.21896 260.17 7.66939 260.749 8.19095C261.327 8.7125 261.782 9.30518 262.114 9.96898C262.459 10.6209 262.631 11.3558 262.631 12.1737C262.631 12.9324 262.477 13.5962 262.17 14.1651C261.874 14.7223 261.431 15.1608 260.841 15.4809C260.263 15.7891 259.549 15.9432 258.7 15.9432ZM253.201 8.6888C252.622 8.6888 252.112 8.5999 251.669 8.42209C251.226 8.23244 250.851 7.93017 250.543 7.5153C250.236 7.08857 249.996 6.51367 249.823 5.7906L252.333 5.16829C252.469 5.77282 252.616 6.20548 252.776 6.46626C252.936 6.71518 253.158 6.83964 253.44 6.83964C253.625 6.83964 253.81 6.77445 253.994 6.64406C254.179 6.51367 254.425 6.26475 254.732 5.89729L255.507 4.95493C255.938 4.43337 256.344 4.02442 256.725 3.72809C257.107 3.41989 257.519 3.19468 257.962 3.05243C258.417 2.91019 258.958 2.83314 259.586 2.82129L259.734 4.88381C259.315 4.90751 258.952 4.97864 258.645 5.09717C258.349 5.20385 258.079 5.35795 257.833 5.55946C257.587 5.76097 257.328 6.02767 257.058 6.35957L256.449 7.08857C256.215 7.37305 255.938 7.63976 255.618 7.88868C255.298 8.12575 254.935 8.32134 254.529 8.47543C254.136 8.61768 253.693 8.6888 253.201 8.6888Z" fill="#FF5858"/>
<path d="M230.572 15.9616C229.779 15.9616 229.141 15.8333 228.658 15.5767C228.187 15.3078 227.846 14.9657 227.635 14.5502C227.437 14.1347 227.338 13.6947 227.338 13.2303C227.338 12.6315 227.474 12.1366 227.747 11.7455C228.02 11.3545 228.379 11.0673 228.825 10.884C229.283 10.6884 229.767 10.5907 230.275 10.5907C230.919 10.5907 231.458 10.7006 231.891 10.9206C232.337 11.1284 232.703 11.3789 232.988 11.6722C233.285 11.9533 233.521 12.2038 233.694 12.4238L232.746 14.2935C232.61 13.9636 232.443 13.6519 232.245 13.3586C232.059 13.0653 231.836 12.827 231.575 12.6437C231.315 12.4482 231.006 12.3504 230.646 12.3504C230.374 12.3504 230.126 12.4238 229.903 12.5704C229.68 12.7171 229.568 12.9493 229.568 13.267C229.568 13.5481 229.661 13.768 229.847 13.9269C230.033 14.0858 230.281 14.1652 230.59 14.1652C230.999 14.1652 231.321 14.0552 231.557 13.8352C231.805 13.6153 231.978 13.322 232.077 12.9554C232.176 12.5887 232.226 12.1916 232.226 11.7638V11.3056C232.226 10.8045 232.158 10.3524 232.022 9.94908C231.885 9.5458 231.668 9.22806 231.371 8.99586C231.086 8.76367 230.702 8.64758 230.219 8.64758C229.921 8.64758 229.649 8.71479 229.401 8.84922C229.166 8.97142 228.967 9.14251 228.806 9.36248C228.645 9.58246 228.528 9.83909 228.453 10.1324H226.056C225.994 9.93686 225.882 9.72299 225.721 9.4908C225.573 9.24639 225.349 9.03864 225.052 8.86755C224.755 8.68424 224.346 8.59258 223.825 8.59258C223.392 8.59258 223.039 8.66591 222.766 8.81255C222.506 8.94698 222.376 9.17306 222.376 9.4908C222.376 9.61301 222.394 9.7291 222.432 9.83909C222.481 9.93686 222.568 10.0224 222.692 10.0957C222.803 10.1568 222.946 10.2118 223.119 10.2607C223.305 10.2974 223.59 10.3157 223.974 10.3157H225.071V12.2221H223.918C223.534 12.2221 223.237 12.2405 223.026 12.2771C222.816 12.3138 222.648 12.381 222.525 12.4788C222.438 12.5521 222.363 12.6437 222.302 12.7537C222.252 12.8515 222.227 12.9676 222.227 13.102C222.227 13.3464 222.308 13.5481 222.469 13.7069C222.642 13.8658 222.921 13.9452 223.305 13.9452C223.714 13.9452 224.08 13.8414 224.402 13.6336C224.736 13.4259 225.058 13.1509 225.368 12.8087L226.966 14.2019C226.632 14.5807 226.266 14.9046 225.87 15.1734C225.486 15.43 225.058 15.6256 224.587 15.76C224.117 15.8944 223.578 15.9616 222.971 15.9616C221.806 15.9616 220.926 15.7233 220.331 15.2467C219.749 14.7579 219.458 14.1591 219.458 13.4503C219.458 13.1081 219.526 12.7904 219.662 12.4971C219.799 12.1916 220.009 11.9288 220.294 11.7089C220.592 11.4767 220.963 11.2934 221.409 11.1589L221.391 11.3972C220.784 11.1773 220.331 10.8901 220.034 10.5357C219.749 10.169 219.607 9.73521 219.607 9.23417C219.607 8.782 219.768 8.39705 220.09 8.07931C220.424 7.74936 220.883 7.49272 221.465 7.30941C222.048 7.1261 222.717 7.03445 223.472 7.03445C224.141 7.03445 224.699 7.11388 225.145 7.27275C225.603 7.4194 226.006 7.63937 226.353 7.93267C226.712 8.21374 227.084 8.56203 227.468 8.97753L227.041 8.99586C227.338 8.58036 227.66 8.24429 228.007 7.98766C228.354 7.7188 228.726 7.52327 229.122 7.40107C229.531 7.26664 229.959 7.19943 230.405 7.19943C231.346 7.19943 232.133 7.36441 232.765 7.69436C233.397 8.02432 233.874 8.50704 234.196 9.14251C234.518 9.77799 234.679 10.554 234.679 11.4706C234.679 12.3749 234.531 13.1692 234.233 13.8536C233.936 14.5257 233.484 15.0451 232.876 15.4117C232.269 15.7783 231.501 15.9616 230.572 15.9616ZM238.991 12.3688C238.421 12.3688 237.95 12.2832 237.578 12.1121C237.207 11.941 236.916 11.7272 236.705 11.4706C236.494 11.2017 236.346 10.9206 236.259 10.6273C236.172 10.334 236.129 10.0652 236.129 9.82076C236.129 9.31971 236.209 8.91032 236.37 8.59258C236.532 8.27485 236.699 7.98155 236.872 7.71269L238.879 7.85934C238.607 8.11598 238.39 8.3665 238.229 8.61091C238.068 8.85533 237.987 9.16695 237.987 9.54579C237.987 9.85131 238.08 10.1018 238.266 10.2974C238.464 10.4929 238.712 10.5907 239.01 10.5907C239.369 10.5907 239.635 10.5051 239.809 10.334C239.995 10.1507 240.087 9.92463 240.087 9.65578C240.087 9.28916 239.933 9.03253 239.623 8.88588C239.325 8.72701 238.923 8.64758 238.415 8.64758H225.777L224.513 8.15264L222.227 8.64758H219.662V6.57617H236.816C237.572 6.57617 238.198 6.60061 238.694 6.6495C239.202 6.68616 239.629 6.75948 239.976 6.86947C240.335 6.97945 240.664 7.15054 240.961 7.38274C241.271 7.61493 241.519 7.90823 241.704 8.26262C241.89 8.61702 241.983 9.06308 241.983 9.60079C241.983 10.3951 241.717 11.055 241.184 11.5805C240.664 12.106 239.933 12.3688 238.991 12.3688Z" fill="#FF5858"/>
<path d="M207.405 15.9616C206.804 15.9616 206.271 15.8761 205.807 15.705C205.343 15.5339 204.873 15.2467 204.396 14.8435C203.933 14.428 203.375 13.8658 202.723 13.157C202.372 12.7659 202.096 12.4971 201.895 12.3504C201.695 12.1916 201.463 12.1121 201.2 12.1121C200.999 12.1121 200.798 12.1916 200.598 12.3504C200.41 12.4971 200.316 12.7293 200.316 13.047C200.316 13.4259 200.416 13.6886 200.617 13.8352C200.83 13.9819 201.074 14.0552 201.35 14.0552C201.651 14.0552 201.952 13.933 202.253 13.6886C202.554 13.4442 202.767 13.0409 202.892 12.4788L204.453 14.0919C204.202 14.4341 203.939 14.7518 203.663 15.0451C203.4 15.3262 203.068 15.5523 202.666 15.7233C202.265 15.8822 201.726 15.9616 201.049 15.9616C200.309 15.9616 199.701 15.8272 199.225 15.5584C198.761 15.2773 198.416 14.9168 198.191 14.4768C197.978 14.0247 197.871 13.5542 197.871 13.0653C197.871 12.4788 198.015 11.9716 198.304 11.5439C198.592 11.1039 198.987 10.7618 199.488 10.5173C199.99 10.2729 200.554 10.1507 201.181 10.1507C201.707 10.1507 202.171 10.2179 202.572 10.3524C202.974 10.4868 203.362 10.7068 203.738 11.0123C204.127 11.3178 204.553 11.7211 205.017 12.2221C205.418 12.6498 205.75 12.9737 206.014 13.1937C206.277 13.4136 206.515 13.5603 206.728 13.6336C206.941 13.7069 207.161 13.7436 207.386 13.7436C207.788 13.7436 208.107 13.6214 208.346 13.377C208.584 13.1326 208.703 12.7415 208.703 12.2038C208.703 11.5805 208.534 11.0123 208.195 10.499C207.857 9.98574 207.393 9.54579 206.804 9.17917C206.214 8.81255 205.544 8.54981 204.791 8.39094L209.286 8.31762C209.7 8.58647 210.057 8.91032 210.358 9.28916C210.671 9.65578 210.909 10.0713 211.072 10.5357C211.235 10.9878 211.317 11.4828 211.317 12.0205C211.317 12.8148 211.166 13.5114 210.865 14.1102C210.565 14.6968 210.12 15.1551 209.53 15.485C208.954 15.8028 208.245 15.9616 207.405 15.9616ZM215.51 12.3688C214.934 12.3688 214.457 12.2832 214.081 12.1121C213.705 11.941 213.41 11.7272 213.197 11.4706C212.984 11.2017 212.834 10.9206 212.746 10.6273C212.658 10.334 212.614 10.0652 212.614 9.82076C212.614 9.31971 212.696 8.91032 212.859 8.59258C213.022 8.27485 213.191 7.98155 213.367 7.71269L215.379 7.85934C215.115 8.11598 214.902 8.3665 214.739 8.61091C214.576 8.85533 214.495 9.16695 214.495 9.54579C214.495 9.85131 214.589 10.1018 214.777 10.2974C214.978 10.4929 215.228 10.5907 215.529 10.5907C215.893 10.5907 216.162 10.5051 216.338 10.334C216.513 10.1507 216.601 9.92463 216.601 9.65578C216.601 9.28916 216.451 9.03253 216.15 8.88588C215.849 8.72701 215.448 8.64758 214.946 8.64758H199.864V6.57617H213.31C214.075 6.57617 214.708 6.60061 215.209 6.6495C215.711 6.68616 216.137 6.75948 216.488 6.86947C216.852 6.97945 217.184 7.15054 217.485 7.38274C217.811 7.61493 218.062 7.90823 218.237 8.26262C218.425 8.61702 218.519 9.06308 218.519 9.60079C218.519 10.3951 218.256 11.055 217.729 11.5805C217.203 12.106 216.463 12.3688 215.51 12.3688Z" fill="#FF5858"/>
<path d="M184.731 11.5455C184.731 10.6671 184.934 9.87778 185.34 9.17747C185.746 8.46529 186.342 7.90148 187.129 7.48605C187.928 7.05874 188.904 6.84509 190.058 6.84509C191.225 6.84509 192.202 7.04687 192.988 7.45044C193.774 7.84214 194.364 8.38814 194.757 9.08845C195.163 9.78875 195.366 10.6018 195.366 11.5277C195.366 12.3941 195.17 13.1657 194.776 13.8422C194.383 14.5069 193.794 15.0292 193.007 15.409C192.221 15.777 191.238 15.961 190.058 15.961C188.879 15.961 187.89 15.771 187.09 15.3912C186.304 15.0114 185.714 14.4891 185.321 13.8244C184.928 13.1597 184.731 12.4001 184.731 11.5455ZM187.376 11.314C187.376 12.038 187.598 12.6375 188.042 13.1122C188.498 13.5752 189.171 13.8066 190.058 13.8066C190.654 13.8066 191.149 13.7057 191.542 13.5039C191.935 13.2903 192.233 13.0054 192.436 12.6493C192.639 12.2814 192.741 11.8659 192.741 11.403C192.741 10.9282 192.639 10.5009 192.436 10.1211C192.246 9.74127 191.948 9.4386 191.542 9.21308C191.149 8.97568 190.654 8.85699 190.058 8.85699C189.45 8.85699 188.949 8.96975 188.555 9.19527C188.162 9.42079 187.864 9.72347 187.661 10.1033C187.471 10.4713 187.376 10.8748 187.376 11.314ZM189.259 8.69675C188.663 8.69675 188.137 8.60773 187.68 8.42968C187.224 8.23977 186.837 7.93709 186.52 7.52166C186.203 7.09435 185.955 6.51867 185.778 5.79463L188.365 5.17147C188.505 5.77682 188.657 6.21006 188.822 6.47119C188.987 6.72046 189.215 6.84509 189.507 6.84509C189.697 6.84509 189.887 6.77981 190.077 6.64924C190.268 6.51867 190.521 6.26941 190.838 5.90145L191.637 4.95782C192.081 4.43556 192.5 4.02605 192.893 3.72931C193.286 3.4207 193.711 3.19518 194.168 3.05275C194.637 2.91031 195.195 2.83316 195.842 2.82129L195.994 4.8866C195.563 4.91034 195.189 4.98156 194.872 5.10025C194.567 5.20708 194.288 5.36139 194.034 5.56317C193.781 5.76495 193.514 6.03202 193.235 6.36437L192.608 7.09435C192.367 7.37922 192.081 7.64629 191.752 7.89555C191.422 8.13294 191.048 8.32879 190.629 8.4831C190.223 8.62553 189.767 8.69675 189.259 8.69675Z" fill="#FF5858"/>
<path d="M166.152 23.4692C165.354 23.4692 164.739 23.3814 164.308 23.2057C163.877 23.03 163.497 22.7916 163.167 22.4904H163.281C162.927 22.8794 162.565 23.1367 162.198 23.2622C161.817 23.4002 161.38 23.4692 160.886 23.4692C160.404 23.4692 159.98 23.3563 159.612 23.1304C159.244 22.9171 158.959 22.6033 158.756 22.1892C158.554 21.775 158.452 21.2793 158.452 20.702C158.452 19.949 158.661 19.2839 159.08 18.7066C159.485 18.1418 160.075 17.6963 160.848 17.37C161.621 17.0563 162.534 16.8994 163.586 16.8994C164.46 16.8994 165.221 16.9559 165.867 17.0688C166.501 17.1818 167.173 17.3575 167.883 17.5959L167.141 19.2902C166.647 19.1019 166.216 18.9576 165.848 18.8572C165.468 18.7568 165.107 18.6878 164.764 18.6501C164.41 18.6125 164.023 18.5936 163.605 18.5936C162.895 18.5936 162.312 18.6878 161.855 18.876C161.399 19.0768 161.07 19.3341 160.867 19.6478C160.651 19.9616 160.544 20.313 160.544 20.702C160.544 21.0283 160.62 21.2856 160.772 21.4738C160.911 21.6746 161.12 21.775 161.399 21.775C161.653 21.775 161.868 21.6809 162.046 21.4927C162.21 21.317 162.312 21.0722 162.35 20.7585H164.175C164.2 20.9718 164.251 21.1601 164.327 21.3232C164.403 21.4864 164.524 21.6119 164.688 21.6997C164.853 21.7876 165.081 21.8315 165.373 21.8315C165.512 21.844 165.664 21.8566 165.829 21.8691C165.981 21.8942 166.146 21.9068 166.324 21.9068C166.577 21.9068 166.78 21.8629 166.932 21.775C167.071 21.6997 167.141 21.5742 167.141 21.3985C167.141 21.273 167.097 21.1726 167.008 21.0973C166.907 21.022 166.767 20.9844 166.59 20.9844C166.425 20.9844 166.292 21.0346 166.19 21.135C166.076 21.2354 166.019 21.3923 166.019 21.6056C166.019 21.7687 166.064 21.9131 166.152 22.0386C166.228 22.1766 166.336 22.3021 166.476 22.4151L165.069 22.7727C164.917 22.5594 164.809 22.3147 164.745 22.0386C164.669 21.7625 164.631 21.5429 164.631 21.3797C164.631 20.8275 164.809 20.3757 165.164 20.0243C165.506 19.6729 166.007 19.4972 166.666 19.4972C167.299 19.4972 167.813 19.6729 168.206 20.0243C168.586 20.3883 168.776 20.8338 168.776 21.3609C168.776 21.7123 168.7 22.0448 168.548 22.3586C168.383 22.6849 168.111 22.9484 167.73 23.1492C167.35 23.3626 166.824 23.4692 166.152 23.4692Z" fill="#FF5858"/>
<path d="M172.206 15.9616C171.231 15.9616 170.41 15.7478 169.743 15.3201C169.076 14.8923 168.441 14.3546 167.838 13.7069L169.319 12.1305C169.589 12.4238 169.871 12.6926 170.166 12.937C170.448 13.1814 170.756 13.377 171.09 13.5236C171.436 13.6703 171.808 13.7436 172.206 13.7436C172.655 13.7436 173.001 13.6214 173.245 13.377C173.488 13.1326 173.61 12.7659 173.61 12.2771C173.61 11.7027 173.476 11.1956 173.206 10.7556C172.937 10.3157 172.584 9.92463 172.148 9.58246C171.712 9.22806 171.25 8.90421 170.763 8.61091L172.283 6.57617C173.039 6.96723 173.719 7.43162 174.322 7.96933C174.925 8.50704 175.4 9.11807 175.746 9.80243C176.105 10.4746 176.285 11.2322 176.285 12.0755C176.285 13.2487 175.938 14.1896 175.246 14.8984C174.553 15.6072 173.54 15.9616 172.206 15.9616Z" fill="#FF5858"/>
<path d="M165.196 15.961C164.479 15.961 163.87 15.8957 163.368 15.7651C162.865 15.6464 162.438 15.4743 162.086 15.2488C161.734 15.0114 161.42 14.7384 161.144 14.4298L161.276 14.4476C160.974 14.863 160.654 15.1835 160.314 15.409C159.988 15.6227 159.636 15.7651 159.259 15.8363C158.895 15.9194 158.486 15.961 158.034 15.961C157.041 15.961 156.237 15.6286 155.622 14.9639C155.006 14.2992 154.698 13.3556 154.698 12.133C154.698 10.9935 154.994 10.0321 155.584 9.24868C156.175 8.45342 157.01 7.85401 158.091 7.45044C159.171 7.04687 160.434 6.84509 161.879 6.84509C162.645 6.84509 163.342 6.88663 163.971 6.96972C164.599 7.05281 165.208 7.17744 165.799 7.34361C166.389 7.49792 167.011 7.6997 167.665 7.94896L166.515 9.94306C165.836 9.65819 165.24 9.4386 164.725 9.2843C164.222 9.12999 163.738 9.02316 163.273 8.96381C162.808 8.8926 162.3 8.85699 161.747 8.85699C160.717 8.85699 159.875 8.99942 159.221 9.2843C158.568 9.5573 158.084 9.93119 157.77 10.406C157.469 10.8689 157.318 11.3852 157.318 11.955C157.318 12.6197 157.431 13.0944 157.657 13.3793C157.883 13.6642 158.197 13.8066 158.599 13.8066C159.014 13.8066 159.347 13.6642 159.598 13.3793C159.862 13.0944 160.019 12.6968 160.069 12.1864H162.388C162.425 12.6493 162.57 13.0232 162.821 13.3081C163.085 13.593 163.525 13.7769 164.14 13.86C164.329 13.8956 164.536 13.9253 164.762 13.9491C165.001 13.9609 165.252 13.9669 165.516 13.9669C165.868 13.9669 166.144 13.9016 166.345 13.771C166.546 13.6404 166.647 13.4268 166.647 13.1301C166.647 12.9283 166.571 12.7621 166.421 12.6315C166.282 12.501 166.088 12.4357 165.836 12.4357C165.598 12.4357 165.39 12.501 165.215 12.6315C165.051 12.7621 164.97 12.9757 164.97 13.2725C164.97 13.4861 165.026 13.6879 165.139 13.8778C165.252 14.0559 165.409 14.2161 165.61 14.3586L163.782 14.8571C163.569 14.5722 163.405 14.2458 163.292 13.8778C163.192 13.498 163.141 13.1953 163.141 12.9698C163.141 12.2458 163.38 11.6642 163.858 11.225C164.348 10.7739 165.032 10.5484 165.912 10.5484C166.49 10.5484 166.992 10.6612 167.42 10.8867C167.847 11.1122 168.18 11.4208 168.418 11.8125C168.657 12.1924 168.776 12.6197 168.776 13.0944C168.776 13.4505 168.714 13.8007 168.588 14.1449C168.475 14.4891 168.28 14.7977 168.004 15.0707C167.74 15.3437 167.376 15.5633 166.911 15.7295C166.446 15.8838 165.874 15.961 165.196 15.961ZM161.2 8.69675C160.61 8.69675 160.088 8.60773 159.636 8.42968C159.184 8.23977 158.8 7.93709 158.486 7.52166C158.172 7.09435 157.927 6.51867 157.751 5.79463L160.314 5.17147C160.453 5.77682 160.603 6.21006 160.767 6.47119C160.93 6.72046 161.156 6.84509 161.445 6.84509C161.634 6.84509 161.822 6.77981 162.011 6.64924C162.199 6.51867 162.45 6.26941 162.764 5.90145L163.556 4.95782C163.996 4.43556 164.41 4.02605 164.8 3.72931C165.189 3.4207 165.61 3.19518 166.063 3.05275C166.527 2.91031 167.08 2.83316 167.721 2.82129L167.872 4.8866C167.445 4.91034 167.074 4.98156 166.76 5.10025C166.458 5.20708 166.182 5.36139 165.931 5.56317C165.679 5.76495 165.416 6.03202 165.139 6.36437L164.517 7.09435C164.278 7.37922 163.996 7.64629 163.669 7.89555C163.342 8.13294 162.972 8.32879 162.557 8.4831C162.155 8.62553 161.703 8.69675 161.2 8.69675Z" fill="#FF5858"/>
<path d="M138.743 11.4596C138.743 10.5641 138.946 9.75935 139.354 9.04538C139.761 8.31932 140.359 7.74452 141.148 7.32098C141.95 6.88534 142.93 6.66752 144.088 6.66752C145.258 6.66752 146.238 6.87324 147.027 7.28467C147.816 7.68401 148.408 8.24066 148.803 8.95463C149.21 9.66859 149.413 10.4975 149.413 11.4414C149.413 12.3248 149.216 13.1114 148.822 13.8011C148.427 14.4788 147.835 15.0112 147.046 15.3985C146.257 15.7736 145.271 15.9612 144.088 15.9612C142.904 15.9612 141.911 15.7675 141.11 15.3803C140.321 14.9931 139.729 14.4606 139.334 13.783C138.94 13.1053 138.743 12.3308 138.743 11.4596ZM141.396 11.2236C141.396 11.9618 141.619 12.5729 142.064 13.0569C142.522 13.5288 143.197 13.7648 144.088 13.7648C144.686 13.7648 145.182 13.662 145.577 13.4562C145.971 13.2384 146.27 12.948 146.474 12.585C146.677 12.2098 146.779 11.7863 146.779 11.3143C146.779 10.8303 146.677 10.3947 146.474 10.0074C146.283 9.62019 145.984 9.31161 145.577 9.08169C145.182 8.83967 144.686 8.71866 144.088 8.71866C143.477 8.71866 142.974 8.83362 142.58 9.06354C142.185 9.29346 141.886 9.60204 141.682 9.98927C141.492 10.3644 141.396 10.7758 141.396 11.2236ZM151.933 8.48268C151.348 8.48268 150.864 8.39798 150.482 8.22856C150.101 8.05914 149.795 7.84738 149.566 7.59325C149.35 7.32703 149.197 7.0487 149.108 6.75828C149.019 6.46785 148.974 6.20768 148.974 5.97775C148.974 5.48161 149.057 5.07622 149.223 4.76159C149.401 4.43486 149.579 4.14444 149.757 3.89031L151.8 4.01738C151.52 4.2715 151.297 4.51957 151.132 4.76159C150.966 5.00362 150.883 5.31219 150.883 5.68733C150.883 5.98986 150.979 6.23793 151.17 6.43155C151.373 6.62516 151.634 6.72197 151.952 6.72197C152.334 6.72197 152.608 6.63121 152.773 6.4497C152.951 6.26818 153.04 6.05036 153.04 5.79624C153.04 5.44531 152.888 5.19118 152.582 5.03387C152.277 4.87655 151.863 4.7979 151.341 4.7979H148.612C148.179 4.7979 147.842 4.90076 147.6 5.10647C147.358 5.31219 147.206 5.63892 147.142 6.08667H144.813C144.724 5.68733 144.558 5.3727 144.317 5.14278C144.088 4.91286 143.719 4.7979 143.21 4.7979H143C142.72 4.7979 142.478 4.8826 142.274 5.05202C142.071 5.22144 141.969 5.46346 141.969 5.77809C141.969 5.9717 142.013 6.13507 142.102 6.26818C142.204 6.40129 142.344 6.50415 142.522 6.57676C142.7 6.63727 142.904 6.66752 143.133 6.66752H143.782V8.64605H143.286C142.548 8.64605 141.899 8.52504 141.339 8.28302C140.792 8.02889 140.365 7.67191 140.06 7.21207C139.754 6.75223 139.602 6.21373 139.602 5.59657C139.602 4.76159 139.888 4.08393 140.461 3.56358C141.046 3.03114 141.841 2.76491 142.847 2.76491H143.076C143.636 2.76491 144.119 2.84357 144.527 3.00088C144.934 3.1461 145.265 3.34576 145.519 3.59989C145.774 3.85401 145.952 4.12629 146.054 4.41671H145.882C146.035 4.11418 146.232 3.84191 146.474 3.59989C146.716 3.34576 147.046 3.1461 147.466 3.00088C147.886 2.84357 148.434 2.76491 149.108 2.76491H150.253C151.081 2.76491 151.787 2.81332 152.372 2.91012C152.958 2.99483 153.473 3.20055 153.919 3.52728C154.249 3.7572 154.51 4.04763 154.701 4.39856C154.892 4.74949 154.988 5.19723 154.988 5.74178C154.988 6.54046 154.72 7.19997 154.186 7.72031C153.651 8.22856 152.9 8.48268 151.933 8.48268ZM152.544 0.00585938C153.359 0.00585938 154.014 0.169224 154.51 0.495954C155.007 0.810583 155.382 1.25832 155.637 1.83918L153.689 2.29297C153.613 2.15986 153.524 2.0449 153.422 1.94809C153.32 1.85128 153.199 1.77867 153.06 1.73027C152.92 1.68186 152.754 1.65766 152.563 1.65766C152.245 1.65766 151.997 1.73027 151.819 1.87548C151.653 2.00859 151.571 2.18406 151.571 2.40188C151.571 2.6318 151.641 2.84357 151.781 3.03719C151.921 3.2187 152.111 3.38207 152.353 3.52728L150.406 4.21704C150.164 4.01132 149.942 3.73905 149.738 3.40022C149.547 3.04929 149.452 2.64995 149.452 2.20221C149.452 1.81497 149.56 1.45799 149.776 1.13126C149.993 0.792431 150.33 0.520156 150.788 0.314438C151.246 0.108719 151.831 0.00585938 152.544 0.00585938Z" fill="#FF5858"/>
<path d="M126.058 6.57617C126.867 6.57617 127.541 6.74409 128.08 7.07993C128.62 7.41577 129.053 7.85955 129.382 8.41129C129.71 8.96302 129.944 9.57473 130.085 10.2464C130.226 10.9061 130.296 11.5718 130.296 12.2434C130.296 13.4549 130.149 14.5943 129.856 15.6618C129.575 16.7293 129.165 17.7248 128.626 18.6484C128.098 19.5839 127.465 20.4475 126.726 21.2391C125.988 22.0427 125.173 22.7864 124.282 23.47L122.788 21.7788C123.491 21.2151 124.153 20.6094 124.775 19.9617C125.408 19.314 125.959 18.6064 126.427 17.8387C126.908 17.0831 127.283 16.2495 127.553 15.3379C127.822 14.4264 127.957 13.4129 127.957 12.2974C127.957 11.8896 127.922 11.4578 127.852 11.002C127.793 10.5463 127.688 10.1205 127.535 9.72465C127.395 9.32884 127.195 9.005 126.937 8.75312C126.691 8.50124 126.375 8.3753 125.988 8.3753C125.742 8.3753 125.531 8.44727 125.355 8.5912C125.179 8.73513 125.091 8.92704 125.091 9.16692C125.091 9.40681 125.156 9.59871 125.285 9.74264C125.413 9.87458 125.572 9.96454 125.759 10.0125C125.959 10.0605 126.146 10.0845 126.322 10.0845C126.803 10.0845 127.213 9.95254 127.553 9.68867C127.893 9.4128 128.209 9.11895 128.502 8.8071L129.135 10.6602C128.725 10.9601 128.274 11.2359 127.781 11.4878C127.301 11.7397 126.703 11.8656 125.988 11.8656C125.097 11.8656 124.37 11.6497 123.807 11.2179C123.257 10.7861 122.981 10.1145 122.981 9.2029C122.981 8.69915 123.098 8.24936 123.333 7.85356C123.567 7.45775 123.913 7.1459 124.37 6.91801C124.827 6.69012 125.39 6.57617 126.058 6.57617Z" fill="#FF5858"/>
<path d="M116.199 23.4692C115.66 23.4692 115.218 23.3688 114.874 23.1681C114.519 22.9673 114.181 22.6535 113.862 22.2268H114.286C113.991 22.5406 113.715 22.7853 113.457 22.961C113.188 23.1492 112.905 23.281 112.611 23.3563C112.316 23.4316 111.961 23.4692 111.544 23.4692C110.832 23.4692 110.268 23.3124 109.85 22.9986C109.433 22.6849 109.139 22.2833 108.967 21.7938C108.795 21.317 108.709 20.8275 108.709 20.3255C108.709 19.5976 108.857 18.9764 109.151 18.4619C109.433 17.9599 109.82 17.5708 110.311 17.2947C110.801 17.0312 111.353 16.8994 111.967 16.8994C112.727 16.8994 113.304 17.0814 113.697 17.4453C114.077 17.8218 114.267 18.2799 114.267 18.8195C114.267 19.447 114.071 19.9239 113.678 20.2502C113.273 20.5765 112.672 20.7397 111.875 20.7397C111.445 20.7397 111.059 20.6518 110.715 20.4761C110.36 20.313 110.053 20.1122 109.795 19.8737L110.292 18.5936C110.439 18.7944 110.636 18.9827 110.881 19.1584C111.114 19.3341 111.384 19.4219 111.691 19.4219C111.961 19.4219 112.175 19.3717 112.335 19.2713C112.482 19.1835 112.556 19.0392 112.556 18.8384C112.556 18.7003 112.513 18.5685 112.427 18.443C112.329 18.3301 112.175 18.2736 111.967 18.2736C111.636 18.2736 111.335 18.4117 111.065 18.6878C110.795 18.9639 110.66 19.4533 110.66 20.1561V20.3632C110.66 20.6769 110.703 20.9405 110.789 21.1538C110.863 21.3672 110.991 21.524 111.175 21.6244C111.347 21.7248 111.568 21.775 111.838 21.775C112.316 21.775 112.648 21.6621 112.832 21.4362C113.003 21.2228 113.108 20.9969 113.145 20.7585H114.93C114.991 21.2103 115.132 21.4927 115.353 21.6056C115.561 21.7185 115.801 21.775 116.071 21.775C116.39 21.775 116.623 21.6809 116.77 21.4927C116.905 21.3044 116.972 21.0848 116.972 20.8338C116.972 20.3192 116.782 19.8863 116.402 19.5349C116.022 19.1835 115.592 18.8697 115.114 18.5936L116.291 16.8994C116.807 17.163 117.273 17.483 117.69 17.8595C118.107 18.236 118.438 18.6627 118.684 19.1396C118.917 19.6165 119.033 20.1498 119.033 20.7397C119.033 21.5554 118.794 22.2143 118.316 22.7163C117.825 23.2183 117.12 23.4692 116.199 23.4692Z" fill="#FF5858"/>
<path d="M116.433 16.434C115.827 16.434 115.29 16.3479 114.823 16.1758C114.356 16.0036 113.883 15.7147 113.403 15.3089C112.936 14.8908 112.374 14.3251 111.718 13.6119C111.364 13.2184 111.086 12.9478 110.884 12.8003C110.682 12.6404 110.449 12.5605 110.184 12.5605C109.982 12.5605 109.78 12.6404 109.578 12.8003C109.388 12.9478 109.294 13.1815 109.294 13.5012C109.294 13.8824 109.395 14.1468 109.597 14.2944C109.811 14.4419 110.058 14.5157 110.335 14.5157C110.638 14.5157 110.941 14.3927 111.244 14.1468C111.547 13.9009 111.762 13.4951 111.888 12.9294L113.46 14.5526C113.207 14.8969 112.942 15.2166 112.665 15.5118C112.399 15.7946 112.065 16.0221 111.661 16.1942C111.257 16.3541 110.714 16.434 110.032 16.434C109.287 16.434 108.675 16.2988 108.195 16.0282C107.728 15.7454 107.381 15.3826 107.154 14.9399C106.939 14.4973 106.832 14.03 106.832 13.5381C106.832 12.9355 106.977 12.4191 107.268 11.9887C107.558 11.546 107.956 11.2017 108.461 10.9557C108.966 10.7098 109.534 10.5868 110.165 10.5868C110.695 10.5868 111.162 10.6545 111.566 10.7897C111.97 10.925 112.362 11.1463 112.74 11.4538C113.132 11.7612 113.561 12.167 114.028 12.6712C114.432 13.1015 114.76 13.4274 115.013 13.6488C115.278 13.8701 115.518 14.0177 115.732 14.0915C115.959 14.1652 116.218 14.2021 116.509 14.2021C116.862 14.2021 117.153 14.0792 117.38 13.8332C117.62 13.5873 117.74 13.2184 117.74 12.7265C117.74 12.1485 117.607 11.6382 117.342 11.1955C117.077 10.7528 116.73 10.3593 116.3 10.015C115.884 9.6584 115.436 9.33253 114.956 9.0374L116.433 6.98996C117.178 7.38346 117.847 7.85074 118.44 8.39181C119.034 8.93288 119.501 9.54773 119.842 10.2364C120.195 10.9127 120.372 11.6751 120.372 12.5236C120.372 13.3106 120.22 13.9992 119.917 14.5895C119.614 15.1674 119.166 15.6224 118.573 15.9544C117.992 16.2742 117.279 16.434 116.433 16.434ZM119.273 18.7766C118.566 18.7766 117.998 18.6659 117.569 18.4446C117.153 18.2232 116.85 17.9343 116.66 17.5776C116.483 17.221 116.395 16.8398 116.395 16.434C116.395 16.2742 116.408 16.1082 116.433 15.936C116.471 15.7638 116.521 15.5978 116.584 15.438H119.027C118.964 15.5363 118.914 15.6347 118.876 15.7331C118.838 15.8192 118.819 15.9053 118.819 15.9913C118.819 16.1266 118.85 16.2496 118.914 16.3602C118.977 16.4709 119.065 16.557 119.179 16.6185C119.292 16.68 119.425 16.7107 119.576 16.7107C119.778 16.7107 119.955 16.6738 120.107 16.6C120.271 16.5385 120.466 16.4279 120.694 16.268L121.849 17.8912C121.445 18.1863 121.035 18.4077 120.618 18.5552C120.214 18.7028 119.766 18.7766 119.273 18.7766ZM110.638 8.90828C110.045 8.90828 109.521 8.81606 109.067 8.6316C108.612 8.43485 108.227 8.12128 107.911 7.69089C107.596 7.24819 107.35 6.65179 107.173 5.90168L109.748 5.25609C109.887 5.88323 110.039 6.33207 110.203 6.6026C110.367 6.86084 110.594 6.98996 110.884 6.98996C111.074 6.98996 111.263 6.92233 111.453 6.78706C111.642 6.65179 111.894 6.39356 112.21 6.01235L113.005 5.03474C113.447 4.49368 113.864 4.06943 114.255 3.76201C114.647 3.44228 115.069 3.20864 115.524 3.06108C115.991 2.91352 116.547 2.83359 117.19 2.82129L117.342 4.96096C116.913 4.98555 116.54 5.05933 116.225 5.1823C115.922 5.29298 115.644 5.45284 115.391 5.66189C115.139 5.87093 114.874 6.14762 114.596 6.49193L113.971 7.24819C113.731 7.54332 113.447 7.82 113.119 8.07824C112.791 8.32418 112.418 8.52708 112.002 8.68694C111.598 8.8345 111.143 8.90828 110.638 8.90828Z" fill="#FF5858"/>
<path d="M88.061 11.4156C88.061 10.5112 88.2613 9.73522 88.6617 9.08752C89.0622 8.43982 89.6503 7.93878 90.4262 7.58438C91.2146 7.22998 92.1719 7.05278 93.2981 7.05278C94.4619 7.05278 95.4318 7.21776 96.2076 7.54771C96.9835 7.87767 97.5654 8.3665 97.9533 9.01419C98.3538 9.64967 98.554 10.444 98.554 11.3972C98.554 12.2893 98.36 13.0837 97.9721 13.7803C97.5842 14.4646 96.996 15.0023 96.2076 15.3934C95.4318 15.7722 94.4619 15.9616 93.2981 15.9616C92.1469 15.9616 91.177 15.7661 90.3886 15.3751C89.6128 14.984 89.0309 14.4463 88.6429 13.7619C88.255 13.0776 88.061 12.2954 88.061 11.4156ZM90.6702 11.1773C90.6702 11.9227 90.8892 12.5399 91.3272 13.0287C91.7777 13.5053 92.4347 13.7436 93.2981 13.7436C93.8863 13.7436 94.3743 13.6397 94.7623 13.432C95.1627 13.212 95.4568 12.9187 95.6445 12.5521C95.8447 12.1732 95.9448 11.7455 95.9448 11.2689C95.9448 10.7801 95.8447 10.3401 95.6445 9.94908C95.4568 9.55802 95.169 9.24639 94.781 9.01419C94.3931 8.76978 93.8988 8.64758 93.2981 8.64758C92.71 8.64758 92.2157 8.76367 91.8152 8.99586C91.4273 9.22806 91.1395 9.53968 90.9518 9.93075C90.7641 10.3096 90.6702 10.7251 90.6702 11.1773ZM102.89 12.3688C102.314 12.3688 101.839 12.2832 101.463 12.1121C101.088 11.941 100.788 11.7272 100.562 11.4706C100.35 11.2017 100.2 10.9206 100.112 10.6273C100.024 10.334 99.9806 10.0652 99.9806 9.82076C99.9806 9.34415 100.062 8.94087 100.225 8.61091C100.4 8.28096 100.575 7.98155 100.75 7.71269L102.759 7.85934C102.483 8.11598 102.264 8.3665 102.102 8.61091C101.939 8.85533 101.858 9.16695 101.858 9.54579C101.858 9.85131 101.952 10.1018 102.139 10.2974C102.339 10.4929 102.596 10.5907 102.909 10.5907C103.272 10.5907 103.541 10.5051 103.716 10.334C103.891 10.1507 103.979 9.92463 103.979 9.65578C103.979 9.28916 103.829 9.03253 103.528 8.88588C103.228 8.72701 102.821 8.64758 102.308 8.64758H88.23V6.57617H100.694C101.457 6.57617 102.089 6.60061 102.59 6.6495C103.09 6.68616 103.516 6.75948 103.866 6.86947C104.229 6.97945 104.561 7.15054 104.861 7.38274C105.174 7.61493 105.424 7.90823 105.612 8.26262C105.8 8.61702 105.893 9.06308 105.893 9.60079C105.893 10.3951 105.631 11.055 105.105 11.5805C104.579 12.106 103.841 12.3688 102.89 12.3688Z" fill="#FF5858"/>
<path d="M75.5623 15.9616C74.78 15.9616 74.1504 15.8333 73.6737 15.5767C73.2092 15.3078 72.8731 14.9657 72.6653 14.5502C72.4697 14.1347 72.3719 13.6947 72.3719 13.2303C72.3719 12.6315 72.5064 12.1366 72.7753 11.7455C73.0442 11.3545 73.3987 11.0673 73.8387 10.884C74.291 10.6884 74.7677 10.5907 75.2689 10.5907C75.9045 10.5907 76.4363 10.7006 76.8641 10.9206C77.3041 11.1284 77.6647 11.3789 77.9459 11.6722C78.2393 11.9533 78.4715 12.2038 78.6426 12.4238L77.7075 14.2935C77.5731 13.9636 77.408 13.6519 77.2125 13.3586C77.0291 13.0653 76.8091 12.827 76.5524 12.6437C76.2957 12.4482 75.9901 12.3504 75.6356 12.3504C75.3667 12.3504 75.1222 12.4238 74.9022 12.5704C74.6822 12.7171 74.5722 12.9493 74.5722 13.267C74.5722 13.5481 74.6638 13.768 74.8472 13.9269C75.0305 14.0858 75.275 14.1652 75.5806 14.1652C75.984 14.1652 76.3018 14.0552 76.5341 13.8352C76.7785 13.6153 76.9497 13.322 77.0475 12.9554C77.1452 12.5887 77.1941 12.1916 77.1941 11.7638V11.4156C77.1941 10.9023 77.1269 10.4501 76.9924 10.0591C76.858 9.668 76.6441 9.36248 76.3507 9.14251C76.0573 8.91032 75.6723 8.79422 75.1956 8.79422C74.9022 8.79422 74.6394 8.85533 74.4071 8.97753C74.1749 9.08752 73.9793 9.24639 73.8204 9.45414C73.6737 9.64967 73.5576 9.87575 73.472 10.1324H71.1067C71.0456 9.93686 70.9356 9.72299 70.7767 9.4908C70.63 9.24639 70.41 9.03864 70.1166 8.86755C69.8233 8.68424 69.4199 8.59258 68.9065 8.59258C68.4787 8.59258 68.1303 8.66591 67.8614 8.81255C67.6047 8.94698 67.4763 9.17306 67.4763 9.4908C67.4763 9.61301 67.4947 9.7291 67.5313 9.83909C67.5802 9.93686 67.6658 10.0224 67.788 10.0957C67.898 10.1568 68.0386 10.2118 68.2097 10.2607C68.3931 10.2974 68.6742 10.3157 69.0532 10.3157H70.135V12.2221H68.9982C68.6192 12.2221 68.3259 12.2405 68.1181 12.2771C67.9103 12.3138 67.7452 12.381 67.623 12.4788C67.5374 12.5521 67.4641 12.6437 67.403 12.7537C67.3541 12.8515 67.3296 12.9676 67.3296 13.102C67.3296 13.3464 67.4091 13.5481 67.568 13.7069C67.7391 13.8658 68.0142 13.9452 68.3931 13.9452C68.7965 13.9452 69.1571 13.8414 69.4749 13.6336C69.8049 13.4259 70.1227 13.1509 70.4283 12.8087L72.0052 14.2019C71.6752 14.5807 71.3146 14.9046 70.9234 15.1734C70.5445 15.43 70.1227 15.6256 69.6582 15.76C69.1937 15.8944 68.662 15.9616 68.0631 15.9616C66.914 15.9616 66.0462 15.7233 65.4594 15.2467C64.8849 14.7579 64.5977 14.1591 64.5977 13.4503C64.5977 13.1081 64.6649 12.7904 64.7993 12.4971C64.9338 12.1916 65.1416 11.9288 65.4227 11.7089C65.7161 11.4767 66.0828 11.2934 66.5229 11.1589L66.5045 11.3972C65.8934 11.1895 65.4472 10.8778 65.1661 10.4623C64.8849 10.0468 64.7443 9.58857 64.7443 9.08752C64.7443 8.32984 65.0744 7.72491 65.7345 7.27275C66.3945 6.80836 67.2685 6.57617 68.3564 6.57617C69.0043 6.57617 69.5543 6.63727 70.0066 6.75948C70.4711 6.86947 70.8989 7.05278 71.2901 7.30941C71.6813 7.55382 72.0785 7.88989 72.4819 8.31762L72.0969 8.33595C72.378 7.96933 72.6714 7.6577 72.977 7.40107C73.2948 7.13221 73.6493 6.93057 74.0404 6.79614C74.4438 6.6495 74.9205 6.57617 75.4706 6.57617C76.3874 6.57617 77.1513 6.78392 77.7625 7.19943C78.3737 7.60271 78.8321 8.17097 79.1377 8.90421C79.4555 9.62523 79.6144 10.4562 79.6144 11.3972C79.6144 12.3627 79.4677 13.1876 79.1744 13.8719C78.881 14.544 78.4348 15.0634 77.8359 15.43C77.2369 15.7844 76.479 15.9616 75.5623 15.9616Z" fill="#FF5858"/>
<path d="M50.1107 7.03805C51.1742 7.03805 52.092 7.19202 52.8643 7.49994C53.6366 7.80786 54.2317 8.26975 54.6495 8.88559C55.0673 9.50143 55.2762 10.2651 55.2762 11.1765C55.2762 11.9279 55.2065 12.593 55.0673 13.1719C54.928 13.7508 54.7508 14.2681 54.5355 14.7238C54.3203 15.1672 54.1051 15.5798 53.8898 15.9616L51.3451 15.0009C51.5603 14.7176 51.7629 14.4036 51.9528 14.0587C52.1553 13.7015 52.3199 13.3074 52.4465 12.8763C52.5731 12.4452 52.6364 11.9771 52.6364 11.4721C52.6364 10.9918 52.5542 10.5361 52.3896 10.105C52.225 9.67387 51.9528 9.329 51.573 9.07034C51.2058 8.79937 50.6994 8.66389 50.0537 8.66389C49.5346 8.66389 49.0852 8.7809 48.7053 9.01492C48.3382 9.24894 48.0533 9.57534 47.8508 9.99411C47.6482 10.4006 47.5469 10.8748 47.5469 11.4167C47.5469 12.1311 47.6672 12.79 47.9077 13.3936C48.1483 13.9848 48.4585 14.5144 48.8383 14.9825L46.2745 15.9616C45.882 15.3089 45.5529 14.5945 45.287 13.8185C45.0211 13.0425 44.8882 12.2235 44.8882 11.3613C44.8882 10.5484 45.0844 9.81552 45.4769 9.16272C45.882 8.50992 46.4708 7.99261 47.243 7.61079C48.0153 7.22897 48.9712 7.03805 50.1107 7.03805ZM59.6631 12.4144C59.0807 12.4144 58.5996 12.3282 58.2198 12.1557C57.8399 11.9833 57.5424 11.7677 57.3272 11.5091C57.112 11.2381 56.96 10.9548 56.8714 10.6592C56.7828 10.3636 56.7385 10.0926 56.7385 9.84631C56.7385 9.36595 56.8208 8.95949 56.9854 8.62694C57.1626 8.29438 57.3398 7.99262 57.5171 7.72164L59.5491 7.86945C59.2706 8.1281 59.049 8.3806 58.8844 8.62694C58.7198 8.87327 58.6376 9.18735 58.6376 9.56918C58.6376 9.8771 58.7325 10.1296 58.9224 10.3267C59.125 10.5237 59.3845 10.6223 59.701 10.6223C60.0682 10.6223 60.3404 10.5361 60.5176 10.3636C60.6949 10.1789 60.7835 9.951 60.7835 9.68003C60.7835 9.31052 60.6316 9.05187 60.3277 8.90407C60.0239 8.74395 59.6187 8.66389 59.1123 8.66389H44.9831V6.57617H57.4601C58.2324 6.57617 58.8718 6.60081 59.3782 6.65007C59.8846 6.68702 60.3151 6.76093 60.6696 6.87178C61.0367 6.98263 61.3722 7.15507 61.6761 7.38909C61.9926 7.62311 62.2458 7.91871 62.4357 8.2759C62.6256 8.63309 62.7206 9.08266 62.7206 9.6246C62.7206 10.4252 62.4484 11.0903 61.904 11.6199C61.3722 12.1496 60.6253 12.4144 59.6631 12.4144Z" fill="#FF5858"/>
<path d="M33.6255 12.6958C33.6255 11.8895 33.8178 11.1664 34.2025 10.5265C34.5871 9.88654 35.132 9.38101 35.8372 9.00985C36.5424 8.6387 37.3822 8.45312 38.3567 8.45312C39.344 8.45312 40.1838 8.6387 40.8762 9.00985C41.5685 9.38101 42.0942 9.88654 42.4532 10.5265C42.8251 11.1664 43.011 11.8895 43.011 12.6958C43.011 13.5021 42.8251 14.2252 42.4532 14.8651C42.0814 15.4922 41.5429 15.9914 40.8377 16.3625C40.1453 16.7209 39.3055 16.9001 38.3182 16.9001C37.3438 16.9001 36.504 16.7145 35.7988 16.3433C35.0936 15.9722 34.5551 15.473 34.1832 14.8459C33.8114 14.206 33.6255 13.4893 33.6255 12.6958ZM36.2026 12.6766C36.2026 13.2653 36.3757 13.7645 36.7219 14.174C37.0809 14.5707 37.613 14.7691 38.3182 14.7691C38.7926 14.7691 39.1837 14.6795 39.4914 14.5004C39.7991 14.3084 40.0299 14.0524 40.1838 13.7325C40.3505 13.4125 40.4338 13.0605 40.4338 12.6766C40.4338 12.0879 40.2479 11.5951 39.8761 11.1984C39.5171 10.7888 38.9978 10.5841 38.3182 10.5841C37.8695 10.5841 37.4848 10.68 37.1643 10.872C36.8566 11.0512 36.6194 11.3008 36.4527 11.6207C36.286 11.9279 36.2026 12.2798 36.2026 12.6766Z" fill="#FF5858"/>
<path d="M25.1787 15.9616C23.7643 15.9616 22.5669 15.7356 21.5867 15.2834C20.6065 14.819 19.8621 14.1958 19.3533 13.4136C18.857 12.6193 18.6089 11.7272 18.6089 10.7373C18.6089 9.88186 18.7764 9.14251 19.1114 8.51926C19.4588 7.896 19.9427 7.4194 20.5631 7.08944C21.1835 6.74726 21.8969 6.57617 22.7034 6.57617C23.4479 6.57617 24.0496 6.7106 24.5087 6.97945C24.9678 7.23609 25.3028 7.57216 25.5137 7.98766C25.7247 8.39094 25.8301 8.81255 25.8301 9.2525C25.8301 9.81465 25.706 10.2974 25.4579 10.7006C25.2097 11.1039 24.8499 11.4094 24.3784 11.6172C23.9069 11.8249 23.33 11.9288 22.6476 11.9288C22.1513 11.9288 21.7108 11.8616 21.3262 11.7272C20.9415 11.5928 20.6065 11.4278 20.3211 11.2322C20.0482 11.0367 19.8186 10.8595 19.6325 10.7006L20.0606 8.97753C20.2095 9.16084 20.3832 9.34415 20.5817 9.52746C20.7926 9.71077 21.0284 9.86353 21.2889 9.98574C21.5495 10.0957 21.8287 10.1507 22.1264 10.1507C22.5111 10.1507 22.8213 10.0835 23.057 9.94908C23.2928 9.80243 23.4106 9.56413 23.4106 9.23417C23.4106 9.02642 23.3362 8.837 23.1873 8.66591C23.0384 8.4826 22.8213 8.39094 22.5359 8.39094C22.1016 8.39094 21.7418 8.57425 21.4564 8.94087C21.1711 9.29527 21.0284 9.72299 21.0284 10.224V10.939C21.0284 11.2322 21.0904 11.5439 21.2145 11.8738C21.351 12.1916 21.5743 12.4971 21.8845 12.7904C22.2071 13.0715 22.6414 13.3037 23.1873 13.487C23.7456 13.6581 24.4405 13.7436 25.2718 13.7436C26.4381 13.7436 27.3749 13.5481 28.0821 13.157C28.8017 12.7537 29.1616 12.1244 29.1616 11.2689C29.1616 10.6945 28.9817 10.2179 28.6218 9.83909C28.2744 9.44803 27.7285 9.05086 26.984 8.64758L28.4357 6.57617C29.4159 7.05278 30.21 7.68214 30.818 8.46426C31.4384 9.23417 31.7486 10.1813 31.7486 11.3056C31.7486 12.1732 31.5128 12.9615 31.0413 13.6703C30.5822 14.3668 29.8688 14.9229 28.901 15.3384C27.9332 15.7539 26.6924 15.9616 25.1787 15.9616Z" fill="#FF5858"/>
<path d="M14.453 5.71678C14.453 6.14438 14.3673 6.54145 14.196 6.90796C14.0246 7.27448 13.786 7.56159 13.48 7.76928C13.1496 8.00141 12.7212 8.19688 12.195 8.35571C11.681 8.50232 11.1547 8.57562 10.6162 8.57562H7.62386V6.5781H10.6346C10.9895 6.5781 11.2526 6.55977 11.4239 6.52312C11.6075 6.47425 11.7483 6.40706 11.8462 6.32154C11.9196 6.24823 11.9747 6.16882 12.0114 6.0833C12.0481 5.98556 12.0665 5.88171 12.0665 5.77176C12.0665 5.62515 12.0481 5.50298 12.0114 5.40524C11.9747 5.29529 11.9135 5.20366 11.8278 5.13035C11.7299 5.04483 11.5892 4.98374 11.4056 4.94709C11.2342 4.91044 10.9466 4.89212 10.5428 4.89212H3.47498V2.82129H10.3041C11.1731 2.82129 11.8462 2.88848 12.3235 3.02287C12.813 3.14505 13.2353 3.35274 13.5902 3.64595C13.8472 3.86587 14.0552 4.14686 14.2143 4.48895C14.3735 4.83103 14.453 5.24031 14.453 5.71678ZM8.00938 15.961C6.32045 15.961 4.94361 15.7655 3.87885 15.3745C2.81409 14.9836 2.03082 14.4338 1.52904 13.7252C1.02726 13.0166 0.776367 12.198 0.776367 11.2695C0.776367 10.5609 0.941588 9.93784 1.27203 9.40028C1.60247 8.86273 2.0553 8.44123 2.63051 8.1358C3.21797 7.83037 3.88497 7.67765 4.63153 7.67765C5.30465 7.67765 5.86762 7.79982 6.32045 8.04417C6.77328 8.2763 7.11596 8.59395 7.34849 8.99711C7.58103 9.40028 7.69729 9.85232 7.69729 10.3532C7.69729 11.2084 7.42193 11.856 6.87119 12.2958C6.32045 12.7234 5.56778 12.9372 4.61317 12.9372C4.17258 12.9372 3.75647 12.87 3.36483 12.7356C2.98543 12.589 2.64275 12.4118 2.33679 12.2041C2.03082 11.9965 1.77381 11.801 1.56576 11.6177L2.18993 10.1333C2.42246 10.4021 2.70395 10.6587 3.03439 10.903C3.36483 11.1351 3.75647 11.2512 4.20929 11.2512C4.57645 11.2512 4.8763 11.1779 5.10883 11.0313C5.3536 10.8847 5.47599 10.6526 5.47599 10.3349C5.47599 10.0906 5.39644 9.88897 5.23734 9.73015C5.07823 9.57133 4.83958 9.49191 4.52138 9.49191C4.26437 9.49191 4.0196 9.56522 3.78706 9.71182C3.55453 9.84621 3.36483 10.0539 3.21797 10.3349C3.0711 10.6037 2.99767 10.9397 2.99767 11.3428V11.4528C2.99767 11.8193 3.08946 12.1492 3.27304 12.4424C3.46886 12.7356 3.7687 12.9861 4.17258 13.1937C4.57645 13.3892 5.09659 13.5419 5.733 13.6519C6.36941 13.7496 7.13432 13.7985 8.02774 13.7985C8.97011 13.7985 9.79009 13.7557 10.4877 13.6702C11.1853 13.5847 11.7605 13.4503 12.2133 13.267C12.6662 13.0716 13.0027 12.815 13.223 12.4974C13.4556 12.1675 13.5718 11.7643 13.5718 11.2879V11.2329C13.5718 10.7442 13.425 10.3288 13.1312 9.98671C12.8375 9.64463 12.4214 9.47359 11.8829 9.47359C11.6136 9.47359 11.3628 9.54689 11.1302 9.6935C10.9099 9.82789 10.7998 10.0478 10.7998 10.3532C10.7998 10.6831 10.9038 10.9152 11.1119 11.0496C11.3199 11.1718 11.5769 11.2329 11.8829 11.2329C12.1889 11.2329 12.4459 11.1718 12.6539 11.0496C12.862 10.9274 13.0394 10.7564 13.1863 10.5365C13.3332 10.3044 13.4494 10.0356 13.5351 9.73015L14.5448 11.0679C14.2878 11.4345 14.0247 11.7643 13.7554 12.0575C13.4984 12.3385 13.1863 12.5584 12.8191 12.7173C12.452 12.8761 11.9747 12.9555 11.3872 12.9555C10.9222 12.9555 10.4755 12.8822 10.0471 12.7356C9.61875 12.5768 9.26995 12.3263 9.00071 11.9842C8.74369 11.6299 8.61519 11.1596 8.61519 10.5731C8.61519 9.86454 8.87832 9.30255 9.40458 8.88716C9.93084 8.45956 10.6652 8.24575 11.6075 8.24575C11.8401 8.24575 12.0481 8.25186 12.2317 8.26408C12.4153 8.2763 12.5866 8.29462 12.7457 8.31906C12.9048 8.33127 13.0578 8.35571 13.2047 8.39236L11.0751 8.42901C10.916 8.38014 10.7447 8.34349 10.5611 8.31906C10.3898 8.28241 10.2123 8.25797 10.0287 8.24575C9.85741 8.22132 9.67383 8.2091 9.47801 8.2091L10.2674 6.77968C11.0384 6.81633 11.7544 6.94462 12.4153 7.16453C13.0884 7.37222 13.6758 7.67154 14.1776 8.06249C14.6794 8.44123 15.071 8.90549 15.3525 9.45526C15.6463 9.99282 15.7931 10.6098 15.7931 11.3062C15.7931 12.0881 15.6463 12.7722 15.3525 13.3587C15.0588 13.9329 14.5999 14.4155 13.9757 14.8064C13.3515 15.1852 12.5438 15.4723 11.5525 15.6677C10.5734 15.8632 9.39234 15.961 8.00938 15.961Z" fill="#FF5858"/>
</svg>
