<svg width="290" height="25" viewBox="0 0 290 25" fill="none" xmlns="http://www.w3.org/2000/svg">
<path d="M286.497 23.2289C285.932 23.2289 285.471 23.1383 285.114 22.9569C284.746 22.7876 284.383 22.4793 284.026 22.032H284.451C284.033 22.4793 283.645 22.7876 283.289 22.9569C282.92 23.1383 282.465 23.2289 281.924 23.2289C281.384 23.2289 280.935 23.108 280.578 22.8662C280.222 22.6244 279.958 22.304 279.785 21.905C279.613 21.506 279.527 21.0768 279.527 20.6173C279.527 19.8556 279.736 19.1967 280.154 18.6405C280.56 18.0843 281.119 17.6551 281.832 17.3528C282.533 17.0506 283.326 16.8994 284.211 16.8994C285.121 16.8994 285.932 17.0566 286.645 17.371C287.346 17.6974 287.899 18.1387 288.304 18.6949C288.71 19.2632 288.913 19.9161 288.913 20.6536C288.913 21.0889 288.839 21.5 288.692 21.8869C288.532 22.2859 288.274 22.6063 287.917 22.8481C287.561 23.102 287.087 23.2289 286.497 23.2289ZM286.055 21.5967C286.301 21.5967 286.497 21.506 286.645 21.3246C286.792 21.1433 286.866 20.9015 286.866 20.5992C286.866 19.9584 286.614 19.4506 286.11 19.0758C285.606 18.713 284.973 18.5317 284.211 18.5317C283.387 18.5317 282.742 18.713 282.275 19.0758C281.795 19.4385 281.556 19.9342 281.556 20.5629C281.556 20.8773 281.629 21.1251 281.777 21.3065C281.924 21.5 282.127 21.5967 282.385 21.5967C282.631 21.5967 282.834 21.5362 282.994 21.4153C283.141 21.3065 283.264 21.1493 283.363 20.9438H285.059C285.157 21.1735 285.28 21.3367 285.428 21.4335C285.575 21.5423 285.784 21.5967 286.055 21.5967ZM283.307 24.4078L283.381 22.9388H285.004L285.133 24.4078H283.307ZM283.234 19.8737C283.234 19.6078 283.326 19.4083 283.51 19.2753C283.695 19.1543 283.928 19.0939 284.211 19.0939C284.53 19.0939 284.776 19.1604 284.948 19.2934C285.121 19.4264 285.207 19.6198 285.207 19.8737C285.207 20.1518 285.121 20.3513 284.948 20.4722C284.764 20.5931 284.518 20.6536 284.211 20.6536C283.916 20.6536 283.682 20.5871 283.51 20.4541C283.326 20.3332 283.234 20.1397 283.234 19.8737Z" fill="#FF5858"/>
<path d="M285.92 15.9432C285.403 15.9432 284.905 15.8721 284.425 15.7298C283.957 15.5994 283.471 15.3564 282.967 15.0008C282.475 14.6452 281.934 14.1474 281.343 13.5073C281.072 13.2109 280.851 12.9916 280.679 12.8494C280.519 12.6953 280.383 12.5945 280.273 12.5471C280.162 12.4879 280.039 12.4582 279.904 12.4582C279.744 12.4582 279.596 12.5234 279.461 12.6538C279.325 12.7842 279.258 12.962 279.258 13.1872C279.258 13.4836 279.325 13.7977 279.461 14.1296C279.608 14.4615 279.817 14.8171 280.088 15.1964L277.504 15.961C277.283 15.5461 277.092 15.1075 276.932 14.6452C276.785 14.1711 276.711 13.6614 276.711 13.1161C276.711 12.5708 276.846 12.0908 277.117 11.6759C277.388 11.2492 277.757 10.9173 278.224 10.6802C278.704 10.4313 279.245 10.3068 279.848 10.3068C280.414 10.3068 280.912 10.3898 281.343 10.5557C281.774 10.7217 282.173 10.9588 282.543 11.2669C282.924 11.5751 283.312 11.9426 283.705 12.3693C284.062 12.7368 284.363 13.0272 284.609 13.2406C284.856 13.4421 285.089 13.5843 285.311 13.6673C285.545 13.7503 285.797 13.7918 286.067 13.7918C286.412 13.7918 286.701 13.6732 286.935 13.4361C287.169 13.1991 287.285 12.8435 287.285 12.3693C287.285 11.8122 287.156 11.3203 286.898 10.8936C286.64 10.4668 286.301 10.0875 285.883 9.75562C285.465 9.41186 285.022 9.09775 284.554 8.81326L286.012 6.83964C286.738 7.21896 287.39 7.66939 287.968 8.19095C288.546 8.7125 289.002 9.30518 289.334 9.96898C289.678 10.6209 289.851 11.3558 289.851 12.1737C289.851 12.9324 289.697 13.5962 289.389 14.1651C289.094 14.7223 288.651 15.1608 288.061 15.4809C287.482 15.7891 286.769 15.9432 285.92 15.9432ZM280.42 8.6888C279.842 8.6888 279.331 8.5999 278.889 8.42209C278.446 8.23244 278.07 7.93017 277.763 7.5153C277.455 7.08857 277.215 6.51367 277.043 5.7906L279.553 5.16829C279.688 5.77282 279.836 6.20548 279.996 6.46626C280.156 6.71518 280.377 6.83964 280.66 6.83964C280.845 6.83964 281.029 6.77445 281.214 6.64406C281.398 6.51367 281.644 6.26475 281.952 5.89729L282.727 4.95493C283.158 4.43337 283.564 4.02442 283.945 3.72809C284.327 3.41989 284.739 3.19468 285.182 3.05243C285.637 2.91019 286.178 2.83314 286.806 2.82129L286.953 4.88381C286.535 4.90751 286.172 4.97864 285.864 5.09717C285.569 5.20385 285.298 5.35795 285.052 5.55946C284.806 5.76097 284.548 6.02767 284.277 6.35957L283.668 7.08857C283.435 7.37305 283.158 7.63976 282.838 7.88868C282.518 8.12575 282.155 8.32134 281.749 8.47543C281.355 8.61768 280.912 8.6888 280.42 8.6888Z" fill="#FF5858"/>
<path d="M265.449 12.6958C265.449 11.8895 265.642 11.1664 266.026 10.5265C266.411 9.88654 266.956 9.38101 267.661 9.00985C268.366 8.6387 269.206 8.45312 270.18 8.45312C271.168 8.45312 272.008 8.6387 272.7 9.00985C273.392 9.38101 273.918 9.88654 274.277 10.5265C274.649 11.1664 274.835 11.8895 274.835 12.6958C274.835 13.5021 274.649 14.2252 274.277 14.8651C273.905 15.4922 273.367 15.9914 272.661 16.3625C271.969 16.7209 271.129 16.9001 270.142 16.9001C269.168 16.9001 268.328 16.7145 267.622 16.3433C266.917 15.9722 266.379 15.473 266.007 14.8459C265.635 14.206 265.449 13.4893 265.449 12.6958ZM268.026 12.6766C268.026 13.2653 268.199 13.7645 268.546 14.174C268.905 14.5707 269.437 14.7691 270.142 14.7691C270.616 14.7691 271.007 14.6795 271.315 14.5004C271.623 14.3084 271.854 14.0524 272.008 13.7325C272.174 13.4125 272.258 13.0605 272.258 12.6766C272.258 12.0879 272.072 11.5951 271.7 11.1984C271.341 10.7888 270.822 10.5841 270.142 10.5841C269.693 10.5841 269.309 10.68 268.988 10.872C268.68 11.0512 268.443 11.3008 268.276 11.6207C268.11 11.9279 268.026 12.2798 268.026 12.6766Z" fill="#FF5858"/>
<path d="M258.701 15.9432C258.184 15.9432 257.686 15.8721 257.206 15.7298C256.739 15.5994 256.253 15.3564 255.748 15.0008C255.256 14.6452 254.715 14.1474 254.124 13.5073C253.854 13.2109 253.632 12.9916 253.46 12.8494C253.3 12.6953 253.165 12.5945 253.054 12.5471C252.943 12.4879 252.82 12.4582 252.685 12.4582C252.525 12.4582 252.377 12.5234 252.242 12.6538C252.107 12.7842 252.039 12.962 252.039 13.1872C252.039 13.4836 252.107 13.7977 252.242 14.1296C252.39 14.4615 252.599 14.8171 252.869 15.1964L250.286 15.961C250.064 15.5461 249.874 15.1075 249.714 14.6452C249.566 14.1711 249.492 13.6614 249.492 13.1161C249.492 12.5708 249.628 12.0908 249.898 11.6759C250.169 11.2492 250.538 10.9173 251.005 10.6802C251.485 10.4313 252.027 10.3068 252.629 10.3068C253.195 10.3068 253.694 10.3898 254.124 10.5557C254.555 10.7217 254.955 10.9588 255.324 11.2669C255.705 11.5751 256.093 11.9426 256.486 12.3693C256.843 12.7368 257.145 13.0272 257.391 13.2406C257.637 13.4421 257.871 13.5843 258.092 13.6673C258.326 13.7503 258.578 13.7918 258.849 13.7918C259.193 13.7918 259.482 13.6732 259.716 13.4361C259.95 13.1991 260.067 12.8435 260.067 12.3693C260.067 11.8122 259.937 11.3203 259.679 10.8936C259.421 10.4668 259.082 10.0875 258.664 9.75562C258.246 9.41186 257.803 9.09775 257.335 8.81326L258.793 6.83964C259.519 7.21896 260.171 7.66939 260.749 8.19095C261.328 8.7125 261.783 9.30518 262.115 9.96898C262.46 10.6209 262.632 11.3558 262.632 12.1737C262.632 12.9324 262.478 13.5962 262.17 14.1651C261.875 14.7223 261.432 15.1608 260.842 15.4809C260.264 15.7891 259.55 15.9432 258.701 15.9432ZM253.202 8.6888C252.623 8.6888 252.113 8.5999 251.67 8.42209C251.227 8.23244 250.852 7.93017 250.544 7.5153C250.237 7.08857 249.997 6.51367 249.824 5.7906L252.334 5.16829C252.47 5.77282 252.617 6.20548 252.777 6.46626C252.937 6.71518 253.158 6.83964 253.441 6.83964C253.626 6.83964 253.811 6.77445 253.995 6.64406C254.18 6.51367 254.426 6.26475 254.733 5.89729L255.508 4.95493C255.939 4.43337 256.345 4.02442 256.726 3.72809C257.108 3.41989 257.52 3.19468 257.963 3.05243C258.418 2.91019 258.959 2.83314 259.587 2.82129L259.734 4.88381C259.316 4.90751 258.953 4.97864 258.646 5.09717C258.35 5.20385 258.08 5.35795 257.834 5.55946C257.588 5.76097 257.329 6.02767 257.059 6.35957L256.45 7.08857C256.216 7.37305 255.939 7.63976 255.619 7.88868C255.299 8.12575 254.936 8.32134 254.53 8.47543C254.137 8.61768 253.694 8.6888 253.202 8.6888Z" fill="#FF5858"/>
<path d="M230.571 15.9616C229.778 15.9616 229.14 15.8333 228.657 15.5767C228.186 15.3078 227.845 14.9657 227.634 14.5502C227.436 14.1347 227.337 13.6947 227.337 13.2303C227.337 12.6315 227.473 12.1366 227.746 11.7455C228.019 11.3545 228.378 11.0673 228.824 10.884C229.282 10.6884 229.766 10.5907 230.274 10.5907C230.918 10.5907 231.457 10.7006 231.89 10.9206C232.336 11.1284 232.702 11.3789 232.987 11.6722C233.284 11.9533 233.52 12.2038 233.693 12.4238L232.745 14.2935C232.609 13.9636 232.442 13.6519 232.244 13.3586C232.058 13.0653 231.835 12.827 231.575 12.6437C231.314 12.4482 231.005 12.3504 230.645 12.3504C230.373 12.3504 230.125 12.4238 229.902 12.5704C229.679 12.7171 229.567 12.9493 229.567 13.267C229.567 13.5481 229.66 13.768 229.846 13.9269C230.032 14.0858 230.28 14.1652 230.59 14.1652C230.998 14.1652 231.321 14.0552 231.556 13.8352C231.804 13.6153 231.977 13.322 232.076 12.9554C232.175 12.5887 232.225 12.1916 232.225 11.7638V11.3056C232.225 10.8045 232.157 10.3524 232.021 9.94908C231.884 9.5458 231.667 9.22806 231.37 8.99586C231.085 8.76367 230.701 8.64758 230.218 8.64758C229.92 8.64758 229.648 8.71479 229.4 8.84922C229.165 8.97142 228.966 9.14251 228.805 9.36248C228.644 9.58246 228.527 9.83909 228.452 10.1324H226.055C225.993 9.93686 225.881 9.72299 225.72 9.4908C225.572 9.24639 225.348 9.03864 225.051 8.86755C224.754 8.68424 224.345 8.59258 223.825 8.59258C223.391 8.59258 223.038 8.66591 222.765 8.81255C222.505 8.94698 222.375 9.17306 222.375 9.4908C222.375 9.61301 222.393 9.7291 222.431 9.83909C222.48 9.93686 222.567 10.0224 222.691 10.0957C222.802 10.1568 222.945 10.2118 223.118 10.2607C223.304 10.2974 223.589 10.3157 223.973 10.3157H225.07V12.2221H223.917C223.533 12.2221 223.236 12.2405 223.025 12.2771C222.815 12.3138 222.647 12.381 222.524 12.4788C222.437 12.5521 222.362 12.6437 222.301 12.7537C222.251 12.8515 222.226 12.9676 222.226 13.102C222.226 13.3464 222.307 13.5481 222.468 13.7069C222.641 13.8658 222.92 13.9452 223.304 13.9452C223.713 13.9452 224.079 13.8414 224.401 13.6336C224.735 13.4259 225.057 13.1509 225.367 12.8087L226.965 14.2019C226.631 14.5807 226.265 14.9046 225.869 15.1734C225.485 15.43 225.057 15.6256 224.587 15.76C224.116 15.8944 223.577 15.9616 222.97 15.9616C221.805 15.9616 220.925 15.7233 220.331 15.2467C219.748 14.7579 219.457 14.1591 219.457 13.4503C219.457 13.1081 219.525 12.7904 219.661 12.4971C219.798 12.1916 220.008 11.9288 220.293 11.7089C220.591 11.4767 220.962 11.2934 221.408 11.1589L221.39 11.3972C220.783 11.1773 220.331 10.8901 220.033 10.5357C219.748 10.169 219.606 9.73521 219.606 9.23417C219.606 8.782 219.767 8.39705 220.089 8.07931C220.423 7.74936 220.882 7.49272 221.464 7.30941C222.047 7.1261 222.716 7.03445 223.471 7.03445C224.14 7.03445 224.698 7.11388 225.144 7.27275C225.602 7.4194 226.005 7.63937 226.352 7.93267C226.711 8.21374 227.083 8.56203 227.467 8.97753L227.04 8.99586C227.337 8.58036 227.659 8.24429 228.006 7.98766C228.353 7.7188 228.725 7.52327 229.121 7.40107C229.53 7.26664 229.958 7.19943 230.404 7.19943C231.345 7.19943 232.132 7.36441 232.764 7.69436C233.396 8.02432 233.873 8.50704 234.195 9.14251C234.517 9.77799 234.678 10.554 234.678 11.4706C234.678 12.3749 234.53 13.1692 234.232 13.8536C233.935 14.5257 233.483 15.0451 232.875 15.4117C232.268 15.7783 231.5 15.9616 230.571 15.9616ZM238.99 12.3688C238.42 12.3688 237.949 12.2832 237.577 12.1121C237.206 11.941 236.915 11.7272 236.704 11.4706C236.493 11.2017 236.345 10.9206 236.258 10.6273C236.171 10.334 236.128 10.0652 236.128 9.82076C236.128 9.31971 236.208 8.91032 236.369 8.59258C236.531 8.27485 236.698 7.98155 236.871 7.71269L238.878 7.85934C238.606 8.11598 238.389 8.3665 238.228 8.61091C238.067 8.85533 237.986 9.16695 237.986 9.54579C237.986 9.85131 238.079 10.1018 238.265 10.2974C238.463 10.4929 238.711 10.5907 239.009 10.5907C239.368 10.5907 239.634 10.5051 239.808 10.334C239.994 10.1507 240.086 9.92463 240.086 9.65578C240.086 9.28916 239.932 9.03253 239.622 8.88588C239.325 8.72701 238.922 8.64758 238.414 8.64758H225.776L224.512 8.15264L222.226 8.64758H219.661V6.57617H236.815C237.571 6.57617 238.197 6.60061 238.693 6.6495C239.201 6.68616 239.628 6.75948 239.975 6.86947C240.334 6.97945 240.663 7.15054 240.96 7.38274C241.27 7.61493 241.518 7.90823 241.703 8.26262C241.889 8.61702 241.982 9.06308 241.982 9.60079C241.982 10.3951 241.716 11.055 241.183 11.5805C240.663 12.106 239.932 12.3688 238.99 12.3688Z" fill="#FF5858"/>
<path d="M207.405 15.9616C206.804 15.9616 206.271 15.8761 205.807 15.705C205.343 15.5339 204.873 15.2467 204.396 14.8435C203.933 14.428 203.375 13.8658 202.723 13.157C202.372 12.7659 202.096 12.4971 201.895 12.3504C201.695 12.1916 201.463 12.1121 201.2 12.1121C200.999 12.1121 200.798 12.1916 200.598 12.3504C200.41 12.4971 200.316 12.7293 200.316 13.047C200.316 13.4259 200.416 13.6886 200.617 13.8352C200.83 13.9819 201.074 14.0552 201.35 14.0552C201.651 14.0552 201.952 13.933 202.253 13.6886C202.554 13.4442 202.767 13.0409 202.892 12.4788L204.453 14.0919C204.202 14.4341 203.939 14.7518 203.663 15.0451C203.4 15.3262 203.068 15.5523 202.666 15.7233C202.265 15.8822 201.726 15.9616 201.049 15.9616C200.309 15.9616 199.701 15.8272 199.225 15.5584C198.761 15.2773 198.416 14.9168 198.191 14.4768C197.978 14.0247 197.871 13.5542 197.871 13.0653C197.871 12.4788 198.015 11.9716 198.304 11.5439C198.592 11.1039 198.987 10.7618 199.488 10.5173C199.99 10.2729 200.554 10.1507 201.181 10.1507C201.707 10.1507 202.171 10.2179 202.572 10.3524C202.974 10.4868 203.362 10.7068 203.738 11.0123C204.127 11.3178 204.553 11.7211 205.017 12.2221C205.418 12.6498 205.75 12.9737 206.014 13.1937C206.277 13.4136 206.515 13.5603 206.728 13.6336C206.941 13.7069 207.161 13.7436 207.386 13.7436C207.788 13.7436 208.107 13.6214 208.346 13.377C208.584 13.1326 208.703 12.7415 208.703 12.2038C208.703 11.5805 208.534 11.0123 208.195 10.499C207.857 9.98574 207.393 9.54579 206.804 9.17917C206.214 8.81255 205.544 8.54981 204.791 8.39094L209.286 8.31762C209.7 8.58647 210.057 8.91032 210.358 9.28916C210.671 9.65578 210.909 10.0713 211.072 10.5357C211.235 10.9878 211.317 11.4828 211.317 12.0205C211.317 12.8148 211.166 13.5114 210.865 14.1102C210.565 14.6968 210.12 15.1551 209.53 15.485C208.954 15.8028 208.245 15.9616 207.405 15.9616ZM215.51 12.3688C214.934 12.3688 214.457 12.2832 214.081 12.1121C213.705 11.941 213.41 11.7272 213.197 11.4706C212.984 11.2017 212.834 10.9206 212.746 10.6273C212.658 10.334 212.614 10.0652 212.614 9.82076C212.614 9.31971 212.696 8.91032 212.859 8.59258C213.022 8.27485 213.191 7.98155 213.367 7.71269L215.379 7.85934C215.115 8.11598 214.902 8.3665 214.739 8.61091C214.576 8.85533 214.495 9.16695 214.495 9.54579C214.495 9.85131 214.589 10.1018 214.777 10.2974C214.978 10.4929 215.228 10.5907 215.529 10.5907C215.893 10.5907 216.162 10.5051 216.338 10.334C216.513 10.1507 216.601 9.92463 216.601 9.65578C216.601 9.28916 216.451 9.03253 216.15 8.88588C215.849 8.72701 215.448 8.64758 214.946 8.64758H199.864V6.57617H213.31C214.075 6.57617 214.708 6.60061 215.209 6.6495C215.711 6.68616 216.137 6.75948 216.488 6.86947C216.852 6.97945 217.184 7.15054 217.485 7.38274C217.811 7.61493 218.062 7.90823 218.237 8.26262C218.425 8.61702 218.519 9.06308 218.519 9.60079C218.519 10.3951 218.256 11.055 217.729 11.5805C217.203 12.106 216.463 12.3688 215.51 12.3688Z" fill="#FF5858"/>
<path d="M184.734 11.5455C184.734 10.6671 184.937 9.87778 185.343 9.17747C185.749 8.46529 186.345 7.90148 187.131 7.48605C187.931 7.05874 188.907 6.84509 190.061 6.84509C191.228 6.84509 192.205 7.04687 192.991 7.45044C193.777 7.84214 194.367 8.38814 194.76 9.08845C195.166 9.78875 195.369 10.6018 195.369 11.5277C195.369 12.3941 195.173 13.1657 194.779 13.8422C194.386 14.5069 193.796 15.0292 193.01 15.409C192.224 15.777 191.241 15.961 190.061 15.961C188.882 15.961 187.892 15.771 187.093 15.3912C186.307 15.0114 185.717 14.4891 185.324 13.8244C184.931 13.1597 184.734 12.4001 184.734 11.5455ZM187.379 11.314C187.379 12.038 187.601 12.6375 188.045 13.1122C188.501 13.5752 189.173 13.8066 190.061 13.8066C190.657 13.8066 191.152 13.7057 191.545 13.5039C191.938 13.2903 192.236 13.0054 192.439 12.6493C192.642 12.2814 192.744 11.8659 192.744 11.403C192.744 10.9282 192.642 10.5009 192.439 10.1211C192.249 9.74127 191.951 9.4386 191.545 9.21308C191.152 8.97568 190.657 8.85699 190.061 8.85699C189.452 8.85699 188.951 8.96975 188.558 9.19527C188.165 9.42079 187.867 9.72347 187.664 10.1033C187.474 10.4713 187.379 10.8748 187.379 11.314ZM189.262 8.69675C188.666 8.69675 188.14 8.60773 187.683 8.42968C187.227 8.23977 186.84 7.93709 186.523 7.52166C186.206 7.09435 185.958 6.51867 185.781 5.79463L188.368 5.17147C188.508 5.77682 188.66 6.21006 188.825 6.47119C188.99 6.72046 189.218 6.84509 189.51 6.84509C189.7 6.84509 189.89 6.77981 190.08 6.64924C190.271 6.51867 190.524 6.26941 190.841 5.90145L191.64 4.95782C192.084 4.43556 192.503 4.02605 192.896 3.72931C193.289 3.4207 193.714 3.19518 194.171 3.05275C194.64 2.91031 195.198 2.83316 195.845 2.82129L195.997 4.8866C195.566 4.91034 195.192 4.98156 194.874 5.10025C194.57 5.20708 194.291 5.36139 194.037 5.56317C193.784 5.76495 193.517 6.03202 193.238 6.36437L192.611 7.09435C192.37 7.37922 192.084 7.64629 191.754 7.89555C191.425 8.13294 191.051 8.32879 190.632 8.4831C190.226 8.62553 189.77 8.69675 189.262 8.69675Z" fill="#FF5858"/>
<path d="M166.153 23.4692C165.355 23.4692 164.74 23.3814 164.309 23.2057C163.878 23.03 163.498 22.7916 163.168 22.4904H163.282C162.927 22.8794 162.566 23.1367 162.199 23.2622C161.818 23.4002 161.381 23.4692 160.887 23.4692C160.405 23.4692 159.981 23.3563 159.613 23.1304C159.245 22.9171 158.96 22.6033 158.757 22.1892C158.555 21.775 158.453 21.2793 158.453 20.702C158.453 19.949 158.662 19.2839 159.081 18.7066C159.486 18.1418 160.076 17.6963 160.849 17.37C161.622 17.0563 162.535 16.8994 163.587 16.8994C164.461 16.8994 165.222 16.9559 165.868 17.0688C166.502 17.1818 167.174 17.3575 167.884 17.5959L167.142 19.2902C166.648 19.1019 166.217 18.9576 165.849 18.8572C165.469 18.7568 165.108 18.6878 164.765 18.6501C164.411 18.6125 164.024 18.5936 163.606 18.5936C162.896 18.5936 162.313 18.6878 161.856 18.876C161.4 19.0768 161.071 19.3341 160.868 19.6478C160.652 19.9616 160.545 20.313 160.545 20.702C160.545 21.0283 160.621 21.2856 160.773 21.4738C160.912 21.6746 161.121 21.775 161.4 21.775C161.654 21.775 161.869 21.6809 162.047 21.4927C162.211 21.317 162.313 21.0722 162.351 20.7585H164.176C164.201 20.9718 164.252 21.1601 164.328 21.3232C164.404 21.4864 164.525 21.6119 164.689 21.6997C164.854 21.7876 165.082 21.8315 165.374 21.8315C165.513 21.844 165.665 21.8566 165.83 21.8691C165.982 21.8942 166.147 21.9068 166.324 21.9068C166.578 21.9068 166.781 21.8629 166.933 21.775C167.072 21.6997 167.142 21.5742 167.142 21.3985C167.142 21.273 167.098 21.1726 167.009 21.0973C166.908 21.022 166.768 20.9844 166.591 20.9844C166.426 20.9844 166.293 21.0346 166.191 21.135C166.077 21.2354 166.02 21.3923 166.02 21.6056C166.02 21.7687 166.065 21.9131 166.153 22.0386C166.229 22.1766 166.337 22.3021 166.477 22.4151L165.07 22.7727C164.918 22.5594 164.81 22.3147 164.746 22.0386C164.67 21.7625 164.632 21.5429 164.632 21.3797C164.632 20.8275 164.81 20.3757 165.165 20.0243C165.507 19.6729 166.008 19.4972 166.667 19.4972C167.3 19.4972 167.814 19.6729 168.207 20.0243C168.587 20.3883 168.777 20.8338 168.777 21.3609C168.777 21.7123 168.701 22.0448 168.549 22.3586C168.384 22.6849 168.112 22.9484 167.731 23.1492C167.351 23.3626 166.825 23.4692 166.153 23.4692Z" fill="#FF5858"/>
<path d="M172.208 15.9616C171.233 15.9616 170.412 15.7478 169.745 15.3201C169.078 14.8923 168.443 14.3546 167.84 13.7069L169.321 12.1305C169.591 12.4238 169.873 12.6926 170.168 12.937C170.45 13.1814 170.758 13.377 171.092 13.5236C171.438 13.6703 171.81 13.7436 172.208 13.7436C172.657 13.7436 173.003 13.6214 173.247 13.377C173.49 13.1326 173.612 12.7659 173.612 12.2771C173.612 11.7027 173.478 11.1956 173.208 10.7556C172.939 10.3157 172.586 9.92463 172.15 9.58246C171.714 9.22806 171.252 8.90421 170.765 8.61091L172.285 6.57617C173.041 6.96723 173.721 7.43162 174.324 7.96933C174.927 8.50704 175.402 9.11807 175.748 9.80243C176.107 10.4746 176.287 11.2322 176.287 12.0755C176.287 13.2487 175.94 14.1896 175.248 14.8984C174.555 15.6072 173.542 15.9616 172.208 15.9616Z" fill="#FF5858"/>
<path d="M165.197 15.961C164.48 15.961 163.871 15.8957 163.369 15.7651C162.866 15.6464 162.439 15.4743 162.087 15.2488C161.735 15.0114 161.421 14.7384 161.145 14.4298L161.277 14.4476C160.975 14.863 160.655 15.1835 160.315 15.409C159.989 15.6227 159.637 15.7651 159.26 15.8363C158.896 15.9194 158.487 15.961 158.035 15.961C157.042 15.961 156.238 15.6286 155.623 14.9639C155.007 14.2992 154.699 13.3556 154.699 12.133C154.699 10.9935 154.994 10.0321 155.585 9.24868C156.176 8.45342 157.011 7.85401 158.092 7.45044C159.172 7.04687 160.435 6.84509 161.88 6.84509C162.646 6.84509 163.343 6.88663 163.972 6.96972C164.6 7.05281 165.209 7.17744 165.8 7.34361C166.39 7.49792 167.012 7.6997 167.666 7.94896L166.516 9.94306C165.837 9.65819 165.241 9.4386 164.725 9.2843C164.223 9.12999 163.739 9.02316 163.274 8.96381C162.809 8.8926 162.301 8.85699 161.748 8.85699C160.717 8.85699 159.876 8.99942 159.222 9.2843C158.569 9.5573 158.085 9.93119 157.771 10.406C157.47 10.8689 157.319 11.3852 157.319 11.955C157.319 12.6197 157.432 13.0944 157.658 13.3793C157.884 13.6642 158.198 13.8066 158.6 13.8066C159.015 13.8066 159.348 13.6642 159.599 13.3793C159.863 13.0944 160.02 12.6968 160.07 12.1864H162.389C162.426 12.6493 162.571 13.0232 162.822 13.3081C163.086 13.593 163.526 13.7769 164.141 13.86C164.33 13.8956 164.537 13.9253 164.763 13.9491C165.002 13.9609 165.253 13.9669 165.517 13.9669C165.869 13.9669 166.145 13.9016 166.346 13.771C166.547 13.6404 166.648 13.4268 166.648 13.1301C166.648 12.9283 166.572 12.7621 166.422 12.6315C166.283 12.501 166.089 12.4357 165.837 12.4357C165.599 12.4357 165.391 12.501 165.215 12.6315C165.052 12.7621 164.97 12.9757 164.97 13.2725C164.97 13.4861 165.027 13.6879 165.14 13.8778C165.253 14.0559 165.41 14.2161 165.611 14.3586L163.783 14.8571C163.57 14.5722 163.406 14.2458 163.293 13.8778C163.193 13.498 163.142 13.1953 163.142 12.9698C163.142 12.2458 163.381 11.6642 163.859 11.225C164.349 10.7739 165.033 10.5484 165.913 10.5484C166.491 10.5484 166.993 10.6612 167.421 10.8867C167.848 11.1122 168.181 11.4208 168.419 11.8125C168.658 12.1924 168.777 12.6197 168.777 13.0944C168.777 13.4505 168.715 13.8007 168.589 14.1449C168.476 14.4891 168.281 14.7977 168.005 15.0707C167.741 15.3437 167.377 15.5633 166.912 15.7295C166.447 15.8838 165.875 15.961 165.197 15.961ZM161.201 8.69675C160.611 8.69675 160.089 8.60773 159.637 8.42968C159.185 8.23977 158.801 7.93709 158.487 7.52166C158.173 7.09435 157.928 6.51867 157.752 5.79463L160.315 5.17147C160.454 5.77682 160.604 6.21006 160.768 6.47119C160.931 6.72046 161.157 6.84509 161.446 6.84509C161.635 6.84509 161.823 6.77981 162.012 6.64924C162.2 6.51867 162.451 6.26941 162.765 5.90145L163.557 4.95782C163.997 4.43556 164.411 4.02605 164.801 3.72931C165.19 3.4207 165.611 3.19518 166.064 3.05275C166.528 2.91031 167.081 2.83316 167.722 2.82129L167.873 4.8866C167.446 4.91034 167.075 4.98156 166.761 5.10025C166.459 5.20708 166.183 5.36139 165.932 5.56317C165.68 5.76495 165.417 6.03202 165.14 6.36437L164.518 7.09435C164.279 7.37922 163.997 7.64629 163.67 7.89555C163.343 8.13294 162.973 8.32879 162.558 8.4831C162.156 8.62553 161.704 8.69675 161.201 8.69675Z" fill="#FF5858"/>
<path d="M138.742 11.4596C138.742 10.5641 138.946 9.75935 139.353 9.04538C139.76 8.31932 140.358 7.74452 141.147 7.32098C141.949 6.88534 142.929 6.66752 144.087 6.66752C145.258 6.66752 146.238 6.87324 147.027 7.28467C147.816 7.68401 148.408 8.24066 148.802 8.95463C149.209 9.66859 149.413 10.4975 149.413 11.4414C149.413 12.3248 149.216 13.1114 148.821 13.8011C148.427 14.4788 147.835 15.0112 147.046 15.3985C146.257 15.7736 145.271 15.9612 144.087 15.9612C142.904 15.9612 141.911 15.7675 141.109 15.3803C140.32 14.9931 139.728 14.4606 139.334 13.783C138.939 13.1053 138.742 12.3308 138.742 11.4596ZM141.396 11.2236C141.396 11.9618 141.618 12.5729 142.064 13.0569C142.522 13.5288 143.196 13.7648 144.087 13.7648C144.685 13.7648 145.182 13.662 145.576 13.4562C145.971 13.2384 146.27 12.948 146.473 12.585C146.677 12.2098 146.779 11.7863 146.779 11.3143C146.779 10.8303 146.677 10.3947 146.473 10.0074C146.282 9.62019 145.983 9.31161 145.576 9.08169C145.182 8.83967 144.685 8.71866 144.087 8.71866C143.476 8.71866 142.974 8.83362 142.579 9.06354C142.185 9.29346 141.886 9.60204 141.682 9.98927C141.491 10.3644 141.396 10.7758 141.396 11.2236ZM151.933 8.48268C151.347 8.48268 150.864 8.39798 150.482 8.22856C150.1 8.05914 149.795 7.84738 149.566 7.59325C149.349 7.32703 149.197 7.0487 149.108 6.75828C149.018 6.46785 148.974 6.20768 148.974 5.97775C148.974 5.48161 149.057 5.07622 149.222 4.76159C149.4 4.43486 149.578 4.14444 149.757 3.89031L151.799 4.01738C151.519 4.2715 151.296 4.51957 151.131 4.76159C150.966 5.00362 150.883 5.31219 150.883 5.68733C150.883 5.98986 150.978 6.23793 151.169 6.43155C151.373 6.62516 151.634 6.72197 151.952 6.72197C152.334 6.72197 152.607 6.63121 152.773 6.4497C152.951 6.26818 153.04 6.05036 153.04 5.79624C153.04 5.44531 152.887 5.19118 152.582 5.03387C152.276 4.87655 151.863 4.7979 151.341 4.7979H148.611C148.179 4.7979 147.841 4.90076 147.6 5.10647C147.358 5.31219 147.205 5.63892 147.141 6.08667H144.813C144.723 5.68733 144.558 5.3727 144.316 5.14278C144.087 4.91286 143.718 4.7979 143.209 4.7979H142.999C142.719 4.7979 142.477 4.8826 142.274 5.05202C142.07 5.22144 141.968 5.46346 141.968 5.77809C141.968 5.9717 142.013 6.13507 142.102 6.26818C142.204 6.40129 142.344 6.50415 142.522 6.57676C142.7 6.63727 142.904 6.66752 143.133 6.66752H143.782V8.64605H143.285C142.547 8.64605 141.898 8.52504 141.338 8.28302C140.791 8.02889 140.365 7.67191 140.059 7.21207C139.754 6.75223 139.601 6.21373 139.601 5.59657C139.601 4.76159 139.888 4.08393 140.46 3.56358C141.046 3.03114 141.841 2.76491 142.846 2.76491H143.075C143.635 2.76491 144.119 2.84357 144.526 3.00088C144.933 3.1461 145.264 3.34576 145.519 3.59989C145.773 3.85401 145.952 4.12629 146.053 4.41671H145.882C146.034 4.11418 146.231 3.84191 146.473 3.59989C146.715 3.34576 147.046 3.1461 147.466 3.00088C147.886 2.84357 148.433 2.76491 149.108 2.76491H150.253C151.08 2.76491 151.786 2.81332 152.372 2.91012C152.957 2.99483 153.473 3.20055 153.918 3.52728C154.249 3.7572 154.51 4.04763 154.701 4.39856C154.892 4.74949 154.987 5.19723 154.987 5.74178C154.987 6.54046 154.72 7.19997 154.185 7.72031C153.651 8.22856 152.9 8.48268 151.933 8.48268ZM152.544 0.00585938C153.358 0.00585938 154.013 0.169224 154.51 0.495954C155.006 0.810583 155.382 1.25832 155.636 1.83918L153.689 2.29297C153.613 2.15986 153.524 2.0449 153.422 1.94809C153.32 1.85128 153.199 1.77867 153.059 1.73027C152.919 1.68186 152.754 1.65766 152.563 1.65766C152.245 1.65766 151.996 1.73027 151.818 1.87548C151.653 2.00859 151.57 2.18406 151.57 2.40188C151.57 2.6318 151.64 2.84357 151.78 3.03719C151.92 3.2187 152.111 3.38207 152.353 3.52728L150.406 4.21704C150.164 4.01132 149.941 3.73905 149.738 3.40022C149.547 3.04929 149.451 2.64995 149.451 2.20221C149.451 1.81497 149.559 1.45799 149.776 1.13126C149.992 0.792431 150.329 0.520156 150.787 0.314438C151.246 0.108719 151.831 0.00585938 152.544 0.00585938Z" fill="#FF5858"/>
<path d="M126.06 6.57617C126.869 6.57617 127.543 6.74409 128.082 7.07993C128.621 7.41577 129.055 7.85955 129.383 8.41129C129.711 8.96302 129.946 9.57473 130.086 10.2464C130.227 10.9061 130.297 11.5718 130.297 12.2434C130.297 13.4549 130.151 14.5943 129.858 15.6618C129.576 16.7293 129.166 17.7248 128.627 18.6484C128.099 19.5839 127.466 20.4475 126.728 21.2391C125.989 22.0427 125.175 22.7864 124.284 23.47L122.789 21.7788C123.492 21.2151 124.155 20.6094 124.776 19.9617C125.409 19.314 125.96 18.6064 126.429 17.8387C126.91 17.0831 127.285 16.2495 127.554 15.3379C127.824 14.4264 127.959 13.4129 127.959 12.2974C127.959 11.8896 127.924 11.4578 127.853 11.002C127.795 10.5463 127.689 10.1205 127.537 9.72465C127.396 9.32884 127.197 9.005 126.939 8.75312C126.693 8.50124 126.376 8.3753 125.989 8.3753C125.743 8.3753 125.532 8.44727 125.356 8.5912C125.18 8.73513 125.093 8.92704 125.093 9.16692C125.093 9.40681 125.157 9.59871 125.286 9.74264C125.415 9.87458 125.573 9.96454 125.761 10.0125C125.96 10.0605 126.148 10.0845 126.323 10.0845C126.804 10.0845 127.214 9.95254 127.554 9.68867C127.894 9.4128 128.211 9.11895 128.504 8.8071L129.137 10.6602C128.727 10.9601 128.275 11.2359 127.783 11.4878C127.302 11.7397 126.704 11.8656 125.989 11.8656C125.098 11.8656 124.372 11.6497 123.809 11.2179C123.258 10.7861 122.982 10.1145 122.982 9.2029C122.982 8.69915 123.1 8.24936 123.334 7.85356C123.569 7.45775 123.914 7.1459 124.372 6.91801C124.829 6.69012 125.392 6.57617 126.06 6.57617Z" fill="#FF5858"/>
<path d="M116.201 23.4692C115.661 23.4692 115.219 23.3688 114.876 23.1681C114.52 22.9673 114.183 22.6535 113.864 22.2268H114.287C113.993 22.5406 113.717 22.7853 113.459 22.961C113.189 23.1492 112.907 23.281 112.612 23.3563C112.318 23.4316 111.962 23.4692 111.545 23.4692C110.833 23.4692 110.269 23.3124 109.852 22.9986C109.435 22.6849 109.14 22.2833 108.969 21.7938C108.797 21.317 108.711 20.8275 108.711 20.3255C108.711 19.5976 108.858 18.9764 109.153 18.4619C109.435 17.9599 109.821 17.5708 110.312 17.2947C110.803 17.0312 111.355 16.8994 111.968 16.8994C112.729 16.8994 113.306 17.0814 113.698 17.4453C114.078 17.8218 114.269 18.2799 114.269 18.8195C114.269 19.447 114.072 19.9239 113.68 20.2502C113.275 20.5765 112.674 20.7397 111.876 20.7397C111.447 20.7397 111.06 20.6518 110.717 20.4761C110.361 20.313 110.054 20.1122 109.797 19.8737L110.294 18.5936C110.441 18.7944 110.637 18.9827 110.882 19.1584C111.116 19.3341 111.385 19.4219 111.692 19.4219C111.962 19.4219 112.177 19.3717 112.336 19.2713C112.484 19.1835 112.557 19.0392 112.557 18.8384C112.557 18.7003 112.514 18.5685 112.428 18.443C112.33 18.3301 112.177 18.2736 111.968 18.2736C111.637 18.2736 111.336 18.4117 111.067 18.6878C110.797 18.9639 110.662 19.4533 110.662 20.1561V20.3632C110.662 20.6769 110.705 20.9405 110.79 21.1538C110.864 21.3672 110.993 21.524 111.177 21.6244C111.349 21.7248 111.57 21.775 111.839 21.775C112.318 21.775 112.649 21.6621 112.833 21.4362C113.005 21.2228 113.109 20.9969 113.146 20.7585H114.931C114.992 21.2103 115.134 21.4927 115.354 21.6056C115.563 21.7185 115.802 21.775 116.072 21.775C116.391 21.775 116.624 21.6809 116.771 21.4927C116.906 21.3044 116.974 21.0848 116.974 20.8338C116.974 20.3192 116.784 19.8863 116.403 19.5349C116.023 19.1835 115.594 18.8697 115.115 18.5936L116.293 16.8994C116.808 17.163 117.274 17.483 117.692 17.8595C118.109 18.236 118.44 18.6627 118.685 19.1396C118.918 19.6165 119.035 20.1498 119.035 20.7397C119.035 21.5554 118.796 22.2143 118.317 22.7163C117.826 23.2183 117.121 23.4692 116.201 23.4692Z" fill="#FF5858"/>
<path d="M116.433 16.434C115.827 16.434 115.29 16.3479 114.823 16.1758C114.356 16.0036 113.883 15.7147 113.403 15.3089C112.936 14.8908 112.374 14.3251 111.718 13.6119C111.364 13.2184 111.086 12.9478 110.884 12.8003C110.682 12.6404 110.449 12.5605 110.184 12.5605C109.982 12.5605 109.78 12.6404 109.578 12.8003C109.388 12.9478 109.294 13.1815 109.294 13.5012C109.294 13.8824 109.395 14.1468 109.597 14.2944C109.811 14.4419 110.058 14.5157 110.335 14.5157C110.638 14.5157 110.941 14.3927 111.244 14.1468C111.547 13.9009 111.762 13.4951 111.888 12.9294L113.46 14.5526C113.207 14.8969 112.942 15.2166 112.665 15.5118C112.399 15.7946 112.065 16.0221 111.661 16.1942C111.257 16.3541 110.714 16.434 110.032 16.434C109.287 16.434 108.675 16.2988 108.195 16.0282C107.728 15.7454 107.381 15.3826 107.154 14.9399C106.939 14.4973 106.832 14.03 106.832 13.5381C106.832 12.9355 106.977 12.4191 107.268 11.9887C107.558 11.546 107.956 11.2017 108.461 10.9557C108.966 10.7098 109.534 10.5868 110.165 10.5868C110.695 10.5868 111.162 10.6545 111.566 10.7897C111.97 10.925 112.362 11.1463 112.74 11.4538C113.132 11.7612 113.561 12.167 114.028 12.6712C114.432 13.1015 114.76 13.4274 115.013 13.6488C115.278 13.8701 115.518 14.0177 115.732 14.0915C115.959 14.1652 116.218 14.2021 116.509 14.2021C116.862 14.2021 117.153 14.0792 117.38 13.8332C117.62 13.5873 117.74 13.2184 117.74 12.7265C117.74 12.1485 117.607 11.6382 117.342 11.1955C117.077 10.7528 116.73 10.3593 116.3 10.015C115.884 9.6584 115.436 9.33253 114.956 9.0374L116.433 6.98996C117.178 7.38346 117.847 7.85074 118.44 8.39181C119.034 8.93288 119.501 9.54773 119.842 10.2364C120.195 10.9127 120.372 11.6751 120.372 12.5236C120.372 13.3106 120.22 13.9992 119.917 14.5895C119.614 15.1674 119.166 15.6224 118.573 15.9544C117.992 16.2742 117.279 16.434 116.433 16.434ZM119.273 18.7766C118.566 18.7766 117.998 18.6659 117.569 18.4446C117.153 18.2232 116.85 17.9343 116.66 17.5776C116.483 17.221 116.395 16.8398 116.395 16.434C116.395 16.2742 116.408 16.1082 116.433 15.936C116.471 15.7638 116.521 15.5978 116.584 15.438H119.027C118.964 15.5363 118.914 15.6347 118.876 15.7331C118.838 15.8192 118.819 15.9053 118.819 15.9913C118.819 16.1266 118.85 16.2496 118.914 16.3602C118.977 16.4709 119.065 16.557 119.179 16.6185C119.292 16.68 119.425 16.7107 119.576 16.7107C119.778 16.7107 119.955 16.6738 120.107 16.6C120.271 16.5385 120.466 16.4279 120.694 16.268L121.849 17.8912C121.445 18.1863 121.035 18.4077 120.618 18.5552C120.214 18.7028 119.766 18.7766 119.273 18.7766ZM110.638 8.90828C110.045 8.90828 109.521 8.81606 109.067 8.6316C108.612 8.43485 108.227 8.12128 107.911 7.69089C107.596 7.24819 107.35 6.65179 107.173 5.90168L109.748 5.25609C109.887 5.88323 110.039 6.33207 110.203 6.6026C110.367 6.86084 110.594 6.98996 110.884 6.98996C111.074 6.98996 111.263 6.92233 111.453 6.78706C111.642 6.65179 111.894 6.39356 112.21 6.01235L113.005 5.03474C113.447 4.49368 113.864 4.06943 114.255 3.76201C114.647 3.44228 115.069 3.20864 115.524 3.06108C115.991 2.91352 116.547 2.83359 117.19 2.82129L117.342 4.96096C116.913 4.98555 116.54 5.05933 116.225 5.1823C115.922 5.29298 115.644 5.45284 115.391 5.66189C115.139 5.87093 114.874 6.14762 114.596 6.49193L113.971 7.24819C113.731 7.54332 113.447 7.82 113.119 8.07824C112.791 8.32418 112.418 8.52708 112.002 8.68694C111.598 8.8345 111.143 8.90828 110.638 8.90828Z" fill="#FF5858"/>
<path d="M88.0625 11.4156C88.0625 10.5112 88.2627 9.73522 88.6632 9.08752C89.0636 8.43982 89.6518 7.93878 90.4276 7.58438C91.216 7.22998 92.1733 7.05278 93.2996 7.05278C94.4634 7.05278 95.4332 7.21776 96.2091 7.54771C96.985 7.87767 97.5669 8.3665 97.9548 9.01419C98.3552 9.64967 98.5555 10.444 98.5555 11.3972C98.5555 12.2893 98.3615 13.0837 97.9736 13.7803C97.5856 14.4646 96.9975 15.0023 96.2091 15.3934C95.4332 15.7722 94.4634 15.9616 93.2996 15.9616C92.1483 15.9616 91.1785 15.7661 90.3901 15.3751C89.6142 14.984 89.0323 14.4463 88.6444 13.7619C88.2565 13.0776 88.0625 12.2954 88.0625 11.4156ZM90.6717 11.1773C90.6717 11.9227 90.8907 12.5399 91.3287 13.0287C91.7792 13.5053 92.4361 13.7436 93.2996 13.7436C93.8878 13.7436 94.3758 13.6397 94.7637 13.432C95.1642 13.212 95.4583 12.9187 95.646 12.5521C95.8462 12.1732 95.9463 11.7455 95.9463 11.2689C95.9463 10.7801 95.8462 10.3401 95.646 9.94908C95.4583 9.55802 95.1704 9.24639 94.7825 9.01419C94.3946 8.76978 93.9003 8.64758 93.2996 8.64758C92.7114 8.64758 92.2171 8.76367 91.8167 8.99586C91.4288 9.22806 91.1409 9.53968 90.9532 9.93075C90.7655 10.3096 90.6717 10.7251 90.6717 11.1773ZM102.892 12.3688C102.316 12.3688 101.84 12.2832 101.465 12.1121C101.09 11.941 100.789 11.7272 100.564 11.4706C100.351 11.2017 100.201 10.9206 100.113 10.6273C100.026 10.334 99.9821 10.0652 99.9821 9.82076C99.9821 9.34415 100.063 8.94087 100.226 8.61091C100.401 8.28096 100.576 7.98155 100.752 7.71269L102.76 7.85934C102.485 8.11598 102.266 8.3665 102.103 8.61091C101.94 8.85533 101.859 9.16695 101.859 9.54579C101.859 9.85131 101.953 10.1018 102.141 10.2974C102.341 10.4929 102.597 10.5907 102.91 10.5907C103.273 10.5907 103.542 10.5051 103.717 10.334C103.893 10.1507 103.98 9.92463 103.98 9.65578C103.98 9.28916 103.83 9.03253 103.53 8.88588C103.229 8.72701 102.823 8.64758 102.31 8.64758H88.2314V6.57617H100.695C101.459 6.57617 102.091 6.60061 102.591 6.6495C103.092 6.68616 103.517 6.75948 103.868 6.86947C104.231 6.97945 104.562 7.15054 104.863 7.38274C105.175 7.61493 105.426 7.90823 105.613 8.26262C105.801 8.61702 105.895 9.06308 105.895 9.60079C105.895 10.3951 105.632 11.055 105.107 11.5805C104.581 12.106 103.843 12.3688 102.892 12.3688Z" fill="#FF5858"/>
<path d="M75.5623 15.9616C74.78 15.9616 74.1504 15.8333 73.6737 15.5767C73.2092 15.3078 72.8731 14.9657 72.6653 14.5502C72.4697 14.1347 72.3719 13.6947 72.3719 13.2303C72.3719 12.6315 72.5064 12.1366 72.7753 11.7455C73.0442 11.3545 73.3987 11.0673 73.8387 10.884C74.291 10.6884 74.7677 10.5907 75.2689 10.5907C75.9045 10.5907 76.4363 10.7006 76.8641 10.9206C77.3041 11.1284 77.6647 11.3789 77.9459 11.6722C78.2393 11.9533 78.4715 12.2038 78.6426 12.4238L77.7075 14.2935C77.5731 13.9636 77.408 13.6519 77.2125 13.3586C77.0291 13.0653 76.8091 12.827 76.5524 12.6437C76.2957 12.4482 75.9901 12.3504 75.6356 12.3504C75.3667 12.3504 75.1222 12.4238 74.9022 12.5704C74.6822 12.7171 74.5722 12.9493 74.5722 13.267C74.5722 13.5481 74.6638 13.768 74.8472 13.9269C75.0305 14.0858 75.275 14.1652 75.5806 14.1652C75.984 14.1652 76.3018 14.0552 76.5341 13.8352C76.7785 13.6153 76.9497 13.322 77.0475 12.9554C77.1452 12.5887 77.1941 12.1916 77.1941 11.7638V11.4156C77.1941 10.9023 77.1269 10.4501 76.9924 10.0591C76.858 9.668 76.6441 9.36248 76.3507 9.14251C76.0573 8.91032 75.6723 8.79422 75.1956 8.79422C74.9022 8.79422 74.6394 8.85533 74.4071 8.97753C74.1749 9.08752 73.9793 9.24639 73.8204 9.45414C73.6737 9.64967 73.5576 9.87575 73.472 10.1324H71.1067C71.0456 9.93686 70.9356 9.72299 70.7767 9.4908C70.63 9.24639 70.41 9.03864 70.1166 8.86755C69.8233 8.68424 69.4199 8.59258 68.9065 8.59258C68.4787 8.59258 68.1303 8.66591 67.8614 8.81255C67.6047 8.94698 67.4763 9.17306 67.4763 9.4908C67.4763 9.61301 67.4947 9.7291 67.5313 9.83909C67.5802 9.93686 67.6658 10.0224 67.788 10.0957C67.898 10.1568 68.0386 10.2118 68.2097 10.2607C68.3931 10.2974 68.6742 10.3157 69.0532 10.3157H70.135V12.2221H68.9982C68.6192 12.2221 68.3259 12.2405 68.1181 12.2771C67.9103 12.3138 67.7452 12.381 67.623 12.4788C67.5374 12.5521 67.4641 12.6437 67.403 12.7537C67.3541 12.8515 67.3296 12.9676 67.3296 13.102C67.3296 13.3464 67.4091 13.5481 67.568 13.7069C67.7391 13.8658 68.0142 13.9452 68.3931 13.9452C68.7965 13.9452 69.1571 13.8414 69.4749 13.6336C69.8049 13.4259 70.1227 13.1509 70.4283 12.8087L72.0052 14.2019C71.6752 14.5807 71.3146 14.9046 70.9234 15.1734C70.5445 15.43 70.1227 15.6256 69.6582 15.76C69.1937 15.8944 68.662 15.9616 68.0631 15.9616C66.914 15.9616 66.0462 15.7233 65.4594 15.2467C64.8849 14.7579 64.5977 14.1591 64.5977 13.4503C64.5977 13.1081 64.6649 12.7904 64.7993 12.4971C64.9338 12.1916 65.1416 11.9288 65.4227 11.7089C65.7161 11.4767 66.0828 11.2934 66.5229 11.1589L66.5045 11.3972C65.8934 11.1895 65.4472 10.8778 65.1661 10.4623C64.8849 10.0468 64.7443 9.58857 64.7443 9.08752C64.7443 8.32984 65.0744 7.72491 65.7345 7.27275C66.3945 6.80836 67.2685 6.57617 68.3564 6.57617C69.0043 6.57617 69.5543 6.63727 70.0066 6.75948C70.4711 6.86947 70.8989 7.05278 71.2901 7.30941C71.6813 7.55382 72.0785 7.88989 72.4819 8.31762L72.0969 8.33595C72.378 7.96933 72.6714 7.6577 72.977 7.40107C73.2948 7.13221 73.6493 6.93057 74.0404 6.79614C74.4438 6.6495 74.9205 6.57617 75.4706 6.57617C76.3874 6.57617 77.1513 6.78392 77.7625 7.19943C78.3737 7.60271 78.8321 8.17097 79.1377 8.90421C79.4555 9.62523 79.6144 10.4562 79.6144 11.3972C79.6144 12.3627 79.4677 13.1876 79.1744 13.8719C78.881 14.544 78.4348 15.0634 77.8359 15.43C77.2369 15.7844 76.479 15.9616 75.5623 15.9616Z" fill="#FF5858"/>
<path d="M50.1131 7.03805C51.1766 7.03805 52.0945 7.19202 52.8668 7.49994C53.6391 7.80786 54.2341 8.26975 54.6519 8.88559C55.0697 9.50143 55.2786 10.2651 55.2786 11.1765C55.2786 11.9279 55.209 12.593 55.0697 13.1719C54.9304 13.7508 54.7532 14.2681 54.538 14.7238C54.3227 15.1672 54.1075 15.5798 53.8923 15.9616L51.3475 15.0009C51.5627 14.7176 51.7653 14.4036 51.9552 14.0587C52.1578 13.7015 52.3224 13.3074 52.449 12.8763C52.5756 12.4452 52.6389 11.9771 52.6389 11.4721C52.6389 10.9918 52.5566 10.5361 52.392 10.105C52.2274 9.67387 51.9552 9.329 51.5754 9.07034C51.2082 8.79937 50.7018 8.66389 50.0561 8.66389C49.5371 8.66389 49.0876 8.7809 48.7078 9.01492C48.3406 9.24894 48.0558 9.57534 47.8532 9.99411C47.6506 10.4006 47.5493 10.8748 47.5493 11.4167C47.5493 12.1311 47.6696 12.79 47.9102 13.3936C48.1507 13.9848 48.4609 14.5144 48.8407 14.9825L46.277 15.9616C45.8845 15.3089 45.5553 14.5945 45.2894 13.8185C45.0236 13.0425 44.8906 12.2235 44.8906 11.3613C44.8906 10.5484 45.0869 9.81552 45.4793 9.16272C45.8845 8.50992 46.4732 7.99261 47.2455 7.61079C48.0178 7.22897 48.9737 7.03805 50.1131 7.03805ZM59.6655 12.4144C59.0831 12.4144 58.602 12.3282 58.2222 12.1557C57.8424 11.9833 57.5449 11.7677 57.3296 11.5091C57.1144 11.2381 56.9625 10.9548 56.8738 10.6592C56.7852 10.3636 56.7409 10.0926 56.7409 9.84631C56.7409 9.36595 56.8232 8.95949 56.9878 8.62694C57.165 8.29438 57.3423 7.99262 57.5195 7.72164L59.5516 7.86945C59.273 8.1281 59.0515 8.3806 58.8869 8.62694C58.7223 8.87327 58.64 9.18735 58.64 9.56918C58.64 9.8771 58.735 10.1296 58.9249 10.3267C59.1274 10.5237 59.387 10.6223 59.7035 10.6223C60.0706 10.6223 60.3428 10.5361 60.5201 10.3636C60.6973 10.1789 60.786 9.951 60.786 9.68003C60.786 9.31052 60.634 9.05187 60.3302 8.90407C60.0263 8.74395 59.6212 8.66389 59.1148 8.66389H44.9856V6.57617H57.4626C58.2349 6.57617 58.8742 6.60081 59.3806 6.65007C59.8871 6.68702 60.3175 6.76093 60.672 6.87178C61.0392 6.98263 61.3747 7.15507 61.6785 7.38909C61.995 7.62311 62.2483 7.91871 62.4382 8.2759C62.6281 8.63309 62.723 9.08266 62.723 9.6246C62.723 10.4252 62.4508 11.0903 61.9064 11.6199C61.3747 12.1496 60.6277 12.4144 59.6655 12.4144Z" fill="#FF5858"/>
<path d="M33.625 12.6958C33.625 11.8895 33.8173 11.1664 34.202 10.5265C34.5866 9.88654 35.1315 9.38101 35.8367 9.00985C36.5419 8.6387 37.3818 8.45312 38.3562 8.45312C39.3435 8.45312 40.1833 8.6387 40.8757 9.00985C41.568 9.38101 42.0937 9.88654 42.4527 10.5265C42.8246 11.1664 43.0105 11.8895 43.0105 12.6958C43.0105 13.5021 42.8246 14.2252 42.4527 14.8651C42.0809 15.4922 41.5424 15.9914 40.8372 16.3625C40.1448 16.7209 39.305 16.9001 38.3177 16.9001C37.3433 16.9001 36.5035 16.7145 35.7983 16.3433C35.0931 15.9722 34.5546 15.473 34.1827 14.8459C33.8109 14.206 33.625 13.4893 33.625 12.6958ZM36.2022 12.6766C36.2022 13.2653 36.3753 13.7645 36.7214 14.174C37.0804 14.5707 37.6125 14.7691 38.3177 14.7691C38.7921 14.7691 39.1832 14.6795 39.4909 14.5004C39.7986 14.3084 40.0294 14.0524 40.1833 13.7325C40.35 13.4125 40.4333 13.0605 40.4333 12.6766C40.4333 12.0879 40.2474 11.5951 39.8756 11.1984C39.5166 10.7888 38.9973 10.5841 38.3177 10.5841C37.869 10.5841 37.4843 10.68 37.1638 10.872C36.8561 11.0512 36.6189 11.3008 36.4522 11.6207C36.2855 11.9279 36.2022 12.2798 36.2022 12.6766Z" fill="#FF5858"/>
<path d="M25.1792 15.9616C23.7647 15.9616 22.5674 15.7356 21.5872 15.2834C20.607 14.819 19.8625 14.1958 19.3538 13.4136C18.8575 12.6193 18.6094 11.7272 18.6094 10.7373C18.6094 9.88186 18.7769 9.14251 19.1119 8.51926C19.4593 7.896 19.9432 7.4194 20.5636 7.08944C21.184 6.74726 21.8974 6.57617 22.7039 6.57617C23.4483 6.57617 24.0501 6.7106 24.5092 6.97945C24.9683 7.23609 25.3033 7.57216 25.5142 7.98766C25.7251 8.39094 25.8306 8.81255 25.8306 9.2525C25.8306 9.81465 25.7065 10.2974 25.4584 10.7006C25.2102 11.1039 24.8504 11.4094 24.3789 11.6172C23.9074 11.8249 23.3305 11.9288 22.6481 11.9288C22.1517 11.9288 21.7113 11.8616 21.3266 11.7272C20.942 11.5928 20.607 11.4278 20.3216 11.2322C20.0487 11.0367 19.8191 10.8595 19.633 10.7006L20.0611 8.97753C20.21 9.16084 20.3837 9.34415 20.5822 9.52746C20.7931 9.71077 21.0289 9.86353 21.2894 9.98574C21.55 10.0957 21.8292 10.1507 22.1269 10.1507C22.5116 10.1507 22.8218 10.0835 23.0575 9.94908C23.2933 9.80243 23.4111 9.56413 23.4111 9.23417C23.4111 9.02642 23.3367 8.837 23.1878 8.66591C23.0389 8.4826 22.8218 8.39094 22.5364 8.39094C22.1021 8.39094 21.7423 8.57425 21.4569 8.94087C21.1715 9.29527 21.0289 9.72299 21.0289 10.224V10.939C21.0289 11.2322 21.0909 11.5439 21.215 11.8738C21.3515 12.1916 21.5748 12.4971 21.885 12.7904C22.2076 13.0715 22.6418 13.3037 23.1878 13.487C23.7461 13.6581 24.441 13.7436 25.2723 13.7436C26.4386 13.7436 27.3754 13.5481 28.0826 13.157C28.8022 12.7537 29.1621 12.1244 29.1621 11.2689C29.1621 10.6945 28.9821 10.2179 28.6223 9.83909C28.2749 9.44803 27.729 9.05086 26.9845 8.64758L28.4362 6.57617C29.4164 7.05278 30.2105 7.68214 30.8185 8.46426C31.4388 9.23417 31.749 10.1813 31.749 11.3056C31.749 12.1732 31.5133 12.9615 31.0418 13.6703C30.5827 14.3668 29.8693 14.9229 28.9015 15.3384C27.9337 15.7539 26.6929 15.9616 25.1792 15.9616Z" fill="#FF5858"/>
<path d="M14.454 5.71678C14.454 6.14438 14.3683 6.54145 14.197 6.90796C14.0256 7.27448 13.787 7.56159 13.481 7.76928C13.1506 8.00141 12.7222 8.19688 12.196 8.35571C11.6819 8.50232 11.1557 8.57562 10.6172 8.57562H7.62484V6.5781H10.6355C10.9905 6.5781 11.2536 6.55977 11.4249 6.52312C11.6085 6.47425 11.7492 6.40706 11.8472 6.32154C11.9206 6.24823 11.9757 6.16882 12.0124 6.0833C12.0491 5.98556 12.0675 5.88171 12.0675 5.77176C12.0675 5.62515 12.0491 5.50298 12.0124 5.40524C11.9757 5.29529 11.9145 5.20366 11.8288 5.13035C11.7309 5.04483 11.5901 4.98374 11.4066 4.94709C11.2352 4.91044 10.9476 4.89212 10.5437 4.89212H3.47595V2.82129H10.3051C11.174 2.82129 11.8472 2.88848 12.3245 3.02287C12.814 3.14505 13.2362 3.35274 13.5912 3.64595C13.8482 3.86587 14.0562 4.14686 14.2153 4.48895C14.3744 4.83103 14.454 5.24031 14.454 5.71678ZM8.01036 15.961C6.32143 15.961 4.94459 15.7655 3.87983 15.3745C2.81507 14.9836 2.0318 14.4338 1.53002 13.7252C1.02824 13.0166 0.777344 12.198 0.777344 11.2695C0.777344 10.5609 0.942565 9.93784 1.27301 9.40028C1.60345 8.86273 2.05628 8.44123 2.63149 8.1358C3.21894 7.83037 3.88595 7.67765 4.6325 7.67765C5.30563 7.67765 5.8686 7.79982 6.32143 8.04417C6.77426 8.2763 7.11694 8.59395 7.34947 8.99711C7.582 9.40028 7.69827 9.85232 7.69827 10.3532C7.69827 11.2084 7.4229 11.856 6.87217 12.2958C6.32143 12.7234 5.56875 12.9372 4.61414 12.9372C4.17355 12.9372 3.75744 12.87 3.36581 12.7356C2.98641 12.589 2.64373 12.4118 2.33777 12.2041C2.0318 11.9965 1.77479 11.801 1.56673 11.6177L2.1909 10.1333C2.42344 10.4021 2.70492 10.6587 3.03537 10.903C3.36581 11.1351 3.75744 11.2512 4.21027 11.2512C4.57743 11.2512 4.87727 11.1779 5.10981 11.0313C5.35458 10.8847 5.47697 10.6526 5.47697 10.3349C5.47697 10.0906 5.39741 9.88897 5.23831 9.73015C5.07921 9.57133 4.84056 9.49191 4.52235 9.49191C4.26534 9.49191 4.02057 9.56522 3.78804 9.71182C3.55551 9.84621 3.36581 10.0539 3.21894 10.3349C3.07208 10.6037 2.99865 10.9397 2.99865 11.3428V11.4528C2.99865 11.8193 3.09044 12.1492 3.27402 12.4424C3.46984 12.7356 3.76968 12.9861 4.17355 13.1937C4.57743 13.3892 5.09757 13.5419 5.73398 13.6519C6.37038 13.7496 7.1353 13.7985 8.02871 13.7985C8.97109 13.7985 9.79107 13.7557 10.4887 13.6702C11.1863 13.5847 11.7615 13.4503 12.2143 13.267C12.6671 13.0716 13.0037 12.815 13.224 12.4974C13.4565 12.1675 13.5728 11.7643 13.5728 11.2879V11.2329C13.5728 10.7442 13.4259 10.3288 13.1322 9.98671C12.8385 9.64463 12.4224 9.47359 11.8839 9.47359C11.6146 9.47359 11.3637 9.54689 11.1312 9.6935C10.9109 9.82789 10.8008 10.0478 10.8008 10.3532C10.8008 10.6831 10.9048 10.9152 11.1128 11.0496C11.3209 11.1718 11.5779 11.2329 11.8839 11.2329C12.1898 11.2329 12.4468 11.1718 12.6549 11.0496C12.863 10.9274 13.0404 10.7564 13.1873 10.5365C13.3341 10.3044 13.4504 10.0356 13.5361 9.73015L14.5458 11.0679C14.2888 11.4345 14.0256 11.7643 13.7564 12.0575C13.4994 12.3385 13.1873 12.5584 12.8201 12.7173C12.453 12.8761 11.9757 12.9555 11.3882 12.9555C10.9231 12.9555 10.4764 12.8822 10.0481 12.7356C9.61973 12.5768 9.27093 12.3263 9.00168 11.9842C8.74467 11.6299 8.61617 11.1596 8.61617 10.5731C8.61617 9.86454 8.8793 9.30255 9.40556 8.88716C9.93182 8.45956 10.6661 8.24575 11.6085 8.24575C11.841 8.24575 12.0491 8.25186 12.2327 8.26408C12.4163 8.2763 12.5876 8.29462 12.7467 8.31906C12.9058 8.33127 13.0588 8.35571 13.2056 8.39236L11.0761 8.42901C10.917 8.38014 10.7457 8.34349 10.5621 8.31906C10.3908 8.28241 10.2133 8.25797 10.0297 8.24575C9.85838 8.22132 9.6748 8.2091 9.47899 8.2091L10.2684 6.77968C11.0394 6.81633 11.7554 6.94462 12.4163 7.16453C13.0894 7.37222 13.6768 7.67154 14.1786 8.06249C14.6804 8.44123 15.072 8.90549 15.3535 9.45526C15.6472 9.99282 15.7941 10.6098 15.7941 11.3062C15.7941 12.0881 15.6472 12.7722 15.3535 13.3587C15.0598 13.9329 14.6008 14.4155 13.9767 14.8064C13.3525 15.1852 12.5448 15.4723 11.5534 15.6677C10.5743 15.8632 9.39332 15.961 8.01036 15.961Z" fill="#FF5858"/>
</svg>
