<svg width="290" height="25" viewBox="0 0 290 25" fill="none" xmlns="http://www.w3.org/2000/svg">
<path d="M286.497 23.2289C285.932 23.2289 285.471 23.1383 285.114 22.9569C284.746 22.7876 284.383 22.4793 284.026 22.032H284.451C284.033 22.4793 283.645 22.7876 283.289 22.9569C282.92 23.1383 282.465 23.2289 281.924 23.2289C281.384 23.2289 280.935 23.108 280.578 22.8662C280.222 22.6244 279.958 22.304 279.785 21.905C279.613 21.506 279.527 21.0768 279.527 20.6173C279.527 19.8556 279.736 19.1967 280.154 18.6405C280.56 18.0843 281.119 17.6551 281.832 17.3528C282.533 17.0506 283.326 16.8994 284.211 16.8994C285.121 16.8994 285.932 17.0566 286.645 17.371C287.346 17.6974 287.899 18.1387 288.304 18.6949C288.71 19.2632 288.913 19.9161 288.913 20.6536C288.913 21.0889 288.839 21.5 288.692 21.8869C288.532 22.2859 288.274 22.6063 287.917 22.8481C287.561 23.102 287.087 23.2289 286.497 23.2289ZM286.055 21.5967C286.301 21.5967 286.497 21.506 286.645 21.3246C286.792 21.1433 286.866 20.9015 286.866 20.5992C286.866 19.9584 286.614 19.4506 286.11 19.0758C285.606 18.713 284.973 18.5317 284.211 18.5317C283.387 18.5317 282.742 18.713 282.275 19.0758C281.795 19.4385 281.556 19.9342 281.556 20.5629C281.556 20.8773 281.629 21.1251 281.777 21.3065C281.924 21.5 282.127 21.5967 282.385 21.5967C282.631 21.5967 282.834 21.5362 282.994 21.4153C283.141 21.3065 283.264 21.1493 283.363 20.9438H285.059C285.157 21.1735 285.28 21.3367 285.428 21.4335C285.575 21.5423 285.784 21.5967 286.055 21.5967ZM283.307 24.4078L283.381 22.9388H285.004L285.133 24.4078H283.307ZM283.234 19.8737C283.234 19.6078 283.326 19.4083 283.51 19.2753C283.695 19.1543 283.928 19.0939 284.211 19.0939C284.53 19.0939 284.776 19.1604 284.948 19.2934C285.121 19.4264 285.207 19.6198 285.207 19.8737C285.207 20.1518 285.121 20.3513 284.948 20.4722C284.764 20.5931 284.518 20.6536 284.211 20.6536C283.916 20.6536 283.682 20.5871 283.51 20.4541C283.326 20.3332 283.234 20.1397 283.234 19.8737Z" fill="#FF5858"/>
<path d="M285.92 15.9427C285.403 15.9427 284.905 15.8716 284.425 15.7293C283.957 15.5989 283.471 15.3559 282.967 15.0003C282.475 14.6447 281.934 14.1469 281.343 13.5068C281.072 13.2104 280.851 12.9911 280.679 12.8489C280.519 12.6948 280.383 12.5941 280.273 12.5466C280.162 12.4874 280.039 12.4577 279.904 12.4577C279.744 12.4577 279.596 12.5229 279.461 12.6533C279.325 12.7837 279.258 12.9615 279.258 13.1867C279.258 13.4831 279.325 13.7972 279.461 14.1291C279.608 14.461 279.817 14.8166 280.088 15.1959L277.504 15.9605C277.283 15.5456 277.092 15.107 276.932 14.6447C276.785 14.1706 276.711 13.6609 276.711 13.1156C276.711 12.5703 276.846 12.0903 277.117 11.6754C277.388 11.2487 277.757 10.9168 278.224 10.6797C278.704 10.4308 279.245 10.3063 279.848 10.3063C280.414 10.3063 280.912 10.3893 281.343 10.5552C281.774 10.7212 282.173 10.9583 282.543 11.2665C282.924 11.5746 283.312 11.9421 283.705 12.3688C284.062 12.7363 284.363 13.0267 284.609 13.2401C284.856 13.4416 285.089 13.5838 285.311 13.6668C285.545 13.7498 285.797 13.7913 286.067 13.7913C286.412 13.7913 286.701 13.6727 286.935 13.4357C287.169 13.1986 287.285 12.843 287.285 12.3688C287.285 11.8117 287.156 11.3198 286.898 10.8931C286.64 10.4663 286.301 10.087 285.883 9.75513C285.465 9.41138 285.022 9.09726 284.554 8.81277L286.012 6.83916C286.738 7.21847 287.39 7.6689 287.968 8.19046C288.546 8.71202 289.002 9.30469 289.334 9.96849C289.678 10.6204 289.851 11.3554 289.851 12.1733C289.851 12.9319 289.697 13.5957 289.389 14.1646C289.094 14.7218 288.651 15.1604 288.061 15.4804C287.482 15.7886 286.769 15.9427 285.92 15.9427ZM280.42 8.68831C279.842 8.68831 279.331 8.59941 278.889 8.42161C278.446 8.23195 278.07 7.92968 277.763 7.51481C277.455 7.08808 277.215 6.51318 277.043 5.79012L279.553 5.1678C279.688 5.77234 279.836 6.20499 279.996 6.46577C280.156 6.71469 280.377 6.83916 280.66 6.83916C280.845 6.83916 281.029 6.77396 281.214 6.64357C281.398 6.51318 281.644 6.26426 281.952 5.8968L282.727 4.95444C283.158 4.43288 283.564 4.02394 283.945 3.7276C284.327 3.4194 284.739 3.19419 285.182 3.05194C285.637 2.9097 286.178 2.83265 286.806 2.8208L286.953 4.88332C286.535 4.90703 286.172 4.97815 285.864 5.09668C285.569 5.20336 285.298 5.35746 285.052 5.55897C284.806 5.76048 284.548 6.02719 284.277 6.35909L283.668 7.08808C283.435 7.37256 283.158 7.63927 282.838 7.8882C282.518 8.12527 282.155 8.32085 281.749 8.47495C281.355 8.61719 280.912 8.68831 280.42 8.68831Z" fill="#FF5858"/>
<path d="M265.449 12.6948C265.449 11.8885 265.642 11.1654 266.026 10.5255C266.411 9.88557 266.956 9.38003 267.661 9.00888C268.366 8.63772 269.206 8.45215 270.18 8.45215C271.168 8.45215 272.008 8.63772 272.7 9.00888C273.392 9.38003 273.918 9.88557 274.277 10.5255C274.649 11.1654 274.835 11.8885 274.835 12.6948C274.835 13.5011 274.649 14.2242 274.277 14.8641C273.905 15.4913 273.367 15.9904 272.661 16.3615C271.969 16.7199 271.129 16.8991 270.142 16.8991C269.168 16.8991 268.328 16.7135 267.622 16.3423C266.917 15.9712 266.379 15.4721 266.007 14.8449C265.635 14.205 265.449 13.4883 265.449 12.6948ZM268.026 12.6756C268.026 13.2643 268.199 13.7635 268.546 14.173C268.905 14.5698 269.437 14.7681 270.142 14.7681C270.616 14.7681 271.007 14.6786 271.315 14.4994C271.623 14.3074 271.854 14.0514 272.008 13.7315C272.174 13.4115 272.258 13.0596 272.258 12.6756C272.258 12.0869 272.072 11.5941 271.7 11.1974C271.341 10.7879 270.822 10.5831 270.142 10.5831C269.693 10.5831 269.309 10.6791 268.988 10.871C268.68 11.0502 268.443 11.2998 268.276 11.6197C268.11 11.9269 268.026 12.2789 268.026 12.6756Z" fill="#FF5858"/>
<path d="M258.701 15.9427C258.184 15.9427 257.686 15.8716 257.206 15.7293C256.739 15.5989 256.253 15.3559 255.748 15.0003C255.256 14.6447 254.715 14.1469 254.124 13.5068C253.854 13.2104 253.632 12.9911 253.46 12.8489C253.3 12.6948 253.165 12.5941 253.054 12.5466C252.943 12.4874 252.82 12.4577 252.685 12.4577C252.525 12.4577 252.377 12.5229 252.242 12.6533C252.107 12.7837 252.039 12.9615 252.039 13.1867C252.039 13.4831 252.107 13.7972 252.242 14.1291C252.39 14.461 252.599 14.8166 252.869 15.1959L250.286 15.9605C250.064 15.5456 249.874 15.107 249.714 14.6447C249.566 14.1706 249.492 13.6609 249.492 13.1156C249.492 12.5703 249.628 12.0903 249.898 11.6754C250.169 11.2487 250.538 10.9168 251.005 10.6797C251.485 10.4308 252.027 10.3063 252.629 10.3063C253.195 10.3063 253.694 10.3893 254.124 10.5552C254.555 10.7212 254.955 10.9583 255.324 11.2665C255.705 11.5746 256.093 11.9421 256.486 12.3688C256.843 12.7363 257.145 13.0267 257.391 13.2401C257.637 13.4416 257.871 13.5838 258.092 13.6668C258.326 13.7498 258.578 13.7913 258.849 13.7913C259.193 13.7913 259.482 13.6727 259.716 13.4357C259.95 13.1986 260.067 12.843 260.067 12.3688C260.067 11.8117 259.937 11.3198 259.679 10.8931C259.421 10.4663 259.082 10.087 258.664 9.75513C258.246 9.41138 257.803 9.09726 257.335 8.81277L258.793 6.83916C259.519 7.21847 260.171 7.6689 260.749 8.19046C261.328 8.71202 261.783 9.30469 262.115 9.96849C262.46 10.6204 262.632 11.3554 262.632 12.1733C262.632 12.9319 262.478 13.5957 262.17 14.1646C261.875 14.7218 261.432 15.1604 260.842 15.4804C260.264 15.7886 259.55 15.9427 258.701 15.9427ZM253.202 8.68831C252.623 8.68831 252.113 8.59941 251.67 8.42161C251.227 8.23195 250.852 7.92968 250.544 7.51481C250.237 7.08808 249.997 6.51318 249.824 5.79012L252.334 5.1678C252.47 5.77234 252.617 6.20499 252.777 6.46577C252.937 6.71469 253.158 6.83916 253.441 6.83916C253.626 6.83916 253.811 6.77396 253.995 6.64357C254.18 6.51318 254.426 6.26426 254.733 5.8968L255.508 4.95444C255.939 4.43288 256.345 4.02394 256.726 3.7276C257.108 3.4194 257.52 3.19419 257.963 3.05194C258.418 2.9097 258.959 2.83265 259.587 2.8208L259.734 4.88332C259.316 4.90703 258.953 4.97815 258.646 5.09668C258.35 5.20336 258.08 5.35746 257.834 5.55897C257.588 5.76048 257.329 6.02719 257.059 6.35909L256.45 7.08808C256.216 7.37256 255.939 7.63927 255.619 7.8882C255.299 8.12527 254.936 8.32085 254.53 8.47495C254.137 8.61719 253.694 8.68831 253.202 8.68831Z" fill="#FF5858"/>
<path d="M230.571 15.9607C229.778 15.9607 229.14 15.8324 228.657 15.5757C228.186 15.3069 227.845 14.9647 227.634 14.5492C227.436 14.1337 227.337 13.6937 227.337 13.2294C227.337 12.6305 227.473 12.1356 227.746 11.7445C228.019 11.3535 228.378 11.0663 228.824 10.883C229.282 10.6875 229.766 10.5897 230.274 10.5897C230.918 10.5897 231.457 10.6997 231.89 10.9196C232.336 11.1274 232.702 11.3779 232.987 11.6712C233.284 11.9523 233.52 12.2028 233.693 12.4228L232.745 14.2925C232.609 13.9626 232.442 13.651 232.244 13.3577C232.058 13.0644 231.835 12.8261 231.575 12.6428C231.314 12.4472 231.005 12.3495 230.645 12.3495C230.373 12.3495 230.125 12.4228 229.902 12.5694C229.679 12.7161 229.567 12.9483 229.567 13.266C229.567 13.5471 229.66 13.7671 229.846 13.9259C230.032 14.0848 230.28 14.1642 230.59 14.1642C230.998 14.1642 231.321 14.0542 231.556 13.8343C231.804 13.6143 231.977 13.321 232.076 12.9544C232.175 12.5878 232.225 12.1906 232.225 11.7629V11.3046C232.225 10.8035 232.157 10.3514 232.021 9.9481C231.884 9.54482 231.667 9.22708 231.37 8.99489C231.085 8.76269 230.701 8.6466 230.218 8.6466C229.92 8.6466 229.648 8.71381 229.4 8.84824C229.165 8.97045 228.966 9.14154 228.805 9.36151C228.644 9.58148 228.527 9.83811 228.452 10.1314H226.055C225.993 9.93588 225.881 9.72202 225.72 9.48983C225.572 9.24541 225.348 9.03766 225.051 8.86657C224.754 8.68326 224.345 8.59161 223.825 8.59161C223.391 8.59161 223.038 8.66493 222.765 8.81158C222.505 8.94601 222.375 9.17209 222.375 9.48983C222.375 9.61203 222.393 9.72813 222.431 9.83811C222.48 9.93588 222.567 10.0214 222.691 10.0947C222.802 10.1559 222.945 10.2108 223.118 10.2597C223.304 10.2964 223.589 10.3147 223.973 10.3147H225.07V12.2211H223.917C223.533 12.2211 223.236 12.2395 223.025 12.2761C222.815 12.3128 222.647 12.38 222.524 12.4778C222.437 12.5511 222.362 12.6428 222.301 12.7527C222.251 12.8505 222.226 12.9666 222.226 13.101C222.226 13.3454 222.307 13.5471 222.468 13.706C222.641 13.8648 222.92 13.9443 223.304 13.9443C223.713 13.9443 224.079 13.8404 224.401 13.6326C224.735 13.4249 225.057 13.1499 225.367 12.8077L226.965 14.2009C226.631 14.5797 226.265 14.9036 225.869 15.1724C225.485 15.4291 225.057 15.6246 224.587 15.759C224.116 15.8935 223.577 15.9607 222.97 15.9607C221.805 15.9607 220.925 15.7224 220.331 15.2458C219.748 14.7569 219.457 14.1581 219.457 13.4493C219.457 13.1071 219.525 12.7894 219.661 12.4961C219.798 12.1906 220.008 11.9278 220.293 11.7079C220.591 11.4757 220.962 11.2924 221.408 11.1579L221.39 11.3962C220.783 11.1763 220.331 10.8891 220.033 10.5347C219.748 10.1681 219.606 9.73424 219.606 9.23319C219.606 8.78103 219.767 8.39607 220.089 8.07834C220.423 7.74838 220.882 7.49174 221.464 7.30843C222.047 7.12512 222.716 7.03347 223.471 7.03347C224.14 7.03347 224.698 7.1129 225.144 7.27177C225.602 7.41842 226.005 7.63839 226.352 7.93169C226.711 8.21276 227.083 8.56105 227.467 8.97656L227.04 8.99489C227.337 8.57939 227.659 8.24332 228.006 7.98668C228.353 7.71783 228.725 7.5223 229.121 7.40009C229.53 7.26566 229.958 7.19845 230.404 7.19845C231.345 7.19845 232.132 7.36343 232.764 7.69339C233.396 8.02334 233.873 8.50606 234.195 9.14154C234.517 9.77701 234.678 10.553 234.678 11.4696C234.678 12.3739 234.53 13.1682 234.232 13.8526C233.935 14.5247 233.483 15.0441 232.875 15.4107C232.268 15.7774 231.5 15.9607 230.571 15.9607ZM238.99 12.3678C238.42 12.3678 237.949 12.2822 237.577 12.1112C237.206 11.9401 236.915 11.7262 236.704 11.4696C236.493 11.2007 236.345 10.9196 236.258 10.6263C236.171 10.3331 236.128 10.0642 236.128 9.81978C236.128 9.31874 236.208 8.90934 236.369 8.59161C236.531 8.27387 236.698 7.98057 236.871 7.71172L238.878 7.85837C238.606 8.115 238.389 8.36552 238.228 8.60994C238.067 8.85435 237.986 9.16598 237.986 9.54482C237.986 9.85033 238.079 10.1009 238.265 10.2964C238.463 10.4919 238.711 10.5897 239.009 10.5897C239.368 10.5897 239.634 10.5041 239.808 10.3331C239.994 10.1497 240.086 9.92366 240.086 9.6548C240.086 9.28818 239.932 9.03155 239.622 8.8849C239.325 8.72603 238.922 8.6466 238.414 8.6466H225.776L224.512 8.15166L222.226 8.6466H219.661V6.5752H236.815C237.571 6.5752 238.197 6.59964 238.693 6.64852C239.201 6.68518 239.628 6.75851 239.975 6.86849C240.334 6.97848 240.663 7.14957 240.96 7.38176C241.27 7.61395 241.518 7.90725 241.703 8.26165C241.889 8.61605 241.982 9.0621 241.982 9.59981C241.982 10.3942 241.716 11.0541 241.183 11.5796C240.663 12.105 239.932 12.3678 238.99 12.3678Z" fill="#FF5858"/>
<path d="M207.405 15.9607C206.804 15.9607 206.271 15.8751 205.807 15.704C205.343 15.5329 204.873 15.2458 204.396 14.8425C203.933 14.427 203.375 13.8648 202.723 13.156C202.372 12.765 202.096 12.4961 201.895 12.3495C201.695 12.1906 201.463 12.1112 201.2 12.1112C200.999 12.1112 200.798 12.1906 200.598 12.3495C200.41 12.4961 200.316 12.7283 200.316 13.046C200.316 13.4249 200.416 13.6876 200.617 13.8343C200.83 13.9809 201.074 14.0542 201.35 14.0542C201.651 14.0542 201.952 13.932 202.253 13.6876C202.554 13.4432 202.767 13.0399 202.892 12.4778L204.453 14.0909C204.202 14.4331 203.939 14.7508 203.663 15.0441C203.4 15.3252 203.068 15.5513 202.666 15.7224C202.265 15.8812 201.726 15.9607 201.049 15.9607C200.309 15.9607 199.701 15.8262 199.225 15.5574C198.761 15.2763 198.416 14.9158 198.191 14.4759C197.978 14.0237 197.871 13.5532 197.871 13.0644C197.871 12.4778 198.015 11.9706 198.304 11.5429C198.592 11.103 198.987 10.7608 199.488 10.5164C199.99 10.2719 200.554 10.1497 201.181 10.1497C201.707 10.1497 202.171 10.217 202.572 10.3514C202.974 10.4858 203.362 10.7058 203.738 11.0113C204.127 11.3168 204.553 11.7201 205.017 12.2211C205.418 12.6489 205.75 12.9727 206.014 13.1927C206.277 13.4127 206.515 13.5593 206.728 13.6326C206.941 13.706 207.161 13.7426 207.386 13.7426C207.788 13.7426 208.107 13.6204 208.346 13.376C208.584 13.1316 208.703 12.7405 208.703 12.2028C208.703 11.5796 208.534 11.0113 208.195 10.498C207.857 9.98476 207.393 9.54482 206.804 9.1782C206.214 8.81158 205.544 8.54883 204.791 8.38996L209.286 8.31664C209.7 8.5855 210.057 8.90934 210.358 9.28818C210.671 9.6548 210.909 10.0703 211.072 10.5347C211.235 10.9869 211.317 11.4818 211.317 12.0195C211.317 12.8138 211.166 13.5104 210.865 14.1092C210.565 14.6958 210.12 15.1541 209.53 15.4841C208.954 15.8018 208.245 15.9607 207.405 15.9607ZM215.51 12.3678C214.934 12.3678 214.457 12.2822 214.081 12.1112C213.705 11.9401 213.41 11.7262 213.197 11.4696C212.984 11.2007 212.834 10.9196 212.746 10.6263C212.658 10.3331 212.614 10.0642 212.614 9.81978C212.614 9.31874 212.696 8.90934 212.859 8.59161C213.022 8.27387 213.191 7.98057 213.367 7.71172L215.379 7.85837C215.115 8.115 214.902 8.36552 214.739 8.60994C214.576 8.85435 214.495 9.16598 214.495 9.54482C214.495 9.85033 214.589 10.1009 214.777 10.2964C214.978 10.4919 215.228 10.5897 215.529 10.5897C215.893 10.5897 216.162 10.5041 216.338 10.3331C216.513 10.1497 216.601 9.92366 216.601 9.6548C216.601 9.28818 216.451 9.03155 216.15 8.8849C215.849 8.72603 215.448 8.6466 214.946 8.6466H199.864V6.5752H213.31C214.075 6.5752 214.708 6.59964 215.209 6.64852C215.711 6.68518 216.137 6.75851 216.488 6.86849C216.852 6.97848 217.184 7.14957 217.485 7.38176C217.811 7.61395 218.062 7.90725 218.237 8.26165C218.425 8.61605 218.519 9.0621 218.519 9.59981C218.519 10.3942 218.256 11.0541 217.729 11.5796C217.203 12.105 216.463 12.3678 215.51 12.3678Z" fill="#FF5858"/>
<path d="M184.734 11.545C184.734 10.6666 184.937 9.87729 185.343 9.17698C185.749 8.4648 186.345 7.901 187.131 7.48556C187.931 7.05825 188.907 6.8446 190.061 6.8446C191.228 6.8446 192.205 7.04638 192.991 7.44995C193.777 7.84165 194.367 8.38765 194.76 9.08796C195.166 9.78826 195.369 10.6013 195.369 11.5272C195.369 12.3936 195.173 13.1652 194.779 13.8417C194.386 14.5064 193.796 15.0287 193.01 15.4085C192.224 15.7765 191.241 15.9605 190.061 15.9605C188.882 15.9605 187.892 15.7706 187.093 15.3907C186.307 15.0109 185.717 14.4886 185.324 13.8239C184.931 13.1592 184.734 12.3996 184.734 11.545ZM187.379 11.3135C187.379 12.0376 187.601 12.637 188.045 13.1118C188.501 13.5747 189.173 13.8061 190.061 13.8061C190.657 13.8061 191.152 13.7052 191.545 13.5035C191.938 13.2898 192.236 13.0049 192.439 12.6488C192.642 12.2809 192.744 11.8654 192.744 11.4025C192.744 10.9277 192.642 10.5004 192.439 10.1206C192.249 9.74079 191.951 9.43811 191.545 9.21259C191.152 8.9752 190.657 8.8565 190.061 8.8565C189.452 8.8565 188.951 8.96926 188.558 9.19478C188.165 9.42031 187.867 9.72298 187.664 10.1028C187.474 10.4708 187.379 10.8743 187.379 11.3135ZM189.262 8.69626C188.666 8.69626 188.14 8.60724 187.683 8.42919C187.227 8.23928 186.84 7.9366 186.523 7.52117C186.206 7.09386 185.958 6.51819 185.781 5.79414L188.368 5.17098C188.508 5.77633 188.66 6.20957 188.825 6.47071C188.99 6.71997 189.218 6.8446 189.51 6.8446C189.7 6.8446 189.89 6.77932 190.08 6.64875C190.271 6.51819 190.524 6.26892 190.841 5.90097L191.64 4.95733C192.084 4.43507 192.503 4.02557 192.896 3.72883C193.289 3.42022 193.714 3.19469 194.171 3.05226C194.64 2.90982 195.198 2.83267 195.845 2.8208L195.997 4.88611C195.566 4.90985 195.192 4.98107 194.874 5.09977C194.57 5.20659 194.291 5.3609 194.037 5.56268C193.784 5.76447 193.517 6.03153 193.238 6.36388L192.611 7.09386C192.37 7.37873 192.084 7.6458 191.754 7.89506C191.425 8.13245 191.051 8.3283 190.632 8.48261C190.226 8.62504 189.77 8.69626 189.262 8.69626Z" fill="#FF5858"/>
<path d="M166.153 23.4692C165.355 23.4692 164.74 23.3814 164.309 23.2057C163.878 23.03 163.498 22.7916 163.168 22.4904H163.282C162.927 22.8794 162.566 23.1367 162.199 23.2622C161.818 23.4002 161.381 23.4692 160.887 23.4692C160.405 23.4692 159.981 23.3563 159.613 23.1304C159.245 22.9171 158.96 22.6033 158.757 22.1892C158.555 21.775 158.453 21.2793 158.453 20.702C158.453 19.949 158.662 19.2839 159.081 18.7066C159.486 18.1418 160.076 17.6963 160.849 17.37C161.622 17.0563 162.535 16.8994 163.587 16.8994C164.461 16.8994 165.222 16.9559 165.868 17.0688C166.502 17.1818 167.174 17.3575 167.884 17.5959L167.142 19.2902C166.648 19.1019 166.217 18.9576 165.849 18.8572C165.469 18.7568 165.108 18.6878 164.765 18.6501C164.411 18.6125 164.024 18.5936 163.606 18.5936C162.896 18.5936 162.313 18.6878 161.856 18.876C161.4 19.0768 161.071 19.3341 160.868 19.6478C160.652 19.9616 160.545 20.313 160.545 20.702C160.545 21.0283 160.621 21.2856 160.773 21.4738C160.912 21.6746 161.121 21.775 161.4 21.775C161.654 21.775 161.869 21.6809 162.047 21.4927C162.211 21.317 162.313 21.0722 162.351 20.7585H164.176C164.201 20.9718 164.252 21.1601 164.328 21.3232C164.404 21.4864 164.525 21.6119 164.689 21.6997C164.854 21.7876 165.082 21.8315 165.374 21.8315C165.513 21.844 165.665 21.8566 165.83 21.8691C165.982 21.8942 166.147 21.9068 166.324 21.9068C166.578 21.9068 166.781 21.8629 166.933 21.775C167.072 21.6997 167.142 21.5742 167.142 21.3985C167.142 21.273 167.098 21.1726 167.009 21.0973C166.908 21.022 166.768 20.9844 166.591 20.9844C166.426 20.9844 166.293 21.0346 166.191 21.135C166.077 21.2354 166.02 21.3923 166.02 21.6056C166.02 21.7687 166.065 21.9131 166.153 22.0386C166.229 22.1766 166.337 22.3021 166.477 22.4151L165.07 22.7727C164.918 22.5594 164.81 22.3147 164.746 22.0386C164.67 21.7625 164.632 21.5429 164.632 21.3797C164.632 20.8275 164.81 20.3757 165.165 20.0243C165.507 19.6729 166.008 19.4972 166.667 19.4972C167.3 19.4972 167.814 19.6729 168.207 20.0243C168.587 20.3883 168.777 20.8338 168.777 21.3609C168.777 21.7123 168.701 22.0448 168.549 22.3586C168.384 22.6849 168.112 22.9484 167.731 23.1492C167.351 23.3626 166.825 23.4692 166.153 23.4692Z" fill="#FF5858"/>
<path d="M172.208 15.9607C171.233 15.9607 170.412 15.7468 169.745 15.3191C169.078 14.8914 168.443 14.3537 167.84 13.706L169.321 12.1295C169.591 12.4228 169.873 12.6916 170.168 12.9361C170.45 13.1805 170.758 13.376 171.092 13.5226C171.438 13.6693 171.81 13.7426 172.208 13.7426C172.657 13.7426 173.003 13.6204 173.247 13.376C173.49 13.1316 173.612 12.765 173.612 12.2761C173.612 11.7018 173.478 11.1946 173.208 10.7547C172.939 10.3147 172.586 9.92366 172.15 9.58148C171.714 9.22708 171.252 8.90323 170.765 8.60994L172.285 6.5752C173.041 6.96626 173.721 7.43064 174.324 7.96835C174.927 8.50606 175.402 9.11709 175.748 9.80145C176.107 10.4736 176.287 11.2313 176.287 12.0745C176.287 13.2477 175.94 14.1887 175.248 14.8975C174.555 15.6063 173.542 15.9607 172.208 15.9607Z" fill="#FF5858"/>
<path d="M165.197 15.9605C164.48 15.9605 163.871 15.8952 163.369 15.7646C162.866 15.6459 162.439 15.4738 162.087 15.2483C161.735 15.0109 161.421 14.7379 161.145 14.4293L161.277 14.4471C160.975 14.8625 160.655 15.183 160.315 15.4085C159.989 15.6222 159.637 15.7646 159.26 15.8358C158.896 15.9189 158.487 15.9605 158.035 15.9605C157.042 15.9605 156.238 15.6281 155.623 14.9634C155.007 14.2987 154.699 13.3551 154.699 12.1325C154.699 10.993 154.994 10.0316 155.585 9.2482C156.176 8.45293 157.011 7.85352 158.092 7.44995C159.172 7.04638 160.435 6.8446 161.88 6.8446C162.646 6.8446 163.343 6.88614 163.972 6.96923C164.6 7.05232 165.209 7.17695 165.8 7.34312C166.39 7.49743 167.012 7.69921 167.666 7.94847L166.516 9.94257C165.837 9.6577 165.241 9.43811 164.725 9.28381C164.223 9.1295 163.739 9.02267 163.274 8.96333C162.809 8.89211 162.301 8.8565 161.748 8.8565C160.717 8.8565 159.876 8.99894 159.222 9.28381C158.569 9.55681 158.085 9.9307 157.771 10.4055C157.47 10.8684 157.319 11.3847 157.319 11.9545C157.319 12.6192 157.432 13.094 157.658 13.3788C157.884 13.6637 158.198 13.8061 158.6 13.8061C159.015 13.8061 159.348 13.6637 159.599 13.3788C159.863 13.094 160.02 12.6963 160.07 12.1859H162.389C162.426 12.6488 162.571 13.0227 162.822 13.3076C163.086 13.5925 163.526 13.7765 164.141 13.8595C164.33 13.8952 164.537 13.9248 164.763 13.9486C165.002 13.9604 165.253 13.9664 165.517 13.9664C165.869 13.9664 166.145 13.9011 166.346 13.7705C166.547 13.64 166.648 13.4263 166.648 13.1296C166.648 12.9278 166.572 12.7616 166.422 12.631C166.283 12.5005 166.089 12.4352 165.837 12.4352C165.599 12.4352 165.391 12.5005 165.215 12.631C165.052 12.7616 164.97 12.9753 164.97 13.272C164.97 13.4857 165.027 13.6874 165.14 13.8773C165.253 14.0554 165.41 14.2156 165.611 14.3581L163.783 14.8566C163.57 14.5717 163.406 14.2453 163.293 13.8773C163.193 13.4975 163.142 13.1948 163.142 12.9693C163.142 12.2453 163.381 11.6637 163.859 11.2245C164.349 10.7734 165.033 10.5479 165.913 10.5479C166.491 10.5479 166.993 10.6607 167.421 10.8862C167.848 11.1117 168.181 11.4203 168.419 11.812C168.658 12.1919 168.777 12.6192 168.777 13.094C168.777 13.45 168.715 13.8002 168.589 14.1444C168.476 14.4886 168.281 14.7972 168.005 15.0702C167.741 15.3432 167.377 15.5628 166.912 15.729C166.447 15.8833 165.875 15.9605 165.197 15.9605ZM161.201 8.69626C160.611 8.69626 160.089 8.60724 159.637 8.42919C159.185 8.23928 158.801 7.9366 158.487 7.52117C158.173 7.09386 157.928 6.51819 157.752 5.79414L160.315 5.17098C160.454 5.77633 160.604 6.20957 160.768 6.47071C160.931 6.71997 161.157 6.8446 161.446 6.8446C161.635 6.8446 161.823 6.77932 162.012 6.64875C162.2 6.51819 162.451 6.26892 162.765 5.90097L163.557 4.95733C163.997 4.43507 164.411 4.02557 164.801 3.72883C165.19 3.42022 165.611 3.19469 166.064 3.05226C166.528 2.90982 167.081 2.83267 167.722 2.8208L167.873 4.88611C167.446 4.90985 167.075 4.98107 166.761 5.09977C166.459 5.20659 166.183 5.3609 165.932 5.56268C165.68 5.76447 165.417 6.03153 165.14 6.36388L164.518 7.09386C164.279 7.37873 163.997 7.6458 163.67 7.89506C163.343 8.13245 162.973 8.3283 162.558 8.48261C162.156 8.62504 161.704 8.69626 161.201 8.69626Z" fill="#FF5858"/>
<path d="M138.742 11.4591C138.742 10.5636 138.946 9.75886 139.353 9.0449C139.76 8.31883 140.358 7.74403 141.147 7.32049C141.949 6.88485 142.929 6.66703 144.087 6.66703C145.258 6.66703 146.238 6.87275 147.027 7.28419C147.816 7.68352 148.408 8.24017 148.802 8.95414C149.209 9.6681 149.413 10.497 149.413 11.4409C149.413 12.3243 149.216 13.1109 148.821 13.8006C148.427 14.4783 147.835 15.0107 147.046 15.398C146.257 15.7731 145.271 15.9607 144.087 15.9607C142.904 15.9607 141.911 15.7671 141.109 15.3798C140.32 14.9926 139.728 14.4601 139.334 13.7825C138.939 13.1048 138.742 12.3303 138.742 11.4591ZM141.396 11.2231C141.396 11.9613 141.618 12.5724 142.064 13.0564C142.522 13.5284 143.196 13.7643 144.087 13.7643C144.685 13.7643 145.182 13.6615 145.576 13.4557C145.971 13.2379 146.27 12.9475 146.473 12.5845C146.677 12.2093 146.779 11.7858 146.779 11.3139C146.779 10.8298 146.677 10.3942 146.473 10.0069C146.282 9.6197 145.983 9.31112 145.576 9.0812C145.182 8.83918 144.685 8.71817 144.087 8.71817C143.476 8.71817 142.974 8.83313 142.579 9.06305C142.185 9.29297 141.886 9.60155 141.682 9.98878C141.491 10.3639 141.396 10.7754 141.396 11.2231ZM151.933 8.48219C151.347 8.48219 150.864 8.39749 150.482 8.22807C150.1 8.05866 149.795 7.84689 149.566 7.59276C149.349 7.32654 149.197 7.04821 149.108 6.75779C149.018 6.46736 148.974 6.20719 148.974 5.97727C148.974 5.48112 149.057 5.07573 149.222 4.76111C149.4 4.43438 149.578 4.14395 149.757 3.88983L151.799 4.01689C151.519 4.27101 151.296 4.51908 151.131 4.76111C150.966 5.00313 150.883 5.31171 150.883 5.68684C150.883 5.98937 150.978 6.23744 151.169 6.43106C151.373 6.62468 151.634 6.72148 151.952 6.72148C152.334 6.72148 152.607 6.63073 152.773 6.44921C152.951 6.26769 153.04 6.04987 153.04 5.79575C153.04 5.44482 152.887 5.19069 152.582 5.03338C152.276 4.87607 151.863 4.79741 151.341 4.79741H148.611C148.179 4.79741 147.841 4.90027 147.6 5.10599C147.358 5.31171 147.205 5.63844 147.141 6.08618H144.813C144.723 5.68684 144.558 5.37221 144.316 5.14229C144.087 4.91237 143.718 4.79741 143.209 4.79741H142.999C142.719 4.79741 142.477 4.88212 142.274 5.05153C142.07 5.22095 141.968 5.46297 141.968 5.7776C141.968 5.97122 142.013 6.13458 142.102 6.26769C142.204 6.4008 142.344 6.50366 142.522 6.57627C142.7 6.63678 142.904 6.66703 143.133 6.66703H143.782V8.64556H143.285C142.547 8.64556 141.898 8.52455 141.338 8.28253C140.791 8.0284 140.365 7.67142 140.059 7.21158C139.754 6.75174 139.601 6.21324 139.601 5.59608C139.601 4.76111 139.888 4.08344 140.46 3.5631C141.046 3.03065 141.841 2.76442 142.846 2.76442H143.075C143.635 2.76442 144.119 2.84308 144.526 3.0004C144.933 3.14561 145.264 3.34528 145.519 3.5994C145.773 3.85352 145.952 4.1258 146.053 4.41622H145.882C146.034 4.1137 146.231 3.84142 146.473 3.5994C146.715 3.34528 147.046 3.14561 147.466 3.0004C147.886 2.84308 148.433 2.76442 149.108 2.76442H150.253C151.08 2.76442 151.786 2.81283 152.372 2.90964C152.957 2.99434 153.473 3.20006 153.918 3.52679C154.249 3.75671 154.51 4.04714 154.701 4.39807C154.892 4.749 154.987 5.19675 154.987 5.7413C154.987 6.53997 154.72 7.19948 154.185 7.71983C153.651 8.22807 152.9 8.48219 151.933 8.48219ZM152.544 0.00537109C153.358 0.00537109 154.013 0.168736 154.51 0.495466C155.006 0.810095 155.382 1.25784 155.636 1.83869L153.689 2.29248C153.613 2.15937 153.524 2.04441 153.422 1.9476C153.32 1.85079 153.199 1.77818 153.059 1.72978C152.919 1.68137 152.754 1.65717 152.563 1.65717C152.245 1.65717 151.996 1.72978 151.818 1.87499C151.653 2.0081 151.57 2.18357 151.57 2.40139C151.57 2.63131 151.64 2.84308 151.78 3.0367C151.92 3.21821 152.111 3.38158 152.353 3.52679L150.406 4.21656C150.164 4.01084 149.941 3.73856 149.738 3.39973C149.547 3.0488 149.451 2.64946 149.451 2.20172C149.451 1.81449 149.559 1.4575 149.776 1.13077C149.992 0.791942 150.329 0.519668 150.787 0.313949C151.246 0.10823 151.831 0.00537109 152.544 0.00537109Z" fill="#FF5858"/>
<path d="M126.06 6.5752C126.869 6.5752 127.543 6.74311 128.082 7.07895C128.621 7.41479 129.055 7.85858 129.383 8.41031C129.711 8.96204 129.946 9.57375 130.086 10.2454C130.227 10.9051 130.297 11.5708 130.297 12.2425C130.297 13.4539 130.151 14.5933 129.858 15.6608C129.576 16.7283 129.166 17.7238 128.627 18.6474C128.099 19.5829 127.466 20.4465 126.728 21.2381C125.989 22.0417 125.175 22.7854 124.284 23.469L122.789 21.7779C123.492 21.2141 124.155 20.6084 124.776 19.9607C125.409 19.3131 125.96 18.6054 126.429 17.8378C126.91 17.0821 127.285 16.2485 127.554 15.337C127.824 14.4254 127.959 13.4119 127.959 12.2964C127.959 11.8886 127.924 11.4568 127.853 11.0011C127.795 10.5453 127.689 10.1195 127.537 9.72368C127.396 9.32787 127.197 9.00402 126.939 8.75215C126.693 8.50027 126.376 8.37433 125.989 8.37433C125.743 8.37433 125.532 8.44629 125.356 8.59022C125.18 8.73415 125.093 8.92606 125.093 9.16595C125.093 9.40583 125.157 9.59774 125.286 9.74167C125.415 9.8736 125.573 9.96356 125.761 10.0115C125.96 10.0595 126.148 10.0835 126.323 10.0835C126.804 10.0835 127.214 9.95157 127.554 9.68769C127.894 9.41183 128.211 9.11797 128.504 8.80612L129.137 10.6592C128.727 10.9591 128.275 11.2349 127.783 11.4868C127.302 11.7387 126.704 11.8646 125.989 11.8646C125.098 11.8646 124.372 11.6487 123.809 11.217C123.258 10.7852 122.982 10.1135 122.982 9.20193C122.982 8.69817 123.1 8.24839 123.334 7.85258C123.569 7.45677 123.914 7.14492 124.372 6.91703C124.829 6.68914 125.392 6.5752 126.06 6.5752Z" fill="#FF5858"/>
<path d="M116.201 23.4692C115.661 23.4692 115.219 23.3688 114.876 23.1681C114.52 22.9673 114.183 22.6535 113.864 22.2268H114.287C113.993 22.5406 113.717 22.7853 113.459 22.961C113.189 23.1492 112.907 23.281 112.612 23.3563C112.318 23.4316 111.962 23.4692 111.545 23.4692C110.833 23.4692 110.269 23.3124 109.852 22.9986C109.435 22.6849 109.14 22.2833 108.969 21.7938C108.797 21.317 108.711 20.8275 108.711 20.3255C108.711 19.5976 108.858 18.9764 109.153 18.4619C109.435 17.9599 109.821 17.5708 110.312 17.2947C110.803 17.0312 111.355 16.8994 111.968 16.8994C112.729 16.8994 113.306 17.0814 113.698 17.4453C114.078 17.8218 114.269 18.2799 114.269 18.8195C114.269 19.447 114.072 19.9239 113.68 20.2502C113.275 20.5765 112.674 20.7397 111.876 20.7397C111.447 20.7397 111.06 20.6518 110.717 20.4761C110.361 20.313 110.054 20.1122 109.797 19.8737L110.294 18.5936C110.441 18.7944 110.637 18.9827 110.882 19.1584C111.116 19.3341 111.385 19.4219 111.692 19.4219C111.962 19.4219 112.177 19.3717 112.336 19.2713C112.484 19.1835 112.557 19.0392 112.557 18.8384C112.557 18.7003 112.514 18.5685 112.428 18.443C112.33 18.3301 112.177 18.2736 111.968 18.2736C111.637 18.2736 111.336 18.4117 111.067 18.6878C110.797 18.9639 110.662 19.4533 110.662 20.1561V20.3632C110.662 20.6769 110.705 20.9405 110.79 21.1538C110.864 21.3672 110.993 21.524 111.177 21.6244C111.349 21.7248 111.57 21.775 111.839 21.775C112.318 21.775 112.649 21.6621 112.833 21.4362C113.005 21.2228 113.109 20.9969 113.146 20.7585H114.931C114.992 21.2103 115.134 21.4927 115.354 21.6056C115.563 21.7185 115.802 21.775 116.072 21.775C116.391 21.775 116.624 21.6809 116.771 21.4927C116.906 21.3044 116.974 21.0848 116.974 20.8338C116.974 20.3192 116.784 19.8863 116.403 19.5349C116.023 19.1835 115.594 18.8697 115.115 18.5936L116.293 16.8994C116.808 17.163 117.274 17.483 117.692 17.8595C118.109 18.236 118.44 18.6627 118.685 19.1396C118.918 19.6165 119.035 20.1498 119.035 20.7397C119.035 21.5554 118.796 22.2143 118.317 22.7163C117.826 23.2183 117.121 23.4692 116.201 23.4692Z" fill="#FF5858"/>
<path d="M116.433 16.4335C115.827 16.4335 115.29 16.3475 114.823 16.1753C114.356 16.0031 113.883 15.7142 113.403 15.3084C112.936 14.8903 112.374 14.3246 111.718 13.6114C111.364 13.2179 111.086 12.9473 110.884 12.7998C110.682 12.6399 110.449 12.56 110.184 12.56C109.982 12.56 109.78 12.6399 109.578 12.7998C109.388 12.9473 109.294 13.181 109.294 13.5007C109.294 13.8819 109.395 14.1463 109.597 14.2939C109.811 14.4414 110.058 14.5152 110.335 14.5152C110.638 14.5152 110.941 14.3922 111.244 14.1463C111.547 13.9004 111.762 13.4946 111.888 12.9289L113.46 14.5521C113.207 14.8964 112.942 15.2161 112.665 15.5113C112.399 15.7941 112.065 16.0216 111.661 16.1937C111.257 16.3536 110.714 16.4335 110.032 16.4335C109.287 16.4335 108.675 16.2983 108.195 16.0277C107.728 15.7449 107.381 15.3821 107.154 14.9395C106.939 14.4968 106.832 14.0295 106.832 13.5376C106.832 12.9351 106.977 12.4186 107.268 11.9882C107.558 11.5455 107.956 11.2012 108.461 10.9552C108.966 10.7093 109.534 10.5863 110.165 10.5863C110.695 10.5863 111.162 10.654 111.566 10.7892C111.97 10.9245 112.362 11.1458 112.74 11.4533C113.132 11.7607 113.561 12.1665 114.028 12.6707C114.432 13.1011 114.76 13.4269 115.013 13.6483C115.278 13.8696 115.518 14.0172 115.732 14.091C115.959 14.1647 116.218 14.2016 116.509 14.2016C116.862 14.2016 117.153 14.0787 117.38 13.8327C117.62 13.5868 117.74 13.2179 117.74 12.726C117.74 12.148 117.607 11.6377 117.342 11.195C117.077 10.7523 116.73 10.3588 116.3 10.0145C115.884 9.65791 115.436 9.33204 114.956 9.03691L116.433 6.98947C117.178 7.38297 117.847 7.85026 118.44 8.39132C119.034 8.93239 119.501 9.54724 119.842 10.2359C120.195 10.9122 120.372 11.6746 120.372 12.5231C120.372 13.3101 120.22 13.9987 119.917 14.589C119.614 15.1669 119.166 15.6219 118.573 15.954C117.992 16.2737 117.279 16.4335 116.433 16.4335ZM119.273 18.7761C118.566 18.7761 117.998 18.6654 117.569 18.4441C117.153 18.2227 116.85 17.9338 116.66 17.5772C116.483 17.2205 116.395 16.8393 116.395 16.4335C116.395 16.2737 116.408 16.1077 116.433 15.9355C116.471 15.7634 116.521 15.5973 116.584 15.4375H119.027C118.964 15.5359 118.914 15.6342 118.876 15.7326C118.838 15.8187 118.819 15.9048 118.819 15.9908C118.819 16.1261 118.85 16.2491 118.914 16.3598C118.977 16.4704 119.065 16.5565 119.179 16.618C119.292 16.6795 119.425 16.7102 119.576 16.7102C119.778 16.7102 119.955 16.6733 120.107 16.5995C120.271 16.5381 120.466 16.4274 120.694 16.2675L121.849 17.8907C121.445 18.1859 121.035 18.4072 120.618 18.5548C120.214 18.7023 119.766 18.7761 119.273 18.7761ZM110.638 8.9078C110.045 8.9078 109.521 8.81557 109.067 8.63111C108.612 8.43436 108.227 8.12079 107.911 7.6904C107.596 7.24771 107.35 6.6513 107.173 5.90119L109.748 5.2556C109.887 5.88274 110.039 6.33158 110.203 6.60212C110.367 6.86035 110.594 6.98947 110.884 6.98947C111.074 6.98947 111.263 6.92184 111.453 6.78657C111.642 6.6513 111.894 6.39307 112.21 6.01186L113.005 5.03425C113.447 4.49319 113.864 4.06894 114.255 3.76152C114.647 3.4418 115.069 3.20815 115.524 3.06059C115.991 2.91303 116.547 2.8331 117.19 2.8208L117.342 4.96047C116.913 4.98507 116.54 5.05885 116.225 5.18182C115.922 5.29249 115.644 5.45235 115.391 5.6614C115.139 5.87045 114.874 6.14713 114.596 6.49144L113.971 7.24771C113.731 7.54283 113.447 7.81952 113.119 8.07775C112.791 8.32369 112.418 8.52659 112.002 8.68645C111.598 8.83401 111.143 8.9078 110.638 8.9078Z" fill="#FF5858"/>
<path d="M88.0625 11.4146C88.0625 10.5103 88.2627 9.73424 88.6632 9.08654C89.0636 8.43885 89.6518 7.9378 90.4276 7.5834C91.216 7.229 92.1733 7.0518 93.2996 7.0518C94.4634 7.0518 95.4332 7.21678 96.2091 7.54674C96.985 7.8767 97.5669 8.36552 97.9548 9.01322C98.3552 9.64869 98.5555 10.443 98.5555 11.3962C98.5555 12.2884 98.3615 13.0827 97.9736 13.7793C97.5856 14.4636 96.9975 15.0013 96.2091 15.3924C95.4332 15.7712 94.4634 15.9607 93.2996 15.9607C92.1483 15.9607 91.1785 15.7651 90.3901 15.3741C89.6142 14.983 89.0323 14.4453 88.6444 13.7609C88.2565 13.0766 88.0625 12.2945 88.0625 11.4146ZM90.6717 11.1763C90.6717 11.9217 90.8907 12.5389 91.3287 13.0277C91.7792 13.5043 92.4361 13.7426 93.2996 13.7426C93.8878 13.7426 94.3758 13.6387 94.7637 13.431C95.1642 13.211 95.4583 12.9177 95.646 12.5511C95.8462 12.1723 95.9463 11.7445 95.9463 11.2679C95.9463 10.7791 95.8462 10.3392 95.646 9.9481C95.4583 9.55704 95.1704 9.24541 94.7825 9.01322C94.3946 8.7688 93.9003 8.6466 93.2996 8.6466C92.7114 8.6466 92.2171 8.76269 91.8167 8.99489C91.4288 9.22708 91.1409 9.53871 90.9532 9.92977C90.7655 10.3086 90.6717 10.7241 90.6717 11.1763ZM102.892 12.3678C102.316 12.3678 101.84 12.2822 101.465 12.1112C101.09 11.9401 100.789 11.7262 100.564 11.4696C100.351 11.2007 100.201 10.9196 100.113 10.6263C100.026 10.3331 99.9821 10.0642 99.9821 9.81978C99.9821 9.34318 100.063 8.93989 100.226 8.60994C100.401 8.27998 100.576 7.98057 100.752 7.71172L102.76 7.85837C102.485 8.115 102.266 8.36552 102.103 8.60994C101.94 8.85435 101.859 9.16598 101.859 9.54482C101.859 9.85033 101.953 10.1009 102.141 10.2964C102.341 10.4919 102.597 10.5897 102.91 10.5897C103.273 10.5897 103.542 10.5041 103.717 10.3331C103.893 10.1497 103.98 9.92366 103.98 9.6548C103.98 9.28818 103.83 9.03155 103.53 8.8849C103.229 8.72603 102.823 8.6466 102.31 8.6466H88.2314V6.5752H100.695C101.459 6.5752 102.091 6.59964 102.591 6.64852C103.092 6.68518 103.517 6.75851 103.868 6.86849C104.231 6.97848 104.562 7.14957 104.863 7.38176C105.175 7.61395 105.426 7.90725 105.613 8.26165C105.801 8.61605 105.895 9.0621 105.895 9.59981C105.895 10.3942 105.632 11.0541 105.107 11.5796C104.581 12.105 103.843 12.3678 102.892 12.3678Z" fill="#FF5858"/>
<path d="M75.5623 15.9607C74.78 15.9607 74.1504 15.8324 73.6737 15.5757C73.2092 15.3069 72.8731 14.9647 72.6653 14.5492C72.4697 14.1337 72.3719 13.6937 72.3719 13.2294C72.3719 12.6305 72.5064 12.1356 72.7753 11.7445C73.0442 11.3535 73.3987 11.0663 73.8387 10.883C74.291 10.6875 74.7677 10.5897 75.2689 10.5897C75.9045 10.5897 76.4363 10.6997 76.8641 10.9196C77.3041 11.1274 77.6647 11.3779 77.9459 11.6712C78.2393 11.9523 78.4715 12.2028 78.6426 12.4228L77.7075 14.2925C77.5731 13.9626 77.408 13.651 77.2125 13.3577C77.0291 13.0644 76.8091 12.8261 76.5524 12.6428C76.2957 12.4472 75.9901 12.3495 75.6356 12.3495C75.3667 12.3495 75.1222 12.4228 74.9022 12.5694C74.6822 12.7161 74.5722 12.9483 74.5722 13.266C74.5722 13.5471 74.6638 13.7671 74.8472 13.9259C75.0305 14.0848 75.275 14.1642 75.5806 14.1642C75.984 14.1642 76.3018 14.0542 76.5341 13.8343C76.7785 13.6143 76.9497 13.321 77.0475 12.9544C77.1452 12.5878 77.1941 12.1906 77.1941 11.7629V11.4146C77.1941 10.9013 77.1269 10.4491 76.9924 10.0581C76.858 9.66702 76.6441 9.36151 76.3507 9.14154C76.0573 8.90934 75.6723 8.79325 75.1956 8.79325C74.9022 8.79325 74.6394 8.85435 74.4071 8.97656C74.1749 9.08654 73.9793 9.24541 73.8204 9.45316C73.6737 9.64869 73.5576 9.87478 73.472 10.1314H71.1067C71.0456 9.93588 70.9356 9.72202 70.7767 9.48983C70.63 9.24541 70.41 9.03766 70.1166 8.86657C69.8233 8.68326 69.4199 8.59161 68.9065 8.59161C68.4787 8.59161 68.1303 8.66493 67.8614 8.81158C67.6047 8.94601 67.4763 9.17209 67.4763 9.48983C67.4763 9.61203 67.4947 9.72813 67.5313 9.83811C67.5802 9.93588 67.6658 10.0214 67.788 10.0947C67.898 10.1559 68.0386 10.2108 68.2097 10.2597C68.3931 10.2964 68.6742 10.3147 69.0532 10.3147H70.135V12.2211H68.9982C68.6192 12.2211 68.3259 12.2395 68.1181 12.2761C67.9103 12.3128 67.7452 12.38 67.623 12.4778C67.5374 12.5511 67.4641 12.6428 67.403 12.7527C67.3541 12.8505 67.3296 12.9666 67.3296 13.101C67.3296 13.3454 67.4091 13.5471 67.568 13.706C67.7391 13.8648 68.0142 13.9443 68.3931 13.9443C68.7965 13.9443 69.1571 13.8404 69.4749 13.6326C69.8049 13.4249 70.1227 13.1499 70.4283 12.8077L72.0052 14.2009C71.6752 14.5797 71.3146 14.9036 70.9234 15.1724C70.5445 15.4291 70.1227 15.6246 69.6582 15.759C69.1937 15.8935 68.662 15.9607 68.0631 15.9607C66.914 15.9607 66.0462 15.7224 65.4594 15.2458C64.8849 14.7569 64.5977 14.1581 64.5977 13.4493C64.5977 13.1071 64.6649 12.7894 64.7993 12.4961C64.9338 12.1906 65.1416 11.9278 65.4227 11.7079C65.7161 11.4757 66.0828 11.2924 66.5229 11.1579L66.5045 11.3962C65.8934 11.1885 65.4472 10.8769 65.1661 10.4614C64.8849 10.0459 64.7443 9.58759 64.7443 9.08654C64.7443 8.32886 65.0744 7.72394 65.7345 7.27177C66.3945 6.80739 67.2685 6.5752 68.3564 6.5752C69.0043 6.5752 69.5543 6.6363 70.0066 6.7585C70.4711 6.86849 70.8989 7.0518 71.2901 7.30843C71.6813 7.55285 72.0785 7.88892 72.4819 8.31664L72.0969 8.33497C72.378 7.96835 72.6714 7.65672 72.977 7.40009C73.2948 7.13124 73.6493 6.92959 74.0404 6.79517C74.4438 6.64852 74.9205 6.5752 75.4706 6.5752C76.3874 6.5752 77.1513 6.78295 77.7625 7.19845C78.3737 7.60173 78.8321 8.16999 79.1377 8.90323C79.4555 9.62425 79.6144 10.4553 79.6144 11.3962C79.6144 12.3617 79.4677 13.1866 79.1744 13.8709C78.881 14.5431 78.4348 15.0625 77.8359 15.4291C77.2369 15.7835 76.479 15.9607 75.5623 15.9607Z" fill="#FF5858"/>
<path d="M50.1131 7.03708C51.1766 7.03708 52.0945 7.19104 52.8668 7.49896C53.6391 7.80688 54.2341 8.26877 54.6519 8.88461C55.0697 9.50046 55.2786 10.2641 55.2786 11.1756C55.2786 11.9269 55.209 12.592 55.0697 13.1709C54.9304 13.7498 54.7532 14.2671 54.538 14.7228C54.3227 15.1662 54.1075 15.5788 53.8923 15.9607L51.3475 15C51.5627 14.7167 51.7653 14.4026 51.9552 14.0577C52.1578 13.7005 52.3224 13.3064 52.449 12.8753C52.5756 12.4442 52.6389 11.9762 52.6389 11.4712C52.6389 10.9908 52.5566 10.5351 52.392 10.104C52.2274 9.67289 51.9552 9.32802 51.5754 9.06937C51.2082 8.79839 50.7018 8.66291 50.0561 8.66291C49.5371 8.66291 49.0876 8.77992 48.7078 9.01394C48.3406 9.24796 48.0558 9.57436 47.8532 9.99313C47.6506 10.3996 47.5493 10.8738 47.5493 11.4157C47.5493 12.1301 47.6696 12.7891 47.9102 13.3926C48.1507 13.9838 48.4609 14.5134 48.8407 14.9815L46.277 15.9607C45.8845 15.3079 45.5553 14.5935 45.2894 13.8175C45.0236 13.0416 44.8906 12.2225 44.8906 11.3603C44.8906 10.5474 45.0869 9.81454 45.4793 9.16174C45.8845 8.50895 46.4732 7.99164 47.2455 7.60981C48.0178 7.22799 48.9737 7.03708 50.1131 7.03708ZM59.6655 12.4134C59.0831 12.4134 58.602 12.3272 58.2222 12.1547C57.8424 11.9823 57.5449 11.7668 57.3296 11.5081C57.1144 11.2371 56.9625 10.9539 56.8738 10.6582C56.7852 10.3626 56.7409 10.0917 56.7409 9.84533C56.7409 9.36497 56.8232 8.95851 56.9878 8.62596C57.165 8.2934 57.3423 7.99164 57.5195 7.72067L59.5516 7.86847C59.273 8.12712 59.0515 8.37962 58.8869 8.62596C58.7223 8.8723 58.64 9.18638 58.64 9.5682C58.64 9.87612 58.735 10.1286 58.9249 10.3257C59.1274 10.5228 59.387 10.6213 59.7035 10.6213C60.0706 10.6213 60.3428 10.5351 60.5201 10.3626C60.6973 10.1779 60.786 9.95002 60.786 9.67905C60.786 9.30955 60.634 9.05089 60.3302 8.90309C60.0263 8.74297 59.6212 8.66291 59.1148 8.66291H44.9856V6.5752H57.4626C58.2349 6.5752 58.8742 6.59983 59.3806 6.6491C59.8871 6.68605 60.3175 6.75995 60.672 6.8708C61.0392 6.98165 61.3747 7.15409 61.6785 7.38811C61.995 7.62213 62.2483 7.91774 62.4382 8.27493C62.6281 8.63212 62.723 9.08168 62.723 9.62363C62.723 10.4242 62.4508 11.0893 61.9064 11.619C61.3747 12.1486 60.6277 12.4134 59.6655 12.4134Z" fill="#FF5858"/>
<path d="M33.625 12.6948C33.625 11.8885 33.8173 11.1654 34.202 10.5255C34.5866 9.88557 35.1315 9.38003 35.8367 9.00888C36.5419 8.63772 37.3818 8.45215 38.3562 8.45215C39.3435 8.45215 40.1833 8.63772 40.8757 9.00888C41.568 9.38003 42.0937 9.88557 42.4527 10.5255C42.8246 11.1654 43.0105 11.8885 43.0105 12.6948C43.0105 13.5011 42.8246 14.2242 42.4527 14.8641C42.0809 15.4913 41.5424 15.9904 40.8372 16.3615C40.1448 16.7199 39.305 16.8991 38.3177 16.8991C37.3433 16.8991 36.5035 16.7135 35.7983 16.3423C35.0931 15.9712 34.5546 15.4721 34.1827 14.8449C33.8109 14.205 33.625 13.4883 33.625 12.6948ZM36.2022 12.6756C36.2022 13.2643 36.3753 13.7635 36.7214 14.173C37.0804 14.5698 37.6125 14.7681 38.3177 14.7681C38.7921 14.7681 39.1832 14.6786 39.4909 14.4994C39.7986 14.3074 40.0294 14.0514 40.1833 13.7315C40.35 13.4115 40.4333 13.0596 40.4333 12.6756C40.4333 12.0869 40.2474 11.5941 39.8756 11.1974C39.5166 10.7879 38.9973 10.5831 38.3177 10.5831C37.869 10.5831 37.4843 10.6791 37.1638 10.871C36.8561 11.0502 36.6189 11.2998 36.4522 11.6197C36.2855 11.9269 36.2022 12.2789 36.2022 12.6756Z" fill="#FF5858"/>
<path d="M25.1792 15.9607C23.7647 15.9607 22.5674 15.7346 21.5872 15.2824C20.607 14.818 19.8625 14.1948 19.3538 13.4127C18.8575 12.6183 18.6094 11.7262 18.6094 10.7363C18.6094 9.88089 18.7769 9.14154 19.1119 8.51828C19.4593 7.89503 19.9432 7.41842 20.5636 7.08846C21.184 6.74628 21.8974 6.5752 22.7039 6.5752C23.4483 6.5752 24.0501 6.70962 24.5092 6.97848C24.9683 7.23511 25.3033 7.57118 25.5142 7.98668C25.7251 8.38996 25.8306 8.81158 25.8306 9.25152C25.8306 9.81367 25.7065 10.2964 25.4584 10.6997C25.2102 11.103 24.8504 11.4085 24.3789 11.6162C23.9074 11.824 23.3305 11.9278 22.6481 11.9278C22.1517 11.9278 21.7113 11.8606 21.3266 11.7262C20.942 11.5918 20.607 11.4268 20.3216 11.2313C20.0487 11.0357 19.8191 10.8585 19.633 10.6997L20.0611 8.97656C20.21 9.15987 20.3837 9.34318 20.5822 9.52649C20.7931 9.7098 21.0289 9.86256 21.2894 9.98476C21.55 10.0947 21.8292 10.1497 22.1269 10.1497C22.5116 10.1497 22.8218 10.0825 23.0575 9.9481C23.2933 9.80145 23.4111 9.56315 23.4111 9.23319C23.4111 9.02544 23.3367 8.83602 23.1878 8.66493C23.0389 8.48162 22.8218 8.38996 22.5364 8.38996C22.1021 8.38996 21.7423 8.57327 21.4569 8.93989C21.1715 9.29429 21.0289 9.72202 21.0289 10.2231V10.938C21.0289 11.2313 21.0909 11.5429 21.215 11.8729C21.3515 12.1906 21.5748 12.4961 21.885 12.7894C22.2076 13.0705 22.6418 13.3027 23.1878 13.486C23.7461 13.6571 24.441 13.7426 25.2723 13.7426C26.4386 13.7426 27.3754 13.5471 28.0826 13.156C28.8022 12.7527 29.1621 12.1234 29.1621 11.2679C29.1621 10.6936 28.9821 10.217 28.6223 9.83811C28.2749 9.44705 27.729 9.04988 26.9845 8.6466L28.4362 6.5752C29.4164 7.0518 30.2105 7.68117 30.8185 8.46329C31.4388 9.23319 31.749 10.1803 31.749 11.3046C31.749 12.1723 31.5133 12.9605 31.0418 13.6693C30.5827 14.3659 29.8693 14.9219 28.9015 15.3374C27.9337 15.7529 26.6929 15.9607 25.1792 15.9607Z" fill="#FF5858"/>
<path d="M14.454 5.71629C14.454 6.1439 14.3683 6.54096 14.197 6.90747C14.0256 7.27399 13.787 7.5611 13.481 7.76879C13.1506 8.00092 12.7222 8.1964 12.196 8.35522C11.6819 8.50183 11.1557 8.57513 10.6172 8.57513H7.62484V6.57761H10.6355C10.9905 6.57761 11.2536 6.55928 11.4249 6.52263C11.6085 6.47376 11.7492 6.40657 11.8472 6.32105C11.9206 6.24774 11.9757 6.16833 12.0124 6.08281C12.0491 5.98507 12.0675 5.88123 12.0675 5.77127C12.0675 5.62466 12.0491 5.50249 12.0124 5.40475C11.9757 5.2948 11.9145 5.20317 11.8288 5.12986C11.7309 5.04434 11.5901 4.98326 11.4066 4.9466C11.2352 4.90995 10.9476 4.89163 10.5437 4.89163H3.47595V2.8208H10.3051C11.174 2.8208 11.8472 2.888 12.3245 3.02239C12.814 3.14456 13.2362 3.35225 13.5912 3.64547C13.8482 3.86538 14.0562 4.14637 14.2153 4.48846C14.3744 4.83054 14.454 5.23982 14.454 5.71629ZM8.01036 15.9605C6.32143 15.9605 4.94459 15.765 3.87983 15.374C2.81507 14.9831 2.0318 14.4333 1.53002 13.7247C1.02824 13.0161 0.777344 12.1975 0.777344 11.269C0.777344 10.5604 0.942565 9.93736 1.27301 9.3998C1.60345 8.86224 2.05628 8.44074 2.63149 8.13531C3.21894 7.82988 3.88595 7.67716 4.6325 7.67716C5.30563 7.67716 5.8686 7.79934 6.32143 8.04368C6.77426 8.27581 7.11694 8.59346 7.34947 8.99663C7.582 9.3998 7.69827 9.85183 7.69827 10.3527C7.69827 11.208 7.4229 11.8555 6.87217 12.2953C6.32143 12.7229 5.56875 12.9367 4.61414 12.9367C4.17355 12.9367 3.75744 12.8695 3.36581 12.7351C2.98641 12.5885 2.64373 12.4114 2.33777 12.2037C2.0318 11.996 1.77479 11.8005 1.56673 11.6172L2.1909 10.1328C2.42344 10.4016 2.70492 10.6582 3.03537 10.9025C3.36581 11.1346 3.75744 11.2507 4.21027 11.2507C4.57743 11.2507 4.87727 11.1774 5.10981 11.0308C5.35458 10.8842 5.47697 10.6521 5.47697 10.3344C5.47697 10.0901 5.39741 9.88849 5.23831 9.72966C5.07921 9.57084 4.84056 9.49143 4.52235 9.49143C4.26534 9.49143 4.02057 9.56473 3.78804 9.71134C3.55551 9.84573 3.36581 10.0534 3.21894 10.3344C3.07208 10.6032 2.99865 10.9392 2.99865 11.3423V11.4523C2.99865 11.8188 3.09044 12.1487 3.27402 12.4419C3.46984 12.7351 3.76968 12.9856 4.17355 13.1933C4.57743 13.3887 5.09757 13.5414 5.73398 13.6514C6.37038 13.7491 7.1353 13.798 8.02871 13.798C8.97109 13.798 9.79107 13.7552 10.4887 13.6697C11.1863 13.5842 11.7615 13.4498 12.2143 13.2666C12.6671 13.0711 13.0037 12.8145 13.224 12.4969C13.4565 12.167 13.5728 11.7638 13.5728 11.2874V11.2324C13.5728 10.7437 13.4259 10.3283 13.1322 9.98623C12.8385 9.64414 12.4224 9.4731 11.8839 9.4731C11.6146 9.4731 11.3637 9.5464 11.1312 9.69301C10.9109 9.8274 10.8008 10.0473 10.8008 10.3527C10.8008 10.6826 10.9048 10.9147 11.1128 11.0491C11.3209 11.1713 11.5779 11.2324 11.8839 11.2324C12.1898 11.2324 12.4468 11.1713 12.6549 11.0491C12.863 10.927 13.0404 10.7559 13.1873 10.536C13.3341 10.3039 13.4504 10.0351 13.5361 9.72966L14.5458 11.0675C14.2888 11.434 14.0256 11.7638 13.7564 12.0571C13.4994 12.338 13.1873 12.558 12.8201 12.7168C12.453 12.8756 11.9757 12.955 11.3882 12.955C10.9231 12.955 10.4764 12.8817 10.0481 12.7351C9.61973 12.5763 9.27093 12.3258 9.00168 11.9837C8.74467 11.6294 8.61617 11.1591 8.61617 10.5727C8.61617 9.86405 8.8793 9.30206 9.40556 8.88667C9.93182 8.45907 10.6661 8.24527 11.6085 8.24527C11.841 8.24527 12.0491 8.25137 12.2327 8.26359C12.4163 8.27581 12.5876 8.29413 12.7467 8.31857C12.9058 8.33079 13.0588 8.35522 13.2056 8.39187L11.0761 8.42852C10.917 8.37965 10.7457 8.343 10.5621 8.31857C10.3908 8.28192 10.2133 8.25748 10.0297 8.24527C9.85838 8.22083 9.6748 8.20861 9.47899 8.20861L10.2684 6.77919C11.0394 6.81585 11.7554 6.94413 12.4163 7.16404C13.0894 7.37173 13.6768 7.67105 14.1786 8.06201C14.6804 8.44074 15.072 8.905 15.3535 9.45477C15.6472 9.99233 15.7941 10.6093 15.7941 11.3057C15.7941 12.0876 15.6472 12.7718 15.3535 13.3582C15.0598 13.9324 14.6008 14.415 13.9767 14.8059C13.3525 15.1847 12.5448 15.4718 11.5534 15.6673C10.5743 15.8627 9.39332 15.9605 8.01036 15.9605Z" fill="#FF5858"/>
</svg>
