<svg width="290" height="25" viewBox="0 0 290 25" fill="none" xmlns="http://www.w3.org/2000/svg">
<path d="M286.497 23.2289C285.932 23.2289 285.471 23.1383 285.114 22.9569C284.746 22.7876 284.383 22.4793 284.026 22.032H284.451C284.033 22.4793 283.645 22.7876 283.289 22.9569C282.92 23.1383 282.465 23.2289 281.924 23.2289C281.384 23.2289 280.935 23.108 280.578 22.8662C280.222 22.6244 279.958 22.304 279.785 21.905C279.613 21.506 279.527 21.0768 279.527 20.6173C279.527 19.8556 279.736 19.1967 280.154 18.6405C280.56 18.0843 281.119 17.6551 281.832 17.3528C282.533 17.0506 283.326 16.8994 284.211 16.8994C285.121 16.8994 285.932 17.0566 286.645 17.371C287.346 17.6974 287.899 18.1387 288.304 18.6949C288.71 19.2632 288.913 19.9161 288.913 20.6536C288.913 21.0889 288.839 21.5 288.692 21.8869C288.532 22.2859 288.274 22.6063 287.917 22.8481C287.561 23.102 287.087 23.2289 286.497 23.2289ZM286.055 21.5967C286.301 21.5967 286.497 21.506 286.645 21.3246C286.792 21.1433 286.866 20.9015 286.866 20.5992C286.866 19.9584 286.614 19.4506 286.11 19.0758C285.606 18.713 284.973 18.5317 284.211 18.5317C283.387 18.5317 282.742 18.713 282.275 19.0758C281.795 19.4385 281.556 19.9342 281.556 20.5629C281.556 20.8773 281.629 21.1251 281.777 21.3065C281.924 21.5 282.127 21.5967 282.385 21.5967C282.631 21.5967 282.834 21.5362 282.994 21.4153C283.141 21.3065 283.264 21.1493 283.363 20.9438H285.059C285.157 21.1735 285.28 21.3367 285.428 21.4335C285.575 21.5423 285.784 21.5967 286.055 21.5967ZM283.307 24.4078L283.381 22.9388H285.004L285.133 24.4078H283.307ZM283.234 19.8737C283.234 19.6078 283.326 19.4083 283.51 19.2753C283.695 19.1543 283.928 19.0939 284.211 19.0939C284.53 19.0939 284.776 19.1604 284.948 19.2934C285.121 19.4264 285.207 19.6198 285.207 19.8737C285.207 20.1518 285.121 20.3513 284.948 20.4722C284.764 20.5931 284.518 20.6536 284.211 20.6536C283.916 20.6536 283.682 20.5871 283.51 20.4541C283.326 20.3332 283.234 20.1397 283.234 19.8737Z" fill="#FF5858"/>
<path d="M285.92 15.9432C285.403 15.9432 284.905 15.8721 284.425 15.7298C283.957 15.5994 283.471 15.3564 282.967 15.0008C282.475 14.6452 281.934 14.1474 281.343 13.5073C281.072 13.2109 280.851 12.9916 280.679 12.8494C280.519 12.6953 280.383 12.5945 280.273 12.5471C280.162 12.4879 280.039 12.4582 279.904 12.4582C279.744 12.4582 279.596 12.5234 279.461 12.6538C279.325 12.7842 279.258 12.962 279.258 13.1872C279.258 13.4836 279.325 13.7977 279.461 14.1296C279.608 14.4615 279.817 14.8171 280.088 15.1964L277.504 15.961C277.283 15.5461 277.092 15.1075 276.932 14.6452C276.785 14.1711 276.711 13.6614 276.711 13.1161C276.711 12.5708 276.846 12.0908 277.117 11.6759C277.388 11.2492 277.757 10.9173 278.224 10.6802C278.704 10.4313 279.245 10.3068 279.848 10.3068C280.414 10.3068 280.912 10.3898 281.343 10.5557C281.774 10.7217 282.173 10.9588 282.543 11.2669C282.924 11.5751 283.312 11.9426 283.705 12.3693C284.062 12.7368 284.363 13.0272 284.609 13.2406C284.856 13.4421 285.089 13.5843 285.311 13.6673C285.545 13.7503 285.797 13.7918 286.067 13.7918C286.412 13.7918 286.701 13.6732 286.935 13.4361C287.169 13.1991 287.285 12.8435 287.285 12.3693C287.285 11.8122 287.156 11.3203 286.898 10.8936C286.64 10.4668 286.301 10.0875 285.883 9.75562C285.465 9.41186 285.022 9.09775 284.554 8.81326L286.012 6.83964C286.738 7.21896 287.39 7.66939 287.968 8.19095C288.546 8.7125 289.002 9.30518 289.334 9.96898C289.678 10.6209 289.851 11.3558 289.851 12.1737C289.851 12.9324 289.697 13.5962 289.389 14.1651C289.094 14.7223 288.651 15.1608 288.061 15.4809C287.482 15.7891 286.769 15.9432 285.92 15.9432ZM280.42 8.6888C279.842 8.6888 279.331 8.5999 278.889 8.42209C278.446 8.23244 278.07 7.93017 277.763 7.5153C277.455 7.08857 277.215 6.51367 277.043 5.7906L279.553 5.16829C279.688 5.77282 279.836 6.20548 279.996 6.46626C280.156 6.71518 280.377 6.83964 280.66 6.83964C280.845 6.83964 281.029 6.77445 281.214 6.64406C281.398 6.51367 281.644 6.26475 281.952 5.89729L282.727 4.95493C283.158 4.43337 283.564 4.02442 283.945 3.72809C284.327 3.41989 284.739 3.19468 285.182 3.05243C285.637 2.91019 286.178 2.83314 286.806 2.82129L286.953 4.88381C286.535 4.90751 286.172 4.97864 285.864 5.09717C285.569 5.20385 285.298 5.35795 285.052 5.55946C284.806 5.76097 284.548 6.02767 284.277 6.35957L283.668 7.08857C283.435 7.37305 283.158 7.63976 282.838 7.88868C282.518 8.12575 282.155 8.32134 281.749 8.47543C281.355 8.61768 280.912 8.6888 280.42 8.6888Z" fill="#FF5858"/>
<path d="M265.449 12.6953C265.449 11.889 265.642 11.1659 266.026 10.526C266.411 9.88605 266.956 9.38052 267.661 9.00937C268.366 8.63821 269.206 8.45264 270.18 8.45264C271.168 8.45264 272.008 8.63821 272.7 9.00937C273.392 9.38052 273.918 9.88605 274.277 10.526C274.649 11.1659 274.835 11.889 274.835 12.6953C274.835 13.5016 274.649 14.2247 274.277 14.8646C273.905 15.4917 273.367 15.9909 272.661 16.362C271.969 16.7204 271.129 16.8996 270.142 16.8996C269.168 16.8996 268.328 16.714 267.622 16.3428C266.917 15.9717 266.379 15.4725 266.007 14.8454C265.635 14.2055 265.449 13.4888 265.449 12.6953ZM268.026 12.6761C268.026 13.2648 268.199 13.764 268.546 14.1735C268.905 14.5703 269.437 14.7686 270.142 14.7686C270.616 14.7686 271.007 14.679 271.315 14.4999C271.623 14.3079 271.854 14.0519 272.008 13.732C272.174 13.412 272.258 13.0601 272.258 12.6761C272.258 12.0874 272.072 11.5946 271.7 11.1979C271.341 10.7883 270.822 10.5836 270.142 10.5836C269.693 10.5836 269.309 10.6796 268.988 10.8715C268.68 11.0507 268.443 11.3003 268.276 11.6202C268.11 11.9274 268.026 12.2794 268.026 12.6761Z" fill="#FF5858"/>
<path d="M258.701 15.9432C258.184 15.9432 257.686 15.8721 257.206 15.7298C256.739 15.5994 256.253 15.3564 255.748 15.0008C255.256 14.6452 254.715 14.1474 254.124 13.5073C253.854 13.2109 253.632 12.9916 253.46 12.8494C253.3 12.6953 253.165 12.5945 253.054 12.5471C252.943 12.4879 252.82 12.4582 252.685 12.4582C252.525 12.4582 252.377 12.5234 252.242 12.6538C252.107 12.7842 252.039 12.962 252.039 13.1872C252.039 13.4836 252.107 13.7977 252.242 14.1296C252.39 14.4615 252.599 14.8171 252.869 15.1964L250.286 15.961C250.064 15.5461 249.874 15.1075 249.714 14.6452C249.566 14.1711 249.492 13.6614 249.492 13.1161C249.492 12.5708 249.628 12.0908 249.898 11.6759C250.169 11.2492 250.538 10.9173 251.005 10.6802C251.485 10.4313 252.027 10.3068 252.629 10.3068C253.195 10.3068 253.694 10.3898 254.124 10.5557C254.555 10.7217 254.955 10.9588 255.324 11.2669C255.705 11.5751 256.093 11.9426 256.486 12.3693C256.843 12.7368 257.145 13.0272 257.391 13.2406C257.637 13.4421 257.871 13.5843 258.092 13.6673C258.326 13.7503 258.578 13.7918 258.849 13.7918C259.193 13.7918 259.482 13.6732 259.716 13.4361C259.95 13.1991 260.067 12.8435 260.067 12.3693C260.067 11.8122 259.937 11.3203 259.679 10.8936C259.421 10.4668 259.082 10.0875 258.664 9.75562C258.246 9.41186 257.803 9.09775 257.335 8.81326L258.793 6.83964C259.519 7.21896 260.171 7.66939 260.749 8.19095C261.328 8.7125 261.783 9.30518 262.115 9.96898C262.46 10.6209 262.632 11.3558 262.632 12.1737C262.632 12.9324 262.478 13.5962 262.17 14.1651C261.875 14.7223 261.432 15.1608 260.842 15.4809C260.264 15.7891 259.55 15.9432 258.701 15.9432ZM253.202 8.6888C252.623 8.6888 252.113 8.5999 251.67 8.42209C251.227 8.23244 250.852 7.93017 250.544 7.5153C250.237 7.08857 249.997 6.51367 249.824 5.7906L252.334 5.16829C252.47 5.77282 252.617 6.20548 252.777 6.46626C252.937 6.71518 253.158 6.83964 253.441 6.83964C253.626 6.83964 253.811 6.77445 253.995 6.64406C254.18 6.51367 254.426 6.26475 254.733 5.89729L255.508 4.95493C255.939 4.43337 256.345 4.02442 256.726 3.72809C257.108 3.41989 257.52 3.19468 257.963 3.05243C258.418 2.91019 258.959 2.83314 259.587 2.82129L259.734 4.88381C259.316 4.90751 258.953 4.97864 258.646 5.09717C258.35 5.20385 258.08 5.35795 257.834 5.55946C257.588 5.76097 257.329 6.02767 257.059 6.35957L256.45 7.08857C256.216 7.37305 255.939 7.63976 255.619 7.88868C255.299 8.12575 254.936 8.32134 254.53 8.47543C254.137 8.61768 253.694 8.6888 253.202 8.6888Z" fill="#FF5858"/>
<path d="M230.571 15.9609C229.778 15.9609 229.14 15.8326 228.657 15.576C228.186 15.3071 227.845 14.9649 227.634 14.5494C227.436 14.1339 227.337 13.694 227.337 13.2296C227.337 12.6308 227.473 12.1358 227.746 11.7448C228.019 11.3537 228.378 11.0665 228.824 10.8832C229.282 10.6877 229.766 10.5899 230.274 10.5899C230.918 10.5899 231.457 10.6999 231.89 10.9199C232.336 11.1276 232.702 11.3782 232.987 11.6715C233.284 11.9525 233.52 12.2031 233.693 12.423L232.745 14.2928C232.609 13.9628 232.442 13.6512 232.244 13.3579C232.058 13.0646 231.835 12.8263 231.575 12.643C231.314 12.4475 231.005 12.3497 230.645 12.3497C230.373 12.3497 230.125 12.423 229.902 12.5697C229.679 12.7163 229.567 12.9485 229.567 13.2663C229.567 13.5473 229.66 13.7673 229.846 13.9262C230.032 14.085 230.28 14.1645 230.59 14.1645C230.998 14.1645 231.321 14.0545 231.556 13.8345C231.804 13.6145 231.977 13.3212 232.076 12.9546C232.175 12.588 232.225 12.1908 232.225 11.7631V11.3048C232.225 10.8038 232.157 10.3516 232.021 9.94834C231.884 9.54506 231.667 9.22732 231.37 8.99513C231.085 8.76294 230.701 8.64684 230.218 8.64684C229.92 8.64684 229.648 8.71406 229.4 8.84848C229.165 8.97069 228.966 9.14178 228.805 9.36175C228.644 9.58172 228.527 9.83836 228.452 10.1317H226.055C225.993 9.93612 225.881 9.72226 225.72 9.49007C225.572 9.24566 225.348 9.0379 225.051 8.86682C224.754 8.68351 224.345 8.59185 223.825 8.59185C223.391 8.59185 223.038 8.66517 222.765 8.81182C222.505 8.94625 222.375 9.17233 222.375 9.49007C222.375 9.61228 222.393 9.72837 222.431 9.83836C222.48 9.93612 222.567 10.0217 222.691 10.095C222.802 10.1561 222.945 10.2111 223.118 10.26C223.304 10.2966 223.589 10.315 223.973 10.315H225.07V12.2214H223.917C223.533 12.2214 223.236 12.2397 223.025 12.2764C222.815 12.313 222.647 12.3803 222.524 12.478C222.437 12.5513 222.362 12.643 222.301 12.753C222.251 12.8508 222.226 12.9669 222.226 13.1013C222.226 13.3457 222.307 13.5473 222.468 13.7062C222.641 13.8651 222.92 13.9445 223.304 13.9445C223.713 13.9445 224.079 13.8406 224.401 13.6329C224.735 13.4251 225.057 13.1502 225.367 12.808L226.965 14.2011C226.631 14.58 226.265 14.9038 225.869 15.1727C225.485 15.4293 225.057 15.6248 224.587 15.7593C224.116 15.8937 223.577 15.9609 222.97 15.9609C221.805 15.9609 220.925 15.7226 220.331 15.246C219.748 14.7572 219.457 14.1584 219.457 13.4496C219.457 13.1074 219.525 12.7897 219.661 12.4964C219.798 12.1908 220.008 11.9281 220.293 11.7081C220.591 11.4759 220.962 11.2926 221.408 11.1582L221.39 11.3965C220.783 11.1765 220.331 10.8893 220.033 10.5349C219.748 10.1683 219.606 9.73448 219.606 9.23343C219.606 8.78127 219.767 8.39632 220.089 8.07858C220.423 7.74862 220.882 7.49199 221.464 7.30868C222.047 7.12537 222.716 7.03371 223.471 7.03371C224.14 7.03371 224.698 7.11315 225.144 7.27202C225.602 7.41867 226.005 7.63864 226.352 7.93193C226.711 8.21301 227.083 8.5613 227.467 8.9768L227.04 8.99513C227.337 8.57963 227.659 8.24356 228.006 7.98693C228.353 7.71807 228.725 7.52254 229.121 7.40033C229.53 7.26591 229.958 7.19869 230.404 7.19869C231.345 7.19869 232.132 7.36367 232.764 7.69363C233.396 8.02359 233.873 8.50631 234.195 9.14178C234.517 9.77725 234.678 10.5533 234.678 11.4698C234.678 12.3741 234.53 13.1685 234.232 13.8528C233.935 14.525 233.483 15.0444 232.875 15.411C232.268 15.7776 231.5 15.9609 230.571 15.9609ZM238.99 12.368C238.42 12.368 237.949 12.2825 237.577 12.1114C237.206 11.9403 236.915 11.7265 236.704 11.4698C236.493 11.201 236.345 10.9199 236.258 10.6266C236.171 10.3333 236.128 10.0644 236.128 9.82003C236.128 9.31898 236.208 8.90959 236.369 8.59185C236.531 8.27411 236.698 7.98082 236.871 7.71196L238.878 7.85861C238.606 8.11524 238.389 8.36577 238.228 8.61018C238.067 8.85459 237.986 9.16622 237.986 9.54506C237.986 9.85058 238.079 10.1011 238.265 10.2966C238.463 10.4922 238.711 10.5899 239.009 10.5899C239.368 10.5899 239.634 10.5044 239.808 10.3333C239.994 10.15 240.086 9.9239 240.086 9.65505C240.086 9.28843 239.932 9.03179 239.622 8.88515C239.325 8.72628 238.922 8.64684 238.414 8.64684H225.776L224.512 8.15191L222.226 8.64684H219.661V6.57544H236.815C237.571 6.57544 238.197 6.59988 238.693 6.64876C239.201 6.68543 239.628 6.75875 239.975 6.86874C240.334 6.97872 240.663 7.14981 240.96 7.382C241.27 7.6142 241.518 7.90749 241.703 8.26189C241.889 8.61629 241.982 9.06235 241.982 9.60005C241.982 10.3944 241.716 11.0543 241.183 11.5798C240.663 12.1053 239.932 12.368 238.99 12.368Z" fill="#FF5858"/>
<path d="M207.405 15.9609C206.804 15.9609 206.271 15.8754 205.807 15.7043C205.343 15.5332 204.873 15.246 204.396 14.8427C203.933 14.4272 203.375 13.8651 202.723 13.1563C202.372 12.7652 202.096 12.4964 201.895 12.3497C201.695 12.1908 201.463 12.1114 201.2 12.1114C200.999 12.1114 200.798 12.1908 200.598 12.3497C200.41 12.4964 200.316 12.7285 200.316 13.0463C200.316 13.4251 200.416 13.6879 200.617 13.8345C200.83 13.9812 201.074 14.0545 201.35 14.0545C201.651 14.0545 201.952 13.9323 202.253 13.6879C202.554 13.4435 202.767 13.0402 202.892 12.478L204.453 14.0912C204.202 14.4333 203.939 14.7511 203.663 15.0444C203.4 15.3254 203.068 15.5515 202.666 15.7226C202.265 15.8815 201.726 15.9609 201.049 15.9609C200.309 15.9609 199.701 15.8265 199.225 15.5576C198.761 15.2766 198.416 14.916 198.191 14.4761C197.978 14.0239 197.871 13.5534 197.871 13.0646C197.871 12.478 198.015 11.9709 198.304 11.5431C198.592 11.1032 198.987 10.761 199.488 10.5166C199.99 10.2722 200.554 10.15 201.181 10.15C201.707 10.15 202.171 10.2172 202.572 10.3516C202.974 10.4861 203.362 10.706 203.738 11.0115C204.127 11.3171 204.553 11.7203 205.017 12.2214C205.418 12.6491 205.75 12.973 206.014 13.1929C206.277 13.4129 206.515 13.5596 206.728 13.6329C206.941 13.7062 207.161 13.7429 207.386 13.7429C207.788 13.7429 208.107 13.6207 208.346 13.3762C208.584 13.1318 208.703 12.7408 208.703 12.2031C208.703 11.5798 208.534 11.0115 208.195 10.4983C207.857 9.98501 207.393 9.54506 206.804 9.17844C206.214 8.81182 205.544 8.54908 204.791 8.39021L209.286 8.31688C209.7 8.58574 210.057 8.90959 210.358 9.28843C210.671 9.65505 210.909 10.0706 211.072 10.5349C211.235 10.9871 211.317 11.482 211.317 12.0197C211.317 12.8141 211.166 13.5107 210.865 14.1095C210.565 14.6961 210.12 15.1544 209.53 15.4843C208.954 15.802 208.245 15.9609 207.405 15.9609ZM215.51 12.368C214.934 12.368 214.457 12.2825 214.081 12.1114C213.705 11.9403 213.41 11.7265 213.197 11.4698C212.984 11.201 212.834 10.9199 212.746 10.6266C212.658 10.3333 212.614 10.0644 212.614 9.82003C212.614 9.31898 212.696 8.90959 212.859 8.59185C213.022 8.27411 213.191 7.98082 213.367 7.71196L215.379 7.85861C215.115 8.11524 214.902 8.36577 214.739 8.61018C214.576 8.85459 214.495 9.16622 214.495 9.54506C214.495 9.85058 214.589 10.1011 214.777 10.2966C214.978 10.4922 215.228 10.5899 215.529 10.5899C215.893 10.5899 216.162 10.5044 216.338 10.3333C216.513 10.15 216.601 9.9239 216.601 9.65505C216.601 9.28843 216.451 9.03179 216.15 8.88515C215.849 8.72628 215.448 8.64684 214.946 8.64684H199.864V6.57544H213.31C214.075 6.57544 214.708 6.59988 215.209 6.64876C215.711 6.68543 216.137 6.75875 216.488 6.86874C216.852 6.97872 217.184 7.14981 217.485 7.382C217.811 7.6142 218.062 7.90749 218.237 8.26189C218.425 8.61629 218.519 9.06235 218.519 9.60005C218.519 10.3944 218.256 11.0543 217.729 11.5798C217.203 12.1053 216.463 12.368 215.51 12.368Z" fill="#FF5858"/>
<path d="M184.734 11.5455C184.734 10.6671 184.937 9.87778 185.343 9.17747C185.749 8.46529 186.345 7.90148 187.131 7.48605C187.931 7.05874 188.907 6.84509 190.061 6.84509C191.228 6.84509 192.205 7.04687 192.991 7.45044C193.777 7.84214 194.367 8.38814 194.76 9.08845C195.166 9.78875 195.369 10.6018 195.369 11.5277C195.369 12.3941 195.173 13.1657 194.779 13.8422C194.386 14.5069 193.796 15.0292 193.01 15.409C192.224 15.777 191.241 15.961 190.061 15.961C188.882 15.961 187.892 15.771 187.093 15.3912C186.307 15.0114 185.717 14.4891 185.324 13.8244C184.931 13.1597 184.734 12.4001 184.734 11.5455ZM187.379 11.314C187.379 12.038 187.601 12.6375 188.045 13.1122C188.501 13.5752 189.173 13.8066 190.061 13.8066C190.657 13.8066 191.152 13.7057 191.545 13.5039C191.938 13.2903 192.236 13.0054 192.439 12.6493C192.642 12.2814 192.744 11.8659 192.744 11.403C192.744 10.9282 192.642 10.5009 192.439 10.1211C192.249 9.74127 191.951 9.4386 191.545 9.21308C191.152 8.97568 190.657 8.85699 190.061 8.85699C189.452 8.85699 188.951 8.96975 188.558 9.19527C188.165 9.42079 187.867 9.72347 187.664 10.1033C187.474 10.4713 187.379 10.8748 187.379 11.314ZM189.262 8.69675C188.666 8.69675 188.14 8.60773 187.683 8.42968C187.227 8.23977 186.84 7.93709 186.523 7.52166C186.206 7.09435 185.958 6.51867 185.781 5.79463L188.368 5.17147C188.508 5.77682 188.66 6.21006 188.825 6.47119C188.99 6.72046 189.218 6.84509 189.51 6.84509C189.7 6.84509 189.89 6.77981 190.08 6.64924C190.271 6.51867 190.524 6.26941 190.841 5.90145L191.64 4.95782C192.084 4.43556 192.503 4.02605 192.896 3.72931C193.289 3.4207 193.714 3.19518 194.171 3.05275C194.64 2.91031 195.198 2.83316 195.845 2.82129L195.997 4.8866C195.566 4.91034 195.192 4.98156 194.874 5.10025C194.57 5.20708 194.291 5.36139 194.037 5.56317C193.784 5.76495 193.517 6.03202 193.238 6.36437L192.611 7.09435C192.37 7.37922 192.084 7.64629 191.754 7.89555C191.425 8.13294 191.051 8.32879 190.632 8.4831C190.226 8.62553 189.77 8.69675 189.262 8.69675Z" fill="#FF5858"/>
<path d="M166.153 23.4692C165.355 23.4692 164.74 23.3814 164.309 23.2057C163.878 23.03 163.498 22.7916 163.168 22.4904H163.282C162.927 22.8794 162.566 23.1367 162.199 23.2622C161.818 23.4002 161.381 23.4692 160.887 23.4692C160.405 23.4692 159.981 23.3563 159.613 23.1304C159.245 22.9171 158.96 22.6033 158.757 22.1892C158.555 21.775 158.453 21.2793 158.453 20.702C158.453 19.949 158.662 19.2839 159.081 18.7066C159.486 18.1418 160.076 17.6963 160.849 17.37C161.622 17.0563 162.535 16.8994 163.587 16.8994C164.461 16.8994 165.222 16.9559 165.868 17.0688C166.502 17.1818 167.174 17.3575 167.884 17.5959L167.142 19.2902C166.648 19.1019 166.217 18.9576 165.849 18.8572C165.469 18.7568 165.108 18.6878 164.765 18.6501C164.411 18.6125 164.024 18.5936 163.606 18.5936C162.896 18.5936 162.313 18.6878 161.856 18.876C161.4 19.0768 161.071 19.3341 160.868 19.6478C160.652 19.9616 160.545 20.313 160.545 20.702C160.545 21.0283 160.621 21.2856 160.773 21.4738C160.912 21.6746 161.121 21.775 161.4 21.775C161.654 21.775 161.869 21.6809 162.047 21.4927C162.211 21.317 162.313 21.0722 162.351 20.7585H164.176C164.201 20.9718 164.252 21.1601 164.328 21.3232C164.404 21.4864 164.525 21.6119 164.689 21.6997C164.854 21.7876 165.082 21.8315 165.374 21.8315C165.513 21.844 165.665 21.8566 165.83 21.8691C165.982 21.8942 166.147 21.9068 166.324 21.9068C166.578 21.9068 166.781 21.8629 166.933 21.775C167.072 21.6997 167.142 21.5742 167.142 21.3985C167.142 21.273 167.098 21.1726 167.009 21.0973C166.908 21.022 166.768 20.9844 166.591 20.9844C166.426 20.9844 166.293 21.0346 166.191 21.135C166.077 21.2354 166.02 21.3923 166.02 21.6056C166.02 21.7687 166.065 21.9131 166.153 22.0386C166.229 22.1766 166.337 22.3021 166.477 22.4151L165.07 22.7727C164.918 22.5594 164.81 22.3147 164.746 22.0386C164.67 21.7625 164.632 21.5429 164.632 21.3797C164.632 20.8275 164.81 20.3757 165.165 20.0243C165.507 19.6729 166.008 19.4972 166.667 19.4972C167.3 19.4972 167.814 19.6729 168.207 20.0243C168.587 20.3883 168.777 20.8338 168.777 21.3609C168.777 21.7123 168.701 22.0448 168.549 22.3586C168.384 22.6849 168.112 22.9484 167.731 23.1492C167.351 23.3626 166.825 23.4692 166.153 23.4692Z" fill="#FF5858"/>
<path d="M172.208 15.9609C171.233 15.9609 170.412 15.7471 169.745 15.3193C169.078 14.8916 168.443 14.3539 167.84 13.7062L169.321 12.1297C169.591 12.423 169.873 12.6919 170.168 12.9363C170.45 13.1807 170.758 13.3762 171.092 13.5229C171.438 13.6695 171.81 13.7429 172.208 13.7429C172.657 13.7429 173.003 13.6207 173.247 13.3762C173.49 13.1318 173.612 12.7652 173.612 12.2764C173.612 11.702 173.478 11.1949 173.208 10.7549C172.939 10.315 172.586 9.9239 172.15 9.58172C171.714 9.22732 171.252 8.90348 170.765 8.61018L172.285 6.57544C173.041 6.9665 173.721 7.43089 174.324 7.96859C174.927 8.5063 175.402 9.11734 175.748 9.8017C176.107 10.4738 176.287 11.2315 176.287 12.0747C176.287 13.2479 175.94 14.1889 175.248 14.8977C174.555 15.6065 173.542 15.9609 172.208 15.9609Z" fill="#FF5858"/>
<path d="M165.197 15.961C164.48 15.961 163.871 15.8957 163.369 15.7651C162.866 15.6464 162.439 15.4743 162.087 15.2488C161.735 15.0114 161.421 14.7384 161.145 14.4298L161.277 14.4476C160.975 14.863 160.655 15.1835 160.315 15.409C159.989 15.6227 159.637 15.7651 159.26 15.8363C158.896 15.9194 158.487 15.961 158.035 15.961C157.042 15.961 156.238 15.6286 155.623 14.9639C155.007 14.2992 154.699 13.3556 154.699 12.133C154.699 10.9935 154.994 10.0321 155.585 9.24868C156.176 8.45342 157.011 7.85401 158.092 7.45044C159.172 7.04687 160.435 6.84509 161.88 6.84509C162.646 6.84509 163.343 6.88663 163.972 6.96972C164.6 7.05281 165.209 7.17744 165.8 7.34361C166.39 7.49792 167.012 7.6997 167.666 7.94896L166.516 9.94306C165.837 9.65819 165.241 9.4386 164.725 9.2843C164.223 9.12999 163.739 9.02316 163.274 8.96381C162.809 8.8926 162.301 8.85699 161.748 8.85699C160.717 8.85699 159.876 8.99942 159.222 9.2843C158.569 9.5573 158.085 9.93119 157.771 10.406C157.47 10.8689 157.319 11.3852 157.319 11.955C157.319 12.6197 157.432 13.0944 157.658 13.3793C157.884 13.6642 158.198 13.8066 158.6 13.8066C159.015 13.8066 159.348 13.6642 159.599 13.3793C159.863 13.0944 160.02 12.6968 160.07 12.1864H162.389C162.426 12.6493 162.571 13.0232 162.822 13.3081C163.086 13.593 163.526 13.7769 164.141 13.86C164.33 13.8956 164.537 13.9253 164.763 13.9491C165.002 13.9609 165.253 13.9669 165.517 13.9669C165.869 13.9669 166.145 13.9016 166.346 13.771C166.547 13.6404 166.648 13.4268 166.648 13.1301C166.648 12.9283 166.572 12.7621 166.422 12.6315C166.283 12.501 166.089 12.4357 165.837 12.4357C165.599 12.4357 165.391 12.501 165.215 12.6315C165.052 12.7621 164.97 12.9757 164.97 13.2725C164.97 13.4861 165.027 13.6879 165.14 13.8778C165.253 14.0559 165.41 14.2161 165.611 14.3586L163.783 14.8571C163.57 14.5722 163.406 14.2458 163.293 13.8778C163.193 13.498 163.142 13.1953 163.142 12.9698C163.142 12.2458 163.381 11.6642 163.859 11.225C164.349 10.7739 165.033 10.5484 165.913 10.5484C166.491 10.5484 166.993 10.6612 167.421 10.8867C167.848 11.1122 168.181 11.4208 168.419 11.8125C168.658 12.1924 168.777 12.6197 168.777 13.0944C168.777 13.4505 168.715 13.8007 168.589 14.1449C168.476 14.4891 168.281 14.7977 168.005 15.0707C167.741 15.3437 167.377 15.5633 166.912 15.7295C166.447 15.8838 165.875 15.961 165.197 15.961ZM161.201 8.69675C160.611 8.69675 160.089 8.60773 159.637 8.42968C159.185 8.23977 158.801 7.93709 158.487 7.52166C158.173 7.09435 157.928 6.51867 157.752 5.79463L160.315 5.17147C160.454 5.77682 160.604 6.21006 160.768 6.47119C160.931 6.72046 161.157 6.84509 161.446 6.84509C161.635 6.84509 161.823 6.77981 162.012 6.64924C162.2 6.51867 162.451 6.26941 162.765 5.90145L163.557 4.95782C163.997 4.43556 164.411 4.02605 164.801 3.72931C165.19 3.4207 165.611 3.19518 166.064 3.05275C166.528 2.91031 167.081 2.83316 167.722 2.82129L167.873 4.8866C167.446 4.91034 167.075 4.98156 166.761 5.10025C166.459 5.20708 166.183 5.36139 165.932 5.56317C165.68 5.76495 165.417 6.03202 165.14 6.36437L164.518 7.09435C164.279 7.37922 163.997 7.64629 163.67 7.89555C163.343 8.13294 162.973 8.32879 162.558 8.4831C162.156 8.62553 161.704 8.69675 161.201 8.69675Z" fill="#FF5858"/>
<path d="M138.742 11.4593C138.742 10.5638 138.946 9.75911 139.353 9.04514C139.76 8.31907 140.358 7.74427 141.147 7.32073C141.949 6.88509 142.929 6.66727 144.087 6.66727C145.258 6.66727 146.238 6.87299 147.027 7.28443C147.816 7.68377 148.408 8.24042 148.802 8.95438C149.209 9.66835 149.413 10.4973 149.413 11.4412C149.413 12.3245 149.216 13.1111 148.821 13.8009C148.427 14.4785 147.835 15.011 147.046 15.3982C146.257 15.7734 145.271 15.9609 144.087 15.9609C142.904 15.9609 141.911 15.7673 141.109 15.3801C140.32 14.9928 139.728 14.4604 139.334 13.7827C138.939 13.1051 138.742 12.3306 138.742 11.4593ZM141.396 11.2233C141.396 11.9615 141.618 12.5726 142.064 13.0567C142.522 13.5286 143.196 13.7646 144.087 13.7646C144.685 13.7646 145.182 13.6617 145.576 13.456C145.971 13.2382 146.27 12.9477 146.473 12.5847C146.677 12.2096 146.779 11.786 146.779 11.3141C146.779 10.8301 146.677 10.3944 146.473 10.0072C146.282 9.61994 145.983 9.31137 145.576 9.08144C145.182 8.83942 144.685 8.71841 144.087 8.71841C143.476 8.71841 142.974 8.83337 142.579 9.06329C142.185 9.29321 141.886 9.60179 141.682 9.98903C141.491 10.3642 141.396 10.7756 141.396 11.2233ZM151.933 8.48244C151.347 8.48244 150.864 8.39773 150.482 8.22832C150.1 8.0589 149.795 7.84713 149.566 7.59301C149.349 7.32678 149.197 7.04846 149.108 6.75803C149.018 6.46761 148.974 6.20743 148.974 5.97751C148.974 5.48137 149.057 5.07598 149.222 4.76135C149.4 4.43462 149.578 4.14419 149.757 3.89007L151.799 4.01713C151.519 4.27126 151.296 4.51933 151.131 4.76135C150.966 5.00337 150.883 5.31195 150.883 5.68708C150.883 5.98961 150.978 6.23768 151.169 6.4313C151.373 6.62492 151.634 6.72173 151.952 6.72173C152.334 6.72173 152.607 6.63097 152.773 6.44945C152.951 6.26794 153.04 6.05012 153.04 5.79599C153.04 5.44506 152.887 5.19094 152.582 5.03362C152.276 4.87631 151.863 4.79765 151.341 4.79765H148.611C148.179 4.79765 147.841 4.90051 147.6 5.10623C147.358 5.31195 147.205 5.63868 147.141 6.08642H144.813C144.723 5.68708 144.558 5.37246 144.316 5.14253C144.087 4.91261 143.718 4.79765 143.209 4.79765H142.999C142.719 4.79765 142.477 4.88236 142.274 5.05178C142.07 5.22119 141.968 5.46321 141.968 5.77784C141.968 5.97146 142.013 6.13482 142.102 6.26794C142.204 6.40105 142.344 6.50391 142.522 6.57652C142.7 6.63702 142.904 6.66727 143.133 6.66727H143.782V8.6458H143.285C142.547 8.6458 141.898 8.52479 141.338 8.28277C140.791 8.02865 140.365 7.67167 140.059 7.21182C139.754 6.75198 139.601 6.21348 139.601 5.59633C139.601 4.76135 139.888 4.08369 140.46 3.56334C141.046 3.03089 141.841 2.76467 142.846 2.76467H143.075C143.635 2.76467 144.119 2.84332 144.526 3.00064C144.933 3.14585 145.264 3.34552 145.519 3.59964C145.773 3.85377 145.952 4.12604 146.053 4.41647H145.882C146.034 4.11394 146.231 3.84167 146.473 3.59964C146.715 3.34552 147.046 3.14585 147.466 3.00064C147.886 2.84332 148.433 2.76467 149.108 2.76467H150.253C151.08 2.76467 151.786 2.81307 152.372 2.90988C152.957 2.99459 153.473 3.20031 153.918 3.52704C154.249 3.75696 154.51 4.04738 154.701 4.39832C154.892 4.74925 154.987 5.19699 154.987 5.74154C154.987 6.54021 154.72 7.19972 154.185 7.72007C153.651 8.22832 152.9 8.48244 151.933 8.48244ZM152.544 0.00561523C153.358 0.00561523 154.013 0.16898 154.51 0.49571C155.006 0.810339 155.382 1.25808 155.636 1.83893L153.689 2.29272C153.613 2.15961 153.524 2.04465 153.422 1.94784C153.32 1.85103 153.199 1.77843 153.059 1.73002C152.919 1.68162 152.754 1.65742 152.563 1.65742C152.245 1.65742 151.996 1.73002 151.818 1.87524C151.653 2.00835 151.57 2.18381 151.57 2.40163C151.57 2.63156 151.64 2.84332 151.78 3.03694C151.92 3.21846 152.111 3.38182 152.353 3.52704L150.406 4.2168C150.164 4.01108 149.941 3.73881 149.738 3.39998C149.547 3.04904 149.451 2.64971 149.451 2.20197C149.451 1.81473 149.559 1.45775 149.776 1.13102C149.992 0.792186 150.329 0.519912 150.787 0.314194C151.246 0.108475 151.831 0.00561523 152.544 0.00561523Z" fill="#FF5858"/>
<path d="M126.06 6.57544C126.869 6.57544 127.543 6.74336 128.082 7.0792C128.621 7.41503 129.055 7.85882 129.383 8.41055C129.711 8.96229 129.946 9.57399 130.086 10.2457C130.227 10.9054 130.297 11.571 130.297 12.2427C130.297 13.4541 130.151 14.5936 129.858 15.6611C129.576 16.7285 129.166 17.7241 128.627 18.6476C128.099 19.5832 127.466 20.4468 126.728 21.2384C125.989 22.042 125.175 22.7856 124.284 23.4693L122.789 21.7781C123.492 21.2144 124.155 20.6087 124.776 19.961C125.409 19.3133 125.96 18.6056 126.429 17.838C126.91 17.0824 127.285 16.2488 127.554 15.3372C127.824 14.4257 127.959 13.4121 127.959 12.2967C127.959 11.8889 127.924 11.4571 127.853 11.0013C127.795 10.5455 127.689 10.1197 127.537 9.72392C127.396 9.32811 127.197 9.00427 126.939 8.75239C126.693 8.50051 126.376 8.37457 125.989 8.37457C125.743 8.37457 125.532 8.44654 125.356 8.59047C125.18 8.7344 125.093 8.92631 125.093 9.16619C125.093 9.40607 125.157 9.59798 125.286 9.74191C125.415 9.87385 125.573 9.96381 125.761 10.0118C125.96 10.0598 126.148 10.0837 126.323 10.0837C126.804 10.0837 127.214 9.95181 127.554 9.68794C127.894 9.41207 128.211 9.11821 128.504 8.80636L129.137 10.6595C128.727 10.9593 128.275 11.2352 127.783 11.4871C127.302 11.7389 126.704 11.8649 125.989 11.8649C125.098 11.8649 124.372 11.649 123.809 11.2172C123.258 10.7854 122.982 10.1137 122.982 9.20217C122.982 8.69842 123.1 8.24863 123.334 7.85282C123.569 7.45701 123.914 7.14516 124.372 6.91727C124.829 6.68938 125.392 6.57544 126.06 6.57544Z" fill="#FF5858"/>
<path d="M116.201 23.4692C115.661 23.4692 115.219 23.3688 114.876 23.1681C114.52 22.9673 114.183 22.6535 113.864 22.2268H114.287C113.993 22.5406 113.717 22.7853 113.459 22.961C113.189 23.1492 112.907 23.281 112.612 23.3563C112.318 23.4316 111.962 23.4692 111.545 23.4692C110.833 23.4692 110.269 23.3124 109.852 22.9986C109.435 22.6849 109.14 22.2833 108.969 21.7938C108.797 21.317 108.711 20.8275 108.711 20.3255C108.711 19.5976 108.858 18.9764 109.153 18.4619C109.435 17.9599 109.821 17.5708 110.312 17.2947C110.803 17.0312 111.355 16.8994 111.968 16.8994C112.729 16.8994 113.306 17.0814 113.698 17.4453C114.078 17.8218 114.269 18.2799 114.269 18.8195C114.269 19.447 114.072 19.9239 113.68 20.2502C113.275 20.5765 112.674 20.7397 111.876 20.7397C111.447 20.7397 111.06 20.6518 110.717 20.4761C110.361 20.313 110.054 20.1122 109.797 19.8737L110.294 18.5936C110.441 18.7944 110.637 18.9827 110.882 19.1584C111.116 19.3341 111.385 19.4219 111.692 19.4219C111.962 19.4219 112.177 19.3717 112.336 19.2713C112.484 19.1835 112.557 19.0392 112.557 18.8384C112.557 18.7003 112.514 18.5685 112.428 18.443C112.33 18.3301 112.177 18.2736 111.968 18.2736C111.637 18.2736 111.336 18.4117 111.067 18.6878C110.797 18.9639 110.662 19.4533 110.662 20.1561V20.3632C110.662 20.6769 110.705 20.9405 110.79 21.1538C110.864 21.3672 110.993 21.524 111.177 21.6244C111.349 21.7248 111.57 21.775 111.839 21.775C112.318 21.775 112.649 21.6621 112.833 21.4362C113.005 21.2228 113.109 20.9969 113.146 20.7585H114.931C114.992 21.2103 115.134 21.4927 115.354 21.6056C115.563 21.7185 115.802 21.775 116.072 21.775C116.391 21.775 116.624 21.6809 116.771 21.4927C116.906 21.3044 116.974 21.0848 116.974 20.8338C116.974 20.3192 116.784 19.8863 116.403 19.5349C116.023 19.1835 115.594 18.8697 115.115 18.5936L116.293 16.8994C116.808 17.163 117.274 17.483 117.692 17.8595C118.109 18.236 118.44 18.6627 118.685 19.1396C118.918 19.6165 119.035 20.1498 119.035 20.7397C119.035 21.5554 118.796 22.2143 118.317 22.7163C117.826 23.2183 117.121 23.4692 116.201 23.4692Z" fill="#FF5858"/>
<path d="M116.433 16.434C115.827 16.434 115.29 16.3479 114.823 16.1758C114.356 16.0036 113.883 15.7147 113.403 15.3089C112.936 14.8908 112.374 14.3251 111.718 13.6119C111.364 13.2184 111.086 12.9478 110.884 12.8003C110.682 12.6404 110.449 12.5605 110.184 12.5605C109.982 12.5605 109.78 12.6404 109.578 12.8003C109.388 12.9478 109.294 13.1815 109.294 13.5012C109.294 13.8824 109.395 14.1468 109.597 14.2944C109.811 14.4419 110.058 14.5157 110.335 14.5157C110.638 14.5157 110.941 14.3927 111.244 14.1468C111.547 13.9009 111.762 13.4951 111.888 12.9294L113.46 14.5526C113.207 14.8969 112.942 15.2166 112.665 15.5118C112.399 15.7946 112.065 16.0221 111.661 16.1942C111.257 16.3541 110.714 16.434 110.032 16.434C109.287 16.434 108.675 16.2988 108.195 16.0282C107.728 15.7454 107.381 15.3826 107.154 14.9399C106.939 14.4973 106.832 14.03 106.832 13.5381C106.832 12.9355 106.977 12.4191 107.268 11.9887C107.558 11.546 107.956 11.2017 108.461 10.9557C108.966 10.7098 109.534 10.5868 110.165 10.5868C110.695 10.5868 111.162 10.6545 111.566 10.7897C111.97 10.925 112.362 11.1463 112.74 11.4538C113.132 11.7612 113.561 12.167 114.028 12.6712C114.432 13.1015 114.76 13.4274 115.013 13.6488C115.278 13.8701 115.518 14.0177 115.732 14.0915C115.959 14.1652 116.218 14.2021 116.509 14.2021C116.862 14.2021 117.153 14.0792 117.38 13.8332C117.62 13.5873 117.74 13.2184 117.74 12.7265C117.74 12.1485 117.607 11.6382 117.342 11.1955C117.077 10.7528 116.73 10.3593 116.3 10.015C115.884 9.6584 115.436 9.33253 114.956 9.0374L116.433 6.98996C117.178 7.38346 117.847 7.85074 118.44 8.39181C119.034 8.93288 119.501 9.54773 119.842 10.2364C120.195 10.9127 120.372 11.6751 120.372 12.5236C120.372 13.3106 120.22 13.9992 119.917 14.5895C119.614 15.1674 119.166 15.6224 118.573 15.9544C117.992 16.2742 117.279 16.434 116.433 16.434ZM119.273 18.7766C118.566 18.7766 117.998 18.6659 117.569 18.4446C117.153 18.2232 116.85 17.9343 116.66 17.5776C116.483 17.221 116.395 16.8398 116.395 16.434C116.395 16.2742 116.408 16.1082 116.433 15.936C116.471 15.7638 116.521 15.5978 116.584 15.438H119.027C118.964 15.5363 118.914 15.6347 118.876 15.7331C118.838 15.8192 118.819 15.9053 118.819 15.9913C118.819 16.1266 118.85 16.2496 118.914 16.3602C118.977 16.4709 119.065 16.557 119.179 16.6185C119.292 16.68 119.425 16.7107 119.576 16.7107C119.778 16.7107 119.955 16.6738 120.107 16.6C120.271 16.5385 120.466 16.4279 120.694 16.268L121.849 17.8912C121.445 18.1863 121.035 18.4077 120.618 18.5552C120.214 18.7028 119.766 18.7766 119.273 18.7766ZM110.638 8.90828C110.045 8.90828 109.521 8.81606 109.067 8.6316C108.612 8.43485 108.227 8.12128 107.911 7.69089C107.596 7.24819 107.35 6.65179 107.173 5.90168L109.748 5.25609C109.887 5.88323 110.039 6.33207 110.203 6.6026C110.367 6.86084 110.594 6.98996 110.884 6.98996C111.074 6.98996 111.263 6.92233 111.453 6.78706C111.642 6.65179 111.894 6.39356 112.21 6.01235L113.005 5.03474C113.447 4.49368 113.864 4.06943 114.255 3.76201C114.647 3.44228 115.069 3.20864 115.524 3.06108C115.991 2.91352 116.547 2.83359 117.19 2.82129L117.342 4.96096C116.913 4.98555 116.54 5.05933 116.225 5.1823C115.922 5.29298 115.644 5.45284 115.391 5.66189C115.139 5.87093 114.874 6.14762 114.596 6.49193L113.971 7.24819C113.731 7.54332 113.447 7.82 113.119 8.07824C112.791 8.32418 112.418 8.52708 112.002 8.68694C111.598 8.8345 111.143 8.90828 110.638 8.90828Z" fill="#FF5858"/>
<path d="M88.0625 11.4148C88.0625 10.5105 88.2627 9.73448 88.6632 9.08679C89.0636 8.43909 89.6518 7.93804 90.4276 7.58364C91.216 7.22924 92.1733 7.05204 93.2996 7.05204C94.4634 7.05204 95.4332 7.21702 96.2091 7.54698C96.985 7.87694 97.5669 8.36577 97.9548 9.01346C98.3552 9.64894 98.5555 10.4433 98.5555 11.3965C98.5555 12.2886 98.3615 13.0829 97.9736 13.7795C97.5856 14.4639 96.9975 15.0016 96.2091 15.3927C95.4332 15.7715 94.4634 15.9609 93.2996 15.9609C92.1483 15.9609 91.1785 15.7654 90.3901 15.3743C89.6142 14.9833 89.0323 14.4456 88.6444 13.7612C88.2565 13.0768 88.0625 12.2947 88.0625 11.4148ZM90.6717 11.1765C90.6717 11.922 90.8907 12.5391 91.3287 13.028C91.7792 13.5046 92.4361 13.7429 93.2996 13.7429C93.8878 13.7429 94.3758 13.639 94.7637 13.4312C95.1642 13.2113 95.4583 12.918 95.646 12.5513C95.8462 12.1725 95.9463 11.7448 95.9463 11.2682C95.9463 10.7793 95.8462 10.3394 95.646 9.94834C95.4583 9.55728 95.1704 9.24566 94.7825 9.01346C94.3946 8.76905 93.9003 8.64684 93.2996 8.64684C92.7114 8.64684 92.2171 8.76294 91.8167 8.99513C91.4288 9.22732 91.1409 9.53895 90.9532 9.93001C90.7655 10.3089 90.6717 10.7244 90.6717 11.1765ZM102.892 12.368C102.316 12.368 101.84 12.2825 101.465 12.1114C101.09 11.9403 100.789 11.7265 100.564 11.4698C100.351 11.201 100.201 10.9199 100.113 10.6266C100.026 10.3333 99.9821 10.0644 99.9821 9.82003C99.9821 9.34342 100.063 8.94014 100.226 8.61018C100.401 8.28022 100.576 7.98082 100.752 7.71196L102.76 7.85861C102.485 8.11524 102.266 8.36577 102.103 8.61018C101.94 8.85459 101.859 9.16622 101.859 9.54506C101.859 9.85058 101.953 10.1011 102.141 10.2966C102.341 10.4922 102.597 10.5899 102.91 10.5899C103.273 10.5899 103.542 10.5044 103.717 10.3333C103.893 10.15 103.98 9.9239 103.98 9.65505C103.98 9.28843 103.83 9.03179 103.53 8.88515C103.229 8.72628 102.823 8.64684 102.31 8.64684H88.2314V6.57544H100.695C101.459 6.57544 102.091 6.59988 102.591 6.64876C103.092 6.68543 103.517 6.75875 103.868 6.86874C104.231 6.97872 104.562 7.14981 104.863 7.382C105.175 7.6142 105.426 7.90749 105.613 8.26189C105.801 8.61629 105.895 9.06235 105.895 9.60005C105.895 10.3944 105.632 11.0543 105.107 11.5798C104.581 12.1053 103.843 12.368 102.892 12.368Z" fill="#FF5858"/>
<path d="M75.5623 15.9609C74.78 15.9609 74.1504 15.8326 73.6737 15.576C73.2092 15.3071 72.8731 14.9649 72.6653 14.5494C72.4697 14.1339 72.3719 13.694 72.3719 13.2296C72.3719 12.6308 72.5064 12.1358 72.7753 11.7448C73.0442 11.3537 73.3987 11.0665 73.8387 10.8832C74.291 10.6877 74.7677 10.5899 75.2689 10.5899C75.9045 10.5899 76.4363 10.6999 76.8641 10.9199C77.3041 11.1276 77.6647 11.3782 77.9459 11.6715C78.2393 11.9525 78.4715 12.2031 78.6426 12.423L77.7075 14.2928C77.5731 13.9628 77.408 13.6512 77.2125 13.3579C77.0291 13.0646 76.8091 12.8263 76.5524 12.643C76.2957 12.4475 75.9901 12.3497 75.6356 12.3497C75.3667 12.3497 75.1222 12.423 74.9022 12.5697C74.6822 12.7163 74.5722 12.9485 74.5722 13.2663C74.5722 13.5473 74.6638 13.7673 74.8472 13.9262C75.0305 14.085 75.275 14.1645 75.5806 14.1645C75.984 14.1645 76.3018 14.0545 76.5341 13.8345C76.7785 13.6145 76.9497 13.3212 77.0475 12.9546C77.1452 12.588 77.1941 12.1908 77.1941 11.7631V11.4148C77.1941 10.9016 77.1269 10.4494 76.9924 10.0583C76.858 9.66727 76.6441 9.36175 76.3507 9.14178C76.0573 8.90959 75.6723 8.79349 75.1956 8.79349C74.9022 8.79349 74.6394 8.85459 74.4071 8.9768C74.1749 9.08679 73.9793 9.24566 73.8204 9.45341C73.6737 9.64894 73.5576 9.87502 73.472 10.1317H71.1067C71.0456 9.93612 70.9356 9.72226 70.7767 9.49007C70.63 9.24566 70.41 9.0379 70.1166 8.86682C69.8233 8.68351 69.4199 8.59185 68.9065 8.59185C68.4787 8.59185 68.1303 8.66517 67.8614 8.81182C67.6047 8.94625 67.4763 9.17233 67.4763 9.49007C67.4763 9.61228 67.4947 9.72837 67.5313 9.83836C67.5802 9.93612 67.6658 10.0217 67.788 10.095C67.898 10.1561 68.0386 10.2111 68.2097 10.26C68.3931 10.2966 68.6742 10.315 69.0532 10.315H70.135V12.2214H68.9982C68.6192 12.2214 68.3259 12.2397 68.1181 12.2764C67.9103 12.313 67.7452 12.3803 67.623 12.478C67.5374 12.5513 67.4641 12.643 67.403 12.753C67.3541 12.8508 67.3296 12.9669 67.3296 13.1013C67.3296 13.3457 67.4091 13.5473 67.568 13.7062C67.7391 13.8651 68.0142 13.9445 68.3931 13.9445C68.7965 13.9445 69.1571 13.8406 69.4749 13.6329C69.8049 13.4251 70.1227 13.1502 70.4283 12.808L72.0052 14.2011C71.6752 14.58 71.3146 14.9038 70.9234 15.1727C70.5445 15.4293 70.1227 15.6248 69.6582 15.7593C69.1937 15.8937 68.662 15.9609 68.0631 15.9609C66.914 15.9609 66.0462 15.7226 65.4594 15.246C64.8849 14.7572 64.5977 14.1584 64.5977 13.4496C64.5977 13.1074 64.6649 12.7897 64.7993 12.4964C64.9338 12.1908 65.1416 11.9281 65.4227 11.7081C65.7161 11.4759 66.0828 11.2926 66.5229 11.1582L66.5045 11.3965C65.8934 11.1887 65.4472 10.8771 65.1661 10.4616C64.8849 10.0461 64.7443 9.58783 64.7443 9.08679C64.7443 8.32911 65.0744 7.72418 65.7345 7.27202C66.3945 6.80763 67.2685 6.57544 68.3564 6.57544C69.0043 6.57544 69.5543 6.63654 70.0066 6.75875C70.4711 6.86873 70.8989 7.05204 71.2901 7.30868C71.6813 7.55309 72.0785 7.88916 72.4819 8.31688L72.0969 8.33522C72.378 7.9686 72.6714 7.65697 72.977 7.40033C73.2948 7.13148 73.6493 6.92984 74.0404 6.79541C74.4438 6.64876 74.9205 6.57544 75.4706 6.57544C76.3874 6.57544 77.1513 6.78319 77.7625 7.19869C78.3737 7.60198 78.8321 8.17024 79.1377 8.90348C79.4555 9.6245 79.6144 10.4555 79.6144 11.3965C79.6144 12.3619 79.4677 13.1868 79.1744 13.8712C78.881 14.5433 78.4348 15.0627 77.8359 15.4293C77.2369 15.7837 76.479 15.9609 75.5623 15.9609Z" fill="#FF5858"/>
<path d="M50.1131 7.03732C51.1766 7.03732 52.0945 7.19128 52.8668 7.49921C53.6391 7.80713 54.2341 8.26901 54.6519 8.88486C55.0697 9.5007 55.2786 10.2643 55.2786 11.1758C55.2786 11.9271 55.209 12.5922 55.0697 13.1711C54.9304 13.75 54.7532 14.2673 54.538 14.7231C54.3227 15.1665 54.1075 15.5791 53.8923 15.9609L51.3475 15.0002C51.5627 14.7169 51.7653 14.4028 51.9552 14.058C52.1578 13.7008 52.3224 13.3066 52.449 12.8755C52.5756 12.4444 52.6389 11.9764 52.6389 11.4714C52.6389 10.991 52.5566 10.5353 52.392 10.1042C52.2274 9.67314 51.9552 9.32826 51.5754 9.06961C51.2082 8.79864 50.7018 8.66315 50.0561 8.66315C49.5371 8.66315 49.0876 8.78016 48.7078 9.01418C48.3406 9.24821 48.0558 9.5746 47.8532 9.99338C47.6506 10.3998 47.5493 10.874 47.5493 11.416C47.5493 12.1304 47.6696 12.7893 47.9102 13.3928C48.1507 13.9841 48.4609 14.5137 48.8407 14.9817L46.277 15.9609C45.8845 15.3081 45.5553 14.5937 45.2894 13.8178C45.0236 13.0418 44.8906 12.2227 44.8906 11.3606C44.8906 10.5476 45.0869 9.81478 45.4793 9.16199C45.8845 8.50919 46.4732 7.99188 47.2455 7.61006C48.0178 7.22823 48.9737 7.03732 50.1131 7.03732ZM59.6655 12.4136C59.0831 12.4136 58.602 12.3274 58.2222 12.155C57.8424 11.9826 57.5449 11.767 57.3296 11.5084C57.1144 11.2374 56.9625 10.9541 56.8738 10.6585C56.7852 10.3629 56.7409 10.0919 56.7409 9.84558C56.7409 9.36522 56.8232 8.95876 56.9878 8.6262C57.165 8.29365 57.3423 7.99188 57.5195 7.72091L59.5516 7.86871C59.273 8.12737 59.0515 8.37986 58.8869 8.6262C58.7223 8.87254 58.64 9.18662 58.64 9.56844C58.64 9.87637 58.735 10.1289 58.9249 10.3259C59.1274 10.523 59.387 10.6215 59.7035 10.6215C60.0706 10.6215 60.3428 10.5353 60.5201 10.3629C60.6973 10.1781 60.786 9.95027 60.786 9.6793C60.786 9.30979 60.634 9.05114 60.3302 8.90333C60.0263 8.74321 59.6212 8.66315 59.1148 8.66315H44.9856V6.57544H57.4626C58.2349 6.57544 58.8742 6.60007 59.3806 6.64934C59.8871 6.68629 60.3175 6.76019 60.672 6.87104C61.0392 6.9819 61.3747 7.15433 61.6785 7.38835C61.995 7.62237 62.2483 7.91798 62.4382 8.27517C62.6281 8.63236 62.723 9.08193 62.723 9.62387C62.723 10.4245 62.4508 11.0896 61.9064 11.6192C61.3747 12.1488 60.6277 12.4136 59.6655 12.4136Z" fill="#FF5858"/>
<path d="M33.625 12.6953C33.625 11.889 33.8173 11.1659 34.202 10.526C34.5866 9.88605 35.1315 9.38052 35.8367 9.00937C36.5419 8.63821 37.3818 8.45264 38.3562 8.45264C39.3435 8.45264 40.1833 8.63821 40.8757 9.00937C41.568 9.38052 42.0937 9.88605 42.4527 10.526C42.8246 11.1659 43.0105 11.889 43.0105 12.6953C43.0105 13.5016 42.8246 14.2247 42.4527 14.8646C42.0809 15.4917 41.5424 15.9909 40.8372 16.362C40.1448 16.7204 39.305 16.8996 38.3177 16.8996C37.3433 16.8996 36.5035 16.714 35.7983 16.3428C35.0931 15.9717 34.5546 15.4725 34.1827 14.8454C33.8109 14.2055 33.625 13.4888 33.625 12.6953ZM36.2022 12.6761C36.2022 13.2648 36.3753 13.764 36.7214 14.1735C37.0804 14.5703 37.6125 14.7686 38.3177 14.7686C38.7921 14.7686 39.1832 14.679 39.4909 14.4999C39.7986 14.3079 40.0294 14.0519 40.1833 13.732C40.35 13.412 40.4333 13.0601 40.4333 12.6761C40.4333 12.0874 40.2474 11.5946 39.8756 11.1979C39.5166 10.7883 38.9973 10.5836 38.3177 10.5836C37.869 10.5836 37.4843 10.6796 37.1638 10.8715C36.8561 11.0507 36.6189 11.3003 36.4522 11.6202C36.2855 11.9274 36.2022 12.2794 36.2022 12.6761Z" fill="#FF5858"/>
<path d="M25.1792 15.9609C23.7647 15.9609 22.5674 15.7348 21.5872 15.2827C20.607 14.8183 19.8625 14.195 19.3538 13.4129C18.8575 12.6186 18.6094 11.7265 18.6094 10.7366C18.6094 9.88113 18.7769 9.14178 19.1119 8.51853C19.4593 7.89527 19.9432 7.41866 20.5636 7.08871C21.184 6.74653 21.8974 6.57544 22.7039 6.57544C23.4483 6.57544 24.0501 6.70987 24.5092 6.97872C24.9683 7.23536 25.3033 7.57142 25.5142 7.98693C25.7251 8.39021 25.8306 8.81182 25.8306 9.25177C25.8306 9.81392 25.7065 10.2966 25.4584 10.6999C25.2102 11.1032 24.8504 11.4087 24.3789 11.6165C23.9074 11.8242 23.3305 11.9281 22.6481 11.9281C22.1517 11.9281 21.7113 11.8609 21.3266 11.7265C20.942 11.592 20.607 11.427 20.3216 11.2315C20.0487 11.036 19.8191 10.8588 19.633 10.6999L20.0611 8.9768C20.21 9.16011 20.3837 9.34342 20.5822 9.52673C20.7931 9.71004 21.0289 9.8628 21.2894 9.98501C21.55 10.095 21.8292 10.15 22.1269 10.15C22.5116 10.15 22.8218 10.0828 23.0575 9.94834C23.2933 9.8017 23.4111 9.56339 23.4111 9.23343C23.4111 9.02568 23.3367 8.83626 23.1878 8.66517C23.0389 8.48186 22.8218 8.39021 22.5364 8.39021C22.1021 8.39021 21.7423 8.57352 21.4569 8.94014C21.1715 9.29454 21.0289 9.72226 21.0289 10.2233V10.9382C21.0289 11.2315 21.0909 11.5431 21.215 11.8731C21.3515 12.1908 21.5748 12.4964 21.885 12.7897C22.2076 13.0707 22.6418 13.3029 23.1878 13.4862C23.7461 13.6573 24.441 13.7429 25.2723 13.7429C26.4386 13.7429 27.3754 13.5473 28.0826 13.1563C28.8022 12.753 29.1621 12.1236 29.1621 11.2682C29.1621 10.6938 28.9821 10.2172 28.6223 9.83836C28.2749 9.4473 27.729 9.05013 26.9845 8.64684L28.4362 6.57544C29.4164 7.05205 30.2105 7.68141 30.8185 8.46353C31.4388 9.23343 31.749 10.1805 31.749 11.3048C31.749 12.1725 31.5133 12.9607 31.0418 13.6695C30.5827 14.3661 29.8693 14.9222 28.9015 15.3377C27.9337 15.7532 26.6929 15.9609 25.1792 15.9609Z" fill="#FF5858"/>
<path d="M14.454 5.71678C14.454 6.14438 14.3683 6.54145 14.197 6.90796C14.0256 7.27448 13.787 7.56159 13.481 7.76928C13.1506 8.00141 12.7222 8.19688 12.196 8.35571C11.6819 8.50232 11.1557 8.57562 10.6172 8.57562H7.62484V6.5781H10.6355C10.9905 6.5781 11.2536 6.55977 11.4249 6.52312C11.6085 6.47425 11.7492 6.40706 11.8472 6.32154C11.9206 6.24823 11.9757 6.16882 12.0124 6.0833C12.0491 5.98556 12.0675 5.88171 12.0675 5.77176C12.0675 5.62515 12.0491 5.50298 12.0124 5.40524C11.9757 5.29529 11.9145 5.20366 11.8288 5.13035C11.7309 5.04483 11.5901 4.98374 11.4066 4.94709C11.2352 4.91044 10.9476 4.89212 10.5437 4.89212H3.47595V2.82129H10.3051C11.174 2.82129 11.8472 2.88848 12.3245 3.02287C12.814 3.14505 13.2362 3.35274 13.5912 3.64595C13.8482 3.86587 14.0562 4.14686 14.2153 4.48895C14.3744 4.83103 14.454 5.24031 14.454 5.71678ZM8.01036 15.961C6.32143 15.961 4.94459 15.7655 3.87983 15.3745C2.81507 14.9836 2.0318 14.4338 1.53002 13.7252C1.02824 13.0166 0.777344 12.198 0.777344 11.2695C0.777344 10.5609 0.942565 9.93784 1.27301 9.40028C1.60345 8.86273 2.05628 8.44123 2.63149 8.1358C3.21894 7.83037 3.88595 7.67765 4.6325 7.67765C5.30563 7.67765 5.8686 7.79982 6.32143 8.04417C6.77426 8.2763 7.11694 8.59395 7.34947 8.99711C7.582 9.40028 7.69827 9.85232 7.69827 10.3532C7.69827 11.2084 7.4229 11.856 6.87217 12.2958C6.32143 12.7234 5.56875 12.9372 4.61414 12.9372C4.17355 12.9372 3.75744 12.87 3.36581 12.7356C2.98641 12.589 2.64373 12.4118 2.33777 12.2041C2.0318 11.9965 1.77479 11.801 1.56673 11.6177L2.1909 10.1333C2.42344 10.4021 2.70492 10.6587 3.03537 10.903C3.36581 11.1351 3.75744 11.2512 4.21027 11.2512C4.57743 11.2512 4.87727 11.1779 5.10981 11.0313C5.35458 10.8847 5.47697 10.6526 5.47697 10.3349C5.47697 10.0906 5.39741 9.88897 5.23831 9.73015C5.07921 9.57133 4.84056 9.49191 4.52235 9.49191C4.26534 9.49191 4.02057 9.56522 3.78804 9.71182C3.55551 9.84621 3.36581 10.0539 3.21894 10.3349C3.07208 10.6037 2.99865 10.9397 2.99865 11.3428V11.4528C2.99865 11.8193 3.09044 12.1492 3.27402 12.4424C3.46984 12.7356 3.76968 12.9861 4.17355 13.1937C4.57743 13.3892 5.09757 13.5419 5.73398 13.6519C6.37038 13.7496 7.1353 13.7985 8.02871 13.7985C8.97109 13.7985 9.79107 13.7557 10.4887 13.6702C11.1863 13.5847 11.7615 13.4503 12.2143 13.267C12.6671 13.0716 13.0037 12.815 13.224 12.4974C13.4565 12.1675 13.5728 11.7643 13.5728 11.2879V11.2329C13.5728 10.7442 13.4259 10.3288 13.1322 9.98671C12.8385 9.64463 12.4224 9.47359 11.8839 9.47359C11.6146 9.47359 11.3637 9.54689 11.1312 9.6935C10.9109 9.82789 10.8008 10.0478 10.8008 10.3532C10.8008 10.6831 10.9048 10.9152 11.1128 11.0496C11.3209 11.1718 11.5779 11.2329 11.8839 11.2329C12.1898 11.2329 12.4468 11.1718 12.6549 11.0496C12.863 10.9274 13.0404 10.7564 13.1873 10.5365C13.3341 10.3044 13.4504 10.0356 13.5361 9.73015L14.5458 11.0679C14.2888 11.4345 14.0256 11.7643 13.7564 12.0575C13.4994 12.3385 13.1873 12.5584 12.8201 12.7173C12.453 12.8761 11.9757 12.9555 11.3882 12.9555C10.9231 12.9555 10.4764 12.8822 10.0481 12.7356C9.61973 12.5768 9.27093 12.3263 9.00168 11.9842C8.74467 11.6299 8.61617 11.1596 8.61617 10.5731C8.61617 9.86454 8.8793 9.30255 9.40556 8.88716C9.93182 8.45956 10.6661 8.24575 11.6085 8.24575C11.841 8.24575 12.0491 8.25186 12.2327 8.26408C12.4163 8.2763 12.5876 8.29462 12.7467 8.31906C12.9058 8.33127 13.0588 8.35571 13.2056 8.39236L11.0761 8.42901C10.917 8.38014 10.7457 8.34349 10.5621 8.31906C10.3908 8.28241 10.2133 8.25797 10.0297 8.24575C9.85838 8.22132 9.6748 8.2091 9.47899 8.2091L10.2684 6.77968C11.0394 6.81633 11.7554 6.94462 12.4163 7.16453C13.0894 7.37222 13.6768 7.67154 14.1786 8.06249C14.6804 8.44123 15.072 8.90549 15.3535 9.45526C15.6472 9.99282 15.7941 10.6098 15.7941 11.3062C15.7941 12.0881 15.6472 12.7722 15.3535 13.3587C15.0598 13.9329 14.6008 14.4155 13.9767 14.8064C13.3525 15.1852 12.5448 15.4723 11.5534 15.6677C10.5743 15.8632 9.39332 15.961 8.01036 15.961Z" fill="#FF5858"/>
</svg>
