<svg width="144" height="58" viewBox="0 0 144 58" fill="none" xmlns="http://www.w3.org/2000/svg">
<g id="Group 1000013322">
<g id="Group 1000013304">
<g id="Group 1000013273">
<g id="Group 1000013264">
<path id="Vector 234250897" d="M42.9844 21.5H0.984375V51.5H42.9844V21.5Z" fill="#D9D9D9"/>
<path id="Vector 234250898" d="M17.0469 32.5V20.5H27.0469V32.5L21.8088 28.3462L17.0469 32.5Z" fill="white"/>
</g>
<g id="Group 1000013266">
<path id="Vector 234250897_2" d="M35.0469 2.5H8.04688V21.5H35.0469V2.5Z" fill="#D9D9D9"/>
<path id="Vector 234250898_2" d="M19.0469 9.5V2.5H25.0469V9.5L21.904 7.07692L19.0469 9.5Z" fill="white"/>
</g>
</g>
<g id="Group 1000013268">
<path id="Vector 234250903" d="M130.334 16.5H112.016V48.5H143.016V30.6176L130.334 16.5Z" fill="black"/>
<path id="Vector 234250931" d="M122.016 31.2V16.5H130.416L143.016 30.3V31.5L122.016 31.2Z" fill="url(#paint0_linear_1196_2623)"/>
<path id="Vector 234250899" d="M112 0.5H50V48.5H112V0.5Z" fill="url(#paint1_linear_1196_2623)"/>
<path id="Vector 234250900" d="M66 10.5V26.5" stroke="black" stroke-linejoin="round"/>
<path id="Vector 234250901" d="M81 10.5V29.5" stroke="black" stroke-linejoin="round"/>
<circle id="Ellipse 7749" cx="67" cy="49.5" r="7" fill="white" stroke="black" stroke-width="2"/>
<circle id="Ellipse 7750" cx="126" cy="48.5" r="7" fill="white" stroke="black" stroke-width="2"/>
</g>
</g>
</g>
<defs>
<linearGradient id="paint0_linear_1196_2623" x1="143.016" y1="24" x2="122.016" y2="24" gradientUnits="userSpaceOnUse">
<stop stop-color="#F2F2F2"/>
<stop offset="1" stop-color="#B9B9B9"/>
</linearGradient>
<linearGradient id="paint1_linear_1196_2623" x1="112" y1="24.5" x2="50" y2="24.5" gradientUnits="userSpaceOnUse">
<stop stop-color="#FF7C74"/>
<stop offset="1" stop-color="#CA3027"/>
</linearGradient>
</defs>
</svg>
