<svg width="18" height="12" viewBox="0 0 18 12" fill="none" xmlns="http://www.w3.org/2000/svg">
<path d="M13.8723 8.59994L12.4966 9.51708L10.3184 11.0075L10.5476 11.6953L14.2162 9.17315L13.8723 8.59994Z" fill="#5694BD"/>
<path d="M16.0503 9.17187L14.216 9.17187L13.8721 8.59866L15.7064 8.59866L16.0503 9.17187Z" fill="#2A557E"/>
<path d="M12.6114 11.6953L10.5479 11.6953L14.2164 9.17315L16.0507 9.17315L12.6114 11.6953Z" fill="#30729D"/>
<path d="M12.6113 9.85938L12.9553 9.63009" stroke="#2A557E" stroke-width="0.229287"/>
<path d="M12.0609 3.09707C11.7857 3.2805 11.6405 3.02064 11.6023 2.86778C11.8775 2.59263 11.1274 2.63849 10.7998 2.29456L11.0291 1.49206C12.2902 1.83599 12.4048 2.86778 12.0609 3.09707Z" fill="#E8C1AC"/>
<path d="M16.4168 7.79687L15.6143 7.79688L15.6143 6.65044L16.5314 6.65044C17.9071 7.0173 17.0282 7.56759 16.4168 7.79687Z" fill="#000004"/>
<path d="M16.6468 5.16016L15.3857 5.16016L15.3857 4.01372L16.6468 4.12836C17.7474 4.67865 17.1054 5.04551 16.6468 5.16016Z" fill="#000004"/>
<path d="M15.4998 5.27344L11.4873 5.27344L11.4873 2.86592L15.4998 3.78307L15.4998 5.27344Z" fill="#2A2B2F"/>
<path d="M8.38132 9.2652L5.9678 9.97656L5.18164 8.14227L5.18164 4.0151L5.9678 1.95151L8.54162 2.52047C8.89916 2.5995 9.26424 2.63937 9.63041 2.63937L11.6017 2.63937L11.6017 5.39082C11.4117 5.58077 11.4117 5.88873 11.6017 6.07868L11.6017 9.05941L9.80742 9.05941C9.32466 9.05941 8.84439 9.12872 8.38132 9.2652Z" fill="#0F9081"/>
<path d="M12.7486 9.86292C12.8403 10.2298 11.8696 10.4744 11.3728 10.5508L11.1436 9.86292L12.1753 9.51899C12.2518 9.51899 12.6569 9.49606 12.7486 9.86292Z" fill="#E8C1AC"/>
<path d="M8.96549 11.582L6.90191 11.582L5.87012 9.97702L8.96549 9.97702L11.2584 9.51845L11.4877 10.7795L8.96549 11.582Z" fill="#696A66"/>
<path d="M9.07975 1.83439L5.98437 1.83439L6.78688 0.229384L9.53833 0.573315L11.258 1.14653L10.7994 2.29297L9.07975 1.83439Z" fill="#696A66"/>
<path d="M15.7297 7.91116L11.6025 8.48438L11.6025 6.1915L15.7297 6.53543L15.7297 7.91116Z" fill="#2A2B2F"/>
<path d="M4.50656 10.3372C4.05804 9.48594 3.80169 8.58134 3.56055 8.02672L3.56054 3.78491C3.43963 2.75711 3.92649 1.88873 4.53979 1.12065C5.12073 0.393098 6.07988 0.0878495 6.99985 0.230954C6.17442 1.05639 5.6787 3.02061 5.4112 4.01419L5.4112 7.79743C5.31948 9.08144 6.57949 10.8164 7.22914 11.5807C6.13943 11.654 5.01564 11.3035 4.50656 10.3372Z" fill="#17B8A5"/>
<path d="M5.94767 7.13256C5.05972 7.96244 4.56722 8.24064 3.34766 8.48438L3.34766 3.44006C4.66488 3.56331 5.14933 3.76324 6.01959 4.71355C6.15014 4.8561 6.26502 5.0139 6.34828 5.18834C6.58916 5.69295 6.61293 6.06244 6.38643 6.55564C6.28479 6.77694 6.12558 6.96628 5.94767 7.13256Z" fill="#E8C1AC"/>
<path d="M3.9043 7.68359L5.39466 7.22502M5.39466 7.22502C5.16538 7.07216 4.84437 6.62887 5.39466 6.07858M5.39466 7.22502C6.2201 6.76644 5.73859 6.26966 5.39466 6.07858M5.39466 6.07858L5.39466 5.73465M5.39466 5.73465C5.16538 5.54358 4.84437 5.04679 5.39466 4.58822M5.39466 5.73465C6.2201 5.18436 5.73859 4.74108 5.39466 4.58822M5.39466 4.58822C5.0278 4.4965 4.1718 4.24429 3.9043 4.12964" stroke="#321E1D" stroke-width="0.114644"/>
<path d="M2.76362 8.48437L4.03561 8.48437C3.66875 8.20923 3.80633 8.06402 3.92098 8.0258L4.60884 6.99401L4.60884 4.70114L3.92098 4.01327C3.64583 3.82985 3.88276 3.5547 4.03561 3.44006L2.27557 3.44006C1.7694 3.44006 1.24121 3.47984 0.845914 3.79598C0.377093 4.17092 0.0118026 4.72832 0.0230882 5.04507L0.0230882 5.85586C0.0230882 6.30755 -0.0785442 6.78404 0.0983195 7.19967C0.185674 7.40495 0.325299 7.60025 0.492878 7.77651C1.06141 8.37449 1.93851 8.48437 2.76362 8.48437Z" fill="#321E1D"/>
<path d="M7.58923 6.30841L6.90137 6.65234L6.90137 5.27662L7.58923 5.50591L10.0541 5.50591C10.2757 5.50591 10.4553 5.68555 10.4553 5.90716C10.4553 6.12877 10.2757 6.30841 10.0541 6.30841L7.58923 6.30841Z" fill="#FFAD30"/>
</svg>
