<svg width="19" height="11" viewBox="0 0 19 11" fill="none" xmlns="http://www.w3.org/2000/svg">
<path d="M17.123 6.64844L16.0506 6.64844L15.8213 5.84593L17.0672 5.63829C17.6078 5.54818 18.4764 5.54349 18.3434 6.07522C18.2211 6.56476 17.6276 6.64844 17.123 6.64844Z" fill="#0A0100"/>
<path d="M16.2792 4.12868C15.9124 4.49554 14.5978 4.24334 14.101 4.1287C13.8717 3.93763 13.7571 3.71598 14.2157 3.44084C14.6742 3.16569 15.6296 3.21155 16.0499 3.3262C16.2792 3.44083 16.6461 3.76182 16.2792 4.12868Z" fill="#0A0100"/>
<path d="M17.0815 6.41879L13.1836 7.33594L13.6422 5.61628L17.0815 5.84557C17.54 6.12072 17.2725 6.34236 17.0815 6.41879Z" fill="#E8BCA1"/>
<path d="M14.7892 4.24219L13.6428 4.12754L13.2988 3.32504L14.9038 3.32504C15.4541 3.87533 15.0567 4.16576 14.7892 4.24219Z" fill="#E8BCA1"/>
<path d="M12.8398 9.63145L7.79549 9.74609L7.68084 9.74609L7.33691 8.82895L12.6105 8.82894C12.8857 8.64552 13.413 8.4468 13.6423 8.37037C13.8334 8.21751 14.1926 8.0723 14.1009 8.7143C14.0092 9.35631 13.222 9.59324 12.8398 9.63145Z" fill="#E8BCA1"/>
<path d="M10.0882 1.26036L7.68066 1.375L7.68066 0.228564L10.2426 0.320061C10.6591 0.334937 11.0545 0.507062 11.3493 0.801782C11.8078 1.26036 11.4639 1.375 11.2346 1.375C10.8907 1.26036 10.5085 1.22214 10.0882 1.26036Z" fill="#E8BCA1"/>
<path d="M11.1202 8.59766L7.79549 7.90979L7.33691 7.90979L7.5662 2.06297L9.51514 1.83368L11.1202 1.37511C12.8627 2.01711 13.4512 2.94191 13.5277 3.32405C14.1697 4.79149 13.7952 6.22836 13.5277 6.76336C13.2525 7.95565 11.808 8.48301 11.1202 8.59766Z" fill="#E93D75"/>
<path d="M11.124 8.59375L7.94408 7.9358L8.41831 7.31688C9.41188 7.6226 11.5461 8.36491 11.5461 8.45663C11.5461 8.54834 11.3151 8.51732 11.124 8.59375Z" fill="#CB1F57"/>
<path d="M12.7571 7.8536L8.75967 6.81923L8.99994 6.28966L13.3216 7.20582C13.1521 7.53372 13.029 7.68015 12.7571 7.8536Z" fill="#CB1F57"/>
<path d="M13.7068 6.20037L9.15368 5.74336L9.15368 5.05785L13.8671 5.16879C13.86 5.60159 13.799 6.02664 13.7068 6.20037Z" fill="#CB1F57"/>
<path d="M13.8671 4.47203L9.17118 4.57333L9.07551 4.00485L13.5639 3.4168C13.7131 3.82827 13.777 4.05889 13.8671 4.47203Z" fill="#CB1F57"/>
<path d="M13.2412 2.77231L8.86742 3.48334L8.54383 3.03815L12.3944 2.02962C12.7512 2.22555 12.9217 2.40641 13.2412 2.77231Z" fill="#CB1F57"/>
<path d="M11.8063 1.67685L8.07909 2.47808L7.89159 2.30072L11.5136 1.5295L11.8063 1.67685Z" fill="#CB1F57"/>
<path d="M4.92959 10.0885C4.01244 9.99677 3.01886 8.36883 2.63672 7.56632L2.63672 2.75129C2.63672 1.74243 4.1653 0.496635 4.92959 -0.000153642L7.91032 -0.000153772L7.68104 1.7195L7.0969 1.81686C7.03704 1.82683 6.99317 1.87862 6.99317 1.9393C6.99317 2.00786 7.04875 2.06343 7.11731 2.06343L7.57571 2.06343C7.64287 2.06343 7.707 2.0914 7.75271 2.14061L8.46522 2.90794C8.91914 3.39677 9.1714 4.03917 9.1714 4.70625L9.1714 5.41013C9.1714 6.06333 8.94656 6.69662 8.53466 7.20357L7.78399 8.12747C7.71885 8.20764 7.62106 8.25418 7.51777 8.25418L7.11917 8.25418C7.04958 8.25418 6.99317 8.31059 6.99317 8.38018C6.99317 8.44024 7.03557 8.49195 7.09446 8.50373L7.56639 8.59811L7.91032 10.2031L4.92959 10.0885Z" fill="#D9D0C1"/>
<path d="M5.96109 7.79687L5.04395 7.10901L5.04395 3.09649L5.96109 2.40863L7.56604 4.20239C7.78756 4.44997 7.91003 4.77053 7.91003 5.10275C7.91003 5.43497 7.78756 5.75553 7.56604 6.00311L5.96109 7.79687Z" fill="#FCFFFD"/>
<path d="M5.15875 6.99219L4.12695 6.99219L4.12695 3.20895L5.15875 3.20895C6.44275 4.1261 6.68733 4.73753 6.64911 5.04325C6.74083 5.50182 5.96125 6.53361 5.15875 6.99219Z" fill="#E8BCA1"/>
<path d="M1.94894 7.45312L4.70039 7.45312C4.51696 7.36141 4.4711 6.95634 4.4711 6.76526L4.92967 5.84811L4.92967 3.89917L4.24181 3.21131C4.1501 3.1196 4.50931 2.86738 4.70039 2.75274L1.94894 2.75274C1.10655 2.81754 0.557929 3.30583 0.254562 3.74858C0.0456161 4.05353 -1.32077e-07 4.43156 -1.15918e-07 4.80123L-9.9584e-08 5.17491C-7.38611e-08 5.76338 0.154096 6.36595 0.609933 6.73812C1.1063 7.14337 1.6597 7.37424 1.94894 7.45312Z" fill="black"/>
<path d="M6.99323 8.48347L6.5 10.1471L7.91038 10.2031L7.56645 8.59811L6.99323 8.48347Z" fill="#CAC0B4"/>
<path d="M7.90863 0.00202852L6.87509 0.00202857L6.53711 0.00202858L7.05143 1.82422L7.68332 1.71644L7.90863 0.00202852Z" fill="#CAC0B4"/>
<path d="M5.27313 6.41797C5.23492 6.2269 5.20434 5.79889 5.38777 5.61546" stroke="url(#paint0_linear_1939_41074)" stroke-opacity="0.4" stroke-width="0.343931" stroke-linecap="round"/>
<path d="M5.27313 3.89844C5.23492 4.08951 5.20434 4.51751 5.38777 4.70094" stroke="url(#paint1_linear_1939_41074)" stroke-opacity="0.4" stroke-width="0.343931" stroke-linecap="round"/>
<defs>
<linearGradient id="paint0_linear_1939_41074" x1="4.9147" y1="6.01672" x2="5.38777" y2="6.07404" gradientUnits="userSpaceOnUse">
<stop stop-color="#B58B72"/>
<stop offset="1" stop-color="#E8BCA1"/>
</linearGradient>
<linearGradient id="paint1_linear_1939_41074" x1="4.9147" y1="4.29969" x2="5.38777" y2="4.24237" gradientUnits="userSpaceOnUse">
<stop stop-color="#B58B72"/>
<stop offset="1" stop-color="#E8BCA1"/>
</linearGradient>
</defs>
</svg>
