<svg width="174" height="98" viewBox="0 0 174 98" fill="none" xmlns="http://www.w3.org/2000/svg">
<g opacity="0.3" filter="url(#filter0_f_130_9364)">
<ellipse cx="87" cy="79.75" rx="73" ry="3.5" fill="black"/>
</g>
<path d="M106.348 26.331V3.94763C106.348 3.09956 106.011 2.28624 105.411 1.68656C104.812 1.08689 103.998 0.75 103.15 0.75H39.1976C38.3496 0.75 37.5362 1.08689 36.9366 1.68656C36.3369 2.28624 36 3.09956 36 3.94763V26.331C36 64.7026 71.1739 74.2955 71.1739 74.2955C71.1739 74.2955 106.348 64.7026 106.348 26.331Z" fill="url(#paint0_linear_130_9364)"/>
<path d="M55.1855 35.9233L64.7784 45.5162L87.1618 23.1328" stroke="black" stroke-width="3" stroke-linecap="round" stroke-linejoin="round"/>
<path d="M82.842 53.8844C82.901 53.8372 83.0837 53.7547 83.2487 53.6957C83.5199 53.6014 83.8736 53.5955 92.8568 53.6191L93.1692 53.7959C93.3461 53.8902 93.5701 54.0671 93.6762 54.1791C93.7823 54.2911 93.9355 54.5328 94.1831 55.0338V64.8482C94.1831 73.4424 94.1713 74.698 94.0947 74.9397C94.0475 75.0988 93.9827 75.2226 93.9473 75.2226C93.912 75.2226 93.8884 75.2639 93.8884 75.311C93.8884 75.3582 93.7587 75.5114 93.6054 75.647C93.4522 75.7885 93.2164 75.9535 93.0926 76.0184C92.8627 76.1362 92.7389 76.1362 88.0823 76.1362C83.6731 76.1362 83.2959 76.1304 83.1308 76.036C83.0365 75.9771 82.9422 75.9417 82.9245 75.9476C82.9068 75.9535 82.901 75.9476 82.9068 75.9299C82.9127 75.9123 82.8361 75.8474 82.7359 75.7826C82.6357 75.7177 82.4648 75.5468 82.3587 75.3994C82.2526 75.2521 82.1288 74.9986 82.0757 74.8394C81.9991 74.5801 81.9873 73.3304 82.0109 54.9748L82.1877 54.6565C82.282 54.4797 82.4471 54.2557 82.5473 54.1555C82.6475 54.0553 82.7831 53.9315 82.842 53.8844Z" fill="url(#paint1_linear_130_9364)"/>
<path d="M110.128 35.0452C110.229 34.9745 110.423 34.8743 110.571 34.8271C110.771 34.7564 111.001 34.7387 111.484 34.7564C111.838 34.7682 112.227 34.7917 112.339 34.8035C112.451 34.8153 112.728 34.8566 112.958 34.8978C113.188 34.9332 113.583 35.0334 113.842 35.1218C114.101 35.2044 114.414 35.3223 114.532 35.3812C114.655 35.446 114.756 35.4755 114.756 35.4519C114.75 35.4225 114.838 35.4696 114.944 35.5521C115.05 35.6347 115.215 35.7408 115.31 35.7879C115.404 35.8351 115.663 36.0473 115.887 36.2595C116.111 36.4717 116.306 36.6367 116.318 36.6308C116.335 36.6191 116.335 36.6308 116.318 36.6603C116.306 36.6839 116.359 36.7841 116.436 36.8784C116.518 36.9786 116.583 37.0906 116.583 37.1319C116.583 37.1672 116.607 37.2085 116.636 37.2203C116.665 37.2262 116.795 37.4325 116.925 37.6742C117.055 37.9159 117.22 38.3049 117.296 38.5289C117.373 38.7588 117.438 38.9592 117.449 38.9887C117.461 39.0122 117.467 39.136 117.467 39.2657C117.467 39.4366 117.485 39.4897 117.538 39.4602C117.585 39.4307 117.597 39.4366 117.573 39.472C117.55 39.5074 117.573 39.7844 117.62 40.0909C117.668 40.3975 117.709 41.1048 117.721 41.653C117.727 42.2071 117.715 42.8732 117.685 43.1443C117.662 43.4096 117.615 43.7456 117.585 43.8929C117.556 44.0403 117.538 44.1876 117.556 44.2171C117.573 44.2525 117.567 44.282 117.538 44.2937C117.514 44.2996 117.438 44.5295 117.361 44.8066C117.29 45.0836 117.202 45.4078 117.172 45.5316C117.137 45.6495 117.06 45.8735 116.99 46.0326C116.925 46.1859 116.648 46.7636 116.371 47.3118C116.1 47.8658 115.799 48.4494 115.711 48.6085C115.622 48.7736 115.504 49.0212 115.451 49.1685C115.392 49.3159 115.369 49.4574 115.392 49.4927C115.416 49.5281 115.404 49.534 115.357 49.5045C115.31 49.475 115.28 49.5163 115.257 49.811L119.825 49.8346C122.336 49.8523 124.446 49.87 124.511 49.8877C124.576 49.8995 124.658 49.923 124.688 49.9466C124.717 49.9643 124.841 49.9997 124.953 50.0291C125.065 50.0527 125.171 50.0822 125.189 50.0822C125.207 50.0881 125.325 50.1411 125.454 50.2001C125.584 50.259 125.725 50.3062 125.761 50.3121C125.802 50.318 125.837 50.3298 125.837 50.3474C125.831 50.3651 125.908 50.4123 125.997 50.4476C126.085 50.4889 126.215 50.5714 126.279 50.6304C126.344 50.6893 126.492 50.7895 126.604 50.8485C126.716 50.9074 127.034 51.1845 127.311 51.4615C127.588 51.7444 127.936 52.1571 128.083 52.3811C128.231 52.6109 128.413 52.9116 128.49 53.0589C128.561 53.2063 128.684 53.5246 128.767 53.7663C128.85 54.0079 128.926 54.2614 128.944 54.3263C128.956 54.3911 128.979 54.8155 128.997 55.2694C129.009 55.7233 128.991 56.2773 128.956 56.5072C128.914 56.7371 128.808 57.1733 128.714 57.4798C128.62 57.7864 128.455 58.2343 128.343 58.4701C128.231 58.7 128.101 58.8945 128.06 58.8945C128.024 58.8945 128.007 58.9122 128.03 58.9358C128.054 58.9594 127.989 59.1008 127.883 59.2482C127.783 59.3956 127.635 59.5783 127.559 59.6608C127.47 59.761 127.435 59.8494 127.458 59.9261C127.476 59.9909 127.5 60.0852 127.511 60.1323L127.511 60.1324C127.523 60.1795 127.594 60.4448 127.665 60.7218C127.741 60.9989 127.812 61.5117 127.836 61.8713C127.853 62.2544 127.842 62.7613 127.8 63.1091C127.765 63.4333 127.665 63.9108 127.582 64.1701C127.5 64.4295 127.352 64.8009 127.252 64.9954C127.158 65.1899 127.028 65.4316 126.969 65.5259C126.916 65.6202 126.81 65.8029 126.733 65.9267C126.615 66.1212 126.61 66.1684 126.674 66.3983C126.71 66.5338 126.751 66.7107 126.769 66.7932C126.781 66.8757 126.798 67.3414 126.798 67.8248C126.798 68.4732 126.775 68.8091 126.704 69.0921C126.645 69.3043 126.586 69.5342 126.574 69.6108C126.557 69.6815 126.515 69.8053 126.486 69.8878C126.456 69.9704 126.445 70.0706 126.468 70.1118C126.5 70.159 126.49 70.1688 126.439 70.1413C126.391 70.1099 126.356 70.1492 126.333 70.2592C126.315 70.3476 126.232 70.5657 126.15 70.7425C126.067 70.9194 125.885 71.2318 125.743 71.4381C125.602 71.6385 125.437 71.8625 125.378 71.9274C125.325 71.9981 125.218 72.1101 125.148 72.1808C125.024 72.2987 125.012 72.3518 125.012 73.1888C125.012 73.678 124.989 74.2321 124.953 74.4266C124.918 74.6212 124.871 74.8628 124.859 74.9571C124.841 75.0515 124.753 75.358 124.658 75.635C124.57 75.9121 124.393 76.3365 124.269 76.5781C124.146 76.8198 124.051 77.0379 124.057 77.0674C124.063 77.091 124.04 77.0969 124.01 77.0792C123.981 77.0615 123.951 77.0792 123.951 77.1087C123.951 77.1381 123.845 77.3032 123.715 77.4623C123.586 77.6274 123.491 77.7688 123.509 77.7865C123.527 77.8042 123.503 77.8337 123.468 77.8632C123.415 77.8926 123.409 77.8808 123.444 77.816C123.48 77.7688 123.344 77.8867 123.149 78.0813C122.955 78.2758 122.643 78.5351 122.46 78.6589C122.277 78.7768 122.094 78.877 122.065 78.877C122.035 78.877 122.006 78.8947 122.006 78.9242C122.012 78.9478 121.829 79.048 121.611 79.1541C121.393 79.2543 121.075 79.3839 120.915 79.437C120.75 79.4901 120.591 79.5549 120.562 79.5726C120.532 79.5962 120.473 79.6138 120.444 79.6197C120.414 79.6256 120.078 79.6964 119.707 79.7671C119.047 79.9027 118.958 79.9086 115.817 79.9086C114.048 79.9086 112.404 79.8909 112.162 79.8614C111.92 79.8378 111.425 79.7789 111.072 79.7258C110.718 79.6787 110.264 79.602 110.069 79.5549C109.875 79.5136 109.545 79.4488 109.333 79.4134C109.12 79.3722 108.896 79.3309 108.832 79.3191C108.767 79.3073 108.608 79.2661 108.478 79.2307C108.348 79.1953 108.16 79.1541 108.065 79.1364C107.971 79.1187 107.741 79.0597 107.564 79.0126C107.387 78.9654 107.175 78.9124 107.093 78.8947C107.01 78.877 106.598 78.765 106.179 78.6353C105.761 78.5116 104.458 78.0871 103.291 77.6922C102.124 77.3032 101.127 76.9731 101.08 76.9613C101.033 76.9495 100.715 76.8493 100.373 76.7373C100.031 76.6253 99.6597 76.5133 99.5477 76.4838C99.4357 76.4603 99.3179 76.4308 99.2825 76.4249C99.2471 76.419 99.0526 76.3718 98.8404 76.3188C98.6282 76.2716 98.2274 76.2009 97.9385 76.1655C97.6556 76.1361 97.3668 76.0771 97.2901 76.0359C97.2194 75.9946 97.1487 75.971 97.131 75.9769C97.1133 75.9828 96.9541 75.859 96.7773 75.6999C96.571 75.523 96.3942 75.2931 96.1289 74.7508V64.9364C96.1289 56.3658 96.1407 55.0867 96.2173 54.845C96.2704 54.6799 96.4236 54.4265 96.5946 54.2378C96.7478 54.061 96.9954 53.8547 97.1369 53.784C97.2783 53.7132 97.5672 53.6189 97.7794 53.5835C98.0564 53.5305 98.2745 53.4362 98.5751 53.2417C98.7991 53.0943 99.2648 52.6935 99.6067 52.3516C99.9486 52.0097 100.414 51.5205 100.638 51.267C100.868 51.0076 101.074 50.7718 101.11 50.7365C101.145 50.7011 101.239 50.5773 101.322 50.4653C101.41 50.3533 101.54 50.1942 101.617 50.1058C101.693 50.0232 101.87 49.811 102.006 49.6342C102.141 49.4633 102.312 49.2511 102.389 49.1626C102.466 49.0801 102.601 48.9092 102.701 48.7795C102.796 48.6557 102.914 48.5083 102.955 48.4612C102.996 48.414 103.138 48.2313 103.261 48.0663C103.391 47.8953 103.485 47.7538 103.468 47.7538C103.45 47.7538 103.556 47.6301 103.703 47.4768C103.851 47.3176 103.969 47.1821 103.969 47.1644C103.963 47.1467 104.022 47.0701 104.092 46.9876C104.163 46.905 104.316 46.7223 104.434 46.5749C104.552 46.4276 104.658 46.2979 104.676 46.2802C104.694 46.2625 104.782 46.1564 104.876 46.0444C104.971 45.9324 105.23 45.6377 105.448 45.396C105.672 45.1543 105.996 44.8007 106.161 44.6179C106.332 44.4352 106.539 44.1523 106.621 43.999C106.704 43.8458 106.786 43.7043 106.804 43.6866C106.827 43.6689 106.963 43.3506 107.11 42.9793C107.264 42.6079 107.441 42.0892 107.505 41.8298C107.576 41.5705 107.653 41.2522 107.682 41.1225C107.706 40.9928 107.841 40.3562 107.977 39.7078C108.113 39.0594 108.236 38.464 108.248 38.3815C108.266 38.299 108.337 38.0632 108.401 37.851C108.466 37.6388 108.661 37.1731 108.832 36.8195C109.003 36.4658 109.232 36.0473 109.339 35.8999C109.451 35.7467 109.633 35.5227 109.745 35.3989C109.857 35.2692 110.034 35.1101 110.128 35.0452Z" fill="url(#paint2_linear_130_9364)"/>
<defs>
<filter id="filter0_f_130_9364" x="0" y="62.25" width="174" height="35" filterUnits="userSpaceOnUse" color-interpolation-filters="sRGB">
<feFlood flood-opacity="0" result="BackgroundImageFix"/>
<feBlend mode="normal" in="SourceGraphic" in2="BackgroundImageFix" result="shape"/>
<feGaussianBlur stdDeviation="7" result="effect1_foregroundBlur_130_9364"/>
</filter>
<linearGradient id="paint0_linear_130_9364" x1="106.348" y1="37.5227" x2="36" y2="37.5227" gradientUnits="userSpaceOnUse">
<stop stop-color="#FF7C74"/>
<stop offset="1" stop-color="#CA3027"/>
</linearGradient>
<linearGradient id="paint1_linear_130_9364" x1="98.46" y1="74.8099" x2="80.848" y2="71.9392" gradientUnits="userSpaceOnUse">
<stop stop-color="#F2F2F2"/>
<stop offset="1" stop-color="#B9B9B9"/>
</linearGradient>
<linearGradient id="paint2_linear_130_9364" x1="140.54" y1="77.25" x2="93.9986" y2="67.0385" gradientUnits="userSpaceOnUse">
<stop stop-color="#F2F2F2"/>
<stop offset="1" stop-color="#B9B9B9"/>
</linearGradient>
</defs>
</svg>
