<svg width="137" height="73" viewBox="0 0 137 73" fill="none" xmlns="http://www.w3.org/2000/svg">
<path d="M20.3442 43.9604V0.53125H108.619C131.277 3.36359 128.445 27.9105 128.445 35.4634C128.445 41.5057 123.095 43.6457 120.42 43.9604H20.3442Z" fill="url(#paint0_linear_130_654)"/>
<path d="M20.3442 43.9604V29.5312H108.619C131.277 32.3636 128.445 29.9105 128.445 37.4634C128.445 43.5057 123.095 43.6457 120.42 43.9604H20.3442Z" fill="#D9D9D9"/>
<path d="M112.711 23.708L109.713 0.429688C129.874 4.04507 129.625 21.2022 128.998 29.9723L112.711 23.708Z" fill="black"/>
<path d="M20.3442 25.1953H113.339L128.445 31.332" stroke="black" stroke-width="2" stroke-linejoin="round"/>
<path d="M52.6587 23.1899V0.53125" stroke="black" stroke-width="2" stroke-linejoin="round"/>
<path d="M86.6313 23.1899V0.53125" stroke="black" stroke-width="2" stroke-linejoin="round"/>
<circle cx="49.1396" cy="44.9087" r="10.3852" fill="black"/>
<ellipse cx="49.1401" cy="44.915" rx="6.14152" ry="6.14152" fill="white"/>
<circle cx="99.1767" cy="44.9087" r="10.3852" fill="black"/>
<ellipse cx="99.1791" cy="44.9091" rx="5.88566" ry="5.88566" fill="white"/>
<g opacity="0.5" filter="url(#filter0_f_130_654)">
<ellipse cx="68.8623" cy="55.5005" rx="54.0503" ry="3.07077" fill="black"/>
</g>
<defs>
<filter id="filter0_f_130_654" x="0.812012" y="38.4297" width="136.101" height="34.1406" filterUnits="userSpaceOnUse" color-interpolation-filters="sRGB">
<feFlood flood-opacity="0" result="BackgroundImageFix"/>
<feBlend mode="normal" in="SourceGraphic" in2="BackgroundImageFix" result="shape"/>
<feGaussianBlur stdDeviation="7" result="effect1_foregroundBlur_130_654"/>
</filter>
<linearGradient id="paint0_linear_130_654" x1="128.558" y1="22.2458" x2="20.3442" y2="22.2458" gradientUnits="userSpaceOnUse">
<stop stop-color="#FF7C74"/>
<stop offset="1" stop-color="#CA3027"/>
</linearGradient>
</defs>
</svg>
