<svg width="1366" height="675" viewBox="0 0 1366 675" fill="none" xmlns="http://www.w3.org/2000/svg">
<g filter="url(#filter0_f_321_49116)">
<path d="M1236.24 71.2894C1199.12 -17.8797 1149.77 -120.348 1178.72 -227.323C1184.93 -250.3 1186.62 -259.706 1198.68 -277.539C1308.08 -439.203 1477.48 -298.611 1522.44 -247.011C1565.64 -197.423 1568.02 -36.0521 1531.4 42.2774C1513.77 79.9873 1499.48 85.7496 1477.48 103.132C1421.31 147.52 1304.82 236.049 1236.24 71.2894Z" fill="white"/>
</g>
<g filter="url(#filter1_f_321_49116)">
<path d="M-170.765 679.289C-207.882 590.12 -257.229 487.652 -228.284 380.677C-222.067 357.7 -220.383 348.294 -208.316 330.461C-98.9221 168.797 70.4845 309.389 115.436 360.989C158.635 410.577 161.017 571.948 124.399 650.277C106.77 687.987 92.4823 693.75 70.4845 711.132C14.3111 755.52 -102.182 844.049 -170.765 679.289Z" fill="white"/>
</g>
<defs>
<filter id="filter0_f_321_49116" x="1080" y="-443" width="567" height="700" filterUnits="userSpaceOnUse" color-interpolation-filters="sRGB">
<feFlood flood-opacity="0" result="BackgroundImageFix"/>
<feBlend mode="normal" in="SourceGraphic" in2="BackgroundImageFix" result="shape"/>
<feGaussianBlur stdDeviation="45" result="effect1_foregroundBlur_321_49116"/>
</filter>
<filter id="filter1_f_321_49116" x="-327" y="165" width="567" height="700" filterUnits="userSpaceOnUse" color-interpolation-filters="sRGB">
<feFlood flood-opacity="0" result="BackgroundImageFix"/>
<feBlend mode="normal" in="SourceGraphic" in2="BackgroundImageFix" result="shape"/>
<feGaussianBlur stdDeviation="45" result="effect1_foregroundBlur_321_49116"/>
</filter>
</defs>
</svg>
