<svg width="174" height="100" viewBox="0 0 174 100" fill="none" xmlns="http://www.w3.org/2000/svg">
<g opacity="0.3" filter="url(#filter0_f_373_40007)">
<ellipse cx="87" cy="82" rx="73" ry="3.5" fill="black"/>
</g>
<path fill-rule="evenodd" clip-rule="evenodd" d="M75.5 5.5C75.5 2.73858 77.7386 0.5 80.5 0.5H91.5C94.2614 0.5 96.5 2.73858 96.5 5.5V11.5H75.5V5.5Z" fill="black"/>
<path d="M86 77C105.33 77 121 61.33 121 42C121 22.67 105.33 7 86 7C66.67 7 51 22.67 51 42C51 61.33 66.67 77 86 77Z" fill="url(#paint0_linear_373_40007)"/>
<path d="M103 32L84.2157 51L73 40.2514" stroke="black" stroke-width="3" stroke-linecap="round" stroke-linejoin="round"/>
<path d="M146.569 45H105V78.3462H146.569V45Z" fill="#D9D9D9"/>
<path d="M120.73 58.3502V45.0117H130.628V58.3502L125.443 53.733L120.73 58.3502Z" fill="white"/>
<defs>
<filter id="filter0_f_373_40007" x="0" y="64.5" width="174" height="35" filterUnits="userSpaceOnUse" color-interpolation-filters="sRGB">
<feFlood flood-opacity="0" result="BackgroundImageFix"/>
<feBlend mode="normal" in="SourceGraphic" in2="BackgroundImageFix" result="shape"/>
<feGaussianBlur stdDeviation="7" result="effect1_foregroundBlur_373_40007"/>
</filter>
<linearGradient id="paint0_linear_373_40007" x1="121" y1="42" x2="51" y2="42" gradientUnits="userSpaceOnUse">
<stop stop-color="#FF7C74"/>
<stop offset="1" stop-color="#CA3027"/>
</linearGradient>
</defs>
</svg>
