<svg width="290" height="25" viewBox="0 0 290 25" fill="none" xmlns="http://www.w3.org/2000/svg">
<path d="M286.495 23.228C285.93 23.228 285.469 23.1373 285.112 22.9559C284.743 22.7867 284.381 22.4783 284.024 22.031H284.448C284.03 22.4783 283.643 22.7867 283.287 22.9559C282.918 23.1373 282.463 23.228 281.922 23.228C281.381 23.228 280.933 23.1071 280.576 22.8652C280.22 22.6234 279.955 22.303 279.783 21.904C279.611 21.505 279.525 21.0758 279.525 20.6164C279.525 19.8546 279.734 19.1957 280.152 18.6395C280.558 18.0833 281.117 17.6541 281.83 17.3518C282.531 17.0496 283.324 16.8984 284.209 16.8984C285.118 16.8984 285.93 17.0556 286.643 17.37C287.343 17.6964 287.896 18.1377 288.302 18.6939C288.708 19.2622 288.911 19.9151 288.911 20.6526C288.911 21.0879 288.837 21.499 288.689 21.8859C288.53 22.2849 288.271 22.6053 287.915 22.8471C287.558 23.101 287.085 23.228 286.495 23.228ZM286.053 21.5957C286.298 21.5957 286.495 21.505 286.643 21.3237C286.79 21.1423 286.864 20.9005 286.864 20.5982C286.864 19.9574 286.612 19.4496 286.108 19.0748C285.604 18.7121 284.971 18.5307 284.209 18.5307C283.385 18.5307 282.74 18.7121 282.273 19.0748C281.793 19.4375 281.553 19.9332 281.553 20.5619C281.553 20.8763 281.627 21.1242 281.775 21.3055C281.922 21.499 282.125 21.5957 282.383 21.5957C282.629 21.5957 282.832 21.5353 282.992 21.4143C283.139 21.3055 283.262 21.1484 283.36 20.9428H285.057C285.155 21.1725 285.278 21.3358 285.426 21.4325C285.573 21.5413 285.782 21.5957 286.053 21.5957ZM283.305 24.4068L283.379 22.9378H285.002L285.131 24.4068H283.305ZM283.231 19.8728C283.231 19.6068 283.324 19.4073 283.508 19.2743C283.692 19.1534 283.926 19.0929 284.209 19.0929C284.528 19.0929 284.774 19.1594 284.946 19.2924C285.118 19.4254 285.204 19.6189 285.204 19.8728C285.204 20.1509 285.118 20.3504 284.946 20.4713C284.762 20.5922 284.516 20.6526 284.209 20.6526C283.914 20.6526 283.68 20.5861 283.508 20.4531C283.324 20.3322 283.231 20.1388 283.231 19.8728Z" fill="#FF5858"/>
<path d="M285.918 15.9422C285.402 15.9422 284.903 15.8711 284.423 15.7288C283.956 15.5984 283.47 15.3554 282.966 14.9998C282.473 14.6442 281.932 14.1464 281.342 13.5063C281.071 13.21 280.849 12.9907 280.677 12.8484C280.517 12.6943 280.382 12.5936 280.271 12.5462C280.16 12.4869 280.037 12.4573 279.902 12.4573C279.742 12.4573 279.595 12.5224 279.459 12.6528C279.324 12.7832 279.256 12.961 279.256 13.1862C279.256 13.4826 279.324 13.7967 279.459 14.1286C279.607 14.4605 279.816 14.8161 280.087 15.1954L277.503 15.96C277.282 15.5451 277.091 15.1065 276.931 14.6442C276.783 14.1701 276.709 13.6604 276.709 13.1151C276.709 12.5699 276.845 12.0898 277.115 11.6749C277.386 11.2482 277.755 10.9163 278.223 10.6792C278.703 10.4303 279.244 10.3058 279.847 10.3058C280.413 10.3058 280.911 10.3888 281.342 10.5548C281.772 10.7207 282.172 10.9578 282.541 11.266C282.923 11.5742 283.31 11.9416 283.704 12.3684C284.061 12.7358 284.362 13.0262 284.608 13.2396C284.854 13.4411 285.088 13.5833 285.309 13.6663C285.543 13.7493 285.795 13.7908 286.066 13.7908C286.41 13.7908 286.7 13.6722 286.933 13.4352C287.167 13.1981 287.284 12.8425 287.284 12.3684C287.284 11.8112 287.155 11.3193 286.896 10.8926C286.638 10.4659 286.3 10.0865 285.881 9.75464C285.463 9.41089 285.02 9.09677 284.553 8.81228L286.011 6.83867C286.736 7.21798 287.389 7.66842 287.967 8.18997C288.545 8.71153 289 9.30421 289.332 9.96801C289.677 10.62 289.849 11.3549 289.849 12.1728C289.849 12.9314 289.695 13.5952 289.388 14.1642C289.093 14.7213 288.65 15.1599 288.059 15.4799C287.481 15.7881 286.767 15.9422 285.918 15.9422ZM280.419 8.68782C279.841 8.68782 279.33 8.59892 278.887 8.42112C278.444 8.23146 278.069 7.92919 277.761 7.51432C277.454 7.08759 277.214 6.51269 277.042 5.78963L279.551 5.16732C279.687 5.77185 279.834 6.2045 279.994 6.46528C280.154 6.7142 280.376 6.83867 280.659 6.83867C280.843 6.83867 281.028 6.77347 281.212 6.64308C281.397 6.51269 281.643 6.26377 281.951 5.89631L282.726 4.95395C283.156 4.4324 283.562 4.02345 283.944 3.72711C284.325 3.41892 284.737 3.1937 285.18 3.05146C285.635 2.90921 286.177 2.83217 286.804 2.82031L286.952 4.88283C286.533 4.90654 286.171 4.97766 285.863 5.09619C285.568 5.20288 285.297 5.35697 285.051 5.55848C284.805 5.75999 284.547 6.0267 284.276 6.3586L283.667 7.08759C283.433 7.37208 283.156 7.63878 282.836 7.88771C282.517 8.12478 282.154 8.32036 281.748 8.47446C281.354 8.6167 280.911 8.68782 280.419 8.68782Z" fill="#FF5858"/>
<path d="M265.447 12.6919C265.447 11.8856 265.639 11.1625 266.024 10.5226C266.409 9.88264 266.954 9.3771 267.659 9.00595C268.364 8.6348 269.204 8.44922 270.178 8.44922C271.165 8.44922 272.005 8.6348 272.698 9.00595C273.39 9.3771 273.916 9.88264 274.275 10.5226C274.647 11.1625 274.832 11.8856 274.832 12.6919C274.832 13.4982 274.647 14.2213 274.275 14.8612C273.903 15.4883 273.364 15.9875 272.659 16.3586C271.967 16.717 271.127 16.8961 270.14 16.8961C269.165 16.8961 268.325 16.7106 267.62 16.3394C266.915 15.9683 266.377 15.4691 266.005 14.842C265.633 14.2021 265.447 13.4854 265.447 12.6919ZM268.024 12.6727C268.024 13.2614 268.197 13.7605 268.543 14.1701C268.902 14.5668 269.435 14.7652 270.14 14.7652C270.614 14.7652 271.005 14.6756 271.313 14.4965C271.621 14.3045 271.851 14.0485 272.005 13.7285C272.172 13.4086 272.255 13.0566 272.255 12.6727C272.255 12.084 272.069 11.5912 271.698 11.1945C271.339 10.7849 270.819 10.5801 270.14 10.5801C269.691 10.5801 269.306 10.6761 268.986 10.8681C268.678 11.0473 268.441 11.2969 268.274 11.6168C268.108 11.924 268.024 12.2759 268.024 12.6727Z" fill="#FF5858"/>
<path d="M258.701 15.9422C258.184 15.9422 257.686 15.8711 257.206 15.7288C256.738 15.5984 256.252 15.3554 255.748 14.9998C255.256 14.6442 254.714 14.1464 254.124 13.5063C253.853 13.21 253.632 12.9907 253.459 12.8484C253.299 12.6943 253.164 12.5936 253.053 12.5462C252.943 12.4869 252.82 12.4573 252.684 12.4573C252.524 12.4573 252.377 12.5224 252.241 12.6528C252.106 12.7832 252.038 12.961 252.038 13.1862C252.038 13.4826 252.106 13.7967 252.241 14.1286C252.389 14.4605 252.598 14.8161 252.869 15.1954L250.285 15.96C250.064 15.5451 249.873 15.1065 249.713 14.6442C249.566 14.1701 249.492 13.6604 249.492 13.1151C249.492 12.5699 249.627 12.0898 249.898 11.6749C250.168 11.2482 250.537 10.9163 251.005 10.6792C251.485 10.4303 252.026 10.3058 252.629 10.3058C253.195 10.3058 253.693 10.3888 254.124 10.5548C254.554 10.7207 254.954 10.9578 255.323 11.266C255.705 11.5742 256.092 11.9416 256.486 12.3684C256.843 12.7358 257.144 13.0262 257.39 13.2396C257.636 13.4411 257.87 13.5833 258.092 13.6663C258.325 13.7493 258.578 13.7908 258.848 13.7908C259.193 13.7908 259.482 13.6722 259.716 13.4352C259.949 13.1981 260.066 12.8425 260.066 12.3684C260.066 11.8112 259.937 11.3193 259.679 10.8926C259.42 10.4659 259.082 10.0865 258.664 9.75464C258.245 9.41089 257.802 9.09677 257.335 8.81228L258.793 6.83867C259.519 7.21798 260.171 7.66842 260.749 8.18997C261.327 8.71153 261.782 9.30421 262.115 9.96801C262.459 10.62 262.631 11.3549 262.631 12.1728C262.631 12.9314 262.478 13.5952 262.17 14.1642C261.875 14.7213 261.432 15.1599 260.841 15.4799C260.263 15.7881 259.549 15.9422 258.701 15.9422ZM253.201 8.68782C252.623 8.68782 252.112 8.59892 251.669 8.42112C251.226 8.23146 250.851 7.92919 250.544 7.51432C250.236 7.08759 249.996 6.51269 249.824 5.78963L252.334 5.16732C252.469 5.77185 252.617 6.2045 252.777 6.46528C252.937 6.7142 253.158 6.83867 253.441 6.83867C253.626 6.83867 253.81 6.77347 253.995 6.64308C254.179 6.51269 254.425 6.26377 254.733 5.89631L255.508 4.95395C255.939 4.4324 256.344 4.02345 256.726 3.72711C257.107 3.41892 257.519 3.1937 257.962 3.05146C258.418 2.90921 258.959 2.83217 259.586 2.82031L259.734 4.88283C259.316 4.90654 258.953 4.97766 258.645 5.09619C258.35 5.20288 258.079 5.35697 257.833 5.55848C257.587 5.75999 257.329 6.0267 257.058 6.3586L256.449 7.08759C256.215 7.37208 255.939 7.63878 255.619 7.88771C255.299 8.12478 254.936 8.32036 254.53 8.47446C254.136 8.6167 253.693 8.68782 253.201 8.68782Z" fill="#FF5858"/>
<path d="M230.572 15.9597C229.779 15.9597 229.141 15.8314 228.658 15.5747C228.187 15.3059 227.846 14.9637 227.636 14.5482C227.437 14.1327 227.338 13.6928 227.338 13.2284C227.338 12.6296 227.475 12.1346 227.747 11.7436C228.02 11.3525 228.379 11.0653 228.825 10.882C229.284 10.6865 229.767 10.5887 230.275 10.5887C230.919 10.5887 231.458 10.6987 231.892 10.9187C232.338 11.1264 232.703 11.3769 232.988 11.6702C233.286 11.9513 233.521 12.2018 233.694 12.4218L232.747 14.2916C232.61 13.9616 232.443 13.65 232.245 13.3567C232.059 13.0634 231.836 12.8251 231.576 12.6418C231.316 12.4463 231.006 12.3485 230.646 12.3485C230.374 12.3485 230.126 12.4218 229.903 12.5685C229.68 12.7151 229.569 12.9473 229.569 13.265C229.569 13.5461 229.661 13.7661 229.847 13.925C230.033 14.0838 230.281 14.1633 230.591 14.1633C231 14.1633 231.322 14.0533 231.557 13.8333C231.805 13.6133 231.978 13.32 232.078 12.9534C232.177 12.5868 232.226 12.1896 232.226 11.7619V11.3036C232.226 10.8026 232.158 10.3504 232.022 9.94712C231.885 9.54384 231.669 9.2261 231.371 8.99391C231.086 8.76172 230.702 8.64562 230.219 8.64562C229.922 8.64562 229.649 8.71284 229.401 8.84726C229.166 8.96947 228.968 9.14056 228.807 9.36053C228.645 9.5805 228.528 9.83714 228.453 10.1304H226.056C225.994 9.9349 225.883 9.72104 225.721 9.48885C225.573 9.24443 225.35 9.03668 225.052 8.86559C224.755 8.68228 224.346 8.59063 223.826 8.59063C223.392 8.59063 223.039 8.66395 222.766 8.8106C222.506 8.94503 222.376 9.17111 222.376 9.48885C222.376 9.61105 222.395 9.72715 222.432 9.83714C222.481 9.9349 222.568 10.0204 222.692 10.0938C222.804 10.1549 222.946 10.2099 223.12 10.2587C223.305 10.2954 223.59 10.3137 223.974 10.3137H225.071V12.2202H223.919C223.535 12.2202 223.237 12.2385 223.027 12.2752C222.816 12.3118 222.649 12.379 222.525 12.4768C222.438 12.5501 222.364 12.6418 222.302 12.7518C222.252 12.8495 222.227 12.9656 222.227 13.1001C222.227 13.3445 222.308 13.5461 222.469 13.705C222.642 13.8638 222.921 13.9433 223.305 13.9433C223.714 13.9433 224.08 13.8394 224.402 13.6317C224.736 13.4239 225.059 13.1489 225.368 12.8068L226.967 14.1999C226.632 14.5788 226.267 14.9026 225.87 15.1715C225.486 15.4281 225.059 15.6236 224.588 15.7581C224.117 15.8925 223.578 15.9597 222.971 15.9597C221.806 15.9597 220.926 15.7214 220.332 15.2448C219.749 14.756 219.458 14.1571 219.458 13.4483C219.458 13.1062 219.526 12.7884 219.663 12.4951C219.799 12.1896 220.01 11.9269 220.295 11.7069C220.592 11.4747 220.964 11.2914 221.41 11.157L221.391 11.3953C220.784 11.1753 220.332 10.8881 220.034 10.5337C219.749 10.1671 219.607 9.73326 219.607 9.23221C219.607 8.78005 219.768 8.3951 220.09 8.07736C220.425 7.7474 220.883 7.49077 221.465 7.30746C222.048 7.12415 222.717 7.03249 223.473 7.03249C224.142 7.03249 224.699 7.11193 225.145 7.2708C225.604 7.41744 226.006 7.63742 226.353 7.93071C226.713 8.21179 227.084 8.56008 227.468 8.97558L227.041 8.99391C227.338 8.57841 227.66 8.24234 228.007 7.98571C228.354 7.71685 228.726 7.52132 229.122 7.39911C229.531 7.26469 229.959 7.19747 230.405 7.19747C231.347 7.19747 232.133 7.36245 232.765 7.69241C233.397 8.02237 233.874 8.50508 234.196 9.14056C234.518 9.77603 234.679 10.552 234.679 11.4686C234.679 12.3729 234.531 13.1673 234.233 13.8516C233.936 14.5238 233.484 15.0431 232.877 15.4098C232.27 15.7764 231.501 15.9597 230.572 15.9597ZM238.991 12.3668C238.421 12.3668 237.95 12.2813 237.579 12.1102C237.207 11.9391 236.916 11.7252 236.705 11.4686C236.495 11.1997 236.346 10.9187 236.259 10.6254C236.172 10.3321 236.129 10.0632 236.129 9.81881C236.129 9.31776 236.21 8.90837 236.371 8.59063C236.532 8.27289 236.699 7.9796 236.872 7.71074L238.88 7.85739C238.607 8.11402 238.39 8.36455 238.229 8.60896C238.068 8.85337 237.988 9.165 237.988 9.54384C237.988 9.84936 238.081 10.0999 238.266 10.2954C238.465 10.4909 238.712 10.5887 239.01 10.5887C239.369 10.5887 239.635 10.5032 239.809 10.3321C239.995 10.1488 240.088 9.92268 240.088 9.65383C240.088 9.28721 239.933 9.03057 239.623 8.88393C239.326 8.72506 238.923 8.64562 238.415 8.64562H225.777L224.513 8.15068L222.227 8.64562H219.663V6.57422H236.817C237.573 6.57422 238.198 6.59866 238.694 6.64754C239.202 6.6842 239.629 6.75753 239.976 6.86751C240.335 6.9775 240.664 7.14859 240.961 7.38078C241.271 7.61298 241.519 7.90627 241.705 8.26067C241.89 8.61507 241.983 9.06112 241.983 9.59883C241.983 10.3932 241.717 11.0531 241.184 11.5786C240.664 12.1041 239.933 12.3668 238.991 12.3668Z" fill="#FF5858"/>
<path d="M207.406 15.9597C206.804 15.9597 206.271 15.8741 205.807 15.7031C205.343 15.532 204.873 15.2448 204.397 14.8415C203.933 14.426 203.375 13.8638 202.723 13.155C202.372 12.764 202.096 12.4951 201.896 12.3485C201.695 12.1896 201.463 12.1102 201.2 12.1102C201 12.1102 200.799 12.1896 200.598 12.3485C200.41 12.4951 200.316 12.7273 200.316 13.0451C200.316 13.4239 200.417 13.6866 200.617 13.8333C200.83 13.9799 201.075 14.0533 201.351 14.0533C201.651 14.0533 201.952 13.9311 202.253 13.6866C202.554 13.4422 202.767 13.039 202.893 12.4768L204.453 14.0899C204.203 14.4321 203.939 14.7498 203.664 15.0431C203.4 15.3242 203.068 15.5503 202.667 15.7214C202.266 15.8803 201.727 15.9597 201.05 15.9597C200.31 15.9597 199.702 15.8253 199.226 15.5564C198.762 15.2753 198.417 14.9148 198.191 14.4749C197.978 14.0227 197.872 13.5522 197.872 13.0634C197.872 12.4768 198.016 11.9696 198.304 11.5419C198.592 11.102 198.987 10.7598 199.489 10.5154C199.99 10.271 200.554 10.1488 201.181 10.1488C201.708 10.1488 202.172 10.216 202.573 10.3504C202.974 10.4848 203.363 10.7048 203.739 11.0103C204.127 11.3158 204.554 11.7191 205.018 12.2202C205.419 12.6479 205.751 12.9717 206.014 13.1917C206.277 13.4117 206.516 13.5583 206.729 13.6317C206.942 13.705 207.161 13.7416 207.387 13.7416C207.788 13.7416 208.108 13.6194 208.346 13.375C208.584 13.1306 208.703 12.7395 208.703 12.2018C208.703 11.5786 208.534 11.0103 208.196 10.4971C207.857 9.98379 207.393 9.54384 206.804 9.17722C206.215 8.8106 205.544 8.54786 204.792 8.38899L209.286 8.31566C209.7 8.58452 210.057 8.90837 210.358 9.28721C210.672 9.65383 210.91 10.0693 211.073 10.5337C211.236 10.9859 211.317 11.4808 211.317 12.0185C211.317 12.8129 211.167 13.5094 210.866 14.1083C210.565 14.6949 210.12 15.1531 209.531 15.4831C208.954 15.8008 208.246 15.9597 207.406 15.9597ZM215.511 12.3668C214.934 12.3668 214.458 12.2813 214.082 12.1102C213.706 11.9391 213.411 11.7252 213.198 11.4686C212.985 11.1997 212.834 10.9187 212.746 10.6254C212.659 10.3321 212.615 10.0632 212.615 9.81881C212.615 9.31776 212.696 8.90837 212.859 8.59063C213.022 8.27289 213.192 7.9796 213.367 7.71074L215.379 7.85739C215.116 8.11402 214.903 8.36455 214.74 8.60896C214.577 8.85337 214.495 9.165 214.495 9.54384C214.495 9.84936 214.589 10.0999 214.777 10.2954C214.978 10.4909 215.229 10.5887 215.53 10.5887C215.893 10.5887 216.163 10.5032 216.338 10.3321C216.514 10.1488 216.602 9.92268 216.602 9.65383C216.602 9.28721 216.451 9.03057 216.15 8.88393C215.849 8.72506 215.448 8.64562 214.947 8.64562H199.865V6.57422H213.311C214.075 6.57422 214.708 6.59866 215.21 6.64754C215.711 6.6842 216.138 6.75753 216.489 6.86751C216.852 6.9775 217.184 7.14859 217.485 7.38078C217.811 7.61298 218.062 7.90627 218.238 8.26067C218.426 8.61507 218.52 9.06112 218.52 9.59883C218.52 10.3932 218.256 11.0531 217.73 11.5786C217.203 12.1041 216.464 12.3668 215.511 12.3668Z" fill="#FF5858"/>
<path d="M184.732 11.5445C184.732 10.6661 184.935 9.8768 185.341 9.17649C185.747 8.46431 186.343 7.90051 187.129 7.48507C187.928 7.05777 188.905 6.84411 190.059 6.84411C191.226 6.84411 192.202 7.0459 192.989 7.44946C193.775 7.84116 194.365 8.38716 194.758 9.08747C195.164 9.78778 195.367 10.6008 195.367 11.5267C195.367 12.3932 195.17 13.1647 194.777 13.8413C194.384 14.5059 193.794 15.0282 193.008 15.408C192.221 15.776 191.238 15.96 190.059 15.96C188.879 15.96 187.89 15.7701 187.091 15.3902C186.305 15.0104 185.715 14.4881 185.322 13.8234C184.929 13.1587 184.732 12.3991 184.732 11.5445ZM187.376 11.313C187.376 12.0371 187.598 12.6365 188.042 13.1113C188.499 13.5742 189.171 13.8056 190.059 13.8056C190.655 13.8056 191.15 13.7047 191.543 13.503C191.936 13.2893 192.234 13.0044 192.437 12.6484C192.64 12.2804 192.741 11.865 192.741 11.402C192.741 10.9273 192.64 10.5 192.437 10.1201C192.247 9.7403 191.949 9.43762 191.543 9.2121C191.15 8.97471 190.655 8.85601 190.059 8.85601C189.45 8.85601 188.949 8.96877 188.556 9.1943C188.163 9.41982 187.865 9.72249 187.662 10.1023C187.471 10.4703 187.376 10.8738 187.376 11.313ZM189.26 8.69577C188.664 8.69577 188.137 8.60675 187.681 8.42871C187.224 8.23879 186.837 7.93612 186.52 7.52068C186.203 7.09337 185.956 6.5177 185.778 5.79365L188.366 5.1705C188.505 5.77585 188.657 6.20909 188.822 6.47022C188.987 6.71948 189.215 6.84411 189.507 6.84411C189.697 6.84411 189.888 6.77883 190.078 6.64826C190.268 6.5177 190.522 6.26844 190.839 5.90048L191.638 4.95684C192.082 4.43458 192.5 4.02508 192.893 3.72834C193.287 3.41973 193.712 3.1942 194.168 3.05177C194.637 2.90933 195.195 2.83218 195.842 2.82031L195.995 4.88563C195.563 4.90936 195.189 4.98058 194.872 5.09928C194.568 5.2061 194.289 5.36041 194.035 5.56219C193.781 5.76398 193.515 6.03104 193.236 6.36339L192.608 7.09337C192.367 7.37824 192.082 7.64531 191.752 7.89457C191.422 8.13197 191.048 8.32781 190.63 8.48212C190.224 8.62455 189.767 8.69577 189.26 8.69577Z" fill="#FF5858"/>
<path d="M166.153 23.4683C165.354 23.4683 164.74 23.3804 164.309 23.2047C163.878 23.029 163.497 22.7906 163.168 22.4894H163.282C162.927 22.8784 162.566 23.1357 162.198 23.2612C161.818 23.3992 161.381 23.4683 160.886 23.4683C160.405 23.4683 159.98 23.3553 159.612 23.1294C159.245 22.9161 158.96 22.6023 158.757 22.1882C158.554 21.774 158.453 21.2783 158.453 20.701C158.453 19.948 158.662 19.2829 159.08 18.7056C159.486 18.1409 160.075 17.6954 160.848 17.3691C161.621 17.0553 162.534 16.8984 163.586 16.8984C164.461 16.8984 165.221 16.9549 165.868 17.0679C166.501 17.1808 167.173 17.3565 167.883 17.595L167.142 19.2892C166.647 19.1009 166.216 18.9566 165.849 18.8562C165.468 18.7558 165.107 18.6868 164.765 18.6491C164.41 18.6115 164.023 18.5927 163.605 18.5927C162.895 18.5927 162.312 18.6868 161.856 18.875C161.4 19.0758 161.07 19.3331 160.867 19.6468C160.652 19.9606 160.544 20.312 160.544 20.701C160.544 21.0273 160.62 21.2846 160.772 21.4728C160.912 21.6736 161.121 21.774 161.4 21.774C161.653 21.774 161.869 21.6799 162.046 21.4917C162.211 21.316 162.312 21.0713 162.35 20.7575H164.176C164.201 20.9709 164.252 21.1591 164.328 21.3222C164.404 21.4854 164.524 21.6109 164.689 21.6987C164.854 21.7866 165.082 21.8305 165.373 21.8305C165.513 21.8431 165.665 21.8556 165.83 21.8682C165.982 21.8933 166.147 21.9058 166.324 21.9058C166.577 21.9058 166.78 21.8619 166.932 21.774C167.072 21.6987 167.142 21.5732 167.142 21.3975C167.142 21.272 167.097 21.1717 167.008 21.0964C166.907 21.0211 166.768 20.9834 166.59 20.9834C166.425 20.9834 166.292 21.0336 166.191 21.134C166.077 21.2344 166.02 21.3913 166.02 21.6046C166.02 21.7678 166.064 21.9121 166.153 22.0376C166.229 22.1756 166.337 22.3011 166.476 22.4141L165.069 22.7718C164.917 22.5584 164.809 22.3137 164.746 22.0376C164.67 21.7615 164.632 21.5419 164.632 21.3787C164.632 20.8265 164.809 20.3747 165.164 20.0233C165.506 19.6719 166.007 19.4963 166.666 19.4963C167.3 19.4963 167.813 19.6719 168.206 20.0233C168.587 20.3873 168.777 20.8328 168.777 21.3599C168.777 21.7113 168.701 22.0439 168.549 22.3576C168.384 22.6839 168.111 22.9475 167.731 23.1482C167.351 23.3616 166.825 23.4683 166.153 23.4683Z" fill="#FF5858"/>
<path d="M172.206 15.9597C171.231 15.9597 170.41 15.7458 169.743 15.3181C169.076 14.8904 168.441 14.3527 167.838 13.705L169.32 12.1285C169.589 12.4218 169.871 12.6907 170.166 12.9351C170.449 13.1795 170.756 13.375 171.09 13.5217C171.436 13.6683 171.808 13.7416 172.206 13.7416C172.655 13.7416 173.001 13.6194 173.245 13.375C173.489 13.1306 173.611 12.764 173.611 12.2752C173.611 11.7008 173.476 11.1936 173.206 10.7537C172.937 10.3137 172.584 9.92268 172.148 9.5805C171.712 9.2261 171.25 8.90226 170.763 8.60896L172.283 6.57422C173.04 6.96528 173.72 7.42966 174.322 7.96737C174.925 8.50508 175.4 9.11612 175.746 9.80048C176.105 10.4726 176.285 11.2303 176.285 12.0735C176.285 13.2467 175.939 14.1877 175.246 14.8965C174.553 15.6053 173.54 15.9597 172.206 15.9597Z" fill="#FF5858"/>
<path d="M165.196 15.96C164.48 15.96 163.87 15.8947 163.368 15.7641C162.865 15.6454 162.438 15.4733 162.086 15.2478C161.734 15.0104 161.42 14.7374 161.144 14.4288L161.276 14.4466C160.974 14.862 160.654 15.1825 160.315 15.408C159.988 15.6217 159.636 15.7641 159.259 15.8353C158.895 15.9184 158.487 15.96 158.034 15.96C157.042 15.96 156.238 15.6276 155.622 14.9629C155.006 14.2982 154.698 13.3546 154.698 12.132C154.698 10.9925 154.994 10.0311 155.584 9.24771C156.175 8.45244 157.01 7.85303 158.091 7.44946C159.171 7.0459 160.434 6.84411 161.879 6.84411C162.645 6.84411 163.343 6.88566 163.971 6.96874C164.599 7.05183 165.208 7.17646 165.799 7.34264C166.389 7.49694 167.011 7.69872 167.665 7.94799L166.515 9.94208C165.837 9.65721 165.24 9.43762 164.725 9.28332C164.222 9.12901 163.738 9.02219 163.274 8.96284C162.809 8.89162 162.3 8.85601 161.747 8.85601C160.717 8.85601 159.875 8.99845 159.222 9.28332C158.568 9.55632 158.085 9.93021 157.77 10.405C157.469 10.8679 157.318 11.3842 157.318 11.954C157.318 12.6187 157.431 13.0935 157.657 13.3783C157.884 13.6632 158.198 13.8056 158.6 13.8056C159.014 13.8056 159.347 13.6632 159.599 13.3783C159.862 13.0935 160.019 12.6958 160.07 12.1854H162.388C162.425 12.6484 162.57 13.0222 162.821 13.3071C163.085 13.592 163.525 13.776 164.141 13.8591C164.329 13.8947 164.536 13.9243 164.762 13.9481C165.001 13.9599 165.252 13.9659 165.516 13.9659C165.868 13.9659 166.144 13.9006 166.346 13.77C166.547 13.6395 166.647 13.4258 166.647 13.1291C166.647 12.9273 166.572 12.7611 166.421 12.6305C166.283 12.5 166.088 12.4347 165.837 12.4347C165.598 12.4347 165.391 12.5 165.215 12.6305C165.051 12.7611 164.97 12.9748 164.97 13.2715C164.97 13.4852 165.026 13.6869 165.139 13.8769C165.252 14.0549 165.409 14.2151 165.611 14.3576L163.782 14.8561C163.569 14.5712 163.405 14.2448 163.292 13.8769C163.192 13.497 163.142 13.1944 163.142 12.9688C163.142 12.2448 163.38 11.6632 163.858 11.224C164.348 10.773 165.033 10.5474 165.912 10.5474C166.49 10.5474 166.993 10.6602 167.42 10.8857C167.847 11.1112 168.18 11.4198 168.419 11.8115C168.657 12.1914 168.777 12.6187 168.777 13.0935C168.777 13.4496 168.714 13.7997 168.588 14.1439C168.475 14.4881 168.28 14.7968 168.004 15.0698C167.74 15.3428 167.376 15.5623 166.911 15.7285C166.446 15.8828 165.874 15.96 165.196 15.96ZM161.2 8.69577C160.61 8.69577 160.089 8.60675 159.636 8.42871C159.184 8.23879 158.801 7.93612 158.487 7.52068C158.172 7.09337 157.927 6.5177 157.752 5.79365L160.315 5.1705C160.453 5.77585 160.604 6.20909 160.767 6.47022C160.93 6.71948 161.156 6.84411 161.445 6.84411C161.634 6.84411 161.822 6.77883 162.011 6.64826C162.199 6.5177 162.451 6.26844 162.765 5.90048L163.556 4.95684C163.996 4.43458 164.411 4.02508 164.8 3.72834C165.19 3.41973 165.611 3.1942 166.063 3.05177C166.528 2.90933 167.081 2.83218 167.721 2.82031L167.872 4.88563C167.445 4.90936 167.074 4.98058 166.76 5.09928C166.459 5.2061 166.182 5.36041 165.931 5.56219C165.68 5.76398 165.416 6.03104 165.139 6.36339L164.517 7.09337C164.279 7.37824 163.996 7.64531 163.669 7.89457C163.343 8.13197 162.972 8.32781 162.557 8.48212C162.155 8.62455 161.703 8.69577 161.2 8.69577Z" fill="#FF5858"/>
<path d="M138.743 11.4576C138.743 10.5621 138.947 9.7574 139.354 9.04343C139.761 8.31737 140.359 7.74256 141.148 7.31902C141.95 6.88338 142.93 6.66557 144.088 6.66557C145.259 6.66557 146.239 6.87128 147.028 7.28272C147.817 7.68206 148.409 8.23871 148.803 8.95267C149.21 9.66664 149.414 10.4956 149.414 11.4395C149.414 12.3228 149.217 13.1094 148.822 13.7992C148.428 14.4768 147.836 15.0093 147.047 15.3965C146.258 15.7716 145.272 15.9592 144.088 15.9592C142.905 15.9592 141.912 15.7656 141.11 15.3784C140.321 14.9911 139.729 14.4587 139.335 13.781C138.94 13.1034 138.743 12.3289 138.743 11.4576ZM141.397 11.2216C141.397 11.9598 141.619 12.5709 142.065 13.0549C142.523 13.5269 143.197 13.7629 144.088 13.7629C144.686 13.7629 145.183 13.66 145.577 13.4543C145.972 13.2365 146.271 12.946 146.474 12.583C146.678 12.2079 146.78 11.7843 146.78 11.3124C146.78 10.8283 146.678 10.3927 146.474 10.0055C146.283 9.61823 145.984 9.30966 145.577 9.07973C145.183 8.83771 144.686 8.7167 144.088 8.7167C143.477 8.7167 142.975 8.83166 142.58 9.06158C142.186 9.2915 141.887 9.60008 141.683 9.98732C141.492 10.3625 141.397 10.7739 141.397 11.2216ZM151.934 8.48073C151.348 8.48073 150.865 8.39602 150.483 8.22661C150.101 8.05719 149.796 7.84542 149.567 7.5913C149.35 7.32508 149.198 7.04675 149.109 6.75632C149.019 6.4659 148.975 6.20572 148.975 5.9758C148.975 5.47966 149.058 5.07427 149.223 4.75964C149.401 4.43291 149.579 4.14248 149.758 3.88836L151.8 4.01542C151.52 4.26955 151.297 4.51762 151.132 4.75964C150.967 5.00166 150.884 5.31024 150.884 5.68537C150.884 5.9879 150.979 6.23598 151.17 6.42959C151.374 6.62321 151.635 6.72002 151.953 6.72002C152.335 6.72002 152.608 6.62926 152.774 6.44774C152.952 6.26623 153.041 6.04841 153.041 5.79428C153.041 5.44335 152.888 5.18923 152.583 5.03192C152.277 4.8746 151.864 4.79594 151.342 4.79594H148.612C148.18 4.79594 147.842 4.8988 147.601 5.10452C147.359 5.31024 147.206 5.63697 147.142 6.08471H144.814C144.724 5.68538 144.559 5.37075 144.317 5.14083C144.088 4.9109 143.719 4.79594 143.21 4.79594H143C142.72 4.79594 142.478 4.88065 142.275 5.05007C142.071 5.21948 141.969 5.4615 141.969 5.77613C141.969 5.96975 142.014 6.13312 142.103 6.26623C142.205 6.39934 142.345 6.5022 142.523 6.57481C142.701 6.63531 142.905 6.66557 143.134 6.66557H143.783V8.64409H143.286C142.548 8.64409 141.899 8.52308 141.339 8.28106C140.792 8.02694 140.366 7.66996 140.06 7.21011C139.755 6.75027 139.602 6.21177 139.602 5.59462C139.602 4.75964 139.889 4.08198 140.461 3.56163C141.047 3.02918 141.842 2.76296 142.847 2.76296H143.076C143.636 2.76296 144.12 2.84162 144.527 2.99893C144.934 3.14414 145.265 3.34381 145.52 3.59793C145.774 3.85206 145.952 4.12433 146.054 4.41476H145.882C146.035 4.11223 146.232 3.83996 146.474 3.59793C146.716 3.34381 147.047 3.14414 147.467 2.99893C147.887 2.84162 148.434 2.76296 149.109 2.76296H150.254C151.081 2.76296 151.787 2.81136 152.373 2.90817C152.958 2.99288 153.474 3.1986 153.919 3.52533C154.25 3.75525 154.511 4.04568 154.702 4.39661C154.893 4.74754 154.988 5.19528 154.988 5.73983C154.988 6.5385 154.721 7.19801 154.186 7.71836C153.652 8.22661 152.901 8.48073 151.934 8.48073ZM152.545 0.00390625C153.359 0.00390625 154.014 0.167271 154.511 0.494001C155.007 0.80863 155.382 1.25637 155.637 1.83722L153.69 2.29101C153.614 2.1579 153.525 2.04294 153.423 1.94613C153.321 1.84932 153.2 1.77672 153.06 1.72831C152.92 1.67991 152.755 1.65571 152.564 1.65571C152.246 1.65571 151.997 1.72831 151.819 1.87353C151.654 2.00664 151.571 2.18211 151.571 2.39993C151.571 2.62985 151.641 2.84162 151.781 3.03523C151.921 3.21675 152.112 3.38011 152.354 3.52533L150.407 4.21509C150.165 4.00937 149.942 3.7371 149.738 3.39827C149.548 3.04733 149.452 2.648 149.452 2.20026C149.452 1.81302 149.56 1.45604 149.777 1.12931C149.993 0.790478 150.33 0.518203 150.788 0.312485C151.247 0.106766 151.832 0.00390625 152.545 0.00390625Z" fill="#FF5858"/>
<path d="M126.058 6.57422C126.867 6.57422 127.541 6.74214 128.081 7.07797C128.62 7.41381 129.054 7.8576 129.382 8.40933C129.71 8.96107 129.945 9.57277 130.085 10.2444C130.226 10.9041 130.296 11.5698 130.296 12.2415C130.296 13.4529 130.15 14.5924 129.857 15.6598C129.575 16.7273 129.165 17.7228 128.626 18.6464C128.098 19.5819 127.465 20.4455 126.727 21.2371C125.988 22.0408 125.173 22.7844 124.282 23.4681L122.788 21.7769C123.491 21.2132 124.154 20.6075 124.775 19.9598C125.408 19.3121 125.959 18.6044 126.428 17.8368C126.908 17.0812 127.283 16.2476 127.553 15.336C127.823 14.4244 127.958 13.4109 127.958 12.2955C127.958 11.8877 127.922 11.4559 127.852 11.0001C127.793 10.5443 127.688 10.1185 127.536 9.7227C127.395 9.32689 127.196 9.00305 126.938 8.75117C126.691 8.49929 126.375 8.37335 125.988 8.37335C125.742 8.37335 125.531 8.44532 125.355 8.58925C125.179 8.73318 125.091 8.92508 125.091 9.16497C125.091 9.40485 125.156 9.59676 125.285 9.74069C125.414 9.87263 125.572 9.96258 125.76 10.0106C125.959 10.0585 126.146 10.0825 126.322 10.0825C126.803 10.0825 127.213 9.95059 127.553 9.68672C127.893 9.41085 128.21 9.11699 128.503 8.80514L129.136 10.6582C128.725 10.9581 128.274 11.234 127.782 11.4858C127.301 11.7377 126.703 11.8637 125.988 11.8637C125.097 11.8637 124.37 11.6478 123.808 11.216C123.257 10.7842 122.981 10.1125 122.981 9.20095C122.981 8.69719 123.098 8.24741 123.333 7.8516C123.567 7.45579 123.913 7.14394 124.37 6.91605C124.828 6.68816 125.39 6.57422 126.058 6.57422Z" fill="#FF5858"/>
<path d="M116.199 23.4683C115.66 23.4683 115.218 23.3679 114.874 23.1671C114.519 22.9663 114.181 22.6525 113.862 22.2258H114.286C113.991 22.5396 113.715 22.7843 113.457 22.96C113.188 23.1482 112.905 23.28 112.611 23.3553C112.316 23.4306 111.961 23.4683 111.544 23.4683C110.832 23.4683 110.268 23.3114 109.85 22.9977C109.433 22.6839 109.139 22.2823 108.967 21.7929C108.795 21.316 108.709 20.8265 108.709 20.3245C108.709 19.5967 108.857 18.9754 109.151 18.4609C109.433 17.9589 109.82 17.5699 110.311 17.2938C110.801 17.0302 111.353 16.8984 111.967 16.8984C112.727 16.8984 113.304 17.0804 113.697 17.4444C114.077 17.8209 114.267 18.2789 114.267 18.8186C114.267 19.4461 114.071 19.9229 113.678 20.2492C113.273 20.5755 112.672 20.7387 111.875 20.7387C111.445 20.7387 111.059 20.6508 110.715 20.4751C110.36 20.312 110.053 20.1112 109.795 19.8727L110.292 18.5927C110.439 18.7935 110.636 18.9817 110.881 19.1574C111.114 19.3331 111.384 19.421 111.691 19.421C111.961 19.421 112.175 19.3708 112.335 19.2704C112.482 19.1825 112.556 19.0382 112.556 18.8374C112.556 18.6993 112.513 18.5676 112.427 18.4421C112.329 18.3291 112.175 18.2726 111.967 18.2726C111.636 18.2726 111.335 18.4107 111.065 18.6868C110.795 18.9629 110.66 19.4523 110.66 20.1551V20.3622C110.66 20.6759 110.703 20.9395 110.789 21.1528C110.863 21.3662 110.991 21.523 111.175 21.6234C111.347 21.7238 111.568 21.774 111.838 21.774C112.316 21.774 112.648 21.6611 112.832 21.4352C113.003 21.2219 113.108 20.996 113.145 20.7575H114.93C114.991 21.2093 115.132 21.4917 115.353 21.6046C115.561 21.7176 115.801 21.774 116.071 21.774C116.39 21.774 116.623 21.6799 116.77 21.4917C116.905 21.3034 116.972 21.0838 116.972 20.8328C116.972 20.3183 116.782 19.8853 116.402 19.5339C116.022 19.1825 115.592 18.8688 115.114 18.5927L116.291 16.8984C116.807 17.162 117.273 17.482 117.69 17.8585C118.107 18.235 118.438 18.6617 118.684 19.1386C118.917 19.6155 119.033 20.1488 119.033 20.7387C119.033 21.5544 118.794 22.2133 118.316 22.7153C117.825 23.2173 117.12 23.4683 116.199 23.4683Z" fill="#FF5858"/>
<path d="M116.433 16.433C115.827 16.433 115.291 16.347 114.824 16.1748C114.357 16.0027 113.883 15.7137 113.404 15.3079C112.936 14.8898 112.375 14.3241 111.718 13.6109C111.365 13.2174 111.087 12.9469 110.885 12.7993C110.683 12.6394 110.449 12.5595 110.184 12.5595C109.982 12.5595 109.78 12.6394 109.578 12.7993C109.389 12.9469 109.294 13.1805 109.294 13.5002C109.294 13.8814 109.395 14.1458 109.597 14.2934C109.812 14.4409 110.058 14.5147 110.336 14.5147C110.639 14.5147 110.942 14.3918 111.245 14.1458C111.548 13.8999 111.762 13.4941 111.889 12.9284L113.46 14.5516C113.208 14.8959 112.943 15.2156 112.665 15.5108C112.4 15.7936 112.065 16.0211 111.661 16.1933C111.257 16.3531 110.715 16.433 110.033 16.433C109.288 16.433 108.676 16.2978 108.196 16.0272C107.729 15.7444 107.382 15.3817 107.154 14.939C106.94 14.4963 106.833 14.029 106.833 13.5371C106.833 12.9346 106.978 12.4181 107.268 11.9877C107.558 11.545 107.956 11.2007 108.461 10.9548C108.966 10.7088 109.534 10.5858 110.165 10.5858C110.696 10.5858 111.163 10.6535 111.567 10.7887C111.971 10.924 112.362 11.1454 112.741 11.4528C113.132 11.7602 113.561 12.166 114.028 12.6702C114.432 13.1006 114.761 13.4264 115.013 13.6478C115.278 13.8691 115.518 14.0167 115.733 14.0905C115.96 14.1643 116.219 14.2011 116.509 14.2011C116.863 14.2011 117.153 14.0782 117.38 13.8322C117.62 13.5863 117.74 13.2174 117.74 12.7255C117.74 12.1476 117.607 11.6372 117.342 11.1945C117.077 10.7519 116.73 10.3583 116.301 10.014C115.884 9.65742 115.436 9.33155 114.956 9.03643L116.433 6.98898C117.178 7.38248 117.847 7.84977 118.441 8.39083C119.034 8.9319 119.501 9.54675 119.842 10.2354C120.195 10.9117 120.372 11.6741 120.372 12.5226C120.372 13.3096 120.221 13.9982 119.918 14.5885C119.615 15.1665 119.167 15.6214 118.573 15.9535C117.993 16.2732 117.279 16.433 116.433 16.433ZM119.274 18.7756C118.567 18.7756 117.999 18.6649 117.57 18.4436C117.153 18.2223 116.85 17.9333 116.661 17.5767C116.484 17.2201 116.396 16.8388 116.396 16.433C116.396 16.2732 116.408 16.1072 116.433 15.935C116.471 15.7629 116.522 15.5969 116.585 15.437H119.028C118.965 15.5354 118.914 15.6337 118.876 15.7321C118.838 15.8182 118.819 15.9043 118.819 15.9904C118.819 16.1256 118.851 16.2486 118.914 16.3593C118.977 16.4699 119.066 16.556 119.179 16.6175C119.293 16.679 119.425 16.7097 119.577 16.7097C119.779 16.7097 119.956 16.6728 120.107 16.5991C120.271 16.5376 120.467 16.4269 120.694 16.267L121.849 17.8902C121.445 18.1854 121.035 18.4067 120.618 18.5543C120.214 18.7018 119.766 18.7756 119.274 18.7756ZM110.639 8.90731C110.045 8.90731 109.522 8.81508 109.067 8.63063C108.613 8.43388 108.228 8.1203 107.912 7.68991C107.596 7.24722 107.35 6.65082 107.173 5.9007L109.749 5.25511C109.888 5.88226 110.039 6.33109 110.203 6.60163C110.367 6.85986 110.595 6.98898 110.885 6.98898C111.074 6.98898 111.264 6.92135 111.453 6.78608C111.642 6.65082 111.895 6.39258 112.211 6.01137L113.006 5.03377C113.448 4.4927 113.864 4.06845 114.256 3.76103C114.647 3.44131 115.07 3.20767 115.524 3.0601C115.992 2.91254 116.547 2.83261 117.191 2.82031L117.342 4.95998C116.913 4.98458 116.541 5.05836 116.225 5.18133C115.922 5.292 115.644 5.45186 115.392 5.66091C115.139 5.86996 114.874 6.14664 114.597 6.49095L113.972 7.24722C113.732 7.54234 113.448 7.81903 113.119 8.07726C112.791 8.3232 112.419 8.5261 112.002 8.68596C111.598 8.83353 111.144 8.90731 110.639 8.90731Z" fill="#FF5858"/>
<path d="M88.0615 11.4136C88.0615 10.5093 88.2618 9.73326 88.6622 9.08557C89.0626 8.43787 89.6508 7.93682 90.4267 7.58242C91.215 7.22802 92.1724 7.05082 93.2986 7.05082C94.4624 7.05082 95.4323 7.2158 96.2081 7.54576C96.984 7.87572 97.5659 8.36455 97.9538 9.01224C98.3543 9.64772 98.5545 10.4421 98.5545 11.3953C98.5545 12.2874 98.3605 13.0817 97.9726 13.7783C97.5847 14.4627 96.9965 15.0004 96.2081 15.3914C95.4323 15.7703 94.4624 15.9597 93.2986 15.9597C92.1473 15.9597 91.1775 15.7642 90.3891 15.3731C89.6133 14.982 89.0314 14.4443 88.6434 13.76C88.2555 13.0756 88.0615 12.2935 88.0615 11.4136ZM90.6707 11.1753C90.6707 11.9208 90.8897 12.5379 91.3277 13.0267C91.7782 13.5033 92.4352 13.7416 93.2986 13.7416C93.8868 13.7416 94.3748 13.6378 94.7628 13.43C95.1632 13.21 95.4573 12.9167 95.645 12.5501C95.8452 12.1713 95.9453 11.7436 95.9453 11.267C95.9453 10.7781 95.8452 10.3382 95.645 9.94712C95.4573 9.55606 95.1695 9.24443 94.7815 9.01224C94.3936 8.76783 93.8993 8.64562 93.2986 8.64562C92.7105 8.64562 92.2162 8.76172 91.8157 8.99391C91.4278 9.2261 91.14 9.53773 90.9523 9.92879C90.7645 10.3076 90.6707 10.7231 90.6707 11.1753ZM102.891 12.3668C102.315 12.3668 101.839 12.2813 101.464 12.1102C101.089 11.9391 100.788 11.7252 100.563 11.4686C100.35 11.1997 100.2 10.9187 100.112 10.6254C100.025 10.3321 99.9811 10.0632 99.9811 9.81881C99.9811 9.3422 100.062 8.93892 100.225 8.60896C100.4 8.279 100.575 7.9796 100.751 7.71074L102.759 7.85739C102.484 8.11402 102.265 8.36455 102.102 8.60896C101.94 8.85337 101.858 9.165 101.858 9.54384C101.858 9.84936 101.952 10.0999 102.14 10.2954C102.34 10.4909 102.596 10.5887 102.909 10.5887C103.272 10.5887 103.541 10.5032 103.716 10.3321C103.892 10.1488 103.979 9.92268 103.979 9.65383C103.979 9.28721 103.829 9.03057 103.529 8.88393C103.228 8.72506 102.822 8.64562 102.309 8.64562H88.2305V6.57422H100.694C101.458 6.57422 102.09 6.59866 102.59 6.64754C103.091 6.6842 103.516 6.75753 103.867 6.86751C104.23 6.9775 104.561 7.14859 104.862 7.38078C105.174 7.61298 105.425 7.90627 105.612 8.26067C105.8 8.61507 105.894 9.06112 105.894 9.59883C105.894 10.3932 105.631 11.0531 105.106 11.5786C104.58 12.1041 103.842 12.3668 102.891 12.3668Z" fill="#FF5858"/>
<path d="M75.5625 15.9597C74.7802 15.9597 74.1507 15.8314 73.674 15.5747C73.2095 15.3059 72.8733 14.9637 72.6655 14.5482C72.4699 14.1327 72.3721 13.6928 72.3721 13.2284C72.3721 12.6296 72.5066 12.1346 72.7755 11.7436C73.0444 11.3525 73.3989 11.0653 73.839 10.882C74.2913 10.6865 74.768 10.5887 75.2691 10.5887C75.9048 10.5887 76.4365 10.6987 76.8643 10.9187C77.3044 11.1264 77.665 11.3769 77.9461 11.6702C78.2395 11.9513 78.4717 12.2018 78.6429 12.4218L77.7078 14.2916C77.5733 13.9616 77.4083 13.65 77.2127 13.3567C77.0294 13.0634 76.8093 12.8251 76.5526 12.6418C76.2959 12.4463 75.9903 12.3485 75.6359 12.3485C75.3669 12.3485 75.1225 12.4218 74.9024 12.5685C74.6824 12.7151 74.5724 12.9473 74.5724 13.265C74.5724 13.5461 74.6641 13.7661 74.8474 13.925C75.0308 14.0838 75.2753 14.1633 75.5809 14.1633C75.9842 14.1633 76.302 14.0533 76.5343 13.8333C76.7788 13.6133 76.9499 13.32 77.0477 12.9534C77.1455 12.5868 77.1944 12.1896 77.1944 11.7619V11.4136C77.1944 10.9003 77.1271 10.4482 76.9927 10.0571C76.8582 9.66605 76.6443 9.36053 76.3509 9.14056C76.0576 8.90837 75.6725 8.79227 75.1958 8.79227C74.9024 8.79227 74.6396 8.85337 74.4074 8.97558C74.1751 9.08557 73.9796 9.24444 73.8206 9.45219C73.674 9.64772 73.5578 9.8738 73.4723 10.1304H71.107C71.0459 9.9349 70.9359 9.72104 70.777 9.48885C70.6303 9.24443 70.4102 9.03668 70.1169 8.86559C69.8235 8.68228 69.4201 8.59063 68.9067 8.59063C68.4789 8.59063 68.1305 8.66395 67.8616 8.8106C67.6049 8.94503 67.4766 9.17111 67.4766 9.48885C67.4766 9.61105 67.4949 9.72715 67.5316 9.83714C67.5805 9.9349 67.666 10.0204 67.7883 10.0938C67.8983 10.1549 68.0389 10.2099 68.21 10.2587C68.3933 10.2954 68.6745 10.3137 69.0534 10.3137H70.1352V12.2202H68.9984C68.6195 12.2202 68.3261 12.2385 68.1183 12.2752C67.9105 12.3118 67.7455 12.379 67.6233 12.4768C67.5377 12.5501 67.4643 12.6418 67.4032 12.7518C67.3543 12.8495 67.3299 12.9656 67.3299 13.1001C67.3299 13.3445 67.4093 13.5461 67.5682 13.705C67.7394 13.8638 68.0144 13.9433 68.3933 13.9433C68.7967 13.9433 69.1573 13.8394 69.4751 13.6317C69.8052 13.4239 70.123 13.1489 70.4286 12.8068L72.0054 14.1999C71.6754 14.5788 71.3148 14.9026 70.9236 15.1715C70.5447 15.4281 70.123 15.6236 69.6585 15.7581C69.194 15.8925 68.6623 15.9597 68.0633 15.9597C66.9143 15.9597 66.0464 15.7214 65.4597 15.2448C64.8852 14.756 64.5979 14.1571 64.5979 13.4483C64.5979 13.1062 64.6651 12.7884 64.7996 12.4951C64.9341 12.1896 65.1418 11.9269 65.423 11.7069C65.7164 11.4747 66.0831 11.2914 66.5231 11.157L66.5048 11.3953C65.8936 11.1875 65.4474 10.8759 65.1663 10.4604C64.8852 10.0449 64.7446 9.58661 64.7446 9.08557C64.7446 8.32789 65.0746 7.72296 65.7347 7.2708C66.3948 6.80641 67.2688 6.57422 68.3567 6.57422C69.0045 6.57422 69.5546 6.63532 70.0069 6.75753C70.4714 6.86751 70.8992 7.05082 71.2903 7.30746C71.6815 7.55187 72.0788 7.88794 72.4822 8.31566L72.0971 8.334C72.3783 7.96737 72.6716 7.65575 72.9772 7.39911C73.295 7.13026 73.6495 6.92862 74.0407 6.79419C74.4441 6.64754 74.9208 6.57422 75.4708 6.57422C76.3876 6.57422 77.1516 6.78197 77.7628 7.19747C78.374 7.60075 78.8323 8.16902 79.1379 8.90226C79.4557 9.62328 79.6147 10.4543 79.6147 11.3953C79.6147 12.3607 79.468 13.1856 79.1746 13.87C78.8812 14.5421 78.4351 15.0615 77.8361 15.4281C77.2372 15.7825 76.4793 15.9597 75.5625 15.9597Z" fill="#FF5858"/>
<path d="M50.1109 7.0361C51.1744 7.0361 52.0923 7.19006 52.8646 7.49799C53.6369 7.80591 54.2319 8.26779 54.6497 8.88364C55.0675 9.49948 55.2764 10.2631 55.2764 11.1746C55.2764 11.9259 55.2068 12.591 55.0675 13.1699C54.9283 13.7488 54.751 14.2661 54.5358 14.7218C54.3205 15.1653 54.1053 15.5779 53.8901 15.9597L51.3453 14.999C51.5605 14.7157 51.7631 14.4016 51.953 14.0567C52.1556 13.6995 52.3202 13.3054 52.4468 12.8743C52.5734 12.4432 52.6367 11.9752 52.6367 11.4702C52.6367 10.9898 52.5544 10.5341 52.3898 10.103C52.2252 9.67192 51.953 9.32704 51.5732 9.06839C51.206 8.79742 50.6996 8.66193 50.0539 8.66193C49.5349 8.66193 49.0854 8.77894 48.7056 9.01296C48.3384 9.24698 48.0536 9.57338 47.851 9.99216C47.6484 10.3986 47.5471 10.8728 47.5471 11.4148C47.5471 12.1291 47.6674 12.7881 47.908 13.3916C48.1485 13.9828 48.4587 14.5125 48.8385 14.9805L46.2748 15.9597C45.8823 15.3069 45.5531 14.5925 45.2872 13.8166C45.0214 13.0406 44.8884 12.2215 44.8884 11.3593C44.8884 10.5464 45.0847 9.81356 45.4771 9.16077C45.8823 8.50797 46.471 7.99066 47.2433 7.60884C48.0156 7.22701 48.9715 7.0361 50.1109 7.0361ZM59.6633 12.4124C59.0809 12.4124 58.5998 12.3262 58.22 12.1538C57.8402 11.9813 57.5427 11.7658 57.3274 11.5071C57.1122 11.2362 56.9603 10.9529 56.8717 10.6573C56.783 10.3617 56.7387 10.0907 56.7387 9.84435C56.7387 9.364 56.821 8.95754 56.9856 8.62498C57.1628 8.29243 57.3401 7.99066 57.5173 7.71969L59.5494 7.86749C59.2708 8.12615 59.0493 8.37864 58.8847 8.62498C58.7201 8.87132 58.6378 9.1854 58.6378 9.56722C58.6378 9.87515 58.7328 10.1276 58.9227 10.3247C59.1252 10.5218 59.3848 10.6203 59.7013 10.6203C60.0684 10.6203 60.3406 10.5341 60.5179 10.3617C60.6951 10.1769 60.7838 9.94905 60.7838 9.67808C60.7838 9.30857 60.6318 9.04991 60.328 8.90211C60.0241 8.74199 59.619 8.66193 59.1126 8.66193H44.9834V6.57422H57.4604C58.2327 6.57422 58.872 6.59885 59.3784 6.64812C59.8849 6.68507 60.3153 6.75897 60.6698 6.86982C61.037 6.98068 61.3725 7.15311 61.6763 7.38713C61.9928 7.62115 62.2461 7.91676 62.436 8.27395C62.6259 8.63114 62.7208 9.08071 62.7208 9.62265C62.7208 10.4232 62.4486 11.0884 61.9042 11.618C61.3725 12.1476 60.6255 12.4124 59.6633 12.4124Z" fill="#FF5858"/>
<path d="M33.6257 12.6919C33.6257 11.8856 33.8181 11.1625 34.2027 10.5226C34.5874 9.88264 35.1323 9.3771 35.8375 9.00595C36.5427 8.6348 37.3825 8.44922 38.3569 8.44922C39.3442 8.44922 40.184 8.6348 40.8764 9.00595C41.5688 9.3771 42.0945 9.88264 42.4535 10.5226C42.8253 11.1625 43.0112 11.8856 43.0112 12.6919C43.0112 13.4982 42.8253 14.2213 42.4535 14.8612C42.0816 15.4883 41.5431 15.9875 40.8379 16.3586C40.1456 16.717 39.3057 16.8961 38.3185 16.8961C37.344 16.8961 36.5042 16.7106 35.799 16.3394C35.0938 15.9683 34.5553 15.4691 34.1835 14.842C33.8116 14.2021 33.6257 13.4854 33.6257 12.6919ZM36.2029 12.6727C36.2029 13.2614 36.376 13.7605 36.7222 14.1701C37.0812 14.5668 37.6133 14.7652 38.3185 14.7652C38.7929 14.7652 39.1839 14.6756 39.4917 14.4965C39.7994 14.3045 40.0302 14.0485 40.184 13.7285C40.3507 13.4086 40.434 13.0566 40.434 12.6727C40.434 12.084 40.2481 11.5912 39.8763 11.1945C39.5173 10.7849 38.998 10.5801 38.3185 10.5801C37.8697 10.5801 37.4851 10.6761 37.1645 10.8681C36.8568 11.0473 36.6196 11.2969 36.4529 11.6168C36.2862 11.924 36.2029 12.2759 36.2029 12.6727Z" fill="#FF5858"/>
<path d="M25.1787 15.9597C23.7643 15.9597 22.5669 15.7336 21.5867 15.2814C20.6065 14.8171 19.8621 14.1938 19.3533 13.4117C18.857 12.6173 18.6089 11.7252 18.6089 10.7354C18.6089 9.87991 18.7764 9.14056 19.1114 8.5173C19.4588 7.89405 19.9427 7.41744 20.5631 7.08749C21.1835 6.74531 21.8969 6.57422 22.7034 6.57422C23.4479 6.57422 24.0496 6.70865 24.5087 6.9775C24.9678 7.23413 25.3028 7.5702 25.5137 7.98571C25.7247 8.38899 25.8301 8.8106 25.8301 9.25055C25.8301 9.8127 25.706 10.2954 25.4579 10.6987C25.2097 11.102 24.8499 11.4075 24.3784 11.6152C23.9069 11.823 23.33 11.9269 22.6476 11.9269C22.1513 11.9269 21.7108 11.8597 21.3262 11.7252C20.9415 11.5908 20.6065 11.4258 20.3211 11.2303C20.0482 11.0348 19.8186 10.8576 19.6325 10.6987L20.0606 8.97558C20.2095 9.15889 20.3832 9.3422 20.5817 9.52551C20.7926 9.70882 21.0284 9.86158 21.2889 9.98379C21.5495 10.0938 21.8287 10.1488 22.1264 10.1488C22.5111 10.1488 22.8213 10.0816 23.057 9.94712C23.2928 9.80048 23.4106 9.56217 23.4106 9.23221C23.4106 9.02446 23.3362 8.83504 23.1873 8.66395C23.0384 8.48064 22.8213 8.38899 22.5359 8.38899C22.1016 8.38899 21.7418 8.5723 21.4564 8.93892C21.1711 9.29332 21.0284 9.72104 21.0284 10.2221V10.937C21.0284 11.2303 21.0904 11.5419 21.2145 11.8719C21.351 12.1896 21.5743 12.4951 21.8845 12.7884C22.2071 13.0695 22.6414 13.3017 23.1873 13.485C23.7456 13.6561 24.4405 13.7416 25.2718 13.7416C26.4381 13.7416 27.3749 13.5461 28.0821 13.155C28.8017 12.7518 29.1616 12.1224 29.1616 11.267C29.1616 10.6926 28.9817 10.216 28.6218 9.83714C28.2744 9.44608 27.7285 9.0489 26.984 8.64562L28.4357 6.57422C29.4159 7.05082 30.21 7.68019 30.818 8.46231C31.4384 9.23221 31.7486 10.1793 31.7486 11.3036C31.7486 12.1713 31.5128 12.9595 31.0413 13.6683C30.5822 14.3649 29.8688 14.9209 28.901 15.3364C27.9332 15.7519 26.6924 15.9597 25.1787 15.9597Z" fill="#FF5858"/>
<path d="M14.4532 5.7158C14.4532 6.14341 14.3676 6.54047 14.1962 6.90699C14.0249 7.2735 13.7862 7.56061 13.4803 7.7683C13.1498 8.00043 12.7215 8.19591 12.1952 8.35473C11.6812 8.50134 11.1549 8.57464 10.6164 8.57464H7.62411V6.57712H10.6348C10.9897 6.57712 11.2529 6.55879 11.4242 6.52214C11.6078 6.47327 11.7485 6.40608 11.8464 6.32056C11.9199 6.24725 11.9749 6.16784 12.0116 6.08232C12.0484 5.98458 12.0667 5.88074 12.0667 5.77078C12.0667 5.62417 12.0484 5.502 12.0116 5.40426C11.9749 5.29431 11.9137 5.20268 11.8281 5.12937C11.7302 5.04385 11.5894 4.98277 11.4058 4.94612C11.2345 4.90946 10.9469 4.89114 10.543 4.89114H3.47522V2.82031H10.3044C11.1733 2.82031 11.8464 2.88751 12.3237 3.0219C12.8133 3.14407 13.2355 3.35176 13.5904 3.64498C13.8474 3.86489 14.0555 4.14589 14.2146 4.48797C14.3737 4.83005 14.4532 5.23933 14.4532 5.7158ZM8.00962 15.96C6.3207 15.96 4.94385 15.7645 3.8791 15.3735C2.81434 14.9826 2.03107 14.4328 1.52929 13.7242C1.0275 13.0156 0.776611 12.1971 0.776611 11.2685C0.776611 10.5599 0.941832 9.93687 1.27227 9.39931C1.60272 8.86175 2.05554 8.44025 2.63076 8.13482C3.21821 7.82939 3.88522 7.67667 4.63177 7.67667C5.30489 7.67667 5.86787 7.79885 6.3207 8.04319C6.77352 8.27532 7.11621 8.59297 7.34874 8.99614C7.58127 9.39931 7.69754 9.85135 7.69754 10.3523C7.69754 11.2075 7.42217 11.855 6.87143 12.2948C6.3207 12.7224 5.56802 12.9362 4.61341 12.9362C4.17282 12.9362 3.75671 12.869 3.36508 12.7346C2.98568 12.588 2.643 12.4109 2.33703 12.2032C2.03107 11.9955 1.77406 11.8 1.566 11.6167L2.19017 10.1323C2.4227 10.4011 2.70419 10.6577 3.03463 10.902C3.36508 11.1342 3.75671 11.2502 4.20954 11.2502C4.5767 11.2502 4.87654 11.1769 5.10908 11.0303C5.35385 10.8837 5.47623 10.6516 5.47623 10.3339C5.47623 10.0896 5.39668 9.888 5.23758 9.72917C5.07848 9.57035 4.83983 9.49094 4.52162 9.49094C4.26461 9.49094 4.01984 9.56424 3.78731 9.71085C3.55477 9.84524 3.36508 10.0529 3.21821 10.3339C3.07135 10.6027 2.99792 10.9387 2.99792 11.3419V11.4518C2.99792 11.8183 3.08971 12.1482 3.27329 12.4414C3.4691 12.7346 3.76895 12.9851 4.17282 13.1928C4.5767 13.3882 5.09684 13.541 5.73324 13.6509C6.36965 13.7487 7.13456 13.7975 8.02798 13.7975C8.97035 13.7975 9.79034 13.7548 10.4879 13.6692C11.1855 13.5837 11.7608 13.4493 12.2136 13.2661C12.6664 13.0706 13.003 12.814 13.2233 12.4964C13.4558 12.1665 13.5721 11.7633 13.5721 11.2869V11.2319C13.5721 10.7432 13.4252 10.3278 13.1315 9.98574C12.8378 9.64365 12.4216 9.47261 11.8831 9.47261C11.6139 9.47261 11.363 9.54592 11.1305 9.69252C10.9102 9.82691 10.8 10.0468 10.8 10.3523C10.8 10.6821 10.9041 10.9142 11.1121 11.0486C11.3202 11.1708 11.5772 11.2319 11.8831 11.2319C12.1891 11.2319 12.4461 11.1708 12.6542 11.0486C12.8622 10.9265 13.0397 10.7554 13.1865 10.5355C13.3334 10.3034 13.4497 10.0346 13.5353 9.72917L14.545 11.067C14.288 11.4335 14.0249 11.7633 13.7556 12.0566C13.4986 12.3376 13.1866 12.5575 12.8194 12.7163C12.4522 12.8751 11.9749 12.9545 11.3875 12.9545C10.9224 12.9545 10.4757 12.8812 10.0473 12.7346C9.619 12.5758 9.2702 12.3253 9.00095 11.9833C8.74394 11.629 8.61543 11.1586 8.61543 10.5722C8.61543 9.86356 8.87856 9.30157 9.40482 8.88618C9.93108 8.45858 10.6654 8.24478 11.6078 8.24478C11.8403 8.24478 12.0484 8.25089 12.2319 8.2631C12.4155 8.27532 12.5869 8.29365 12.746 8.31808C12.9051 8.3303 13.058 8.35473 13.2049 8.39138L11.0754 8.42804C10.9163 8.37917 10.7449 8.34251 10.5614 8.31808C10.39 8.28143 10.2126 8.25699 10.029 8.24478C9.85765 8.22034 9.67407 8.20813 9.47826 8.20813L10.2676 6.7787C11.0387 6.81536 11.7546 6.94364 12.4155 7.16355C13.0886 7.37124 13.6761 7.67057 14.1779 8.06152C14.6797 8.44025 15.0713 8.90451 15.3528 9.45429C15.6465 9.99185 15.7934 10.6088 15.7934 11.3052C15.7934 12.0871 15.6465 12.7713 15.3528 13.3577C15.0591 13.9319 14.6001 14.4145 13.9759 14.8054C13.3518 15.1842 12.544 15.4713 11.5527 15.6668C10.5736 15.8622 9.39258 15.96 8.00962 15.96Z" fill="#FF5858"/>
</svg>
