<svg width="24" height="26" viewBox="0 0 24 26" fill="none" xmlns="http://www.w3.org/2000/svg">
<path d="M21.7607 0L23.1709 1.25685L23.1709 23.7105L21.7607 25.1133L21.7607 0Z" fill="#582134"/>
<path d="M9.88086 4.96144L21.7621 0.0031448L21.7621 25.1211L9.88086 20.1652L9.88086 4.96144Z" fill="#963D5C"/>
<path d="M9.88121 4.96144L-1.35505e-06 0.00314522L0 25.1211L9.88121 20.1652L9.88121 4.96144Z" fill="#E05B8A"/>
<g style="mix-blend-mode:multiply">
<path d="M20.3047 3.37109L20.375 3.37109L21.7624 3.37109L21.7624 3.09905L20.375 3.09905L20.3047 3.09905L20.2344 3.09905L14.6064 3.09905L13.9561 3.37109L20.2344 3.37109L20.3047 3.37109Z" fill="#F0F0F0"/>
<path d="M20.305 22.0756L20.2347 22.0756L15.46 22.0756L16.1103 22.3477L20.2347 22.3477L20.305 22.3477L20.3753 22.3477L21.7627 22.3477L21.7627 22.0756L20.3753 22.0756L20.305 22.0756Z" fill="#F0F0F0"/>
<path d="M0.152323 25.0586L0.802626 24.7865L-1.46761e-08 24.7865L0 25.0586L0.152323 25.0586Z" fill="#F0F0F0"/>
<path d="M1.16586 22.3477L1.23616 22.3477L6.65242 22.3477L7.29979 22.0756L1.23616 22.0756L1.16586 22.0756L1.09556 22.0756L-1.46761e-08 22.0756L0 22.3477L1.09556 22.3477L1.16586 22.3477Z" fill="#F0F0F0"/>
<path d="M0.165858 6.08594L0.236161 6.08594L10.8812 6.08594L20.2344 6.08594L20.3047 6.08594L20.375 6.08594L21.7624 6.08594L21.7624 5.8139L20.375 5.8139L20.3047 5.8139L20.2344 5.8139L10.8812 5.8139L0.236161 5.8139L0.165858 5.8139L0.0955552 5.8139L-1.4676e-08 5.8139L0 6.08594L0.0955552 6.08594L0.165858 6.08594Z" fill="#F0F0F0"/>
<path d="M1.16586 11.5039L1.23616 11.5039L11.8812 11.5039L21.2344 11.5039L21.3047 11.5039L21.375 11.5039L21.7624 11.5039L21.7624 11.2342L21.375 11.2342L21.3047 11.2342L21.2344 11.2342L11.8812 11.2342L1.23616 11.2342L1.16586 11.2342L1.09556 11.2342L-1.45485e-08 11.2342L0 11.5039L1.09556 11.5039L1.16586 11.5039Z" fill="#F0F0F0"/>
<path d="M0.165858 16.9258L0.236161 16.9258L10.8812 16.9258L20.2344 16.9258L20.3047 16.9258L20.375 16.9258L21.7624 16.9258L21.7624 16.6561L20.375 16.6561L20.3047 16.6561L20.2344 16.6561L10.8812 16.6561L0.236161 16.6561L0.165858 16.6561L0.0955552 16.6561L-1.45485e-08 16.6561L0 16.9258L0.0955552 16.9258L0.165858 16.9258Z" fill="#F0F0F0"/>
<path d="M0.165858 8.79687L0.236161 8.79687L10.8812 8.79687L20.2344 8.79687L20.3047 8.79687L20.375 8.79687L21.7624 8.79687L21.7624 8.52483L20.375 8.52483L20.3047 8.52483L20.2344 8.52483L10.8812 8.52483L0.236161 8.52483L0.165858 8.52483L0.0955552 8.52483L-1.46761e-08 8.52483L0 8.79687L0.0955552 8.79687L0.165858 8.79687Z" fill="#F0F0F0"/>
<path d="M0.165858 14.2148L0.236161 14.2148L10.8812 14.2148L20.2344 14.2148L20.3047 14.2148L20.375 14.2148L22.7624 14.2148L22.7624 13.9452L20.375 13.9452L20.3047 13.9452L20.2344 13.9452L10.8812 13.9452L0.236161 13.9452L0.165858 13.9452L0.0955552 13.9452L-1.45485e-08 13.9452L0 14.2148L0.0955552 14.2148L0.165858 14.2148Z" fill="#F0F0F0"/>
<path d="M0.165858 19.6367L0.236161 19.6367L10.8812 19.6367L20.2344 19.6367L20.3047 19.6367L20.375 19.6367L21.7624 19.6367L21.7624 19.3647L20.375 19.3647L20.3047 19.3647L20.2344 19.3647L10.8812 19.3647L0.236161 19.3647L0.165858 19.3647L0.0955552 19.3647L-1.46761e-08 19.3647L0 19.6367L0.0955552 19.6367L0.165858 19.6367Z" fill="#F0F0F0"/>
<path d="M1.16586 0.664062L1.23616 0.664062L1.57303 0.664062L1.16586 0.493738L1.09556 0.462986L0.925656 0.392017L-1.46762e-08 0.392017L0 0.664062L1.09556 0.664062L1.16586 0.664062Z" fill="#F0F0F0"/>
<path d="M1.16586 3.375L1.23616 3.375L8.07313 3.375L7.42282 3.10296L1.23616 3.10296L1.16586 3.10296L1.09556 3.10296L-1.46761e-08 3.10296L0 3.375L1.09556 3.375L1.16586 3.375Z" fill="#F0F0F0"/>
</g>
<path d="M21.7538 25.1211L0 25.1211L9.88121 20.1652L21.7538 25.1211Z" fill="#C8517B"/>
<path d="M21.7595 0.00263805L-2.67488e-07 0.00263786L9.88121 4.96094L21.7595 0.00263805Z" fill="#B0476C"/>
<g style="mix-blend-mode:multiply">
<path d="M8.40816 22.6727L8.40816 22.6159L8.40816 22.5591L8.40816 20.9323L8.07129 21.0742L8.07129 22.5591L8.07129 22.6159L8.07129 22.6727L8.07129 25.1211L8.40816 25.1211L8.40816 22.6727Z" fill="#F0F0F0"/>
<path d="M1.69429 24.5787L1.35742 24.7207L1.35742 25.1211L1.69429 25.1211L1.69429 24.5787Z" fill="#F0F0F0"/>
<path d="M5.05074 23.133L5.05074 23.0762L5.05074 23.0194L5.05074 22.6386L4.71387 22.7805L4.71387 23.0194L4.71387 23.0762L4.71387 23.133L4.71387 25.1211L5.05074 25.1211L5.05074 23.133Z" fill="#F0F0F0"/>
<path d="M0.336869 25.1211L0.336869 24.9792L0.00292969 25.1211L0.336869 25.1211Z" fill="#F0F0F0"/>
<path d="M15.122 22.6727L15.122 22.6159L15.122 22.5591L15.122 22.351L14.7852 22.209L14.7852 22.5591L14.7852 22.6159L14.7852 22.6727L14.7852 25.1211L15.122 25.1211L15.122 22.6727Z" fill="#F0F0F0"/>
<path d="M18.4755 23.749L18.1416 23.6095L18.1416 25.1211L18.4755 25.1211L18.4755 23.749Z" fill="#F0F0F0"/>
<path d="M11.7646 22.6727L11.7646 22.6159L11.7646 22.5591L11.7646 20.9505L11.4277 20.8086L11.4277 22.5591L11.4277 22.6159L11.4277 22.6727L11.4277 25.1211L11.7646 25.1211L11.7646 22.6727Z" fill="#F0F0F0"/>
<path d="M10.4083 0.0022168L10.0714 0.00221682L10.0713 4.88672L10.4083 4.72203L10.4083 0.0022168Z" fill="#F0F0F0"/>
<path d="M3.69429 0.00274431L3.36035 0.00274432L3.36035 1.63779L3.69429 1.77736L3.69429 0.00274431Z" fill="#F0F0F0"/>
<path d="M7.05074 0.00471996L6.71387 0.00471997L6.71387 3.34243L7.05074 3.48437L7.05074 0.00471996Z" fill="#F0F0F0"/>
<path d="M0.336869 0.00259589L0.00292968 0.0025959L0.00292968 0.00496201L0.336869 0.144531L0.336869 0.00259589Z" fill="#F0F0F0"/>
<path d="M17.122 0.00191664L16.7852 0.00191665L16.7852 2.07033L17.122 1.92839L17.122 0.00191664Z" fill="#F0F0F0"/>
<path d="M20.4755 0.00457673L20.1416 0.00457674L20.1416 0.703124L20.4755 0.563554L20.4755 0.00457673Z" fill="#F0F0F0"/>
<path d="M13.7646 0.00148176L13.4277 0.00148177L13.4277 3.48047L13.7646 3.33853L13.7646 0.00148176Z" fill="#F0F0F0"/>
</g>
<path d="M21.6205 12.5615L22.8332 16.7344L20.5291 16.7344L19.3164 12.5615L21.6205 12.5615Z" fill="#C8517B"/>
<path d="M22.8401 8.38567L21.6274 12.5586L19.3164 12.5586L20.5291 8.38567L22.8401 8.38567Z" fill="#B0476C"/>
<path d="M22.7939 8.40416L21.62 12.5717L22.7939 16.75L22.7939 8.40416Z" fill="#963D5C"/>
</svg>
