<svg width="24" height="32" viewBox="0 0 24 32" fill="none" xmlns="http://www.w3.org/2000/svg">
<path d="M15.197 18.9354C15.3235 18.8512 15.4689 18.8 15.6202 18.7862C15.7714 18.7725 15.9237 18.7966 16.0633 18.8566L21.4458 21.2682C21.6272 21.3458 21.7786 21.48 21.8773 21.6507C21.9761 21.8215 22.0169 22.0197 21.9936 22.2155C21.8163 23.5407 21.1637 24.7563 20.1573 25.6364C19.1509 26.5164 17.859 27.001 16.5221 27C12.4054 27 8.45727 25.3646 5.54632 22.4537C2.63536 19.5427 1 15.5946 1 11.4779C0.998979 10.141 1.48356 8.84914 2.36362 7.8427C3.24368 6.83626 4.45932 6.1837 5.78446 6.00638C5.98035 5.98311 6.1785 6.0239 6.34927 6.12266C6.52004 6.22142 6.65423 6.37282 6.73176 6.55422L9.14339 11.9413C9.20264 12.0797 9.22677 12.2305 9.21363 12.3805C9.20049 12.5304 9.15048 12.6748 9.06806 12.8007L6.62904 15.7008C6.54252 15.8314 6.49136 15.9821 6.48056 16.1384C6.46976 16.2946 6.49968 16.451 6.56741 16.5922C7.51129 18.5245 9.50862 20.4978 11.4466 21.4326C11.5886 21.5 11.7456 21.5293 11.9024 21.5175C12.0591 21.5057 12.21 21.4532 12.3403 21.3653L15.197 18.9354Z" stroke="white" stroke-width="2" stroke-linecap="round" stroke-linejoin="round"/>
</svg>
