<svg width="25" height="25" viewBox="0 0 25 25" fill="none" xmlns="http://www.w3.org/2000/svg">
<path d="M15.697 15.6854C15.8235 15.6012 15.9689 15.55 16.1202 15.5362C16.2714 15.5225 16.4237 15.5466 16.5633 15.6066L21.9458 18.0182C22.1272 18.0958 22.2786 18.23 22.3773 18.4007C22.4761 18.5715 22.5169 18.7697 22.4936 18.9655C22.3163 20.2907 21.6637 21.5063 20.6573 22.3864C19.6509 23.2664 18.359 23.751 17.0221 23.75C12.9054 23.75 8.95727 22.1146 6.04632 19.2037C3.13536 16.2927 1.5 12.3446 1.5 8.22791C1.49898 6.89096 1.98356 5.59914 2.86362 4.5927C3.74368 3.58626 4.95932 2.9337 6.28446 2.75638C6.48035 2.73311 6.6785 2.7739 6.84927 2.87266C7.02004 2.97142 7.15423 3.12282 7.23176 3.30422L9.64339 8.69129C9.70264 8.82965 9.72677 8.98052 9.71363 9.13046C9.70049 9.2804 9.65048 9.42477 9.56806 9.55071L7.12904 12.4508C7.04252 12.5814 6.99136 12.7321 6.98056 12.8884C6.96976 13.0446 6.99968 13.201 7.06741 13.3422C8.01129 15.2745 10.0086 17.2478 11.9466 18.1826C12.0886 18.25 12.2456 18.2793 12.4024 18.2675C12.5591 18.2557 12.71 18.2032 12.8403 18.1153L15.697 15.6854Z" stroke="#020202" stroke-width="2" stroke-linecap="round" stroke-linejoin="round"/>
</svg>
