<svg width="24" height="24" viewBox="0 0 24 24" fill="none" xmlns="http://www.w3.org/2000/svg">
<path d="M18.667 1H5.33594C3.67908 1 2.33594 2.34315 2.33594 4V16.7075C2.33594 18.3643 3.67908 19.7075 5.33594 19.7075H18.667C20.3239 19.7075 21.667 18.3643 21.667 16.7075V4C21.667 2.34315 20.3239 1 18.667 1Z" stroke="black" stroke-linejoin="round"/>
<rect x="4.87891" y="4.39062" width="14.4172" height="7.63265" rx="1" stroke="black"/>
<circle cx="6.93725" cy="15.5779" r="1.48413" stroke="black"/>
<circle cx="16.9138" cy="15.5779" r="1.48413" stroke="black"/>
<path d="M5.72656 20.0039H5.22656V20.5039V21.7511C5.22656 22.716 6.0088 23.4982 6.97373 23.4982C7.93866 23.4982 8.72089 22.716 8.72089 21.7511V20.5039V20.0039H8.22089H5.72656Z" stroke="black"/>
<path d="M15.9062 20.0039H15.4062V20.5039V21.7511C15.4062 22.716 16.1885 23.4982 17.1534 23.4982C18.1183 23.4982 18.9006 22.716 18.9006 21.7511V20.5039V20.0039H18.4006H15.9062Z" stroke="black"/>
</svg>
