<svg width="24" height="25" viewBox="0 0 24 25" fill="none" xmlns="http://www.w3.org/2000/svg">
<path d="M8.40625 10.5938V12.4752" stroke="white"/>
<path d="M8.40625 15.4336V17.315" stroke="white"/>
<path d="M8.40625 20.8086V22.69" stroke="white"/>
<path d="M11.6992 10.6602V12.5416" stroke="white"/>
<path d="M11.6992 15.5V17.3814" stroke="white"/>
<path d="M11.6953 20.875V22.7564" stroke="white"/>
<path d="M3.5 22.654V10.2587H5.24704V6.83183H8.40514V0.515625H11.6304V6.83183H14.8557V10.2587H16.6028V22.654" stroke="white"/>
<path d="M15.2711 23.4834C15.2711 23.4834 14.584 23.2433 13.9313 23.1747C13.6839 19.7999 16.1644 17.5844 17.4355 16.8984C20.8985 19.2032 20.7336 22.2487 20.2183 23.4834L18.6723 21.9401L17.5386 23.4834L16.3018 22.043L15.2711 23.4834Z" fill="#11AD6B" stroke="white"/>
<path d="M15.5389 20.124C15.5389 20.124 14.9219 19.9084 14.3358 19.8468C14.1136 16.8164 16.341 14.8269 17.4824 14.2109C20.5921 16.2805 20.444 19.0153 19.9813 20.124L18.593 18.7381L17.575 20.124L16.4644 18.8305L15.5389 20.124Z" fill="#11AD6B" stroke="white"/>
<path d="M15.8525 17.0333C15.8525 17.0333 15.3477 16.8569 14.8681 16.8065C14.6864 14.327 16.5088 12.6993 17.4427 12.1953C19.9869 13.8886 19.8658 16.1261 19.4872 17.0333L18.3513 15.8994L17.5184 17.0333L16.6097 15.975L15.8525 17.0333Z" fill="#11AD6B" stroke="white"/>
</svg>
