<svg width="24" height="25" viewBox="0 0 24 25" fill="none" xmlns="http://www.w3.org/2000/svg">
<path d="M15.197 15.6561C15.3235 15.5719 15.4689 15.5207 15.6202 15.5069C15.7714 15.4932 15.9237 15.5174 16.0633 15.5773L21.4458 17.9889C21.6272 18.0665 21.7786 18.2007 21.8773 18.3714C21.9761 18.5422 22.0169 18.7404 21.9936 18.9362C21.8163 20.2614 21.1637 21.477 20.1573 22.3571C19.1509 23.2371 17.859 23.7217 16.5221 23.7207C12.4054 23.7207 8.45727 22.0853 5.54632 19.1744C2.63536 16.2634 1 12.3153 1 8.19862C0.998979 6.86167 1.48356 5.56985 2.36362 4.5634C3.24368 3.55696 4.45932 2.9044 5.78446 2.72708C5.98035 2.70381 6.1785 2.7446 6.34927 2.84336C6.52004 2.94212 6.65423 3.09352 6.73176 3.27492L9.14339 8.66199C9.20264 8.80036 9.22677 8.95122 9.21363 9.10116C9.20049 9.25111 9.15048 9.39547 9.06806 9.52142L6.62904 12.4215C6.54252 12.5521 6.49136 12.7028 6.48056 12.8591C6.46976 13.0153 6.49968 13.1717 6.56741 13.3129C7.51129 15.2452 9.50862 17.2185 11.4466 18.1533C11.5886 18.2207 11.7456 18.25 11.9024 18.2382C12.0591 18.2264 12.21 18.1739 12.3403 18.086L15.197 15.6561Z" stroke="#020202" stroke-width="2" stroke-linecap="round" stroke-linejoin="round"/>
</svg>
