<svg width="24" height="24" viewBox="0 0 24 24" fill="none" xmlns="http://www.w3.org/2000/svg">
<path d="M15.197 14.9354C15.3235 14.8512 15.4689 14.8 15.6202 14.7862C15.7714 14.7725 15.9237 14.7966 16.0633 14.8566L21.4458 17.2682C21.6272 17.3458 21.7786 17.48 21.8773 17.6507C21.9761 17.8215 22.0169 18.0197 21.9936 18.2155C21.8163 19.5407 21.1637 20.7563 20.1573 21.6364C19.1509 22.5164 17.859 23.001 16.5221 23C12.4054 23 8.45727 21.3646 5.54632 18.4537C2.63536 15.5427 1 11.5946 1 7.47791C0.998979 6.14096 1.48356 4.84914 2.36362 3.8427C3.24368 2.83626 4.45932 2.1837 5.78446 2.00638C5.98035 1.98311 6.1785 2.0239 6.34927 2.12266C6.52004 2.22142 6.65423 2.37282 6.73176 2.55422L9.14339 7.94129C9.20264 8.07965 9.22677 8.23052 9.21363 8.38046C9.20049 8.5304 9.15048 8.67477 9.06806 8.80071L6.62904 11.7008C6.54252 11.8314 6.49136 11.9821 6.48056 12.1384C6.46976 12.2946 6.49968 12.451 6.56741 12.5922C7.51129 14.5245 9.50862 16.4978 11.4466 17.4326C11.5886 17.5 11.7456 17.5293 11.9024 17.5175C12.0591 17.5057 12.21 17.4532 12.3403 17.3653L15.197 14.9354Z" stroke="white" stroke-width="2" stroke-linecap="round" stroke-linejoin="round"/>
</svg>
