<svg width="20" height="20" viewBox="0 0 20 20" fill="none" xmlns="http://www.w3.org/2000/svg">
<path d="M14.0964 16.1674C15.1428 16.1674 15.9911 15.3191 15.9911 14.2727C15.9911 13.2262 15.1428 12.3779 14.0964 12.3779C13.05 12.3779 12.2017 13.2262 12.2017 14.2727C12.2017 15.3191 13.05 16.1674 14.0964 16.1674Z" stroke="#4D4D4D" stroke-width="1.5" stroke-linecap="round" stroke-linejoin="round"/>
<path d="M5.25411 16.1674C6.30055 16.1674 7.14885 15.3191 7.14885 14.2727C7.14885 13.2262 6.30055 12.3779 5.25411 12.3779C4.20768 12.3779 3.35938 13.2262 3.35938 14.2727C3.35938 15.3191 4.20768 16.1674 5.25411 16.1674Z" stroke="#4D4D4D" stroke-width="1.5" stroke-linecap="round" stroke-linejoin="round"/>
<path d="M12.2016 14.2725H7.14893" stroke="#4D4D4D" stroke-width="1.5" stroke-linecap="round" stroke-linejoin="round"/>
<path d="M15.9909 14.2723H17.8856C18.0531 14.2723 18.2138 14.2057 18.3322 14.0873C18.4507 13.9688 18.5172 13.8082 18.5172 13.6407V8.58805L14.9172 4.39357C14.8579 4.32263 14.7838 4.26556 14.7 4.22641C14.6163 4.18726 14.5249 4.16698 14.4325 4.16699H1.46459C1.29708 4.16699 1.13644 4.23353 1.01799 4.35198C0.899549 4.47042 0.833008 4.63107 0.833008 4.79857V13.6407C0.833008 13.8082 0.899549 13.9688 1.01799 14.0873C1.13644 14.2057 1.29708 14.2723 1.46459 14.2723H3.35932" stroke="#4D4D4D" stroke-width="1.5" stroke-linecap="round" stroke-linejoin="round"/>
<path d="M0.833008 8.58789H18.5172" stroke="#4D4D4D" stroke-width="1.5" stroke-linecap="round" stroke-linejoin="round"/>
<path d="M12.2017 4.16699V8.58804" stroke="#4D4D4D" stroke-width="1.5" stroke-linecap="round" stroke-linejoin="round"/>
<path d="M6.5166 4.16699V8.58804" stroke="#4D4D4D" stroke-width="1.5" stroke-linecap="round" stroke-linejoin="round"/>
</svg>
