<svg width="15" height="15" viewBox="0 0 15 15" fill="none" xmlns="http://www.w3.org/2000/svg">
<path opacity="0.1" d="M14.223 6.90811C14.3277 6.57332 14.3866 6.21131 14.3866 5.83025C14.3866 4.61629 13.8086 3.57654 12.9776 3.10293C12.8577 1.36638 11.693 0 10.2687 0C9.33738 0 8.51728 0.585202 8.02653 1.47253C7.69719 1.15135 7.28278 0.960821 6.83129 0.960821C5.75383 0.960821 4.88139 2.04957 4.88139 3.39417C4.88139 3.4105 4.88139 3.42956 4.88139 3.44589C3.39169 3.73713 2.25098 5.34031 2.25098 7.28101C2.25098 9.03389 3.18013 10.5119 4.45607 10.9991C4.45389 11.0562 4.44953 11.1107 4.44953 11.1678C4.44953 12.8091 5.51391 14.1374 6.82911 14.1374C7.48126 14.1374 8.07234 13.8081 8.50201 13.2773C8.93823 13.8788 9.56421 14.2572 10.2643 14.2572C11.5795 14.2572 12.6439 12.9289 12.6439 11.2876C12.6439 11.274 12.6439 11.2604 12.6439 11.2468C12.7552 11.2713 12.8686 11.2876 12.9864 11.2876C14.0769 11.2876 14.9581 10.1852 14.9581 8.82703C14.9581 8.0513 14.6702 7.35994 14.2187 6.90811H14.223Z" fill="black"/>
<path d="M10.8749 8.82705L9.60547 8.53778L9.60547 6.13197L10.8185 5.75789C11.1599 5.65261 11.5334 5.80895 11.6662 6.14062C12.0122 7.00503 12.0189 7.62806 11.6557 8.45651C11.5251 8.75444 11.1921 8.89933 10.8749 8.82705Z" fill="#4F0000"/>
<path d="M12.8432 6.92373C12.9555 6.58894 13.0187 6.22694 13.0187 5.84587C13.0187 4.63192 12.3986 3.59216 11.5071 3.11856C11.3785 1.382 10.129 0.015625 8.60112 0.015625C7.60202 0.015625 6.72225 1.60271 6.1958 2.49004C5.84249 2.16886 5.39792 1.97833 4.91359 1.97833C3.75772 1.97833 2.8218 3.06708 2.8218 4.41168C2.8218 4.42801 2.8218 4.44707 2.8218 4.4634C1.22372 4.75464 0 5.84587 0 7.29663C0 9.04952 0.999096 9.61968 2.36788 10.1069C2.36554 10.1641 2.36086 10.2185 2.36086 10.2756C2.36086 11.9169 3.50268 13.2452 4.91359 13.2452C5.61319 13.2452 6.24727 12.9159 6.70821 12.3851C7.17617 12.9866 7.84536 14.2728 8.59643 14.2728C10.0073 14.2728 11.1492 12.9445 11.1492 11.3032C11.1492 11.2896 11.1492 11.276 11.1492 11.2624C11.2685 11.2869 11.3902 11.3032 11.5165 11.3032C12.6864 11.3032 13.6317 10.2009 13.6317 8.84265C13.6317 8.06692 13.3228 7.37557 12.8385 6.92373H12.8432Z" fill="url(#paint0_linear_1939_41111)"/>
<path d="M2.83511 5.1875C2.37234 5.88702 2.19938 6.63008 2.28586 7.50652C1.48886 6.90771 1.89086 5.22561 2.83511 5.1875Z" fill="#26963C"/>
<path d="M2.90245 8.77344C2.90479 9.61722 3.24406 10.2677 3.88283 10.6679C2.96095 11.1142 2.13266 9.51106 2.90245 8.77344Z" fill="#26963C"/>
<path d="M4.13973 11.9609C4.35499 12.5298 4.63109 12.8619 5.10841 13.1422C4.50708 13.7492 3.59455 12.6332 4.13973 11.9609Z" fill="#26963C"/>
<path d="M6.44387 11.9727C6.91885 12.5034 7.4804 12.6477 8.10513 12.4082C7.81968 13.4751 6.3105 13.0777 6.44387 11.9727Z" fill="#26963C"/>
<path d="M9.13965 10.854C9.56549 10.7152 9.82989 10.6335 10.2628 10.5273C10.3423 11.2214 9.35257 11.51 9.13965 10.854Z" fill="#26963C"/>
<path d="M11.2402 9.55088C11.5445 8.89492 11.7317 8.33966 11.9002 7.62109C12.4384 8.24712 11.9985 9.52366 11.2402 9.55088Z" fill="#26963C"/>
<path d="M11.0938 4.46094C11.6882 4.6678 11.9035 5.68579 11.4565 6.18662C11.2365 5.59869 11.1335 5.09786 11.0938 4.46094Z" fill="#26963C"/>
<path d="M8.89844 2.51269C9.41787 1.80772 10.6135 2.33577 10.5948 3.26666C10.0426 2.85837 9.54422 2.63518 8.89844 2.51269Z" fill="#26963C"/>
<path d="M7.20703 1.96697C7.35678 1.39812 7.92769 1.11505 8.40501 1.2212C8.56412 1.25931 8.72088 1.33824 8.84255 1.48521C8.67877 1.5587 8.54306 1.60225 8.41203 1.64852C8.02128 1.76828 7.6165 1.89893 7.20703 1.96697Z" fill="#26963C"/>
<path d="M3.93359 3.21812C3.98507 2.41516 4.97949 1.98238 5.46851 2.55398C5.20411 2.67374 4.94907 2.77445 4.69871 2.88333L3.93359 3.22084V3.21812Z" fill="#26963C"/>
<path d="M4.13087 5.23239C3.91561 4.44849 4.90067 3.72448 5.41542 4.29335C4.91237 4.56826 4.5614 4.82411 4.13087 5.23239Z" fill="#26963C"/>
<path d="M7.10156 4.40026C7.45955 3.64904 8.60372 3.76608 8.84004 4.58534C8.22467 4.46014 7.72863 4.40298 7.10156 4.40026Z" fill="#26963C"/>
<path d="M9.46294 6.00781C9.99651 6.58212 9.99417 7.7008 9.45592 8.26967C9.35762 7.4885 9.3623 6.78898 9.46294 6.00781Z" fill="#26963C"/>
<path d="M10.5836 7.55859C11.0142 8.16556 10.5976 9.25702 9.91895 9.28423C10.0196 8.97939 10.1342 8.69632 10.2419 8.41597C10.3519 8.13834 10.4572 7.84983 10.5859 7.55859H10.5836Z" fill="#26963C"/>
<path d="M8.69788 9.40625C8.77977 10.2527 7.78535 10.906 7.20508 10.3834C7.76429 10.084 8.19014 9.80909 8.69788 9.40625Z" fill="#26963C"/>
<path d="M6.34466 9.89035C5.99603 10.7532 4.70212 10.6552 4.4541 9.74609C5.10925 9.9584 5.67314 10.0047 6.34466 9.89035Z" fill="#26963C"/>
<path d="M3.9397 6.60938C3.87183 7.30072 3.89758 7.84237 4.02395 8.5201C3.29613 8.31597 3.23528 6.90061 3.9397 6.60938Z" fill="#26963C"/>
<path d="M5.60354 5.55878C5.36483 6.16031 5.28292 6.66386 5.30632 7.32528C4.59723 7.00954 4.84763 5.53972 5.60354 5.55878Z" fill="#26963C"/>
<path d="M7.20703 5.58635C7.56977 5.12637 8.23909 5.86942 7.85762 6.31035C7.70083 6.1661 7.60956 6.12527 7.4902 5.99734C7.37553 5.86398 7.33809 5.76055 7.20703 5.58363V5.58635Z" fill="#26963C"/>
<path d="M6.59526 7.26172C6.70277 7.82786 6.92247 8.16537 7.3572 8.44572C7.10711 8.73152 6.67706 8.60087 6.48073 8.28513C6.27739 7.97756 6.29141 7.46041 6.59526 7.26172Z" fill="#26963C"/>
<path d="M8.42885 6.96094C8.74946 7.33928 8.55054 8.03608 8.09419 8.10685C8.00292 7.64141 8.11525 7.26851 8.42885 6.96094Z" fill="#26963C"/>
<defs>
<linearGradient id="paint0_linear_1939_41111" x1="6.81585" y1="7.14421" x2="1.02165e-07" y2="7.14421" gradientUnits="userSpaceOnUse">
<stop stop-color="#1CB639"/>
<stop offset="0.495" stop-color="#129A2B"/>
<stop offset="1" stop-color="#0E8E26"/>
</linearGradient>
</defs>
</svg>
