<svg width="426" height="13" viewBox="0 0 426 13" fill="none" xmlns="http://www.w3.org/2000/svg">
<path d="M425.939 12.0565H423.738L418.754 4.33867V12.0565H416.553V0.793945H418.754L423.738 8.5279V0.793945H425.939V12.0565Z" fill="#1E57AC"/>
<path d="M409.053 12.0565C408.023 12.0565 407.078 11.815 406.217 11.3319C405.356 10.8489 404.674 10.182 404.17 9.33144C403.665 8.47034 403.413 7.49898 403.413 6.41735C403.413 5.34623 403.665 4.38537 404.17 3.53477C404.674 2.67367 405.356 2.00159 406.217 1.51853C407.078 1.03547 408.023 0.793945 409.053 0.793945C410.092 0.793945 411.037 1.03547 411.888 1.51853C412.749 2.00159 413.426 2.67367 413.92 3.53477C414.424 4.38537 414.676 5.34623 414.676 6.41735C414.676 7.49898 414.424 8.47034 413.92 9.33144C413.426 10.182 412.749 10.8489 411.888 11.3319C411.027 11.815 410.082 12.0565 409.053 12.0565ZM409.053 10.0875C409.714 10.0875 410.297 9.94052 410.801 9.64648C411.305 9.34195 411.699 8.9114 411.982 8.35483C412.266 7.79827 412.408 7.15244 412.408 6.41735C412.408 5.68227 412.266 5.04169 411.982 4.49563C411.699 3.93906 411.305 3.51376 410.801 3.21973C410.297 2.9257 409.714 2.77868 409.053 2.77868C408.391 2.77868 407.803 2.9257 407.288 3.21973C406.784 3.51376 406.391 3.93906 406.107 4.49563C405.823 5.04169 405.682 5.68227 405.682 6.41735C405.682 7.15244 405.823 7.79827 406.107 8.35483C406.391 8.9114 406.784 9.34195 407.288 9.64648C407.803 9.94052 408.391 10.0875 409.053 10.0875Z" fill="#1E57AC"/>
<path d="M400.598 0.793945V12.0565H398.721V0.793945H400.598Z" fill="#1E57AC"/>
<path d="M396.844 0.793945V2.61726H393.775V12.0565H391.465V2.61726H388.397V0.793945H396.844Z" fill="#1E57AC"/>
<path d="M384.446 9.91357H380.13L379.416 12.0565H377.134L381.031 0.793945H383.561L387.458 12.0565H385.16L384.446 9.91357ZM383.856 8.10898L382.288 3.40415L380.72 8.10898H383.856Z" fill="#1E57AC"/>
<path d="M372.636 12.0565L370.143 7.66766H369.076V12.0565H366.81V0.793945H371.05C371.924 0.793945 372.668 0.949922 373.283 1.26187C373.898 1.56307 374.356 1.97721 374.658 2.50431C374.971 3.02064 375.128 3.60152 375.128 4.24694C375.128 4.98917 374.912 5.66148 374.48 6.26387C374.049 6.85551 373.407 7.26428 372.555 7.49017L375.257 12.0565H372.636ZM369.076 5.97344H370.969C371.584 5.97344 372.042 5.82822 372.344 5.53778C372.646 5.23658 372.797 4.82244 372.797 4.29535C372.797 3.77901 372.646 3.381 372.344 3.10132C372.042 2.81088 371.584 2.66566 370.969 2.66566H369.076V5.97344Z" fill="#1E57AC"/>
<path d="M359.31 12.0565C358.28 12.0565 357.335 11.815 356.474 11.3319C355.613 10.8489 354.931 10.182 354.426 9.33144C353.922 8.47034 353.67 7.49898 353.67 6.41735C353.67 5.34623 353.922 4.38537 354.426 3.53477C354.931 2.67367 355.613 2.00159 356.474 1.51853C357.335 1.03547 358.28 0.793945 359.31 0.793945C360.349 0.793945 361.294 1.03547 362.145 1.51853C363.006 2.00159 363.683 2.67367 364.177 3.53477C364.681 4.38537 364.933 5.34623 364.933 6.41735C364.933 7.49898 364.681 8.47034 364.177 9.33144C363.683 10.182 363.006 10.8489 362.145 11.3319C361.284 11.815 360.339 12.0565 359.31 12.0565ZM359.31 10.0875C359.971 10.0875 360.554 9.94052 361.058 9.64648C361.562 9.34195 361.956 8.9114 362.239 8.35483C362.523 7.79827 362.665 7.15244 362.665 6.41735C362.665 5.68227 362.523 5.04169 362.239 4.49563C361.956 3.93906 361.562 3.51376 361.058 3.21973C360.554 2.9257 359.971 2.77868 359.31 2.77868C358.648 2.77868 358.06 2.9257 357.545 3.21973C357.041 3.51376 356.648 3.93906 356.364 4.49563C356.08 5.04169 355.939 5.68227 355.939 6.41735C355.939 7.15244 356.08 7.79827 356.364 8.35483C356.648 8.9114 357.041 9.34195 357.545 9.64648C358.06 9.94052 358.648 10.0875 359.31 10.0875Z" fill="#1E57AC"/>
<path d="M352.732 4.27921C352.732 4.8816 352.582 5.44634 352.284 5.97344C351.996 6.50053 351.537 6.92543 350.906 7.24814C350.287 7.57085 349.501 7.73221 348.55 7.73221H346.608V12.0565H344.285V0.793945H348.55C349.446 0.793945 350.209 0.944544 350.84 1.24574C351.471 1.54694 351.941 1.96108 352.251 2.48817C352.571 3.01526 352.732 3.61228 352.732 4.27921ZM348.45 5.90889C349.092 5.90889 349.568 5.76905 349.877 5.48937C350.187 5.19893 350.342 4.79555 350.342 4.27921C350.342 3.182 349.712 2.63339 348.45 2.63339H346.608V5.90889H348.45Z" fill="#1E57AC"/>
<path d="M339.786 12.0565L337.294 7.66766H336.226V12.0565H333.961V0.793945H338.201C339.074 0.793945 339.819 0.949922 340.434 1.26187C341.049 1.56307 341.507 1.97721 341.809 2.50431C342.122 3.02064 342.278 3.60152 342.278 4.24694C342.278 4.98917 342.063 5.66148 341.631 6.26387C341.2 6.85551 340.558 7.26428 339.705 7.49017L342.408 12.0565H339.786ZM336.226 5.97344H338.12C338.735 5.97344 339.193 5.82822 339.495 5.53778C339.797 5.23658 339.948 4.82244 339.948 4.29535C339.948 3.77901 339.797 3.381 339.495 3.10132C339.193 2.81088 338.735 2.66566 338.12 2.66566H336.226V5.97344Z" fill="#1E57AC"/>
<path d="M326.46 12.0565C325.431 12.0565 324.486 11.815 323.625 11.3319C322.764 10.8489 322.081 10.182 321.577 9.33144C321.073 8.47034 320.821 7.49898 320.821 6.41735C320.821 5.34623 321.073 4.38537 321.577 3.53477C322.081 2.67367 322.764 2.00159 323.625 1.51853C324.486 1.03547 325.431 0.793945 326.46 0.793945C327.5 0.793945 328.445 1.03547 329.296 1.51853C330.157 2.00159 330.834 2.67367 331.328 3.53477C331.832 4.38537 332.084 5.34623 332.084 6.41735C332.084 7.49898 331.832 8.47034 331.328 9.33144C330.834 10.182 330.157 10.8489 329.296 11.3319C328.435 11.815 327.49 12.0565 326.46 12.0565ZM326.46 10.0875C327.122 10.0875 327.705 9.94052 328.209 9.64648C328.713 9.34195 329.107 8.9114 329.39 8.35483C329.674 7.79827 329.816 7.15244 329.816 6.41735C329.816 5.68227 329.674 5.04169 329.39 4.49563C329.107 3.93906 328.713 3.51376 328.209 3.21973C327.705 2.9257 327.122 2.77868 326.46 2.77868C325.799 2.77868 325.211 2.9257 324.696 3.21973C324.192 3.51376 323.798 3.93906 323.515 4.49563C323.231 5.04169 323.09 5.68227 323.09 6.41735C323.09 7.15244 323.231 7.79827 323.515 8.35483C323.798 8.9114 324.192 9.34195 324.696 9.64648C325.211 9.94052 325.799 10.0875 326.46 10.0875Z" fill="#1E57AC"/>
<path d="M307.682 6.43313C307.682 5.34847 307.935 4.37964 308.441 3.52666C308.959 2.66314 309.658 1.99444 310.538 1.52056C311.43 1.03615 312.427 0.793945 313.527 0.793945C314.816 0.793945 315.944 1.10987 316.913 1.74171C317.882 2.37355 318.559 3.2476 318.944 4.36385H316.285C316.021 3.83731 315.647 3.44241 315.162 3.17915C314.689 2.91588 314.139 2.78425 313.511 2.78425C312.839 2.78425 312.239 2.93694 311.711 3.24233C311.194 3.53719 310.786 3.95842 310.489 4.50601C310.203 5.05361 310.06 5.69598 310.06 6.43313C310.06 7.15975 310.203 7.80212 310.489 8.36024C310.786 8.90784 311.194 9.33433 311.711 9.63972C312.239 9.93458 312.839 10.082 313.511 10.082C314.139 10.082 314.689 9.95038 315.162 9.68711C315.647 9.41331 316.021 9.01315 316.285 8.48661H318.944C318.559 9.6134 317.882 10.4927 316.913 11.1245C315.955 11.7459 314.827 12.0565 313.527 12.0565C312.427 12.0565 311.43 11.8196 310.538 11.3457C309.658 10.8613 308.959 10.1926 308.441 9.3396C307.935 8.48661 307.682 7.51779 307.682 6.43313Z" fill="#1E57AC"/>
<path d="M302.989 0.793945V2.61726H299.92V12.0565H297.61V2.61726H294.542V0.793945H302.989Z" fill="#1E57AC"/>
<path d="M290.043 12.0565L287.551 7.66766H286.483V12.0565H284.218V0.793945H288.458C289.331 0.793945 290.076 0.949922 290.691 1.26187C291.306 1.56307 291.764 1.97721 292.066 2.50431C292.379 3.02064 292.535 3.60152 292.535 4.24694C292.535 4.98917 292.32 5.66148 291.888 6.26387C291.457 6.85551 290.815 7.26428 289.962 7.49017L292.665 12.0565H290.043ZM286.483 5.97344H288.377C288.992 5.97344 289.45 5.82822 289.752 5.53778C290.054 5.23658 290.205 4.82244 290.205 4.29535C290.205 3.77901 290.054 3.381 289.752 3.10132C289.45 2.81088 288.992 2.66566 288.377 2.66566H286.483V5.97344Z" fill="#1E57AC"/>
<path d="M276.717 12.0565C275.688 12.0565 274.743 11.815 273.882 11.3319C273.021 10.8489 272.338 10.182 271.834 9.33144C271.33 8.47034 271.078 7.49898 271.078 6.41735C271.078 5.34623 271.33 4.38537 271.834 3.53477C272.338 2.67367 273.021 2.00159 273.882 1.51853C274.743 1.03547 275.688 0.793945 276.717 0.793945C277.757 0.793945 278.702 1.03547 279.553 1.51853C280.414 2.00159 281.091 2.67367 281.585 3.53477C282.089 4.38537 282.341 5.34623 282.341 6.41735C282.341 7.49898 282.089 8.47034 281.585 9.33144C281.091 10.182 280.414 10.8489 279.553 11.3319C278.692 11.815 277.747 12.0565 276.717 12.0565ZM276.717 10.0875C277.379 10.0875 277.962 9.94052 278.466 9.64648C278.97 9.34195 279.364 8.9114 279.647 8.35483C279.931 7.79827 280.073 7.15244 280.073 6.41735C280.073 5.68227 279.931 5.04169 279.647 4.49563C279.364 3.93906 278.97 3.51376 278.466 3.21973C277.962 2.9257 277.379 2.77868 276.717 2.77868C276.056 2.77868 275.468 2.9257 274.953 3.21973C274.449 3.51376 274.055 3.93906 273.772 4.49563C273.488 5.04169 273.347 5.68227 273.347 6.41735C273.347 7.15244 273.488 7.79827 273.772 8.35483C274.055 8.9114 274.449 9.34195 274.953 9.64648C275.468 9.94052 276.056 10.0875 276.717 10.0875Z" fill="#1E57AC"/>
<path d="M270.14 4.27921C270.14 4.8816 269.99 5.44634 269.692 5.97344C269.404 6.50053 268.945 6.92543 268.314 7.24814C267.695 7.57085 266.909 7.73221 265.958 7.73221H264.016V12.0565H261.693V0.793945H265.958C266.854 0.793945 267.617 0.944544 268.248 1.24574C268.878 1.54694 269.349 1.96108 269.658 2.48817C269.979 3.01526 270.14 3.61228 270.14 4.27921ZM265.858 5.90889C266.5 5.90889 266.976 5.76905 267.285 5.48937C267.595 5.19893 267.75 4.79555 267.75 4.27921C267.75 3.182 267.119 2.63339 265.858 2.63339H264.016V5.90889H265.858Z" fill="#1E57AC"/>
<path d="M255.692 12.0565C254.88 12.0565 254.145 11.9253 253.489 11.6627C252.843 11.4002 252.331 11.0221 251.953 10.5286C251.575 10.035 251.38 9.45221 251.369 8.78013H253.873C253.906 9.23168 254.073 9.58873 254.373 9.85126C254.685 10.1138 255.108 10.2451 255.642 10.2451C256.188 10.2451 256.616 10.1243 256.928 9.88276C257.239 9.63073 257.395 9.30519 257.395 8.90615C257.395 8.58061 257.289 8.31283 257.078 8.1028C256.866 7.89278 256.599 7.73001 256.277 7.61449C255.965 7.48848 255.531 7.35196 254.974 7.20495C254.218 6.99492 253.6 6.79015 253.121 6.59062C252.654 6.3806 252.248 6.07081 251.903 5.66127C251.569 5.24122 251.402 4.68465 251.402 3.99157C251.402 3.34049 251.575 2.77343 251.92 2.29037C252.265 1.80731 252.749 1.43977 253.372 1.18774C253.995 0.925211 254.707 0.793945 255.509 0.793945C256.711 0.793945 257.684 1.07223 258.43 1.62879C259.187 2.17486 259.604 2.94145 259.682 3.92856H257.111C257.089 3.55052 256.916 3.24073 256.594 2.9992C256.282 2.74717 255.865 2.62116 255.342 2.62116C254.885 2.62116 254.518 2.73142 254.24 2.95195C253.973 3.17247 253.839 3.49276 253.839 3.91281C253.839 4.20684 253.939 4.45362 254.14 4.65315C254.351 4.84217 254.607 4.99969 254.908 5.1257C255.219 5.24122 255.653 5.37773 256.21 5.53525C256.967 5.74528 257.584 5.9553 258.063 6.16532C258.541 6.37535 258.953 6.69039 259.298 7.11044C259.643 7.53048 259.816 8.0818 259.816 8.76438C259.816 9.35245 259.654 9.89851 259.331 10.4026C259.009 10.9066 258.536 11.3109 257.913 11.6155C257.289 11.9095 256.549 12.0565 255.692 12.0565Z" fill="#1E57AC"/>
<path d="M248.553 12.0565H246.352L241.369 4.33867V12.0565H239.168V0.793945H241.369L246.352 8.5279V0.793945H248.553V12.0565Z" fill="#1E57AC"/>
<path d="M234.279 9.91357H229.963L229.249 12.0565H226.966L230.863 0.793945H233.394L237.29 12.0565H234.993L234.279 9.91357ZM233.689 8.10898L232.121 3.40415L230.553 8.10898H233.689Z" fill="#1E57AC"/>
<path d="M223.407 12.0565L220.915 7.66766H219.847V12.0565H217.581V0.793945H221.821C222.695 0.793945 223.439 0.949922 224.054 1.26187C224.669 1.56307 225.127 1.97721 225.429 2.50431C225.742 3.02064 225.899 3.60152 225.899 4.24694C225.899 4.98917 225.683 5.66148 225.251 6.26387C224.82 6.85551 224.178 7.26428 223.326 7.49017L226.028 12.0565H223.407ZM219.847 5.97344H221.74C222.355 5.97344 222.813 5.82822 223.115 5.53778C223.417 5.23658 223.568 4.82244 223.568 4.29535C223.568 3.77901 223.417 3.381 223.115 3.10132C222.813 2.81088 222.355 2.66566 221.74 2.66566H219.847V5.97344Z" fill="#1E57AC"/>
<path d="M215.704 0.793945V2.61726H212.635V12.0565H210.326V2.61726H207.257V0.793945H215.704Z" fill="#1E57AC"/>
<path d="M195.982 0.793945C197.107 0.793945 198.093 1.02522 198.942 1.48777C199.801 1.95032 200.46 2.61188 200.92 3.47244C201.391 4.32224 201.626 5.31188 201.626 6.44137C201.626 7.57085 201.391 8.56049 200.92 9.41029C200.46 10.2493 199.801 10.9001 198.942 11.3627C198.093 11.8252 197.107 12.0565 195.982 12.0565H192.24V0.793945H195.982ZM195.905 10.1364C197.03 10.1364 197.899 9.81368 198.513 9.16826C199.126 8.52284 199.433 7.61388 199.433 6.44137C199.433 5.26885 199.126 4.35451 198.513 3.69833C197.899 3.0314 197.03 2.69793 195.905 2.69793H194.387V10.1364H195.905Z" fill="#1E57AC"/>
<path d="M186.413 9.91357H182.097L181.383 12.0565H179.101L182.997 0.793945H185.528L189.425 12.0565H187.127L186.413 9.91357ZM185.823 8.10898L184.255 3.40415L182.687 8.10898H185.823Z" fill="#1E57AC"/>
<path d="M172.539 12.0565C171.509 12.0565 170.564 11.815 169.703 11.3319C168.842 10.8489 168.16 10.182 167.656 9.33144C167.151 8.47034 166.899 7.49898 166.899 6.41735C166.899 5.34623 167.151 4.38537 167.656 3.53477C168.16 2.67367 168.842 2.00159 169.703 1.51853C170.564 1.03547 171.509 0.793945 172.539 0.793945C173.578 0.793945 174.523 1.03547 175.374 1.51853C176.235 2.00159 176.912 2.67367 177.406 3.53477C177.91 4.38537 178.162 5.34623 178.162 6.41735C178.162 7.49898 177.91 8.47034 177.406 9.33144C176.912 10.182 176.235 10.8489 175.374 11.3319C174.513 11.815 173.568 12.0565 172.539 12.0565ZM172.539 10.0875C173.2 10.0875 173.783 9.94052 174.287 9.64648C174.791 9.34195 175.185 8.9114 175.468 8.35483C175.752 7.79827 175.894 7.15244 175.894 6.41735C175.894 5.68227 175.752 5.04169 175.468 4.49563C175.185 3.93906 174.791 3.51376 174.287 3.21973C173.783 2.9257 173.2 2.77868 172.539 2.77868C171.877 2.77868 171.289 2.9257 170.774 3.21973C170.27 3.51376 169.877 3.93906 169.593 4.49563C169.309 5.04169 169.168 5.68227 169.168 6.41735C169.168 7.15244 169.309 7.79827 169.593 8.35483C169.877 8.9114 170.27 9.34195 170.774 9.64648C171.289 9.94052 171.877 10.0875 172.539 10.0875Z" fill="#1E57AC"/>
<path d="M162.401 12.0565L159.909 7.66766H158.841V12.0565H156.575V0.793945H160.815C161.689 0.793945 162.433 0.949922 163.048 1.26187C163.663 1.56307 164.122 1.97721 164.424 2.50431C164.736 3.02064 164.893 3.60152 164.893 4.24694C164.893 4.98917 164.677 5.66148 164.246 6.26387C163.814 6.85551 163.172 7.26428 162.32 7.49017L165.022 12.0565H162.401ZM158.841 5.97344H160.734C161.349 5.97344 161.808 5.82822 162.11 5.53778C162.412 5.23658 162.563 4.82244 162.563 4.29535C162.563 3.77901 162.412 3.381 162.11 3.10132C161.808 2.81088 161.349 2.66566 160.734 2.66566H158.841V5.97344Z" fill="#1E57AC"/>
<path d="M145.707 2.63076V5.45043H149.519V7.23891H145.707V10.2197H150.006V12.0565H143.436V0.793945H150.006V2.63076H145.707Z" fill="#1E57AC"/>
<path d="M142.497 0.793945V2.61726H139.429V12.0565H137.119V2.61726H134.05V0.793945H142.497Z" fill="#1E57AC"/>
<path d="M129.161 9.91357H124.845L124.131 12.0565H121.849L125.746 0.793945H128.276L132.173 12.0565H129.875L129.161 9.91357ZM128.571 8.10898L127.003 3.40415L125.435 8.10898H128.571Z" fill="#1E57AC"/>
<path d="M120.911 0.793945V2.61726H117.842V12.0565H115.532V2.61726H112.464V0.793945H120.911Z" fill="#1E57AC"/>
<path d="M107.402 12.0565C106.589 12.0565 105.855 11.9253 105.198 11.6627C104.553 11.4002 104.041 11.0221 103.663 10.5286C103.284 10.035 103.089 9.45221 103.078 8.78013H105.582C105.616 9.23168 105.783 9.58873 106.083 9.85126C106.395 10.1138 106.818 10.2451 107.352 10.2451C107.897 10.2451 108.326 10.1243 108.637 9.88276C108.949 9.63073 109.105 9.30519 109.105 8.90615C109.105 8.58061 108.999 8.31283 108.787 8.1028C108.576 7.89278 108.309 7.73001 107.986 7.61449C107.675 7.48848 107.241 7.35196 106.684 7.20495C105.927 6.99492 105.31 6.79015 104.831 6.59062C104.364 6.3806 103.957 6.07081 103.612 5.66127C103.279 5.24122 103.112 4.68465 103.112 3.99157C103.112 3.34049 103.284 2.77343 103.629 2.29037C103.974 1.80731 104.458 1.43977 105.081 1.18774C105.705 0.925211 106.417 0.793945 107.218 0.793945C108.42 0.793945 109.394 1.07223 110.14 1.62879C110.896 2.17486 111.314 2.94145 111.392 3.92856H108.821C108.799 3.55052 108.626 3.24073 108.303 2.9992C107.992 2.74717 107.574 2.62116 107.051 2.62116C106.595 2.62116 106.228 2.73142 105.95 2.95195C105.682 3.17247 105.549 3.49276 105.549 3.91281C105.549 4.20684 105.649 4.45362 105.849 4.65315C106.061 4.84217 106.317 4.99969 106.617 5.1257C106.929 5.24122 107.363 5.37773 107.919 5.53525C108.676 5.74528 109.294 5.9553 109.772 6.16532C110.251 6.37535 110.663 6.69039 111.008 7.11044C111.353 7.53048 111.525 8.0818 111.525 8.76438C111.525 9.35245 111.364 9.89851 111.041 10.4026C110.718 10.9066 110.245 11.3109 109.622 11.6155C108.999 11.9095 108.259 12.0565 107.402 12.0565Z" fill="#1E57AC"/>
<path d="M93.4965 9.91357H89.1806L88.4665 12.0565H86.1843L90.0811 0.793945H92.6116L96.5083 12.0565H94.2107L93.4965 9.91357ZM92.9066 8.10898L91.3386 3.40415L89.7706 8.10898H92.9066Z" fill="#1E57AC"/>
<path d="M84.3072 12.0565H82.1063L77.1227 4.33867V12.0565H74.9218V0.793945H77.1227L82.1063 8.5279V0.793945H84.3072V12.0565Z" fill="#1E57AC"/>
<path d="M70.0329 9.91357H65.717L65.0029 12.0565H62.7207L66.6174 0.793945H69.148L73.0447 12.0565H70.747L70.0329 9.91357ZM69.443 8.10898L67.875 3.40415L66.3069 8.10898H69.443Z" fill="#1E57AC"/>
<path d="M58.91 4.25328C58.6518 3.78993 58.2968 3.43715 57.845 3.19494C57.3932 2.95274 56.8662 2.83163 56.2638 2.83163C55.5968 2.83163 55.0052 2.97906 54.4889 3.27392C53.9725 3.56878 53.5691 3.99001 53.2787 4.5376C52.9883 5.0852 52.843 5.71704 52.843 6.43313C52.843 7.17028 52.9883 7.81265 53.2787 8.36024C53.5799 8.90784 53.994 9.32907 54.5211 9.62393C55.0482 9.91879 55.6614 10.0662 56.3606 10.0662C57.2211 10.0662 57.9257 9.84507 58.4743 9.40278C59.0229 8.94996 59.3833 8.32339 59.5554 7.52306H55.6829V5.83288H61.7821V7.75999C61.6315 8.52873 61.3088 9.23956 60.814 9.89246C60.3191 10.5454 59.6791 11.0719 58.8938 11.4721C58.1193 11.8617 57.248 12.0565 56.2799 12.0565C55.1934 12.0565 54.2092 11.8196 53.3271 11.3457C52.4558 10.8613 51.7673 10.1926 51.2618 9.3396C50.7669 8.48661 50.5195 7.51779 50.5195 6.43313C50.5195 5.34847 50.7669 4.37964 51.2618 3.52666C51.7673 2.66314 52.4558 1.99444 53.3271 1.52056C54.2092 1.03615 55.1881 0.793945 56.2638 0.793945C57.5331 0.793945 58.6357 1.09934 59.5715 1.71011C60.5074 2.31036 61.1528 3.15808 61.5078 4.25328H58.91Z" fill="#1E57AC"/>
<path d="M48.6424 12.0565H46.4415L41.4579 4.33867V12.0565H39.257V0.793945H41.4579L46.4415 8.5279V0.793945H48.6424V12.0565Z" fill="#1E57AC"/>
<path d="M34.3681 9.91357H30.0522L29.3381 12.0565H27.0559L30.9526 0.793945H33.4832L37.3799 12.0565H35.0823L34.3681 9.91357ZM33.7782 8.10898L32.2102 3.40415L30.6421 8.10898H33.7782Z" fill="#1E57AC"/>
<path d="M21.6782 10.2655H25.1788V12.0565H19.5475V0.793945H21.6782V10.2655Z" fill="#1E57AC"/>
<path d="M13.3716 2.63076V5.45043H17.1838V7.23891H13.3716V10.2197H17.6704V12.0565H11.1006V0.793945H17.6704V2.63076H13.3716Z" fill="#1E57AC"/>
<path d="M9.22348 0.793945V2.61726H6.15487V12.0565H3.84516V2.61726H0.77655V0.793945H9.22348Z" fill="#1E57AC"/>
</svg>
