<svg width="482" height="14" viewBox="0 0 482 14" fill="none" xmlns="http://www.w3.org/2000/svg">
<path d="M481.57 13.3473H479.046L473.329 4.70945V13.3473H470.805V0.742188H473.329L479.046 9.39803V0.742188H481.57V13.3473Z" fill="white"/>
<path d="M462.128 13.4795C460.95 13.4795 459.868 13.203 458.882 12.65C457.896 12.097 457.114 11.3336 456.537 10.3598C455.96 9.37402 455.672 8.26199 455.672 7.02372C455.672 5.79748 455.96 4.69746 456.537 3.72368C457.114 2.73788 457.896 1.96847 458.882 1.41546C459.868 0.862444 460.95 0.585938 462.128 0.585938C463.318 0.585938 464.4 0.862444 465.374 1.41546C466.359 1.96847 467.135 2.73788 467.7 3.72368C468.277 4.69746 468.565 5.79748 468.565 7.02372C468.565 8.26199 468.277 9.37402 467.7 10.3598C467.135 11.3336 466.359 12.097 465.374 12.65C464.388 13.203 463.306 13.4795 462.128 13.4795ZM462.128 11.2254C462.885 11.2254 463.552 11.0571 464.129 10.7205C464.706 10.3719 465.157 9.87895 465.482 9.24178C465.806 8.60462 465.969 7.86526 465.969 7.02372C465.969 6.18218 465.806 5.44884 465.482 4.82369C465.157 4.18653 464.706 3.69964 464.129 3.36302C463.552 3.0264 462.885 2.8581 462.128 2.8581C461.37 2.8581 460.697 3.0264 460.108 3.36302C459.531 3.69964 459.08 4.18653 458.756 4.82369C458.431 5.44884 458.269 6.18218 458.269 7.02372C458.269 7.86526 458.431 8.60462 458.756 9.24178C459.08 9.87895 459.531 10.3719 460.108 10.7205C460.697 11.0571 461.37 11.2254 462.128 11.2254Z" fill="white"/>
<path d="M453.431 0.765625V13.3527H450.906V0.765625H453.431Z" fill="white"/>
<path d="M448.702 0.765625V2.80335H445.347V13.3527H442.823V2.80335H439.469V0.765625H448.702Z" fill="white"/>
<path d="M434.587 10.9489H429.574L428.745 13.3473H426.094L430.62 0.742188H433.559L438.086 13.3473H435.417L434.587 10.9489ZM433.902 8.92917L432.081 3.66354L430.259 8.92917H433.902Z" fill="white"/>
<path d="M421.449 13.3527L418.672 8.44769H417.482V13.3527H414.957V0.765625H419.682C420.655 0.765625 421.485 0.939944 422.17 1.28858C422.855 1.6252 423.366 2.08805 423.703 2.67712C424.052 3.25418 424.226 3.90337 424.226 4.62469C424.226 5.45421 423.986 6.20558 423.505 6.87881C423.024 7.54003 422.309 7.99686 421.359 8.24932L424.37 13.3527H421.449ZM417.482 6.55422H419.591C420.277 6.55422 420.788 6.39192 421.124 6.06733C421.461 5.73071 421.629 5.26787 421.629 4.67879C421.629 4.10173 421.461 3.65692 421.124 3.34435C420.788 3.01975 420.277 2.85745 419.591 2.85745H417.482V6.55422Z" fill="white"/>
<path d="M406.28 13.4795C405.102 13.4795 404.02 13.203 403.034 12.65C402.048 12.097 401.267 11.3336 400.69 10.3598C400.113 9.37402 399.824 8.26199 399.824 7.02372C399.824 5.79748 400.113 4.69746 400.69 3.72368C401.267 2.73788 402.048 1.96847 403.034 1.41546C404.02 0.862444 405.102 0.585938 406.28 0.585938C407.47 0.585938 408.552 0.862444 409.526 1.41546C410.512 1.96847 411.287 2.73788 411.852 3.72368C412.429 4.69746 412.718 5.79748 412.718 7.02372C412.718 8.26199 412.429 9.37402 411.852 10.3598C411.287 11.3336 410.512 12.097 409.526 12.65C408.54 13.203 407.458 13.4795 406.28 13.4795ZM406.28 11.2254C407.037 11.2254 407.705 11.0571 408.282 10.7205C408.859 10.3719 409.31 9.87895 409.634 9.24178C409.959 8.60462 410.121 7.86526 410.121 7.02372C410.121 6.18218 409.959 5.44884 409.634 4.82369C409.31 4.18653 408.859 3.69964 408.282 3.36302C407.705 3.0264 407.037 2.8581 406.28 2.8581C405.523 2.8581 404.849 3.0264 404.26 3.36302C403.683 3.69964 403.232 4.18653 402.908 4.82369C402.583 5.44884 402.421 6.18218 402.421 7.02372C402.421 7.86526 402.583 8.60462 402.908 9.24178C403.232 9.87895 403.683 10.3719 404.26 10.7205C404.849 11.0571 405.523 11.2254 406.28 11.2254Z" fill="white"/>
<path d="M398.284 4.66075C398.284 5.33399 398.122 5.96514 397.797 6.55422C397.485 7.1433 396.986 7.61817 396.301 7.97883C395.627 8.33949 394.774 8.51982 393.74 8.51982H391.63V13.3527H389.105V0.765625H393.74C394.714 0.765625 395.543 0.933934 396.228 1.27055C396.914 1.60717 397.425 2.07001 397.761 2.65909C398.11 3.24817 398.284 3.91539 398.284 4.66075ZM393.632 6.48209C394.329 6.48209 394.846 6.3258 395.183 6.01323C395.519 5.68864 395.688 5.23781 395.688 4.66075C395.688 3.43451 395.002 2.82139 393.632 2.82139H391.63V6.48209H393.632Z" fill="white"/>
<path d="M383.683 13.3527L380.906 8.44769H379.716V13.3527H377.191V0.765625H381.916C382.89 0.765625 383.719 0.939944 384.405 1.28858C385.09 1.6252 385.601 2.08805 385.937 2.67712C386.286 3.25418 386.46 3.90337 386.46 4.62469C386.46 5.45421 386.22 6.20558 385.739 6.87881C385.258 7.54003 384.543 7.99686 383.593 8.24932L386.605 13.3527H383.683ZM379.716 6.55422H381.826C382.511 6.55422 383.022 6.39192 383.359 6.06733C383.695 5.73071 383.864 5.26787 383.864 4.67879C383.864 4.10173 383.695 3.65692 383.359 3.34435C383.022 3.01975 382.511 2.85745 381.826 2.85745H379.716V6.55422Z" fill="white"/>
<path d="M368.514 13.4795C367.336 13.4795 366.254 13.203 365.268 12.65C364.283 12.097 363.501 11.3336 362.924 10.3598C362.347 9.37402 362.059 8.26199 362.059 7.02372C362.059 5.79748 362.347 4.69746 362.924 3.72368C363.501 2.73788 364.283 1.96847 365.268 1.41546C366.254 0.862444 367.336 0.585938 368.514 0.585938C369.705 0.585938 370.787 0.862444 371.76 1.41546C372.746 1.96847 373.522 2.73788 374.087 3.72368C374.664 4.69746 374.952 5.79748 374.952 7.02372C374.952 8.26199 374.664 9.37402 374.087 10.3598C373.522 11.3336 372.746 12.097 371.76 12.65C370.775 13.203 369.693 13.4795 368.514 13.4795ZM368.514 11.2254C369.272 11.2254 369.939 11.0571 370.516 10.7205C371.093 10.3719 371.544 9.87895 371.869 9.24178C372.193 8.60462 372.355 7.86526 372.355 7.02372C372.355 6.18218 372.193 5.44884 371.869 4.82369C371.544 4.18653 371.093 3.69964 370.516 3.36302C369.939 3.0264 369.272 2.8581 368.514 2.8581C367.757 2.8581 367.084 3.0264 366.495 3.36302C365.918 3.69964 365.467 4.18653 365.142 4.82369C364.818 5.44884 364.655 6.18218 364.655 7.02372C364.655 7.86526 364.818 8.60462 365.142 9.24178C365.467 9.87895 365.918 10.3719 366.495 10.7205C367.084 11.0571 367.757 11.2254 368.514 11.2254Z" fill="white"/>
<path d="M347.855 7.03935C347.855 5.80108 348.132 4.69506 348.685 3.72127C349.25 2.73547 350.013 1.97207 350.975 1.43108C351.949 0.878069 353.037 0.601562 354.239 0.601562C355.646 0.601562 356.878 0.962223 357.936 1.68354C358.994 2.40486 359.733 3.40269 360.154 4.67702H357.251C356.962 4.07592 356.553 3.6251 356.024 3.32455C355.507 3.024 354.906 2.87372 354.221 2.87372C353.488 2.87372 352.833 3.04804 352.256 3.39668C351.691 3.73329 351.246 4.21417 350.921 4.83932C350.609 5.46446 350.452 6.19781 350.452 7.03935C350.452 7.86886 350.609 8.60221 350.921 9.23937C351.246 9.86452 351.691 10.3514 352.256 10.7C352.833 11.0367 353.488 11.205 354.221 11.205C354.906 11.205 355.507 11.0547 356.024 10.7541C356.553 10.4416 356.962 9.98474 357.251 9.38364H360.154C359.733 10.67 358.994 11.6738 357.936 12.3952C356.89 13.1044 355.658 13.4591 354.239 13.4591C353.037 13.4591 351.949 13.1886 350.975 12.6476C350.013 12.0946 349.25 11.3312 348.685 10.3574C348.132 9.38364 347.855 8.27761 347.855 7.03935Z" fill="white"/>
<path d="M341.612 0.765625V2.80335H338.258V13.3527H335.733V2.80335H332.379V0.765625H341.612Z" fill="white"/>
<path d="M327.625 13.3527L324.848 8.44769H323.657V13.3527H321.133V0.765625H325.857C326.831 0.765625 327.661 0.939944 328.346 1.28858C329.031 1.6252 329.542 2.08805 329.879 2.67712C330.227 3.25418 330.402 3.90337 330.402 4.62469C330.402 5.45421 330.161 6.20558 329.68 6.87881C329.2 7.54003 328.484 7.99686 327.535 8.24932L330.546 13.3527H327.625ZM323.657 6.55422H325.767C326.453 6.55422 326.963 6.39192 327.3 6.06733C327.637 5.73071 327.805 5.26787 327.805 4.67879C327.805 4.10173 327.637 3.65692 327.3 3.34435C326.963 3.01975 326.453 2.85745 325.767 2.85745H323.657V6.55422Z" fill="white"/>
<path d="M312.452 13.4795C311.274 13.4795 310.192 13.203 309.206 12.65C308.22 12.097 307.439 11.3336 306.862 10.3598C306.285 9.37402 305.996 8.26199 305.996 7.02372C305.996 5.79748 306.285 4.69746 306.862 3.72368C307.439 2.73788 308.22 1.96847 309.206 1.41546C310.192 0.862444 311.274 0.585938 312.452 0.585938C313.642 0.585938 314.724 0.862444 315.698 1.41546C316.684 1.96847 317.459 2.73788 318.024 3.72368C318.601 4.69746 318.89 5.79748 318.89 7.02372C318.89 8.26199 318.601 9.37402 318.024 10.3598C317.459 11.3336 316.684 12.097 315.698 12.65C314.712 13.203 313.63 13.4795 312.452 13.4795ZM312.452 11.2254C313.209 11.2254 313.877 11.0571 314.454 10.7205C315.031 10.3719 315.481 9.87895 315.806 9.24178C316.131 8.60462 316.293 7.86526 316.293 7.02372C316.293 6.18218 316.131 5.44884 315.806 4.82369C315.481 4.18653 315.031 3.69964 314.454 3.36302C313.877 3.0264 313.209 2.8581 312.452 2.8581C311.695 2.8581 311.021 3.0264 310.432 3.36302C309.855 3.69964 309.404 4.18653 309.08 4.82369C308.755 5.44884 308.593 6.18218 308.593 7.02372C308.593 7.86526 308.755 8.60462 309.08 9.24178C309.404 9.87895 309.855 10.3719 310.432 10.7205C311.021 11.0571 311.695 11.2254 312.452 11.2254Z" fill="white"/>
<path d="M304.46 4.66075C304.46 5.33399 304.298 5.96514 303.973 6.55422C303.661 7.1433 303.162 7.61817 302.476 7.97883C301.803 8.33949 300.95 8.51982 299.916 8.51982H297.806V13.3527H295.281V0.765625H299.916C300.89 0.765625 301.719 0.933934 302.404 1.27055C303.09 1.60717 303.6 2.07001 303.937 2.65909C304.286 3.24817 304.46 3.91539 304.46 4.66075ZM299.808 6.48209C300.505 6.48209 301.022 6.3258 301.358 6.01323C301.695 5.68864 301.863 5.23781 301.863 4.66075C301.863 3.43451 301.178 2.82139 299.808 2.82139H297.806V6.48209H299.808Z" fill="white"/>
<path d="M288.276 13.4795C287.398 13.4795 286.605 13.3293 285.896 13.0287C285.198 12.7282 284.645 12.2954 284.237 11.7303C283.828 11.1653 283.617 10.4981 283.605 9.72867H286.31C286.346 10.2456 286.527 10.6544 286.851 10.9549C287.188 11.2555 287.645 11.4057 288.222 11.4057C288.811 11.4057 289.274 11.2675 289.61 10.991C289.947 10.7025 290.115 10.3298 290.115 9.87294C290.115 9.50026 290.001 9.19369 289.773 8.95325C289.544 8.71281 289.256 8.52647 288.907 8.39423C288.571 8.24997 288.102 8.09368 287.501 7.92537C286.683 7.68493 286.016 7.4505 285.499 7.22209C284.994 6.98165 284.555 6.627 284.183 6.15814C283.822 5.67726 283.642 5.04009 283.642 4.24664C283.642 3.50127 283.828 2.85209 284.201 2.29907C284.573 1.74606 285.096 1.32529 285.769 1.03676C286.443 0.736213 287.212 0.585938 288.078 0.585938C289.376 0.585938 290.428 0.904521 291.233 1.54169C292.051 2.16683 292.502 3.04444 292.586 4.17451H289.809C289.785 3.74171 289.598 3.38707 289.25 3.11056C288.913 2.82203 288.462 2.67777 287.897 2.67777C287.404 2.67777 287.008 2.804 286.707 3.05646C286.419 3.30892 286.274 3.67559 286.274 4.15647C286.274 4.49309 286.383 4.77561 286.599 5.00402C286.827 5.22042 287.104 5.40075 287.428 5.54502C287.765 5.67726 288.234 5.83354 288.835 6.01387C289.653 6.25431 290.32 6.49475 290.837 6.73519C291.354 6.97563 291.798 7.33629 292.171 7.81717C292.544 8.29805 292.73 8.92921 292.73 9.71064C292.73 10.3839 292.556 11.009 292.207 11.5861C291.859 12.1631 291.348 12.626 290.674 12.9746C290.001 13.3112 289.202 13.4795 288.276 13.4795Z" fill="white"/>
<path d="M281.074 13.3473H278.55L272.833 4.70945V13.3473H270.309V0.742188H272.833L278.55 9.39803V0.742188H281.074V13.3473Z" fill="white"/>
<path d="M264.759 10.9489H259.746L258.916 13.3473H256.266L260.792 0.742188H263.731L268.258 13.3473H265.589L264.759 10.9489ZM264.074 8.92917L262.253 3.66354L260.431 8.92917H264.074Z" fill="white"/>
<path d="M251.617 13.3527L248.84 8.44769H247.65V13.3527H245.125V0.765625H249.85C250.823 0.765625 251.653 0.939944 252.338 1.28858C253.023 1.6252 253.534 2.08805 253.871 2.67712C254.22 3.25418 254.394 3.90337 254.394 4.62469C254.394 5.45421 254.154 6.20558 253.673 6.87881C253.192 7.54003 252.476 7.99686 251.527 8.24932L254.538 13.3527H251.617ZM247.65 6.55422H249.759C250.445 6.55422 250.956 6.39192 251.292 6.06733C251.629 5.73071 251.797 5.26787 251.797 4.67879C251.797 4.10173 251.629 3.65692 251.292 3.34435C250.956 3.01975 250.445 2.85745 249.759 2.85745H247.65V6.55422Z" fill="white"/>
<path d="M242.92 0.765625V2.80335H239.566V13.3527H237.042V2.80335H233.688V0.765625H242.92Z" fill="white"/>
<path d="M220.814 0.765625C222.137 0.765625 223.297 1.0241 224.294 1.54104C225.304 2.05799 226.08 2.79734 226.621 3.75911C227.174 4.70884 227.45 5.81487 227.45 7.07718C227.45 8.33949 227.174 9.44551 226.621 10.3953C226.08 11.333 225.304 12.0603 224.294 12.5772C223.297 13.0942 222.137 13.3527 220.814 13.3527H216.414V0.765625H220.814ZM220.724 11.2067C222.046 11.2067 223.068 10.8461 223.79 10.1248C224.511 9.40344 224.872 8.38758 224.872 7.07718C224.872 5.76678 224.511 4.74491 223.79 4.01157C223.068 3.2662 222.046 2.89352 220.724 2.89352H218.939V11.2067H220.724Z" fill="white"/>
<path d="M210.861 10.9489H205.848L205.018 13.3473H202.367L206.893 0.742188H209.833L214.359 13.3473H211.69L210.861 10.9489ZM210.175 8.92917L208.354 3.66354L206.533 8.92917H210.175Z" fill="white"/>
<path d="M194.468 13.4795C193.289 13.4795 192.207 13.203 191.222 12.65C190.236 12.097 189.454 11.3336 188.877 10.3598C188.3 9.37402 188.012 8.26199 188.012 7.02372C188.012 5.79748 188.3 4.69746 188.877 3.72368C189.454 2.73788 190.236 1.96847 191.222 1.41546C192.207 0.862444 193.289 0.585938 194.468 0.585938C195.658 0.585938 196.74 0.862444 197.713 1.41546C198.699 1.96847 199.475 2.73788 200.04 3.72368C200.617 4.69746 200.905 5.79748 200.905 7.02372C200.905 8.26199 200.617 9.37402 200.04 10.3598C199.475 11.3336 198.699 12.097 197.713 12.65C196.728 13.203 195.646 13.4795 194.468 13.4795ZM194.468 11.2254C195.225 11.2254 195.892 11.0571 196.469 10.7205C197.046 10.3719 197.497 9.87895 197.822 9.24178C198.146 8.60462 198.309 7.86526 198.309 7.02372C198.309 6.18218 198.146 5.44884 197.822 4.82369C197.497 4.18653 197.046 3.69964 196.469 3.36302C195.892 3.0264 195.225 2.8581 194.468 2.8581C193.71 2.8581 193.037 3.0264 192.448 3.36302C191.871 3.69964 191.42 4.18653 191.095 4.82369C190.771 5.44884 190.608 6.18218 190.608 7.02372C190.608 7.86526 190.771 8.60462 191.095 9.24178C191.42 9.87895 191.871 10.3719 192.448 10.7205C193.037 11.0571 193.71 11.2254 194.468 11.2254Z" fill="white"/>
<path d="M183.207 13.3527L180.43 8.44769H179.239V13.3527H176.715V0.765625H181.439C182.413 0.765625 183.243 0.939944 183.928 1.28858C184.613 1.6252 185.124 2.08805 185.461 2.67712C185.809 3.25418 185.984 3.90337 185.984 4.62469C185.984 5.45421 185.743 6.20558 185.262 6.87881C184.782 7.54003 184.066 7.99686 183.117 8.24932L186.128 13.3527H183.207ZM179.239 6.55422H181.349C182.035 6.55422 182.546 6.39192 182.882 6.06733C183.219 5.73071 183.387 5.26787 183.387 4.67879C183.387 4.10173 183.219 3.65692 182.882 3.34435C182.546 3.01975 182.035 2.85745 181.349 2.85745H179.239V6.55422Z" fill="white"/>
<path d="M164.618 2.79795V5.95373H168.856V7.95539H164.618V11.2915H169.397V13.3473H162.094V0.742188H169.397V2.79795H164.618Z" fill="white"/>
<path d="M159.893 0.765625V2.80335H156.539V13.3527H154.014V2.80335H150.66V0.765625H159.893Z" fill="white"/>
<path d="M145.775 10.9489H140.762L139.932 13.3473H137.281L141.808 0.742188H144.747L149.273 13.3473H146.604L145.775 10.9489ZM145.09 8.92917L143.268 3.66354L141.447 8.92917H145.09Z" fill="white"/>
<path d="M135.858 0.765625V2.80335H132.504V13.3527H129.979V2.80335H126.625V0.765625H135.858Z" fill="white"/>
<path d="M120.288 13.4795C119.41 13.4795 118.617 13.3293 117.907 13.0287C117.21 12.7282 116.657 12.2954 116.248 11.7303C115.84 11.1653 115.629 10.4981 115.617 9.72867H118.322C118.358 10.2456 118.539 10.6544 118.863 10.9549C119.2 11.2555 119.657 11.4057 120.234 11.4057C120.823 11.4057 121.286 11.2675 121.622 10.991C121.959 10.7025 122.127 10.3298 122.127 9.87294C122.127 9.50026 122.013 9.19369 121.784 8.95325C121.556 8.71281 121.268 8.52647 120.919 8.39423C120.582 8.24997 120.113 8.09368 119.512 7.92537C118.695 7.68493 118.028 7.4505 117.511 7.22209C117.006 6.98165 116.567 6.627 116.194 6.15814C115.834 5.67726 115.653 5.04009 115.653 4.24664C115.653 3.50127 115.84 2.85209 116.212 2.29907C116.585 1.74606 117.108 1.32529 117.781 1.03676C118.454 0.736213 119.224 0.585938 120.089 0.585938C121.388 0.585938 122.44 0.904521 123.245 1.54169C124.063 2.16683 124.513 3.04444 124.598 4.17451H121.821C121.796 3.74171 121.61 3.38707 121.262 3.11056C120.925 2.82203 120.474 2.67777 119.909 2.67777C119.416 2.67777 119.019 2.804 118.719 3.05646C118.43 3.30892 118.286 3.67559 118.286 4.15647C118.286 4.49309 118.394 4.77561 118.611 5.00402C118.839 5.22042 119.116 5.40075 119.44 5.54502C119.777 5.67726 120.246 5.83354 120.847 6.01387C121.664 6.25431 122.331 6.49475 122.848 6.73519C123.365 6.97563 123.81 7.33629 124.183 7.81717C124.556 8.29805 124.742 8.92921 124.742 9.71064C124.742 10.3839 124.568 11.009 124.219 11.5861C123.87 12.1631 123.359 12.626 122.686 12.9746C122.013 13.3112 121.213 13.4795 120.288 13.4795Z" fill="white"/>
<path d="M105.732 10.9489H100.719L99.8891 13.3473H97.2383L101.765 0.742188H104.704L109.23 13.3473H106.561L105.732 10.9489ZM105.047 8.92917L103.225 3.66354L101.404 8.92917H105.047Z" fill="white"/>
<path d="M95.1602 13.3473H92.6356L86.9192 4.70945V13.3473H84.3945V0.742188H86.9192L92.6356 9.39803V0.742188H95.1602V13.3473Z" fill="white"/>
<path d="M78.8451 10.9489H73.8319L73.0024 13.3473H70.3516L74.8778 0.742188H77.8172L82.3435 13.3473H79.6746L78.8451 10.9489ZM78.1599 8.92917L76.3385 3.66354L74.5172 8.92917H78.1599Z" fill="white"/>
<path d="M65.6819 4.55079C65.3933 4.02182 64.9966 3.61909 64.4917 3.34258C63.9868 3.06607 63.3977 2.92782 62.7244 2.92782C61.9791 2.92782 61.3179 3.09613 60.7408 3.43274C60.1638 3.76936 59.7129 4.25024 59.3883 4.87539C59.0637 5.50053 58.9014 6.22185 58.9014 7.03935C58.9014 7.88089 59.0637 8.61423 59.3883 9.23937C59.725 9.86452 60.1878 10.3454 60.7769 10.682C61.366 11.0186 62.0512 11.1869 62.8326 11.1869C63.7944 11.1869 64.5818 10.9345 65.195 10.4296C65.8081 9.91261 66.2108 9.1973 66.4032 8.28363H62.0753V6.35409H68.8917V8.55412C68.7234 9.43173 68.3628 10.2432 67.8097 10.9886C67.2567 11.7339 66.5414 12.335 65.6638 12.7919C64.7982 13.2367 63.8245 13.4591 62.7425 13.4591C61.5282 13.4591 60.4282 13.1886 59.4424 12.6476C58.4687 12.0946 57.6992 11.3312 57.1342 10.3574C56.5812 9.38364 56.3047 8.27761 56.3047 7.03935C56.3047 5.80108 56.5812 4.69506 57.1342 3.72127C57.6992 2.73547 58.4687 1.97207 59.4424 1.43108C60.4282 0.878069 61.5222 0.601562 62.7244 0.601562C64.143 0.601562 65.3753 0.9502 66.4212 1.64748C67.4671 2.33273 68.1884 3.3005 68.5852 4.55079H65.6819Z" fill="white"/>
<path d="M54.0665 13.3473H51.5419L45.8254 4.70945V13.3473H43.3008V0.742188H45.8254L51.5419 9.39803V0.742188H54.0665V13.3473Z" fill="white"/>
<path d="M37.7514 10.9489H32.7382L31.9087 13.3473H29.2578L33.7841 0.742188H36.7235L41.2498 13.3473H38.5809L37.7514 10.9489ZM37.0661 8.92917L35.2448 3.66354L33.4234 8.92917H37.0661Z" fill="white"/>
<path d="M23.9192 11.351H28.0667V13.3527H21.3945V0.765625H23.9192V11.351Z" fill="white"/>
<path d="M13.9582 2.79795V5.95373H18.196V7.95539H13.9582V11.2915H18.737V13.3473H11.4336V0.742188H18.737V2.79795H13.9582Z" fill="white"/>
<path d="M9.2329 0.765625V2.80335H5.87876V13.3527H3.35414V2.80335H0V0.765625H9.2329Z" fill="white"/>
</svg>
