<svg width="482" height="14" viewBox="0 0 482 14" fill="none" xmlns="http://www.w3.org/2000/svg">
<path d="M481.57 13.357H479.046L473.329 4.71922V13.357H470.805V0.751953H473.329L479.046 9.4078V0.751953H481.57V13.357Z" fill="white"/>
<path d="M462.128 13.4893C460.95 13.4893 459.868 13.2128 458.882 12.6598C457.896 12.1068 457.114 11.3434 456.537 10.3696C455.96 9.38379 455.672 8.27175 455.672 7.03349C455.672 5.80724 455.96 4.70723 456.537 3.73345C457.114 2.74764 457.896 1.97823 458.882 1.42522C459.868 0.872209 460.95 0.595703 462.128 0.595703C463.318 0.595703 464.4 0.872209 465.374 1.42522C466.359 1.97823 467.135 2.74764 467.7 3.73345C468.277 4.70723 468.565 5.80724 468.565 7.03349C468.565 8.27175 468.277 9.38379 467.7 10.3696C467.135 11.3434 466.359 12.1068 465.374 12.6598C464.388 13.2128 463.306 13.4893 462.128 13.4893ZM462.128 11.2352C462.885 11.2352 463.552 11.0669 464.129 10.7303C464.706 10.3816 465.157 9.88871 465.482 9.25155C465.806 8.61438 465.969 7.87503 465.969 7.03349C465.969 6.19195 465.806 5.4586 465.482 4.83346C465.157 4.19629 464.706 3.7094 464.129 3.37279C463.552 3.03617 462.885 2.86786 462.128 2.86786C461.37 2.86786 460.697 3.03617 460.108 3.37279C459.531 3.7094 459.08 4.19629 458.756 4.83346C458.431 5.4586 458.269 6.19195 458.269 7.03349C458.269 7.87503 458.431 8.61438 458.756 9.25155C459.08 9.88871 459.531 10.3816 460.108 10.7303C460.697 11.0669 461.37 11.2352 462.128 11.2352Z" fill="white"/>
<path d="M453.431 0.775391V13.3624H450.906V0.775391H453.431Z" fill="white"/>
<path d="M448.704 0.775391V2.81312H445.349V13.3624H442.825V2.81312H439.471V0.775391H448.704Z" fill="white"/>
<path d="M434.587 10.9586H429.574L428.745 13.357H426.094L430.62 0.751953H433.559L438.086 13.357H435.417L434.587 10.9586ZM433.902 8.93894L432.081 3.6733L430.259 8.93894H433.902Z" fill="white"/>
<path d="M421.449 13.3624L418.672 8.45745H417.482V13.3624H414.957V0.775391H419.682C420.655 0.775391 421.485 0.94971 422.17 1.29835C422.855 1.63496 423.366 2.09781 423.703 2.68689C424.052 3.26395 424.226 3.91313 424.226 4.63445C424.226 5.46397 423.986 6.21535 423.505 6.88858C423.024 7.54979 422.309 8.00663 421.359 8.25909L424.37 13.3624H421.449ZM417.482 6.56399H419.591C420.277 6.56399 420.788 6.40169 421.124 6.0771C421.461 5.74048 421.629 5.27763 421.629 4.68855C421.629 4.1115 421.461 3.66668 421.124 3.35411C420.788 3.02952 420.277 2.86722 419.591 2.86722H417.482V6.56399Z" fill="white"/>
<path d="M406.278 13.4893C405.1 13.4893 404.018 13.2128 403.032 12.6598C402.047 12.1068 401.265 11.3434 400.688 10.3696C400.111 9.38379 399.823 8.27175 399.823 7.03349C399.823 5.80724 400.111 4.70723 400.688 3.73345C401.265 2.74764 402.047 1.97823 403.032 1.42522C404.018 0.872209 405.1 0.595703 406.278 0.595703C407.468 0.595703 408.55 0.872209 409.524 1.42522C410.51 1.97823 411.285 2.74764 411.851 3.73345C412.428 4.70723 412.716 5.80724 412.716 7.03349C412.716 8.27175 412.428 9.38379 411.851 10.3696C411.285 11.3434 410.51 12.1068 409.524 12.6598C408.538 13.2128 407.456 13.4893 406.278 13.4893ZM406.278 11.2352C407.036 11.2352 407.703 11.0669 408.28 10.7303C408.857 10.3816 409.308 9.88871 409.632 9.25155C409.957 8.61438 410.119 7.87503 410.119 7.03349C410.119 6.19195 409.957 5.4586 409.632 4.83346C409.308 4.19629 408.857 3.7094 408.28 3.37279C407.703 3.03617 407.036 2.86786 406.278 2.86786C405.521 2.86786 404.848 3.03617 404.259 3.37279C403.682 3.7094 403.231 4.19629 402.906 4.83346C402.582 5.4586 402.419 6.19195 402.419 7.03349C402.419 7.87503 402.582 8.61438 402.906 9.25155C403.231 9.88871 403.682 10.3816 404.259 10.7303C404.848 11.0669 405.521 11.2352 406.278 11.2352Z" fill="white"/>
<path d="M398.284 4.67052C398.284 5.34375 398.122 5.97491 397.797 6.56399C397.485 7.15307 396.986 7.62793 396.301 7.98859C395.627 8.34925 394.774 8.52959 393.74 8.52959H391.63V13.3624H389.105V0.775391H393.74C394.714 0.775391 395.543 0.943699 396.228 1.28032C396.914 1.61693 397.425 2.07978 397.761 2.66886C398.11 3.25793 398.284 3.92516 398.284 4.67052ZM393.632 6.49185C394.329 6.49185 394.846 6.33557 395.183 6.023C395.519 5.6984 395.688 5.24758 395.688 4.67052C395.688 3.44428 395.002 2.83115 393.632 2.83115H391.63V6.49185H393.632Z" fill="white"/>
<path d="M383.683 13.3624L380.906 8.45745H379.716V13.3624H377.191V0.775391H381.916C382.89 0.775391 383.719 0.94971 384.405 1.29835C385.09 1.63496 385.601 2.09781 385.937 2.68689C386.286 3.26395 386.46 3.91313 386.46 4.63445C386.46 5.46397 386.22 6.21535 385.739 6.88858C385.258 7.54979 384.543 8.00663 383.593 8.25909L386.605 13.3624H383.683ZM379.716 6.56399H381.826C382.511 6.56399 383.022 6.40169 383.359 6.0771C383.695 5.74048 383.864 5.27763 383.864 4.68855C383.864 4.1115 383.695 3.66668 383.359 3.35411C383.022 3.02952 382.511 2.86722 381.826 2.86722H379.716V6.56399Z" fill="white"/>
<path d="M368.514 13.4893C367.336 13.4893 366.254 13.2128 365.268 12.6598C364.283 12.1068 363.501 11.3434 362.924 10.3696C362.347 9.38379 362.059 8.27175 362.059 7.03349C362.059 5.80724 362.347 4.70723 362.924 3.73345C363.501 2.74764 364.283 1.97823 365.268 1.42522C366.254 0.872209 367.336 0.595703 368.514 0.595703C369.705 0.595703 370.787 0.872209 371.76 1.42522C372.746 1.97823 373.522 2.74764 374.087 3.73345C374.664 4.70723 374.952 5.80724 374.952 7.03349C374.952 8.27175 374.664 9.38379 374.087 10.3696C373.522 11.3434 372.746 12.1068 371.76 12.6598C370.775 13.2128 369.693 13.4893 368.514 13.4893ZM368.514 11.2352C369.272 11.2352 369.939 11.0669 370.516 10.7303C371.093 10.3816 371.544 9.88871 371.869 9.25155C372.193 8.61438 372.355 7.87503 372.355 7.03349C372.355 6.19195 372.193 5.4586 371.869 4.83346C371.544 4.19629 371.093 3.7094 370.516 3.37279C369.939 3.03617 369.272 2.86786 368.514 2.86786C367.757 2.86786 367.084 3.03617 366.495 3.37279C365.918 3.7094 365.467 4.19629 365.142 4.83346C364.818 5.4586 364.655 6.19195 364.655 7.03349C364.655 7.87503 364.818 8.61438 365.142 9.25155C365.467 9.88871 365.918 10.3816 366.495 10.7303C367.084 11.0669 367.757 11.2352 368.514 11.2352Z" fill="white"/>
<path d="M347.855 7.04911C347.855 5.81084 348.132 4.70482 348.685 3.73104C349.25 2.74523 350.013 1.98184 350.975 1.44085C351.949 0.887834 353.037 0.611328 354.239 0.611328C355.646 0.611328 356.878 0.971989 357.936 1.69331C358.994 2.41463 359.733 3.41246 360.154 4.68679H357.251C356.962 4.08569 356.553 3.63486 356.024 3.33431C355.507 3.03376 354.906 2.88349 354.221 2.88349C353.488 2.88349 352.833 3.05781 352.256 3.40644C351.691 3.74306 351.246 4.22394 350.921 4.84908C350.609 5.47423 350.452 6.20757 350.452 7.04911C350.452 7.87863 350.609 8.61197 350.921 9.24914C351.246 9.87428 351.691 10.3612 352.256 10.7098C352.833 11.0464 353.488 11.2147 354.221 11.2147C354.906 11.2147 355.507 11.0645 356.024 10.7639C356.553 10.4513 356.962 9.9945 357.251 9.3934H360.154C359.733 10.6798 358.994 11.6836 357.936 12.4049C356.89 13.1142 355.658 13.4689 354.239 13.4689C353.037 13.4689 351.949 13.1984 350.975 12.6574C350.013 12.1044 349.25 11.341 348.685 10.3672C348.132 9.3934 347.855 8.28738 347.855 7.04911Z" fill="white"/>
<path d="M341.612 0.775391V2.81312H338.258V13.3624H335.733V2.81312H332.379V0.775391H341.612Z" fill="white"/>
<path d="M327.625 13.3624L324.848 8.45745H323.657V13.3624H321.133V0.775391H325.857C326.831 0.775391 327.661 0.94971 328.346 1.29835C329.031 1.63496 329.542 2.09781 329.879 2.68689C330.227 3.26395 330.402 3.91313 330.402 4.63445C330.402 5.46397 330.161 6.21535 329.68 6.88858C329.2 7.54979 328.484 8.00663 327.535 8.25909L330.546 13.3624H327.625ZM323.657 6.56399H325.767C326.453 6.56399 326.963 6.40169 327.3 6.0771C327.637 5.74048 327.805 5.27763 327.805 4.68855C327.805 4.1115 327.637 3.66668 327.3 3.35411C326.963 3.02952 326.453 2.86722 325.767 2.86722H323.657V6.56399Z" fill="white"/>
<path d="M312.452 13.4893C311.274 13.4893 310.192 13.2128 309.206 12.6598C308.22 12.1068 307.439 11.3434 306.862 10.3696C306.285 9.38379 305.996 8.27175 305.996 7.03349C305.996 5.80724 306.285 4.70723 306.862 3.73345C307.439 2.74764 308.22 1.97823 309.206 1.42522C310.192 0.872209 311.274 0.595703 312.452 0.595703C313.642 0.595703 314.724 0.872209 315.698 1.42522C316.684 1.97823 317.459 2.74764 318.024 3.73345C318.601 4.70723 318.89 5.80724 318.89 7.03349C318.89 8.27175 318.601 9.38379 318.024 10.3696C317.459 11.3434 316.684 12.1068 315.698 12.6598C314.712 13.2128 313.63 13.4893 312.452 13.4893ZM312.452 11.2352C313.209 11.2352 313.877 11.0669 314.454 10.7303C315.031 10.3816 315.481 9.88871 315.806 9.25155C316.131 8.61438 316.293 7.87503 316.293 7.03349C316.293 6.19195 316.131 5.4586 315.806 4.83346C315.481 4.19629 315.031 3.7094 314.454 3.37279C313.877 3.03617 313.209 2.86786 312.452 2.86786C311.695 2.86786 311.021 3.03617 310.432 3.37279C309.855 3.7094 309.404 4.19629 309.08 4.83346C308.755 5.4586 308.593 6.19195 308.593 7.03349C308.593 7.87503 308.755 8.61438 309.08 9.25155C309.404 9.88871 309.855 10.3816 310.432 10.7303C311.021 11.0669 311.695 11.2352 312.452 11.2352Z" fill="white"/>
<path d="M304.458 4.67052C304.458 5.34375 304.296 5.97491 303.971 6.56399C303.659 7.15307 303.16 7.62793 302.474 7.98859C301.801 8.34925 300.948 8.52959 299.914 8.52959H297.804V13.3624H295.279V0.775391H299.914C300.888 0.775391 301.717 0.943699 302.402 1.28032C303.088 1.61693 303.599 2.07978 303.935 2.66886C304.284 3.25793 304.458 3.92516 304.458 4.67052ZM299.806 6.49185C300.503 6.49185 301.02 6.33557 301.356 6.023C301.693 5.6984 301.861 5.24758 301.861 4.67052C301.861 3.44428 301.176 2.83115 299.806 2.83115H297.804V6.49185H299.806Z" fill="white"/>
<path d="M288.276 13.4893C287.398 13.4893 286.605 13.339 285.896 13.0385C285.198 12.7379 284.645 12.3051 284.237 11.7401C283.828 11.1751 283.617 10.5078 283.605 9.73844H286.31C286.346 10.2554 286.527 10.6641 286.851 10.9647C287.188 11.2652 287.645 11.4155 288.222 11.4155C288.811 11.4155 289.274 11.2773 289.61 11.0007C289.947 10.7122 290.115 10.3395 290.115 9.8827C290.115 9.51002 290.001 9.20346 289.773 8.96302C289.544 8.72258 289.256 8.53624 288.907 8.404C288.571 8.25973 288.102 8.10345 287.501 7.93514C286.683 7.6947 286.016 7.46027 285.499 7.23185C284.994 6.99141 284.555 6.63676 284.183 6.1679C283.822 5.68702 283.642 5.04986 283.642 4.2564C283.642 3.51104 283.828 2.86185 284.201 2.30884C284.573 1.75583 285.096 1.33506 285.769 1.04653C286.443 0.745979 287.212 0.595703 288.078 0.595703C289.376 0.595703 290.428 0.914286 291.233 1.55145C292.051 2.1766 292.502 3.0542 292.586 4.18427H289.809C289.785 3.75148 289.598 3.39683 289.25 3.12032C288.913 2.8318 288.462 2.68753 287.897 2.68753C287.404 2.68753 287.008 2.81376 286.707 3.06623C286.419 3.31869 286.274 3.68536 286.274 4.16624C286.274 4.50285 286.383 4.78537 286.599 5.01379C286.827 5.23019 287.104 5.41052 287.428 5.55478C287.765 5.68702 288.234 5.84331 288.835 6.02364C289.653 6.26408 290.32 6.50452 290.837 6.74496C291.354 6.9854 291.798 7.34606 292.171 7.82694C292.544 8.30782 292.73 8.93898 292.73 9.72041C292.73 10.3936 292.556 11.0188 292.207 11.5958C291.859 12.1729 291.348 12.6357 290.674 12.9844C290.001 13.321 289.202 13.4893 288.276 13.4893Z" fill="white"/>
<path d="M281.074 13.357H278.55L272.833 4.71922V13.357H270.309V0.751953H272.833L278.55 9.4078V0.751953H281.074V13.357Z" fill="white"/>
<path d="M264.757 10.9586H259.744L258.915 13.357H256.264L260.79 0.751953H263.729L268.256 13.357H265.587L264.757 10.9586ZM264.072 8.93894L262.251 3.6733L260.429 8.93894H264.072Z" fill="white"/>
<path d="M251.619 13.3624L248.842 8.45745H247.652V13.3624H245.127V0.775391H249.852C250.825 0.775391 251.655 0.94971 252.34 1.29835C253.025 1.63496 253.536 2.09781 253.873 2.68689C254.222 3.26395 254.396 3.91313 254.396 4.63445C254.396 5.46397 254.155 6.21535 253.675 6.88858C253.194 7.54979 252.478 8.00663 251.529 8.25909L254.54 13.3624H251.619ZM247.652 6.56399H249.761C250.447 6.56399 250.958 6.40169 251.294 6.0771C251.631 5.74048 251.799 5.27763 251.799 4.68855C251.799 4.1115 251.631 3.66668 251.294 3.35411C250.958 3.02952 250.447 2.86722 249.761 2.86722H247.652V6.56399Z" fill="white"/>
<path d="M242.922 0.775391V2.81312H239.568V13.3624H237.044V2.81312H233.689V0.775391H242.922Z" fill="white"/>
<path d="M220.814 0.775391C222.137 0.775391 223.297 1.03386 224.294 1.55081C225.304 2.06776 226.08 2.80711 226.621 3.76887C227.174 4.71861 227.45 5.82463 227.45 7.08694C227.45 8.34925 227.174 9.45528 226.621 10.405C226.08 11.3427 225.304 12.0701 224.294 12.587C223.297 13.104 222.137 13.3624 220.814 13.3624H216.414V0.775391H220.814ZM220.724 11.2165C222.046 11.2165 223.068 10.8558 223.79 10.1345C224.511 9.4132 224.872 8.39734 224.872 7.08694C224.872 5.77655 224.511 4.75467 223.79 4.02133C223.068 3.27597 222.046 2.90329 220.724 2.90329H218.939V11.2165H220.724Z" fill="white"/>
<path d="M210.863 10.9586H205.85L205.02 13.357H202.369L206.895 0.751953H209.835L214.361 13.357H211.692L210.863 10.9586ZM210.177 8.93894L208.356 3.6733L206.535 8.93894H210.177Z" fill="white"/>
<path d="M194.468 13.4893C193.289 13.4893 192.207 13.2128 191.222 12.6598C190.236 12.1068 189.454 11.3434 188.877 10.3696C188.3 9.38379 188.012 8.27175 188.012 7.03349C188.012 5.80724 188.3 4.70723 188.877 3.73345C189.454 2.74764 190.236 1.97823 191.222 1.42522C192.207 0.872209 193.289 0.595703 194.468 0.595703C195.658 0.595703 196.74 0.872209 197.713 1.42522C198.699 1.97823 199.475 2.74764 200.04 3.73345C200.617 4.70723 200.905 5.80724 200.905 7.03349C200.905 8.27175 200.617 9.38379 200.04 10.3696C199.475 11.3434 198.699 12.1068 197.713 12.6598C196.728 13.2128 195.646 13.4893 194.468 13.4893ZM194.468 11.2352C195.225 11.2352 195.892 11.0669 196.469 10.7303C197.046 10.3816 197.497 9.88871 197.822 9.25155C198.146 8.61438 198.309 7.87503 198.309 7.03349C198.309 6.19195 198.146 5.4586 197.822 4.83346C197.497 4.19629 197.046 3.7094 196.469 3.37279C195.892 3.03617 195.225 2.86786 194.468 2.86786C193.71 2.86786 193.037 3.03617 192.448 3.37279C191.871 3.7094 191.42 4.19629 191.095 4.83346C190.771 5.4586 190.608 6.19195 190.608 7.03349C190.608 7.87503 190.771 8.61438 191.095 9.25155C191.42 9.88871 191.871 10.3816 192.448 10.7303C193.037 11.0669 193.71 11.2352 194.468 11.2352Z" fill="white"/>
<path d="M183.207 13.3624L180.43 8.45745H179.239V13.3624H176.715V0.775391H181.439C182.413 0.775391 183.243 0.94971 183.928 1.29835C184.613 1.63496 185.124 2.09781 185.461 2.68689C185.809 3.26395 185.984 3.91313 185.984 4.63445C185.984 5.46397 185.743 6.21535 185.262 6.88858C184.782 7.54979 184.066 8.00663 183.117 8.25909L186.128 13.3624H183.207ZM179.239 6.56399H181.349C182.035 6.56399 182.546 6.40169 182.882 6.0771C183.219 5.74048 183.387 5.27763 183.387 4.68855C183.387 4.1115 183.219 3.66668 182.882 3.35411C182.546 3.02952 182.035 2.86722 181.349 2.86722H179.239V6.56399Z" fill="white"/>
<path d="M164.62 2.80772V5.96349H168.858V7.96516H164.62V11.3013H169.399V13.357H162.096V0.751953H169.399V2.80772H164.62Z" fill="white"/>
<path d="M159.893 0.775391V2.81312H156.539V13.3624H154.014V2.81312H150.66V0.775391H159.893Z" fill="white"/>
<path d="M145.777 10.9586H140.764L139.934 13.357H137.283L141.809 0.751953H144.749L149.275 13.357H146.606L145.777 10.9586ZM145.092 8.93894L143.27 3.6733L141.449 8.93894H145.092Z" fill="white"/>
<path d="M135.856 0.775391V2.81312H132.502V13.3624H129.977V2.81312H126.623V0.775391H135.856Z" fill="white"/>
<path d="M120.288 13.4893C119.41 13.4893 118.617 13.339 117.907 13.0385C117.21 12.7379 116.657 12.3051 116.248 11.7401C115.84 11.1751 115.629 10.5078 115.617 9.73844H118.322C118.358 10.2554 118.539 10.6641 118.863 10.9647C119.2 11.2652 119.657 11.4155 120.234 11.4155C120.823 11.4155 121.286 11.2773 121.622 11.0007C121.959 10.7122 122.127 10.3395 122.127 9.8827C122.127 9.51002 122.013 9.20346 121.784 8.96302C121.556 8.72258 121.268 8.53624 120.919 8.404C120.582 8.25973 120.113 8.10345 119.512 7.93514C118.695 7.6947 118.028 7.46027 117.511 7.23185C117.006 6.99141 116.567 6.63676 116.194 6.1679C115.834 5.68702 115.653 5.04986 115.653 4.2564C115.653 3.51104 115.84 2.86185 116.212 2.30884C116.585 1.75583 117.108 1.33506 117.781 1.04653C118.454 0.745979 119.224 0.595703 120.089 0.595703C121.388 0.595703 122.44 0.914286 123.245 1.55145C124.063 2.1766 124.513 3.0542 124.598 4.18427H121.821C121.796 3.75148 121.61 3.39683 121.262 3.12032C120.925 2.8318 120.474 2.68753 119.909 2.68753C119.416 2.68753 119.019 2.81376 118.719 3.06623C118.43 3.31869 118.286 3.68536 118.286 4.16624C118.286 4.50285 118.394 4.78537 118.611 5.01379C118.839 5.23019 119.116 5.41052 119.44 5.55478C119.777 5.68702 120.246 5.84331 120.847 6.02364C121.664 6.26408 122.331 6.50452 122.848 6.74496C123.365 6.9854 123.81 7.34606 124.183 7.82694C124.556 8.30782 124.742 8.93898 124.742 9.72041C124.742 10.3936 124.568 11.0188 124.219 11.5958C123.87 12.1729 123.359 12.6357 122.686 12.9844C122.013 13.321 121.213 13.4893 120.288 13.4893Z" fill="white"/>
<path d="M105.732 10.9586H100.719L99.8891 13.357H97.2383L101.765 0.751953H104.704L109.23 13.357H106.561L105.732 10.9586ZM105.047 8.93894L103.225 3.6733L101.404 8.93894H105.047Z" fill="white"/>
<path d="M95.1602 13.357H92.6356L86.9192 4.71922V13.357H84.3945V0.751953H86.9192L92.6356 9.4078V0.751953H95.1602V13.357Z" fill="white"/>
<path d="M78.8432 10.9586H73.83L73.0005 13.357H70.3496L74.8759 0.751953H77.8153L82.3416 13.357H79.6727L78.8432 10.9586ZM78.1579 8.93894L76.3366 3.6733L74.5152 8.93894H78.1579Z" fill="white"/>
<path d="M65.6838 4.56056C65.3953 4.03159 64.9986 3.62885 64.4936 3.35235C63.9887 3.07584 63.3996 2.93759 62.7264 2.93759C61.981 2.93759 61.3198 3.10589 60.7428 3.44251C60.1657 3.77913 59.7149 4.26001 59.3903 4.88515C59.0657 5.5103 58.9034 6.23162 58.9034 7.04911C58.9034 7.89065 59.0657 8.624 59.3903 9.24914C59.7269 9.87428 60.1898 10.3552 60.7788 10.6918C61.3679 11.0284 62.0532 11.1967 62.8346 11.1967C63.7964 11.1967 64.5838 10.9442 65.1969 10.4393C65.81 9.92237 66.2128 9.20706 66.4051 8.29339H62.0772V6.36386H68.8937V8.56388C68.7254 9.44149 68.3647 10.253 67.8117 10.9983C67.2587 11.7437 66.5434 12.3448 65.6658 12.8016C64.8002 13.2465 63.8264 13.4689 62.7444 13.4689C61.5302 13.4689 60.4302 13.1984 59.4444 12.6574C58.4706 12.1044 57.7012 11.341 57.1362 10.3672C56.5831 9.3934 56.3066 8.28738 56.3066 7.04911C56.3066 5.81084 56.5831 4.70482 57.1362 3.73104C57.7012 2.74523 58.4706 1.98184 59.4444 1.44085C60.4302 0.887834 61.5242 0.611328 62.7264 0.611328C64.145 0.611328 65.3772 0.959966 66.4232 1.65724C67.4691 2.3425 68.1904 3.31027 68.5871 4.56056H65.6838Z" fill="white"/>
<path d="M54.0665 13.357H51.5419L45.8254 4.71922V13.357H43.3008V0.751953H45.8254L51.5419 9.4078V0.751953H54.0665V13.357Z" fill="white"/>
<path d="M37.7514 10.9586H32.7382L31.9087 13.357H29.2578L33.7841 0.751953H36.7235L41.2498 13.357H38.5809L37.7514 10.9586ZM37.0661 8.93894L35.2448 3.6733L33.4234 8.93894H37.0661Z" fill="white"/>
<path d="M23.9192 11.3608H28.0667V13.3624H21.3945V0.775391H23.9192V11.3608Z" fill="white"/>
<path d="M13.9582 2.80772V5.96349H18.196V7.96516H13.9582V11.3013H18.737V13.357H11.4336V0.751953H18.737V2.80772H13.9582Z" fill="white"/>
<path d="M9.2329 0.775391V2.81312H5.87876V13.3624H3.35414V2.81312H0V0.775391H9.2329Z" fill="white"/>
</svg>
