<svg width="426" height="13" viewBox="0 0 426 13" fill="none" xmlns="http://www.w3.org/2000/svg">
<path d="M425.938 12.0559H423.737L418.754 4.33806V12.0559H416.553V0.793335H418.754L423.737 8.52729V0.793335H425.938V12.0559Z" fill="#1E57AC"/>
<path d="M409.052 12.0559C408.023 12.0559 407.078 11.8144 406.217 11.3313C405.356 10.8483 404.673 10.1814 404.169 9.33083C403.665 8.46973 403.413 7.49837 403.413 6.41674C403.413 5.34562 403.665 4.38476 404.169 3.53416C404.673 2.67305 405.356 2.00098 406.217 1.51792C407.078 1.03486 408.023 0.793335 409.052 0.793335C410.092 0.793335 411.037 1.03486 411.888 1.51792C412.749 2.00098 413.426 2.67305 413.92 3.53416C414.424 4.38476 414.676 5.34562 414.676 6.41674C414.676 7.49837 414.424 8.46973 413.92 9.33083C413.426 10.1814 412.749 10.8483 411.888 11.3313C411.026 11.8144 410.081 12.0559 409.052 12.0559ZM409.052 10.0869C409.714 10.0869 410.297 9.93991 410.801 9.64587C411.305 9.34134 411.699 8.91079 411.982 8.35422C412.266 7.79766 412.407 7.15183 412.407 6.41674C412.407 5.68166 412.266 5.04108 411.982 4.49502C411.699 3.93845 411.305 3.51315 410.801 3.21912C410.297 2.92508 409.714 2.77807 409.052 2.77807C408.391 2.77807 407.803 2.92508 407.288 3.21912C406.784 3.51315 406.39 3.93845 406.107 4.49502C405.823 5.04108 405.681 5.68166 405.681 6.41674C405.681 7.15183 405.823 7.79766 406.107 8.35422C406.39 8.91079 406.784 9.34134 407.288 9.64587C407.803 9.93991 408.391 10.0869 409.052 10.0869Z" fill="#1E57AC"/>
<path d="M400.598 0.793335V12.0559H398.721V0.793335H400.598Z" fill="#1E57AC"/>
<path d="M396.843 0.793335V2.61664H393.775V12.0559H391.465V2.61664H388.396V0.793335H396.843Z" fill="#1E57AC"/>
<path d="M384.446 9.91296H380.13L379.416 12.0559H377.134L381.031 0.793335H383.561L387.458 12.0559H385.16L384.446 9.91296ZM383.856 8.10837L382.288 3.40354L380.72 8.10837H383.856Z" fill="#1E57AC"/>
<path d="M372.636 12.0559L370.143 7.66705H369.076V12.0559H366.81V0.793335H371.05C371.924 0.793335 372.668 0.949312 373.283 1.26126C373.898 1.56246 374.356 1.9766 374.658 2.5037C374.971 3.02003 375.128 3.60091 375.128 4.24633C375.128 4.98856 374.912 5.66087 374.48 6.26326C374.049 6.8549 373.407 7.26367 372.555 7.48956L375.257 12.0559H372.636ZM369.076 5.97283H370.969C371.584 5.97283 372.042 5.82761 372.344 5.53717C372.646 5.23597 372.797 4.82183 372.797 4.29474C372.797 3.7784 372.646 3.38039 372.344 3.10071C372.042 2.81027 371.584 2.66505 370.969 2.66505H369.076V5.97283Z" fill="#1E57AC"/>
<path d="M359.31 12.0559C358.28 12.0559 357.335 11.8144 356.474 11.3313C355.613 10.8483 354.931 10.1814 354.426 9.33083C353.922 8.46973 353.67 7.49837 353.67 6.41674C353.67 5.34562 353.922 4.38476 354.426 3.53416C354.931 2.67305 355.613 2.00098 356.474 1.51792C357.335 1.03486 358.28 0.793335 359.31 0.793335C360.349 0.793335 361.294 1.03486 362.145 1.51792C363.006 2.00098 363.683 2.67305 364.177 3.53416C364.681 4.38476 364.933 5.34562 364.933 6.41674C364.933 7.49837 364.681 8.46973 364.177 9.33083C363.683 10.1814 363.006 10.8483 362.145 11.3313C361.284 11.8144 360.339 12.0559 359.31 12.0559ZM359.31 10.0869C359.971 10.0869 360.554 9.93991 361.058 9.64587C361.562 9.34134 361.956 8.91079 362.239 8.35422C362.523 7.79766 362.665 7.15183 362.665 6.41674C362.665 5.68166 362.523 5.04108 362.239 4.49502C361.956 3.93845 361.562 3.51315 361.058 3.21912C360.554 2.92508 359.971 2.77807 359.31 2.77807C358.648 2.77807 358.06 2.92508 357.545 3.21912C357.041 3.51315 356.648 3.93845 356.364 4.49502C356.08 5.04108 355.939 5.68166 355.939 6.41674C355.939 7.15183 356.08 7.79766 356.364 8.35422C356.648 8.91079 357.041 9.34134 357.545 9.64587C358.06 9.93991 358.648 10.0869 359.31 10.0869Z" fill="#1E57AC"/>
<path d="M352.732 4.2786C352.732 4.88099 352.582 5.44573 352.284 5.97283C351.996 6.49992 351.537 6.92482 350.906 7.24753C350.287 7.57024 349.501 7.7316 348.55 7.7316H346.608V12.0559H344.285V0.793335H348.55C349.446 0.793335 350.209 0.943933 350.84 1.24513C351.47 1.54632 351.941 1.96047 352.25 2.48756C352.571 3.01465 352.732 3.61167 352.732 4.2786ZM348.45 5.90828C349.092 5.90828 349.567 5.76844 349.877 5.48876C350.187 5.19832 350.342 4.79494 350.342 4.2786C350.342 3.18139 349.711 2.63278 348.45 2.63278H346.608V5.90828H348.45Z" fill="#1E57AC"/>
<path d="M339.786 12.0559L337.294 7.66705H336.226V12.0559H333.961V0.793335H338.201C339.074 0.793335 339.819 0.949312 340.434 1.26126C341.049 1.56246 341.507 1.9766 341.809 2.5037C342.122 3.02003 342.278 3.60091 342.278 4.24633C342.278 4.98856 342.063 5.66087 341.631 6.26326C341.2 6.8549 340.558 7.26367 339.705 7.48956L342.408 12.0559H339.786ZM336.226 5.97283H338.12C338.735 5.97283 339.193 5.82761 339.495 5.53717C339.797 5.23597 339.948 4.82183 339.948 4.29474C339.948 3.7784 339.797 3.38039 339.495 3.10071C339.193 2.81027 338.735 2.66505 338.12 2.66505H336.226V5.97283Z" fill="#1E57AC"/>
<path d="M326.46 12.0559C325.431 12.0559 324.486 11.8144 323.625 11.3313C322.764 10.8483 322.081 10.1814 321.577 9.33083C321.073 8.46973 320.821 7.49837 320.821 6.41674C320.821 5.34562 321.073 4.38476 321.577 3.53416C322.081 2.67305 322.764 2.00098 323.625 1.51792C324.486 1.03486 325.431 0.793335 326.46 0.793335C327.5 0.793335 328.445 1.03486 329.296 1.51792C330.157 2.00098 330.834 2.67305 331.328 3.53416C331.832 4.38476 332.084 5.34562 332.084 6.41674C332.084 7.49837 331.832 8.46973 331.328 9.33083C330.834 10.1814 330.157 10.8483 329.296 11.3313C328.435 11.8144 327.49 12.0559 326.46 12.0559ZM326.46 10.0869C327.122 10.0869 327.705 9.93991 328.209 9.64587C328.713 9.34134 329.107 8.91079 329.39 8.35422C329.674 7.79766 329.816 7.15183 329.816 6.41674C329.816 5.68166 329.674 5.04108 329.39 4.49502C329.107 3.93845 328.713 3.51315 328.209 3.21912C327.705 2.92508 327.122 2.77807 326.46 2.77807C325.799 2.77807 325.211 2.92508 324.696 3.21912C324.192 3.51315 323.798 3.93845 323.515 4.49502C323.231 5.04108 323.09 5.68166 323.09 6.41674C323.09 7.15183 323.231 7.79766 323.515 8.35422C323.798 8.91079 324.192 9.34134 324.696 9.64587C325.211 9.93991 325.799 10.0869 326.46 10.0869Z" fill="#1E57AC"/>
<path d="M307.681 6.43252C307.681 5.34786 307.934 4.37903 308.441 3.52605C308.958 2.66253 309.657 1.99383 310.538 1.51995C311.43 1.03554 312.426 0.793335 313.527 0.793335C314.815 0.793335 315.944 1.10926 316.913 1.7411C317.881 2.37294 318.558 3.24699 318.944 4.36324H316.285C316.021 3.8367 315.646 3.4418 315.162 3.17853C314.689 2.91527 314.138 2.78364 313.511 2.78364C312.839 2.78364 312.239 2.93633 311.711 3.24172C311.193 3.53658 310.786 3.95781 310.489 4.5054C310.202 5.053 310.059 5.69537 310.059 6.43252C310.059 7.15913 310.202 7.80151 310.489 8.35963C310.786 8.90723 311.193 9.33372 311.711 9.63911C312.239 9.93397 312.839 10.0814 313.511 10.0814C314.138 10.0814 314.689 9.94977 315.162 9.6865C315.646 9.4127 316.021 9.01254 316.285 8.486H318.944C318.558 9.61279 317.881 10.4921 316.913 11.1239C315.955 11.7453 314.826 12.0559 313.527 12.0559C312.426 12.0559 311.43 11.819 310.538 11.3451C309.657 10.8607 308.958 10.192 308.441 9.33899C307.934 8.486 307.681 7.51718 307.681 6.43252Z" fill="#1E57AC"/>
<path d="M302.988 0.793335V2.61664H299.92V12.0559H297.61V2.61664H294.542V0.793335H302.988Z" fill="#1E57AC"/>
<path d="M290.043 12.0559L287.551 7.66705H286.483V12.0559H284.218V0.793335H288.457C289.331 0.793335 290.076 0.949312 290.691 1.26126C291.305 1.56246 291.764 1.9766 292.066 2.5037C292.379 3.02003 292.535 3.60091 292.535 4.24633C292.535 4.98856 292.32 5.66087 291.888 6.26326C291.456 6.8549 290.815 7.26367 289.962 7.48956L292.665 12.0559H290.043ZM286.483 5.97283H288.377C288.991 5.97283 289.45 5.82761 289.752 5.53717C290.054 5.23597 290.205 4.82183 290.205 4.29474C290.205 3.7784 290.054 3.38039 289.752 3.10071C289.45 2.81027 288.991 2.66505 288.377 2.66505H286.483V5.97283Z" fill="#1E57AC"/>
<path d="M276.717 12.0559C275.688 12.0559 274.743 11.8144 273.882 11.3313C273.021 10.8483 272.338 10.1814 271.834 9.33083C271.33 8.46973 271.078 7.49837 271.078 6.41674C271.078 5.34562 271.33 4.38476 271.834 3.53416C272.338 2.67305 273.021 2.00098 273.882 1.51792C274.743 1.03486 275.688 0.793335 276.717 0.793335C277.757 0.793335 278.702 1.03486 279.553 1.51792C280.414 2.00098 281.091 2.67305 281.585 3.53416C282.089 4.38476 282.341 5.34562 282.341 6.41674C282.341 7.49837 282.089 8.46973 281.585 9.33083C281.091 10.1814 280.414 10.8483 279.553 11.3313C278.692 11.8144 277.746 12.0559 276.717 12.0559ZM276.717 10.0869C277.379 10.0869 277.962 9.93991 278.466 9.64587C278.97 9.34134 279.364 8.91079 279.647 8.35422C279.931 7.79766 280.072 7.15183 280.072 6.41674C280.072 5.68166 279.931 5.04108 279.647 4.49502C279.364 3.93845 278.97 3.51315 278.466 3.21912C277.962 2.92508 277.379 2.77807 276.717 2.77807C276.056 2.77807 275.468 2.92508 274.953 3.21912C274.449 3.51315 274.055 3.93845 273.772 4.49502C273.488 5.04108 273.346 5.68166 273.346 6.41674C273.346 7.15183 273.488 7.79766 273.772 8.35422C274.055 8.91079 274.449 9.34134 274.953 9.64587C275.468 9.93991 276.056 10.0869 276.717 10.0869Z" fill="#1E57AC"/>
<path d="M270.139 4.2786C270.139 4.88099 269.99 5.44573 269.691 5.97283C269.404 6.49992 268.944 6.92482 268.314 7.24753C267.694 7.57024 266.909 7.7316 265.957 7.7316H264.016V12.0559H261.692V0.793335H265.957C266.853 0.793335 267.617 0.943933 268.247 1.24513C268.878 1.54632 269.348 1.96047 269.658 2.48756C269.979 3.01465 270.139 3.61167 270.139 4.2786ZM265.858 5.90828C266.499 5.90828 266.975 5.76844 267.285 5.48876C267.595 5.19832 267.75 4.79494 267.75 4.2786C267.75 3.18139 267.119 2.63278 265.858 2.63278H264.016V5.90828H265.858Z" fill="#1E57AC"/>
<path d="M255.692 12.0559C254.88 12.0559 254.145 11.9246 253.489 11.6621C252.843 11.3996 252.331 11.0215 251.953 10.528C251.575 10.0344 251.38 9.4516 251.369 8.77952H253.873C253.906 9.23107 254.073 9.58812 254.373 9.85065C254.685 10.1132 255.108 10.2444 255.642 10.2444C256.188 10.2444 256.616 10.1237 256.928 9.88215C257.239 9.63012 257.395 9.30458 257.395 8.90554C257.395 8.58 257.289 8.31222 257.078 8.10219C256.866 7.89217 256.599 7.7294 256.277 7.61388C255.965 7.48787 255.531 7.35135 254.974 7.20434C254.218 6.99431 253.6 6.78954 253.121 6.59001C252.654 6.37999 252.248 6.0702 251.903 5.66066C251.569 5.24061 251.402 4.68404 251.402 3.99096C251.402 3.33988 251.575 2.77282 251.92 2.28976C252.265 1.8067 252.749 1.43916 253.372 1.18713C253.995 0.924601 254.707 0.793335 255.509 0.793335C256.711 0.793335 257.684 1.07162 258.43 1.62818C259.187 2.17425 259.604 2.94084 259.682 3.92795H257.111C257.089 3.54991 256.916 3.24012 256.594 2.99859C256.282 2.74656 255.865 2.62055 255.342 2.62055C254.885 2.62055 254.518 2.73081 254.24 2.95134C253.973 3.17186 253.839 3.49215 253.839 3.9122C253.839 4.20623 253.939 4.45301 254.14 4.65254C254.351 4.84156 254.607 4.99908 254.908 5.12509C255.219 5.24061 255.653 5.37712 256.21 5.53464C256.967 5.74467 257.584 5.95469 258.063 6.16471C258.541 6.37474 258.953 6.68978 259.298 7.10983C259.643 7.52987 259.816 8.08119 259.816 8.76377C259.816 9.35184 259.654 9.8979 259.331 10.402C259.009 10.906 258.536 11.3103 257.913 11.6149C257.289 11.9089 256.549 12.0559 255.692 12.0559Z" fill="#1E57AC"/>
<path d="M248.553 12.0559H246.352L241.368 4.33806V12.0559H239.167V0.793335H241.368L246.352 8.52729V0.793335H248.553V12.0559Z" fill="#1E57AC"/>
<path d="M234.279 9.91296H229.963L229.248 12.0559H226.966L230.863 0.793335H233.394L237.29 12.0559H234.993L234.279 9.91296ZM233.689 8.10837L232.121 3.40354L230.553 8.10837H233.689Z" fill="#1E57AC"/>
<path d="M223.407 12.0559L220.915 7.66705H219.847V12.0559H217.581V0.793335H221.821C222.695 0.793335 223.439 0.949312 224.054 1.26126C224.669 1.56246 225.127 1.9766 225.429 2.5037C225.742 3.02003 225.899 3.60091 225.899 4.24633C225.899 4.98856 225.683 5.66087 225.251 6.26326C224.82 6.8549 224.178 7.26367 223.326 7.48956L226.028 12.0559H223.407ZM219.847 5.97283H221.74C222.355 5.97283 222.813 5.82761 223.115 5.53717C223.417 5.23597 223.568 4.82183 223.568 4.29474C223.568 3.7784 223.417 3.38039 223.115 3.10071C222.813 2.81027 222.355 2.66505 221.74 2.66505H219.847V5.97283Z" fill="#1E57AC"/>
<path d="M215.704 0.793335V2.61664H212.635V12.0559H210.325V2.61664H207.257V0.793335H215.704Z" fill="#1E57AC"/>
<path d="M195.982 0.793335C197.107 0.793335 198.093 1.02461 198.942 1.48716C199.801 1.94971 200.46 2.61127 200.92 3.47183C201.391 4.32163 201.626 5.31127 201.626 6.44075C201.626 7.57024 201.391 8.55988 200.92 9.40968C200.46 10.2487 199.801 10.8995 198.942 11.3621C198.093 11.8246 197.107 12.0559 195.982 12.0559H192.24V0.793335H195.982ZM195.905 10.1358C197.03 10.1358 197.899 9.81307 198.513 9.16765C199.126 8.52223 199.433 7.61327 199.433 6.44075C199.433 5.26824 199.126 4.3539 198.513 3.69772C197.899 3.03079 197.03 2.69732 195.905 2.69732H194.387V10.1358H195.905Z" fill="#1E57AC"/>
<path d="M186.413 9.91296H182.097L181.383 12.0559H179.101L182.997 0.793335H185.528L189.425 12.0559H187.127L186.413 9.91296ZM185.823 8.10837L184.255 3.40354L182.687 8.10837H185.823Z" fill="#1E57AC"/>
<path d="M172.539 12.0559C171.509 12.0559 170.564 11.8144 169.703 11.3313C168.842 10.8483 168.16 10.1814 167.656 9.33083C167.151 8.46973 166.899 7.49837 166.899 6.41674C166.899 5.34562 167.151 4.38476 167.656 3.53416C168.16 2.67305 168.842 2.00098 169.703 1.51792C170.564 1.03486 171.509 0.793335 172.539 0.793335C173.578 0.793335 174.523 1.03486 175.374 1.51792C176.235 2.00098 176.912 2.67305 177.406 3.53416C177.91 4.38476 178.162 5.34562 178.162 6.41674C178.162 7.49837 177.91 8.46973 177.406 9.33083C176.912 10.1814 176.235 10.8483 175.374 11.3313C174.513 11.8144 173.568 12.0559 172.539 12.0559ZM172.539 10.0869C173.2 10.0869 173.783 9.93991 174.287 9.64587C174.791 9.34134 175.185 8.91079 175.468 8.35422C175.752 7.79766 175.894 7.15183 175.894 6.41674C175.894 5.68166 175.752 5.04108 175.468 4.49502C175.185 3.93845 174.791 3.51315 174.287 3.21912C173.783 2.92508 173.2 2.77807 172.539 2.77807C171.877 2.77807 171.289 2.92508 170.774 3.21912C170.27 3.51315 169.877 3.93845 169.593 4.49502C169.309 5.04108 169.168 5.68166 169.168 6.41674C169.168 7.15183 169.309 7.79766 169.593 8.35422C169.877 8.91079 170.27 9.34134 170.774 9.64587C171.289 9.93991 171.877 10.0869 172.539 10.0869Z" fill="#1E57AC"/>
<path d="M162.401 12.0559L159.909 7.66705H158.841V12.0559H156.575V0.793335H160.815C161.689 0.793335 162.433 0.949312 163.048 1.26126C163.663 1.56246 164.121 1.9766 164.423 2.5037C164.736 3.02003 164.893 3.60091 164.893 4.24633C164.893 4.98856 164.677 5.66087 164.245 6.26326C163.814 6.8549 163.172 7.26367 162.32 7.48956L165.022 12.0559H162.401ZM158.841 5.97283H160.734C161.349 5.97283 161.807 5.82761 162.109 5.53717C162.411 5.23597 162.562 4.82183 162.562 4.29474C162.562 3.7784 162.411 3.38039 162.109 3.10071C161.807 2.81027 161.349 2.66505 160.734 2.66505H158.841V5.97283Z" fill="#1E57AC"/>
<path d="M145.707 2.63015V5.44982H149.519V7.2383H145.707V10.2191H150.005V12.0559H143.436V0.793335H150.005V2.63015H145.707Z" fill="#1E57AC"/>
<path d="M142.497 0.793335V2.61664H139.429V12.0559H137.119V2.61664H134.05V0.793335H142.497Z" fill="#1E57AC"/>
<path d="M129.161 9.91296H124.845L124.131 12.0559H121.849L125.746 0.793335H128.276L132.173 12.0559H129.875L129.161 9.91296ZM128.571 8.10837L127.003 3.40354L125.435 8.10837H128.571Z" fill="#1E57AC"/>
<path d="M120.91 0.793335V2.61664H117.842V12.0559H115.532V2.61664H112.463V0.793335H120.91Z" fill="#1E57AC"/>
<path d="M107.402 12.0559C106.589 12.0559 105.855 11.9246 105.198 11.6621C104.553 11.3996 104.041 11.0215 103.662 10.528C103.284 10.0344 103.089 9.4516 103.078 8.77952H105.582C105.616 9.23107 105.782 9.58812 106.083 9.85065C106.395 10.1132 106.817 10.2444 107.352 10.2444C107.897 10.2444 108.325 10.1237 108.637 9.88215C108.949 9.63012 109.104 9.30458 109.104 8.90554C109.104 8.58 108.999 8.31222 108.787 8.10219C108.576 7.89217 108.309 7.7294 107.986 7.61388C107.674 7.48787 107.24 7.35135 106.684 7.20434C105.927 6.99431 105.309 6.78954 104.831 6.59001C104.364 6.37999 103.957 6.0702 103.612 5.66066C103.278 5.24061 103.112 4.68404 103.112 3.99096C103.112 3.33988 103.284 2.77282 103.629 2.28976C103.974 1.8067 104.458 1.43916 105.081 1.18713C105.705 0.924601 106.417 0.793335 107.218 0.793335C108.42 0.793335 109.394 1.07162 110.139 1.62818C110.896 2.17425 111.314 2.94084 111.392 3.92795H108.821C108.798 3.54991 108.626 3.24012 108.303 2.99859C107.992 2.74656 107.574 2.62055 107.051 2.62055C106.595 2.62055 106.228 2.73081 105.949 2.95134C105.682 3.17186 105.549 3.49215 105.549 3.9122C105.549 4.20623 105.649 4.45301 105.849 4.65254C106.061 4.84156 106.317 4.99908 106.617 5.12509C106.929 5.24061 107.363 5.37712 107.919 5.53464C108.676 5.74467 109.294 5.95469 109.772 6.16471C110.251 6.37474 110.663 6.68978 111.008 7.10983C111.353 7.52987 111.525 8.08119 111.525 8.76377C111.525 9.35184 111.364 9.8979 111.041 10.402C110.718 10.906 110.245 11.3103 109.622 11.6149C108.999 11.9089 108.259 12.0559 107.402 12.0559Z" fill="#1E57AC"/>
<path d="M93.4963 9.91296H89.1804L88.4662 12.0559H86.1841L90.0808 0.793335H92.6114L96.5081 12.0559H94.2104L93.4963 9.91296ZM92.9063 8.10837L91.3383 3.40354L89.7703 8.10837H92.9063Z" fill="#1E57AC"/>
<path d="M84.3069 12.0559H82.1059L77.1223 4.33806V12.0559H74.9214V0.793335H77.1223L82.1059 8.52729V0.793335H84.3069V12.0559Z" fill="#1E57AC"/>
<path d="M70.0329 9.91296H65.717L65.0029 12.0559H62.7207L66.6174 0.793335H69.148L73.0447 12.0559H70.747L70.0329 9.91296ZM69.443 8.10837L67.875 3.40354L66.3069 8.10837H69.443Z" fill="#1E57AC"/>
<path d="M58.91 4.25267C58.6518 3.78932 58.2968 3.43654 57.845 3.19433C57.3932 2.95213 56.8662 2.83102 56.2638 2.83102C55.5968 2.83102 55.0052 2.97845 54.4889 3.27331C53.9725 3.56817 53.5691 3.9894 53.2787 4.53699C52.9883 5.08459 52.843 5.71643 52.843 6.43252C52.843 7.16967 52.9883 7.81204 53.2787 8.35963C53.5799 8.90723 53.994 9.32846 54.5211 9.62332C55.0482 9.91818 55.6614 10.0656 56.3606 10.0656C57.2211 10.0656 57.9257 9.84446 58.4743 9.40217C59.0229 8.94935 59.3833 8.32278 59.5554 7.52244H55.6829V5.83227H61.7821V7.75938C61.6315 8.52812 61.3088 9.23895 60.814 9.89185C60.3191 10.5448 59.6791 11.0713 58.8938 11.4715C58.1193 11.8611 57.248 12.0559 56.2799 12.0559C55.1934 12.0559 54.2092 11.819 53.3271 11.3451C52.4558 10.8607 51.7673 10.192 51.2618 9.33899C50.7669 8.486 50.5195 7.51718 50.5195 6.43252C50.5195 5.34786 50.7669 4.37903 51.2618 3.52605C51.7673 2.66253 52.4558 1.99383 53.3271 1.51995C54.2092 1.03554 55.1881 0.793335 56.2638 0.793335C57.5331 0.793335 58.6357 1.09872 59.5715 1.7095C60.5074 2.30975 61.1528 3.15747 61.5078 4.25267H58.91Z" fill="#1E57AC"/>
<path d="M48.6423 12.0559H46.4414L41.4578 4.33806V12.0559H39.2568V0.793335H41.4578L46.4414 8.52729V0.793335H48.6423V12.0559Z" fill="#1E57AC"/>
<path d="M34.3679 9.91296H30.052L29.3378 12.0559H27.0557L30.9524 0.793335H33.483L37.3797 12.0559H35.082L34.3679 9.91296ZM33.7779 8.10837L32.2099 3.40354L30.6419 8.10837H33.7779Z" fill="#1E57AC"/>
<path d="M21.6781 10.2649H25.1786V12.0559H19.5474V0.793335H21.6781V10.2649Z" fill="#1E57AC"/>
<path d="M13.3716 2.63015V5.44982H17.1838V7.2383H13.3716V10.2191H17.6704V12.0559H11.1006V0.793335H17.6704V2.63015H13.3716Z" fill="#1E57AC"/>
<path d="M9.22329 0.793335V2.61664H6.15468V12.0559H3.84498V2.61664H0.776367V0.793335H9.22329Z" fill="#1E57AC"/>
</svg>
