<svg width="426" height="13" viewBox="0 0 426 13" fill="none" xmlns="http://www.w3.org/2000/svg">
<path d="M425.939 12.0555H423.738L418.754 4.3377V12.0555H416.553V0.792969H418.754L423.738 8.52692V0.792969H425.939V12.0555Z" fill="#1E57AC"/>
<path d="M409.053 12.0555C408.024 12.0555 407.078 11.814 406.217 11.331C405.356 10.8479 404.674 10.1811 404.17 9.33047C403.666 8.46937 403.414 7.498 403.414 6.41638C403.414 5.34525 403.666 4.38439 404.17 3.53379C404.674 2.67269 405.356 2.00061 406.217 1.51755C407.078 1.0345 408.024 0.792969 409.053 0.792969C410.092 0.792969 411.037 1.0345 411.888 1.51755C412.749 2.00061 413.427 2.67269 413.92 3.53379C414.424 4.38439 414.676 5.34525 414.676 6.41638C414.676 7.498 414.424 8.46937 413.92 9.33047C413.427 10.1811 412.749 10.8479 411.888 11.331C411.027 11.814 410.082 12.0555 409.053 12.0555ZM409.053 10.0866C409.714 10.0866 410.297 9.93954 410.801 9.64551C411.305 9.34097 411.699 8.91042 411.983 8.35385C412.266 7.79729 412.408 7.15146 412.408 6.41638C412.408 5.68129 412.266 5.04072 411.983 4.49465C411.699 3.93809 411.305 3.51279 410.801 3.21875C410.297 2.92472 409.714 2.7777 409.053 2.7777C408.391 2.7777 407.803 2.92472 407.289 3.21875C406.784 3.51279 406.391 3.93809 406.107 4.49465C405.824 5.04072 405.682 5.68129 405.682 6.41638C405.682 7.15146 405.824 7.79729 406.107 8.35385C406.391 8.91042 406.784 9.34097 407.289 9.64551C407.803 9.93954 408.391 10.0866 409.053 10.0866Z" fill="#1E57AC"/>
<path d="M400.598 0.792969V12.0555H398.721V0.792969H400.598Z" fill="#1E57AC"/>
<path d="M396.844 0.792969V2.61628H393.775V12.0555H391.465V2.61628H388.397V0.792969H396.844Z" fill="#1E57AC"/>
<path d="M384.446 9.91259H380.13L379.416 12.0555H377.134L381.031 0.792969H383.561L387.458 12.0555H385.16L384.446 9.91259ZM383.856 8.108L382.288 3.40318L380.72 8.108H383.856Z" fill="#1E57AC"/>
<path d="M372.636 12.0555L370.143 7.66669H369.076V12.0555H366.81V0.792969H371.05C371.924 0.792969 372.668 0.948945 373.283 1.2609C373.898 1.56209 374.356 1.97624 374.658 2.50333C374.971 3.01967 375.128 3.60054 375.128 4.24596C375.128 4.98819 374.912 5.66051 374.48 6.2629C374.049 6.85453 373.407 7.2633 372.555 7.4892L375.257 12.0555H372.636ZM369.076 5.97246H370.969C371.584 5.97246 372.042 5.82724 372.344 5.5368C372.646 5.23561 372.797 4.82146 372.797 4.29437C372.797 3.77803 372.646 3.38003 372.344 3.10034C372.042 2.80991 371.584 2.66469 370.969 2.66469H369.076V5.97246Z" fill="#1E57AC"/>
<path d="M359.31 12.0555C358.28 12.0555 357.335 11.814 356.474 11.331C355.613 10.8479 354.931 10.1811 354.426 9.33047C353.922 8.46937 353.67 7.498 353.67 6.41638C353.67 5.34525 353.922 4.38439 354.426 3.53379C354.931 2.67269 355.613 2.00061 356.474 1.51755C357.335 1.0345 358.28 0.792969 359.31 0.792969C360.349 0.792969 361.294 1.0345 362.145 1.51755C363.006 2.00061 363.683 2.67269 364.177 3.53379C364.681 4.38439 364.933 5.34525 364.933 6.41638C364.933 7.498 364.681 8.46937 364.177 9.33047C363.683 10.1811 363.006 10.8479 362.145 11.331C361.284 11.814 360.339 12.0555 359.31 12.0555ZM359.31 10.0866C359.971 10.0866 360.554 9.93954 361.058 9.64551C361.562 9.34097 361.956 8.91042 362.239 8.35385C362.523 7.79729 362.665 7.15146 362.665 6.41638C362.665 5.68129 362.523 5.04072 362.239 4.49465C361.956 3.93809 361.562 3.51279 361.058 3.21875C360.554 2.92472 359.971 2.7777 359.31 2.7777C358.648 2.7777 358.06 2.92472 357.545 3.21875C357.041 3.51279 356.648 3.93809 356.364 4.49465C356.08 5.04072 355.939 5.68129 355.939 6.41638C355.939 7.15146 356.08 7.79729 356.364 8.35385C356.648 8.91042 357.041 9.34097 357.545 9.64551C358.06 9.93954 358.648 10.0866 359.31 10.0866Z" fill="#1E57AC"/>
<path d="M352.732 4.27823C352.732 4.88063 352.582 5.44537 352.284 5.97246C351.996 6.49955 351.537 6.92445 350.906 7.24716C350.287 7.56987 349.501 7.73123 348.55 7.73123H346.608V12.0555H344.285V0.792969H348.55C349.446 0.792969 350.209 0.943567 350.84 1.24476C351.471 1.54596 351.941 1.9601 352.251 2.48719C352.571 3.01429 352.732 3.6113 352.732 4.27823ZM348.45 5.90792C349.092 5.90792 349.568 5.76808 349.877 5.4884C350.187 5.19796 350.342 4.79457 350.342 4.27823C350.342 3.18102 349.712 2.63241 348.45 2.63241H346.608V5.90792H348.45Z" fill="#1E57AC"/>
<path d="M339.786 12.0555L337.294 7.66669H336.226V12.0555H333.961V0.792969H338.201C339.074 0.792969 339.819 0.948945 340.434 1.2609C341.049 1.56209 341.507 1.97624 341.809 2.50333C342.122 3.01967 342.278 3.60054 342.278 4.24596C342.278 4.98819 342.063 5.66051 341.631 6.2629C341.2 6.85453 340.558 7.2633 339.705 7.4892L342.408 12.0555H339.786ZM336.226 5.97246H338.12C338.735 5.97246 339.193 5.82724 339.495 5.5368C339.797 5.23561 339.948 4.82146 339.948 4.29437C339.948 3.77803 339.797 3.38003 339.495 3.10034C339.193 2.80991 338.735 2.66469 338.12 2.66469H336.226V5.97246Z" fill="#1E57AC"/>
<path d="M326.46 12.0555C325.431 12.0555 324.486 11.814 323.625 11.331C322.764 10.8479 322.081 10.1811 321.577 9.33047C321.073 8.46937 320.821 7.498 320.821 6.41638C320.821 5.34525 321.073 4.38439 321.577 3.53379C322.081 2.67269 322.764 2.00061 323.625 1.51755C324.486 1.0345 325.431 0.792969 326.46 0.792969C327.5 0.792969 328.445 1.0345 329.296 1.51755C330.157 2.00061 330.834 2.67269 331.328 3.53379C331.832 4.38439 332.084 5.34525 332.084 6.41638C332.084 7.498 331.832 8.46937 331.328 9.33047C330.834 10.1811 330.157 10.8479 329.296 11.331C328.435 11.814 327.49 12.0555 326.46 12.0555ZM326.46 10.0866C327.122 10.0866 327.705 9.93954 328.209 9.64551C328.713 9.34097 329.107 8.91042 329.39 8.35385C329.674 7.79729 329.816 7.15146 329.816 6.41638C329.816 5.68129 329.674 5.04072 329.39 4.49465C329.107 3.93809 328.713 3.51279 328.209 3.21875C327.705 2.92472 327.122 2.7777 326.46 2.7777C325.799 2.7777 325.211 2.92472 324.696 3.21875C324.192 3.51279 323.798 3.93809 323.515 4.49465C323.231 5.04072 323.09 5.68129 323.09 6.41638C323.09 7.15146 323.231 7.79729 323.515 8.35385C323.798 8.91042 324.192 9.34097 324.696 9.64551C325.211 9.93954 325.799 10.0866 326.46 10.0866Z" fill="#1E57AC"/>
<path d="M307.682 6.43215C307.682 5.34749 307.935 4.37867 308.441 3.52568C308.959 2.66217 309.658 1.99347 310.539 1.51959C311.43 1.03517 312.427 0.792969 313.528 0.792969C314.816 0.792969 315.944 1.10889 316.913 1.74073C317.882 2.37257 318.559 3.24662 318.944 4.36287H316.285C316.021 3.83634 315.647 3.44144 315.162 3.17817C314.689 2.9149 314.139 2.78327 313.511 2.78327C312.84 2.78327 312.24 2.93596 311.711 3.24135C311.194 3.53621 310.786 3.95744 310.489 4.50504C310.203 5.05263 310.06 5.695 310.06 6.43215C310.06 7.15877 310.203 7.80114 310.489 8.35927C310.786 8.90686 311.194 9.33336 311.711 9.63875C312.24 9.93361 312.84 10.081 313.511 10.081C314.139 10.081 314.689 9.9494 315.162 9.68614C315.647 9.41234 316.021 9.01217 316.285 8.48564H318.944C318.559 9.61242 317.882 10.4917 316.913 11.1236C315.955 11.7449 314.827 12.0555 313.528 12.0555C312.427 12.0555 311.43 11.8186 310.539 11.3447C309.658 10.8603 308.959 10.1916 308.441 9.33862C307.935 8.48564 307.682 7.51681 307.682 6.43215Z" fill="#1E57AC"/>
<path d="M302.989 0.792969V2.61628H299.92V12.0555H297.611V2.61628H294.542V0.792969H302.989Z" fill="#1E57AC"/>
<path d="M290.043 12.0555L287.551 7.66669H286.483V12.0555H284.218V0.792969H288.458C289.331 0.792969 290.076 0.948945 290.691 1.2609C291.306 1.56209 291.764 1.97624 292.066 2.50333C292.379 3.01967 292.535 3.60054 292.535 4.24596C292.535 4.98819 292.32 5.66051 291.888 6.2629C291.457 6.85453 290.815 7.2633 289.963 7.4892L292.665 12.0555H290.043ZM286.483 5.97246H288.377C288.992 5.97246 289.45 5.82724 289.752 5.5368C290.054 5.23561 290.205 4.82146 290.205 4.29437C290.205 3.77803 290.054 3.38003 289.752 3.10034C289.45 2.80991 288.992 2.66469 288.377 2.66469H286.483V5.97246Z" fill="#1E57AC"/>
<path d="M276.718 12.0555C275.688 12.0555 274.743 11.814 273.882 11.331C273.021 10.8479 272.339 10.1811 271.834 9.33047C271.33 8.46937 271.078 7.498 271.078 6.41638C271.078 5.34525 271.33 4.38439 271.834 3.53379C272.339 2.67269 273.021 2.00061 273.882 1.51755C274.743 1.0345 275.688 0.792969 276.718 0.792969C277.757 0.792969 278.702 1.0345 279.553 1.51755C280.414 2.00061 281.091 2.67269 281.585 3.53379C282.089 4.38439 282.341 5.34525 282.341 6.41638C282.341 7.498 282.089 8.46937 281.585 9.33047C281.091 10.1811 280.414 10.8479 279.553 11.331C278.692 11.814 277.747 12.0555 276.718 12.0555ZM276.718 10.0866C277.379 10.0866 277.962 9.93954 278.466 9.64551C278.97 9.34097 279.364 8.91042 279.647 8.35385C279.931 7.79729 280.073 7.15146 280.073 6.41638C280.073 5.68129 279.931 5.04072 279.647 4.49465C279.364 3.93809 278.97 3.51279 278.466 3.21875C277.962 2.92472 277.379 2.7777 276.718 2.7777C276.056 2.7777 275.468 2.92472 274.953 3.21875C274.449 3.51279 274.055 3.93809 273.772 4.49465C273.488 5.04072 273.347 5.68129 273.347 6.41638C273.347 7.15146 273.488 7.79729 273.772 8.35385C274.055 8.91042 274.449 9.34097 274.953 9.64551C275.468 9.93954 276.056 10.0866 276.718 10.0866Z" fill="#1E57AC"/>
<path d="M270.14 4.27823C270.14 4.88063 269.99 5.44537 269.692 5.97246C269.404 6.49955 268.945 6.92445 268.314 7.24716C267.695 7.56987 266.909 7.73123 265.958 7.73123H264.016V12.0555H261.693V0.792969H265.958C266.854 0.792969 267.617 0.943567 268.248 1.24476C268.879 1.54596 269.349 1.9601 269.659 2.48719C269.979 3.01429 270.14 3.6113 270.14 4.27823ZM265.858 5.90792C266.5 5.90792 266.976 5.76808 267.285 5.4884C267.595 5.19796 267.75 4.79457 267.75 4.27823C267.75 3.18102 267.119 2.63241 265.858 2.63241H264.016V5.90792H265.858Z" fill="#1E57AC"/>
<path d="M255.692 12.0555C254.88 12.0555 254.145 11.9243 253.489 11.6617C252.843 11.3992 252.331 11.0212 251.953 10.5276C251.575 10.0341 251.38 9.45123 251.369 8.77916H253.873C253.906 9.23071 254.073 9.58775 254.373 9.85028C254.685 10.1128 255.108 10.2441 255.642 10.2441C256.188 10.2441 256.616 10.1233 256.928 9.88178C257.239 9.62975 257.395 9.30422 257.395 8.90517C257.395 8.57963 257.289 8.31185 257.078 8.10182C256.866 7.8918 256.599 7.72903 256.277 7.61352C255.965 7.4875 255.531 7.35099 254.974 7.20397C254.218 6.99395 253.6 6.78917 253.121 6.58965C252.654 6.37962 252.248 6.06984 251.903 5.66029C251.569 5.24024 251.402 4.68367 251.402 3.99059C251.402 3.33952 251.575 2.77245 251.92 2.28939C252.265 1.80634 252.749 1.43879 253.372 1.18677C253.995 0.924235 254.707 0.792969 255.509 0.792969C256.711 0.792969 257.684 1.07125 258.43 1.62782C259.187 2.17388 259.604 2.94047 259.682 3.92759H257.111C257.089 3.54954 256.916 3.23976 256.594 2.99823C256.282 2.7462 255.865 2.62018 255.342 2.62018C254.885 2.62018 254.518 2.73045 254.24 2.95097C253.973 3.1715 253.839 3.49178 253.839 3.91183C253.839 4.20587 253.939 4.45265 254.14 4.65217C254.351 4.84119 254.607 4.99871 254.908 5.12473C255.219 5.24024 255.653 5.37676 256.21 5.53427C256.967 5.7443 257.584 5.95432 258.063 6.16435C258.541 6.37437 258.953 6.68941 259.298 7.10946C259.643 7.52951 259.816 8.08082 259.816 8.7634C259.816 9.35147 259.654 9.89754 259.331 10.4016C259.009 10.9057 258.536 11.31 257.913 11.6145C257.289 11.9085 256.549 12.0555 255.692 12.0555Z" fill="#1E57AC"/>
<path d="M248.553 12.0555H246.352L241.369 4.3377V12.0555H239.168V0.792969H241.369L246.352 8.52692V0.792969H248.553V12.0555Z" fill="#1E57AC"/>
<path d="M234.279 9.91259H229.963L229.249 12.0555H226.967L230.863 0.792969H233.394L237.291 12.0555H234.993L234.279 9.91259ZM233.689 8.108L232.121 3.40318L230.553 8.108H233.689Z" fill="#1E57AC"/>
<path d="M223.407 12.0555L220.915 7.66669H219.847V12.0555H217.581V0.792969H221.821C222.695 0.792969 223.439 0.948945 224.054 1.2609C224.669 1.56209 225.127 1.97624 225.429 2.50333C225.742 3.01967 225.899 3.60054 225.899 4.24596C225.899 4.98819 225.683 5.66051 225.251 6.2629C224.82 6.85453 224.178 7.2633 223.326 7.4892L226.028 12.0555H223.407ZM219.847 5.97246H221.74C222.355 5.97246 222.813 5.82724 223.115 5.5368C223.417 5.23561 223.568 4.82146 223.568 4.29437C223.568 3.77803 223.417 3.38003 223.115 3.10034C222.813 2.80991 222.355 2.66469 221.74 2.66469H219.847V5.97246Z" fill="#1E57AC"/>
<path d="M215.704 0.792969V2.61628H212.635V12.0555H210.326V2.61628H207.257V0.792969H215.704Z" fill="#1E57AC"/>
<path d="M195.982 0.792969C197.107 0.792969 198.093 1.02424 198.942 1.48679C199.801 1.94934 200.46 2.6109 200.92 3.47146C201.391 4.32126 201.626 5.3109 201.626 6.44039C201.626 7.56987 201.391 8.55952 200.92 9.40932C200.46 10.2484 199.801 10.8992 198.942 11.3617C198.093 11.8243 197.107 12.0555 195.982 12.0555H192.24V0.792969H195.982ZM195.905 10.1354C197.03 10.1354 197.899 9.81271 198.513 9.16729C199.126 8.52187 199.433 7.6129 199.433 6.44039C199.433 5.26788 199.126 4.35353 198.513 3.69736C197.899 3.03042 197.03 2.69696 195.905 2.69696H194.387V10.1354H195.905Z" fill="#1E57AC"/>
<path d="M186.413 9.91259H182.097L181.383 12.0555H179.101L182.997 0.792969H185.528L189.425 12.0555H187.127L186.413 9.91259ZM185.823 8.108L184.255 3.40318L182.687 8.108H185.823Z" fill="#1E57AC"/>
<path d="M172.539 12.0555C171.509 12.0555 170.564 11.814 169.703 11.331C168.842 10.8479 168.16 10.1811 167.656 9.33047C167.151 8.46937 166.899 7.498 166.899 6.41638C166.899 5.34525 167.151 4.38439 167.656 3.53379C168.16 2.67269 168.842 2.00061 169.703 1.51755C170.564 1.0345 171.509 0.792969 172.539 0.792969C173.578 0.792969 174.523 1.0345 175.374 1.51755C176.235 2.00061 176.912 2.67269 177.406 3.53379C177.91 4.38439 178.162 5.34525 178.162 6.41638C178.162 7.498 177.91 8.46937 177.406 9.33047C176.912 10.1811 176.235 10.8479 175.374 11.331C174.513 11.814 173.568 12.0555 172.539 12.0555ZM172.539 10.0866C173.2 10.0866 173.783 9.93954 174.287 9.64551C174.791 9.34097 175.185 8.91042 175.468 8.35385C175.752 7.79729 175.894 7.15146 175.894 6.41638C175.894 5.68129 175.752 5.04072 175.468 4.49465C175.185 3.93809 174.791 3.51279 174.287 3.21875C173.783 2.92472 173.2 2.7777 172.539 2.7777C171.877 2.7777 171.289 2.92472 170.774 3.21875C170.27 3.51279 169.877 3.93809 169.593 4.49465C169.309 5.04072 169.168 5.68129 169.168 6.41638C169.168 7.15146 169.309 7.79729 169.593 8.35385C169.877 8.91042 170.27 9.34097 170.774 9.64551C171.289 9.93954 171.877 10.0866 172.539 10.0866Z" fill="#1E57AC"/>
<path d="M162.401 12.0555L159.909 7.66669H158.841V12.0555H156.575V0.792969H160.815C161.689 0.792969 162.433 0.948945 163.048 1.2609C163.663 1.56209 164.122 1.97624 164.424 2.50333C164.736 3.01967 164.893 3.60054 164.893 4.24596C164.893 4.98819 164.677 5.66051 164.246 6.2629C163.814 6.85453 163.172 7.2633 162.32 7.4892L165.022 12.0555H162.401ZM158.841 5.97246H160.734C161.349 5.97246 161.808 5.82724 162.11 5.5368C162.412 5.23561 162.563 4.82146 162.563 4.29437C162.563 3.77803 162.412 3.38003 162.11 3.10034C161.808 2.80991 161.349 2.66469 160.734 2.66469H158.841V5.97246Z" fill="#1E57AC"/>
<path d="M145.707 2.62978V5.44945H149.519V7.23793H145.707V10.2187H150.006V12.0555H143.436V0.792969H150.006V2.62978H145.707Z" fill="#1E57AC"/>
<path d="M142.497 0.792969V2.61628H139.429V12.0555H137.119V2.61628H134.05V0.792969H142.497Z" fill="#1E57AC"/>
<path d="M129.161 9.91259H124.845L124.131 12.0555H121.849L125.746 0.792969H128.276L132.173 12.0555H129.875L129.161 9.91259ZM128.571 8.108L127.003 3.40318L125.435 8.108H128.571Z" fill="#1E57AC"/>
<path d="M120.911 0.792969V2.61628H117.842V12.0555H115.532V2.61628H112.464V0.792969H120.911Z" fill="#1E57AC"/>
<path d="M107.402 12.0555C106.59 12.0555 105.855 11.9243 105.198 11.6617C104.553 11.3992 104.041 11.0212 103.663 10.5276C103.284 10.0341 103.089 9.45123 103.078 8.77916H105.582C105.616 9.23071 105.783 9.58775 106.083 9.85028C106.395 10.1128 106.818 10.2441 107.352 10.2441C107.897 10.2441 108.326 10.1233 108.637 9.88178C108.949 9.62975 109.105 9.30422 109.105 8.90517C109.105 8.57963 108.999 8.31185 108.788 8.10182C108.576 7.8918 108.309 7.72903 107.986 7.61352C107.675 7.4875 107.241 7.35099 106.684 7.20397C105.927 6.99395 105.31 6.78917 104.831 6.58965C104.364 6.37962 103.958 6.06984 103.613 5.66029C103.279 5.24024 103.112 4.68367 103.112 3.99059C103.112 3.33952 103.284 2.77245 103.629 2.28939C103.974 1.80634 104.458 1.43879 105.082 1.18677C105.705 0.924235 106.417 0.792969 107.218 0.792969C108.42 0.792969 109.394 1.07125 110.14 1.62782C110.897 2.17388 111.314 2.94047 111.392 3.92759H108.821C108.799 3.54954 108.626 3.23976 108.303 2.99823C107.992 2.7462 107.574 2.62018 107.051 2.62018C106.595 2.62018 106.228 2.73045 105.95 2.95097C105.683 3.1715 105.549 3.49178 105.549 3.91183C105.549 4.20587 105.649 4.45265 105.849 4.65217C106.061 4.84119 106.317 4.99871 106.617 5.12473C106.929 5.24024 107.363 5.37676 107.919 5.53427C108.676 5.7443 109.294 5.95432 109.772 6.16435C110.251 6.37437 110.663 6.68941 111.008 7.10946C111.353 7.52951 111.525 8.08082 111.525 8.7634C111.525 9.35147 111.364 9.89754 111.041 10.4016C110.718 10.9057 110.245 11.31 109.622 11.6145C108.999 11.9085 108.259 12.0555 107.402 12.0555Z" fill="#1E57AC"/>
<path d="M93.4965 9.91259H89.1806L88.4665 12.0555H86.1843L90.0811 0.792969H92.6116L96.5083 12.0555H94.2107L93.4965 9.91259ZM92.9066 8.108L91.3386 3.40318L89.7706 8.108H92.9066Z" fill="#1E57AC"/>
<path d="M84.3074 12.0555H82.1064L77.1228 4.3377V12.0555H74.9219V0.792969H77.1228L82.1064 8.52692V0.792969H84.3074V12.0555Z" fill="#1E57AC"/>
<path d="M70.0329 9.91259H65.717L65.0029 12.0555H62.7207L66.6174 0.792969H69.148L73.0447 12.0555H70.747L70.0329 9.91259ZM69.443 8.108L67.875 3.40318L66.3069 8.108H69.443Z" fill="#1E57AC"/>
<path d="M58.91 4.2523C58.6518 3.78895 58.2968 3.43617 57.845 3.19397C57.3932 2.95176 56.8662 2.83066 56.2638 2.83066C55.5968 2.83066 55.0052 2.97809 54.4889 3.27295C53.9725 3.5678 53.5691 3.98903 53.2787 4.53663C52.9883 5.08422 52.843 5.71606 52.843 6.43215C52.843 7.1693 52.9883 7.81167 53.2787 8.35927C53.5799 8.90686 53.994 9.32809 54.5211 9.62295C55.0482 9.91781 55.6614 10.0652 56.3606 10.0652C57.2211 10.0652 57.9257 9.84409 58.4743 9.40181C59.0229 8.94899 59.3833 8.32241 59.5554 7.52208H55.6829V5.8319H61.7821V7.75902C61.6315 8.52776 61.3088 9.23858 60.814 9.89148C60.3191 10.5444 59.6791 11.0709 58.8938 11.4711C58.1193 11.8607 57.248 12.0555 56.2799 12.0555C55.1934 12.0555 54.2092 11.8186 53.3271 11.3447C52.4558 10.8603 51.7673 10.1916 51.2618 9.33862C50.7669 8.48564 50.5195 7.51681 50.5195 6.43215C50.5195 5.34749 50.7669 4.37867 51.2618 3.52568C51.7673 2.66217 52.4558 1.99347 53.3271 1.51959C54.2092 1.03517 55.1881 0.792969 56.2638 0.792969C57.5331 0.792969 58.6357 1.09836 59.5715 1.70914C60.5074 2.30939 61.1528 3.15711 61.5078 4.2523H58.91Z" fill="#1E57AC"/>
<path d="M48.6426 12.0555H46.4416L41.458 4.3377V12.0555H39.2571V0.792969H41.458L46.4416 8.52692V0.792969H48.6426V12.0555Z" fill="#1E57AC"/>
<path d="M34.3681 9.91259H30.0522L29.3381 12.0555H27.0559L30.9526 0.792969H33.4832L37.3799 12.0555H35.0823L34.3681 9.91259ZM33.7782 8.108L32.2102 3.40318L30.6421 8.108H33.7782Z" fill="#1E57AC"/>
<path d="M21.6784 10.2645H25.1789V12.0555H19.5476V0.792969H21.6784V10.2645Z" fill="#1E57AC"/>
<path d="M13.3716 2.62978V5.44945H17.1838V7.23793H13.3716V10.2187H17.6704V12.0555H11.1006V0.792969H17.6704V2.62978H13.3716Z" fill="#1E57AC"/>
<path d="M9.22354 0.792969V2.61628H6.15493V12.0555H3.84522V2.61628H0.776611V0.792969H9.22354Z" fill="#1E57AC"/>
</svg>
