<svg width="482" height="14" viewBox="0 0 482 14" fill="none" xmlns="http://www.w3.org/2000/svg">
<path d="M481.57 13.3453H479.046L473.329 4.7075V13.3453H470.805V0.740234H473.329L479.046 9.39608V0.740234H481.57V13.3453Z" fill="white"/>
<path d="M462.128 13.4776C460.95 13.4776 459.868 13.2011 458.882 12.6481C457.896 12.0951 457.114 11.3317 456.537 10.3579C455.96 9.37207 455.672 8.26004 455.672 7.02177C455.672 5.79552 455.96 4.69551 456.537 3.72173C457.114 2.73592 457.896 1.96651 458.882 1.4135C459.868 0.860491 460.95 0.583984 462.128 0.583984C463.318 0.583984 464.4 0.860491 465.374 1.4135C466.359 1.96651 467.135 2.73592 467.7 3.72173C468.277 4.69551 468.565 5.79552 468.565 7.02177C468.565 8.26004 468.277 9.37207 467.7 10.3579C467.135 11.3317 466.359 12.0951 465.374 12.6481C464.388 13.2011 463.306 13.4776 462.128 13.4776ZM462.128 11.2235C462.885 11.2235 463.552 11.0552 464.129 10.7185C464.706 10.3699 465.157 9.877 465.482 9.23983C465.806 8.60266 465.969 7.86331 465.969 7.02177C465.969 6.18023 465.806 5.44689 465.482 4.82174C465.157 4.18458 464.706 3.69768 464.129 3.36107C463.552 3.02445 462.885 2.85614 462.128 2.85614C461.37 2.85614 460.697 3.02445 460.108 3.36107C459.531 3.69768 459.08 4.18458 458.756 4.82174C458.431 5.44689 458.269 6.18023 458.269 7.02177C458.269 7.86331 458.431 8.60266 458.756 9.23983C459.08 9.877 459.531 10.3699 460.108 10.7185C460.697 11.0552 461.37 11.2235 462.128 11.2235Z" fill="white"/>
<path d="M453.431 0.763672V13.3507H450.906V0.763672H453.431Z" fill="white"/>
<path d="M448.704 0.763672V2.8014H445.349V13.3507H442.825V2.8014H439.471V0.763672H448.704Z" fill="white"/>
<path d="M434.587 10.9469H429.574L428.745 13.3453H426.094L430.62 0.740234H433.559L438.086 13.3453H435.417L434.587 10.9469ZM433.902 8.92722L432.081 3.66158L430.259 8.92722H433.902Z" fill="white"/>
<path d="M421.449 13.3507L418.672 8.44573H417.482V13.3507H414.957V0.763672H419.682C420.655 0.763672 421.485 0.937991 422.17 1.28663C422.855 1.62325 423.366 2.08609 423.703 2.67517C424.052 3.25223 424.226 3.90142 424.226 4.62274C424.226 5.45225 423.986 6.20363 423.505 6.87686C423.024 7.53807 422.309 7.99491 421.359 8.24737L424.37 13.3507H421.449ZM417.482 6.55227H419.591C420.277 6.55227 420.788 6.38997 421.124 6.06538C421.461 5.72876 421.629 5.26591 421.629 4.67684C421.629 4.09978 421.461 3.65496 421.124 3.34239C420.788 3.0178 420.277 2.8555 419.591 2.8555H417.482V6.55227Z" fill="white"/>
<path d="M406.278 13.4776C405.1 13.4776 404.018 13.2011 403.032 12.6481C402.046 12.0951 401.265 11.3317 400.688 10.3579C400.111 9.37207 399.822 8.26004 399.822 7.02177C399.822 5.79552 400.111 4.69551 400.688 3.72173C401.265 2.73592 402.046 1.96651 403.032 1.4135C404.018 0.860491 405.1 0.583984 406.278 0.583984C407.468 0.583984 408.55 0.860491 409.524 1.4135C410.51 1.96651 411.285 2.73592 411.85 3.72173C412.427 4.69551 412.716 5.79552 412.716 7.02177C412.716 8.26004 412.427 9.37207 411.85 10.3579C411.285 11.3317 410.51 12.0951 409.524 12.6481C408.538 13.2011 407.456 13.4776 406.278 13.4776ZM406.278 11.2235C407.035 11.2235 407.703 11.0552 408.28 10.7185C408.857 10.3699 409.308 9.877 409.632 9.23983C409.957 8.60266 410.119 7.86331 410.119 7.02177C410.119 6.18023 409.957 5.44689 409.632 4.82174C409.308 4.18458 408.857 3.69768 408.28 3.36107C407.703 3.02445 407.035 2.85614 406.278 2.85614C405.521 2.85614 404.847 3.02445 404.258 3.36107C403.681 3.69768 403.231 4.18458 402.906 4.82174C402.581 5.44689 402.419 6.18023 402.419 7.02177C402.419 7.86331 402.581 8.60266 402.906 9.23983C403.231 9.877 403.681 10.3699 404.258 10.7185C404.847 11.0552 405.521 11.2235 406.278 11.2235Z" fill="white"/>
<path d="M398.284 4.6588C398.284 5.33203 398.122 5.96319 397.797 6.55227C397.485 7.14135 396.986 7.61622 396.301 7.97688C395.627 8.33754 394.774 8.51787 393.74 8.51787H391.63V13.3507H389.105V0.763672H393.74C394.714 0.763672 395.543 0.931981 396.228 1.2686C396.914 1.60521 397.425 2.06806 397.761 2.65714C398.11 3.24622 398.284 3.91344 398.284 4.6588ZM393.632 6.48014C394.329 6.48014 394.846 6.32385 395.183 6.01128C395.519 5.68668 395.688 5.23586 395.688 4.6588C395.688 3.43256 395.002 2.81943 393.632 2.81943H391.63V6.48014H393.632Z" fill="white"/>
<path d="M383.683 13.3507L380.906 8.44573H379.716V13.3507H377.191V0.763672H381.916C382.89 0.763672 383.719 0.937991 384.405 1.28663C385.09 1.62325 385.601 2.08609 385.937 2.67517C386.286 3.25223 386.46 3.90142 386.46 4.62274C386.46 5.45225 386.22 6.20363 385.739 6.87686C385.258 7.53807 384.543 7.99491 383.593 8.24737L386.605 13.3507H383.683ZM379.716 6.55227H381.826C382.511 6.55227 383.022 6.38997 383.359 6.06538C383.695 5.72876 383.864 5.26591 383.864 4.67684C383.864 4.09978 383.695 3.65496 383.359 3.34239C383.022 3.0178 382.511 2.8555 381.826 2.8555H379.716V6.55227Z" fill="white"/>
<path d="M368.514 13.4776C367.336 13.4776 366.254 13.2011 365.268 12.6481C364.283 12.0951 363.501 11.3317 362.924 10.3579C362.347 9.37207 362.059 8.26004 362.059 7.02177C362.059 5.79552 362.347 4.69551 362.924 3.72173C363.501 2.73592 364.283 1.96651 365.268 1.4135C366.254 0.860491 367.336 0.583984 368.514 0.583984C369.705 0.583984 370.787 0.860491 371.76 1.4135C372.746 1.96651 373.522 2.73592 374.087 3.72173C374.664 4.69551 374.952 5.79552 374.952 7.02177C374.952 8.26004 374.664 9.37207 374.087 10.3579C373.522 11.3317 372.746 12.0951 371.76 12.6481C370.775 13.2011 369.693 13.4776 368.514 13.4776ZM368.514 11.2235C369.272 11.2235 369.939 11.0552 370.516 10.7185C371.093 10.3699 371.544 9.877 371.869 9.23983C372.193 8.60266 372.355 7.86331 372.355 7.02177C372.355 6.18023 372.193 5.44689 371.869 4.82174C371.544 4.18458 371.093 3.69768 370.516 3.36107C369.939 3.02445 369.272 2.85614 368.514 2.85614C367.757 2.85614 367.084 3.02445 366.495 3.36107C365.918 3.69768 365.467 4.18458 365.142 4.82174C364.818 5.44689 364.655 6.18023 364.655 7.02177C364.655 7.86331 364.818 8.60266 365.142 9.23983C365.467 9.877 365.918 10.3699 366.495 10.7185C367.084 11.0552 367.757 11.2235 368.514 11.2235Z" fill="white"/>
<path d="M347.855 7.03739C347.855 5.79913 348.132 4.6931 348.685 3.71932C349.25 2.73351 350.013 1.97012 350.975 1.42913C351.949 0.876116 353.037 0.599609 354.239 0.599609C355.646 0.599609 356.878 0.96027 357.936 1.68159C358.994 2.40291 359.733 3.40074 360.154 4.67507H357.251C356.962 4.07397 356.553 3.62314 356.024 3.32259C355.507 3.02204 354.906 2.87177 354.221 2.87177C353.488 2.87177 352.833 3.04609 352.256 3.39473C351.691 3.73134 351.246 4.21222 350.921 4.83737C350.609 5.46251 350.452 6.19585 350.452 7.03739C350.452 7.86691 350.609 8.60026 350.921 9.23742C351.246 9.86257 351.691 10.3495 352.256 10.6981C352.833 11.0347 353.488 11.203 354.221 11.203C354.906 11.203 355.507 11.0527 356.024 10.7522C356.553 10.4396 356.962 9.98279 357.251 9.38168H360.154C359.733 10.668 358.994 11.6719 357.936 12.3932C356.89 13.1025 355.658 13.4571 354.239 13.4571C353.037 13.4571 351.949 13.1866 350.975 12.6457C350.013 12.0926 349.25 11.3292 348.685 10.3555C348.132 9.38168 347.855 8.27566 347.855 7.03739Z" fill="white"/>
<path d="M341.612 0.763672V2.8014H338.258V13.3507H335.733V2.8014H332.379V0.763672H341.612Z" fill="white"/>
<path d="M327.625 13.3507L324.848 8.44573H323.657V13.3507H321.133V0.763672H325.857C326.831 0.763672 327.661 0.937991 328.346 1.28663C329.031 1.62325 329.542 2.08609 329.879 2.67517C330.227 3.25223 330.402 3.90142 330.402 4.62274C330.402 5.45225 330.161 6.20363 329.68 6.87686C329.2 7.53807 328.484 7.99491 327.535 8.24737L330.546 13.3507H327.625ZM323.657 6.55227H325.767C326.453 6.55227 326.963 6.38997 327.3 6.06538C327.637 5.72876 327.805 5.26591 327.805 4.67684C327.805 4.09978 327.637 3.65496 327.3 3.34239C326.963 3.0178 326.453 2.8555 325.767 2.8555H323.657V6.55227Z" fill="white"/>
<path d="M312.452 13.4776C311.274 13.4776 310.192 13.2011 309.206 12.6481C308.22 12.0951 307.439 11.3317 306.862 10.3579C306.285 9.37207 305.996 8.26004 305.996 7.02177C305.996 5.79552 306.285 4.69551 306.862 3.72173C307.439 2.73592 308.22 1.96651 309.206 1.4135C310.192 0.860491 311.274 0.583984 312.452 0.583984C313.642 0.583984 314.724 0.860491 315.698 1.4135C316.684 1.96651 317.459 2.73592 318.024 3.72173C318.601 4.69551 318.89 5.79552 318.89 7.02177C318.89 8.26004 318.601 9.37207 318.024 10.3579C317.459 11.3317 316.684 12.0951 315.698 12.6481C314.712 13.2011 313.63 13.4776 312.452 13.4776ZM312.452 11.2235C313.209 11.2235 313.877 11.0552 314.454 10.7185C315.031 10.3699 315.481 9.877 315.806 9.23983C316.131 8.60266 316.293 7.86331 316.293 7.02177C316.293 6.18023 316.131 5.44689 315.806 4.82174C315.481 4.18458 315.031 3.69768 314.454 3.36107C313.877 3.02445 313.209 2.85614 312.452 2.85614C311.695 2.85614 311.021 3.02445 310.432 3.36107C309.855 3.69768 309.404 4.18458 309.08 4.82174C308.755 5.44689 308.593 6.18023 308.593 7.02177C308.593 7.86331 308.755 8.60266 309.08 9.23983C309.404 9.877 309.855 10.3699 310.432 10.7185C311.021 11.0552 311.695 11.2235 312.452 11.2235Z" fill="white"/>
<path d="M304.458 4.6588C304.458 5.33203 304.296 5.96319 303.971 6.55227C303.659 7.14135 303.16 7.61622 302.474 7.97688C301.801 8.33754 300.948 8.51787 299.914 8.51787H297.804V13.3507H295.279V0.763672H299.914C300.888 0.763672 301.717 0.931981 302.402 1.2686C303.088 1.60521 303.599 2.06806 303.935 2.65714C304.284 3.24622 304.458 3.91344 304.458 4.6588ZM299.806 6.48014C300.503 6.48014 301.02 6.32385 301.356 6.01128C301.693 5.68668 301.861 5.23586 301.861 4.6588C301.861 3.43256 301.176 2.81943 299.806 2.81943H297.804V6.48014H299.806Z" fill="white"/>
<path d="M288.276 13.4776C287.398 13.4776 286.605 13.3273 285.896 13.0268C285.198 12.7262 284.645 12.2934 284.237 11.7284C283.828 11.1634 283.617 10.4961 283.605 9.72672H286.31C286.346 10.2437 286.527 10.6524 286.851 10.953C287.188 11.2535 287.645 11.4038 288.222 11.4038C288.811 11.4038 289.274 11.2655 289.61 10.989C289.947 10.7005 290.115 10.3278 290.115 9.87098C290.115 9.4983 290.001 9.19174 289.773 8.9513C289.544 8.71086 289.256 8.52452 288.907 8.39228C288.571 8.24801 288.102 8.09173 287.501 7.92342C286.683 7.68298 286.016 7.44855 285.499 7.22013C284.994 6.97969 284.555 6.62504 284.183 6.15618C283.822 5.6753 283.642 5.03814 283.642 4.24469C283.642 3.49932 283.828 2.85013 284.201 2.29712C284.573 1.74411 285.096 1.32334 285.769 1.03481C286.443 0.73426 287.212 0.583984 288.078 0.583984C289.376 0.583984 290.428 0.902567 291.233 1.53973C292.051 2.16488 292.502 3.04248 292.586 4.17255H289.809C289.785 3.73976 289.598 3.38511 289.25 3.10861C288.913 2.82008 288.462 2.67581 287.897 2.67581C287.404 2.67581 287.008 2.80204 286.707 3.05451C286.419 3.30697 286.274 3.67364 286.274 4.15452C286.274 4.49114 286.383 4.77365 286.599 5.00207C286.827 5.21847 287.104 5.3988 287.428 5.54306C287.765 5.6753 288.234 5.83159 288.835 6.01192C289.653 6.25236 290.32 6.4928 290.837 6.73324C291.354 6.97368 291.798 7.33434 292.171 7.81522C292.544 8.2961 292.73 8.92726 292.73 9.70869C292.73 10.3819 292.556 11.0071 292.207 11.5841C291.859 12.1612 291.348 12.624 290.674 12.9727C290.001 13.3093 289.202 13.4776 288.276 13.4776Z" fill="white"/>
<path d="M281.074 13.3453H278.55L272.833 4.7075V13.3453H270.309V0.740234H272.833L278.55 9.39608V0.740234H281.074V13.3453Z" fill="white"/>
<path d="M264.757 10.9469H259.744L258.915 13.3453H256.264L260.79 0.740234H263.729L268.256 13.3453H265.587L264.757 10.9469ZM264.072 8.92722L262.251 3.66158L260.429 8.92722H264.072Z" fill="white"/>
<path d="M251.619 13.3507L248.842 8.44573H247.652V13.3507H245.127V0.763672H249.852C250.825 0.763672 251.655 0.937991 252.34 1.28663C253.025 1.62325 253.536 2.08609 253.873 2.67517C254.222 3.25223 254.396 3.90142 254.396 4.62274C254.396 5.45225 254.155 6.20363 253.675 6.87686C253.194 7.53807 252.478 7.99491 251.529 8.24737L254.54 13.3507H251.619ZM247.652 6.55227H249.761C250.447 6.55227 250.958 6.38997 251.294 6.06538C251.631 5.72876 251.799 5.26591 251.799 4.67684C251.799 4.09978 251.631 3.65496 251.294 3.34239C250.958 3.0178 250.447 2.8555 249.761 2.8555H247.652V6.55227Z" fill="white"/>
<path d="M242.922 0.763672V2.8014H239.568V13.3507H237.044V2.8014H233.689V0.763672H242.922Z" fill="white"/>
<path d="M220.814 0.763672C222.137 0.763672 223.297 1.02214 224.294 1.53909C225.304 2.05604 226.08 2.79539 226.621 3.75715C227.174 4.70689 227.45 5.81291 227.45 7.07522C227.45 8.33754 227.174 9.44356 226.621 10.3933C226.08 11.331 225.304 12.0583 224.294 12.5753C223.297 13.0922 222.137 13.3507 220.814 13.3507H216.414V0.763672H220.814ZM220.724 11.2048C222.046 11.2048 223.068 10.8441 223.79 10.1228C224.511 9.40148 224.872 8.38562 224.872 7.07522C224.872 5.76483 224.511 4.74296 223.79 4.00961C223.068 3.26425 222.046 2.89157 220.724 2.89157H218.939V11.2048H220.724Z" fill="white"/>
<path d="M210.863 10.9469H205.85L205.02 13.3453H202.369L206.895 0.740234H209.835L214.361 13.3453H211.692L210.863 10.9469ZM210.177 8.92722L208.356 3.66158L206.535 8.92722H210.177Z" fill="white"/>
<path d="M194.468 13.4776C193.289 13.4776 192.207 13.2011 191.222 12.6481C190.236 12.0951 189.454 11.3317 188.877 10.3579C188.3 9.37207 188.012 8.26004 188.012 7.02177C188.012 5.79552 188.3 4.69551 188.877 3.72173C189.454 2.73592 190.236 1.96651 191.222 1.4135C192.207 0.860491 193.289 0.583984 194.468 0.583984C195.658 0.583984 196.74 0.860491 197.713 1.4135C198.699 1.96651 199.475 2.73592 200.04 3.72173C200.617 4.69551 200.905 5.79552 200.905 7.02177C200.905 8.26004 200.617 9.37207 200.04 10.3579C199.475 11.3317 198.699 12.0951 197.713 12.6481C196.728 13.2011 195.646 13.4776 194.468 13.4776ZM194.468 11.2235C195.225 11.2235 195.892 11.0552 196.469 10.7185C197.046 10.3699 197.497 9.877 197.822 9.23983C198.146 8.60266 198.309 7.86331 198.309 7.02177C198.309 6.18023 198.146 5.44689 197.822 4.82174C197.497 4.18458 197.046 3.69768 196.469 3.36107C195.892 3.02445 195.225 2.85614 194.468 2.85614C193.71 2.85614 193.037 3.02445 192.448 3.36107C191.871 3.69768 191.42 4.18458 191.095 4.82174C190.771 5.44689 190.608 6.18023 190.608 7.02177C190.608 7.86331 190.771 8.60266 191.095 9.23983C191.42 9.877 191.871 10.3699 192.448 10.7185C193.037 11.0552 193.71 11.2235 194.468 11.2235Z" fill="white"/>
<path d="M183.207 13.3507L180.43 8.44573H179.239V13.3507H176.715V0.763672H181.439C182.413 0.763672 183.243 0.937991 183.928 1.28663C184.613 1.62325 185.124 2.08609 185.461 2.67517C185.809 3.25223 185.984 3.90142 185.984 4.62274C185.984 5.45225 185.743 6.20363 185.262 6.87686C184.782 7.53807 184.066 7.99491 183.117 8.24737L186.128 13.3507H183.207ZM179.239 6.55227H181.349C182.035 6.55227 182.546 6.38997 182.882 6.06538C183.219 5.72876 183.387 5.26591 183.387 4.67684C183.387 4.09978 183.219 3.65496 182.882 3.34239C182.546 3.0178 182.035 2.8555 181.349 2.8555H179.239V6.55227Z" fill="white"/>
<path d="M164.62 2.796V5.95177H168.858V7.95344H164.62V11.2895H169.399V13.3453H162.096V0.740234H169.399V2.796H164.62Z" fill="white"/>
<path d="M159.893 0.763672V2.8014H156.539V13.3507H154.014V2.8014H150.66V0.763672H159.893Z" fill="white"/>
<path d="M145.777 10.9469H140.764L139.934 13.3453H137.283L141.809 0.740234H144.749L149.275 13.3453H146.606L145.777 10.9469ZM145.092 8.92722L143.27 3.66158L141.449 8.92722H145.092Z" fill="white"/>
<path d="M135.856 0.763672V2.8014H132.502V13.3507H129.977V2.8014H126.623V0.763672H135.856Z" fill="white"/>
<path d="M120.288 13.4776C119.41 13.4776 118.617 13.3273 117.907 13.0268C117.21 12.7262 116.657 12.2934 116.248 11.7284C115.84 11.1634 115.629 10.4961 115.617 9.72672H118.322C118.358 10.2437 118.539 10.6524 118.863 10.953C119.2 11.2535 119.657 11.4038 120.234 11.4038C120.823 11.4038 121.286 11.2655 121.622 10.989C121.959 10.7005 122.127 10.3278 122.127 9.87098C122.127 9.4983 122.013 9.19174 121.784 8.9513C121.556 8.71086 121.268 8.52452 120.919 8.39228C120.582 8.24801 120.113 8.09173 119.512 7.92342C118.695 7.68298 118.028 7.44855 117.511 7.22013C117.006 6.97969 116.567 6.62504 116.194 6.15618C115.834 5.6753 115.653 5.03814 115.653 4.24469C115.653 3.49932 115.84 2.85013 116.212 2.29712C116.585 1.74411 117.108 1.32334 117.781 1.03481C118.454 0.73426 119.224 0.583984 120.089 0.583984C121.388 0.583984 122.44 0.902567 123.245 1.53973C124.063 2.16488 124.513 3.04248 124.598 4.17255H121.821C121.796 3.73976 121.61 3.38511 121.262 3.10861C120.925 2.82008 120.474 2.67581 119.909 2.67581C119.416 2.67581 119.019 2.80204 118.719 3.05451C118.43 3.30697 118.286 3.67364 118.286 4.15452C118.286 4.49114 118.394 4.77365 118.611 5.00207C118.839 5.21847 119.116 5.3988 119.44 5.54306C119.777 5.6753 120.246 5.83159 120.847 6.01192C121.664 6.25236 122.331 6.4928 122.848 6.73324C123.365 6.97368 123.81 7.33434 124.183 7.81522C124.556 8.2961 124.742 8.92726 124.742 9.70869C124.742 10.3819 124.568 11.0071 124.219 11.5841C123.87 12.1612 123.359 12.624 122.686 12.9727C122.013 13.3093 121.213 13.4776 120.288 13.4776Z" fill="white"/>
<path d="M105.732 10.9469H100.719L99.8891 13.3453H97.2383L101.765 0.740234H104.704L109.23 13.3453H106.561L105.732 10.9469ZM105.047 8.92722L103.225 3.66158L101.404 8.92722H105.047Z" fill="white"/>
<path d="M95.1602 13.3453H92.6356L86.9192 4.7075V13.3453H84.3945V0.740234H86.9192L92.6356 9.39608V0.740234H95.1602V13.3453Z" fill="white"/>
<path d="M78.8432 10.9469H73.83L73.0005 13.3453H70.3496L74.8759 0.740234H77.8153L82.3416 13.3453H79.6727L78.8432 10.9469ZM78.1579 8.92722L76.3366 3.66158L74.5152 8.92722H78.1579Z" fill="white"/>
<path d="M65.6838 4.54884C65.3953 4.01987 64.9986 3.61713 64.4936 3.34063C63.9887 3.06412 63.3996 2.92587 62.7264 2.92587C61.981 2.92587 61.3198 3.09418 60.7428 3.43079C60.1657 3.76741 59.7149 4.24829 59.3903 4.87343C59.0657 5.49858 58.9034 6.2199 58.9034 7.03739C58.9034 7.87893 59.0657 8.61228 59.3903 9.23742C59.7269 9.86257 60.1898 10.3434 60.7788 10.6801C61.3679 11.0167 62.0532 11.185 62.8346 11.185C63.7964 11.185 64.5838 10.9325 65.1969 10.4276C65.81 9.91065 66.2128 9.19534 66.4051 8.28167H62.0772V6.35214H68.8937V8.55217C68.7254 9.42977 68.3647 10.2413 67.8117 10.9866C67.2587 11.732 66.5434 12.3331 65.6658 12.7899C64.8002 13.2347 63.8264 13.4571 62.7444 13.4571C61.5302 13.4571 60.4302 13.1866 59.4444 12.6457C58.4706 12.0926 57.7012 11.3292 57.1362 10.3555C56.5831 9.38168 56.3066 8.27566 56.3066 7.03739C56.3066 5.79913 56.5831 4.6931 57.1362 3.71932C57.7012 2.73351 58.4706 1.97012 59.4444 1.42913C60.4302 0.876116 61.5242 0.599609 62.7264 0.599609C64.145 0.599609 65.3772 0.948247 66.4232 1.64552C67.4691 2.33078 68.1904 3.29855 68.5871 4.54884H65.6838Z" fill="white"/>
<path d="M54.0665 13.3453H51.5419L45.8254 4.7075V13.3453H43.3008V0.740234H45.8254L51.5419 9.39608V0.740234H54.0665V13.3453Z" fill="white"/>
<path d="M37.7514 10.9469H32.7382L31.9087 13.3453H29.2578L33.7841 0.740234H36.7235L41.2498 13.3453H38.5809L37.7514 10.9469ZM37.0661 8.92722L35.2448 3.66158L33.4234 8.92722H37.0661Z" fill="white"/>
<path d="M23.9192 11.349H28.0667V13.3507H21.3945V0.763672H23.9192V11.349Z" fill="white"/>
<path d="M13.9582 2.796V5.95177H18.196V7.95344H13.9582V11.2895H18.737V13.3453H11.4336V0.740234H18.737V2.796H13.9582Z" fill="white"/>
<path d="M9.2329 0.763672V2.8014H5.87876V13.3507H3.35414V2.8014H0V0.763672H9.2329Z" fill="white"/>
</svg>
