<svg width="482" height="14" viewBox="0 0 482 14" fill="none" xmlns="http://www.w3.org/2000/svg">
<path d="M481.57 13.359H479.046L473.329 4.72117V13.359H470.805V0.753906H473.329L479.046 9.40975V0.753906H481.57V13.359Z" fill="white"/>
<path d="M462.128 13.4913C460.95 13.4913 459.868 13.2148 458.882 12.6617C457.896 12.1087 457.114 11.3453 456.537 10.3715C455.96 9.38574 455.672 8.27371 455.672 7.03544C455.672 5.8092 455.96 4.70918 456.537 3.7354C457.114 2.74959 457.896 1.98019 458.882 1.42717C459.868 0.874162 460.95 0.597656 462.128 0.597656C463.318 0.597656 464.4 0.874162 465.374 1.42717C466.359 1.98019 467.135 2.74959 467.7 3.7354C468.277 4.70918 468.565 5.8092 468.565 7.03544C468.565 8.27371 468.277 9.38574 467.7 10.3715C467.135 11.3453 466.359 12.1087 465.374 12.6617C464.388 13.2148 463.306 13.4913 462.128 13.4913ZM462.128 11.2371C462.885 11.2371 463.552 11.0688 464.129 10.7322C464.706 10.3836 465.157 9.89067 465.482 9.2535C465.806 8.61633 465.969 7.87698 465.969 7.03544C465.969 6.1939 465.806 5.46056 465.482 4.83541C465.157 4.19825 464.706 3.71136 464.129 3.37474C463.552 3.03812 462.885 2.86982 462.128 2.86982C461.37 2.86982 460.697 3.03812 460.108 3.37474C459.531 3.71136 459.08 4.19825 458.756 4.83541C458.431 5.46056 458.269 6.1939 458.269 7.03544C458.269 7.87698 458.431 8.61633 458.756 9.2535C459.08 9.89067 459.531 10.3836 460.108 10.7322C460.697 11.0688 461.37 11.2371 462.128 11.2371Z" fill="white"/>
<path d="M453.431 0.777344V13.3644H450.906V0.777344H453.431Z" fill="white"/>
<path d="M448.702 0.777344V2.81507H445.347V13.3644H442.823V2.81507H439.469V0.777344H448.702Z" fill="white"/>
<path d="M434.587 10.9606H429.574L428.745 13.359H426.094L430.62 0.753906H433.559L438.086 13.359H435.417L434.587 10.9606ZM433.902 8.94089L432.081 3.67525L430.259 8.94089H433.902Z" fill="white"/>
<path d="M421.449 13.3644L418.672 8.45941H417.482V13.3644H414.957V0.777344H419.682C420.655 0.777344 421.485 0.951663 422.17 1.3003C422.855 1.63692 423.366 2.09976 423.703 2.68884C424.052 3.2659 424.226 3.91509 424.226 4.63641C424.226 5.46593 423.986 6.2173 423.505 6.89053C423.024 7.55174 422.309 8.00858 421.359 8.26104L424.37 13.3644H421.449ZM417.482 6.56594H419.591C420.277 6.56594 420.788 6.40364 421.124 6.07905C421.461 5.74243 421.629 5.27959 421.629 4.69051C421.629 4.11345 421.461 3.66864 421.124 3.35606C420.788 3.03147 420.277 2.86917 419.591 2.86917H417.482V6.56594Z" fill="white"/>
<path d="M406.28 13.4913C405.102 13.4913 404.02 13.2148 403.034 12.6617C402.048 12.1087 401.267 11.3453 400.69 10.3715C400.113 9.38574 399.824 8.27371 399.824 7.03544C399.824 5.8092 400.113 4.70918 400.69 3.7354C401.267 2.74959 402.048 1.98019 403.034 1.42717C404.02 0.874162 405.102 0.597656 406.28 0.597656C407.47 0.597656 408.552 0.874162 409.526 1.42717C410.512 1.98019 411.287 2.74959 411.852 3.7354C412.429 4.70918 412.718 5.8092 412.718 7.03544C412.718 8.27371 412.429 9.38574 411.852 10.3715C411.287 11.3453 410.512 12.1087 409.526 12.6617C408.54 13.2148 407.458 13.4913 406.28 13.4913ZM406.28 11.2371C407.037 11.2371 407.705 11.0688 408.282 10.7322C408.859 10.3836 409.31 9.89067 409.634 9.2535C409.959 8.61633 410.121 7.87698 410.121 7.03544C410.121 6.1939 409.959 5.46056 409.634 4.83541C409.31 4.19825 408.859 3.71136 408.282 3.37474C407.705 3.03812 407.037 2.86982 406.28 2.86982C405.523 2.86982 404.849 3.03812 404.26 3.37474C403.683 3.71136 403.232 4.19825 402.908 4.83541C402.583 5.46056 402.421 6.1939 402.421 7.03544C402.421 7.87698 402.583 8.61633 402.908 9.2535C403.232 9.89067 403.683 10.3836 404.26 10.7322C404.849 11.0688 405.523 11.2371 406.28 11.2371Z" fill="white"/>
<path d="M398.284 4.67247C398.284 5.34571 398.122 5.97686 397.797 6.56594C397.485 7.15502 396.986 7.62989 396.301 7.99055C395.627 8.35121 394.774 8.53154 393.74 8.53154H391.63V13.3644H389.105V0.777344H393.74C394.714 0.777344 395.543 0.945653 396.228 1.28227C396.914 1.61888 397.425 2.08173 397.761 2.67081C398.11 3.25989 398.284 3.92711 398.284 4.67247ZM393.632 6.49381C394.329 6.49381 394.846 6.33752 395.183 6.02495C395.519 5.70036 395.688 5.24953 395.688 4.67247C395.688 3.44623 395.002 2.83311 393.632 2.83311H391.63V6.49381H393.632Z" fill="white"/>
<path d="M383.683 13.3644L380.906 8.45941H379.716V13.3644H377.191V0.777344H381.916C382.89 0.777344 383.719 0.951663 384.405 1.3003C385.09 1.63692 385.601 2.09976 385.937 2.68884C386.286 3.2659 386.46 3.91509 386.46 4.63641C386.46 5.46593 386.22 6.2173 385.739 6.89053C385.258 7.55174 384.543 8.00858 383.593 8.26104L386.605 13.3644H383.683ZM379.716 6.56594H381.826C382.511 6.56594 383.022 6.40364 383.359 6.07905C383.695 5.74243 383.864 5.27959 383.864 4.69051C383.864 4.11345 383.695 3.66864 383.359 3.35606C383.022 3.03147 382.511 2.86917 381.826 2.86917H379.716V6.56594Z" fill="white"/>
<path d="M368.514 13.4913C367.336 13.4913 366.254 13.2148 365.268 12.6617C364.283 12.1087 363.501 11.3453 362.924 10.3715C362.347 9.38574 362.059 8.27371 362.059 7.03544C362.059 5.8092 362.347 4.70918 362.924 3.7354C363.501 2.74959 364.283 1.98019 365.268 1.42717C366.254 0.874162 367.336 0.597656 368.514 0.597656C369.705 0.597656 370.787 0.874162 371.76 1.42717C372.746 1.98019 373.522 2.74959 374.087 3.7354C374.664 4.70918 374.952 5.8092 374.952 7.03544C374.952 8.27371 374.664 9.38574 374.087 10.3715C373.522 11.3453 372.746 12.1087 371.76 12.6617C370.775 13.2148 369.693 13.4913 368.514 13.4913ZM368.514 11.2371C369.272 11.2371 369.939 11.0688 370.516 10.7322C371.093 10.3836 371.544 9.89067 371.869 9.2535C372.193 8.61633 372.355 7.87698 372.355 7.03544C372.355 6.1939 372.193 5.46056 371.869 4.83541C371.544 4.19825 371.093 3.71136 370.516 3.37474C369.939 3.03812 369.272 2.86982 368.514 2.86982C367.757 2.86982 367.084 3.03812 366.495 3.37474C365.918 3.71136 365.467 4.19825 365.142 4.83541C364.818 5.46056 364.655 6.1939 364.655 7.03544C364.655 7.87698 364.818 8.61633 365.142 9.2535C365.467 9.89067 365.918 10.3836 366.495 10.7322C367.084 11.0688 367.757 11.2371 368.514 11.2371Z" fill="white"/>
<path d="M347.855 7.05106C347.855 5.8128 348.132 4.70677 348.685 3.73299C349.25 2.74719 350.013 1.98379 350.975 1.4428C351.949 0.889787 353.037 0.613281 354.239 0.613281C355.646 0.613281 356.878 0.973942 357.936 1.69526C358.994 2.41658 359.733 3.41441 360.154 4.68874H357.251C356.962 4.08764 356.553 3.63682 356.024 3.33626C355.507 3.03571 354.906 2.88544 354.221 2.88544C353.488 2.88544 352.833 3.05976 352.256 3.4084C351.691 3.74501 351.246 4.22589 350.921 4.85104C350.609 5.47618 350.452 6.20952 350.452 7.05106C350.452 7.88058 350.609 8.61393 350.921 9.25109C351.246 9.87624 351.691 10.3631 352.256 10.7118C352.833 11.0484 353.488 11.2167 354.221 11.2167C354.906 11.2167 355.507 11.0664 356.024 10.7659C356.553 10.4533 356.962 9.99646 357.251 9.39536H360.154C359.733 10.6817 358.994 11.6855 357.936 12.4069C356.89 13.1162 355.658 13.4708 354.239 13.4708C353.037 13.4708 351.949 13.2003 350.975 12.6593C350.013 12.1063 349.25 11.3429 348.685 10.3691C348.132 9.39536 347.855 8.28933 347.855 7.05106Z" fill="white"/>
<path d="M341.612 0.777344V2.81507H338.258V13.3644H335.733V2.81507H332.379V0.777344H341.612Z" fill="white"/>
<path d="M327.625 13.3644L324.848 8.45941H323.657V13.3644H321.133V0.777344H325.857C326.831 0.777344 327.661 0.951663 328.346 1.3003C329.031 1.63692 329.542 2.09976 329.879 2.68884C330.227 3.2659 330.402 3.91509 330.402 4.63641C330.402 5.46593 330.161 6.2173 329.68 6.89053C329.2 7.55174 328.484 8.00858 327.535 8.26104L330.546 13.3644H327.625ZM323.657 6.56594H325.767C326.453 6.56594 326.963 6.40364 327.3 6.07905C327.637 5.74243 327.805 5.27959 327.805 4.69051C327.805 4.11345 327.637 3.66864 327.3 3.35606C326.963 3.03147 326.453 2.86917 325.767 2.86917H323.657V6.56594Z" fill="white"/>
<path d="M312.452 13.4913C311.274 13.4913 310.192 13.2148 309.206 12.6617C308.22 12.1087 307.439 11.3453 306.862 10.3715C306.285 9.38574 305.996 8.27371 305.996 7.03544C305.996 5.8092 306.285 4.70918 306.862 3.7354C307.439 2.74959 308.22 1.98019 309.206 1.42717C310.192 0.874162 311.274 0.597656 312.452 0.597656C313.642 0.597656 314.724 0.874162 315.698 1.42717C316.684 1.98019 317.459 2.74959 318.024 3.7354C318.601 4.70918 318.89 5.8092 318.89 7.03544C318.89 8.27371 318.601 9.38574 318.024 10.3715C317.459 11.3453 316.684 12.1087 315.698 12.6617C314.712 13.2148 313.63 13.4913 312.452 13.4913ZM312.452 11.2371C313.209 11.2371 313.877 11.0688 314.454 10.7322C315.031 10.3836 315.481 9.89067 315.806 9.2535C316.131 8.61633 316.293 7.87698 316.293 7.03544C316.293 6.1939 316.131 5.46056 315.806 4.83541C315.481 4.19825 315.031 3.71136 314.454 3.37474C313.877 3.03812 313.209 2.86982 312.452 2.86982C311.695 2.86982 311.021 3.03812 310.432 3.37474C309.855 3.71136 309.404 4.19825 309.08 4.83541C308.755 5.46056 308.593 6.1939 308.593 7.03544C308.593 7.87698 308.755 8.61633 309.08 9.2535C309.404 9.89067 309.855 10.3836 310.432 10.7322C311.021 11.0688 311.695 11.2371 312.452 11.2371Z" fill="white"/>
<path d="M304.46 4.67247C304.46 5.34571 304.298 5.97686 303.973 6.56594C303.661 7.15502 303.162 7.62989 302.476 7.99055C301.803 8.35121 300.95 8.53154 299.916 8.53154H297.806V13.3644H295.281V0.777344H299.916C300.89 0.777344 301.719 0.945653 302.404 1.28227C303.09 1.61888 303.6 2.08173 303.937 2.67081C304.286 3.25989 304.46 3.92711 304.46 4.67247ZM299.808 6.49381C300.505 6.49381 301.022 6.33752 301.358 6.02495C301.695 5.70036 301.863 5.24953 301.863 4.67247C301.863 3.44623 301.178 2.83311 299.808 2.83311H297.806V6.49381H299.808Z" fill="white"/>
<path d="M288.276 13.4913C287.398 13.4913 286.605 13.341 285.896 13.0404C285.198 12.7399 284.645 12.3071 284.237 11.7421C283.828 11.177 283.617 10.5098 283.605 9.74039H286.31C286.346 10.2573 286.527 10.6661 286.851 10.9666C287.188 11.2672 287.645 11.4175 288.222 11.4175C288.811 11.4175 289.274 11.2792 289.61 11.0027C289.947 10.7142 290.115 10.3415 290.115 9.88466C290.115 9.51197 290.001 9.20541 289.773 8.96497C289.544 8.72453 289.256 8.53819 288.907 8.40595C288.571 8.26169 288.102 8.1054 287.501 7.93709C286.683 7.69665 286.016 7.46222 285.499 7.2338C284.994 6.99336 284.555 6.63871 284.183 6.16986C283.822 5.68898 283.642 5.05181 283.642 4.25836C283.642 3.51299 283.828 2.8638 284.201 2.31079C284.573 1.75778 285.096 1.33701 285.769 1.04848C286.443 0.747932 287.212 0.597656 288.078 0.597656C289.376 0.597656 290.428 0.916239 291.233 1.55341C292.051 2.17855 292.502 3.05616 292.586 4.18623H289.809C289.785 3.75343 289.598 3.39878 289.25 3.12228C288.913 2.83375 288.462 2.68949 287.897 2.68949C287.404 2.68949 287.008 2.81572 286.707 3.06818C286.419 3.32064 286.274 3.68731 286.274 4.16819C286.274 4.50481 286.383 4.78733 286.599 5.01574C286.827 5.23214 287.104 5.41247 287.428 5.55673C287.765 5.68898 288.234 5.84526 288.835 6.02559C289.653 6.26603 290.32 6.50647 290.837 6.74691C291.354 6.98735 291.798 7.34801 292.171 7.82889C292.544 8.30977 292.73 8.94093 292.73 9.72236C292.73 10.3956 292.556 11.0207 292.207 11.5978C291.859 12.1748 291.348 12.6377 290.674 12.9863C290.001 13.323 289.202 13.4913 288.276 13.4913Z" fill="white"/>
<path d="M281.074 13.359H278.55L272.833 4.72117V13.359H270.309V0.753906H272.833L278.55 9.40975V0.753906H281.074V13.359Z" fill="white"/>
<path d="M264.759 10.9606H259.746L258.916 13.359H256.266L260.792 0.753906H263.731L268.258 13.359H265.589L264.759 10.9606ZM264.074 8.94089L262.253 3.67525L260.431 8.94089H264.074Z" fill="white"/>
<path d="M251.617 13.3644L248.84 8.45941H247.65V13.3644H245.125V0.777344H249.85C250.823 0.777344 251.653 0.951663 252.338 1.3003C253.023 1.63692 253.534 2.09976 253.871 2.68884C254.22 3.2659 254.394 3.91509 254.394 4.63641C254.394 5.46593 254.154 6.2173 253.673 6.89053C253.192 7.55174 252.476 8.00858 251.527 8.26104L254.538 13.3644H251.617ZM247.65 6.56594H249.759C250.445 6.56594 250.956 6.40364 251.292 6.07905C251.629 5.74243 251.797 5.27959 251.797 4.69051C251.797 4.11345 251.629 3.66864 251.292 3.35606C250.956 3.03147 250.445 2.86917 249.759 2.86917H247.65V6.56594Z" fill="white"/>
<path d="M242.92 0.777344V2.81507H239.566V13.3644H237.042V2.81507H233.688V0.777344H242.92Z" fill="white"/>
<path d="M220.814 0.777344C222.137 0.777344 223.297 1.03582 224.294 1.55276C225.304 2.06971 226.08 2.80906 226.621 3.77082C227.174 4.72056 227.45 5.82659 227.45 7.0889C227.45 8.35121 227.174 9.45723 226.621 10.407C226.08 11.3447 225.304 12.072 224.294 12.589C223.297 13.1059 222.137 13.3644 220.814 13.3644H216.414V0.777344H220.814ZM220.724 11.2185C222.046 11.2185 223.068 10.8578 223.79 10.1365C224.511 9.41516 224.872 8.3993 224.872 7.0889C224.872 5.7785 224.511 4.75663 223.79 4.02329C223.068 3.27792 222.046 2.90524 220.724 2.90524H218.939V11.2185H220.724Z" fill="white"/>
<path d="M210.861 10.9606H205.848L205.018 13.359H202.367L206.893 0.753906H209.833L214.359 13.359H211.69L210.861 10.9606ZM210.175 8.94089L208.354 3.67525L206.533 8.94089H210.175Z" fill="white"/>
<path d="M194.468 13.4913C193.289 13.4913 192.207 13.2148 191.222 12.6617C190.236 12.1087 189.454 11.3453 188.877 10.3715C188.3 9.38574 188.012 8.27371 188.012 7.03544C188.012 5.8092 188.3 4.70918 188.877 3.7354C189.454 2.74959 190.236 1.98019 191.222 1.42717C192.207 0.874162 193.289 0.597656 194.468 0.597656C195.658 0.597656 196.74 0.874162 197.713 1.42717C198.699 1.98019 199.475 2.74959 200.04 3.7354C200.617 4.70918 200.905 5.8092 200.905 7.03544C200.905 8.27371 200.617 9.38574 200.04 10.3715C199.475 11.3453 198.699 12.1087 197.713 12.6617C196.728 13.2148 195.646 13.4913 194.468 13.4913ZM194.468 11.2371C195.225 11.2371 195.892 11.0688 196.469 10.7322C197.046 10.3836 197.497 9.89067 197.822 9.2535C198.146 8.61633 198.309 7.87698 198.309 7.03544C198.309 6.1939 198.146 5.46056 197.822 4.83541C197.497 4.19825 197.046 3.71136 196.469 3.37474C195.892 3.03812 195.225 2.86982 194.468 2.86982C193.71 2.86982 193.037 3.03812 192.448 3.37474C191.871 3.71136 191.42 4.19825 191.095 4.83541C190.771 5.46056 190.608 6.1939 190.608 7.03544C190.608 7.87698 190.771 8.61633 191.095 9.2535C191.42 9.89067 191.871 10.3836 192.448 10.7322C193.037 11.0688 193.71 11.2371 194.468 11.2371Z" fill="white"/>
<path d="M183.207 13.3644L180.43 8.45941H179.239V13.3644H176.715V0.777344H181.439C182.413 0.777344 183.243 0.951663 183.928 1.3003C184.613 1.63692 185.124 2.09976 185.461 2.68884C185.809 3.2659 185.984 3.91509 185.984 4.63641C185.984 5.46593 185.743 6.2173 185.262 6.89053C184.782 7.55174 184.066 8.00858 183.117 8.26104L186.128 13.3644H183.207ZM179.239 6.56594H181.349C182.035 6.56594 182.546 6.40364 182.882 6.07905C183.219 5.74243 183.387 5.27959 183.387 4.69051C183.387 4.11345 183.219 3.66864 182.882 3.35606C182.546 3.03147 182.035 2.86917 181.349 2.86917H179.239V6.56594Z" fill="white"/>
<path d="M164.618 2.80967V5.96545H168.856V7.96711H164.618V11.3032H169.397V13.359H162.094V0.753906H169.397V2.80967H164.618Z" fill="white"/>
<path d="M159.893 0.777344V2.81507H156.539V13.3644H154.014V2.81507H150.66V0.777344H159.893Z" fill="white"/>
<path d="M145.775 10.9606H140.762L139.932 13.359H137.281L141.808 0.753906H144.747L149.273 13.359H146.604L145.775 10.9606ZM145.09 8.94089L143.268 3.67525L141.447 8.94089H145.09Z" fill="white"/>
<path d="M135.858 0.777344V2.81507H132.504V13.3644H129.979V2.81507H126.625V0.777344H135.858Z" fill="white"/>
<path d="M120.288 13.4913C119.41 13.4913 118.617 13.341 117.907 13.0404C117.21 12.7399 116.657 12.3071 116.248 11.7421C115.84 11.177 115.629 10.5098 115.617 9.74039H118.322C118.358 10.2573 118.539 10.6661 118.863 10.9666C119.2 11.2672 119.657 11.4175 120.234 11.4175C120.823 11.4175 121.286 11.2792 121.622 11.0027C121.959 10.7142 122.127 10.3415 122.127 9.88466C122.127 9.51197 122.013 9.20541 121.784 8.96497C121.556 8.72453 121.268 8.53819 120.919 8.40595C120.582 8.26169 120.113 8.1054 119.512 7.93709C118.695 7.69665 118.028 7.46222 117.511 7.2338C117.006 6.99336 116.567 6.63871 116.194 6.16986C115.834 5.68898 115.653 5.05181 115.653 4.25836C115.653 3.51299 115.84 2.8638 116.212 2.31079C116.585 1.75778 117.108 1.33701 117.781 1.04848C118.454 0.747932 119.224 0.597656 120.089 0.597656C121.388 0.597656 122.44 0.916239 123.245 1.55341C124.063 2.17855 124.513 3.05616 124.598 4.18623H121.821C121.796 3.75343 121.61 3.39878 121.262 3.12228C120.925 2.83375 120.474 2.68949 119.909 2.68949C119.416 2.68949 119.019 2.81572 118.719 3.06818C118.43 3.32064 118.286 3.68731 118.286 4.16819C118.286 4.50481 118.394 4.78733 118.611 5.01574C118.839 5.23214 119.116 5.41247 119.44 5.55673C119.777 5.68898 120.246 5.84526 120.847 6.02559C121.664 6.26603 122.331 6.50647 122.848 6.74691C123.365 6.98735 123.81 7.34801 124.183 7.82889C124.556 8.30977 124.742 8.94093 124.742 9.72236C124.742 10.3956 124.568 11.0207 124.219 11.5978C123.87 12.1748 123.359 12.6377 122.686 12.9863C122.013 13.323 121.213 13.4913 120.288 13.4913Z" fill="white"/>
<path d="M105.732 10.9606H100.719L99.8891 13.359H97.2383L101.765 0.753906H104.704L109.23 13.359H106.561L105.732 10.9606ZM105.047 8.94089L103.225 3.67525L101.404 8.94089H105.047Z" fill="white"/>
<path d="M95.1602 13.359H92.6356L86.9192 4.72117V13.359H84.3945V0.753906H86.9192L92.6356 9.40975V0.753906H95.1602V13.359Z" fill="white"/>
<path d="M78.8451 10.9606H73.8319L73.0024 13.359H70.3516L74.8778 0.753906H77.8172L82.3435 13.359H79.6746L78.8451 10.9606ZM78.1599 8.94089L76.3385 3.67525L74.5172 8.94089H78.1599Z" fill="white"/>
<path d="M65.6819 4.56251C65.3933 4.03354 64.9966 3.63081 64.4917 3.3543C63.9868 3.07779 63.3977 2.93954 62.7244 2.93954C61.9791 2.93954 61.3179 3.10785 60.7408 3.44446C60.1638 3.78108 59.7129 4.26196 59.3883 4.8871C59.0637 5.51225 58.9014 6.23357 58.9014 7.05106C58.9014 7.89261 59.0637 8.62595 59.3883 9.25109C59.725 9.87624 60.1878 10.3571 60.7769 10.6937C61.366 11.0303 62.0512 11.1987 62.8326 11.1987C63.7944 11.1987 64.5818 10.9462 65.195 10.4413C65.8081 9.92432 66.2108 9.20902 66.4032 8.29534H62.0753V6.36581H68.8917V8.56584C68.7234 9.44344 68.3628 10.2549 67.8097 11.0003C67.2567 11.7457 66.5414 12.3468 65.6638 12.8036C64.7982 13.2484 63.8245 13.4708 62.7425 13.4708C61.5282 13.4708 60.4282 13.2003 59.4424 12.6593C58.4687 12.1063 57.6992 11.3429 57.1342 10.3691C56.5812 9.39536 56.3047 8.28933 56.3047 7.05106C56.3047 5.8128 56.5812 4.70677 57.1342 3.73299C57.6992 2.74719 58.4687 1.98379 59.4424 1.4428C60.4282 0.889787 61.5222 0.613281 62.7244 0.613281C64.143 0.613281 65.3753 0.961919 66.4212 1.6592C67.4671 2.34445 68.1884 3.31222 68.5852 4.56251H65.6819Z" fill="white"/>
<path d="M54.0665 13.359H51.5419L45.8254 4.72117V13.359H43.3008V0.753906H45.8254L51.5419 9.40975V0.753906H54.0665V13.359Z" fill="white"/>
<path d="M37.7514 10.9606H32.7382L31.9087 13.359H29.2578L33.7841 0.753906H36.7235L41.2498 13.359H38.5809L37.7514 10.9606ZM37.0661 8.94089L35.2448 3.67525L33.4234 8.94089H37.0661Z" fill="white"/>
<path d="M23.9192 11.3627H28.0667V13.3644H21.3945V0.777344H23.9192V11.3627Z" fill="white"/>
<path d="M13.9582 2.80967V5.96545H18.196V7.96711H13.9582V11.3032H18.737V13.359H11.4336V0.753906H18.737V2.80967H13.9582Z" fill="white"/>
<path d="M9.2329 0.777344V2.81507H5.87876V13.3644H3.35414V2.81507H0V0.777344H9.2329Z" fill="white"/>
</svg>
