<svg width="482" height="14" viewBox="0 0 482 14" fill="none" xmlns="http://www.w3.org/2000/svg">
<path d="M481.57 13.4215H479.046L473.329 4.78367V13.4215H470.805V0.816406H473.329L479.046 9.47225V0.816406H481.57V13.4215Z" fill="white"/>
<path d="M462.128 13.5538C460.95 13.5538 459.868 13.2773 458.882 12.7242C457.896 12.1712 457.114 11.4078 456.537 10.434C455.96 9.44824 455.672 8.33621 455.672 7.09794C455.672 5.8717 455.96 4.77168 456.537 3.7979C457.114 2.81209 457.896 2.04269 458.882 1.48967C459.868 0.936662 460.95 0.660156 462.128 0.660156C463.318 0.660156 464.4 0.936662 465.374 1.48967C466.359 2.04269 467.135 2.81209 467.7 3.7979C468.277 4.77168 468.565 5.8717 468.565 7.09794C468.565 8.33621 468.277 9.44824 467.7 10.434C467.135 11.4078 466.359 12.1712 465.374 12.7242C464.388 13.2773 463.306 13.5538 462.128 13.5538ZM462.128 11.2996C462.885 11.2996 463.552 11.1313 464.129 10.7947C464.706 10.4461 465.157 9.95317 465.482 9.316C465.806 8.67883 465.969 7.93948 465.969 7.09794C465.969 6.2564 465.806 5.52306 465.482 4.89791C465.157 4.26075 464.706 3.77386 464.129 3.43724C463.552 3.10062 462.885 2.93232 462.128 2.93232C461.37 2.93232 460.697 3.10062 460.108 3.43724C459.531 3.77386 459.08 4.26075 458.756 4.89791C458.431 5.52306 458.269 6.2564 458.269 7.09794C458.269 7.93948 458.431 8.67883 458.756 9.316C459.08 9.95317 459.531 10.4461 460.108 10.7947C460.697 11.1313 461.37 11.2996 462.128 11.2996Z" fill="white"/>
<path d="M453.431 0.839844V13.4269H450.906V0.839844H453.431Z" fill="white"/>
<path d="M448.704 0.839844V2.87757H445.349V13.4269H442.825V2.87757H439.471V0.839844H448.704Z" fill="white"/>
<path d="M434.587 11.0231H429.574L428.745 13.4215H426.094L430.62 0.816406H433.559L438.086 13.4215H435.417L434.587 11.0231ZM433.902 9.00339L432.081 3.73775L430.259 9.00339H433.902Z" fill="white"/>
<path d="M421.449 13.4269L418.672 8.52191H417.482V13.4269H414.957V0.839844H419.682C420.655 0.839844 421.485 1.01416 422.17 1.3628C422.855 1.69942 423.366 2.16226 423.703 2.75134C424.052 3.3284 424.226 3.97759 424.226 4.69891C424.226 5.52843 423.986 6.2798 423.505 6.95303C423.024 7.61424 422.309 8.07108 421.359 8.32354L424.37 13.4269H421.449ZM417.482 6.62844H419.591C420.277 6.62844 420.788 6.46614 421.124 6.14155C421.461 5.80493 421.629 5.34209 421.629 4.75301C421.629 4.17595 421.461 3.73114 421.124 3.41856C420.788 3.09397 420.277 2.93167 419.591 2.93167H417.482V6.62844Z" fill="white"/>
<path d="M406.278 13.5538C405.1 13.5538 404.018 13.2773 403.032 12.7242C402.046 12.1712 401.265 11.4078 400.688 10.434C400.111 9.44824 399.822 8.33621 399.822 7.09794C399.822 5.8717 400.111 4.77168 400.688 3.7979C401.265 2.81209 402.046 2.04269 403.032 1.48967C404.018 0.936662 405.1 0.660156 406.278 0.660156C407.468 0.660156 408.55 0.936662 409.524 1.48967C410.51 2.04269 411.285 2.81209 411.85 3.7979C412.427 4.77168 412.716 5.8717 412.716 7.09794C412.716 8.33621 412.427 9.44824 411.85 10.434C411.285 11.4078 410.51 12.1712 409.524 12.7242C408.538 13.2773 407.456 13.5538 406.278 13.5538ZM406.278 11.2996C407.035 11.2996 407.703 11.1313 408.28 10.7947C408.857 10.4461 409.308 9.95317 409.632 9.316C409.957 8.67883 410.119 7.93948 410.119 7.09794C410.119 6.2564 409.957 5.52306 409.632 4.89791C409.308 4.26075 408.857 3.77386 408.28 3.43724C407.703 3.10062 407.035 2.93232 406.278 2.93232C405.521 2.93232 404.847 3.10062 404.258 3.43724C403.681 3.77386 403.231 4.26075 402.906 4.89791C402.581 5.52306 402.419 6.2564 402.419 7.09794C402.419 7.93948 402.581 8.67883 402.906 9.316C403.231 9.95317 403.681 10.4461 404.258 10.7947C404.847 11.1313 405.521 11.2996 406.278 11.2996Z" fill="white"/>
<path d="M398.284 4.73497C398.284 5.40821 398.122 6.03936 397.797 6.62844C397.485 7.21752 396.986 7.69239 396.301 8.05305C395.627 8.41371 394.774 8.59404 393.74 8.59404H391.63V13.4269H389.105V0.839844H393.74C394.714 0.839844 395.543 1.00815 396.228 1.34477C396.914 1.68138 397.425 2.14423 397.761 2.73331C398.11 3.32239 398.284 3.98961 398.284 4.73497ZM393.632 6.55631C394.329 6.55631 394.846 6.40002 395.183 6.08745C395.519 5.76286 395.688 5.31203 395.688 4.73497C395.688 3.50873 395.002 2.89561 393.632 2.89561H391.63V6.55631H393.632Z" fill="white"/>
<path d="M383.683 13.4269L380.906 8.52191H379.716V13.4269H377.191V0.839844H381.916C382.89 0.839844 383.719 1.01416 384.405 1.3628C385.09 1.69942 385.601 2.16226 385.937 2.75134C386.286 3.3284 386.46 3.97759 386.46 4.69891C386.46 5.52843 386.22 6.2798 385.739 6.95303C385.258 7.61424 384.543 8.07108 383.593 8.32354L386.605 13.4269H383.683ZM379.716 6.62844H381.826C382.511 6.62844 383.022 6.46614 383.359 6.14155C383.695 5.80493 383.864 5.34209 383.864 4.75301C383.864 4.17595 383.695 3.73114 383.359 3.41856C383.022 3.09397 382.511 2.93167 381.826 2.93167H379.716V6.62844Z" fill="white"/>
<path d="M368.514 13.5538C367.336 13.5538 366.254 13.2773 365.268 12.7242C364.283 12.1712 363.501 11.4078 362.924 10.434C362.347 9.44824 362.059 8.33621 362.059 7.09794C362.059 5.8717 362.347 4.77168 362.924 3.7979C363.501 2.81209 364.283 2.04269 365.268 1.48967C366.254 0.936662 367.336 0.660156 368.514 0.660156C369.705 0.660156 370.787 0.936662 371.76 1.48967C372.746 2.04269 373.522 2.81209 374.087 3.7979C374.664 4.77168 374.952 5.8717 374.952 7.09794C374.952 8.33621 374.664 9.44824 374.087 10.434C373.522 11.4078 372.746 12.1712 371.76 12.7242C370.775 13.2773 369.693 13.5538 368.514 13.5538ZM368.514 11.2996C369.272 11.2996 369.939 11.1313 370.516 10.7947C371.093 10.4461 371.544 9.95317 371.869 9.316C372.193 8.67883 372.355 7.93948 372.355 7.09794C372.355 6.2564 372.193 5.52306 371.869 4.89791C371.544 4.26075 371.093 3.77386 370.516 3.43724C369.939 3.10062 369.272 2.93232 368.514 2.93232C367.757 2.93232 367.084 3.10062 366.495 3.43724C365.918 3.77386 365.467 4.26075 365.142 4.89791C364.818 5.52306 364.655 6.2564 364.655 7.09794C364.655 7.93948 364.818 8.67883 365.142 9.316C365.467 9.95317 365.918 10.4461 366.495 10.7947C367.084 11.1313 367.757 11.2996 368.514 11.2996Z" fill="white"/>
<path d="M347.855 7.11356C347.855 5.8753 348.132 4.76927 348.685 3.79549C349.25 2.80969 350.013 2.04629 350.975 1.5053C351.949 0.952287 353.037 0.675781 354.239 0.675781C355.646 0.675781 356.878 1.03644 357.936 1.75776C358.994 2.47908 359.733 3.47691 360.154 4.75124H357.251C356.962 4.15014 356.553 3.69932 356.024 3.39876C355.507 3.09821 354.906 2.94794 354.221 2.94794C353.488 2.94794 352.833 3.12226 352.256 3.4709C351.691 3.80751 351.246 4.28839 350.921 4.91354C350.609 5.53868 350.452 6.27202 350.452 7.11356C350.452 7.94308 350.609 8.67643 350.921 9.31359C351.246 9.93874 351.691 10.4256 352.256 10.7743C352.833 11.1109 353.488 11.2792 354.221 11.2792C354.906 11.2792 355.507 11.1289 356.024 10.8284C356.553 10.5158 356.962 10.059 357.251 9.45786H360.154C359.733 10.7442 358.994 11.748 357.936 12.4694C356.89 13.1787 355.658 13.5333 354.239 13.5333C353.037 13.5333 351.949 13.2628 350.975 12.7218C350.013 12.1688 349.25 11.4054 348.685 10.4316C348.132 9.45786 347.855 8.35183 347.855 7.11356Z" fill="white"/>
<path d="M341.612 0.839844V2.87757H338.258V13.4269H335.733V2.87757H332.379V0.839844H341.612Z" fill="white"/>
<path d="M327.625 13.4269L324.848 8.52191H323.657V13.4269H321.133V0.839844H325.857C326.831 0.839844 327.661 1.01416 328.346 1.3628C329.031 1.69942 329.542 2.16226 329.879 2.75134C330.227 3.3284 330.402 3.97759 330.402 4.69891C330.402 5.52843 330.161 6.2798 329.68 6.95303C329.2 7.61424 328.484 8.07108 327.535 8.32354L330.546 13.4269H327.625ZM323.657 6.62844H325.767C326.453 6.62844 326.963 6.46614 327.3 6.14155C327.637 5.80493 327.805 5.34209 327.805 4.75301C327.805 4.17595 327.637 3.73114 327.3 3.41856C326.963 3.09397 326.453 2.93167 325.767 2.93167H323.657V6.62844Z" fill="white"/>
<path d="M312.452 13.5538C311.274 13.5538 310.192 13.2773 309.206 12.7242C308.22 12.1712 307.439 11.4078 306.862 10.434C306.285 9.44824 305.996 8.33621 305.996 7.09794C305.996 5.8717 306.285 4.77168 306.862 3.7979C307.439 2.81209 308.22 2.04269 309.206 1.48967C310.192 0.936662 311.274 0.660156 312.452 0.660156C313.642 0.660156 314.724 0.936662 315.698 1.48967C316.684 2.04269 317.459 2.81209 318.024 3.7979C318.601 4.77168 318.89 5.8717 318.89 7.09794C318.89 8.33621 318.601 9.44824 318.024 10.434C317.459 11.4078 316.684 12.1712 315.698 12.7242C314.712 13.2773 313.63 13.5538 312.452 13.5538ZM312.452 11.2996C313.209 11.2996 313.877 11.1313 314.454 10.7947C315.031 10.4461 315.481 9.95317 315.806 9.316C316.131 8.67883 316.293 7.93948 316.293 7.09794C316.293 6.2564 316.131 5.52306 315.806 4.89791C315.481 4.26075 315.031 3.77386 314.454 3.43724C313.877 3.10062 313.209 2.93232 312.452 2.93232C311.695 2.93232 311.021 3.10062 310.432 3.43724C309.855 3.77386 309.404 4.26075 309.08 4.89791C308.755 5.52306 308.593 6.2564 308.593 7.09794C308.593 7.93948 308.755 8.67883 309.08 9.316C309.404 9.95317 309.855 10.4461 310.432 10.7947C311.021 11.1313 311.695 11.2996 312.452 11.2996Z" fill="white"/>
<path d="M304.458 4.73497C304.458 5.40821 304.296 6.03936 303.971 6.62844C303.659 7.21752 303.16 7.69239 302.474 8.05305C301.801 8.41371 300.948 8.59404 299.914 8.59404H297.804V13.4269H295.279V0.839844H299.914C300.888 0.839844 301.717 1.00815 302.402 1.34477C303.088 1.68138 303.599 2.14423 303.935 2.73331C304.284 3.32239 304.458 3.98961 304.458 4.73497ZM299.806 6.55631C300.503 6.55631 301.02 6.40002 301.356 6.08745C301.693 5.76286 301.861 5.31203 301.861 4.73497C301.861 3.50873 301.176 2.89561 299.806 2.89561H297.804V6.55631H299.806Z" fill="white"/>
<path d="M288.276 13.5538C287.398 13.5538 286.605 13.4035 285.896 13.1029C285.198 12.8024 284.645 12.3696 284.237 11.8046C283.828 11.2395 283.617 10.5723 283.605 9.80289H286.31C286.346 10.3198 286.527 10.7286 286.851 11.0291C287.188 11.3297 287.645 11.48 288.222 11.48C288.811 11.48 289.274 11.3417 289.61 11.0652C289.947 10.7767 290.115 10.404 290.115 9.94716C290.115 9.57447 290.001 9.26791 289.773 9.02747C289.544 8.78703 289.256 8.60069 288.907 8.46845C288.571 8.32419 288.102 8.1679 287.501 7.99959C286.683 7.75915 286.016 7.52472 285.499 7.2963C284.994 7.05586 284.555 6.70121 284.183 6.23236C283.822 5.75148 283.642 5.11431 283.642 4.32086C283.642 3.57549 283.828 2.9263 284.201 2.37329C284.573 1.82028 285.096 1.39951 285.769 1.11098C286.443 0.810432 287.212 0.660156 288.078 0.660156C289.376 0.660156 290.428 0.978739 291.233 1.61591C292.051 2.24105 292.502 3.11866 292.586 4.24873H289.809C289.785 3.81593 289.598 3.46128 289.25 3.18478C288.913 2.89625 288.462 2.75199 287.897 2.75199C287.404 2.75199 287.008 2.87822 286.707 3.13068C286.419 3.38314 286.274 3.74981 286.274 4.23069C286.274 4.56731 286.383 4.84983 286.599 5.07824C286.827 5.29464 287.104 5.47497 287.428 5.61923C287.765 5.75148 288.234 5.90776 288.835 6.08809C289.653 6.32853 290.32 6.56897 290.837 6.80941C291.354 7.04985 291.798 7.41051 292.171 7.89139C292.544 8.37227 292.73 9.00343 292.73 9.78486C292.73 10.4581 292.556 11.0832 292.207 11.6603C291.859 12.2373 291.348 12.7002 290.674 13.0488C290.001 13.3855 289.202 13.5538 288.276 13.5538Z" fill="white"/>
<path d="M281.074 13.4215H278.55L272.833 4.78367V13.4215H270.309V0.816406H272.833L278.55 9.47225V0.816406H281.074V13.4215Z" fill="white"/>
<path d="M264.757 11.0231H259.744L258.915 13.4215H256.264L260.79 0.816406H263.729L268.256 13.4215H265.587L264.757 11.0231ZM264.072 9.00339L262.251 3.73775L260.429 9.00339H264.072Z" fill="white"/>
<path d="M251.619 13.4269L248.842 8.52191H247.652V13.4269H245.127V0.839844H249.852C250.825 0.839844 251.655 1.01416 252.34 1.3628C253.025 1.69942 253.536 2.16226 253.873 2.75134C254.222 3.3284 254.396 3.97759 254.396 4.69891C254.396 5.52843 254.155 6.2798 253.675 6.95303C253.194 7.61424 252.478 8.07108 251.529 8.32354L254.54 13.4269H251.619ZM247.652 6.62844H249.761C250.447 6.62844 250.958 6.46614 251.294 6.14155C251.631 5.80493 251.799 5.34209 251.799 4.75301C251.799 4.17595 251.631 3.73114 251.294 3.41856C250.958 3.09397 250.447 2.93167 249.761 2.93167H247.652V6.62844Z" fill="white"/>
<path d="M242.922 0.839844V2.87757H239.568V13.4269H237.044V2.87757H233.689V0.839844H242.922Z" fill="white"/>
<path d="M220.814 0.839844C222.137 0.839844 223.297 1.09832 224.294 1.61526C225.304 2.13221 226.08 2.87156 226.621 3.83332C227.174 4.78306 227.45 5.88909 227.45 7.1514C227.45 8.41371 227.174 9.51973 226.621 10.4695C226.08 11.4072 225.304 12.1345 224.294 12.6515C223.297 13.1684 222.137 13.4269 220.814 13.4269H216.414V0.839844H220.814ZM220.724 11.281C222.046 11.281 223.068 10.9203 223.79 10.199C224.511 9.47766 224.872 8.4618 224.872 7.1514C224.872 5.841 224.511 4.81913 223.79 4.08579C223.068 3.34042 222.046 2.96774 220.724 2.96774H218.939V11.281H220.724Z" fill="white"/>
<path d="M210.863 11.0231H205.85L205.02 13.4215H202.369L206.895 0.816406H209.835L214.361 13.4215H211.692L210.863 11.0231ZM210.177 9.00339L208.356 3.73775L206.535 9.00339H210.177Z" fill="white"/>
<path d="M194.468 13.5538C193.289 13.5538 192.207 13.2773 191.222 12.7242C190.236 12.1712 189.454 11.4078 188.877 10.434C188.3 9.44824 188.012 8.33621 188.012 7.09794C188.012 5.8717 188.3 4.77168 188.877 3.7979C189.454 2.81209 190.236 2.04269 191.222 1.48967C192.207 0.936662 193.289 0.660156 194.468 0.660156C195.658 0.660156 196.74 0.936662 197.713 1.48967C198.699 2.04269 199.475 2.81209 200.04 3.7979C200.617 4.77168 200.905 5.8717 200.905 7.09794C200.905 8.33621 200.617 9.44824 200.04 10.434C199.475 11.4078 198.699 12.1712 197.713 12.7242C196.728 13.2773 195.646 13.5538 194.468 13.5538ZM194.468 11.2996C195.225 11.2996 195.892 11.1313 196.469 10.7947C197.046 10.4461 197.497 9.95317 197.822 9.316C198.146 8.67883 198.309 7.93948 198.309 7.09794C198.309 6.2564 198.146 5.52306 197.822 4.89791C197.497 4.26075 197.046 3.77386 196.469 3.43724C195.892 3.10062 195.225 2.93232 194.468 2.93232C193.71 2.93232 193.037 3.10062 192.448 3.43724C191.871 3.77386 191.42 4.26075 191.095 4.89791C190.771 5.52306 190.608 6.2564 190.608 7.09794C190.608 7.93948 190.771 8.67883 191.095 9.316C191.42 9.95317 191.871 10.4461 192.448 10.7947C193.037 11.1313 193.71 11.2996 194.468 11.2996Z" fill="white"/>
<path d="M183.207 13.4269L180.43 8.52191H179.239V13.4269H176.715V0.839844H181.439C182.413 0.839844 183.243 1.01416 183.928 1.3628C184.613 1.69942 185.124 2.16226 185.461 2.75134C185.809 3.3284 185.984 3.97759 185.984 4.69891C185.984 5.52843 185.743 6.2798 185.262 6.95303C184.782 7.61424 184.066 8.07108 183.117 8.32354L186.128 13.4269H183.207ZM179.239 6.62844H181.349C182.035 6.62844 182.546 6.46614 182.882 6.14155C183.219 5.80493 183.387 5.34209 183.387 4.75301C183.387 4.17595 183.219 3.73114 182.882 3.41856C182.546 3.09397 182.035 2.93167 181.349 2.93167H179.239V6.62844Z" fill="white"/>
<path d="M164.62 2.87217V6.02795H168.858V8.02961H164.62V11.3657H169.399V13.4215H162.096V0.816406H169.399V2.87217H164.62Z" fill="white"/>
<path d="M159.893 0.839844V2.87757H156.539V13.4269H154.014V2.87757H150.66V0.839844H159.893Z" fill="white"/>
<path d="M145.777 11.0231H140.764L139.934 13.4215H137.283L141.809 0.816406H144.749L149.275 13.4215H146.606L145.777 11.0231ZM145.092 9.00339L143.27 3.73775L141.449 9.00339H145.092Z" fill="white"/>
<path d="M135.856 0.839844V2.87757H132.502V13.4269H129.977V2.87757H126.623V0.839844H135.856Z" fill="white"/>
<path d="M120.288 13.5538C119.41 13.5538 118.617 13.4035 117.907 13.1029C117.21 12.8024 116.657 12.3696 116.248 11.8046C115.84 11.2395 115.629 10.5723 115.617 9.80289H118.322C118.358 10.3198 118.539 10.7286 118.863 11.0291C119.2 11.3297 119.657 11.48 120.234 11.48C120.823 11.48 121.286 11.3417 121.622 11.0652C121.959 10.7767 122.127 10.404 122.127 9.94716C122.127 9.57447 122.013 9.26791 121.784 9.02747C121.556 8.78703 121.268 8.60069 120.919 8.46845C120.582 8.32419 120.113 8.1679 119.512 7.99959C118.695 7.75915 118.028 7.52472 117.511 7.2963C117.006 7.05586 116.567 6.70121 116.194 6.23236C115.834 5.75148 115.653 5.11431 115.653 4.32086C115.653 3.57549 115.84 2.9263 116.212 2.37329C116.585 1.82028 117.108 1.39951 117.781 1.11098C118.454 0.810432 119.224 0.660156 120.089 0.660156C121.388 0.660156 122.44 0.978739 123.245 1.61591C124.063 2.24105 124.513 3.11866 124.598 4.24873H121.821C121.796 3.81593 121.61 3.46128 121.262 3.18478C120.925 2.89625 120.474 2.75199 119.909 2.75199C119.416 2.75199 119.019 2.87822 118.719 3.13068C118.43 3.38314 118.286 3.74981 118.286 4.23069C118.286 4.56731 118.394 4.84983 118.611 5.07824C118.839 5.29464 119.116 5.47497 119.44 5.61923C119.777 5.75148 120.246 5.90776 120.847 6.08809C121.664 6.32853 122.331 6.56897 122.848 6.80941C123.365 7.04985 123.81 7.41051 124.183 7.89139C124.556 8.37227 124.742 9.00343 124.742 9.78486C124.742 10.4581 124.568 11.0832 124.219 11.6603C123.87 12.2373 123.359 12.7002 122.686 13.0488C122.013 13.3855 121.213 13.5538 120.288 13.5538Z" fill="white"/>
<path d="M105.732 11.0231H100.719L99.8891 13.4215H97.2383L101.765 0.816406H104.704L109.23 13.4215H106.561L105.732 11.0231ZM105.047 9.00339L103.225 3.73775L101.404 9.00339H105.047Z" fill="white"/>
<path d="M95.1602 13.4215H92.6356L86.9192 4.78367V13.4215H84.3945V0.816406H86.9192L92.6356 9.47225V0.816406H95.1602V13.4215Z" fill="white"/>
<path d="M78.8432 11.0231H73.83L73.0005 13.4215H70.3496L74.8759 0.816406H77.8153L82.3416 13.4215H79.6727L78.8432 11.0231ZM78.1579 9.00339L76.3366 3.73775L74.5152 9.00339H78.1579Z" fill="white"/>
<path d="M65.6838 4.62501C65.3953 4.09604 64.9986 3.69331 64.4936 3.4168C63.9887 3.14029 63.3996 3.00204 62.7264 3.00204C61.981 3.00204 61.3198 3.17035 60.7428 3.50696C60.1657 3.84358 59.7149 4.32446 59.3903 4.9496C59.0657 5.57475 58.9034 6.29607 58.9034 7.11356C58.9034 7.95511 59.0657 8.68845 59.3903 9.31359C59.7269 9.93874 60.1898 10.4196 60.7788 10.7562C61.3679 11.0928 62.0532 11.2612 62.8346 11.2612C63.7964 11.2612 64.5838 11.0087 65.1969 10.5038C65.81 9.98682 66.2128 9.27152 66.4051 8.35784H62.0772V6.42831H68.8937V8.62834C68.7254 9.50594 68.3647 10.3174 67.8117 11.0628C67.2587 11.8082 66.5434 12.4093 65.6658 12.8661C64.8002 13.3109 63.8264 13.5333 62.7444 13.5333C61.5302 13.5333 60.4302 13.2628 59.4444 12.7218C58.4706 12.1688 57.7012 11.4054 57.1362 10.4316C56.5831 9.45786 56.3066 8.35183 56.3066 7.11356C56.3066 5.8753 56.5831 4.76927 57.1362 3.79549C57.7012 2.80969 58.4706 2.04629 59.4444 1.5053C60.4302 0.952287 61.5242 0.675781 62.7264 0.675781C64.145 0.675781 65.3772 1.02442 66.4232 1.7217C67.4691 2.40695 68.1904 3.37472 68.5871 4.62501H65.6838Z" fill="white"/>
<path d="M54.0665 13.4215H51.5419L45.8254 4.78367V13.4215H43.3008V0.816406H45.8254L51.5419 9.47225V0.816406H54.0665V13.4215Z" fill="white"/>
<path d="M37.7514 11.0231H32.7382L31.9087 13.4215H29.2578L33.7841 0.816406H36.7235L41.2498 13.4215H38.5809L37.7514 11.0231ZM37.0661 9.00339L35.2448 3.73775L33.4234 9.00339H37.0661Z" fill="white"/>
<path d="M23.9192 11.4252H28.0667V13.4269H21.3945V0.839844H23.9192V11.4252Z" fill="white"/>
<path d="M13.9582 2.87217V6.02795H18.196V8.02961H13.9582V11.3657H18.737V13.4215H11.4336V0.816406H18.737V2.87217H13.9582Z" fill="white"/>
<path d="M9.2329 0.839844V2.87757H5.87876V13.4269H3.35414V2.87757H0V0.839844H9.2329Z" fill="white"/>
</svg>
