<svg width="482" height="14" viewBox="0 0 482 14" fill="none" xmlns="http://www.w3.org/2000/svg">
<path d="M481.57 13.4205H479.046L473.329 4.78269V13.4205H470.805V0.81543H473.329L479.046 9.47127V0.81543H481.57V13.4205Z" fill="white"/>
<path d="M462.128 13.5528C460.95 13.5528 459.868 13.2763 458.882 12.7233C457.896 12.1702 457.114 11.4069 456.537 10.4331C455.96 9.44727 455.672 8.33523 455.672 7.09696C455.672 5.87072 455.96 4.77071 456.537 3.79692C457.114 2.81112 457.896 2.04171 458.882 1.4887C459.868 0.935686 460.95 0.65918 462.128 0.65918C463.318 0.65918 464.4 0.935686 465.374 1.4887C466.359 2.04171 467.135 2.81112 467.7 3.79692C468.277 4.77071 468.565 5.87072 468.565 7.09696C468.565 8.33523 468.277 9.44727 467.7 10.4331C467.135 11.4069 466.359 12.1702 465.374 12.7233C464.388 13.2763 463.306 13.5528 462.128 13.5528ZM462.128 11.2987C462.885 11.2987 463.552 11.1303 464.129 10.7937C464.706 10.4451 465.157 9.95219 465.482 9.31502C465.806 8.67786 465.969 7.9385 465.969 7.09696C465.969 6.25542 465.806 5.52208 465.482 4.89694C465.157 4.25977 464.706 3.77288 464.129 3.43626C463.552 3.09965 462.885 2.93134 462.128 2.93134C461.37 2.93134 460.697 3.09965 460.108 3.43626C459.531 3.77288 459.08 4.25977 458.756 4.89694C458.431 5.52208 458.269 6.25542 458.269 7.09696C458.269 7.9385 458.431 8.67786 458.756 9.31502C459.08 9.95219 459.531 10.4451 460.108 10.7937C460.697 11.1303 461.37 11.2987 462.128 11.2987Z" fill="white"/>
<path d="M453.431 0.838867V13.4259H450.906V0.838867H453.431Z" fill="white"/>
<path d="M448.704 0.838867V2.8766H445.349V13.4259H442.825V2.8766H439.471V0.838867H448.704Z" fill="white"/>
<path d="M434.587 11.0221H429.574L428.745 13.4205H426.094L430.62 0.81543H433.559L438.086 13.4205H435.417L434.587 11.0221ZM433.902 9.00241L432.081 3.73678L430.259 9.00241H433.902Z" fill="white"/>
<path d="M421.449 13.4259L418.672 8.52093H417.482V13.4259H414.957V0.838867H419.682C420.655 0.838867 421.485 1.01319 422.17 1.36182C422.855 1.69844 423.366 2.16129 423.703 2.75037C424.052 3.32742 424.226 3.97661 424.226 4.69793C424.226 5.52745 423.986 6.27882 423.505 6.95206C423.024 7.61327 422.309 8.0701 421.359 8.32257L424.37 13.4259H421.449ZM417.482 6.62746H419.591C420.277 6.62746 420.788 6.46517 421.124 6.14057C421.461 5.80396 421.629 5.34111 421.629 4.75203C421.629 4.17497 421.461 3.73016 421.124 3.41759C420.788 3.09299 420.277 2.9307 419.591 2.9307H417.482V6.62746Z" fill="white"/>
<path d="M406.278 13.5528C405.1 13.5528 404.018 13.2763 403.032 12.7233C402.047 12.1702 401.265 11.4069 400.688 10.4331C400.111 9.44727 399.823 8.33523 399.823 7.09696C399.823 5.87072 400.111 4.77071 400.688 3.79692C401.265 2.81112 402.047 2.04171 403.032 1.4887C404.018 0.935686 405.1 0.65918 406.278 0.65918C407.468 0.65918 408.55 0.935686 409.524 1.4887C410.51 2.04171 411.285 2.81112 411.851 3.79692C412.428 4.77071 412.716 5.87072 412.716 7.09696C412.716 8.33523 412.428 9.44727 411.851 10.4331C411.285 11.4069 410.51 12.1702 409.524 12.7233C408.538 13.2763 407.456 13.5528 406.278 13.5528ZM406.278 11.2987C407.036 11.2987 407.703 11.1303 408.28 10.7937C408.857 10.4451 409.308 9.95219 409.632 9.31502C409.957 8.67786 410.119 7.9385 410.119 7.09696C410.119 6.25542 409.957 5.52208 409.632 4.89694C409.308 4.25977 408.857 3.77288 408.28 3.43626C407.703 3.09965 407.036 2.93134 406.278 2.93134C405.521 2.93134 404.848 3.09965 404.259 3.43626C403.682 3.77288 403.231 4.25977 402.906 4.89694C402.582 5.52208 402.419 6.25542 402.419 7.09696C402.419 7.9385 402.582 8.67786 402.906 9.31502C403.231 9.95219 403.682 10.4451 404.259 10.7937C404.848 11.1303 405.521 11.2987 406.278 11.2987Z" fill="white"/>
<path d="M398.284 4.734C398.284 5.40723 398.122 6.03838 397.797 6.62746C397.485 7.21654 396.986 7.69141 396.301 8.05207C395.627 8.41273 394.774 8.59306 393.74 8.59306H391.63V13.4259H389.105V0.838867H393.74C394.714 0.838867 395.543 1.00718 396.228 1.34379C396.914 1.68041 397.425 2.14325 397.761 2.73233C398.11 3.32141 398.284 3.98863 398.284 4.734ZM393.632 6.55533C394.329 6.55533 394.846 6.39905 395.183 6.08647C395.519 5.76188 395.688 5.31105 395.688 4.734C395.688 3.50775 395.002 2.89463 393.632 2.89463H391.63V6.55533H393.632Z" fill="white"/>
<path d="M383.683 13.4259L380.906 8.52093H379.716V13.4259H377.191V0.838867H381.916C382.89 0.838867 383.719 1.01319 384.405 1.36182C385.09 1.69844 385.601 2.16129 385.937 2.75037C386.286 3.32742 386.46 3.97661 386.46 4.69793C386.46 5.52745 386.22 6.27882 385.739 6.95206C385.258 7.61327 384.543 8.0701 383.593 8.32257L386.605 13.4259H383.683ZM379.716 6.62746H381.826C382.511 6.62746 383.022 6.46517 383.359 6.14057C383.695 5.80396 383.864 5.34111 383.864 4.75203C383.864 4.17497 383.695 3.73016 383.359 3.41759C383.022 3.09299 382.511 2.9307 381.826 2.9307H379.716V6.62746Z" fill="white"/>
<path d="M368.514 13.5528C367.336 13.5528 366.254 13.2763 365.268 12.7233C364.283 12.1702 363.501 11.4069 362.924 10.4331C362.347 9.44727 362.059 8.33523 362.059 7.09696C362.059 5.87072 362.347 4.77071 362.924 3.79692C363.501 2.81112 364.283 2.04171 365.268 1.4887C366.254 0.935686 367.336 0.65918 368.514 0.65918C369.705 0.65918 370.787 0.935686 371.76 1.4887C372.746 2.04171 373.522 2.81112 374.087 3.79692C374.664 4.77071 374.952 5.87072 374.952 7.09696C374.952 8.33523 374.664 9.44727 374.087 10.4331C373.522 11.4069 372.746 12.1702 371.76 12.7233C370.775 13.2763 369.693 13.5528 368.514 13.5528ZM368.514 11.2987C369.272 11.2987 369.939 11.1303 370.516 10.7937C371.093 10.4451 371.544 9.95219 371.869 9.31502C372.193 8.67786 372.355 7.9385 372.355 7.09696C372.355 6.25542 372.193 5.52208 371.869 4.89694C371.544 4.25977 371.093 3.77288 370.516 3.43626C369.939 3.09965 369.272 2.93134 368.514 2.93134C367.757 2.93134 367.084 3.09965 366.495 3.43626C365.918 3.77288 365.467 4.25977 365.142 4.89694C364.818 5.52208 364.655 6.25542 364.655 7.09696C364.655 7.9385 364.818 8.67786 365.142 9.31502C365.467 9.95219 365.918 10.4451 366.495 10.7937C367.084 11.1303 367.757 11.2987 368.514 11.2987Z" fill="white"/>
<path d="M347.855 7.11259C347.855 5.87432 348.132 4.7683 348.685 3.79451C349.25 2.80871 350.013 2.04531 350.975 1.50432C351.949 0.951311 353.037 0.674805 354.239 0.674805C355.646 0.674805 356.878 1.03547 357.936 1.75679C358.994 2.47811 359.733 3.47593 360.154 4.75026H357.251C356.962 4.14916 356.553 3.69834 356.024 3.39779C355.507 3.09724 354.906 2.94696 354.221 2.94696C353.488 2.94696 352.833 3.12128 352.256 3.46992C351.691 3.80654 351.246 4.28742 350.921 4.91256C350.609 5.53771 350.452 6.27105 350.452 7.11259C350.452 7.94211 350.609 8.67545 350.921 9.31262C351.246 9.93776 351.691 10.4247 352.256 10.7733C352.833 11.1099 353.488 11.2782 354.221 11.2782C354.906 11.2782 355.507 11.1279 356.024 10.8274C356.553 10.5148 356.962 10.058 357.251 9.45688H360.154C359.733 10.7432 358.994 11.7471 357.936 12.4684C356.89 13.1777 355.658 13.5323 354.239 13.5323C353.037 13.5323 351.949 13.2618 350.975 12.7209C350.013 12.1678 349.25 11.4044 348.685 10.4307C348.132 9.45688 347.855 8.35085 347.855 7.11259Z" fill="white"/>
<path d="M341.612 0.838867V2.8766H338.258V13.4259H335.733V2.8766H332.379V0.838867H341.612Z" fill="white"/>
<path d="M327.625 13.4259L324.848 8.52093H323.657V13.4259H321.133V0.838867H325.857C326.831 0.838867 327.661 1.01319 328.346 1.36182C329.031 1.69844 329.542 2.16129 329.879 2.75037C330.227 3.32742 330.402 3.97661 330.402 4.69793C330.402 5.52745 330.161 6.27882 329.68 6.95206C329.2 7.61327 328.484 8.0701 327.535 8.32257L330.546 13.4259H327.625ZM323.657 6.62746H325.767C326.453 6.62746 326.963 6.46517 327.3 6.14057C327.637 5.80396 327.805 5.34111 327.805 4.75203C327.805 4.17497 327.637 3.73016 327.3 3.41759C326.963 3.09299 326.453 2.9307 325.767 2.9307H323.657V6.62746Z" fill="white"/>
<path d="M312.452 13.5528C311.274 13.5528 310.192 13.2763 309.206 12.7233C308.22 12.1702 307.439 11.4069 306.862 10.4331C306.285 9.44727 305.996 8.33523 305.996 7.09696C305.996 5.87072 306.285 4.77071 306.862 3.79692C307.439 2.81112 308.22 2.04171 309.206 1.4887C310.192 0.935686 311.274 0.65918 312.452 0.65918C313.642 0.65918 314.724 0.935686 315.698 1.4887C316.684 2.04171 317.459 2.81112 318.024 3.79692C318.601 4.77071 318.89 5.87072 318.89 7.09696C318.89 8.33523 318.601 9.44727 318.024 10.4331C317.459 11.4069 316.684 12.1702 315.698 12.7233C314.712 13.2763 313.63 13.5528 312.452 13.5528ZM312.452 11.2987C313.209 11.2987 313.877 11.1303 314.454 10.7937C315.031 10.4451 315.481 9.95219 315.806 9.31502C316.131 8.67786 316.293 7.9385 316.293 7.09696C316.293 6.25542 316.131 5.52208 315.806 4.89694C315.481 4.25977 315.031 3.77288 314.454 3.43626C313.877 3.09965 313.209 2.93134 312.452 2.93134C311.695 2.93134 311.021 3.09965 310.432 3.43626C309.855 3.77288 309.404 4.25977 309.08 4.89694C308.755 5.52208 308.593 6.25542 308.593 7.09696C308.593 7.9385 308.755 8.67786 309.08 9.31502C309.404 9.95219 309.855 10.4451 310.432 10.7937C311.021 11.1303 311.695 11.2987 312.452 11.2987Z" fill="white"/>
<path d="M304.458 4.734C304.458 5.40723 304.296 6.03838 303.971 6.62746C303.659 7.21654 303.16 7.69141 302.474 8.05207C301.801 8.41273 300.948 8.59306 299.914 8.59306H297.804V13.4259H295.279V0.838867H299.914C300.888 0.838867 301.717 1.00718 302.402 1.34379C303.088 1.68041 303.599 2.14325 303.935 2.73233C304.284 3.32141 304.458 3.98863 304.458 4.734ZM299.806 6.55533C300.503 6.55533 301.02 6.39905 301.356 6.08647C301.693 5.76188 301.861 5.31105 301.861 4.734C301.861 3.50775 301.176 2.89463 299.806 2.89463H297.804V6.55533H299.806Z" fill="white"/>
<path d="M288.276 13.5528C287.398 13.5528 286.605 13.4025 285.896 13.102C285.198 12.8014 284.645 12.3686 284.237 11.8036C283.828 11.2385 283.617 10.5713 283.605 9.80192H286.31C286.346 10.3189 286.527 10.7276 286.851 11.0282C287.188 11.3287 287.645 11.479 288.222 11.479C288.811 11.479 289.274 11.3407 289.61 11.0642C289.947 10.7757 290.115 10.403 290.115 9.94618C290.115 9.5735 290.001 9.26694 289.773 9.0265C289.544 8.78606 289.256 8.59971 288.907 8.46747C288.571 8.32321 288.102 8.16692 287.501 7.99861C286.683 7.75817 286.016 7.52375 285.499 7.29533C284.994 7.05489 284.555 6.70024 284.183 6.23138C283.822 5.7505 283.642 5.11333 283.642 4.31988C283.642 3.57452 283.828 2.92533 284.201 2.37232C284.573 1.8193 285.096 1.39853 285.769 1.11001C286.443 0.809455 287.212 0.65918 288.078 0.65918C289.376 0.65918 290.428 0.977763 291.233 1.61493C292.051 2.24007 292.502 3.11768 292.586 4.24775H289.809C289.785 3.81496 289.598 3.46031 289.25 3.1838C288.913 2.89527 288.462 2.75101 287.897 2.75101C287.404 2.75101 287.008 2.87724 286.707 3.1297C286.419 3.38216 286.274 3.74883 286.274 4.22971C286.274 4.56633 286.383 4.84885 286.599 5.07727C286.827 5.29366 287.104 5.47399 287.428 5.61826C287.765 5.7505 288.234 5.90679 288.835 6.08712C289.653 6.32756 290.32 6.568 290.837 6.80844C291.354 7.04888 291.798 7.40954 292.171 7.89042C292.544 8.3713 292.73 9.00245 292.73 9.78388C292.73 10.4571 292.556 11.0823 292.207 11.6593C291.859 12.2364 291.348 12.6992 290.674 13.0479C290.001 13.3845 289.202 13.5528 288.276 13.5528Z" fill="white"/>
<path d="M281.074 13.4205H278.55L272.833 4.78269V13.4205H270.309V0.81543H272.833L278.55 9.47127V0.81543H281.074V13.4205Z" fill="white"/>
<path d="M264.757 11.0221H259.744L258.915 13.4205H256.264L260.79 0.81543H263.729L268.256 13.4205H265.587L264.757 11.0221ZM264.072 9.00241L262.251 3.73678L260.429 9.00241H264.072Z" fill="white"/>
<path d="M251.619 13.4259L248.842 8.52093H247.652V13.4259H245.127V0.838867H249.852C250.825 0.838867 251.655 1.01319 252.34 1.36182C253.025 1.69844 253.536 2.16129 253.873 2.75037C254.222 3.32742 254.396 3.97661 254.396 4.69793C254.396 5.52745 254.155 6.27882 253.675 6.95206C253.194 7.61327 252.478 8.0701 251.529 8.32257L254.54 13.4259H251.619ZM247.652 6.62746H249.761C250.447 6.62746 250.958 6.46517 251.294 6.14057C251.631 5.80396 251.799 5.34111 251.799 4.75203C251.799 4.17497 251.631 3.73016 251.294 3.41759C250.958 3.09299 250.447 2.9307 249.761 2.9307H247.652V6.62746Z" fill="white"/>
<path d="M242.922 0.838867V2.8766H239.568V13.4259H237.044V2.8766H233.689V0.838867H242.922Z" fill="white"/>
<path d="M220.814 0.838867C222.137 0.838867 223.297 1.09734 224.294 1.61429C225.304 2.13123 226.08 2.87059 226.621 3.83235C227.174 4.78209 227.45 5.88811 227.45 7.15042C227.45 8.41273 227.174 9.51875 226.621 10.4685C226.08 11.4062 225.304 12.1335 224.294 12.6505C223.297 13.1674 222.137 13.4259 220.814 13.4259H216.414V0.838867H220.814ZM220.724 11.28C222.046 11.28 223.068 10.9193 223.79 10.198C224.511 9.47668 224.872 8.46082 224.872 7.15042C224.872 5.84002 224.511 4.81815 223.79 4.08481C223.068 3.33944 222.046 2.96676 220.724 2.96676H218.939V11.28H220.724Z" fill="white"/>
<path d="M210.863 11.0221H205.85L205.02 13.4205H202.369L206.895 0.81543H209.835L214.361 13.4205H211.692L210.863 11.0221ZM210.177 9.00241L208.356 3.73678L206.535 9.00241H210.177Z" fill="white"/>
<path d="M194.468 13.5528C193.289 13.5528 192.207 13.2763 191.222 12.7233C190.236 12.1702 189.454 11.4069 188.877 10.4331C188.3 9.44727 188.012 8.33523 188.012 7.09696C188.012 5.87072 188.3 4.77071 188.877 3.79692C189.454 2.81112 190.236 2.04171 191.222 1.4887C192.207 0.935686 193.289 0.65918 194.468 0.65918C195.658 0.65918 196.74 0.935686 197.713 1.4887C198.699 2.04171 199.475 2.81112 200.04 3.79692C200.617 4.77071 200.905 5.87072 200.905 7.09696C200.905 8.33523 200.617 9.44727 200.04 10.4331C199.475 11.4069 198.699 12.1702 197.713 12.7233C196.728 13.2763 195.646 13.5528 194.468 13.5528ZM194.468 11.2987C195.225 11.2987 195.892 11.1303 196.469 10.7937C197.046 10.4451 197.497 9.95219 197.822 9.31502C198.146 8.67786 198.309 7.9385 198.309 7.09696C198.309 6.25542 198.146 5.52208 197.822 4.89694C197.497 4.25977 197.046 3.77288 196.469 3.43626C195.892 3.09965 195.225 2.93134 194.468 2.93134C193.71 2.93134 193.037 3.09965 192.448 3.43626C191.871 3.77288 191.42 4.25977 191.095 4.89694C190.771 5.52208 190.608 6.25542 190.608 7.09696C190.608 7.9385 190.771 8.67786 191.095 9.31502C191.42 9.95219 191.871 10.4451 192.448 10.7937C193.037 11.1303 193.71 11.2987 194.468 11.2987Z" fill="white"/>
<path d="M183.207 13.4259L180.43 8.52093H179.239V13.4259H176.715V0.838867H181.439C182.413 0.838867 183.243 1.01319 183.928 1.36182C184.613 1.69844 185.124 2.16129 185.461 2.75037C185.809 3.32742 185.984 3.97661 185.984 4.69793C185.984 5.52745 185.743 6.27882 185.262 6.95206C184.782 7.61327 184.066 8.0701 183.117 8.32257L186.128 13.4259H183.207ZM179.239 6.62746H181.349C182.035 6.62746 182.546 6.46517 182.882 6.14057C183.219 5.80396 183.387 5.34111 183.387 4.75203C183.387 4.17497 183.219 3.73016 182.882 3.41759C182.546 3.09299 182.035 2.9307 181.349 2.9307H179.239V6.62746Z" fill="white"/>
<path d="M164.62 2.87119V6.02697H168.858V8.02863H164.62V11.3647H169.399V13.4205H162.096V0.81543H169.399V2.87119H164.62Z" fill="white"/>
<path d="M159.893 0.838867V2.8766H156.539V13.4259H154.014V2.8766H150.66V0.838867H159.893Z" fill="white"/>
<path d="M145.777 11.0221H140.764L139.934 13.4205H137.283L141.809 0.81543H144.749L149.275 13.4205H146.606L145.777 11.0221ZM145.092 9.00241L143.27 3.73678L141.449 9.00241H145.092Z" fill="white"/>
<path d="M135.856 0.838867V2.8766H132.502V13.4259H129.977V2.8766H126.623V0.838867H135.856Z" fill="white"/>
<path d="M120.288 13.5528C119.41 13.5528 118.617 13.4025 117.907 13.102C117.21 12.8014 116.657 12.3686 116.248 11.8036C115.84 11.2385 115.629 10.5713 115.617 9.80192H118.322C118.358 10.3189 118.539 10.7276 118.863 11.0282C119.2 11.3287 119.657 11.479 120.234 11.479C120.823 11.479 121.286 11.3407 121.622 11.0642C121.959 10.7757 122.127 10.403 122.127 9.94618C122.127 9.5735 122.013 9.26694 121.784 9.0265C121.556 8.78606 121.268 8.59971 120.919 8.46747C120.582 8.32321 120.113 8.16692 119.512 7.99861C118.695 7.75817 118.028 7.52375 117.511 7.29533C117.006 7.05489 116.567 6.70024 116.194 6.23138C115.834 5.7505 115.653 5.11333 115.653 4.31988C115.653 3.57452 115.84 2.92533 116.212 2.37232C116.585 1.8193 117.108 1.39853 117.781 1.11001C118.454 0.809455 119.224 0.65918 120.089 0.65918C121.388 0.65918 122.44 0.977763 123.245 1.61493C124.063 2.24007 124.513 3.11768 124.598 4.24775H121.821C121.796 3.81496 121.61 3.46031 121.262 3.1838C120.925 2.89527 120.474 2.75101 119.909 2.75101C119.416 2.75101 119.019 2.87724 118.719 3.1297C118.43 3.38216 118.286 3.74883 118.286 4.22971C118.286 4.56633 118.394 4.84885 118.611 5.07727C118.839 5.29366 119.116 5.47399 119.44 5.61826C119.777 5.7505 120.246 5.90679 120.847 6.08712C121.664 6.32756 122.331 6.568 122.848 6.80844C123.365 7.04888 123.81 7.40954 124.183 7.89042C124.556 8.3713 124.742 9.00245 124.742 9.78388C124.742 10.4571 124.568 11.0823 124.219 11.6593C123.87 12.2364 123.359 12.6992 122.686 13.0479C122.013 13.3845 121.213 13.5528 120.288 13.5528Z" fill="white"/>
<path d="M105.732 11.0221H100.719L99.8891 13.4205H97.2383L101.765 0.81543H104.704L109.23 13.4205H106.561L105.732 11.0221ZM105.047 9.00241L103.225 3.73678L101.404 9.00241H105.047Z" fill="white"/>
<path d="M95.1602 13.4205H92.6356L86.9192 4.78269V13.4205H84.3945V0.81543H86.9192L92.6356 9.47127V0.81543H95.1602V13.4205Z" fill="white"/>
<path d="M78.8432 11.0221H73.83L73.0005 13.4205H70.3496L74.8759 0.81543H77.8153L82.3416 13.4205H79.6727L78.8432 11.0221ZM78.1579 9.00241L76.3366 3.73678L74.5152 9.00241H78.1579Z" fill="white"/>
<path d="M65.6838 4.62403C65.3953 4.09507 64.9986 3.69233 64.4936 3.41582C63.9887 3.13932 63.3996 3.00106 62.7264 3.00106C61.981 3.00106 61.3198 3.16937 60.7428 3.50599C60.1657 3.8426 59.7149 4.32348 59.3903 4.94863C59.0657 5.57377 58.9034 6.29509 58.9034 7.11259C58.9034 7.95413 59.0657 8.68747 59.3903 9.31262C59.7269 9.93776 60.1898 10.4186 60.7788 10.7553C61.3679 11.0919 62.0532 11.2602 62.8346 11.2602C63.7964 11.2602 64.5838 11.0077 65.1969 10.5028C65.81 9.98585 66.2128 9.27054 66.4051 8.35687H62.0772V6.42733H68.8937V8.62736C68.7254 9.50497 68.3647 10.3165 67.8117 11.0618C67.2587 11.8072 66.5434 12.4083 65.6658 12.8651C64.8002 13.3099 63.8264 13.5323 62.7444 13.5323C61.5302 13.5323 60.4302 13.2618 59.4444 12.7209C58.4706 12.1678 57.7012 11.4044 57.1362 10.4307C56.5831 9.45688 56.3066 8.35085 56.3066 7.11259C56.3066 5.87432 56.5831 4.7683 57.1362 3.79451C57.7012 2.80871 58.4706 2.04531 59.4444 1.50432C60.4302 0.951311 61.5242 0.674805 62.7264 0.674805C64.145 0.674805 65.3772 1.02344 66.4232 1.72072C67.4691 2.40597 68.1904 3.37374 68.5871 4.62403H65.6838Z" fill="white"/>
<path d="M54.0665 13.4205H51.5419L45.8254 4.78269V13.4205H43.3008V0.81543H45.8254L51.5419 9.47127V0.81543H54.0665V13.4205Z" fill="white"/>
<path d="M37.7514 11.0221H32.7382L31.9087 13.4205H29.2578L33.7841 0.81543H36.7235L41.2498 13.4205H38.5809L37.7514 11.0221ZM37.0661 9.00241L35.2448 3.73678L33.4234 9.00241H37.0661Z" fill="white"/>
<path d="M23.9192 11.4242H28.0667V13.4259H21.3945V0.838867H23.9192V11.4242Z" fill="white"/>
<path d="M13.9582 2.87119V6.02697H18.196V8.02863H13.9582V11.3647H18.737V13.4205H11.4336V0.81543H18.737V2.87119H13.9582Z" fill="white"/>
<path d="M9.2329 0.838867V2.8766H5.87876V13.4259H3.35414V2.8766H0V0.838867H9.2329Z" fill="white"/>
</svg>
