<svg width="482" height="14" viewBox="0 0 482 14" fill="none" xmlns="http://www.w3.org/2000/svg">
<path d="M481.57 13.3551H479.046L473.329 4.71726V13.3551H470.805V0.75H473.329L479.046 9.40584V0.75H481.57V13.3551Z" fill="white"/>
<path d="M462.128 13.4874C460.95 13.4874 459.868 13.2108 458.882 12.6578C457.896 12.1048 457.114 11.3414 456.537 10.3676C455.96 9.38184 455.672 8.2698 455.672 7.03153C455.672 5.80529 455.96 4.70528 456.537 3.73149C457.114 2.74569 457.896 1.97628 458.882 1.42327C459.868 0.870256 460.95 0.59375 462.128 0.59375C463.318 0.59375 464.4 0.870256 465.374 1.42327C466.359 1.97628 467.135 2.74569 467.7 3.73149C468.277 4.70528 468.565 5.80529 468.565 7.03153C468.565 8.2698 468.277 9.38184 467.7 10.3676C467.135 11.3414 466.359 12.1048 465.374 12.6578C464.388 13.2108 463.306 13.4874 462.128 13.4874ZM462.128 11.2332C462.885 11.2332 463.552 11.0649 464.129 10.7283C464.706 10.3797 465.157 9.88676 465.482 9.24959C465.806 8.61243 465.969 7.87308 465.969 7.03153C465.969 6.18999 465.806 5.45665 465.482 4.83151C465.157 4.19434 464.706 3.70745 464.129 3.37083C463.552 3.03422 462.885 2.86591 462.128 2.86591C461.37 2.86591 460.697 3.03422 460.108 3.37083C459.531 3.70745 459.08 4.19434 458.756 4.83151C458.431 5.45665 458.269 6.18999 458.269 7.03153C458.269 7.87308 458.431 8.61243 458.756 9.24959C459.08 9.88676 459.531 10.3797 460.108 10.7283C460.697 11.0649 461.37 11.2332 462.128 11.2332Z" fill="white"/>
<path d="M453.431 0.773438V13.3605H450.906V0.773438H453.431Z" fill="white"/>
<path d="M448.702 0.773438V2.81117H445.347V13.3605H442.823V2.81117H439.469V0.773438H448.702Z" fill="white"/>
<path d="M434.587 10.9567H429.574L428.745 13.3551H426.094L430.62 0.75H433.559L438.086 13.3551H435.417L434.587 10.9567ZM433.902 8.93699L432.081 3.67135L430.259 8.93699H433.902Z" fill="white"/>
<path d="M421.449 13.3605L418.672 8.4555H417.482V13.3605H414.957V0.773438H419.682C420.655 0.773438 421.485 0.947757 422.17 1.29639C422.855 1.63301 423.366 2.09586 423.703 2.68494C424.052 3.26199 424.226 3.91118 424.226 4.6325C424.226 5.46202 423.986 6.2134 423.505 6.88663C423.024 7.54784 422.309 8.00467 421.359 8.25714L424.37 13.3605H421.449ZM417.482 6.56203H419.591C420.277 6.56203 420.788 6.39974 421.124 6.07514C421.461 5.73853 421.629 5.27568 421.629 4.6866C421.629 4.10954 421.461 3.66473 421.124 3.35216C420.788 3.02756 420.277 2.86527 419.591 2.86527H417.482V6.56203Z" fill="white"/>
<path d="M406.28 13.4874C405.102 13.4874 404.02 13.2108 403.034 12.6578C402.048 12.1048 401.267 11.3414 400.69 10.3676C400.113 9.38184 399.824 8.2698 399.824 7.03153C399.824 5.80529 400.113 4.70528 400.69 3.73149C401.267 2.74569 402.048 1.97628 403.034 1.42327C404.02 0.870256 405.102 0.59375 406.28 0.59375C407.47 0.59375 408.552 0.870256 409.526 1.42327C410.512 1.97628 411.287 2.74569 411.852 3.73149C412.429 4.70528 412.718 5.80529 412.718 7.03153C412.718 8.2698 412.429 9.38184 411.852 10.3676C411.287 11.3414 410.512 12.1048 409.526 12.6578C408.54 13.2108 407.458 13.4874 406.28 13.4874ZM406.28 11.2332C407.037 11.2332 407.705 11.0649 408.282 10.7283C408.859 10.3797 409.31 9.88676 409.634 9.24959C409.959 8.61243 410.121 7.87308 410.121 7.03153C410.121 6.18999 409.959 5.45665 409.634 4.83151C409.31 4.19434 408.859 3.70745 408.282 3.37083C407.705 3.03422 407.037 2.86591 406.28 2.86591C405.523 2.86591 404.849 3.03422 404.26 3.37083C403.683 3.70745 403.232 4.19434 402.908 4.83151C402.583 5.45665 402.421 6.18999 402.421 7.03153C402.421 7.87308 402.583 8.61243 402.908 9.24959C403.232 9.88676 403.683 10.3797 404.26 10.7283C404.849 11.0649 405.523 11.2332 406.28 11.2332Z" fill="white"/>
<path d="M398.284 4.66857C398.284 5.3418 398.122 5.97296 397.797 6.56203C397.485 7.15111 396.986 7.62598 396.301 7.98664C395.627 8.3473 394.774 8.52763 393.74 8.52763H391.63V13.3605H389.105V0.773438H393.74C394.714 0.773438 395.543 0.941746 396.228 1.27836C396.914 1.61498 397.425 2.07783 397.761 2.6669C398.11 3.25598 398.284 3.9232 398.284 4.66857ZM393.632 6.4899C394.329 6.4899 394.846 6.33362 395.183 6.02104C395.519 5.69645 395.688 5.24562 395.688 4.66857C395.688 3.44232 395.002 2.8292 393.632 2.8292H391.63V6.4899H393.632Z" fill="white"/>
<path d="M383.683 13.3605L380.906 8.4555H379.716V13.3605H377.191V0.773438H381.916C382.89 0.773438 383.719 0.947757 384.405 1.29639C385.09 1.63301 385.601 2.09586 385.937 2.68494C386.286 3.26199 386.46 3.91118 386.46 4.6325C386.46 5.46202 386.22 6.2134 385.739 6.88663C385.258 7.54784 384.543 8.00467 383.593 8.25714L386.605 13.3605H383.683ZM379.716 6.56203H381.826C382.511 6.56203 383.022 6.39974 383.359 6.07514C383.695 5.73853 383.864 5.27568 383.864 4.6866C383.864 4.10954 383.695 3.66473 383.359 3.35216C383.022 3.02756 382.511 2.86527 381.826 2.86527H379.716V6.56203Z" fill="white"/>
<path d="M368.514 13.4874C367.336 13.4874 366.254 13.2108 365.268 12.6578C364.283 12.1048 363.501 11.3414 362.924 10.3676C362.347 9.38184 362.059 8.2698 362.059 7.03153C362.059 5.80529 362.347 4.70528 362.924 3.73149C363.501 2.74569 364.283 1.97628 365.268 1.42327C366.254 0.870256 367.336 0.59375 368.514 0.59375C369.705 0.59375 370.787 0.870256 371.76 1.42327C372.746 1.97628 373.522 2.74569 374.087 3.73149C374.664 4.70528 374.952 5.80529 374.952 7.03153C374.952 8.2698 374.664 9.38184 374.087 10.3676C373.522 11.3414 372.746 12.1048 371.76 12.6578C370.775 13.2108 369.693 13.4874 368.514 13.4874ZM368.514 11.2332C369.272 11.2332 369.939 11.0649 370.516 10.7283C371.093 10.3797 371.544 9.88676 371.869 9.24959C372.193 8.61243 372.355 7.87308 372.355 7.03153C372.355 6.18999 372.193 5.45665 371.869 4.83151C371.544 4.19434 371.093 3.70745 370.516 3.37083C369.939 3.03422 369.272 2.86591 368.514 2.86591C367.757 2.86591 367.084 3.03422 366.495 3.37083C365.918 3.70745 365.467 4.19434 365.142 4.83151C364.818 5.45665 364.655 6.18999 364.655 7.03153C364.655 7.87308 364.818 8.61243 365.142 9.24959C365.467 9.88676 365.918 10.3797 366.495 10.7283C367.084 11.0649 367.757 11.2332 368.514 11.2332Z" fill="white"/>
<path d="M347.855 7.04716C347.855 5.80889 348.132 4.70287 348.685 3.72909C349.25 2.74328 350.013 1.97988 350.975 1.43889C351.949 0.885881 353.037 0.609375 354.239 0.609375C355.646 0.609375 356.878 0.970036 357.936 1.69136C358.994 2.41268 359.733 3.4105 360.154 4.68483H357.251C356.962 4.08373 356.553 3.63291 356.024 3.33236C355.507 3.03181 354.906 2.88153 354.221 2.88153C353.488 2.88153 352.833 3.05585 352.256 3.40449C351.691 3.74111 351.246 4.22199 350.921 4.84713C350.609 5.47228 350.452 6.20562 350.452 7.04716C350.452 7.87668 350.609 8.61002 350.921 9.24719C351.246 9.87233 351.691 10.3592 352.256 10.7079C352.833 11.0445 353.488 11.2128 354.221 11.2128C354.906 11.2128 355.507 11.0625 356.024 10.762C356.553 10.4494 356.962 9.99255 357.251 9.39145H360.154C359.733 10.6778 358.994 11.6816 357.936 12.403C356.89 13.1123 355.658 13.4669 354.239 13.4669C353.037 13.4669 351.949 13.1964 350.975 12.6554C350.013 12.1024 349.25 11.339 348.685 10.3652C348.132 9.39145 347.855 8.28543 347.855 7.04716Z" fill="white"/>
<path d="M341.612 0.773438V2.81117H338.258V13.3605H335.733V2.81117H332.379V0.773438H341.612Z" fill="white"/>
<path d="M327.625 13.3605L324.848 8.4555H323.657V13.3605H321.133V0.773438H325.857C326.831 0.773438 327.661 0.947757 328.346 1.29639C329.031 1.63301 329.542 2.09586 329.879 2.68494C330.227 3.26199 330.402 3.91118 330.402 4.6325C330.402 5.46202 330.161 6.2134 329.68 6.88663C329.2 7.54784 328.484 8.00467 327.535 8.25714L330.546 13.3605H327.625ZM323.657 6.56203H325.767C326.453 6.56203 326.963 6.39974 327.3 6.07514C327.637 5.73853 327.805 5.27568 327.805 4.6866C327.805 4.10954 327.637 3.66473 327.3 3.35216C326.963 3.02756 326.453 2.86527 325.767 2.86527H323.657V6.56203Z" fill="white"/>
<path d="M312.452 13.4874C311.274 13.4874 310.192 13.2108 309.206 12.6578C308.22 12.1048 307.439 11.3414 306.862 10.3676C306.285 9.38184 305.996 8.2698 305.996 7.03153C305.996 5.80529 306.285 4.70528 306.862 3.73149C307.439 2.74569 308.22 1.97628 309.206 1.42327C310.192 0.870256 311.274 0.59375 312.452 0.59375C313.642 0.59375 314.724 0.870256 315.698 1.42327C316.684 1.97628 317.459 2.74569 318.024 3.73149C318.601 4.70528 318.89 5.80529 318.89 7.03153C318.89 8.2698 318.601 9.38184 318.024 10.3676C317.459 11.3414 316.684 12.1048 315.698 12.6578C314.712 13.2108 313.63 13.4874 312.452 13.4874ZM312.452 11.2332C313.209 11.2332 313.877 11.0649 314.454 10.7283C315.031 10.3797 315.481 9.88676 315.806 9.24959C316.131 8.61243 316.293 7.87308 316.293 7.03153C316.293 6.18999 316.131 5.45665 315.806 4.83151C315.481 4.19434 315.031 3.70745 314.454 3.37083C313.877 3.03422 313.209 2.86591 312.452 2.86591C311.695 2.86591 311.021 3.03422 310.432 3.37083C309.855 3.70745 309.404 4.19434 309.08 4.83151C308.755 5.45665 308.593 6.18999 308.593 7.03153C308.593 7.87308 308.755 8.61243 309.08 9.24959C309.404 9.88676 309.855 10.3797 310.432 10.7283C311.021 11.0649 311.695 11.2332 312.452 11.2332Z" fill="white"/>
<path d="M304.46 4.66857C304.46 5.3418 304.298 5.97296 303.973 6.56203C303.661 7.15111 303.162 7.62598 302.476 7.98664C301.803 8.3473 300.95 8.52763 299.916 8.52763H297.806V13.3605H295.281V0.773438H299.916C300.89 0.773438 301.719 0.941746 302.404 1.27836C303.09 1.61498 303.6 2.07783 303.937 2.6669C304.286 3.25598 304.46 3.9232 304.46 4.66857ZM299.808 6.4899C300.505 6.4899 301.022 6.33362 301.358 6.02104C301.695 5.69645 301.863 5.24562 301.863 4.66857C301.863 3.44232 301.178 2.8292 299.808 2.8292H297.806V6.4899H299.808Z" fill="white"/>
<path d="M288.276 13.4874C287.398 13.4874 286.605 13.3371 285.896 13.0365C285.198 12.736 284.645 12.3032 284.237 11.7382C283.828 11.1731 283.617 10.5059 283.605 9.73649H286.31C286.346 10.2534 286.527 10.6622 286.851 10.9627C287.188 11.2633 287.645 11.4136 288.222 11.4136C288.811 11.4136 289.274 11.2753 289.61 10.9988C289.947 10.7103 290.115 10.3376 290.115 9.88075C290.115 9.50807 290.001 9.20151 289.773 8.96107C289.544 8.72063 289.256 8.53429 288.907 8.40204C288.571 8.25778 288.102 8.10149 287.501 7.93318C286.683 7.69274 286.016 7.45832 285.499 7.2299C284.994 6.98946 284.555 6.63481 284.183 6.16595C283.822 5.68507 283.642 5.0479 283.642 4.25445C283.642 3.50909 283.828 2.8599 284.201 2.30689C284.573 1.75387 285.096 1.3331 285.769 1.04458C286.443 0.744026 287.212 0.59375 288.078 0.59375C289.376 0.59375 290.428 0.912333 291.233 1.5495C292.051 2.17464 292.502 3.05225 292.586 4.18232H289.809C289.785 3.74953 289.598 3.39488 289.25 3.11837C288.913 2.82984 288.462 2.68558 287.897 2.68558C287.404 2.68558 287.008 2.81181 286.707 3.06427C286.419 3.31673 286.274 3.68341 286.274 4.16428C286.274 4.5009 286.383 4.78342 286.599 5.01184C286.827 5.22823 287.104 5.40856 287.428 5.55283C287.765 5.68507 288.234 5.84136 288.835 6.02169C289.653 6.26213 290.32 6.50257 290.837 6.74301C291.354 6.98345 291.798 7.34411 292.171 7.82499C292.544 8.30587 292.73 8.93702 292.73 9.71845C292.73 10.3917 292.556 11.0168 292.207 11.5939C291.859 12.1709 291.348 12.6338 290.674 12.9824C290.001 13.319 289.202 13.4874 288.276 13.4874Z" fill="white"/>
<path d="M281.074 13.3551H278.55L272.833 4.71726V13.3551H270.309V0.75H272.833L278.55 9.40584V0.75H281.074V13.3551Z" fill="white"/>
<path d="M264.759 10.9567H259.746L258.916 13.3551H256.266L260.792 0.75H263.731L268.258 13.3551H265.589L264.759 10.9567ZM264.074 8.93699L262.253 3.67135L260.431 8.93699H264.074Z" fill="white"/>
<path d="M251.617 13.3605L248.84 8.4555H247.65V13.3605H245.125V0.773438H249.85C250.823 0.773438 251.653 0.947757 252.338 1.29639C253.023 1.63301 253.534 2.09586 253.871 2.68494C254.22 3.26199 254.394 3.91118 254.394 4.6325C254.394 5.46202 254.154 6.2134 253.673 6.88663C253.192 7.54784 252.476 8.00467 251.527 8.25714L254.538 13.3605H251.617ZM247.65 6.56203H249.759C250.445 6.56203 250.956 6.39974 251.292 6.07514C251.629 5.73853 251.797 5.27568 251.797 4.6866C251.797 4.10954 251.629 3.66473 251.292 3.35216C250.956 3.02756 250.445 2.86527 249.759 2.86527H247.65V6.56203Z" fill="white"/>
<path d="M242.92 0.773438V2.81117H239.566V13.3605H237.042V2.81117H233.688V0.773438H242.92Z" fill="white"/>
<path d="M220.814 0.773438C222.137 0.773438 223.297 1.03191 224.294 1.54886C225.304 2.0658 226.08 2.80516 226.621 3.76692C227.174 4.71666 227.45 5.82268 227.45 7.08499C227.45 8.3473 227.174 9.45333 226.621 10.4031C226.08 11.3408 225.304 12.0681 224.294 12.5851C223.297 13.102 222.137 13.3605 220.814 13.3605H216.414V0.773438H220.814ZM220.724 11.2146C222.046 11.2146 223.068 10.8539 223.79 10.1326C224.511 9.41125 224.872 8.39539 224.872 7.08499C224.872 5.77459 224.511 4.75272 223.79 4.01938C223.068 3.27401 222.046 2.90133 220.724 2.90133H218.939V11.2146H220.724Z" fill="white"/>
<path d="M210.861 10.9567H205.848L205.018 13.3551H202.367L206.893 0.75H209.833L214.359 13.3551H211.69L210.861 10.9567ZM210.175 8.93699L208.354 3.67135L206.533 8.93699H210.175Z" fill="white"/>
<path d="M194.468 13.4874C193.289 13.4874 192.207 13.2108 191.222 12.6578C190.236 12.1048 189.454 11.3414 188.877 10.3676C188.3 9.38184 188.012 8.2698 188.012 7.03153C188.012 5.80529 188.3 4.70528 188.877 3.73149C189.454 2.74569 190.236 1.97628 191.222 1.42327C192.207 0.870256 193.289 0.59375 194.468 0.59375C195.658 0.59375 196.74 0.870256 197.713 1.42327C198.699 1.97628 199.475 2.74569 200.04 3.73149C200.617 4.70528 200.905 5.80529 200.905 7.03153C200.905 8.2698 200.617 9.38184 200.04 10.3676C199.475 11.3414 198.699 12.1048 197.713 12.6578C196.728 13.2108 195.646 13.4874 194.468 13.4874ZM194.468 11.2332C195.225 11.2332 195.892 11.0649 196.469 10.7283C197.046 10.3797 197.497 9.88676 197.822 9.24959C198.146 8.61243 198.309 7.87308 198.309 7.03153C198.309 6.18999 198.146 5.45665 197.822 4.83151C197.497 4.19434 197.046 3.70745 196.469 3.37083C195.892 3.03422 195.225 2.86591 194.468 2.86591C193.71 2.86591 193.037 3.03422 192.448 3.37083C191.871 3.70745 191.42 4.19434 191.095 4.83151C190.771 5.45665 190.608 6.18999 190.608 7.03153C190.608 7.87308 190.771 8.61243 191.095 9.24959C191.42 9.88676 191.871 10.3797 192.448 10.7283C193.037 11.0649 193.71 11.2332 194.468 11.2332Z" fill="white"/>
<path d="M183.207 13.3605L180.43 8.4555H179.239V13.3605H176.715V0.773438H181.439C182.413 0.773438 183.243 0.947757 183.928 1.29639C184.613 1.63301 185.124 2.09586 185.461 2.68494C185.809 3.26199 185.984 3.91118 185.984 4.6325C185.984 5.46202 185.743 6.2134 185.262 6.88663C184.782 7.54784 184.066 8.00467 183.117 8.25714L186.128 13.3605H183.207ZM179.239 6.56203H181.349C182.035 6.56203 182.546 6.39974 182.882 6.07514C183.219 5.73853 183.387 5.27568 183.387 4.6866C183.387 4.10954 183.219 3.66473 182.882 3.35216C182.546 3.02756 182.035 2.86527 181.349 2.86527H179.239V6.56203Z" fill="white"/>
<path d="M164.618 2.80576V5.96154H168.856V7.9632H164.618V11.2993H169.397V13.3551H162.094V0.75H169.397V2.80576H164.618Z" fill="white"/>
<path d="M159.893 0.773438V2.81117H156.539V13.3605H154.014V2.81117H150.66V0.773438H159.893Z" fill="white"/>
<path d="M145.775 10.9567H140.762L139.932 13.3551H137.281L141.808 0.75H144.747L149.273 13.3551H146.604L145.775 10.9567ZM145.09 8.93699L143.268 3.67135L141.447 8.93699H145.09Z" fill="white"/>
<path d="M135.858 0.773438V2.81117H132.504V13.3605H129.979V2.81117H126.625V0.773438H135.858Z" fill="white"/>
<path d="M120.288 13.4874C119.41 13.4874 118.617 13.3371 117.907 13.0365C117.21 12.736 116.657 12.3032 116.248 11.7382C115.84 11.1731 115.629 10.5059 115.617 9.73649H118.322C118.358 10.2534 118.539 10.6622 118.863 10.9627C119.2 11.2633 119.657 11.4136 120.234 11.4136C120.823 11.4136 121.286 11.2753 121.622 10.9988C121.959 10.7103 122.127 10.3376 122.127 9.88075C122.127 9.50807 122.013 9.20151 121.784 8.96107C121.556 8.72063 121.268 8.53429 120.919 8.40204C120.582 8.25778 120.113 8.10149 119.512 7.93318C118.695 7.69274 118.028 7.45832 117.511 7.2299C117.006 6.98946 116.567 6.63481 116.194 6.16595C115.834 5.68507 115.653 5.0479 115.653 4.25445C115.653 3.50909 115.84 2.8599 116.212 2.30689C116.585 1.75387 117.108 1.3331 117.781 1.04458C118.454 0.744026 119.224 0.59375 120.089 0.59375C121.388 0.59375 122.44 0.912333 123.245 1.5495C124.063 2.17464 124.513 3.05225 124.598 4.18232H121.821C121.796 3.74953 121.61 3.39488 121.262 3.11837C120.925 2.82984 120.474 2.68558 119.909 2.68558C119.416 2.68558 119.019 2.81181 118.719 3.06427C118.43 3.31673 118.286 3.68341 118.286 4.16428C118.286 4.5009 118.394 4.78342 118.611 5.01184C118.839 5.22823 119.116 5.40856 119.44 5.55283C119.777 5.68507 120.246 5.84136 120.847 6.02169C121.664 6.26213 122.331 6.50257 122.848 6.74301C123.365 6.98345 123.81 7.34411 124.183 7.82499C124.556 8.30587 124.742 8.93702 124.742 9.71845C124.742 10.3917 124.568 11.0168 124.219 11.5939C123.87 12.1709 123.359 12.6338 122.686 12.9824C122.013 13.319 121.213 13.4874 120.288 13.4874Z" fill="white"/>
<path d="M105.732 10.9567H100.719L99.8891 13.3551H97.2383L101.765 0.75H104.704L109.23 13.3551H106.561L105.732 10.9567ZM105.047 8.93699L103.225 3.67135L101.404 8.93699H105.047Z" fill="white"/>
<path d="M95.1602 13.3551H92.6356L86.9192 4.71726V13.3551H84.3945V0.75H86.9192L92.6356 9.40584V0.75H95.1602V13.3551Z" fill="white"/>
<path d="M78.8451 10.9567H73.8319L73.0024 13.3551H70.3516L74.8778 0.75H77.8172L82.3435 13.3551H79.6746L78.8451 10.9567ZM78.1599 8.93699L76.3385 3.67135L74.5172 8.93699H78.1599Z" fill="white"/>
<path d="M65.6819 4.5586C65.3933 4.02964 64.9966 3.6269 64.4917 3.35039C63.9868 3.07389 63.3977 2.93563 62.7244 2.93563C61.9791 2.93563 61.3179 3.10394 60.7408 3.44056C60.1638 3.77717 59.7129 4.25805 59.3883 4.8832C59.0637 5.50834 58.9014 6.22966 58.9014 7.04716C58.9014 7.8887 59.0637 8.62204 59.3883 9.24719C59.725 9.87233 60.1878 10.3532 60.7769 10.6898C61.366 11.0264 62.0512 11.1948 62.8326 11.1948C63.7944 11.1948 64.5818 10.9423 65.195 10.4374C65.8081 9.92042 66.2108 9.20511 66.4032 8.29144H62.0753V6.36191H68.8917V8.56193C68.7234 9.43954 68.3628 10.251 67.8097 10.9964C67.2567 11.7418 66.5414 12.3429 65.6638 12.7997C64.7982 13.2445 63.8245 13.4669 62.7425 13.4669C61.5282 13.4669 60.4282 13.1964 59.4424 12.6554C58.4687 12.1024 57.6992 11.339 57.1342 10.3652C56.5812 9.39145 56.3047 8.28543 56.3047 7.04716C56.3047 5.80889 56.5812 4.70287 57.1342 3.72909C57.6992 2.74328 58.4687 1.97988 59.4424 1.43889C60.4282 0.885881 61.5222 0.609375 62.7244 0.609375C64.143 0.609375 65.3753 0.958013 66.4212 1.65529C67.4671 2.34054 68.1884 3.30832 68.5852 4.5586H65.6819Z" fill="white"/>
<path d="M54.0665 13.3551H51.5419L45.8254 4.71726V13.3551H43.3008V0.75H45.8254L51.5419 9.40584V0.75H54.0665V13.3551Z" fill="white"/>
<path d="M37.7514 10.9567H32.7382L31.9087 13.3551H29.2578L33.7841 0.75H36.7235L41.2498 13.3551H38.5809L37.7514 10.9567ZM37.0661 8.93699L35.2448 3.67135L33.4234 8.93699H37.0661Z" fill="white"/>
<path d="M23.9192 11.3588H28.0667V13.3605H21.3945V0.773438H23.9192V11.3588Z" fill="white"/>
<path d="M13.9582 2.80576V5.96154H18.196V7.9632H13.9582V11.2993H18.737V13.3551H11.4336V0.75H18.737V2.80576H13.9582Z" fill="white"/>
<path d="M9.2329 0.773438V2.81117H5.87876V13.3605H3.35414V2.81117H0V0.773438H9.2329Z" fill="white"/>
</svg>
