<svg width="482" height="14" viewBox="0 0 482 14" fill="none" xmlns="http://www.w3.org/2000/svg">
<path d="M481.57 13.357H479.046L473.329 4.71918V13.357H470.805V0.751923H473.329L479.046 9.40777V0.751923H481.57V13.357Z" fill="white"/>
<path d="M462.128 13.4893C460.95 13.4893 459.868 13.2128 458.882 12.6598C457.896 12.1067 457.114 11.3433 456.537 10.3696C455.96 9.38376 455.672 8.27172 455.672 7.03346C455.672 5.80721 455.96 4.7072 456.537 3.73342C457.114 2.74761 457.896 1.9782 458.882 1.42519C459.868 0.872179 460.95 0.595673 462.128 0.595673C463.318 0.595673 464.4 0.872179 465.374 1.42519C466.359 1.9782 467.135 2.74761 467.7 3.73342C468.277 4.7072 468.565 5.80721 468.565 7.03346C468.565 8.27172 468.277 9.38376 467.7 10.3696C467.135 11.3433 466.359 12.1067 465.374 12.6598C464.388 13.2128 463.306 13.4893 462.128 13.4893ZM462.128 11.2351C462.885 11.2351 463.552 11.0668 464.129 10.7302C464.706 10.3816 465.157 9.88868 465.482 9.25152C465.806 8.61435 465.969 7.875 465.969 7.03346C465.969 6.19192 465.806 5.45857 465.482 4.83343C465.157 4.19626 464.706 3.70937 464.129 3.37276C463.552 3.03614 462.885 2.86783 462.128 2.86783C461.37 2.86783 460.697 3.03614 460.108 3.37276C459.531 3.70937 459.08 4.19626 458.756 4.83343C458.431 5.45857 458.269 6.19192 458.269 7.03346C458.269 7.875 458.431 8.61435 458.756 9.25152C459.08 9.88868 459.531 10.3816 460.108 10.7302C460.697 11.0668 461.37 11.2351 462.128 11.2351Z" fill="white"/>
<path d="M453.431 0.77536V13.3624H450.906V0.77536H453.431Z" fill="white"/>
<path d="M448.704 0.77536V2.81309H445.349V13.3624H442.825V2.81309H439.471V0.77536H448.704Z" fill="white"/>
<path d="M434.587 10.9586H429.574L428.745 13.357H426.094L430.62 0.751923H433.559L438.086 13.357H435.417L434.587 10.9586ZM433.902 8.93891L432.081 3.67327L430.259 8.93891H433.902Z" fill="white"/>
<path d="M421.449 13.3624L418.672 8.45742H417.482V13.3624H414.957V0.77536H419.682C420.655 0.77536 421.485 0.949679 422.17 1.29832C422.855 1.63493 423.366 2.09778 423.703 2.68686C424.052 3.26392 424.226 3.9131 424.226 4.63442C424.226 5.46394 423.986 6.21532 423.505 6.88855C423.024 7.54976 422.309 8.0066 421.359 8.25906L424.37 13.3624H421.449ZM417.482 6.56396H419.591C420.277 6.56396 420.788 6.40166 421.124 6.07706C421.461 5.74045 421.629 5.2776 421.629 4.68852C421.629 4.11147 421.461 3.66665 421.124 3.35408C420.788 3.02949 420.277 2.86719 419.591 2.86719H417.482V6.56396Z" fill="white"/>
<path d="M406.278 13.4893C405.1 13.4893 404.018 13.2128 403.032 12.6598C402.046 12.1067 401.265 11.3433 400.688 10.3696C400.111 9.38376 399.822 8.27172 399.822 7.03346C399.822 5.80721 400.111 4.7072 400.688 3.73342C401.265 2.74761 402.046 1.9782 403.032 1.42519C404.018 0.872179 405.1 0.595673 406.278 0.595673C407.468 0.595673 408.55 0.872179 409.524 1.42519C410.51 1.9782 411.285 2.74761 411.85 3.73342C412.427 4.7072 412.716 5.80721 412.716 7.03346C412.716 8.27172 412.427 9.38376 411.85 10.3696C411.285 11.3433 410.51 12.1067 409.524 12.6598C408.538 13.2128 407.456 13.4893 406.278 13.4893ZM406.278 11.2351C407.035 11.2351 407.703 11.0668 408.28 10.7302C408.857 10.3816 409.308 9.88868 409.632 9.25152C409.957 8.61435 410.119 7.875 410.119 7.03346C410.119 6.19192 409.957 5.45857 409.632 4.83343C409.308 4.19626 408.857 3.70937 408.28 3.37276C407.703 3.03614 407.035 2.86783 406.278 2.86783C405.521 2.86783 404.847 3.03614 404.258 3.37276C403.681 3.70937 403.231 4.19626 402.906 4.83343C402.581 5.45857 402.419 6.19192 402.419 7.03346C402.419 7.875 402.581 8.61435 402.906 9.25152C403.231 9.88868 403.681 10.3816 404.258 10.7302C404.847 11.0668 405.521 11.2351 406.278 11.2351Z" fill="white"/>
<path d="M398.284 4.67049C398.284 5.34372 398.122 5.97488 397.797 6.56396C397.485 7.15303 396.986 7.6279 396.301 7.98856C395.627 8.34922 394.774 8.52956 393.74 8.52956H391.63V13.3624H389.105V0.77536H393.74C394.714 0.77536 395.543 0.943669 396.228 1.28029C396.914 1.6169 397.425 2.07975 397.761 2.66883C398.11 3.2579 398.284 3.92513 398.284 4.67049ZM393.632 6.49182C394.329 6.49182 394.846 6.33554 395.183 6.02297C395.519 5.69837 395.688 5.24755 395.688 4.67049C395.688 3.44425 395.002 2.83112 393.632 2.83112H391.63V6.49182H393.632Z" fill="white"/>
<path d="M383.683 13.3624L380.906 8.45742H379.716V13.3624H377.191V0.77536H381.916C382.89 0.77536 383.719 0.949679 384.405 1.29832C385.09 1.63493 385.601 2.09778 385.937 2.68686C386.286 3.26392 386.46 3.9131 386.46 4.63442C386.46 5.46394 386.22 6.21532 385.739 6.88855C385.258 7.54976 384.543 8.0066 383.593 8.25906L386.605 13.3624H383.683ZM379.716 6.56396H381.826C382.511 6.56396 383.022 6.40166 383.359 6.07706C383.695 5.74045 383.864 5.2776 383.864 4.68852C383.864 4.11147 383.695 3.66665 383.359 3.35408C383.022 3.02949 382.511 2.86719 381.826 2.86719H379.716V6.56396Z" fill="white"/>
<path d="M368.514 13.4893C367.336 13.4893 366.254 13.2128 365.268 12.6598C364.283 12.1067 363.501 11.3433 362.924 10.3696C362.347 9.38376 362.059 8.27172 362.059 7.03346C362.059 5.80721 362.347 4.7072 362.924 3.73342C363.501 2.74761 364.283 1.9782 365.268 1.42519C366.254 0.872179 367.336 0.595673 368.514 0.595673C369.705 0.595673 370.787 0.872179 371.76 1.42519C372.746 1.9782 373.522 2.74761 374.087 3.73342C374.664 4.7072 374.952 5.80721 374.952 7.03346C374.952 8.27172 374.664 9.38376 374.087 10.3696C373.522 11.3433 372.746 12.1067 371.76 12.6598C370.775 13.2128 369.693 13.4893 368.514 13.4893ZM368.514 11.2351C369.272 11.2351 369.939 11.0668 370.516 10.7302C371.093 10.3816 371.544 9.88868 371.869 9.25152C372.193 8.61435 372.355 7.875 372.355 7.03346C372.355 6.19192 372.193 5.45857 371.869 4.83343C371.544 4.19626 371.093 3.70937 370.516 3.37276C369.939 3.03614 369.272 2.86783 368.514 2.86783C367.757 2.86783 367.084 3.03614 366.495 3.37276C365.918 3.70937 365.467 4.19626 365.142 4.83343C364.818 5.45857 364.655 6.19192 364.655 7.03346C364.655 7.875 364.818 8.61435 365.142 9.25152C365.467 9.88868 365.918 10.3816 366.495 10.7302C367.084 11.0668 367.757 11.2351 368.514 11.2351Z" fill="white"/>
<path d="M347.855 7.04908C347.855 5.81081 348.132 4.70479 348.685 3.73101C349.25 2.7452 350.013 1.98181 350.975 1.44082C351.949 0.887804 353.037 0.611298 354.239 0.611298C355.646 0.611298 356.878 0.971958 357.936 1.69328C358.994 2.4146 359.733 3.41243 360.154 4.68676H357.251C356.962 4.08566 356.553 3.63483 356.024 3.33428C355.507 3.03373 354.906 2.88346 354.221 2.88346C353.488 2.88346 352.833 3.05778 352.256 3.40641C351.691 3.74303 351.246 4.22391 350.921 4.84905C350.609 5.4742 350.452 6.20754 350.452 7.04908C350.452 7.8786 350.609 8.61194 350.921 9.24911C351.246 9.87425 351.691 10.3611 352.256 10.7098C352.833 11.0464 353.488 11.2147 354.221 11.2147C354.906 11.2147 355.507 11.0644 356.024 10.7639C356.553 10.4513 356.962 9.99447 357.251 9.39337H360.154C359.733 10.6797 358.994 11.6836 357.936 12.4049C356.89 13.1142 355.658 13.4688 354.239 13.4688C353.037 13.4688 351.949 13.1983 350.975 12.6573C350.013 12.1043 349.25 11.3409 348.685 10.3672C348.132 9.39337 347.855 8.28735 347.855 7.04908Z" fill="white"/>
<path d="M341.612 0.77536V2.81309H338.258V13.3624H335.733V2.81309H332.379V0.77536H341.612Z" fill="white"/>
<path d="M327.625 13.3624L324.848 8.45742H323.657V13.3624H321.133V0.77536H325.857C326.831 0.77536 327.661 0.949679 328.346 1.29832C329.031 1.63493 329.542 2.09778 329.879 2.68686C330.227 3.26392 330.402 3.9131 330.402 4.63442C330.402 5.46394 330.161 6.21532 329.68 6.88855C329.2 7.54976 328.484 8.0066 327.535 8.25906L330.546 13.3624H327.625ZM323.657 6.56396H325.767C326.453 6.56396 326.963 6.40166 327.3 6.07706C327.637 5.74045 327.805 5.2776 327.805 4.68852C327.805 4.11147 327.637 3.66665 327.3 3.35408C326.963 3.02949 326.453 2.86719 325.767 2.86719H323.657V6.56396Z" fill="white"/>
<path d="M312.452 13.4893C311.274 13.4893 310.192 13.2128 309.206 12.6598C308.22 12.1067 307.439 11.3433 306.862 10.3696C306.285 9.38376 305.996 8.27172 305.996 7.03346C305.996 5.80721 306.285 4.7072 306.862 3.73342C307.439 2.74761 308.22 1.9782 309.206 1.42519C310.192 0.872179 311.274 0.595673 312.452 0.595673C313.642 0.595673 314.724 0.872179 315.698 1.42519C316.684 1.9782 317.459 2.74761 318.024 3.73342C318.601 4.7072 318.89 5.80721 318.89 7.03346C318.89 8.27172 318.601 9.38376 318.024 10.3696C317.459 11.3433 316.684 12.1067 315.698 12.6598C314.712 13.2128 313.63 13.4893 312.452 13.4893ZM312.452 11.2351C313.209 11.2351 313.877 11.0668 314.454 10.7302C315.031 10.3816 315.481 9.88868 315.806 9.25152C316.131 8.61435 316.293 7.875 316.293 7.03346C316.293 6.19192 316.131 5.45857 315.806 4.83343C315.481 4.19626 315.031 3.70937 314.454 3.37276C313.877 3.03614 313.209 2.86783 312.452 2.86783C311.695 2.86783 311.021 3.03614 310.432 3.37276C309.855 3.70937 309.404 4.19626 309.08 4.83343C308.755 5.45857 308.593 6.19192 308.593 7.03346C308.593 7.875 308.755 8.61435 309.08 9.25152C309.404 9.88868 309.855 10.3816 310.432 10.7302C311.021 11.0668 311.695 11.2351 312.452 11.2351Z" fill="white"/>
<path d="M304.458 4.67049C304.458 5.34372 304.296 5.97488 303.971 6.56396C303.659 7.15303 303.16 7.6279 302.474 7.98856C301.801 8.34922 300.948 8.52956 299.914 8.52956H297.804V13.3624H295.279V0.77536H299.914C300.888 0.77536 301.717 0.943669 302.402 1.28029C303.088 1.6169 303.599 2.07975 303.935 2.66883C304.284 3.2579 304.458 3.92513 304.458 4.67049ZM299.806 6.49182C300.503 6.49182 301.02 6.33554 301.356 6.02297C301.693 5.69837 301.861 5.24755 301.861 4.67049C301.861 3.44425 301.176 2.83112 299.806 2.83112H297.804V6.49182H299.806Z" fill="white"/>
<path d="M288.276 13.4893C287.398 13.4893 286.605 13.339 285.896 13.0385C285.198 12.7379 284.645 12.3051 284.237 11.7401C283.828 11.175 283.617 10.5078 283.605 9.73841H286.31C286.346 10.2554 286.527 10.6641 286.851 10.9647C287.188 11.2652 287.645 11.4155 288.222 11.4155C288.811 11.4155 289.274 11.2772 289.61 11.0007C289.947 10.7122 290.115 10.3395 290.115 9.88267C290.115 9.50999 290.001 9.20343 289.773 8.96299C289.544 8.72255 289.256 8.53621 288.907 8.40397C288.571 8.2597 288.102 8.10342 287.501 7.93511C286.683 7.69467 286.016 7.46024 285.499 7.23182C284.994 6.99138 284.555 6.63673 284.183 6.16787C283.822 5.68699 283.642 5.04983 283.642 4.25637C283.642 3.51101 283.828 2.86182 284.201 2.30881C284.573 1.7558 285.096 1.33503 285.769 1.0465C286.443 0.745948 287.212 0.595673 288.078 0.595673C289.376 0.595673 290.428 0.914256 291.233 1.55142C292.051 2.17657 292.502 3.05417 292.586 4.18424H289.809C289.785 3.75145 289.598 3.3968 289.25 3.12029C288.913 2.83177 288.462 2.6875 287.897 2.6875C287.404 2.6875 287.008 2.81373 286.707 3.0662C286.419 3.31866 286.274 3.68533 286.274 4.16621C286.274 4.50282 286.383 4.78534 286.599 5.01376C286.827 5.23016 287.104 5.41049 287.428 5.55475C287.765 5.68699 288.234 5.84328 288.835 6.02361C289.653 6.26405 290.32 6.50449 290.837 6.74493C291.354 6.98537 291.798 7.34603 292.171 7.82691C292.544 8.30779 292.73 8.93895 292.73 9.72038C292.73 10.3936 292.556 11.0188 292.207 11.5958C291.859 12.1729 291.348 12.6357 290.674 12.9844C290.001 13.321 289.202 13.4893 288.276 13.4893Z" fill="white"/>
<path d="M281.074 13.357H278.55L272.833 4.71918V13.357H270.309V0.751923H272.833L278.55 9.40777V0.751923H281.074V13.357Z" fill="white"/>
<path d="M264.757 10.9586H259.744L258.915 13.357H256.264L260.79 0.751923H263.729L268.256 13.357H265.587L264.757 10.9586ZM264.072 8.93891L262.251 3.67327L260.429 8.93891H264.072Z" fill="white"/>
<path d="M251.619 13.3624L248.842 8.45742H247.652V13.3624H245.127V0.77536H249.852C250.825 0.77536 251.655 0.949679 252.34 1.29832C253.025 1.63493 253.536 2.09778 253.873 2.68686C254.222 3.26392 254.396 3.9131 254.396 4.63442C254.396 5.46394 254.155 6.21532 253.675 6.88855C253.194 7.54976 252.478 8.0066 251.529 8.25906L254.54 13.3624H251.619ZM247.652 6.56396H249.761C250.447 6.56396 250.958 6.40166 251.294 6.07706C251.631 5.74045 251.799 5.2776 251.799 4.68852C251.799 4.11147 251.631 3.66665 251.294 3.35408C250.958 3.02949 250.447 2.86719 249.761 2.86719H247.652V6.56396Z" fill="white"/>
<path d="M242.922 0.77536V2.81309H239.568V13.3624H237.044V2.81309H233.689V0.77536H242.922Z" fill="white"/>
<path d="M220.814 0.77536C222.137 0.77536 223.297 1.03383 224.294 1.55078C225.304 2.06773 226.08 2.80708 226.621 3.76884C227.174 4.71858 227.45 5.8246 227.45 7.08691C227.45 8.34922 227.174 9.45525 226.621 10.405C226.08 11.3427 225.304 12.07 224.294 12.587C223.297 13.1039 222.137 13.3624 220.814 13.3624H216.414V0.77536H220.814ZM220.724 11.2165C222.046 11.2165 223.068 10.8558 223.79 10.1345C224.511 9.41317 224.872 8.39731 224.872 7.08691C224.872 5.77651 224.511 4.75464 223.79 4.0213C223.068 3.27594 222.046 2.90325 220.724 2.90325H218.939V11.2165H220.724Z" fill="white"/>
<path d="M210.863 10.9586H205.85L205.02 13.357H202.369L206.895 0.751923H209.835L214.361 13.357H211.692L210.863 10.9586ZM210.177 8.93891L208.356 3.67327L206.535 8.93891H210.177Z" fill="white"/>
<path d="M194.468 13.4893C193.289 13.4893 192.207 13.2128 191.222 12.6598C190.236 12.1067 189.454 11.3433 188.877 10.3696C188.3 9.38376 188.012 8.27172 188.012 7.03346C188.012 5.80721 188.3 4.7072 188.877 3.73342C189.454 2.74761 190.236 1.9782 191.222 1.42519C192.207 0.872179 193.289 0.595673 194.468 0.595673C195.658 0.595673 196.74 0.872179 197.713 1.42519C198.699 1.9782 199.475 2.74761 200.04 3.73342C200.617 4.7072 200.905 5.80721 200.905 7.03346C200.905 8.27172 200.617 9.38376 200.04 10.3696C199.475 11.3433 198.699 12.1067 197.713 12.6598C196.728 13.2128 195.646 13.4893 194.468 13.4893ZM194.468 11.2351C195.225 11.2351 195.892 11.0668 196.469 10.7302C197.046 10.3816 197.497 9.88868 197.822 9.25152C198.146 8.61435 198.309 7.875 198.309 7.03346C198.309 6.19192 198.146 5.45857 197.822 4.83343C197.497 4.19626 197.046 3.70937 196.469 3.37276C195.892 3.03614 195.225 2.86783 194.468 2.86783C193.71 2.86783 193.037 3.03614 192.448 3.37276C191.871 3.70937 191.42 4.19626 191.095 4.83343C190.771 5.45857 190.608 6.19192 190.608 7.03346C190.608 7.875 190.771 8.61435 191.095 9.25152C191.42 9.88868 191.871 10.3816 192.448 10.7302C193.037 11.0668 193.71 11.2351 194.468 11.2351Z" fill="white"/>
<path d="M183.207 13.3624L180.43 8.45742H179.239V13.3624H176.715V0.77536H181.439C182.413 0.77536 183.243 0.949679 183.928 1.29832C184.613 1.63493 185.124 2.09778 185.461 2.68686C185.809 3.26392 185.984 3.9131 185.984 4.63442C185.984 5.46394 185.743 6.21532 185.262 6.88855C184.782 7.54976 184.066 8.0066 183.117 8.25906L186.128 13.3624H183.207ZM179.239 6.56396H181.349C182.035 6.56396 182.546 6.40166 182.882 6.07706C183.219 5.74045 183.387 5.2776 183.387 4.68852C183.387 4.11147 183.219 3.66665 182.882 3.35408C182.546 3.02949 182.035 2.86719 181.349 2.86719H179.239V6.56396Z" fill="white"/>
<path d="M164.62 2.80769V5.96346H168.858V7.96513H164.62V11.3012H169.399V13.357H162.096V0.751923H169.399V2.80769H164.62Z" fill="white"/>
<path d="M159.893 0.77536V2.81309H156.539V13.3624H154.014V2.81309H150.66V0.77536H159.893Z" fill="white"/>
<path d="M145.777 10.9586H140.764L139.934 13.357H137.283L141.809 0.751923H144.749L149.275 13.357H146.606L145.777 10.9586ZM145.092 8.93891L143.27 3.67327L141.449 8.93891H145.092Z" fill="white"/>
<path d="M135.856 0.77536V2.81309H132.502V13.3624H129.977V2.81309H126.623V0.77536H135.856Z" fill="white"/>
<path d="M120.288 13.4893C119.41 13.4893 118.617 13.339 117.907 13.0385C117.21 12.7379 116.657 12.3051 116.248 11.7401C115.84 11.175 115.629 10.5078 115.617 9.73841H118.322C118.358 10.2554 118.539 10.6641 118.863 10.9647C119.2 11.2652 119.657 11.4155 120.234 11.4155C120.823 11.4155 121.286 11.2772 121.622 11.0007C121.959 10.7122 122.127 10.3395 122.127 9.88267C122.127 9.50999 122.013 9.20343 121.784 8.96299C121.556 8.72255 121.268 8.53621 120.919 8.40397C120.582 8.2597 120.113 8.10342 119.512 7.93511C118.695 7.69467 118.028 7.46024 117.511 7.23182C117.006 6.99138 116.567 6.63673 116.194 6.16787C115.834 5.68699 115.653 5.04983 115.653 4.25637C115.653 3.51101 115.84 2.86182 116.212 2.30881C116.585 1.7558 117.108 1.33503 117.781 1.0465C118.454 0.745948 119.224 0.595673 120.089 0.595673C121.388 0.595673 122.44 0.914256 123.245 1.55142C124.063 2.17657 124.513 3.05417 124.598 4.18424H121.821C121.796 3.75145 121.61 3.3968 121.262 3.12029C120.925 2.83177 120.474 2.6875 119.909 2.6875C119.416 2.6875 119.019 2.81373 118.719 3.0662C118.43 3.31866 118.286 3.68533 118.286 4.16621C118.286 4.50282 118.394 4.78534 118.611 5.01376C118.839 5.23016 119.116 5.41049 119.44 5.55475C119.777 5.68699 120.246 5.84328 120.847 6.02361C121.664 6.26405 122.331 6.50449 122.848 6.74493C123.365 6.98537 123.81 7.34603 124.183 7.82691C124.556 8.30779 124.742 8.93895 124.742 9.72038C124.742 10.3936 124.568 11.0188 124.219 11.5958C123.87 12.1729 123.359 12.6357 122.686 12.9844C122.013 13.321 121.213 13.4893 120.288 13.4893Z" fill="white"/>
<path d="M105.732 10.9586H100.719L99.8891 13.357H97.2383L101.765 0.751923H104.704L109.23 13.357H106.561L105.732 10.9586ZM105.047 8.93891L103.225 3.67327L101.404 8.93891H105.047Z" fill="white"/>
<path d="M95.1602 13.357H92.6356L86.9192 4.71918V13.357H84.3945V0.751923H86.9192L92.6356 9.40777V0.751923H95.1602V13.357Z" fill="white"/>
<path d="M78.8432 10.9586H73.83L73.0005 13.357H70.3496L74.8759 0.751923H77.8153L82.3416 13.357H79.6727L78.8432 10.9586ZM78.1579 8.93891L76.3366 3.67327L74.5152 8.93891H78.1579Z" fill="white"/>
<path d="M65.6838 4.56053C65.3953 4.03156 64.9986 3.62882 64.4936 3.35232C63.9887 3.07581 63.3996 2.93756 62.7264 2.93756C61.981 2.93756 61.3198 3.10586 60.7428 3.44248C60.1657 3.7791 59.7149 4.25998 59.3903 4.88512C59.0657 5.51026 58.9034 6.23158 58.9034 7.04908C58.9034 7.89062 59.0657 8.62397 59.3903 9.24911C59.7269 9.87425 60.1898 10.3551 60.7788 10.6917C61.3679 11.0284 62.0532 11.1967 62.8346 11.1967C63.7964 11.1967 64.5838 10.9442 65.1969 10.4393C65.81 9.92234 66.2128 9.20703 66.4051 8.29336H62.0772V6.36383H68.8937V8.56385C68.7254 9.44146 68.3647 10.2529 67.8117 10.9983C67.2587 11.7437 66.5434 12.3448 65.6658 12.8016C64.8002 13.2464 63.8264 13.4688 62.7444 13.4688C61.5302 13.4688 60.4302 13.1983 59.4444 12.6573C58.4706 12.1043 57.7012 11.3409 57.1362 10.3672C56.5831 9.39337 56.3066 8.28735 56.3066 7.04908C56.3066 5.81081 56.5831 4.70479 57.1362 3.73101C57.7012 2.7452 58.4706 1.98181 59.4444 1.44082C60.4302 0.887804 61.5242 0.611298 62.7264 0.611298C64.145 0.611298 65.3772 0.959936 66.4232 1.65721C67.4691 2.34247 68.1904 3.31024 68.5871 4.56053H65.6838Z" fill="white"/>
<path d="M54.0665 13.357H51.5419L45.8254 4.71918V13.357H43.3008V0.751923H45.8254L51.5419 9.40777V0.751923H54.0665V13.357Z" fill="white"/>
<path d="M37.7514 10.9586H32.7382L31.9087 13.357H29.2578L33.7841 0.751923H36.7235L41.2498 13.357H38.5809L37.7514 10.9586ZM37.0661 8.93891L35.2448 3.67327L33.4234 8.93891H37.0661Z" fill="white"/>
<path d="M23.9192 11.3607H28.0667V13.3624H21.3945V0.77536H23.9192V11.3607Z" fill="white"/>
<path d="M13.9582 2.80769V5.96346H18.196V7.96513H13.9582V11.3012H18.737V13.357H11.4336V0.751923H18.737V2.80769H13.9582Z" fill="white"/>
<path d="M9.2329 0.77536V2.81309H5.87876V13.3624H3.35414V2.81309H0V0.77536H9.2329Z" fill="white"/>
</svg>
