<svg width="426" height="13" viewBox="0 0 426 13" fill="none" xmlns="http://www.w3.org/2000/svg">
<path d="M425.94 12.0558H423.739L418.756 4.33794V12.0558H416.555V0.793213H418.756L423.739 8.52717V0.793213H425.94V12.0558Z" fill="#1E57AC"/>
<path d="M409.053 12.0558C408.024 12.0558 407.079 11.8143 406.218 11.3312C405.357 10.8481 404.674 10.1813 404.17 9.33071C403.666 8.46961 403.414 7.49825 403.414 6.41662C403.414 5.3455 403.666 4.38463 404.17 3.53403C404.674 2.67293 405.357 2.00085 406.218 1.5178C407.079 1.03474 408.024 0.793213 409.053 0.793213C410.093 0.793213 411.038 1.03474 411.889 1.5178C412.75 2.00085 413.427 2.67293 413.921 3.53403C414.425 4.38463 414.677 5.3455 414.677 6.41662C414.677 7.49825 414.425 8.46961 413.921 9.33071C413.427 10.1813 412.75 10.8481 411.889 11.3312C411.027 11.8143 410.082 12.0558 409.053 12.0558ZM409.053 10.0868C409.715 10.0868 410.298 9.93979 410.802 9.64575C411.306 9.34122 411.7 8.91066 411.983 8.3541C412.267 7.79753 412.408 7.15171 412.408 6.41662C412.408 5.68154 412.267 5.04096 411.983 4.4949C411.7 3.93833 411.306 3.51303 410.802 3.219C410.298 2.92496 409.715 2.77795 409.053 2.77795C408.392 2.77795 407.804 2.92496 407.289 3.219C406.785 3.51303 406.391 3.93833 406.108 4.4949C405.824 5.04096 405.682 5.68154 405.682 6.41662C405.682 7.15171 405.824 7.79753 406.108 8.3541C406.391 8.91066 406.785 9.34122 407.289 9.64575C407.804 9.93979 408.392 10.0868 409.053 10.0868Z" fill="#1E57AC"/>
<path d="M400.6 0.793213V12.0558H398.723V0.793213H400.6Z" fill="#1E57AC"/>
<path d="M396.845 0.793213V2.61652H393.777V12.0558H391.467V2.61652H388.398V0.793213H396.845Z" fill="#1E57AC"/>
<path d="M384.449 9.91283H380.133L379.419 12.0558H377.137L381.033 0.793213H383.564L387.461 12.0558H385.163L384.449 9.91283ZM383.859 8.10824L382.291 3.40342L380.723 8.10824H383.859Z" fill="#1E57AC"/>
<path d="M372.638 12.0558L370.146 7.66693H369.078V12.0558H366.812V0.793213H371.052C371.926 0.793213 372.67 0.949189 373.285 1.26114C373.9 1.56234 374.359 1.97648 374.661 2.50357C374.974 3.01991 375.13 3.60079 375.13 4.24621C375.13 4.98844 374.914 5.66075 374.483 6.26314C374.051 6.85478 373.409 7.26354 372.557 7.48944L375.259 12.0558H372.638ZM369.078 5.9727H370.971C371.586 5.9727 372.045 5.82748 372.347 5.53705C372.649 5.23585 372.8 4.82171 372.8 4.29461C372.8 3.77828 372.649 3.38027 372.347 3.10059C372.045 2.81015 371.586 2.66493 370.971 2.66493H369.078V5.9727Z" fill="#1E57AC"/>
<path d="M359.311 12.0558C358.282 12.0558 357.337 11.8143 356.476 11.3312C355.615 10.8481 354.932 10.1813 354.428 9.33071C353.924 8.46961 353.672 7.49825 353.672 6.41662C353.672 5.3455 353.924 4.38463 354.428 3.53403C354.932 2.67293 355.615 2.00085 356.476 1.5178C357.337 1.03474 358.282 0.793213 359.311 0.793213C360.351 0.793213 361.296 1.03474 362.146 1.5178C363.007 2.00085 363.685 2.67293 364.178 3.53403C364.682 4.38463 364.934 5.3455 364.934 6.41662C364.934 7.49825 364.682 8.46961 364.178 9.33071C363.685 10.1813 363.007 10.8481 362.146 11.3312C361.285 11.8143 360.34 12.0558 359.311 12.0558ZM359.311 10.0868C359.973 10.0868 360.555 9.93979 361.059 9.64575C361.564 9.34122 361.957 8.91066 362.241 8.3541C362.524 7.79753 362.666 7.15171 362.666 6.41662C362.666 5.68154 362.524 5.04096 362.241 4.4949C361.957 3.93833 361.564 3.51303 361.059 3.219C360.555 2.92496 359.973 2.77795 359.311 2.77795C358.649 2.77795 358.061 2.92496 357.547 3.219C357.043 3.51303 356.649 3.93833 356.365 4.4949C356.082 5.04096 355.94 5.68154 355.94 6.41662C355.94 7.15171 356.082 7.79753 356.365 8.3541C356.649 8.91066 357.043 9.34122 357.547 9.64575C358.061 9.93979 358.649 10.0868 359.311 10.0868Z" fill="#1E57AC"/>
<path d="M352.732 4.27848C352.732 4.88087 352.583 5.44561 352.284 5.9727C351.996 6.4998 351.537 6.9247 350.907 7.24741C350.287 7.57012 349.502 7.73147 348.55 7.73147H346.608V12.0558H344.285V0.793213H348.55C349.446 0.793213 350.21 0.943811 350.84 1.24501C351.471 1.5462 351.941 1.96035 352.251 2.48744C352.572 3.01453 352.732 3.61154 352.732 4.27848ZM348.451 5.90816C349.092 5.90816 349.568 5.76832 349.878 5.48864C350.188 5.1982 350.342 4.79481 350.342 4.27848C350.342 3.18126 349.712 2.63266 348.451 2.63266H346.608V5.90816H348.451Z" fill="#1E57AC"/>
<path d="M339.786 12.0558L337.294 7.66693H336.226V12.0558H333.961V0.793213H338.201C339.074 0.793213 339.819 0.949189 340.434 1.26114C341.049 1.56234 341.507 1.97648 341.809 2.50357C342.122 3.01991 342.278 3.60079 342.278 4.24621C342.278 4.98844 342.063 5.66075 341.631 6.26314C341.2 6.85478 340.558 7.26354 339.705 7.48944L342.408 12.0558H339.786ZM336.226 5.9727H338.12C338.735 5.9727 339.193 5.82748 339.495 5.53705C339.797 5.23585 339.948 4.82171 339.948 4.29461C339.948 3.77828 339.797 3.38027 339.495 3.10059C339.193 2.81015 338.735 2.66493 338.12 2.66493H336.226V5.9727Z" fill="#1E57AC"/>
<path d="M326.459 12.0558C325.43 12.0558 324.485 11.8143 323.624 11.3312C322.763 10.8481 322.08 10.1813 321.576 9.33071C321.072 8.46961 320.82 7.49825 320.82 6.41662C320.82 5.3455 321.072 4.38463 321.576 3.53403C322.08 2.67293 322.763 2.00085 323.624 1.5178C324.485 1.03474 325.43 0.793213 326.459 0.793213C327.499 0.793213 328.444 1.03474 329.295 1.5178C330.156 2.00085 330.833 2.67293 331.327 3.53403C331.831 4.38463 332.083 5.3455 332.083 6.41662C332.083 7.49825 331.831 8.46961 331.327 9.33071C330.833 10.1813 330.156 10.8481 329.295 11.3312C328.434 11.8143 327.489 12.0558 326.459 12.0558ZM326.459 10.0868C327.121 10.0868 327.704 9.93979 328.208 9.64575C328.712 9.34122 329.106 8.91066 329.389 8.3541C329.673 7.79753 329.815 7.15171 329.815 6.41662C329.815 5.68154 329.673 5.04096 329.389 4.4949C329.106 3.93833 328.712 3.51303 328.208 3.219C327.704 2.92496 327.121 2.77795 326.459 2.77795C325.798 2.77795 325.21 2.92496 324.695 3.219C324.191 3.51303 323.797 3.93833 323.514 4.4949C323.23 5.04096 323.089 5.68154 323.089 6.41662C323.089 7.15171 323.23 7.79753 323.514 8.3541C323.797 8.91066 324.191 9.34122 324.695 9.64575C325.21 9.93979 325.798 10.0868 326.459 10.0868Z" fill="#1E57AC"/>
<path d="M307.684 6.4324C307.684 5.34773 307.937 4.37891 308.443 3.52593C308.961 2.66241 309.66 1.99371 310.541 1.51983C311.432 1.03542 312.429 0.793213 313.53 0.793213C314.818 0.793213 315.946 1.10913 316.915 1.74098C317.884 2.37282 318.561 3.24686 318.946 4.36312H316.287C316.023 3.83658 315.649 3.44168 315.164 3.17841C314.691 2.91515 314.141 2.78351 313.513 2.78351C312.841 2.78351 312.241 2.93621 311.713 3.2416C311.196 3.53646 310.788 3.95768 310.491 4.50528C310.205 5.05288 310.062 5.69525 310.062 6.4324C310.062 7.15901 310.205 7.80139 310.491 8.35951C310.788 8.90711 311.196 9.3336 311.713 9.63899C312.241 9.93385 312.841 10.0813 313.513 10.0813C314.141 10.0813 314.691 9.94965 315.164 9.68638C315.649 9.41258 316.023 9.01241 316.287 8.48588H318.946C318.561 9.61266 317.884 10.492 316.915 11.1238C315.957 11.7451 314.829 12.0558 313.53 12.0558C312.429 12.0558 311.432 11.8188 310.541 11.345C309.66 10.8605 308.961 10.1919 308.443 9.33887C307.937 8.48588 307.684 7.51706 307.684 6.4324Z" fill="#1E57AC"/>
<path d="M302.99 0.793213V2.61652H299.921V12.0558H297.612V2.61652H294.543V0.793213H302.99Z" fill="#1E57AC"/>
<path d="M290.044 12.0558L287.552 7.66693H286.484V12.0558H284.219V0.793213H288.458C289.332 0.793213 290.077 0.949189 290.692 1.26114C291.306 1.56234 291.765 1.97648 292.067 2.50357C292.38 3.01991 292.536 3.60079 292.536 4.24621C292.536 4.98844 292.32 5.66075 291.889 6.26314C291.457 6.85478 290.816 7.26354 289.963 7.48944L292.666 12.0558H290.044ZM286.484 5.9727H288.377C288.992 5.9727 289.451 5.82748 289.753 5.53705C290.055 5.23585 290.206 4.82171 290.206 4.29461C290.206 3.77828 290.055 3.38027 289.753 3.10059C289.451 2.81015 288.992 2.66493 288.377 2.66493H286.484V5.9727Z" fill="#1E57AC"/>
<path d="M276.717 12.0558C275.688 12.0558 274.743 11.8143 273.882 11.3312C273.021 10.8481 272.338 10.1813 271.834 9.33071C271.33 8.46961 271.078 7.49825 271.078 6.41662C271.078 5.3455 271.33 4.38463 271.834 3.53403C272.338 2.67293 273.021 2.00085 273.882 1.5178C274.743 1.03474 275.688 0.793213 276.717 0.793213C277.757 0.793213 278.702 1.03474 279.553 1.5178C280.414 2.00085 281.091 2.67293 281.585 3.53403C282.089 4.38463 282.341 5.3455 282.341 6.41662C282.341 7.49825 282.089 8.46961 281.585 9.33071C281.091 10.1813 280.414 10.8481 279.553 11.3312C278.692 11.8143 277.746 12.0558 276.717 12.0558ZM276.717 10.0868C277.379 10.0868 277.962 9.93979 278.466 9.64575C278.97 9.34122 279.364 8.91066 279.647 8.3541C279.931 7.79753 280.072 7.15171 280.072 6.41662C280.072 5.68154 279.931 5.04096 279.647 4.4949C279.364 3.93833 278.97 3.51303 278.466 3.219C277.962 2.92496 277.379 2.77795 276.717 2.77795C276.056 2.77795 275.468 2.92496 274.953 3.219C274.449 3.51303 274.055 3.93833 273.772 4.4949C273.488 5.04096 273.346 5.68154 273.346 6.41662C273.346 7.15171 273.488 7.79753 273.772 8.3541C274.055 8.91066 274.449 9.34122 274.953 9.64575C275.468 9.93979 276.056 10.0868 276.717 10.0868Z" fill="#1E57AC"/>
<path d="M270.142 4.27848C270.142 4.88087 269.993 5.44561 269.694 5.9727C269.407 6.4998 268.947 6.9247 268.317 7.24741C267.697 7.57012 266.912 7.73147 265.96 7.73147H264.019V12.0558H261.695V0.793213H265.96C266.856 0.793213 267.62 0.943811 268.25 1.24501C268.881 1.5462 269.351 1.96035 269.661 2.48744C269.982 3.01453 270.142 3.61154 270.142 4.27848ZM265.861 5.90816C266.502 5.90816 266.978 5.76832 267.288 5.48864C267.598 5.1982 267.753 4.79481 267.753 4.27848C267.753 3.18126 267.122 2.63266 265.861 2.63266H264.019V5.90816H265.861Z" fill="#1E57AC"/>
<path d="M255.695 12.0558C254.882 12.0558 254.148 11.9245 253.491 11.662C252.846 11.3995 252.334 11.0214 251.955 10.5279C251.577 10.0343 251.382 9.45148 251.371 8.7794H253.875C253.909 9.23095 254.075 9.58799 254.376 9.85052C254.688 10.1131 255.11 10.2443 255.645 10.2443C256.19 10.2443 256.618 10.1236 256.93 9.88203C257.242 9.63 257.397 9.30446 257.397 8.90541C257.397 8.57988 257.292 8.31209 257.08 8.10207C256.869 7.89204 256.602 7.72928 256.279 7.61376C255.967 7.48775 255.533 7.35123 254.977 7.20421C254.22 6.99419 253.602 6.78942 253.124 6.58989C252.656 6.37987 252.25 6.07008 251.905 5.66053C251.571 5.24048 251.404 4.68392 251.404 3.99084C251.404 3.33976 251.577 2.77269 251.922 2.28964C252.267 1.80658 252.751 1.43904 253.374 1.18701C253.998 0.924479 254.71 0.793213 255.511 0.793213C256.713 0.793213 257.687 1.0715 258.432 1.62806C259.189 2.17412 259.607 2.94071 259.684 3.92783H257.114C257.091 3.54979 256.919 3.24 256.596 2.99847C256.285 2.74644 255.867 2.62043 255.344 2.62043C254.888 2.62043 254.521 2.73069 254.242 2.95122C253.975 3.17174 253.842 3.49203 253.842 3.91208C253.842 4.20611 253.942 4.45289 254.142 4.65242C254.354 4.84144 254.61 4.99896 254.91 5.12497C255.222 5.24048 255.656 5.377 256.212 5.53452C256.969 5.74454 257.587 5.95457 258.065 6.16459C258.544 6.37462 258.956 6.68965 259.301 7.1097C259.646 7.52975 259.818 8.08107 259.818 8.76365C259.818 9.35172 259.657 9.89778 259.334 10.4018C259.011 10.9059 258.538 11.3102 257.915 11.6147C257.292 11.9088 256.552 12.0558 255.695 12.0558Z" fill="#1E57AC"/>
<path d="M248.553 12.0558H246.352L241.369 4.33794V12.0558H239.168V0.793213H241.369L246.352 8.52717V0.793213H248.553V12.0558Z" fill="#1E57AC"/>
<path d="M234.281 9.91283H229.965L229.251 12.0558H226.969L230.865 0.793213H233.396L237.293 12.0558H234.995L234.281 9.91283ZM233.691 8.10824L232.123 3.40342L230.555 8.10824H233.691Z" fill="#1E57AC"/>
<path d="M223.407 12.0558L220.915 7.66693H219.847V12.0558H217.582V0.793213H221.822C222.695 0.793213 223.44 0.949189 224.055 1.26114C224.67 1.56234 225.128 1.97648 225.43 2.50357C225.743 3.01991 225.9 3.60079 225.9 4.24621C225.9 4.98844 225.684 5.66075 225.252 6.26314C224.821 6.85478 224.179 7.26354 223.327 7.48944L226.029 12.0558H223.407ZM219.847 5.9727H221.741C222.356 5.9727 222.814 5.82748 223.116 5.53705C223.418 5.23585 223.569 4.82171 223.569 4.29461C223.569 3.77828 223.418 3.38027 223.116 3.10059C222.814 2.81015 222.356 2.66493 221.741 2.66493H219.847V5.9727Z" fill="#1E57AC"/>
<path d="M215.705 0.793213V2.61652H212.636V12.0558H210.326V2.61652H207.258V0.793213H215.705Z" fill="#1E57AC"/>
<path d="M195.984 0.793213C197.109 0.793213 198.095 1.02449 198.944 1.48704C199.803 1.94959 200.462 2.61114 200.922 3.4717C201.393 4.32151 201.628 5.31115 201.628 6.44063C201.628 7.57012 201.393 8.55976 200.922 9.40956C200.462 10.2486 199.803 10.8994 198.944 11.362C198.095 11.8245 197.109 12.0558 195.984 12.0558H192.242V0.793213H195.984ZM195.907 10.1357C197.032 10.1357 197.901 9.81295 198.515 9.16753C199.128 8.52211 199.435 7.61314 199.435 6.44063C199.435 5.26812 199.128 4.35378 198.515 3.6976C197.901 3.03067 197.032 2.6972 195.907 2.6972H194.389V10.1357H195.907Z" fill="#1E57AC"/>
<path d="M186.414 9.91283H182.098L181.384 12.0558H179.102L182.998 0.793213H185.529L189.426 12.0558H187.128L186.414 9.91283ZM185.824 8.10824L184.256 3.40342L182.688 8.10824H185.824Z" fill="#1E57AC"/>
<path d="M172.538 12.0558C171.508 12.0558 170.563 11.8143 169.702 11.3312C168.841 10.8481 168.159 10.1813 167.655 9.33071C167.15 8.46961 166.898 7.49825 166.898 6.41662C166.898 5.3455 167.15 4.38463 167.655 3.53403C168.159 2.67293 168.841 2.00085 169.702 1.5178C170.563 1.03474 171.508 0.793213 172.538 0.793213C173.577 0.793213 174.522 1.03474 175.373 1.5178C176.234 2.00085 176.911 2.67293 177.405 3.53403C177.909 4.38463 178.161 5.3455 178.161 6.41662C178.161 7.49825 177.909 8.46961 177.405 9.33071C176.911 10.1813 176.234 10.8481 175.373 11.3312C174.512 11.8143 173.567 12.0558 172.538 12.0558ZM172.538 10.0868C173.199 10.0868 173.782 9.93979 174.286 9.64575C174.79 9.34122 175.184 8.91066 175.467 8.3541C175.751 7.79753 175.893 7.15171 175.893 6.41662C175.893 5.68154 175.751 5.04096 175.467 4.4949C175.184 3.93833 174.79 3.51303 174.286 3.219C173.782 2.92496 173.199 2.77795 172.538 2.77795C171.876 2.77795 171.288 2.92496 170.773 3.219C170.269 3.51303 169.876 3.93833 169.592 4.4949C169.308 5.04096 169.167 5.68154 169.167 6.41662C169.167 7.15171 169.308 7.79753 169.592 8.3541C169.876 8.91066 170.269 9.34122 170.773 9.64575C171.288 9.93979 171.876 10.0868 172.538 10.0868Z" fill="#1E57AC"/>
<path d="M162.404 12.0558L159.912 7.66693H158.844V12.0558H156.578V0.793213H160.818C161.692 0.793213 162.436 0.949189 163.051 1.26114C163.666 1.56234 164.124 1.97648 164.426 2.50357C164.739 3.01991 164.896 3.60079 164.896 4.24621C164.896 4.98844 164.68 5.66075 164.248 6.26314C163.817 6.85478 163.175 7.26354 162.323 7.48944L165.025 12.0558H162.404ZM158.844 5.9727H160.737C161.352 5.9727 161.81 5.82748 162.112 5.53705C162.414 5.23585 162.565 4.82171 162.565 4.29461C162.565 3.77828 162.414 3.38027 162.112 3.10059C161.81 2.81015 161.352 2.66493 160.737 2.66493H158.844V5.9727Z" fill="#1E57AC"/>
<path d="M145.709 2.63003V5.4497H149.521V7.23817H145.709V10.219H150.007V12.0558H143.438V0.793213H150.007V2.63003H145.709Z" fill="#1E57AC"/>
<path d="M142.498 0.793213V2.61652H139.429V12.0558H137.119V2.61652H134.051V0.793213H142.498Z" fill="#1E57AC"/>
<path d="M129.164 9.91283H124.848L124.134 12.0558H121.852L125.748 0.793213H128.279L132.176 12.0558H129.878L129.164 9.91283ZM128.574 8.10824L127.006 3.40342L125.438 8.10824H128.574Z" fill="#1E57AC"/>
<path d="M120.912 0.793213V2.61652H117.843V12.0558H115.533V2.61652H112.465V0.793213H120.912Z" fill="#1E57AC"/>
<path d="M107.402 12.0558C106.589 12.0558 105.855 11.9245 105.198 11.662C104.553 11.3995 104.041 11.0214 103.662 10.5279C103.284 10.0343 103.089 9.45148 103.078 8.7794H105.582C105.616 9.23095 105.782 9.58799 106.083 9.85052C106.395 10.1131 106.817 10.2443 107.352 10.2443C107.897 10.2443 108.325 10.1236 108.637 9.88203C108.949 9.63 109.104 9.30446 109.104 8.90541C109.104 8.57988 108.999 8.31209 108.787 8.10207C108.576 7.89204 108.309 7.72928 107.986 7.61376C107.674 7.48775 107.24 7.35123 106.684 7.20421C105.927 6.99419 105.309 6.78942 104.831 6.58989C104.364 6.37987 103.957 6.07008 103.612 5.66053C103.278 5.24048 103.112 4.68392 103.112 3.99084C103.112 3.33976 103.284 2.77269 103.629 2.28964C103.974 1.80658 104.458 1.43904 105.081 1.18701C105.705 0.924479 106.417 0.793213 107.218 0.793213C108.42 0.793213 109.394 1.0715 110.139 1.62806C110.896 2.17412 111.314 2.94071 111.392 3.92783H108.821C108.798 3.54979 108.626 3.24 108.303 2.99847C107.992 2.74644 107.574 2.62043 107.051 2.62043C106.595 2.62043 106.228 2.73069 105.949 2.95122C105.682 3.17174 105.549 3.49203 105.549 3.91208C105.549 4.20611 105.649 4.45289 105.849 4.65242C106.061 4.84144 106.317 4.99896 106.617 5.12497C106.929 5.24048 107.363 5.377 107.919 5.53452C108.676 5.74454 109.294 5.95457 109.772 6.16459C110.251 6.37462 110.663 6.68965 111.008 7.1097C111.353 7.52975 111.525 8.08107 111.525 8.76365C111.525 9.35172 111.364 9.89778 111.041 10.4018C110.718 10.9059 110.245 11.3102 109.622 11.6147C108.999 11.9088 108.259 12.0558 107.402 12.0558Z" fill="#1E57AC"/>
<path d="M93.4958 9.91283H89.1799L88.4657 12.0558H86.1836L90.0803 0.793213H92.6109L96.5076 12.0558H94.2099L93.4958 9.91283ZM92.9059 8.10824L91.3378 3.40342L89.7698 8.10824H92.9059Z" fill="#1E57AC"/>
<path d="M84.3074 12.0558H82.1064L77.1228 4.33794V12.0558H74.9219V0.793213H77.1228L82.1064 8.52717V0.793213H84.3074V12.0558Z" fill="#1E57AC"/>
<path d="M70.0349 9.91283H65.7189L65.0048 12.0558H62.7227L66.6194 0.793213H69.1499L73.0467 12.0558H70.749L70.0349 9.91283ZM69.4449 8.10824L67.8769 3.40342L66.3089 8.10824H69.4449Z" fill="#1E57AC"/>
<path d="M58.91 4.25254C58.6518 3.78919 58.2968 3.43642 57.845 3.19421C57.3932 2.952 56.8662 2.8309 56.2638 2.8309C55.5968 2.8309 55.0052 2.97833 54.4889 3.27319C53.9725 3.56805 53.5691 3.98928 53.2787 4.53687C52.9883 5.08447 52.843 5.71631 52.843 6.4324C52.843 7.16954 52.9883 7.81192 53.2787 8.35951C53.5799 8.90711 53.994 9.32833 54.5211 9.62319C55.0482 9.91805 55.6614 10.0655 56.3606 10.0655C57.2211 10.0655 57.9257 9.84434 58.4743 9.40205C59.0229 8.94923 59.3833 8.32266 59.5554 7.52232H55.6829V5.83215H61.7821V7.75926C61.6315 8.528 61.3088 9.23882 60.814 9.89173C60.3191 10.5446 59.6791 11.0712 58.8938 11.4713C58.1193 11.861 57.248 12.0558 56.2799 12.0558C55.1934 12.0558 54.2092 11.8188 53.3271 11.345C52.4558 10.8605 51.7673 10.1919 51.2618 9.33887C50.7669 8.48588 50.5195 7.51706 50.5195 6.4324C50.5195 5.34773 50.7669 4.37891 51.2618 3.52593C51.7673 2.66241 52.4558 1.99371 53.3271 1.51983C54.2092 1.03542 55.1881 0.793213 56.2638 0.793213C57.5331 0.793213 58.6357 1.0986 59.5715 1.70938C60.5074 2.30963 61.1528 3.15735 61.5078 4.25254H58.91Z" fill="#1E57AC"/>
<path d="M48.6433 12.0558H46.4423L41.4588 4.33794V12.0558H39.2578V0.793213H41.4588L46.4423 8.52717V0.793213H48.6433V12.0558Z" fill="#1E57AC"/>
<path d="M34.3708 9.91283H30.0549L29.3407 12.0558H27.0586L30.9553 0.793213H33.4859L37.3826 12.0558H35.0849L34.3708 9.91283ZM33.7809 8.10824L32.2128 3.40342L30.6448 8.10824H33.7809Z" fill="#1E57AC"/>
<path d="M21.6776 10.2647H25.1782V12.0558H19.5469V0.793213H21.6776V10.2647Z" fill="#1E57AC"/>
<path d="M13.3726 2.63003V5.4497H17.1847V7.23817H13.3726V10.219H17.6714V12.0558H11.1016V0.793213H17.6714V2.63003H13.3726Z" fill="#1E57AC"/>
<path d="M9.22427 0.793213V2.61652H6.15566V12.0558H3.84595V2.61652H0.777344V0.793213H9.22427Z" fill="#1E57AC"/>
</svg>
