<svg width="482" height="13" viewBox="0 0 482 13" fill="none" xmlns="http://www.w3.org/2000/svg">
<path d="M481.57 12.8277H479.046L473.329 4.18992V12.8277H470.805V0.222656H473.329L479.046 8.8785V0.222656H481.57V12.8277Z" fill="white"/>
<path d="M462.128 12.96C460.95 12.96 459.868 12.6835 458.882 12.1305C457.896 11.5775 457.114 10.8141 456.537 9.8403C455.96 8.85449 455.672 7.74246 455.672 6.50419C455.672 5.27795 455.96 4.17793 456.537 3.20415C457.114 2.21834 457.896 1.44894 458.882 0.895924C459.868 0.342912 460.95 0.0664062 462.128 0.0664062C463.318 0.0664062 464.4 0.342912 465.374 0.895924C466.359 1.44894 467.135 2.21834 467.7 3.20415C468.277 4.17793 468.565 5.27795 468.565 6.50419C468.565 7.74246 468.277 8.85449 467.7 9.8403C467.135 10.8141 466.359 11.5775 465.374 12.1305C464.388 12.6835 463.306 12.96 462.128 12.96ZM462.128 10.7059C462.885 10.7059 463.552 10.5376 464.129 10.201C464.706 9.85232 465.157 9.35942 465.482 8.72225C465.806 8.08508 465.969 7.34573 465.969 6.50419C465.969 5.66265 465.806 4.92931 465.482 4.30416C465.157 3.667 464.706 3.18011 464.129 2.84349C463.552 2.50687 462.885 2.33857 462.128 2.33857C461.37 2.33857 460.697 2.50687 460.108 2.84349C459.531 3.18011 459.08 3.667 458.756 4.30416C458.431 4.92931 458.269 5.66265 458.269 6.50419C458.269 7.34573 458.431 8.08508 458.756 8.72225C459.08 9.35942 459.531 9.85232 460.108 10.201C460.697 10.5376 461.37 10.7059 462.128 10.7059Z" fill="white"/>
<path d="M453.431 0.246094V12.8331H450.906V0.246094H453.431Z" fill="white"/>
<path d="M448.704 0.246094V2.28382H445.349V12.8331H442.825V2.28382H439.471V0.246094H448.704Z" fill="white"/>
<path d="M434.587 10.4293H429.574L428.745 12.8277H426.094L430.62 0.222656H433.559L438.086 12.8277H435.417L434.587 10.4293ZM433.902 8.40964L432.081 3.144L430.259 8.40964H433.902Z" fill="white"/>
<path d="M421.449 12.8331L418.672 7.92816H417.482V12.8331H414.957V0.246094H419.682C420.655 0.246094 421.485 0.420413 422.17 0.769051C422.855 1.10567 423.366 1.56851 423.703 2.15759C424.052 2.73465 424.226 3.38384 424.226 4.10516C424.226 4.93468 423.986 5.68605 423.505 6.35928C423.024 7.02049 422.309 7.47733 421.359 7.72979L424.37 12.8331H421.449ZM417.482 6.03469H419.591C420.277 6.03469 420.788 5.87239 421.124 5.5478C421.461 5.21118 421.629 4.74834 421.629 4.15926C421.629 3.5822 421.461 3.13739 421.124 2.82481C420.788 2.50022 420.277 2.33792 419.591 2.33792H417.482V6.03469Z" fill="white"/>
<path d="M406.278 12.96C405.1 12.96 404.018 12.6835 403.032 12.1305C402.046 11.5775 401.265 10.8141 400.688 9.8403C400.111 8.85449 399.822 7.74246 399.822 6.50419C399.822 5.27795 400.111 4.17793 400.688 3.20415C401.265 2.21834 402.046 1.44894 403.032 0.895924C404.018 0.342912 405.1 0.0664062 406.278 0.0664062C407.468 0.0664062 408.55 0.342912 409.524 0.895924C410.51 1.44894 411.285 2.21834 411.85 3.20415C412.427 4.17793 412.716 5.27795 412.716 6.50419C412.716 7.74246 412.427 8.85449 411.85 9.8403C411.285 10.8141 410.51 11.5775 409.524 12.1305C408.538 12.6835 407.456 12.96 406.278 12.96ZM406.278 10.7059C407.035 10.7059 407.703 10.5376 408.28 10.201C408.857 9.85232 409.308 9.35942 409.632 8.72225C409.957 8.08508 410.119 7.34573 410.119 6.50419C410.119 5.66265 409.957 4.92931 409.632 4.30416C409.308 3.667 408.857 3.18011 408.28 2.84349C407.703 2.50687 407.035 2.33857 406.278 2.33857C405.521 2.33857 404.847 2.50687 404.258 2.84349C403.681 3.18011 403.231 3.667 402.906 4.30416C402.581 4.92931 402.419 5.66265 402.419 6.50419C402.419 7.34573 402.581 8.08508 402.906 8.72225C403.231 9.35942 403.681 9.85232 404.258 10.201C404.847 10.5376 405.521 10.7059 406.278 10.7059Z" fill="white"/>
<path d="M398.284 4.14122C398.284 4.81446 398.122 5.44561 397.797 6.03469C397.485 6.62377 396.986 7.09864 396.301 7.4593C395.627 7.81996 394.774 8.00029 393.74 8.00029H391.63V12.8331H389.105V0.246094H393.74C394.714 0.246094 395.543 0.414403 396.228 0.751019C396.914 1.08763 397.425 1.55048 397.761 2.13956C398.11 2.72864 398.284 3.39586 398.284 4.14122ZM393.632 5.96256C394.329 5.96256 394.846 5.80627 395.183 5.4937C395.519 5.16911 395.688 4.71828 395.688 4.14122C395.688 2.91498 395.002 2.30186 393.632 2.30186H391.63V5.96256H393.632Z" fill="white"/>
<path d="M383.683 12.8331L380.906 7.92816H379.716V12.8331H377.191V0.246094H381.916C382.89 0.246094 383.719 0.420413 384.405 0.769051C385.09 1.10567 385.601 1.56851 385.937 2.15759C386.286 2.73465 386.46 3.38384 386.46 4.10516C386.46 4.93468 386.22 5.68605 385.739 6.35928C385.258 7.02049 384.543 7.47733 383.593 7.72979L386.605 12.8331H383.683ZM379.716 6.03469H381.826C382.511 6.03469 383.022 5.87239 383.359 5.5478C383.695 5.21118 383.864 4.74834 383.864 4.15926C383.864 3.5822 383.695 3.13739 383.359 2.82481C383.022 2.50022 382.511 2.33792 381.826 2.33792H379.716V6.03469Z" fill="white"/>
<path d="M368.514 12.96C367.336 12.96 366.254 12.6835 365.268 12.1305C364.283 11.5775 363.501 10.8141 362.924 9.8403C362.347 8.85449 362.059 7.74246 362.059 6.50419C362.059 5.27795 362.347 4.17793 362.924 3.20415C363.501 2.21834 364.283 1.44894 365.268 0.895924C366.254 0.342912 367.336 0.0664062 368.514 0.0664062C369.705 0.0664062 370.787 0.342912 371.76 0.895924C372.746 1.44894 373.522 2.21834 374.087 3.20415C374.664 4.17793 374.952 5.27795 374.952 6.50419C374.952 7.74246 374.664 8.85449 374.087 9.8403C373.522 10.8141 372.746 11.5775 371.76 12.1305C370.775 12.6835 369.693 12.96 368.514 12.96ZM368.514 10.7059C369.272 10.7059 369.939 10.5376 370.516 10.201C371.093 9.85232 371.544 9.35942 371.869 8.72225C372.193 8.08508 372.355 7.34573 372.355 6.50419C372.355 5.66265 372.193 4.92931 371.869 4.30416C371.544 3.667 371.093 3.18011 370.516 2.84349C369.939 2.50687 369.272 2.33857 368.514 2.33857C367.757 2.33857 367.084 2.50687 366.495 2.84349C365.918 3.18011 365.467 3.667 365.142 4.30416C364.818 4.92931 364.655 5.66265 364.655 6.50419C364.655 7.34573 364.818 8.08508 365.142 8.72225C365.467 9.35942 365.918 9.85232 366.495 10.201C367.084 10.5376 367.757 10.7059 368.514 10.7059Z" fill="white"/>
<path d="M347.855 6.51981C347.855 5.28155 348.132 4.17552 348.685 3.20174C349.25 2.21594 350.013 1.45254 350.975 0.91155C351.949 0.358537 353.037 0.0820312 354.239 0.0820312C355.646 0.0820312 356.878 0.442692 357.936 1.16401C358.994 1.88533 359.733 2.88316 360.154 4.15749H357.251C356.962 3.55639 356.553 3.10557 356.024 2.80501C355.507 2.50446 354.906 2.35419 354.221 2.35419C353.488 2.35419 352.833 2.52851 352.256 2.87715C351.691 3.21376 351.246 3.69464 350.921 4.31979C350.609 4.94493 350.452 5.67827 350.452 6.51981C350.452 7.34933 350.609 8.08268 350.921 8.71984C351.246 9.34499 351.691 9.83188 352.256 10.1805C352.833 10.5171 353.488 10.6854 354.221 10.6854C354.906 10.6854 355.507 10.5352 356.024 10.2346C356.553 9.92204 356.962 9.46521 357.251 8.86411H360.154C359.733 10.1505 358.994 11.1543 357.936 11.8756C356.89 12.5849 355.658 12.9396 354.239 12.9396C353.037 12.9396 351.949 12.6691 350.975 12.1281C350.013 11.5751 349.25 10.8117 348.685 9.83789C348.132 8.86411 347.855 7.75808 347.855 6.51981Z" fill="white"/>
<path d="M341.612 0.246094V2.28382H338.258V12.8331H335.733V2.28382H332.379V0.246094H341.612Z" fill="white"/>
<path d="M327.625 12.8331L324.848 7.92816H323.657V12.8331H321.133V0.246094H325.857C326.831 0.246094 327.661 0.420413 328.346 0.769051C329.031 1.10567 329.542 1.56851 329.879 2.15759C330.227 2.73465 330.402 3.38384 330.402 4.10516C330.402 4.93468 330.161 5.68605 329.68 6.35928C329.2 7.02049 328.484 7.47733 327.535 7.72979L330.546 12.8331H327.625ZM323.657 6.03469H325.767C326.453 6.03469 326.963 5.87239 327.3 5.5478C327.637 5.21118 327.805 4.74834 327.805 4.15926C327.805 3.5822 327.637 3.13739 327.3 2.82481C326.963 2.50022 326.453 2.33792 325.767 2.33792H323.657V6.03469Z" fill="white"/>
<path d="M312.452 12.96C311.274 12.96 310.192 12.6835 309.206 12.1305C308.22 11.5775 307.439 10.8141 306.862 9.8403C306.285 8.85449 305.996 7.74246 305.996 6.50419C305.996 5.27795 306.285 4.17793 306.862 3.20415C307.439 2.21834 308.22 1.44894 309.206 0.895924C310.192 0.342912 311.274 0.0664062 312.452 0.0664062C313.642 0.0664062 314.724 0.342912 315.698 0.895924C316.684 1.44894 317.459 2.21834 318.024 3.20415C318.601 4.17793 318.89 5.27795 318.89 6.50419C318.89 7.74246 318.601 8.85449 318.024 9.8403C317.459 10.8141 316.684 11.5775 315.698 12.1305C314.712 12.6835 313.63 12.96 312.452 12.96ZM312.452 10.7059C313.209 10.7059 313.877 10.5376 314.454 10.201C315.031 9.85232 315.481 9.35942 315.806 8.72225C316.131 8.08508 316.293 7.34573 316.293 6.50419C316.293 5.66265 316.131 4.92931 315.806 4.30416C315.481 3.667 315.031 3.18011 314.454 2.84349C313.877 2.50687 313.209 2.33857 312.452 2.33857C311.695 2.33857 311.021 2.50687 310.432 2.84349C309.855 3.18011 309.404 3.667 309.08 4.30416C308.755 4.92931 308.593 5.66265 308.593 6.50419C308.593 7.34573 308.755 8.08508 309.08 8.72225C309.404 9.35942 309.855 9.85232 310.432 10.201C311.021 10.5376 311.695 10.7059 312.452 10.7059Z" fill="white"/>
<path d="M304.458 4.14122C304.458 4.81446 304.296 5.44561 303.971 6.03469C303.659 6.62377 303.16 7.09864 302.474 7.4593C301.801 7.81996 300.948 8.00029 299.914 8.00029H297.804V12.8331H295.279V0.246094H299.914C300.888 0.246094 301.717 0.414403 302.402 0.751019C303.088 1.08763 303.599 1.55048 303.935 2.13956C304.284 2.72864 304.458 3.39586 304.458 4.14122ZM299.806 5.96256C300.503 5.96256 301.02 5.80627 301.356 5.4937C301.693 5.16911 301.861 4.71828 301.861 4.14122C301.861 2.91498 301.176 2.30186 299.806 2.30186H297.804V5.96256H299.806Z" fill="white"/>
<path d="M288.276 12.96C287.398 12.96 286.605 12.8097 285.896 12.5092C285.198 12.2086 284.645 11.7758 284.237 11.2108C283.828 10.6458 283.617 9.97855 283.605 9.20914H286.31C286.346 9.72609 286.527 10.1348 286.851 10.4354C287.188 10.7359 287.645 10.8862 288.222 10.8862C288.811 10.8862 289.274 10.748 289.61 10.4715C289.947 10.1829 290.115 9.81024 290.115 9.35341C290.115 8.98072 290.001 8.67416 289.773 8.43372C289.544 8.19328 289.256 8.00694 288.907 7.8747C288.571 7.73044 288.102 7.57415 287.501 7.40584C286.683 7.1654 286.016 6.93097 285.499 6.70255C284.994 6.46211 284.555 6.10746 284.183 5.63861C283.822 5.15773 283.642 4.52056 283.642 3.72711C283.642 2.98174 283.828 2.33255 284.201 1.77954C284.573 1.22653 285.096 0.80576 285.769 0.517232C286.443 0.216682 287.212 0.0664062 288.078 0.0664062C289.376 0.0664062 290.428 0.384989 291.233 1.02216C292.051 1.6473 292.502 2.52491 292.586 3.65498H289.809C289.785 3.22218 289.598 2.86753 289.25 2.59103C288.913 2.3025 288.462 2.15824 287.897 2.15824C287.404 2.15824 287.008 2.28447 286.707 2.53693C286.419 2.78939 286.274 3.15606 286.274 3.63694C286.274 3.97356 286.383 4.25608 286.599 4.48449C286.827 4.70089 287.104 4.88122 287.428 5.02548C287.765 5.15773 288.234 5.31401 288.835 5.49434C289.653 5.73478 290.32 5.97522 290.837 6.21566C291.354 6.4561 291.798 6.81676 292.171 7.29764C292.544 7.77852 292.73 8.40968 292.73 9.19111C292.73 9.86434 292.556 10.4895 292.207 11.0665C291.859 11.6436 291.348 12.1064 290.674 12.4551C290.001 12.7917 289.202 12.96 288.276 12.96Z" fill="white"/>
<path d="M281.074 12.8277H278.55L272.833 4.18992V12.8277H270.309V0.222656H272.833L278.55 8.8785V0.222656H281.074V12.8277Z" fill="white"/>
<path d="M264.757 10.4293H259.744L258.915 12.8277H256.264L260.79 0.222656H263.729L268.256 12.8277H265.587L264.757 10.4293ZM264.072 8.40964L262.251 3.144L260.429 8.40964H264.072Z" fill="white"/>
<path d="M251.619 12.8331L248.842 7.92816H247.652V12.8331H245.127V0.246094H249.852C250.825 0.246094 251.655 0.420413 252.34 0.769051C253.025 1.10567 253.536 1.56851 253.873 2.15759C254.222 2.73465 254.396 3.38384 254.396 4.10516C254.396 4.93468 254.155 5.68605 253.675 6.35928C253.194 7.02049 252.478 7.47733 251.529 7.72979L254.54 12.8331H251.619ZM247.652 6.03469H249.761C250.447 6.03469 250.958 5.87239 251.294 5.5478C251.631 5.21118 251.799 4.74834 251.799 4.15926C251.799 3.5822 251.631 3.13739 251.294 2.82481C250.958 2.50022 250.447 2.33792 249.761 2.33792H247.652V6.03469Z" fill="white"/>
<path d="M242.922 0.246094V2.28382H239.568V12.8331H237.044V2.28382H233.689V0.246094H242.922Z" fill="white"/>
<path d="M220.814 0.246094C222.137 0.246094 223.297 0.504567 224.294 1.02151C225.304 1.53846 226.08 2.27781 226.621 3.23957C227.174 4.18931 227.45 5.29534 227.45 6.55765C227.45 7.81996 227.174 8.92598 226.621 9.87572C226.08 10.8134 225.304 11.5408 224.294 12.0577C223.297 12.5747 222.137 12.8331 220.814 12.8331H216.414V0.246094H220.814ZM220.724 10.6872C222.046 10.6872 223.068 10.3265 223.79 9.60523C224.511 8.88391 224.872 7.86805 224.872 6.55765C224.872 5.24725 224.511 4.22538 223.79 3.49204C223.068 2.74667 222.046 2.37399 220.724 2.37399H218.939V10.6872H220.724Z" fill="white"/>
<path d="M210.863 10.4293H205.85L205.02 12.8277H202.369L206.895 0.222656H209.835L214.361 12.8277H211.692L210.863 10.4293ZM210.177 8.40964L208.356 3.144L206.535 8.40964H210.177Z" fill="white"/>
<path d="M194.468 12.96C193.289 12.96 192.207 12.6835 191.222 12.1305C190.236 11.5775 189.454 10.8141 188.877 9.8403C188.3 8.85449 188.012 7.74246 188.012 6.50419C188.012 5.27795 188.3 4.17793 188.877 3.20415C189.454 2.21834 190.236 1.44894 191.222 0.895924C192.207 0.342912 193.289 0.0664062 194.468 0.0664062C195.658 0.0664062 196.74 0.342912 197.713 0.895924C198.699 1.44894 199.475 2.21834 200.04 3.20415C200.617 4.17793 200.905 5.27795 200.905 6.50419C200.905 7.74246 200.617 8.85449 200.04 9.8403C199.475 10.8141 198.699 11.5775 197.713 12.1305C196.728 12.6835 195.646 12.96 194.468 12.96ZM194.468 10.7059C195.225 10.7059 195.892 10.5376 196.469 10.201C197.046 9.85232 197.497 9.35942 197.822 8.72225C198.146 8.08508 198.309 7.34573 198.309 6.50419C198.309 5.66265 198.146 4.92931 197.822 4.30416C197.497 3.667 197.046 3.18011 196.469 2.84349C195.892 2.50687 195.225 2.33857 194.468 2.33857C193.71 2.33857 193.037 2.50687 192.448 2.84349C191.871 3.18011 191.42 3.667 191.095 4.30416C190.771 4.92931 190.608 5.66265 190.608 6.50419C190.608 7.34573 190.771 8.08508 191.095 8.72225C191.42 9.35942 191.871 9.85232 192.448 10.201C193.037 10.5376 193.71 10.7059 194.468 10.7059Z" fill="white"/>
<path d="M183.207 12.8331L180.43 7.92816H179.239V12.8331H176.715V0.246094H181.439C182.413 0.246094 183.243 0.420413 183.928 0.769051C184.613 1.10567 185.124 1.56851 185.461 2.15759C185.809 2.73465 185.984 3.38384 185.984 4.10516C185.984 4.93468 185.743 5.68605 185.262 6.35928C184.782 7.02049 184.066 7.47733 183.117 7.72979L186.128 12.8331H183.207ZM179.239 6.03469H181.349C182.035 6.03469 182.546 5.87239 182.882 5.5478C183.219 5.21118 183.387 4.74834 183.387 4.15926C183.387 3.5822 183.219 3.13739 182.882 2.82481C182.546 2.50022 182.035 2.33792 181.349 2.33792H179.239V6.03469Z" fill="white"/>
<path d="M164.62 2.27842V5.4342H168.858V7.43586H164.62V10.772H169.399V12.8277H162.096V0.222656H169.399V2.27842H164.62Z" fill="white"/>
<path d="M159.893 0.246094V2.28382H156.539V12.8331H154.014V2.28382H150.66V0.246094H159.893Z" fill="white"/>
<path d="M145.777 10.4293H140.764L139.934 12.8277H137.283L141.809 0.222656H144.749L149.275 12.8277H146.606L145.777 10.4293ZM145.092 8.40964L143.27 3.144L141.449 8.40964H145.092Z" fill="white"/>
<path d="M135.856 0.246094V2.28382H132.502V12.8331H129.977V2.28382H126.623V0.246094H135.856Z" fill="white"/>
<path d="M120.288 12.96C119.41 12.96 118.617 12.8097 117.907 12.5092C117.21 12.2086 116.657 11.7758 116.248 11.2108C115.84 10.6458 115.629 9.97855 115.617 9.20914H118.322C118.358 9.72609 118.539 10.1348 118.863 10.4354C119.2 10.7359 119.657 10.8862 120.234 10.8862C120.823 10.8862 121.286 10.748 121.622 10.4715C121.959 10.1829 122.127 9.81024 122.127 9.35341C122.127 8.98072 122.013 8.67416 121.784 8.43372C121.556 8.19328 121.268 8.00694 120.919 7.8747C120.582 7.73044 120.113 7.57415 119.512 7.40584C118.695 7.1654 118.028 6.93097 117.511 6.70255C117.006 6.46211 116.567 6.10746 116.194 5.63861C115.834 5.15773 115.653 4.52056 115.653 3.72711C115.653 2.98174 115.84 2.33255 116.212 1.77954C116.585 1.22653 117.108 0.80576 117.781 0.517232C118.454 0.216682 119.224 0.0664062 120.089 0.0664062C121.388 0.0664062 122.44 0.384989 123.245 1.02216C124.063 1.6473 124.513 2.52491 124.598 3.65498H121.821C121.796 3.22218 121.61 2.86753 121.262 2.59103C120.925 2.3025 120.474 2.15824 119.909 2.15824C119.416 2.15824 119.019 2.28447 118.719 2.53693C118.43 2.78939 118.286 3.15606 118.286 3.63694C118.286 3.97356 118.394 4.25608 118.611 4.48449C118.839 4.70089 119.116 4.88122 119.44 5.02548C119.777 5.15773 120.246 5.31401 120.847 5.49434C121.664 5.73478 122.331 5.97522 122.848 6.21566C123.365 6.4561 123.81 6.81676 124.183 7.29764C124.556 7.77852 124.742 8.40968 124.742 9.19111C124.742 9.86434 124.568 10.4895 124.219 11.0665C123.87 11.6436 123.359 12.1064 122.686 12.4551C122.013 12.7917 121.213 12.96 120.288 12.96Z" fill="white"/>
<path d="M105.732 10.4293H100.719L99.8891 12.8277H97.2383L101.765 0.222656H104.704L109.23 12.8277H106.561L105.732 10.4293ZM105.047 8.40964L103.225 3.144L101.404 8.40964H105.047Z" fill="white"/>
<path d="M95.1602 12.8277H92.6356L86.9192 4.18992V12.8277H84.3945V0.222656H86.9192L92.6356 8.8785V0.222656H95.1602V12.8277Z" fill="white"/>
<path d="M78.8432 10.4293H73.83L73.0005 12.8277H70.3496L74.8759 0.222656H77.8153L82.3416 12.8277H79.6727L78.8432 10.4293ZM78.1579 8.40964L76.3366 3.144L74.5152 8.40964H78.1579Z" fill="white"/>
<path d="M65.6838 4.03126C65.3953 3.50229 64.9986 3.09956 64.4936 2.82305C63.9887 2.54654 63.3996 2.40829 62.7264 2.40829C61.981 2.40829 61.3198 2.5766 60.7428 2.91321C60.1657 3.24983 59.7149 3.73071 59.3903 4.35585C59.0657 4.981 58.9034 5.70232 58.9034 6.51981C58.9034 7.36136 59.0657 8.0947 59.3903 8.71984C59.7269 9.34499 60.1898 9.82587 60.7788 10.1625C61.3679 10.4991 62.0532 10.6674 62.8346 10.6674C63.7964 10.6674 64.5838 10.4149 65.1969 9.91002C65.81 9.39307 66.2128 8.67777 66.4051 7.76409H62.0772V5.83456H68.8937V8.03459C68.7254 8.91219 68.3647 9.72368 67.8117 10.469C67.2587 11.2144 66.5434 11.8155 65.6658 12.2723C64.8002 12.7172 63.8264 12.9396 62.7444 12.9396C61.5302 12.9396 60.4302 12.6691 59.4444 12.1281C58.4706 11.5751 57.7012 10.8117 57.1362 9.83789C56.5831 8.86411 56.3066 7.75808 56.3066 6.51981C56.3066 5.28155 56.5831 4.17552 57.1362 3.20174C57.7012 2.21594 58.4706 1.45254 59.4444 0.91155C60.4302 0.358537 61.5242 0.0820312 62.7264 0.0820312C64.145 0.0820312 65.3772 0.430669 66.4232 1.12795C67.4691 1.8132 68.1904 2.78097 68.5871 4.03126H65.6838Z" fill="white"/>
<path d="M54.0665 12.8277H51.5419L45.8254 4.18992V12.8277H43.3008V0.222656H45.8254L51.5419 8.8785V0.222656H54.0665V12.8277Z" fill="white"/>
<path d="M37.7514 10.4293H32.7382L31.9087 12.8277H29.2578L33.7841 0.222656H36.7235L41.2498 12.8277H38.5809L37.7514 10.4293ZM37.0661 8.40964L35.2448 3.144L33.4234 8.40964H37.0661Z" fill="white"/>
<path d="M23.9192 10.8315H28.0667V12.8331H21.3945V0.246094H23.9192V10.8315Z" fill="white"/>
<path d="M13.9582 2.27842V5.4342H18.196V7.43586H13.9582V10.772H18.737V12.8277H11.4336V0.222656H18.737V2.27842H13.9582Z" fill="white"/>
<path d="M9.2329 0.246094V2.28382H5.87876V12.8331H3.35414V2.28382H0V0.246094H9.2329Z" fill="white"/>
</svg>
