<svg width="482" height="13" viewBox="0 0 482 13" fill="none" xmlns="http://www.w3.org/2000/svg">
<path d="M481.57 12.857H479.046L473.329 4.21922V12.857H470.805V0.251953H473.329L479.046 8.9078V0.251953H481.57V12.857Z" fill="white"/>
<path d="M462.128 12.9893C460.95 12.9893 459.868 12.7128 458.882 12.1598C457.896 11.6068 457.114 10.8434 456.537 9.86959C455.96 8.88379 455.672 7.77175 455.672 6.53349C455.672 5.30724 455.96 4.20723 456.537 3.23345C457.114 2.24764 457.896 1.47823 458.882 0.925221C459.868 0.372209 460.95 0.0957031 462.128 0.0957031C463.318 0.0957031 464.4 0.372209 465.374 0.925221C466.359 1.47823 467.135 2.24764 467.7 3.23345C468.277 4.20723 468.565 5.30724 468.565 6.53349C468.565 7.77175 468.277 8.88379 467.7 9.86959C467.135 10.8434 466.359 11.6068 465.374 12.1598C464.388 12.7128 463.306 12.9893 462.128 12.9893ZM462.128 10.7352C462.885 10.7352 463.552 10.5669 464.129 10.2303C464.706 9.88162 465.157 9.38871 465.482 8.75155C465.806 8.11438 465.969 7.37503 465.969 6.53349C465.969 5.69195 465.806 4.9586 465.482 4.33346C465.157 3.69629 464.706 3.2094 464.129 2.87279C463.552 2.53617 462.885 2.36786 462.128 2.36786C461.37 2.36786 460.697 2.53617 460.108 2.87279C459.531 3.2094 459.08 3.69629 458.756 4.33346C458.431 4.9586 458.269 5.69195 458.269 6.53349C458.269 7.37503 458.431 8.11438 458.756 8.75155C459.08 9.38871 459.531 9.88162 460.108 10.2303C460.697 10.5669 461.37 10.7352 462.128 10.7352Z" fill="white"/>
<path d="M453.431 0.275391V12.8624H450.906V0.275391H453.431Z" fill="white"/>
<path d="M448.702 0.275391V2.31312H445.347V12.8624H442.823V2.31312H439.469V0.275391H448.702Z" fill="white"/>
<path d="M434.587 10.4586H429.574L428.745 12.857H426.094L430.62 0.251953H433.559L438.086 12.857H435.417L434.587 10.4586ZM433.902 8.43894L432.081 3.1733L430.259 8.43894H433.902Z" fill="white"/>
<path d="M421.449 12.8624L418.672 7.95745H417.482V12.8624H414.957V0.275391H419.682C420.655 0.275391 421.485 0.44971 422.17 0.798348C422.855 1.13496 423.366 1.59781 423.703 2.18689C424.052 2.76395 424.226 3.41313 424.226 4.13445C424.226 4.96397 423.986 5.71535 423.505 6.38858C423.024 7.04979 422.309 7.50663 421.359 7.75909L424.37 12.8624H421.449ZM417.482 6.06399H419.591C420.277 6.06399 420.788 5.90169 421.124 5.5771C421.461 5.24048 421.629 4.77763 421.629 4.18855C421.629 3.6115 421.461 3.16668 421.124 2.85411C420.788 2.52952 420.277 2.36722 419.591 2.36722H417.482V6.06399Z" fill="white"/>
<path d="M406.28 12.9893C405.102 12.9893 404.02 12.7128 403.034 12.1598C402.048 11.6068 401.267 10.8434 400.69 9.86959C400.113 8.88379 399.824 7.77175 399.824 6.53349C399.824 5.30724 400.113 4.20723 400.69 3.23345C401.267 2.24764 402.048 1.47823 403.034 0.925221C404.02 0.372209 405.102 0.0957031 406.28 0.0957031C407.47 0.0957031 408.552 0.372209 409.526 0.925221C410.512 1.47823 411.287 2.24764 411.852 3.23345C412.429 4.20723 412.718 5.30724 412.718 6.53349C412.718 7.77175 412.429 8.88379 411.852 9.86959C411.287 10.8434 410.512 11.6068 409.526 12.1598C408.54 12.7128 407.458 12.9893 406.28 12.9893ZM406.28 10.7352C407.037 10.7352 407.705 10.5669 408.282 10.2303C408.859 9.88162 409.31 9.38871 409.634 8.75155C409.959 8.11438 410.121 7.37503 410.121 6.53349C410.121 5.69195 409.959 4.9586 409.634 4.33346C409.31 3.69629 408.859 3.2094 408.282 2.87279C407.705 2.53617 407.037 2.36786 406.28 2.36786C405.523 2.36786 404.849 2.53617 404.26 2.87279C403.683 3.2094 403.232 3.69629 402.908 4.33346C402.583 4.9586 402.421 5.69195 402.421 6.53349C402.421 7.37503 402.583 8.11438 402.908 8.75155C403.232 9.38871 403.683 9.88162 404.26 10.2303C404.849 10.5669 405.523 10.7352 406.28 10.7352Z" fill="white"/>
<path d="M398.284 4.17052C398.284 4.84375 398.122 5.47491 397.797 6.06399C397.485 6.65307 396.986 7.12793 396.301 7.48859C395.627 7.84925 394.774 8.02959 393.74 8.02959H391.63V12.8624H389.105V0.275391H393.74C394.714 0.275391 395.543 0.443699 396.228 0.780316C396.914 1.11693 397.425 1.57978 397.761 2.16886C398.11 2.75793 398.284 3.42516 398.284 4.17052ZM393.632 5.99185C394.329 5.99185 394.846 5.83557 395.183 5.523C395.519 5.1984 395.688 4.74758 395.688 4.17052C395.688 2.94428 395.002 2.33115 393.632 2.33115H391.63V5.99185H393.632Z" fill="white"/>
<path d="M383.683 12.8624L380.906 7.95745H379.716V12.8624H377.191V0.275391H381.916C382.89 0.275391 383.719 0.44971 384.405 0.798348C385.09 1.13496 385.601 1.59781 385.937 2.18689C386.286 2.76395 386.46 3.41313 386.46 4.13445C386.46 4.96397 386.22 5.71535 385.739 6.38858C385.258 7.04979 384.543 7.50663 383.593 7.75909L386.605 12.8624H383.683ZM379.716 6.06399H381.826C382.511 6.06399 383.022 5.90169 383.359 5.5771C383.695 5.24048 383.864 4.77763 383.864 4.18855C383.864 3.6115 383.695 3.16668 383.359 2.85411C383.022 2.52952 382.511 2.36722 381.826 2.36722H379.716V6.06399Z" fill="white"/>
<path d="M368.514 12.9893C367.336 12.9893 366.254 12.7128 365.268 12.1598C364.283 11.6068 363.501 10.8434 362.924 9.86959C362.347 8.88379 362.059 7.77175 362.059 6.53349C362.059 5.30724 362.347 4.20723 362.924 3.23345C363.501 2.24764 364.283 1.47823 365.268 0.925221C366.254 0.372209 367.336 0.0957031 368.514 0.0957031C369.705 0.0957031 370.787 0.372209 371.76 0.925221C372.746 1.47823 373.522 2.24764 374.087 3.23345C374.664 4.20723 374.952 5.30724 374.952 6.53349C374.952 7.77175 374.664 8.88379 374.087 9.86959C373.522 10.8434 372.746 11.6068 371.76 12.1598C370.775 12.7128 369.693 12.9893 368.514 12.9893ZM368.514 10.7352C369.272 10.7352 369.939 10.5669 370.516 10.2303C371.093 9.88162 371.544 9.38871 371.869 8.75155C372.193 8.11438 372.355 7.37503 372.355 6.53349C372.355 5.69195 372.193 4.9586 371.869 4.33346C371.544 3.69629 371.093 3.2094 370.516 2.87279C369.939 2.53617 369.272 2.36786 368.514 2.36786C367.757 2.36786 367.084 2.53617 366.495 2.87279C365.918 3.2094 365.467 3.69629 365.142 4.33346C364.818 4.9586 364.655 5.69195 364.655 6.53349C364.655 7.37503 364.818 8.11438 365.142 8.75155C365.467 9.38871 365.918 9.88162 366.495 10.2303C367.084 10.5669 367.757 10.7352 368.514 10.7352Z" fill="white"/>
<path d="M347.855 6.54911C347.855 5.31084 348.132 4.20482 348.685 3.23104C349.25 2.24523 350.013 1.48184 350.975 0.940847C351.949 0.387834 353.037 0.111328 354.239 0.111328C355.646 0.111328 356.878 0.471989 357.936 1.19331C358.994 1.91463 359.733 2.91246 360.154 4.18679H357.251C356.962 3.58569 356.553 3.13486 356.024 2.83431C355.507 2.53376 354.906 2.38349 354.221 2.38349C353.488 2.38349 352.833 2.55781 352.256 2.90644C351.691 3.24306 351.246 3.72394 350.921 4.34908C350.609 4.97423 350.452 5.70757 350.452 6.54911C350.452 7.37863 350.609 8.11197 350.921 8.74914C351.246 9.37428 351.691 9.86118 352.256 10.2098C352.833 10.5464 353.488 10.7147 354.221 10.7147C354.906 10.7147 355.507 10.5645 356.024 10.2639C356.553 9.95134 356.962 9.4945 357.251 8.8934H360.154C359.733 10.1798 358.994 11.1836 357.936 11.9049C356.89 12.6142 355.658 12.9689 354.239 12.9689C353.037 12.9689 351.949 12.6984 350.975 12.1574C350.013 11.6044 349.25 10.841 348.685 9.86719C348.132 8.8934 347.855 7.78738 347.855 6.54911Z" fill="white"/>
<path d="M341.612 0.275391V2.31312H338.258V12.8624H335.733V2.31312H332.379V0.275391H341.612Z" fill="white"/>
<path d="M327.625 12.8624L324.848 7.95745H323.657V12.8624H321.133V0.275391H325.857C326.831 0.275391 327.661 0.44971 328.346 0.798348C329.031 1.13496 329.542 1.59781 329.879 2.18689C330.227 2.76395 330.402 3.41313 330.402 4.13445C330.402 4.96397 330.161 5.71535 329.68 6.38858C329.2 7.04979 328.484 7.50663 327.535 7.75909L330.546 12.8624H327.625ZM323.657 6.06399H325.767C326.453 6.06399 326.963 5.90169 327.3 5.5771C327.637 5.24048 327.805 4.77763 327.805 4.18855C327.805 3.6115 327.637 3.16668 327.3 2.85411C326.963 2.52952 326.453 2.36722 325.767 2.36722H323.657V6.06399Z" fill="white"/>
<path d="M312.452 12.9893C311.274 12.9893 310.192 12.7128 309.206 12.1598C308.22 11.6068 307.439 10.8434 306.862 9.86959C306.285 8.88379 305.996 7.77175 305.996 6.53349C305.996 5.30724 306.285 4.20723 306.862 3.23345C307.439 2.24764 308.22 1.47823 309.206 0.925221C310.192 0.372209 311.274 0.0957031 312.452 0.0957031C313.642 0.0957031 314.724 0.372209 315.698 0.925221C316.684 1.47823 317.459 2.24764 318.024 3.23345C318.601 4.20723 318.89 5.30724 318.89 6.53349C318.89 7.77175 318.601 8.88379 318.024 9.86959C317.459 10.8434 316.684 11.6068 315.698 12.1598C314.712 12.7128 313.63 12.9893 312.452 12.9893ZM312.452 10.7352C313.209 10.7352 313.877 10.5669 314.454 10.2303C315.031 9.88162 315.481 9.38871 315.806 8.75155C316.131 8.11438 316.293 7.37503 316.293 6.53349C316.293 5.69195 316.131 4.9586 315.806 4.33346C315.481 3.69629 315.031 3.2094 314.454 2.87279C313.877 2.53617 313.209 2.36786 312.452 2.36786C311.695 2.36786 311.021 2.53617 310.432 2.87279C309.855 3.2094 309.404 3.69629 309.08 4.33346C308.755 4.9586 308.593 5.69195 308.593 6.53349C308.593 7.37503 308.755 8.11438 309.08 8.75155C309.404 9.38871 309.855 9.88162 310.432 10.2303C311.021 10.5669 311.695 10.7352 312.452 10.7352Z" fill="white"/>
<path d="M304.46 4.17052C304.46 4.84375 304.298 5.47491 303.973 6.06399C303.661 6.65307 303.162 7.12793 302.476 7.48859C301.803 7.84925 300.95 8.02959 299.916 8.02959H297.806V12.8624H295.281V0.275391H299.916C300.89 0.275391 301.719 0.443699 302.404 0.780316C303.09 1.11693 303.6 1.57978 303.937 2.16886C304.286 2.75793 304.46 3.42516 304.46 4.17052ZM299.808 5.99185C300.505 5.99185 301.022 5.83557 301.358 5.523C301.695 5.1984 301.863 4.74758 301.863 4.17052C301.863 2.94428 301.178 2.33115 299.808 2.33115H297.806V5.99185H299.808Z" fill="white"/>
<path d="M288.276 12.9893C287.398 12.9893 286.605 12.839 285.896 12.5385C285.198 12.2379 284.645 11.8051 284.237 11.2401C283.828 10.6751 283.617 10.0078 283.605 9.23844H286.31C286.346 9.75539 286.527 10.1641 286.851 10.4647C287.188 10.7652 287.645 10.9155 288.222 10.9155C288.811 10.9155 289.274 10.7773 289.61 10.5007C289.947 10.2122 290.115 9.83954 290.115 9.3827C290.115 9.01002 290.001 8.70346 289.773 8.46302C289.544 8.22258 289.256 8.03624 288.907 7.904C288.571 7.75973 288.102 7.60345 287.501 7.43514C286.683 7.1947 286.016 6.96027 285.499 6.73185C284.994 6.49141 284.555 6.13676 284.183 5.6679C283.822 5.18702 283.642 4.54986 283.642 3.7564C283.642 3.01104 283.828 2.36185 284.201 1.80884C284.573 1.25583 285.096 0.835057 285.769 0.546529C286.443 0.245979 287.212 0.0957031 288.078 0.0957031C289.376 0.0957031 290.428 0.414286 291.233 1.05145C292.051 1.6766 292.502 2.5542 292.586 3.68427H289.809C289.785 3.25148 289.598 2.89683 289.25 2.62032C288.913 2.3318 288.462 2.18753 287.897 2.18753C287.404 2.18753 287.008 2.31376 286.707 2.56623C286.419 2.81869 286.274 3.18536 286.274 3.66624C286.274 4.00285 286.383 4.28537 286.599 4.51379C286.827 4.73019 287.104 4.91052 287.428 5.05478C287.765 5.18702 288.234 5.34331 288.835 5.52364C289.653 5.76408 290.32 6.00452 290.837 6.24496C291.354 6.4854 291.798 6.84606 292.171 7.32694C292.544 7.80782 292.73 8.43898 292.73 9.22041C292.73 9.89364 292.556 10.5188 292.207 11.0958C291.859 11.6729 291.348 12.1357 290.674 12.4844C290.001 12.821 289.202 12.9893 288.276 12.9893Z" fill="white"/>
<path d="M281.074 12.857H278.55L272.833 4.21922V12.857H270.309V0.251953H272.833L278.55 8.9078V0.251953H281.074V12.857Z" fill="white"/>
<path d="M264.759 10.4586H259.746L258.916 12.857H256.266L260.792 0.251953H263.731L268.258 12.857H265.589L264.759 10.4586ZM264.074 8.43894L262.253 3.1733L260.431 8.43894H264.074Z" fill="white"/>
<path d="M251.617 12.8624L248.84 7.95745H247.65V12.8624H245.125V0.275391H249.85C250.823 0.275391 251.653 0.44971 252.338 0.798348C253.023 1.13496 253.534 1.59781 253.871 2.18689C254.22 2.76395 254.394 3.41313 254.394 4.13445C254.394 4.96397 254.154 5.71535 253.673 6.38858C253.192 7.04979 252.476 7.50663 251.527 7.75909L254.538 12.8624H251.617ZM247.65 6.06399H249.759C250.445 6.06399 250.956 5.90169 251.292 5.5771C251.629 5.24048 251.797 4.77763 251.797 4.18855C251.797 3.6115 251.629 3.16668 251.292 2.85411C250.956 2.52952 250.445 2.36722 249.759 2.36722H247.65V6.06399Z" fill="white"/>
<path d="M242.92 0.275391V2.31312H239.566V12.8624H237.042V2.31312H233.688V0.275391H242.92Z" fill="white"/>
<path d="M220.814 0.275391C222.137 0.275391 223.297 0.533864 224.294 1.05081C225.304 1.56776 226.08 2.30711 226.621 3.26887C227.174 4.21861 227.45 5.32463 227.45 6.58694C227.45 7.84925 227.174 8.95528 226.621 9.90502C226.08 10.8427 225.304 11.5701 224.294 12.087C223.297 12.604 222.137 12.8624 220.814 12.8624H216.414V0.275391H220.814ZM220.724 10.7165C222.046 10.7165 223.068 10.3558 223.79 9.63452C224.511 8.9132 224.872 7.89734 224.872 6.58694C224.872 5.27655 224.511 4.25467 223.79 3.52133C223.068 2.77597 222.046 2.40329 220.724 2.40329H218.939V10.7165H220.724Z" fill="white"/>
<path d="M210.861 10.4586H205.848L205.018 12.857H202.367L206.893 0.251953H209.833L214.359 12.857H211.69L210.861 10.4586ZM210.175 8.43894L208.354 3.1733L206.533 8.43894H210.175Z" fill="white"/>
<path d="M194.468 12.9893C193.289 12.9893 192.207 12.7128 191.222 12.1598C190.236 11.6068 189.454 10.8434 188.877 9.86959C188.3 8.88379 188.012 7.77175 188.012 6.53349C188.012 5.30724 188.3 4.20723 188.877 3.23345C189.454 2.24764 190.236 1.47823 191.222 0.925221C192.207 0.372209 193.289 0.0957031 194.468 0.0957031C195.658 0.0957031 196.74 0.372209 197.713 0.925221C198.699 1.47823 199.475 2.24764 200.04 3.23345C200.617 4.20723 200.905 5.30724 200.905 6.53349C200.905 7.77175 200.617 8.88379 200.04 9.86959C199.475 10.8434 198.699 11.6068 197.713 12.1598C196.728 12.7128 195.646 12.9893 194.468 12.9893ZM194.468 10.7352C195.225 10.7352 195.892 10.5669 196.469 10.2303C197.046 9.88162 197.497 9.38871 197.822 8.75155C198.146 8.11438 198.309 7.37503 198.309 6.53349C198.309 5.69195 198.146 4.9586 197.822 4.33346C197.497 3.69629 197.046 3.2094 196.469 2.87279C195.892 2.53617 195.225 2.36786 194.468 2.36786C193.71 2.36786 193.037 2.53617 192.448 2.87279C191.871 3.2094 191.42 3.69629 191.095 4.33346C190.771 4.9586 190.608 5.69195 190.608 6.53349C190.608 7.37503 190.771 8.11438 191.095 8.75155C191.42 9.38871 191.871 9.88162 192.448 10.2303C193.037 10.5669 193.71 10.7352 194.468 10.7352Z" fill="white"/>
<path d="M183.207 12.8624L180.43 7.95745H179.239V12.8624H176.715V0.275391H181.439C182.413 0.275391 183.243 0.44971 183.928 0.798348C184.613 1.13496 185.124 1.59781 185.461 2.18689C185.809 2.76395 185.984 3.41313 185.984 4.13445C185.984 4.96397 185.743 5.71535 185.262 6.38858C184.782 7.04979 184.066 7.50663 183.117 7.75909L186.128 12.8624H183.207ZM179.239 6.06399H181.349C182.035 6.06399 182.546 5.90169 182.882 5.5771C183.219 5.24048 183.387 4.77763 183.387 4.18855C183.387 3.6115 183.219 3.16668 182.882 2.85411C182.546 2.52952 182.035 2.36722 181.349 2.36722H179.239V6.06399Z" fill="white"/>
<path d="M164.618 2.30772V5.46349H168.856V7.46516H164.618V10.8013H169.397V12.857H162.094V0.251953H169.397V2.30772H164.618Z" fill="white"/>
<path d="M159.893 0.275391V2.31312H156.539V12.8624H154.014V2.31312H150.66V0.275391H159.893Z" fill="white"/>
<path d="M145.775 10.4586H140.762L139.932 12.857H137.281L141.808 0.251953H144.747L149.273 12.857H146.604L145.775 10.4586ZM145.09 8.43894L143.268 3.1733L141.447 8.43894H145.09Z" fill="white"/>
<path d="M135.858 0.275391V2.31312H132.504V12.8624H129.979V2.31312H126.625V0.275391H135.858Z" fill="white"/>
<path d="M120.288 12.9893C119.41 12.9893 118.617 12.839 117.907 12.5385C117.21 12.2379 116.657 11.8051 116.248 11.2401C115.84 10.6751 115.629 10.0078 115.617 9.23844H118.322C118.358 9.75539 118.539 10.1641 118.863 10.4647C119.2 10.7652 119.657 10.9155 120.234 10.9155C120.823 10.9155 121.286 10.7773 121.622 10.5007C121.959 10.2122 122.127 9.83954 122.127 9.3827C122.127 9.01002 122.013 8.70346 121.784 8.46302C121.556 8.22258 121.268 8.03624 120.919 7.904C120.582 7.75973 120.113 7.60345 119.512 7.43514C118.695 7.1947 118.028 6.96027 117.511 6.73185C117.006 6.49141 116.567 6.13676 116.194 5.6679C115.834 5.18702 115.653 4.54986 115.653 3.7564C115.653 3.01104 115.84 2.36185 116.212 1.80884C116.585 1.25583 117.108 0.835057 117.781 0.546529C118.454 0.245979 119.224 0.0957031 120.089 0.0957031C121.388 0.0957031 122.44 0.414286 123.245 1.05145C124.063 1.6766 124.513 2.5542 124.598 3.68427H121.821C121.796 3.25148 121.61 2.89683 121.262 2.62032C120.925 2.3318 120.474 2.18753 119.909 2.18753C119.416 2.18753 119.019 2.31376 118.719 2.56623C118.43 2.81869 118.286 3.18536 118.286 3.66624C118.286 4.00285 118.394 4.28537 118.611 4.51379C118.839 4.73019 119.116 4.91052 119.44 5.05478C119.777 5.18702 120.246 5.34331 120.847 5.52364C121.664 5.76408 122.331 6.00452 122.848 6.24496C123.365 6.4854 123.81 6.84606 124.183 7.32694C124.556 7.80782 124.742 8.43898 124.742 9.22041C124.742 9.89364 124.568 10.5188 124.219 11.0958C123.87 11.6729 123.359 12.1357 122.686 12.4844C122.013 12.821 121.213 12.9893 120.288 12.9893Z" fill="white"/>
<path d="M105.732 10.4586H100.719L99.8891 12.857H97.2383L101.765 0.251953H104.704L109.23 12.857H106.561L105.732 10.4586ZM105.047 8.43894L103.225 3.1733L101.404 8.43894H105.047Z" fill="white"/>
<path d="M95.1602 12.857H92.6356L86.9192 4.21922V12.857H84.3945V0.251953H86.9192L92.6356 8.9078V0.251953H95.1602V12.857Z" fill="white"/>
<path d="M78.8451 10.4586H73.8319L73.0024 12.857H70.3516L74.8778 0.251953H77.8172L82.3435 12.857H79.6746L78.8451 10.4586ZM78.1599 8.43894L76.3385 3.1733L74.5172 8.43894H78.1599Z" fill="white"/>
<path d="M65.6819 4.06056C65.3933 3.53159 64.9966 3.12885 64.4917 2.85235C63.9868 2.57584 63.3977 2.43759 62.7244 2.43759C61.9791 2.43759 61.3179 2.60589 60.7408 2.94251C60.1638 3.27913 59.7129 3.76001 59.3883 4.38515C59.0637 5.0103 58.9014 5.73162 58.9014 6.54911C58.9014 7.39065 59.0637 8.124 59.3883 8.74914C59.725 9.37428 60.1878 9.85516 60.7769 10.1918C61.366 10.5284 62.0512 10.6967 62.8326 10.6967C63.7944 10.6967 64.5818 10.4442 65.195 9.93932C65.8081 9.42237 66.2108 8.70706 66.4032 7.79339H62.0753V5.86386H68.8917V8.06388C68.7234 8.94149 68.3628 9.75298 67.8097 10.4983C67.2567 11.2437 66.5414 11.8448 65.6638 12.3016C64.7982 12.7465 63.8245 12.9689 62.7425 12.9689C61.5282 12.9689 60.4282 12.6984 59.4424 12.1574C58.4687 11.6044 57.6992 10.841 57.1342 9.86719C56.5812 8.8934 56.3047 7.78738 56.3047 6.54911C56.3047 5.31084 56.5812 4.20482 57.1342 3.23104C57.6992 2.24523 58.4687 1.48184 59.4424 0.940847C60.4282 0.387834 61.5222 0.111328 62.7244 0.111328C64.143 0.111328 65.3753 0.459966 66.4212 1.15724C67.4671 1.8425 68.1884 2.81027 68.5852 4.06056H65.6819Z" fill="white"/>
<path d="M54.0665 12.857H51.5419L45.8254 4.21922V12.857H43.3008V0.251953H45.8254L51.5419 8.9078V0.251953H54.0665V12.857Z" fill="white"/>
<path d="M37.7514 10.4586H32.7382L31.9087 12.857H29.2578L33.7841 0.251953H36.7235L41.2498 12.857H38.5809L37.7514 10.4586ZM37.0661 8.43894L35.2448 3.1733L33.4234 8.43894H37.0661Z" fill="white"/>
<path d="M23.9192 10.8608H28.0667V12.8624H21.3945V0.275391H23.9192V10.8608Z" fill="white"/>
<path d="M13.9582 2.30772V5.46349H18.196V7.46516H13.9582V10.8013H18.737V12.857H11.4336V0.251953H18.737V2.30772H13.9582Z" fill="white"/>
<path d="M9.2329 0.275391V2.31312H5.87876V12.8624H3.35414V2.31312H0V0.275391H9.2329Z" fill="white"/>
</svg>
