<svg width="328" height="29" viewBox="0 0 328 29" fill="none" xmlns="http://www.w3.org/2000/svg">
<path d="M323.722 27.2292C323.077 27.2292 322.551 27.124 322.144 26.9136C321.723 26.7172 321.31 26.3596 320.903 25.8406H321.387C320.91 26.3596 320.468 26.7172 320.061 26.9136C319.641 27.124 319.122 27.2292 318.505 27.2292C317.887 27.2292 317.375 27.0889 316.969 26.8084C316.562 26.5279 316.26 26.1562 316.064 25.6933C315.868 25.2305 315.77 24.7326 315.77 24.1996C315.77 23.316 316.008 22.5516 316.485 21.9064C316.948 21.2612 317.586 20.7633 318.399 20.4127C319.199 20.062 320.103 19.8867 321.113 19.8867C322.151 19.8867 323.077 20.0691 323.89 20.4337C324.69 20.8124 325.321 21.3244 325.784 21.9695C326.247 22.6287 326.478 23.3861 326.478 24.2417C326.478 24.7466 326.394 25.2235 326.226 25.6723C326.043 26.1352 325.749 26.5068 325.342 26.7874C324.935 27.0819 324.395 27.2292 323.722 27.2292ZM323.217 25.3357C323.498 25.3357 323.722 25.2305 323.89 25.0201C324.059 24.8097 324.143 24.5292 324.143 24.1786C324.143 23.4352 323.855 22.8461 323.28 22.4113C322.705 21.9906 321.983 21.7802 321.113 21.7802C320.174 21.7802 319.437 21.9906 318.904 22.4113C318.357 22.8321 318.084 23.4072 318.084 24.1365C318.084 24.5012 318.168 24.7887 318.336 24.9991C318.505 25.2235 318.736 25.3357 319.03 25.3357C319.311 25.3357 319.542 25.2656 319.725 25.1253C319.893 24.9991 320.033 24.8167 320.146 24.5783H322.081C322.193 24.8448 322.334 25.0341 322.502 25.1463C322.67 25.2726 322.909 25.3357 323.217 25.3357ZM320.082 28.5967L320.167 26.8925H322.018L322.165 28.5967H320.082ZM319.998 23.337C319.998 23.0285 320.103 22.797 320.314 22.6428C320.524 22.5025 320.791 22.4324 321.113 22.4324C321.478 22.4324 321.758 22.5095 321.955 22.6638C322.151 22.8181 322.249 23.0425 322.249 23.337C322.249 23.6596 322.151 23.891 321.955 24.0313C321.744 24.1716 321.464 24.2417 321.113 24.2417C320.777 24.2417 320.51 24.1645 320.314 24.0103C320.103 23.87 319.998 23.6456 319.998 23.337Z" fill="white"/>
<path d="M322.799 19.0069C322.21 19.0069 321.642 18.9227 321.095 18.7544C320.562 18.6001 320.008 18.3126 319.433 17.8918C318.872 17.4711 318.255 16.882 317.581 16.1246C317.273 15.774 317.02 15.5145 316.824 15.3462C316.642 15.1639 316.487 15.0446 316.361 14.9885C316.235 14.9184 316.095 14.8833 315.94 14.8833C315.758 14.8833 315.59 14.9605 315.436 15.1148C315.281 15.269 315.204 15.4794 315.204 15.7459C315.204 16.0966 315.281 16.4682 315.436 16.861C315.604 17.2537 315.842 17.6744 316.151 18.1233L313.205 19.0279C312.953 18.537 312.736 18.0181 312.553 17.4711C312.385 16.9101 312.301 16.3069 312.301 15.6618C312.301 15.0166 312.455 14.4485 312.764 13.9576C313.072 13.4527 313.493 13.06 314.026 12.7795C314.573 12.485 315.19 12.3377 315.877 12.3377C316.522 12.3377 317.091 12.4359 317.581 12.6322C318.072 12.8286 318.528 13.1091 318.949 13.4738C319.384 13.8384 319.826 14.2732 320.274 14.7781C320.681 15.2129 321.025 15.5566 321.305 15.809C321.586 16.0475 321.852 16.2158 322.105 16.314C322.371 16.4121 322.659 16.4612 322.967 16.4612C323.36 16.4612 323.69 16.321 323.956 16.0405C324.223 15.7599 324.356 15.3392 324.356 14.7781C324.356 14.1189 324.209 13.5369 323.914 13.032C323.619 12.527 323.234 12.0782 322.757 11.6855C322.28 11.2787 321.775 10.9071 321.242 10.5704L322.904 8.23517C323.732 8.68399 324.475 9.21697 325.134 9.8341C325.793 10.4512 326.312 11.1525 326.691 11.938C327.084 12.7094 327.28 13.579 327.28 14.5467C327.28 15.4444 327.105 16.2298 326.754 16.903C326.418 17.5622 325.913 18.0812 325.239 18.4599C324.58 18.8246 323.767 19.0069 322.799 19.0069ZM316.53 10.4232C315.87 10.4232 315.288 10.318 314.783 10.1076C314.278 9.88319 313.851 9.52553 313.5 9.03464C313.149 8.52971 312.876 7.84947 312.679 6.9939L315.541 6.25755C315.695 6.97286 315.863 7.4848 316.046 7.79336C316.228 8.0879 316.48 8.23517 316.803 8.23517C317.013 8.23517 317.224 8.15803 317.434 8.00375C317.645 7.84947 317.925 7.55493 318.276 7.12013L319.159 6.00509C319.65 5.38796 320.113 4.90407 320.548 4.55343C320.983 4.18876 321.453 3.92228 321.957 3.75397C322.476 3.58566 323.094 3.49449 323.809 3.48047L323.977 5.92094C323.5 5.94899 323.087 6.03314 322.736 6.1734C322.399 6.29963 322.091 6.48196 321.81 6.7204C321.53 6.95884 321.235 7.27441 320.927 7.66713L320.232 8.52971C319.966 8.86633 319.65 9.18191 319.286 9.47644C318.921 9.75696 318.507 9.98838 318.044 10.1707C317.595 10.339 317.091 10.4232 316.53 10.4232Z" fill="white"/>
<path d="M299.574 14.3956C299.574 13.512 299.785 12.7195 300.205 12.0183C300.626 11.317 301.222 10.763 301.994 10.3562C302.765 9.94947 303.684 9.74609 304.75 9.74609C305.83 9.74609 306.748 9.94947 307.506 10.3562C308.263 10.763 308.838 11.317 309.231 12.0183C309.638 12.7195 309.841 13.512 309.841 14.3956C309.841 15.2792 309.638 16.0717 309.231 16.773C308.824 17.4602 308.235 18.0072 307.464 18.414C306.706 18.8067 305.788 19.003 304.708 19.003C303.642 19.003 302.723 18.7997 301.952 18.3929C301.18 17.9862 300.591 17.4392 300.184 16.7519C299.778 16.0506 299.574 15.2652 299.574 14.3956ZM302.393 14.3746C302.393 15.0197 302.583 15.5667 302.961 16.0156C303.354 16.4504 303.936 16.6678 304.708 16.6678C305.227 16.6678 305.654 16.5696 305.991 16.3732C306.328 16.1628 306.58 15.8823 306.748 15.5317C306.931 15.181 307.022 14.7953 307.022 14.3746C307.022 13.7294 306.818 13.1894 306.412 12.7546C306.019 12.3058 305.451 12.0814 304.708 12.0814C304.217 12.0814 303.796 12.1866 303.445 12.3969C303.109 12.5933 302.849 12.8668 302.667 13.2174C302.485 13.5541 302.393 13.9398 302.393 14.3746Z" fill="white"/>
<path d="M292.498 19.0069C291.909 19.0069 291.341 18.9227 290.794 18.7544C290.261 18.6001 289.707 18.3126 289.132 17.8918C288.571 17.4711 287.954 16.882 287.281 16.1246C286.972 15.774 286.72 15.5145 286.523 15.3462C286.341 15.1639 286.187 15.0446 286.06 14.9885C285.934 14.9184 285.794 14.8833 285.64 14.8833C285.457 14.8833 285.289 14.9605 285.135 15.1148C284.98 15.269 284.903 15.4794 284.903 15.7459C284.903 16.0966 284.98 16.4682 285.135 16.861C285.303 17.2537 285.541 17.6744 285.85 18.1233L282.905 19.0279C282.652 18.537 282.435 18.0181 282.252 17.4711C282.084 16.9101 282 16.3069 282 15.6618C282 15.0166 282.154 14.4485 282.463 13.9576C282.771 13.4527 283.192 13.06 283.725 12.7795C284.272 12.485 284.889 12.3377 285.577 12.3377C286.222 12.3377 286.79 12.4359 287.281 12.6322C287.772 12.8286 288.227 13.1091 288.648 13.4738C289.083 13.8384 289.525 14.2732 289.974 14.7781C290.38 15.2129 290.724 15.5566 291.004 15.809C291.285 16.0475 291.551 16.2158 291.804 16.314C292.07 16.4121 292.358 16.4612 292.667 16.4612C293.059 16.4612 293.389 16.321 293.655 16.0405C293.922 15.7599 294.055 15.3392 294.055 14.7781C294.055 14.1189 293.908 13.5369 293.613 13.032C293.319 12.527 292.933 12.0782 292.456 11.6855C291.979 11.2787 291.474 10.9071 290.941 10.5704L292.603 8.23517C293.431 8.68399 294.174 9.21697 294.833 9.8341C295.493 10.4512 296.012 11.1525 296.39 11.938C296.783 12.7094 296.979 13.579 296.979 14.5467C296.979 15.4444 296.804 16.2298 296.453 16.903C296.117 17.5622 295.612 18.0812 294.939 18.4599C294.279 18.8246 293.466 19.0069 292.498 19.0069ZM286.229 10.4232C285.57 10.4232 284.987 10.318 284.483 10.1076C283.978 9.88319 283.55 9.52553 283.199 9.03464C282.849 8.52971 282.575 7.84947 282.379 6.9939L285.24 6.25755C285.394 6.97286 285.563 7.4848 285.745 7.79336C285.927 8.0879 286.18 8.23517 286.502 8.23517C286.713 8.23517 286.923 8.15803 287.133 8.00375C287.344 7.84947 287.624 7.55493 287.975 7.12013L288.859 6.00509C289.349 5.38796 289.812 4.90407 290.247 4.55343C290.682 4.18876 291.152 3.92228 291.657 3.75397C292.176 3.58566 292.793 3.49449 293.508 3.48047L293.676 5.92094C293.199 5.94899 292.786 6.03314 292.435 6.1734C292.098 6.29963 291.79 6.48196 291.509 6.7204C291.229 6.95884 290.934 7.27441 290.626 7.66713L289.932 8.52971C289.665 8.86633 289.349 9.18191 288.985 9.47644C288.62 9.75696 288.206 9.98838 287.743 10.1707C287.295 10.339 286.79 10.4232 286.229 10.4232Z" fill="white"/>
<path d="M260.683 19.0022C259.785 19.0022 259.063 18.8549 258.516 18.5604C257.983 18.2518 257.597 17.8591 257.358 17.3822C257.134 16.9053 257.022 16.4004 257.022 15.8674C257.022 15.1802 257.176 14.6121 257.485 14.1633C257.793 13.7145 258.2 13.3849 258.705 13.1745C259.224 12.9501 259.771 12.8379 260.346 12.8379C261.075 12.8379 261.685 12.9641 262.176 13.2166C262.681 13.455 263.095 13.7426 263.418 14.0792C263.754 14.4018 264.021 14.6893 264.217 14.9418L263.144 17.0877C262.99 16.709 262.8 16.3513 262.576 16.0147C262.366 15.6781 262.113 15.4046 261.819 15.1942C261.524 14.9698 261.173 14.8576 260.767 14.8576C260.458 14.8576 260.178 14.9418 259.925 15.1101C259.673 15.2784 259.547 15.5449 259.547 15.9095C259.547 16.2321 259.652 16.4846 259.862 16.6669C260.072 16.8492 260.353 16.9404 260.704 16.9404C261.166 16.9404 261.531 16.8142 261.798 16.5617C262.078 16.3093 262.275 15.9726 262.387 15.5519C262.499 15.1311 262.555 14.6753 262.555 14.1844V13.6584C262.555 13.0834 262.478 12.5644 262.324 12.1016C262.169 11.6387 261.924 11.274 261.587 11.0076C261.265 10.7411 260.83 10.6078 260.283 10.6078C259.946 10.6078 259.638 10.685 259.357 10.8392C259.091 10.9795 258.866 11.1759 258.684 11.4283C258.502 11.6808 258.368 11.9753 258.284 12.3119H255.57C255.5 12.0875 255.374 11.8421 255.192 11.5756C255.023 11.2951 254.771 11.0566 254.434 10.8603C254.098 10.6499 253.635 10.5447 253.046 10.5447C252.555 10.5447 252.155 10.6289 251.846 10.7972C251.552 10.9514 251.405 11.2109 251.405 11.5756C251.405 11.7158 251.426 11.8491 251.468 11.9753C251.524 12.0875 251.622 12.1857 251.762 12.2699C251.888 12.34 252.05 12.4031 252.246 12.4592C252.457 12.5013 252.779 12.5223 253.214 12.5223H254.455V14.7103H253.151C252.716 14.7103 252.379 14.7314 252.141 14.7734C251.903 14.8155 251.713 14.8927 251.573 15.0049C251.475 15.089 251.391 15.1942 251.32 15.3204C251.264 15.4327 251.236 15.5659 251.236 15.7202C251.236 16.0007 251.327 16.2321 251.51 16.4144C251.706 16.5968 252.022 16.688 252.457 16.688C252.919 16.688 253.333 16.5687 253.698 16.3303C254.076 16.0919 254.441 15.7763 254.792 15.3836L256.601 16.9825C256.222 17.4173 255.809 17.789 255.36 18.0975C254.925 18.3921 254.441 18.6165 253.908 18.7708C253.375 18.925 252.765 19.0022 252.078 19.0022C250.759 19.0022 249.764 18.7287 249.09 18.1817C248.431 17.6207 248.102 16.9334 248.102 16.1199C248.102 15.7272 248.179 15.3625 248.333 15.0259C248.487 14.6753 248.726 14.3737 249.048 14.1213C249.385 13.8548 249.806 13.6444 250.311 13.4901L250.29 13.7636C249.602 13.5111 249.09 13.1815 248.754 12.7748C248.431 12.354 248.27 11.8561 248.27 11.2811C248.27 10.7621 248.452 10.3203 248.817 9.95563C249.196 9.57693 249.715 9.28239 250.374 9.07201C251.033 8.86162 251.79 8.75643 252.646 8.75643C253.403 8.75643 254.034 8.8476 254.539 9.02993C255.058 9.19824 255.514 9.4507 255.907 9.78732C256.314 10.1099 256.734 10.5096 257.169 10.9865L256.685 11.0076C257.022 10.5307 257.387 10.145 257.779 9.85043C258.172 9.54187 258.593 9.31746 259.042 9.1772C259.504 9.02292 259.988 8.94578 260.493 8.94578C261.559 8.94578 262.45 9.13512 263.165 9.51382C263.88 9.89251 264.42 10.4465 264.785 11.1759C265.15 11.9052 265.332 12.7958 265.332 13.8478C265.332 14.8857 265.164 15.7973 264.827 16.5828C264.491 17.3542 263.979 17.9503 263.291 18.371C262.604 18.7918 261.735 19.0022 260.683 19.0022ZM270.213 14.8786C269.568 14.8786 269.035 14.7805 268.614 14.5841C268.193 14.3877 267.864 14.1423 267.625 13.8478C267.387 13.5392 267.219 13.2166 267.12 12.88C267.022 12.5434 266.973 12.2348 266.973 11.9543C266.973 11.3792 267.064 10.9094 267.247 10.5447C267.429 10.18 267.618 9.84342 267.815 9.53486L270.087 9.70316C269.778 9.9977 269.533 10.2852 269.35 10.5657C269.168 10.8463 269.077 11.2039 269.077 11.6387C269.077 11.9893 269.182 12.2769 269.393 12.5013C269.617 12.7257 269.897 12.8379 270.234 12.8379C270.641 12.8379 270.942 12.7397 271.139 12.5434C271.349 12.333 271.454 12.0735 271.454 11.7649C271.454 11.3442 271.279 11.0496 270.928 10.8813C270.592 10.699 270.136 10.6078 269.561 10.6078H255.255L253.824 10.0398L251.236 10.6078H248.333V8.23047H267.752C268.607 8.23047 269.315 8.25852 269.876 8.31462C270.451 8.3567 270.935 8.44085 271.328 8.56708C271.735 8.69332 272.106 8.88967 272.443 9.15616C272.794 9.42265 273.074 9.75927 273.285 10.166C273.495 10.5728 273.6 11.0847 273.6 11.7018C273.6 12.6135 273.299 13.3709 272.696 13.974C272.107 14.5771 271.279 14.8786 270.213 14.8786Z" fill="white"/>
<path d="M233.448 19.0022C232.775 19.0022 232.178 18.904 231.659 18.7076C231.141 18.5113 230.615 18.1817 230.082 17.7188C229.563 17.242 228.939 16.5968 228.209 15.7833C227.816 15.3345 227.508 15.0259 227.283 14.8576C227.059 14.6753 226.8 14.5841 226.505 14.5841C226.281 14.5841 226.056 14.6753 225.832 14.8576C225.621 15.0259 225.516 15.2924 225.516 15.6571C225.516 16.0919 225.628 16.3934 225.853 16.5617C226.091 16.73 226.365 16.8142 226.673 16.8142C227.01 16.8142 227.347 16.6739 227.683 16.3934C228.02 16.1129 228.258 15.6501 228.399 15.0049L230.145 16.8563C229.864 17.249 229.57 17.6136 229.261 17.9503C228.967 18.2729 228.595 18.5323 228.146 18.7287C227.697 18.911 227.094 19.0022 226.337 19.0022C225.509 19.0022 224.829 18.8479 224.296 18.5393C223.777 18.2167 223.391 17.803 223.139 17.2981C222.9 16.7791 222.781 16.2391 222.781 15.6781C222.781 15.0049 222.943 14.4228 223.265 13.9319C223.588 13.427 224.03 13.0343 224.591 12.7537C225.152 12.4732 225.783 12.333 226.484 12.333C227.073 12.333 227.592 12.4101 228.041 12.5644C228.49 12.7187 228.924 12.9711 229.345 13.3218C229.78 13.6724 230.257 14.1353 230.776 14.7103C231.225 15.2012 231.596 15.5729 231.891 15.8254C232.185 16.0778 232.452 16.2461 232.69 16.3303C232.929 16.4144 233.174 16.4565 233.427 16.4565C233.876 16.4565 234.233 16.3163 234.5 16.0358C234.766 15.7552 234.899 15.3064 234.899 14.6893C234.899 13.974 234.71 13.3218 234.331 12.7327C233.953 12.1436 233.434 11.6387 232.775 11.2179C232.115 10.7972 231.365 10.4956 230.523 10.3133L235.552 10.2291C236.014 10.5377 236.414 10.9094 236.751 11.3442C237.101 11.7649 237.368 12.2418 237.55 12.7748C237.733 13.2937 237.824 13.8618 237.824 14.4789C237.824 15.3906 237.655 16.19 237.319 16.8773C236.982 17.5505 236.484 18.0765 235.825 18.4552C235.18 18.8199 234.387 19.0022 233.448 19.0022ZM242.515 14.8786C241.87 14.8786 241.337 14.7805 240.916 14.5841C240.496 14.3877 240.166 14.1423 239.928 13.8478C239.689 13.5392 239.521 13.2166 239.423 12.88C239.325 12.5434 239.275 12.2348 239.275 11.9543C239.275 11.3792 239.367 10.9094 239.549 10.5447C239.731 10.18 239.921 9.84342 240.117 9.53486L242.368 9.70316C242.074 9.9977 241.835 10.2852 241.653 10.5657C241.47 10.8463 241.379 11.2039 241.379 11.6387C241.379 11.9893 241.484 12.2769 241.695 12.5013C241.919 12.7257 242.2 12.8379 242.536 12.8379C242.943 12.8379 243.245 12.7397 243.441 12.5434C243.637 12.333 243.736 12.0735 243.736 11.7649C243.736 11.3442 243.567 11.0496 243.231 10.8813C242.894 10.699 242.445 10.6078 241.884 10.6078H225.011V8.23047H240.054C240.909 8.23047 241.618 8.25852 242.179 8.31462C242.74 8.3567 243.217 8.44085 243.609 8.56708C244.016 8.69332 244.388 8.88967 244.724 9.15616C245.089 9.42265 245.37 9.75927 245.566 10.166C245.776 10.5728 245.882 11.0847 245.882 11.7018C245.882 12.6135 245.587 13.3709 244.998 13.974C244.409 14.5771 243.581 14.8786 242.515 14.8786Z" fill="white"/>
<path d="M208.5 13.7893C208.5 12.7514 208.724 11.8187 209.173 10.9912C209.622 10.1497 210.281 9.48346 211.151 8.99256C212.034 8.48763 213.114 8.23517 214.391 8.23517C215.681 8.23517 216.761 8.47361 217.631 8.95048C218.5 9.41333 219.152 10.0585 219.587 10.886C220.036 11.7135 220.261 12.6743 220.261 13.7683C220.261 14.7922 220.043 15.7038 219.608 16.5033C219.174 17.2887 218.521 17.9059 217.652 18.3547C216.782 18.7895 215.695 19.0069 214.391 19.0069C213.086 19.0069 211.992 18.7825 211.109 18.3337C210.239 17.8848 209.587 17.2677 209.152 16.4823C208.717 15.6968 208.5 14.7992 208.5 13.7893ZM211.424 13.5158C211.424 14.3714 211.67 15.0797 212.161 15.6407C212.666 16.1877 213.409 16.4612 214.391 16.4612C215.05 16.4612 215.597 16.342 216.032 16.1036C216.467 15.8511 216.796 15.5145 217.021 15.0937C217.245 14.6589 217.357 14.168 217.357 13.621C217.357 13.06 217.245 12.5551 217.021 12.1063C216.81 11.6574 216.481 11.2998 216.032 11.0333C215.597 10.7528 215.05 10.6125 214.391 10.6125C213.718 10.6125 213.164 10.7458 212.729 11.0123C212.294 11.2787 211.964 11.6364 211.74 12.0852C211.53 12.52 211.424 12.9969 211.424 13.5158ZM213.507 10.4232C212.848 10.4232 212.266 10.318 211.761 10.1076C211.256 9.88319 210.828 9.52553 210.478 9.03464C210.127 8.52971 209.853 7.84947 209.657 6.9939L212.518 6.25755C212.673 6.97286 212.841 7.4848 213.023 7.79336C213.206 8.0879 213.458 8.23517 213.781 8.23517C213.991 8.23517 214.201 8.15803 214.412 8.00375C214.622 7.84947 214.903 7.55493 215.253 7.12013L216.137 6.00509C216.628 5.38796 217.091 4.90407 217.526 4.55343C217.96 4.18876 218.43 3.92228 218.935 3.75397C219.454 3.58566 220.071 3.49449 220.786 3.48047L220.955 5.92094C220.478 5.94899 220.064 6.03314 219.714 6.1734C219.377 6.29963 219.068 6.48196 218.788 6.7204C218.507 6.95884 218.213 7.27441 217.904 7.66713L217.21 8.52971C216.943 8.86633 216.628 9.18191 216.263 9.47644C215.899 9.75696 215.485 9.98838 215.022 10.1707C214.573 10.339 214.068 10.4232 213.507 10.4232Z" fill="white"/>
<path d="M187.278 27.2292C186.395 27.2292 185.715 27.131 185.238 26.9346C184.761 26.7383 184.34 26.4718 183.975 26.1352H184.102C183.709 26.57 183.309 26.8575 182.902 26.9977C182.482 27.152 181.998 27.2292 181.451 27.2292C180.918 27.2292 180.448 27.1029 180.041 26.8505C179.634 26.612 179.319 26.2614 179.094 25.7985C178.87 25.3357 178.758 24.7817 178.758 24.1365C178.758 23.295 178.989 22.5516 179.452 21.9064C179.901 21.2753 180.553 20.7774 181.409 20.4127C182.264 20.062 183.274 19.8867 184.438 19.8867C185.406 19.8867 186.248 19.9498 186.963 20.0761C187.664 20.2023 188.407 20.3987 189.193 20.6651L188.372 22.5586C187.825 22.3482 187.349 22.1869 186.942 22.0747C186.521 21.9625 186.121 21.8854 185.743 21.8433C185.35 21.8012 184.922 21.7802 184.459 21.7802C183.674 21.7802 183.029 21.8854 182.524 22.0958C182.019 22.3202 181.654 22.6077 181.43 22.9583C181.191 23.309 181.072 23.7017 181.072 24.1365C181.072 24.5012 181.156 24.7887 181.325 24.9991C181.479 25.2235 181.71 25.3357 182.019 25.3357C182.299 25.3357 182.538 25.2305 182.734 25.0201C182.916 24.8238 183.029 24.5503 183.071 24.1996H185.09C185.118 24.438 185.175 24.6484 185.259 24.8308C185.343 25.0131 185.476 25.1534 185.658 25.2515C185.841 25.3497 186.093 25.3988 186.416 25.3988C186.57 25.4128 186.738 25.4269 186.921 25.4409C187.089 25.4689 187.271 25.483 187.468 25.483C187.748 25.483 187.973 25.4339 188.141 25.3357C188.295 25.2515 188.372 25.1113 188.372 24.9149C188.372 24.7747 188.323 24.6625 188.225 24.5783C188.113 24.4942 187.959 24.4521 187.762 24.4521C187.58 24.4521 187.433 24.5082 187.32 24.6204C187.194 24.7326 187.131 24.9079 187.131 25.1463C187.131 25.3287 187.18 25.49 187.278 25.6302C187.363 25.7845 187.482 25.9248 187.636 26.051L186.079 26.4507C185.911 26.2123 185.792 25.9388 185.722 25.6302C185.637 25.3217 185.595 25.0762 185.595 24.8939C185.595 24.2768 185.792 23.7718 186.184 23.3791C186.563 22.9864 187.117 22.79 187.846 22.79C188.548 22.79 189.116 22.9864 189.551 23.3791C189.971 23.7859 190.182 24.2838 190.182 24.8728C190.182 25.2656 190.098 25.6372 189.929 25.9879C189.747 26.3526 189.445 26.6471 189.025 26.8715C188.604 27.1099 188.022 27.2292 187.278 27.2292Z" fill="white"/>
<path d="M193.854 19.0022C192.788 19.0022 191.89 18.7567 191.161 18.2658C190.432 17.7749 189.737 17.1578 189.078 16.4144L190.698 14.6051C190.993 14.9418 191.301 15.2503 191.624 15.5308C191.932 15.8113 192.269 16.0358 192.634 16.2041C193.012 16.3724 193.419 16.4565 193.854 16.4565C194.345 16.4565 194.723 16.3163 194.99 16.0358C195.256 15.7552 195.39 15.3345 195.39 14.7734C195.39 14.1142 195.242 13.5322 194.948 13.0272C194.653 12.5223 194.268 12.0735 193.791 11.6808C193.314 11.274 192.809 10.9024 192.276 10.5657L193.938 8.23047C194.766 8.67929 195.509 9.21226 196.168 9.82939C196.827 10.4465 197.346 11.1478 197.725 11.9332C198.118 12.7047 198.314 13.5742 198.314 14.542C198.314 15.8885 197.935 16.9685 197.178 17.782C196.421 18.5954 195.313 19.0022 193.854 19.0022Z" fill="white"/>
<path d="M185.867 19.0069C185.067 19.0069 184.387 18.9297 183.826 18.7755C183.265 18.6352 182.788 18.4318 182.396 18.1653C182.003 17.8848 181.652 17.5622 181.344 17.1976L181.491 17.2186C181.154 17.7095 180.797 18.0882 180.418 18.3547C180.053 18.6072 179.661 18.7755 179.24 18.8596C178.833 18.9578 178.377 19.0069 177.872 19.0069C176.764 19.0069 175.867 18.6142 175.179 17.8287C174.492 17.0433 174.148 15.9283 174.148 14.4836C174.148 13.1371 174.478 12.0011 175.137 11.0754C175.796 10.1357 176.729 9.42735 177.935 8.95048C179.142 8.47361 180.551 8.23517 182.164 8.23517C183.02 8.23517 183.798 8.28426 184.499 8.38244C185.201 8.48062 185.881 8.62789 186.54 8.82425C187.199 9.00658 187.894 9.24502 188.623 9.53956L187.34 11.8959C186.582 11.5593 185.916 11.2998 185.341 11.1174C184.78 10.9351 184.24 10.8089 183.721 10.7388C183.202 10.6546 182.634 10.6125 182.017 10.6125C180.867 10.6125 179.927 10.7808 179.198 11.1174C178.468 11.44 177.928 11.8818 177.578 12.4429C177.241 12.9899 177.073 13.6 177.073 14.2732C177.073 15.0587 177.199 15.6197 177.451 15.9563C177.704 16.2929 178.055 16.4612 178.503 16.4612C178.966 16.4612 179.338 16.2929 179.618 15.9563C179.913 15.6197 180.088 15.1498 180.144 14.5467H182.732C182.774 15.0937 182.936 15.5355 183.216 15.8722C183.511 16.2088 184.001 16.4262 184.689 16.5243C184.899 16.5664 185.131 16.6015 185.383 16.6295C185.649 16.6436 185.93 16.6506 186.225 16.6506C186.617 16.6506 186.926 16.5734 187.15 16.4192C187.375 16.2649 187.487 16.0124 187.487 15.6618C187.487 15.4233 187.403 15.227 187.234 15.0727C187.08 14.9184 186.863 14.8413 186.582 14.8413C186.316 14.8413 186.084 14.9184 185.888 15.0727C185.706 15.227 185.614 15.4794 185.614 15.8301C185.614 16.0825 185.678 16.321 185.804 16.5454C185.93 16.7558 186.105 16.9451 186.33 17.1134L184.289 17.7025C184.051 17.3659 183.868 16.9802 183.742 16.5454C183.63 16.0966 183.574 15.7389 183.574 15.4724C183.574 14.6169 183.84 13.9296 184.373 13.4106C184.92 12.8777 185.685 12.6112 186.666 12.6112C187.312 12.6112 187.873 12.7444 188.349 13.0109C188.826 13.2774 189.198 13.6421 189.464 14.1049C189.731 14.5537 189.864 15.0587 189.864 15.6197C189.864 16.0405 189.794 16.4542 189.654 16.861C189.528 17.2677 189.31 17.6324 189.002 17.955C188.707 18.2776 188.3 18.537 187.781 18.7334C187.262 18.9157 186.624 19.0069 185.867 19.0069ZM181.407 10.4232C180.748 10.4232 180.165 10.318 179.661 10.1076C179.156 9.88319 178.728 9.52553 178.377 9.03464C178.027 8.52971 177.753 7.84947 177.557 6.9939L180.418 6.25755C180.572 6.97286 180.741 7.4848 180.923 7.79336C181.105 8.0879 181.358 8.23517 181.68 8.23517C181.891 8.23517 182.101 8.15803 182.311 8.00375C182.522 7.84947 182.802 7.55493 183.153 7.12013L184.037 6.00509C184.527 5.38796 184.99 4.90407 185.425 4.55343C185.86 4.18876 186.33 3.92228 186.835 3.75397C187.354 3.58566 187.971 3.49449 188.686 3.48047L188.854 5.92094C188.377 5.94899 187.964 6.03314 187.613 6.1734C187.276 6.29963 186.968 6.48196 186.687 6.7204C186.407 6.95884 186.112 7.27441 185.804 7.66713L185.109 8.52971C184.843 8.86633 184.527 9.18191 184.163 9.47644C183.798 9.75696 183.384 9.98838 182.922 10.1707C182.473 10.339 181.968 10.4232 181.407 10.4232Z" fill="white"/>
<path d="M156.164 13.787C156.164 12.7491 156.388 11.8164 156.837 10.9889C157.286 10.1474 157.945 9.48114 158.815 8.99024C159.699 8.48532 160.779 8.23285 162.055 8.23285C163.345 8.23285 164.425 8.47129 165.295 8.94816C166.164 9.41101 166.817 10.0562 167.251 10.8837C167.7 11.7112 167.925 12.672 167.925 13.766C167.925 14.7899 167.707 15.7015 167.272 16.501C166.838 17.2864 166.185 17.9036 165.316 18.3524C164.446 18.7872 163.359 19.0046 162.055 19.0046C160.75 19.0046 159.656 18.7802 158.773 18.3313C157.903 17.8825 157.251 17.2654 156.816 16.4799C156.381 15.6945 156.164 14.7969 156.164 13.787ZM159.088 13.5135C159.088 14.3691 159.334 15.0774 159.825 15.6384C160.33 16.1854 161.073 16.4589 162.055 16.4589C162.714 16.4589 163.261 16.3397 163.696 16.1013C164.131 15.8488 164.46 15.5122 164.685 15.0914C164.909 14.6566 165.021 14.1657 165.021 13.6187C165.021 13.0577 164.909 12.5528 164.685 12.1039C164.474 11.6551 164.145 11.2975 163.696 11.031C163.261 10.7505 162.714 10.6102 162.055 10.6102C161.382 10.6102 160.828 10.7434 160.393 11.0099C159.958 11.2764 159.628 11.6341 159.404 12.0829C159.194 12.5177 159.088 12.9946 159.088 13.5135ZM170.702 10.3367C170.056 10.3367 169.524 10.2385 169.103 10.0422C168.682 9.84581 168.345 9.60036 168.093 9.30582C167.854 8.99725 167.686 8.67466 167.588 8.33805C167.49 8.00143 167.441 7.69988 167.441 7.43339C167.441 6.85834 167.532 6.38848 167.714 6.02381C167.911 5.64512 168.107 5.3085 168.303 5.01396L170.554 5.16123C170.246 5.45577 170 5.7433 169.818 6.02381C169.636 6.30432 169.545 6.66198 169.545 7.09677C169.545 7.44741 169.65 7.73494 169.86 7.95935C170.085 8.18376 170.372 8.29597 170.723 8.29597C171.143 8.29597 171.445 8.19078 171.627 7.98039C171.824 7.77001 171.922 7.51754 171.922 7.223C171.922 6.81626 171.754 6.52172 171.417 6.33939C171.08 6.15705 170.625 6.06589 170.049 6.06589H167.041C166.564 6.06589 166.192 6.1851 165.926 6.42354C165.659 6.66198 165.491 7.04067 165.421 7.55962H162.854C162.756 7.09677 162.574 6.73211 162.307 6.46562C162.055 6.19913 161.648 6.06589 161.087 6.06589H160.856C160.547 6.06589 160.281 6.16407 160.056 6.36042C159.832 6.55678 159.72 6.8373 159.72 7.20197C159.72 7.42638 159.769 7.61572 159.867 7.77001C159.979 7.92429 160.133 8.04351 160.33 8.12766C160.526 8.19779 160.75 8.23285 161.003 8.23285H161.718V10.526H161.171C160.358 10.526 159.642 10.3858 159.025 10.1053C158.422 9.81074 157.952 9.39699 157.616 8.86401C157.279 8.33103 157.111 7.70689 157.111 6.99158C157.111 6.02381 157.426 5.23837 158.058 4.63527C158.703 4.01814 159.579 3.70957 160.687 3.70957H160.94C161.557 3.70957 162.09 3.80074 162.539 3.98307C162.988 4.15138 163.352 4.38281 163.633 4.67734C163.913 4.97188 164.11 5.28746 164.222 5.62408H164.032C164.201 5.27344 164.418 4.95786 164.685 4.67734C164.951 4.38281 165.316 4.15138 165.779 3.98307C166.242 3.80074 166.845 3.70957 167.588 3.70957H168.85C169.762 3.70957 170.54 3.76568 171.186 3.87788C171.831 3.97606 172.399 4.2145 172.89 4.59319C173.254 4.85968 173.542 5.19629 173.752 5.60304C173.963 6.00978 174.068 6.52873 174.068 7.15989C174.068 8.08558 173.773 8.84998 173.184 9.45309C172.595 10.0422 171.768 10.3367 170.702 10.3367ZM171.375 0.511719C172.273 0.511719 172.995 0.701065 173.542 1.07976C174.089 1.44443 174.503 1.96338 174.783 2.63661L172.637 3.16257C172.553 3.00829 172.455 2.87504 172.343 2.76284C172.23 2.65063 172.097 2.56648 171.943 2.51038C171.789 2.45428 171.606 2.42622 171.396 2.42622C171.045 2.42622 170.772 2.51038 170.575 2.67868C170.393 2.83297 170.302 3.03634 170.302 3.2888C170.302 3.55529 170.379 3.80074 170.533 4.02515C170.688 4.23553 170.898 4.42488 171.165 4.59319L169.019 5.39265C168.752 5.15422 168.507 4.83864 168.282 4.44592C168.072 4.03918 167.967 3.57633 167.967 3.05738C167.967 2.60856 168.086 2.1948 168.324 1.81611C168.563 1.42339 168.934 1.10781 169.439 0.869374C169.944 0.630937 170.589 0.511719 171.375 0.511719Z" fill="white"/>
<path d="M142.124 8.23047C143.092 8.23047 143.898 8.42683 144.544 8.81955C145.189 9.21226 145.708 9.73122 146.1 10.3764C146.493 11.0216 146.774 11.7369 146.942 12.5223C147.11 13.2937 147.194 14.0722 147.194 14.8576C147.194 16.2742 147.019 17.6066 146.668 18.8549C146.332 20.1032 145.841 21.2673 145.196 22.3473C144.565 23.4413 143.807 24.4512 142.924 25.3769C142.04 26.3166 141.065 27.1862 139.999 27.9856L138.211 26.008C139.052 25.3488 139.845 24.6405 140.588 23.8831C141.346 23.1257 142.005 22.2982 142.566 21.4006C143.141 20.517 143.59 19.5422 143.912 18.4762C144.235 17.4103 144.396 16.2251 144.396 14.9207C144.396 14.4438 144.354 13.9389 144.27 13.4059C144.2 12.873 144.074 12.3751 143.891 11.9122C143.723 11.4494 143.485 11.0707 143.176 10.7761C142.881 10.4816 142.503 10.3343 142.04 10.3343C141.745 10.3343 141.493 10.4185 141.283 10.5868C141.072 10.7551 140.967 10.9795 140.967 11.26C140.967 11.5405 141.044 11.7649 141.198 11.9332C141.353 12.0875 141.542 12.1927 141.766 12.2488C142.005 12.3049 142.229 12.333 142.44 12.333C143.015 12.333 143.506 12.1787 143.912 11.8701C144.319 11.5475 144.698 11.2039 145.048 10.8392L145.806 13.0062C145.315 13.3569 144.775 13.6794 144.186 13.974C143.611 14.2685 142.896 14.4158 142.04 14.4158C140.974 14.4158 140.104 14.1633 139.431 13.6584C138.772 13.1535 138.442 12.368 138.442 11.3021C138.442 10.713 138.583 10.187 138.863 9.7242C139.144 9.26136 139.557 8.89669 140.104 8.6302C140.651 8.36371 141.325 8.23047 142.124 8.23047Z" fill="white"/>
<path d="M131.149 27.2292C130.531 27.2292 130.027 27.117 129.634 26.8925C129.227 26.6681 128.841 26.3175 128.477 25.8406H128.961C128.624 26.1913 128.308 26.4648 128.014 26.6611C127.705 26.8715 127.383 27.0188 127.046 27.1029C126.709 27.1871 126.303 27.2292 125.826 27.2292C125.012 27.2292 124.367 27.0538 123.89 26.7032C123.413 26.3526 123.077 25.9037 122.88 25.3567C122.684 24.8238 122.586 24.2768 122.586 23.7157C122.586 22.9022 122.754 22.208 123.091 21.6329C123.413 21.0719 123.855 20.6371 124.416 20.3285C124.977 20.034 125.608 19.8867 126.31 19.8867C127.179 19.8867 127.839 20.0901 128.287 20.4968C128.722 20.9176 128.94 21.4295 128.94 22.0326C128.94 22.7339 128.715 23.2669 128.266 23.6316C127.803 23.9962 127.116 24.1786 126.205 24.1786C125.714 24.1786 125.272 24.0804 124.879 23.884C124.472 23.7017 124.122 23.4773 123.827 23.2108L124.395 21.7802C124.564 22.0046 124.788 22.215 125.068 22.4113C125.335 22.6077 125.644 22.7059 125.994 22.7059C126.303 22.7059 126.548 22.6498 126.731 22.5376C126.899 22.4394 126.983 22.2781 126.983 22.0537C126.983 21.8994 126.934 21.7521 126.836 21.6119C126.724 21.4856 126.548 21.4225 126.31 21.4225C125.931 21.4225 125.587 21.5768 125.279 21.8854C124.97 22.1939 124.816 22.7409 124.816 23.5264V23.7578C124.816 24.1084 124.865 24.403 124.963 24.6414C125.047 24.8799 125.195 25.0552 125.405 25.1674C125.601 25.2796 125.854 25.3357 126.162 25.3357C126.709 25.3357 127.088 25.2095 127.299 24.957C127.495 24.7186 127.614 24.4661 127.656 24.1996H129.697C129.767 24.7045 129.928 25.0201 130.181 25.1463C130.419 25.2726 130.693 25.3357 131.001 25.3357C131.366 25.3357 131.633 25.2305 131.801 25.0201C131.955 24.8097 132.032 24.5643 132.032 24.2838C132.032 23.7087 131.815 23.2248 131.38 22.8321C130.945 22.4394 130.454 22.0888 129.907 21.7802L131.254 19.8867C131.843 20.1813 132.376 20.5389 132.853 20.9597C133.33 21.3805 133.708 21.8573 133.989 22.3903C134.255 22.9233 134.389 23.5194 134.389 24.1786C134.389 25.0902 134.115 25.8266 133.568 26.3876C133.007 26.9486 132.201 27.2292 131.149 27.2292Z" fill="white"/>
<path d="M130.729 19.0069C130.056 19.0069 129.46 18.9087 128.941 18.7123C128.422 18.516 127.896 18.1864 127.363 17.7235C126.844 17.2467 126.22 16.6015 125.49 15.788C125.098 15.3392 124.789 15.0306 124.565 14.8623C124.34 14.68 124.081 14.5888 123.786 14.5888C123.562 14.5888 123.337 14.68 123.113 14.8623C122.903 15.0306 122.798 15.2971 122.798 15.6618C122.798 16.0966 122.91 16.3981 123.134 16.5664C123.373 16.7347 123.646 16.8189 123.955 16.8189C124.291 16.8189 124.628 16.6786 124.964 16.3981C125.301 16.1176 125.54 15.6548 125.68 15.0096L127.426 16.861C127.145 17.2537 126.851 17.6183 126.542 17.955C126.248 18.2776 125.876 18.537 125.427 18.7334C124.978 18.9157 124.375 19.0069 123.618 19.0069C122.791 19.0069 122.11 18.8526 121.577 18.544C121.058 18.2215 120.673 17.8077 120.42 17.3028C120.182 16.7978 120.062 16.2649 120.062 15.7038C120.062 15.0166 120.224 14.4275 120.546 13.9366C120.869 13.4317 121.311 13.039 121.872 12.7585C122.433 12.4779 123.064 12.3377 123.765 12.3377C124.354 12.3377 124.873 12.4148 125.322 12.5691C125.771 12.7234 126.206 12.9758 126.627 13.3265C127.061 13.6771 127.538 14.14 128.057 14.715C128.506 15.2059 128.871 15.5776 129.151 15.8301C129.446 16.0825 129.712 16.2508 129.951 16.335C130.203 16.4192 130.491 16.4612 130.813 16.4612C131.206 16.4612 131.528 16.321 131.781 16.0405C132.047 15.7599 132.181 15.3392 132.181 14.7781C132.181 14.1189 132.033 13.5369 131.739 13.032C131.444 12.527 131.059 12.0782 130.582 11.6855C130.119 11.2787 129.621 10.9071 129.088 10.5704L130.729 8.23517C131.557 8.68399 132.3 9.21697 132.959 9.8341C133.618 10.4512 134.137 11.1525 134.516 11.9379C134.909 12.7094 135.105 13.579 135.105 14.5467C135.105 15.4444 134.937 16.2298 134.6 16.903C134.263 17.5622 133.766 18.0812 133.106 18.4599C132.461 18.8246 131.669 19.0069 130.729 19.0069ZM133.885 21.6788C133.099 21.6788 132.468 21.5525 131.991 21.3001C131.528 21.0476 131.192 20.718 130.981 20.3113C130.785 19.9045 130.687 19.4697 130.687 19.0069C130.687 18.8246 130.701 18.6352 130.729 18.4388C130.771 18.2425 130.827 18.0531 130.897 17.8708H133.611C133.541 17.983 133.485 18.0952 133.443 18.2074C133.401 18.3056 133.38 18.4038 133.38 18.502C133.38 18.6562 133.415 18.7965 133.485 18.9227C133.555 19.049 133.653 19.1471 133.78 19.2173C133.906 19.2874 134.053 19.3225 134.221 19.3225C134.446 19.3225 134.642 19.2804 134.811 19.1962C134.993 19.1261 135.21 18.9999 135.463 18.8175L136.746 20.6689C136.297 21.0055 135.841 21.258 135.379 21.4263C134.93 21.5946 134.432 21.6788 133.885 21.6788ZM124.291 10.4232C123.632 10.4232 123.05 10.318 122.545 10.1076C122.04 9.88319 121.612 9.52553 121.262 9.03463C120.911 8.52971 120.638 7.84947 120.441 6.9939L123.302 6.25755C123.457 6.97286 123.625 7.4848 123.807 7.79336C123.99 8.0879 124.242 8.23517 124.565 8.23517C124.775 8.23517 124.986 8.15803 125.196 8.00375C125.406 7.84947 125.687 7.55493 126.037 7.12013L126.921 6.00509C127.412 5.38796 127.875 4.90407 128.31 4.55343C128.744 4.18876 129.214 3.92228 129.719 3.75397C130.238 3.58566 130.855 3.49449 131.571 3.48047L131.739 5.92094C131.262 5.94899 130.848 6.03314 130.498 6.1734C130.161 6.29963 129.852 6.48196 129.572 6.7204C129.291 6.95884 128.997 7.27441 128.688 7.66713L127.994 8.52971C127.728 8.86633 127.412 9.18191 127.047 9.47644C126.683 9.75696 126.269 9.98838 125.806 10.1707C125.357 10.339 124.852 10.4232 124.291 10.4232Z" fill="white"/>
<path d="M98.4492 13.7846C98.4492 12.7467 98.6736 11.8561 99.1225 11.1127C99.5713 10.3694 100.23 9.79433 101.1 9.38759C101.984 8.98084 103.057 8.77747 104.319 8.77747C105.623 8.77747 106.71 8.96682 107.58 9.34551C108.45 9.7242 109.102 10.2852 109.537 11.0286C109.985 11.7579 110.21 12.6696 110.21 13.7636C110.21 14.7875 109.992 15.6991 109.558 16.4986C109.123 17.284 108.464 17.9012 107.58 18.35C106.71 18.7848 105.623 19.0022 104.319 19.0022C103.029 19.0022 101.942 18.7778 101.058 18.329C100.188 17.8801 99.5362 17.263 99.1014 16.4776C98.6666 15.6921 98.4492 14.7945 98.4492 13.7846ZM101.374 13.5111C101.374 14.3667 101.619 15.075 102.11 15.636C102.615 16.183 103.351 16.4565 104.319 16.4565C104.978 16.4565 105.525 16.3373 105.96 16.0989C106.409 15.8464 106.738 15.5098 106.949 15.089C107.173 14.6542 107.285 14.1633 107.285 13.6163C107.285 13.0553 107.173 12.5504 106.949 12.1016C106.738 11.6527 106.416 11.2951 105.981 11.0286C105.546 10.7481 104.992 10.6078 104.319 10.6078C103.66 10.6078 103.106 10.7411 102.657 11.0076C102.222 11.274 101.9 11.6317 101.689 12.0805C101.479 12.5153 101.374 12.9922 101.374 13.5111ZM115.07 14.8786C114.424 14.8786 113.891 14.7805 113.471 14.5841C113.05 14.3877 112.713 14.1423 112.461 13.8478C112.222 13.5392 112.054 13.2166 111.956 12.88C111.858 12.5434 111.809 12.2348 111.809 11.9543C111.809 11.4073 111.9 10.9444 112.082 10.5657C112.279 10.1871 112.475 9.84342 112.671 9.53486L114.922 9.70316C114.614 9.9977 114.368 10.2852 114.186 10.5657C114.004 10.8463 113.913 11.2039 113.913 11.6387C113.913 11.9893 114.018 12.2769 114.228 12.5013C114.453 12.7257 114.74 12.8379 115.091 12.8379C115.497 12.8379 115.799 12.7397 115.995 12.5434C116.192 12.333 116.29 12.0735 116.29 11.7649C116.29 11.3442 116.122 11.0496 115.785 10.8813C115.448 10.699 114.993 10.6078 114.417 10.6078H98.6386V8.23047H112.608C113.464 8.23047 114.172 8.25852 114.733 8.31462C115.294 8.3567 115.771 8.44085 116.164 8.56708C116.57 8.69332 116.942 8.88967 117.279 9.15616C117.629 9.42265 117.91 9.75927 118.12 10.166C118.331 10.5728 118.436 11.0847 118.436 11.7018C118.436 12.6135 118.141 13.3709 117.552 13.974C116.963 14.5771 116.136 14.8786 115.07 14.8786Z" fill="white"/>
<path d="M84.7685 19.0022C83.8709 19.0022 83.1486 18.8549 82.6016 18.5604C82.0686 18.2518 81.6829 17.8591 81.4444 17.3822C81.22 16.9053 81.1078 16.4004 81.1078 15.8674C81.1078 15.1802 81.2621 14.6121 81.5707 14.1633C81.8792 13.7145 82.286 13.3849 82.7909 13.1745C83.3099 12.9501 83.8569 12.8379 84.4319 12.8379C85.1612 12.8379 85.7714 12.9641 86.2623 13.2166C86.7672 13.455 87.1809 13.7426 87.5035 14.0792C87.8401 14.4018 88.1066 14.6893 88.303 14.9418L87.23 17.0877C87.0757 16.709 86.8864 16.3513 86.662 16.0147C86.4516 15.6781 86.1991 15.4046 85.9046 15.1942C85.6101 14.9698 85.2594 14.8576 84.8527 14.8576C84.5441 14.8576 84.2636 14.9418 84.0111 15.1101C83.7587 15.2784 83.6324 15.5449 83.6324 15.9095C83.6324 16.2321 83.7376 16.4846 83.948 16.6669C84.1584 16.8492 84.4389 16.9404 84.7896 16.9404C85.2524 16.9404 85.6171 16.8142 85.8836 16.5617C86.1641 16.3093 86.3604 15.9726 86.4726 15.5519C86.5849 15.1311 86.641 14.6753 86.641 14.1844V13.7846C86.641 13.1956 86.5638 12.6766 86.4095 12.2278C86.2552 11.779 86.0098 11.4283 85.6732 11.1759C85.3366 10.9094 84.8948 10.7761 84.3478 10.7761C84.0111 10.7761 83.7096 10.8463 83.4431 10.9865C83.1766 11.1127 82.9522 11.2951 82.7699 11.5335C82.6016 11.7579 82.4683 12.0174 82.3701 12.3119H79.6562C79.586 12.0875 79.4598 11.8421 79.2775 11.5756C79.1092 11.2951 78.8567 11.0566 78.5201 10.8603C78.1835 10.6499 77.7206 10.5447 77.1315 10.5447C76.6406 10.5447 76.2409 10.6289 75.9323 10.7972C75.6378 10.9514 75.4905 11.2109 75.4905 11.5756C75.4905 11.7158 75.5116 11.8491 75.5537 11.9753C75.6098 12.0875 75.7079 12.1857 75.8482 12.2699C75.9744 12.34 76.1357 12.4031 76.3321 12.4592C76.5425 12.5013 76.8651 12.5223 77.2999 12.5223H78.5411V14.7103H77.2367C76.8019 14.7103 76.4653 14.7314 76.2269 14.7734C75.9885 14.8155 75.7991 14.8927 75.6589 15.0049C75.5607 15.089 75.4765 15.1942 75.4064 15.3204C75.3503 15.4327 75.3222 15.5659 75.3222 15.7202C75.3222 16.0007 75.4134 16.2321 75.5957 16.4144C75.7921 16.5968 76.1077 16.688 76.5425 16.688C77.0053 16.688 77.4191 16.5687 77.7837 16.3303C78.1624 16.0919 78.5271 15.7763 78.8777 15.3836L80.6871 16.9825C80.3084 17.4173 79.8946 17.789 79.4458 18.0975C79.011 18.3921 78.5271 18.6165 77.9941 18.7708C77.4612 18.925 76.851 19.0022 76.1638 19.0022C74.8454 19.0022 73.8495 18.7287 73.1763 18.1817C72.5171 17.6207 72.1875 16.9334 72.1875 16.1199C72.1875 15.7272 72.2646 15.3625 72.4189 15.0259C72.5732 14.6753 72.8116 14.3737 73.1342 14.1213C73.4708 13.8548 73.8916 13.6444 74.3965 13.4901L74.3755 13.7636C73.6742 13.5252 73.1623 13.1675 72.8397 12.6906C72.5171 12.2138 72.3558 11.6878 72.3558 11.1127C72.3558 10.2432 72.7345 9.54888 73.4919 9.02993C74.2493 8.49696 75.2521 8.23047 76.5004 8.23047C77.2438 8.23047 77.8749 8.3006 78.3939 8.44085C78.9268 8.56708 79.4177 8.77747 79.8666 9.07201C80.3154 9.35252 80.7712 9.73823 81.2341 10.2291L80.7922 10.2502C81.1148 9.8294 81.4515 9.47174 81.8021 9.1772C82.1668 8.86864 82.5735 8.63721 83.0223 8.48293C83.4852 8.31462 84.0322 8.23047 84.6633 8.23047C85.7153 8.23047 86.5919 8.46891 87.2931 8.94578C87.9944 9.40862 88.5204 10.0608 88.871 10.9024C89.2357 11.7299 89.418 12.6836 89.418 13.7636C89.418 14.8716 89.2497 15.8184 88.9131 16.6038C88.5765 17.3752 88.0646 17.9713 87.3773 18.3921C86.69 18.7988 85.8205 19.0022 84.7685 19.0022Z" fill="white"/>
<path d="M56.0082 8.75643C57.1864 8.75643 58.2033 8.93175 59.0588 9.28239C59.9144 9.63304 60.5736 10.159 61.0364 10.8603C61.4993 11.5616 61.7307 12.4312 61.7307 13.4691C61.7307 14.3246 61.6536 15.082 61.4993 15.7412C61.345 16.4004 61.1487 16.9895 60.9102 17.5085C60.6718 18.0134 60.4333 18.4832 60.1949 18.918L57.3757 17.824C57.6142 17.5014 57.8386 17.1438 58.049 16.7511C58.2734 16.3443 58.4557 15.8955 58.596 15.4046C58.7362 14.9137 58.8064 14.3807 58.8064 13.8057C58.8064 13.2587 58.7152 12.7397 58.5329 12.2488C58.3505 11.7579 58.049 11.3652 57.6282 11.0707C57.2215 10.7621 56.6604 10.6078 55.9451 10.6078C55.3701 10.6078 54.8722 10.7411 54.4514 11.0076C54.0447 11.274 53.7291 11.6457 53.5047 12.1226C53.2803 12.5854 53.168 13.1254 53.168 13.7426C53.168 14.556 53.3013 15.3064 53.5678 15.9937C53.8343 16.6669 54.1779 17.27 54.5987 17.803L51.7585 18.918C51.3237 18.1747 50.959 17.3612 50.6645 16.4776C50.3699 15.5939 50.2227 14.6612 50.2227 13.6794C50.2227 12.7537 50.4401 11.9192 50.8748 11.1759C51.3237 10.4325 51.9759 9.84342 52.8314 9.40862C53.687 8.97383 54.7459 8.75643 56.0082 8.75643ZM66.5906 14.8786C65.9454 14.8786 65.4125 14.7805 64.9917 14.5841C64.5709 14.3877 64.2413 14.1423 64.0029 13.8478C63.7644 13.5392 63.5961 13.2166 63.498 12.88C63.3998 12.5434 63.3507 12.2348 63.3507 11.9543C63.3507 11.4073 63.4419 10.9444 63.6242 10.5657C63.8205 10.1871 64.0169 9.84342 64.2133 9.53486L66.4644 9.70316C66.1558 9.9977 65.9104 10.2852 65.728 10.5657C65.5457 10.8463 65.4545 11.2039 65.4545 11.6387C65.4545 11.9893 65.5597 12.2769 65.7701 12.5013C65.9945 12.7257 66.282 12.8379 66.6327 12.8379C67.0394 12.8379 67.341 12.7397 67.5373 12.5434C67.7337 12.333 67.8319 12.0735 67.8319 11.7649C67.8319 11.3442 67.6636 11.0496 67.327 10.8813C66.9903 10.699 66.5415 10.6078 65.9805 10.6078H50.3278V8.23047H64.1501C65.0057 8.23047 65.714 8.25852 66.275 8.31462C66.8361 8.3567 67.3129 8.44085 67.7057 8.56708C68.1124 8.69332 68.4841 8.88967 68.8207 9.15616C69.1713 9.42265 69.4519 9.75927 69.6622 10.166C69.8726 10.5728 69.9778 11.0847 69.9778 11.7018C69.9778 12.6135 69.6763 13.3709 69.0732 13.974C68.4841 14.5771 67.6566 14.8786 66.5906 14.8786Z" fill="white"/>
<path d="M37.2227 14.3956C37.2227 13.512 37.433 12.7195 37.8538 12.0183C38.2746 11.317 38.8707 10.763 39.6421 10.3562C40.4135 9.94947 41.3322 9.74609 42.3981 9.74609C43.4781 9.74609 44.3968 9.94947 45.1542 10.3562C45.9116 10.763 46.4866 11.317 46.8793 12.0183C47.2861 12.7195 47.4894 13.512 47.4894 14.3956C47.4894 15.2792 47.2861 16.0717 46.8793 16.773C46.4726 17.4602 45.8835 18.0072 45.1121 18.414C44.3547 18.8067 43.436 19.003 42.3561 19.003C41.2901 19.003 40.3714 18.7997 39.6 18.3929C38.8286 17.9862 38.2395 17.4392 37.8328 16.7519C37.426 16.0506 37.2227 15.2652 37.2227 14.3956ZM40.0418 14.3746C40.0418 15.0197 40.2312 15.5667 40.6099 16.0156C41.0026 16.4504 41.5846 16.6678 42.3561 16.6678C42.875 16.6678 43.3028 16.5696 43.6394 16.3732C43.976 16.1628 44.2285 15.8823 44.3968 15.5317C44.5791 15.181 44.6703 14.7953 44.6703 14.3746C44.6703 13.7294 44.4669 13.1894 44.0602 12.7546C43.6675 12.3058 43.0994 12.0814 42.3561 12.0814C41.8652 12.0814 41.4444 12.1866 41.0937 12.3969C40.7571 12.5933 40.4977 12.8668 40.3153 13.2174C40.133 13.5541 40.0418 13.9398 40.0418 14.3746Z" fill="white"/>
<path d="M27.2391 19.0022C25.6402 19.0022 24.2867 18.7427 23.1787 18.2238C22.0706 17.6908 21.2291 16.9755 20.654 16.0778C20.093 15.1662 19.8125 14.1423 19.8125 13.0062C19.8125 12.0244 20.0018 11.1759 20.3805 10.4605C20.7733 9.74524 21.3203 9.19824 22.0215 8.81955C22.7228 8.42683 23.5293 8.23047 24.441 8.23047C25.2825 8.23047 25.9628 8.38475 26.4817 8.69332C27.0007 8.98785 27.3794 9.37356 27.6178 9.85043C27.8562 10.3133 27.9754 10.7972 27.9754 11.3021C27.9754 11.9473 27.8352 12.5013 27.5547 12.9641C27.2742 13.427 26.8674 13.7776 26.3344 14.0161C25.8015 14.2545 25.1493 14.3737 24.3779 14.3737C23.8168 14.3737 23.3189 14.2966 22.8841 14.1423C22.4493 13.988 22.0706 13.7987 21.748 13.5742C21.4395 13.3498 21.18 13.1465 20.9696 12.9641L21.4535 10.9865C21.6218 11.1969 21.8182 11.4073 22.0426 11.6177C22.281 11.8281 22.5475 12.0034 22.842 12.1436C23.1366 12.2699 23.4522 12.333 23.7888 12.333C24.2236 12.333 24.5742 12.2558 24.8407 12.1016C25.1072 11.9332 25.2404 11.6597 25.2404 11.2811C25.2404 11.0426 25.1563 10.8252 24.988 10.6289C24.8197 10.4185 24.5742 10.3133 24.2516 10.3133C23.7607 10.3133 23.354 10.5237 23.0314 10.9444C22.7088 11.3512 22.5475 11.8421 22.5475 12.4171V13.2376C22.5475 13.5742 22.6176 13.9319 22.7579 14.3106C22.9122 14.6753 23.1646 15.0259 23.5153 15.3625C23.8799 15.6851 24.3708 15.9516 24.988 16.162C25.6191 16.3583 26.4046 16.4565 27.3443 16.4565C28.6627 16.4565 29.7216 16.2321 30.5211 15.7833C31.3346 15.3204 31.7413 14.5981 31.7413 13.6163C31.7413 12.9571 31.538 12.4101 31.1312 11.9753C30.7385 11.5265 30.1214 11.0707 29.2798 10.6078L30.9208 8.23047C32.0289 8.77747 32.9265 9.49979 33.6138 10.3974C34.315 11.2811 34.6657 12.368 34.6657 13.6584C34.6657 14.6542 34.3992 15.5589 33.8662 16.3724C33.3473 17.1718 32.5408 17.81 31.4468 18.2869C30.3528 18.7637 28.9502 19.0022 27.2391 19.0022Z" fill="white"/>
<path d="M15.6737 7.24205C15.6737 7.73295 15.5755 8.18879 15.3792 8.60956C15.1828 9.03033 14.9093 9.35993 14.5586 9.59837C14.18 9.86486 13.6891 10.0893 13.086 10.2716C12.4969 10.4399 11.8938 10.5241 11.2766 10.5241H7.84736V8.23086H11.2977C11.7044 8.23086 12.006 8.20983 12.2023 8.16775C12.4127 8.11165 12.574 8.0345 12.6862 7.93633C12.7704 7.85217 12.8335 7.761 12.8756 7.66282C12.9176 7.55062 12.9387 7.4314 12.9387 7.30517C12.9387 7.13686 12.9176 6.9966 12.8756 6.8844C12.8335 6.75817 12.7634 6.65298 12.6652 6.56882C12.553 6.47064 12.3917 6.40051 12.1813 6.35844C11.9849 6.31636 11.6553 6.29532 11.1925 6.29532H3.09266V3.91797H10.919C11.9148 3.91797 12.6862 3.99511 13.2332 4.14939C13.7942 4.28965 14.2781 4.52809 14.6849 4.8647C14.9794 5.11716 15.2179 5.43976 15.4002 5.83247C15.5825 6.22519 15.6737 6.69505 15.6737 7.24205ZM8.28917 19.0026C6.35363 19.0026 4.77574 18.7782 3.55551 18.3293C2.33527 17.8805 1.43763 17.2494 0.862579 16.4359C0.287526 15.6224 0 14.6827 0 13.6167C0 12.8032 0.189347 12.0879 0.56804 11.4708C0.946733 10.8537 1.46568 10.3698 2.12489 10.0191C2.79812 9.6685 3.56252 9.49317 4.41809 9.49317C5.1895 9.49317 5.83468 9.63343 6.35363 9.91394C6.87258 10.1804 7.2653 10.5451 7.53179 11.0079C7.79827 11.4708 7.93152 11.9897 7.93152 12.5648C7.93152 13.5466 7.61594 14.29 6.98479 14.7949C6.35363 15.2858 5.49105 15.5312 4.39705 15.5312C3.89212 15.5312 3.41525 15.4541 2.96643 15.2998C2.53163 15.1315 2.13892 14.9281 1.78827 14.6897C1.43763 14.4513 1.14309 14.2268 0.904656 14.0165L1.61997 12.3123C1.88645 12.6209 2.20904 12.9154 2.58774 13.196C2.96643 13.4624 3.41525 13.5957 3.9342 13.5957C4.35497 13.5957 4.6986 13.5115 4.96509 13.3432C5.2456 13.1749 5.38586 12.9084 5.38586 12.5438C5.38586 12.2632 5.29469 12.0318 5.11236 11.8495C4.93002 11.6672 4.65652 11.576 4.29186 11.576C3.99732 11.576 3.7168 11.6601 3.45032 11.8284C3.18383 11.9827 2.96643 12.2212 2.79812 12.5438C2.62981 12.8523 2.54566 13.238 2.54566 13.7009V13.8271C2.54566 14.2479 2.65085 14.6266 2.86124 14.9632C3.08565 15.2998 3.42928 15.5873 3.89212 15.8258C4.35497 16.0502 4.95106 16.2255 5.6804 16.3517C6.40973 16.4639 7.28634 16.52 8.31021 16.52C9.39019 16.52 10.3299 16.4709 11.1294 16.3728C11.9288 16.2746 12.588 16.1203 13.107 15.9099C13.6259 15.6855 14.0116 15.391 14.2641 15.0263C14.5306 14.6476 14.6638 14.1848 14.6638 13.6378V13.5746C14.6638 13.0136 14.4955 12.5367 14.1589 12.144C13.8223 11.7513 13.3454 11.5549 12.7283 11.5549C12.4197 11.5549 12.1322 11.6391 11.8657 11.8074C11.6133 11.9617 11.487 12.2142 11.487 12.5648C11.487 12.9435 11.6062 13.21 11.8447 13.3643C12.0831 13.5045 12.3777 13.5746 12.7283 13.5746C13.0789 13.5746 13.3735 13.5045 13.6119 13.3643C13.8504 13.224 14.0537 13.0276 14.222 12.7752C14.3903 12.5087 14.5236 12.2001 14.6218 11.8495L15.7789 13.3853C15.4843 13.8061 15.1828 14.1848 14.8742 14.5214C14.5797 14.844 14.222 15.0964 13.8013 15.2788C13.3805 15.4611 12.8335 15.5523 12.1603 15.5523C11.6273 15.5523 11.1153 15.4681 10.6244 15.2998C10.1335 15.1175 9.73382 14.8299 9.42525 14.4372C9.13071 14.0305 8.98344 13.4905 8.98344 12.8173C8.98344 12.0038 9.285 11.3586 9.8881 10.8817C10.4912 10.3908 11.3327 10.1454 12.4127 10.1454C12.6792 10.1454 12.9176 10.1524 13.128 10.1664C13.3384 10.1804 13.5348 10.2015 13.7171 10.2295C13.8994 10.2435 14.0748 10.2716 14.2431 10.3137L11.8026 10.3558C11.6203 10.2997 11.4239 10.2576 11.2135 10.2295C11.0172 10.1874 10.8138 10.1594 10.6034 10.1454C10.407 10.1173 10.1967 10.1033 9.97225 10.1033L10.8769 8.46229C11.7605 8.50436 12.581 8.65163 13.3384 8.9041C14.1098 9.14253 14.7831 9.48616 15.3581 9.93498C15.9332 10.3698 16.382 10.9028 16.7046 11.5339C17.0412 12.151 17.2095 12.8593 17.2095 13.6588C17.2095 14.5564 17.0412 15.3419 16.7046 16.0151C16.368 16.6743 15.842 17.2283 15.1267 17.6772C14.4114 18.112 13.4857 18.4416 12.3496 18.666C11.2276 18.8904 9.87407 19.0026 8.28917 19.0026Z" fill="white"/>
</svg>
