<svg width="290" height="25" viewBox="0 0 290 25" fill="none" xmlns="http://www.w3.org/2000/svg">
<path d="M286.496 23.2273C285.93 23.2273 285.469 23.1366 285.113 22.9552C284.744 22.786 284.382 22.4777 284.025 22.0303H284.449C284.031 22.4777 283.644 22.786 283.288 22.9552C282.919 23.1366 282.464 23.2273 281.923 23.2273C281.382 23.2273 280.933 23.1064 280.577 22.8646C280.221 22.6227 279.956 22.3023 279.784 21.9033C279.612 21.5044 279.526 21.0751 279.526 20.6157C279.526 19.854 279.735 19.195 280.153 18.6388C280.559 18.0827 281.118 17.6534 281.831 17.3512C282.532 17.0489 283.324 16.8978 284.209 16.8978C285.119 16.8978 285.93 17.0549 286.643 17.3693C287.344 17.6958 287.897 18.1371 288.303 18.6932C288.709 19.2615 288.911 19.9144 288.911 20.6519C288.911 21.0872 288.838 21.4983 288.69 21.8852C288.53 22.2842 288.272 22.6046 287.916 22.8464C287.559 23.1003 287.086 23.2273 286.496 23.2273ZM286.053 21.595C286.299 21.595 286.496 21.5044 286.643 21.323C286.791 21.1416 286.865 20.8998 286.865 20.5975C286.865 19.9567 286.613 19.4489 286.109 19.0741C285.605 18.7114 284.972 18.53 284.209 18.53C283.386 18.53 282.741 18.7114 282.273 19.0741C281.794 19.4368 281.554 19.9325 281.554 20.5613C281.554 20.8756 281.628 21.1235 281.776 21.3049C281.923 21.4983 282.126 21.595 282.384 21.595C282.63 21.595 282.833 21.5346 282.992 21.4137C283.14 21.3049 283.263 21.1477 283.361 20.9421H285.058C285.156 21.1719 285.279 21.3351 285.426 21.4318C285.574 21.5406 285.783 21.595 286.053 21.595ZM283.306 24.4061L283.38 22.9371H285.002L285.131 24.4061H283.306ZM283.232 19.8721C283.232 19.6061 283.324 19.4066 283.509 19.2736C283.693 19.1527 283.927 19.0922 284.209 19.0922C284.529 19.0922 284.775 19.1587 284.947 19.2917C285.119 19.4247 285.205 19.6182 285.205 19.8721C285.205 20.1502 285.119 20.3497 284.947 20.4706C284.763 20.5915 284.517 20.6519 284.209 20.6519C283.914 20.6519 283.681 20.5855 283.509 20.4525C283.324 20.3315 283.232 20.1381 283.232 19.8721Z" fill="#FF5858"/>
<path d="M285.919 15.9414C285.402 15.9414 284.904 15.8703 284.424 15.7281C283.957 15.5977 283.471 15.3547 282.966 14.9991C282.474 14.6435 281.933 14.1456 281.342 13.5055C281.072 13.2092 280.85 12.9899 280.678 12.8477C280.518 12.6936 280.383 12.5928 280.272 12.5454C280.161 12.4861 280.038 12.4565 279.903 12.4565C279.743 12.4565 279.595 12.5217 279.46 12.6521C279.325 12.7825 279.257 12.9603 279.257 13.1855C279.257 13.4818 279.325 13.7959 279.46 14.1278C279.608 14.4597 279.817 14.8153 280.087 15.1947L277.504 15.9592C277.282 15.5443 277.092 15.1058 276.932 14.6435C276.784 14.1693 276.71 13.6596 276.71 13.1144C276.71 12.5691 276.846 12.089 277.116 11.6742C277.387 11.2474 277.756 10.9155 278.224 10.6785C278.703 10.4295 279.245 10.3051 279.848 10.3051C280.414 10.3051 280.912 10.388 281.342 10.554C281.773 10.7199 282.173 10.957 282.542 11.2652C282.923 11.5734 283.311 11.9409 283.705 12.3676C284.061 12.735 284.363 13.0255 284.609 13.2388C284.855 13.4403 285.089 13.5826 285.31 13.6656C285.544 13.7485 285.796 13.79 286.067 13.79C286.411 13.79 286.7 13.6715 286.934 13.4344C287.168 13.1973 287.285 12.8417 287.285 12.3676C287.285 11.8105 287.156 11.3185 286.897 10.8918C286.639 10.4651 286.301 10.0858 285.882 9.75388C285.464 9.41012 285.021 9.09601 284.554 8.81152L286.011 6.8379C286.737 7.21722 287.389 7.66765 287.968 8.18921C288.546 8.71076 289.001 9.30344 289.333 9.96724C289.678 10.6192 289.85 11.3541 289.85 12.172C289.85 12.9306 289.696 13.5944 289.389 14.1634C289.093 14.7205 288.65 15.1591 288.06 15.4791C287.482 15.7873 286.768 15.9414 285.919 15.9414ZM280.42 8.68706C279.841 8.68706 279.331 8.59816 278.888 8.42035C278.445 8.2307 278.07 7.92843 277.762 7.51356C277.455 7.08683 277.215 6.51193 277.042 5.78886L279.552 5.16655C279.688 5.77108 279.835 6.20374 279.995 6.46452C280.155 6.71344 280.377 6.8379 280.66 6.8379C280.844 6.8379 281.029 6.77271 281.213 6.64232C281.398 6.51193 281.644 6.26301 281.951 5.89555L282.727 4.95319C283.157 4.43163 283.563 4.02268 283.945 3.72635C284.326 3.41815 284.738 3.19293 285.181 3.05069C285.636 2.90845 286.177 2.8314 286.805 2.81955L286.953 4.88207C286.534 4.90577 286.171 4.97689 285.864 5.09543C285.569 5.20211 285.298 5.35621 285.052 5.55772C284.806 5.75923 284.547 6.02593 284.277 6.35783L283.668 7.08683C283.434 7.37131 283.157 7.63802 282.837 7.88694C282.517 8.12401 282.154 8.3196 281.748 8.47369C281.355 8.61594 280.912 8.68706 280.42 8.68706Z" fill="#FF5858"/>
<path d="M265.448 12.6935C265.448 11.8872 265.64 11.1641 266.025 10.5242C266.409 9.88425 266.954 9.37872 267.659 9.00756C268.365 8.63641 269.204 8.45083 270.179 8.45083C271.166 8.45083 272.006 8.63641 272.698 9.00756C273.391 9.37872 273.916 9.88425 274.275 10.5242C274.647 11.1641 274.833 11.8872 274.833 12.6935C274.833 13.4998 274.647 14.2229 274.275 14.8628C273.904 15.4899 273.365 15.9891 272.66 16.3602C271.968 16.7186 271.128 16.8978 270.14 16.8978C269.166 16.8978 268.326 16.7122 267.621 16.341C266.916 15.9699 266.377 15.4707 266.005 14.8436C265.634 14.2037 265.448 13.487 265.448 12.6935ZM268.025 12.6743C268.025 13.263 268.198 13.7622 268.544 14.1717C268.903 14.5685 269.435 14.7668 270.14 14.7668C270.615 14.7668 271.006 14.6772 271.314 14.4981C271.621 14.3061 271.852 14.0501 272.006 13.7302C272.173 13.4102 272.256 13.0582 272.256 12.6743C272.256 12.0856 272.07 11.5928 271.698 11.1961C271.339 10.7865 270.82 10.5818 270.14 10.5818C269.692 10.5818 269.307 10.6778 268.987 10.8697C268.679 11.0489 268.442 11.2985 268.275 11.6184C268.108 11.9256 268.025 12.2775 268.025 12.6743Z" fill="#FF5858"/>
<path d="M258.701 15.9414C258.185 15.9414 257.686 15.8703 257.206 15.7281C256.739 15.5977 256.253 15.3547 255.749 14.9991C255.256 14.6435 254.715 14.1456 254.125 13.5055C253.854 13.2092 253.632 12.9899 253.46 12.8477C253.3 12.6936 253.165 12.5928 253.054 12.5454C252.943 12.4861 252.82 12.4565 252.685 12.4565C252.525 12.4565 252.378 12.5217 252.242 12.6521C252.107 12.7825 252.039 12.9603 252.039 13.1855C252.039 13.4818 252.107 13.7959 252.242 14.1278C252.39 14.4597 252.599 14.8153 252.87 15.1947L250.286 15.9592C250.065 15.5443 249.874 15.1058 249.714 14.6435C249.566 14.1693 249.492 13.6596 249.492 13.1144C249.492 12.5691 249.628 12.089 249.898 11.6742C250.169 11.2474 250.538 10.9155 251.006 10.6785C251.486 10.4295 252.027 10.3051 252.63 10.3051C253.196 10.3051 253.694 10.388 254.125 10.554C254.555 10.7199 254.955 10.957 255.324 11.2652C255.705 11.5734 256.093 11.9409 256.487 12.3676C256.844 12.735 257.145 13.0255 257.391 13.2388C257.637 13.4403 257.871 13.5826 258.092 13.6656C258.326 13.7485 258.578 13.79 258.849 13.79C259.193 13.79 259.483 13.6715 259.716 13.4344C259.95 13.1973 260.067 12.8417 260.067 12.3676C260.067 11.8105 259.938 11.3185 259.679 10.8918C259.421 10.4651 259.083 10.0858 258.664 9.75388C258.246 9.41012 257.803 9.09601 257.336 8.81152L258.794 6.8379C259.519 7.21722 260.171 7.66765 260.75 8.18921C261.328 8.71076 261.783 9.30344 262.115 9.96724C262.46 10.6192 262.632 11.3541 262.632 12.172C262.632 12.9306 262.478 13.5944 262.171 14.1634C261.875 14.7205 261.433 15.1591 260.842 15.4791C260.264 15.7873 259.55 15.9414 258.701 15.9414ZM253.202 8.68706C252.624 8.68706 252.113 8.59816 251.67 8.42035C251.227 8.2307 250.852 7.92843 250.544 7.51356C250.237 7.08683 249.997 6.51193 249.825 5.78886L252.334 5.16655C252.47 5.77108 252.617 6.20374 252.777 6.46452C252.937 6.71344 253.159 6.8379 253.442 6.8379C253.626 6.8379 253.811 6.77271 253.995 6.64232C254.18 6.51193 254.426 6.26301 254.734 5.89555L255.509 4.95319C255.939 4.43163 256.345 4.02268 256.727 3.72635C257.108 3.41815 257.52 3.19293 257.963 3.05069C258.418 2.90845 258.96 2.8314 259.587 2.81955L259.735 4.88207C259.316 4.90577 258.953 4.97689 258.646 5.09543C258.351 5.20211 258.08 5.35621 257.834 5.55772C257.588 5.75923 257.329 6.02593 257.059 6.35783L256.45 7.08683C256.216 7.37131 255.939 7.63802 255.619 7.88694C255.299 8.12401 254.937 8.3196 254.531 8.47369C254.137 8.61594 253.694 8.68706 253.202 8.68706Z" fill="#FF5858"/>
<path d="M230.573 15.9592C229.78 15.9592 229.142 15.8309 228.659 15.5743C228.188 15.3054 227.847 14.9632 227.636 14.5477C227.438 14.1322 227.339 13.6923 227.339 13.2279C227.339 12.6291 227.475 12.1341 227.748 11.7431C228.02 11.352 228.38 11.0648 228.826 10.8815C229.284 10.686 229.767 10.5882 230.275 10.5882C230.92 10.5882 231.459 10.6982 231.892 10.9182C232.338 11.1259 232.704 11.3765 232.989 11.6698C233.286 11.9508 233.522 12.2014 233.695 12.4213L232.747 14.2911C232.611 13.9611 232.444 13.6495 232.245 13.3562C232.06 13.0629 231.837 12.8246 231.576 12.6413C231.316 12.4458 231.006 12.348 230.647 12.348C230.375 12.348 230.127 12.4213 229.904 12.568C229.681 12.7146 229.569 12.9468 229.569 13.2646C229.569 13.5456 229.662 13.7656 229.848 13.9245C230.034 14.0833 230.282 14.1628 230.591 14.1628C231 14.1628 231.322 14.0528 231.558 13.8328C231.806 13.6128 231.979 13.3195 232.078 12.9529C232.177 12.5863 232.227 12.1891 232.227 11.7614V11.3031C232.227 10.8021 232.159 10.3499 232.022 9.94664C231.886 9.54336 231.669 9.22562 231.372 8.99343C231.087 8.76124 230.703 8.64514 230.22 8.64514C229.922 8.64514 229.65 8.71236 229.402 8.84678C229.167 8.96899 228.968 9.14008 228.807 9.36005C228.646 9.58002 228.528 9.83666 228.454 10.13H226.057C225.995 9.93442 225.883 9.72056 225.722 9.48837C225.573 9.24395 225.35 9.0362 225.053 8.86511C224.756 8.6818 224.347 8.59015 223.826 8.59015C223.393 8.59015 223.04 8.66347 222.767 8.81012C222.507 8.94455 222.377 9.17063 222.377 9.48837C222.377 9.61057 222.395 9.72667 222.433 9.83666C222.482 9.93442 222.569 10.02 222.693 10.0933C222.804 10.1544 222.947 10.2094 223.12 10.2583C223.306 10.2949 223.591 10.3133 223.975 10.3133H225.072V12.2197H223.919C223.535 12.2197 223.238 12.238 223.027 12.2747C222.817 12.3113 222.649 12.3786 222.525 12.4763C222.439 12.5496 222.364 12.6413 222.302 12.7513C222.253 12.8491 222.228 12.9651 222.228 13.0996C222.228 13.344 222.309 13.5456 222.47 13.7045C222.643 13.8634 222.922 13.9428 223.306 13.9428C223.715 13.9428 224.08 13.8389 224.403 13.6312C224.737 13.4234 225.059 13.1485 225.369 12.8063L226.967 14.1994C226.633 14.5783 226.267 14.9021 225.871 15.171C225.487 15.4276 225.059 15.6231 224.588 15.7576C224.118 15.892 223.579 15.9592 222.971 15.9592C221.807 15.9592 220.927 15.7209 220.332 15.2443C219.75 14.7555 219.459 14.1567 219.459 13.4479C219.459 13.1057 219.527 12.7879 219.663 12.4947C219.8 12.1891 220.01 11.9264 220.295 11.7064C220.593 11.4742 220.964 11.2909 221.41 11.1565L221.392 11.3948C220.785 11.1748 220.332 10.8876 220.035 10.5332C219.75 10.1666 219.608 9.73278 219.608 9.23173C219.608 8.77957 219.769 8.39462 220.091 8.07688C220.425 7.74692 220.884 7.49029 221.466 7.30698C222.048 7.12367 222.717 7.03201 223.473 7.03201C224.142 7.03201 224.7 7.11145 225.146 7.27032C225.604 7.41696 226.007 7.63694 226.354 7.93023C226.713 8.21131 227.085 8.5596 227.469 8.9751L227.042 8.99343C227.339 8.57793 227.661 8.24186 228.008 7.98523C228.355 7.71637 228.727 7.52084 229.123 7.39863C229.532 7.26421 229.959 7.19699 230.406 7.19699C231.347 7.19699 232.134 7.36197 232.766 7.69193C233.398 8.02189 233.875 8.5046 234.197 9.14008C234.519 9.77555 234.68 10.5516 234.68 11.4681C234.68 12.3724 234.531 13.1668 234.234 13.8511C233.937 14.5233 233.484 15.0427 232.877 15.4093C232.27 15.7759 231.502 15.9592 230.573 15.9592ZM238.992 12.3663C238.422 12.3663 237.951 12.2808 237.579 12.1097C237.208 11.9386 236.916 11.7248 236.706 11.4681C236.495 11.1993 236.347 10.9182 236.26 10.6249C236.173 10.3316 236.13 10.0627 236.13 9.81833C236.13 9.31728 236.21 8.90789 236.371 8.59015C236.532 8.27241 236.7 7.97912 236.873 7.71026L238.88 7.85691C238.608 8.11354 238.391 8.36407 238.23 8.60848C238.069 8.85289 237.988 9.16452 237.988 9.54336C237.988 9.84888 238.081 10.0994 238.267 10.2949C238.465 10.4905 238.713 10.5882 239.01 10.5882C239.37 10.5882 239.636 10.5027 239.81 10.3316C239.995 10.1483 240.088 9.9222 240.088 9.65335C240.088 9.28673 239.933 9.03009 239.624 8.88345C239.326 8.72458 238.924 8.64514 238.416 8.64514H225.778L224.514 8.1502L222.228 8.64514H219.663V6.57374H236.817C237.573 6.57374 238.199 6.59818 238.694 6.64706C239.202 6.68372 239.63 6.75705 239.977 6.86703C240.336 6.97702 240.664 7.14811 240.962 7.3803C241.272 7.61249 241.519 7.90579 241.705 8.26019C241.891 8.61459 241.984 9.06064 241.984 9.59835C241.984 10.3927 241.718 11.0526 241.185 11.5781C240.664 12.1036 239.933 12.3663 238.992 12.3663Z" fill="#FF5858"/>
<path d="M207.407 15.9592C206.805 15.9592 206.272 15.8737 205.808 15.7026C205.344 15.5315 204.874 15.2443 204.398 14.841C203.934 14.4255 203.376 13.8634 202.724 13.1546C202.373 12.7635 202.097 12.4947 201.897 12.348C201.696 12.1891 201.464 12.1097 201.201 12.1097C201 12.1097 200.8 12.1891 200.599 12.348C200.411 12.4947 200.317 12.7268 200.317 13.0446C200.317 13.4234 200.417 13.6862 200.618 13.8328C200.831 13.9795 201.075 14.0528 201.351 14.0528C201.652 14.0528 201.953 13.9306 202.254 13.6862C202.555 13.4418 202.768 13.0385 202.893 12.4763L204.454 14.0895C204.203 14.4316 203.94 14.7494 203.664 15.0427C203.401 15.3237 203.069 15.5498 202.668 15.7209C202.266 15.8798 201.727 15.9592 201.05 15.9592C200.311 15.9592 199.703 15.8248 199.226 15.5559C198.762 15.2749 198.418 14.9143 198.192 14.4744C197.979 14.0222 197.872 13.5517 197.872 13.0629C197.872 12.4763 198.016 11.9692 198.305 11.5414C198.593 11.1015 198.988 10.7593 199.49 10.5149C199.991 10.2705 200.555 10.1483 201.182 10.1483C201.709 10.1483 202.172 10.2155 202.574 10.3499C202.975 10.4844 203.363 10.7043 203.74 11.0098C204.128 11.3154 204.554 11.7186 205.018 12.2197C205.419 12.6474 205.752 12.9713 206.015 13.1912C206.278 13.4112 206.516 13.5579 206.73 13.6312C206.943 13.7045 207.162 13.7412 207.388 13.7412C207.789 13.7412 208.109 13.619 208.347 13.3745C208.585 13.1301 208.704 12.7391 208.704 12.2014C208.704 11.5781 208.535 11.0098 208.196 10.4966C207.858 9.98331 207.394 9.54336 206.805 9.17674C206.216 8.81012 205.545 8.54738 204.793 8.38851L209.287 8.31518C209.701 8.58404 210.058 8.90789 210.359 9.28673C210.672 9.65335 210.911 10.0689 211.074 10.5332C211.236 10.9854 211.318 11.4803 211.318 12.018C211.318 12.8124 211.168 13.509 210.867 14.1078C210.566 14.6944 210.121 15.1526 209.531 15.4826C208.955 15.8003 208.246 15.9592 207.407 15.9592ZM215.512 12.3663C214.935 12.3663 214.458 12.2808 214.082 12.1097C213.706 11.9386 213.412 11.7248 213.198 11.4681C212.985 11.1993 212.835 10.9182 212.747 10.6249C212.659 10.3316 212.616 10.0627 212.616 9.81833C212.616 9.31728 212.697 8.90789 212.86 8.59015C213.023 8.27241 213.192 7.97912 213.368 7.71026L215.38 7.85691C215.117 8.11354 214.904 8.36407 214.741 8.60848C214.578 8.85289 214.496 9.16452 214.496 9.54336C214.496 9.84888 214.59 10.0994 214.778 10.2949C214.979 10.4905 215.229 10.5882 215.53 10.5882C215.894 10.5882 216.163 10.5027 216.339 10.3316C216.514 10.1483 216.602 9.9222 216.602 9.65335C216.602 9.28673 216.452 9.03009 216.151 8.88345C215.85 8.72458 215.449 8.64514 214.947 8.64514H199.866V6.57374H213.311C214.076 6.57374 214.709 6.59818 215.211 6.64706C215.712 6.68372 216.138 6.75705 216.489 6.86703C216.853 6.97702 217.185 7.14811 217.486 7.3803C217.812 7.61249 218.063 7.90579 218.238 8.26019C218.426 8.61459 218.52 9.06064 218.52 9.59835C218.52 10.3927 218.257 11.0526 217.731 11.5781C217.204 12.1036 216.464 12.3663 215.512 12.3663Z" fill="#FF5858"/>
<path d="M184.733 11.5437C184.733 10.6654 184.936 9.87604 185.341 9.17573C185.747 8.46355 186.343 7.89974 187.13 7.48431C187.929 7.057 188.905 6.84335 190.06 6.84335C191.226 6.84335 192.203 7.04513 192.989 7.4487C193.776 7.8404 194.365 8.3864 194.759 9.08671C195.164 9.78701 195.367 10.6001 195.367 11.5259C195.367 12.3924 195.171 13.1639 194.778 13.8405C194.384 14.5052 193.795 15.0274 193.008 15.4073C192.222 15.7752 191.239 15.9592 190.06 15.9592C188.88 15.9592 187.891 15.7693 187.092 15.3895C186.305 15.0096 185.716 14.4874 185.322 13.8227C184.929 13.158 184.733 12.3983 184.733 11.5437ZM187.377 11.3123C187.377 12.0363 187.599 12.6357 188.043 13.1105C188.5 13.5734 189.172 13.8049 190.06 13.8049C190.656 13.8049 191.15 13.704 191.543 13.5022C191.937 13.2885 192.235 13.0037 192.438 12.6476C192.641 12.2796 192.742 11.8642 192.742 11.4013C192.742 10.9265 192.641 10.4992 192.438 10.1194C192.247 9.73953 191.949 9.43686 191.543 9.21134C191.15 8.97394 190.656 8.85525 190.06 8.85525C189.451 8.85525 188.95 8.96801 188.557 9.19353C188.163 9.41905 187.865 9.72173 187.662 10.1016C187.472 10.4695 187.377 10.8731 187.377 11.3123ZM189.261 8.69501C188.664 8.69501 188.138 8.60599 187.681 8.42794C187.225 8.23803 186.838 7.93535 186.521 7.51992C186.204 7.09261 185.957 6.51693 185.779 5.79289L188.366 5.16973C188.506 5.77508 188.658 6.20832 188.823 6.46945C188.988 6.71872 189.216 6.84335 189.508 6.84335C189.698 6.84335 189.888 6.77807 190.079 6.6475C190.269 6.51693 190.522 6.26767 190.84 5.89971L191.639 4.95608C192.083 4.43382 192.501 4.02431 192.894 3.72757C193.287 3.41896 193.712 3.19344 194.169 3.05101C194.638 2.90857 195.196 2.83142 195.843 2.81955L195.995 4.88486C195.564 4.9086 195.19 4.97982 194.873 5.09851C194.568 5.20534 194.289 5.35965 194.036 5.56143C193.782 5.76321 193.516 6.03028 193.237 6.36263L192.609 7.09261C192.368 7.37748 192.082 7.64455 191.753 7.89381C191.423 8.1312 191.049 8.32705 190.63 8.48136C190.224 8.62379 189.768 8.69501 189.261 8.69501Z" fill="#FF5858"/>
<path d="M166.154 23.4676C165.355 23.4676 164.74 23.3797 164.309 23.204C163.878 23.0284 163.498 22.7899 163.169 22.4887H163.283C162.928 22.8778 162.566 23.135 162.199 23.2605C161.819 23.3986 161.381 23.4676 160.887 23.4676C160.405 23.4676 159.981 23.3546 159.613 23.1287C159.246 22.9154 158.96 22.6017 158.758 22.1875C158.555 21.7734 158.453 21.2776 158.453 20.7004C158.453 19.9474 158.662 19.2822 159.081 18.7049C159.486 18.1402 160.076 17.6947 160.849 17.3684C161.622 17.0546 162.535 16.8978 163.587 16.8978C164.461 16.8978 165.222 16.9542 165.868 17.0672C166.502 17.1801 167.174 17.3558 167.884 17.5943L167.142 19.2885C166.648 19.1003 166.217 18.9559 165.849 18.8555C165.469 18.7551 165.108 18.6861 164.766 18.6485C164.411 18.6108 164.024 18.592 163.606 18.592C162.896 18.592 162.313 18.6861 161.857 18.8744C161.4 19.0752 161.071 19.3324 160.868 19.6462C160.652 19.9599 160.545 20.3113 160.545 20.7004C160.545 21.0267 160.621 21.2839 160.773 21.4722C160.912 21.673 161.121 21.7734 161.4 21.7734C161.654 21.7734 161.869 21.6792 162.047 21.491C162.212 21.3153 162.313 21.0706 162.351 20.7568H164.176C164.202 20.9702 164.252 21.1584 164.328 21.3216C164.404 21.4847 164.525 21.6102 164.69 21.6981C164.854 21.7859 165.082 21.8298 165.374 21.8298C165.513 21.8424 165.666 21.8549 165.83 21.8675C165.982 21.8926 166.147 21.9051 166.325 21.9051C166.578 21.9051 166.781 21.8612 166.933 21.7734C167.073 21.6981 167.142 21.5726 167.142 21.3969C167.142 21.2714 167.098 21.171 167.009 21.0957C166.908 21.0204 166.768 20.9827 166.591 20.9827C166.426 20.9827 166.293 21.0329 166.192 21.1333C166.078 21.2337 166.02 21.3906 166.02 21.6039C166.02 21.7671 166.065 21.9114 166.154 22.0369C166.23 22.175 166.337 22.3005 166.477 22.4134L165.07 22.7711C164.918 22.5577 164.81 22.313 164.747 22.0369C164.671 21.7608 164.633 21.5412 164.633 21.378C164.633 20.8259 164.81 20.3741 165.165 20.0227C165.507 19.6713 166.008 19.4956 166.667 19.4956C167.301 19.4956 167.814 19.6713 168.207 20.0227C168.587 20.3866 168.777 20.8321 168.777 21.3592C168.777 21.7106 168.701 22.0432 168.549 22.3569C168.384 22.6832 168.112 22.9468 167.732 23.1476C167.351 23.3609 166.825 23.4676 166.154 23.4676Z" fill="#FF5858"/>
<path d="M172.207 15.9592C171.232 15.9592 170.411 15.7454 169.744 15.3176C169.077 14.8899 168.442 14.3522 167.839 13.7045L169.32 12.128C169.59 12.4213 169.872 12.6902 170.167 12.9346C170.449 13.179 170.757 13.3745 171.091 13.5212C171.437 13.6678 171.809 13.7412 172.207 13.7412C172.656 13.7412 173.002 13.619 173.246 13.3745C173.489 13.1301 173.611 12.7635 173.611 12.2747C173.611 11.7003 173.477 11.1932 173.207 10.7532C172.938 10.3133 172.585 9.9222 172.149 9.58002C171.713 9.22562 171.251 8.90178 170.763 8.60848L172.284 6.57374C173.04 6.9648 173.72 7.42918 174.323 7.96689C174.926 8.5046 175.401 9.11564 175.747 9.8C176.106 10.4721 176.286 11.2298 176.286 12.073C176.286 13.2462 175.939 14.1872 175.247 14.896C174.554 15.6048 173.541 15.9592 172.207 15.9592Z" fill="#FF5858"/>
<path d="M165.197 15.9592C164.48 15.9592 163.871 15.8939 163.368 15.7634C162.866 15.6447 162.439 15.4726 162.087 15.247C161.735 15.0096 161.421 14.7366 161.145 14.428L161.277 14.4458C160.975 14.8613 160.655 15.1818 160.315 15.4073C159.989 15.6209 159.637 15.7634 159.26 15.8346C158.896 15.9177 158.487 15.9592 158.035 15.9592C157.042 15.9592 156.238 15.6269 155.623 14.9622C155.007 14.2975 154.699 13.3538 154.699 12.1313C154.699 10.9918 154.994 10.0303 155.585 9.24694C156.175 8.45168 157.011 7.85227 158.091 7.4487C159.172 7.04513 160.435 6.84335 161.88 6.84335C162.646 6.84335 163.343 6.88489 163.972 6.96798C164.6 7.05107 165.209 7.1757 165.8 7.34187C166.39 7.49618 167.012 7.69796 167.665 7.94722L166.516 9.94132C165.837 9.65645 165.241 9.43686 164.725 9.28255C164.223 9.12825 163.739 9.02142 163.274 8.96207C162.809 8.89086 162.3 8.85525 161.748 8.85525C160.717 8.85525 159.876 8.99768 159.222 9.28255C158.569 9.55556 158.085 9.92945 157.771 10.4042C157.47 10.8671 157.319 11.3835 157.319 11.9532C157.319 12.6179 157.432 13.0927 157.658 13.3776C157.884 13.6624 158.198 13.8049 158.6 13.8049C159.015 13.8049 159.348 13.6624 159.599 13.3776C159.863 13.0927 160.02 12.6951 160.07 12.1847H162.388C162.426 12.6476 162.571 13.0215 162.822 13.3064C163.086 13.5912 163.525 13.7752 164.141 13.8583C164.33 13.8939 164.537 13.9236 164.763 13.9473C165.002 13.9592 165.253 13.9651 165.517 13.9651C165.869 13.9651 166.145 13.8998 166.346 13.7693C166.547 13.6387 166.648 13.4251 166.648 13.1283C166.648 12.9265 166.572 12.7604 166.422 12.6298C166.283 12.4992 166.089 12.4339 165.837 12.4339C165.599 12.4339 165.391 12.4992 165.215 12.6298C165.052 12.7604 164.97 12.974 164.97 13.2707C164.97 13.4844 165.027 13.6862 165.14 13.8761C165.253 14.0541 165.41 14.2144 165.611 14.3568L163.783 14.8553C163.569 14.5705 163.406 14.2441 163.293 13.8761C163.193 13.4963 163.142 13.1936 163.142 12.9681C163.142 12.244 163.381 11.6624 163.858 11.2232C164.348 10.7722 165.033 10.5467 165.913 10.5467C166.491 10.5467 166.993 10.6594 167.42 10.885C167.848 11.1105 168.181 11.4191 168.419 11.8108C168.658 12.1906 168.777 12.6179 168.777 13.0927C168.777 13.4488 168.715 13.7989 168.589 14.1432C168.476 14.4874 168.281 14.796 168.005 15.069C167.741 15.342 167.376 15.5616 166.912 15.7278C166.447 15.8821 165.875 15.9592 165.197 15.9592ZM161.201 8.69501C160.611 8.69501 160.089 8.60599 159.637 8.42794C159.185 8.23803 158.801 7.93535 158.487 7.51992C158.173 7.09261 157.928 6.51693 157.752 5.79289L160.315 5.16973C160.454 5.77508 160.604 6.20832 160.768 6.46945C160.931 6.71872 161.157 6.84335 161.446 6.84335C161.635 6.84335 161.823 6.77807 162.012 6.6475C162.2 6.51693 162.451 6.26767 162.765 5.89971L163.557 4.95608C163.997 4.43382 164.411 4.02431 164.801 3.72757C165.19 3.41896 165.611 3.19344 166.063 3.05101C166.528 2.90857 167.081 2.83142 167.722 2.81955L167.873 4.88486C167.446 4.9086 167.075 4.97982 166.761 5.09851C166.459 5.20534 166.183 5.35965 165.932 5.56143C165.68 5.76321 165.416 6.03028 165.14 6.36263L164.518 7.09261C164.279 7.37748 163.997 7.64455 163.67 7.89381C163.343 8.1312 162.973 8.32705 162.558 8.48136C162.156 8.62379 161.704 8.69501 161.201 8.69501Z" fill="#FF5858"/>
<path d="M138.744 11.4576C138.744 10.5621 138.947 9.7574 139.355 9.04343C139.762 8.31737 140.36 7.74256 141.149 7.31902C141.951 6.88338 142.931 6.66557 144.089 6.66557C145.26 6.66557 146.239 6.87128 147.028 7.28272C147.818 7.68206 148.409 8.23871 148.804 8.95267C149.211 9.66664 149.415 10.4956 149.415 11.4395C149.415 12.3228 149.217 13.1094 148.823 13.7992C148.428 14.4768 147.837 15.0093 147.048 15.3965C146.259 15.7716 145.272 15.9592 144.089 15.9592C142.905 15.9592 141.913 15.7656 141.111 15.3784C140.322 14.9911 139.73 14.4587 139.336 13.781C138.941 13.1034 138.744 12.3289 138.744 11.4576ZM141.397 11.2216C141.397 11.9598 141.62 12.5709 142.065 13.0549C142.523 13.5269 143.198 13.7629 144.089 13.7629C144.687 13.7629 145.183 13.66 145.578 13.4543C145.972 13.2365 146.271 12.946 146.475 12.583C146.679 12.2079 146.78 11.7843 146.78 11.3124C146.78 10.8283 146.679 10.3927 146.475 10.0055C146.284 9.61823 145.985 9.30966 145.578 9.07973C145.183 8.83771 144.687 8.7167 144.089 8.7167C143.478 8.7167 142.975 8.83166 142.581 9.06158C142.186 9.2915 141.887 9.60008 141.684 9.98732C141.493 10.3625 141.397 10.7739 141.397 11.2216ZM151.934 8.48073C151.349 8.48073 150.865 8.39602 150.484 8.22661C150.102 8.05719 149.796 7.84542 149.567 7.5913C149.351 7.32508 149.198 7.04675 149.109 6.75632C149.02 6.4659 148.976 6.20572 148.976 5.9758C148.976 5.47966 149.058 5.07427 149.224 4.75964C149.402 4.43291 149.58 4.14248 149.758 3.88836L151.801 4.01542C151.521 4.26955 151.298 4.51762 151.133 4.75964C150.967 5.00166 150.884 5.31024 150.884 5.68537C150.884 5.9879 150.98 6.23598 151.171 6.42959C151.374 6.62321 151.635 6.72002 151.953 6.72002C152.335 6.72002 152.609 6.62926 152.774 6.44774C152.952 6.26623 153.042 6.04841 153.042 5.79428C153.042 5.44335 152.889 5.18923 152.583 5.03192C152.278 4.8746 151.864 4.79594 151.343 4.79594H148.613C148.18 4.79594 147.843 4.8988 147.601 5.10452C147.359 5.31024 147.207 5.63697 147.143 6.08471H144.814C144.725 5.68538 144.56 5.37075 144.318 5.14083C144.089 4.9109 143.72 4.79594 143.211 4.79594H143.001C142.721 4.79594 142.479 4.88065 142.275 5.05007C142.072 5.21948 141.97 5.4615 141.97 5.77613C141.97 5.96975 142.014 6.13312 142.104 6.26623C142.205 6.39934 142.345 6.5022 142.523 6.57481C142.702 6.63531 142.905 6.66557 143.134 6.66557H143.783V8.64409H143.287C142.549 8.64409 141.9 8.52308 141.34 8.28106C140.793 8.02694 140.366 7.66996 140.061 7.21011C139.756 6.75027 139.603 6.21177 139.603 5.59462C139.603 4.75964 139.889 4.08198 140.462 3.56163C141.047 3.02918 141.843 2.76296 142.848 2.76296H143.077C143.637 2.76296 144.121 2.84162 144.528 2.99893C144.935 3.14414 145.266 3.34381 145.52 3.59793C145.775 3.85206 145.953 4.12433 146.055 4.41476H145.883C146.036 4.11223 146.233 3.83996 146.475 3.59793C146.717 3.34381 147.048 3.14414 147.468 2.99893C147.888 2.84162 148.435 2.76296 149.109 2.76296H150.255C151.082 2.76296 151.788 2.81136 152.373 2.90817C152.959 2.99288 153.474 3.1986 153.92 3.52533C154.251 3.75525 154.511 4.04568 154.702 4.39661C154.893 4.74754 154.989 5.19528 154.989 5.73983C154.989 6.5385 154.721 7.19801 154.187 7.71836C153.652 8.22661 152.902 8.48073 151.934 8.48073ZM152.545 0.00390625C153.36 0.00390625 154.015 0.167271 154.511 0.494001C155.008 0.80863 155.383 1.25637 155.638 1.83722L153.691 2.29101C153.614 2.1579 153.525 2.04294 153.423 1.94613C153.322 1.84932 153.201 1.77672 153.061 1.72831C152.921 1.67991 152.755 1.65571 152.564 1.65571C152.246 1.65571 151.998 1.72831 151.82 1.87353C151.654 2.00664 151.572 2.18211 151.572 2.39993C151.572 2.62985 151.642 2.84162 151.782 3.03523C151.922 3.21675 152.113 3.38011 152.354 3.52533L150.407 4.21509C150.165 4.00937 149.943 3.7371 149.739 3.39827C149.548 3.04733 149.453 2.648 149.453 2.20026C149.453 1.81302 149.561 1.45604 149.777 1.12931C149.994 0.790478 150.331 0.518203 150.789 0.312485C151.247 0.106766 151.833 0.00390625 152.545 0.00390625Z" fill="#FF5858"/>
<path d="M126.059 6.57374C126.868 6.57374 127.542 6.74166 128.081 7.07749C128.621 7.41333 129.054 7.85712 129.383 8.40885C129.711 8.96059 129.945 9.57229 130.086 10.244C130.227 10.9037 130.297 11.5693 130.297 12.241C130.297 13.4524 130.15 14.5919 129.857 15.6594C129.576 16.7268 129.166 17.7224 128.626 18.6459C128.099 19.5815 127.466 20.445 126.727 21.2367C125.989 22.0403 125.174 22.7839 124.283 23.4676L122.789 21.7764C123.492 21.2127 124.154 20.607 124.776 19.9593C125.409 19.3116 125.96 18.6039 126.428 17.8363C126.909 17.0807 127.284 16.2471 127.554 15.3355C127.823 14.424 127.958 13.4104 127.958 12.295C127.958 11.8872 127.923 11.4554 127.853 10.9996C127.794 10.5438 127.689 10.118 127.536 9.72222C127.396 9.32641 127.196 9.00257 126.938 8.75069C126.692 8.49881 126.376 8.37287 125.989 8.37287C125.743 8.37287 125.532 8.44484 125.356 8.58877C125.18 8.7327 125.092 8.9246 125.092 9.16449C125.092 9.40437 125.157 9.59628 125.285 9.74021C125.414 9.87215 125.573 9.9621 125.76 10.0101C125.96 10.0581 126.147 10.082 126.323 10.082C126.804 10.082 127.214 9.95011 127.554 9.68624C127.894 9.41037 128.21 9.11651 128.503 8.80466L129.136 10.6578C128.726 10.9576 128.275 11.2335 127.782 11.4854C127.302 11.7372 126.704 11.8632 125.989 11.8632C125.098 11.8632 124.371 11.6473 123.808 11.2155C123.257 10.7837 122.982 10.112 122.982 9.20047C122.982 8.69671 123.099 8.24693 123.334 7.85112C123.568 7.45531 123.914 7.14346 124.371 6.91557C124.828 6.68768 125.391 6.57374 126.059 6.57374Z" fill="#FF5858"/>
<path d="M116.2 23.4676C115.66 23.4676 115.219 23.3672 114.875 23.1664C114.519 22.9656 114.182 22.6519 113.863 22.2252H114.286C113.992 22.5389 113.716 22.7836 113.458 22.9593C113.188 23.1476 112.906 23.2793 112.612 23.3546C112.317 23.4299 111.961 23.4676 111.544 23.4676C110.833 23.4676 110.268 23.3107 109.851 22.997C109.434 22.6832 109.14 22.2816 108.968 21.7922C108.796 21.3153 108.71 20.8259 108.71 20.3239C108.71 19.596 108.858 18.9748 109.152 18.4602C109.434 17.9582 109.821 17.5692 110.311 17.2931C110.802 17.0295 111.354 16.8978 111.968 16.8978C112.728 16.8978 113.305 17.0797 113.697 17.4437C114.078 17.8202 114.268 18.2782 114.268 18.8179C114.268 19.4454 114.072 19.9223 113.679 20.2486C113.274 20.5749 112.673 20.738 111.876 20.738C111.446 20.738 111.06 20.6502 110.716 20.4745C110.36 20.3113 110.054 20.1105 109.796 19.8721L110.293 18.592C110.44 18.7928 110.636 18.981 110.882 19.1567C111.115 19.3324 111.385 19.4203 111.692 19.4203C111.961 19.4203 112.176 19.3701 112.336 19.2697C112.483 19.1818 112.557 19.0375 112.557 18.8367C112.557 18.6987 112.514 18.5669 112.428 18.4414C112.33 18.3284 112.176 18.272 111.968 18.272C111.636 18.272 111.336 18.41 111.066 18.6861C110.796 18.9622 110.661 19.4516 110.661 20.1544V20.3615C110.661 20.6753 110.704 20.9388 110.79 21.1522C110.863 21.3655 110.992 21.5224 111.176 21.6228C111.348 21.7232 111.569 21.7734 111.839 21.7734C112.317 21.7734 112.649 21.6604 112.833 21.4345C113.004 21.2212 113.109 20.9953 113.145 20.7568H114.93C114.992 21.2086 115.133 21.491 115.354 21.6039C115.562 21.7169 115.802 21.7734 116.071 21.7734C116.39 21.7734 116.624 21.6792 116.771 21.491C116.906 21.3027 116.973 21.0831 116.973 20.8321C116.973 20.3176 116.783 19.8846 116.403 19.5332C116.022 19.1818 115.593 18.8681 115.115 18.592L116.292 16.8978C116.808 17.1613 117.274 17.4813 117.691 17.8578C118.108 18.2343 118.439 18.661 118.685 19.1379C118.918 19.6148 119.034 20.1482 119.034 20.738C119.034 21.5537 118.795 22.2126 118.317 22.7146C117.826 23.2166 117.12 23.4676 116.2 23.4676Z" fill="#FF5858"/>
<path d="M116.434 16.4323C115.828 16.4323 115.292 16.3462 114.824 16.174C114.357 16.0019 113.884 15.7129 113.404 15.3071C112.937 14.889 112.375 14.3234 111.719 13.6101C111.365 13.2166 111.088 12.9461 110.886 12.7985C110.684 12.6387 110.45 12.5587 110.185 12.5587C109.983 12.5587 109.781 12.6387 109.579 12.7985C109.39 12.9461 109.295 13.1797 109.295 13.4995C109.295 13.8807 109.396 14.145 109.598 14.2926C109.813 14.4402 110.059 14.514 110.336 14.514C110.639 14.514 110.942 14.391 111.245 14.1451C111.548 13.8991 111.763 13.4933 111.889 12.9277L113.461 14.5508C113.209 14.8952 112.943 15.2149 112.666 15.51C112.401 15.7928 112.066 16.0203 111.662 16.1925C111.258 16.3524 110.715 16.4323 110.034 16.4323C109.289 16.4323 108.676 16.297 108.197 16.0265C107.73 15.7437 107.382 15.3809 107.155 14.9382C106.941 14.4955 106.833 14.0282 106.833 13.5364C106.833 12.9338 106.978 12.4173 107.269 11.9869C107.559 11.5442 107.957 11.1999 108.462 10.954C108.967 10.708 109.535 10.5851 110.166 10.5851C110.696 10.5851 111.163 10.6527 111.567 10.788C111.971 10.9232 112.363 11.1446 112.741 11.452C113.133 11.7594 113.562 12.1652 114.029 12.6694C114.433 13.0998 114.761 13.4257 115.014 13.647C115.279 13.8684 115.519 14.0159 115.733 14.0897C115.961 14.1635 116.219 14.2004 116.51 14.2004C116.863 14.2004 117.154 14.0774 117.381 13.8315C117.621 13.5855 117.741 13.2166 117.741 12.7248C117.741 12.1468 117.608 11.6365 117.343 11.1938C117.078 10.7511 116.731 10.3576 116.302 10.0133C115.885 9.65666 115.437 9.33079 114.957 9.03566L116.434 6.98822C117.179 7.38172 117.848 7.849 118.441 8.39007C119.035 8.93114 119.502 9.54599 119.843 10.2346C120.196 10.9109 120.373 11.6734 120.373 12.5219C120.373 13.3089 120.221 13.9975 119.918 14.5877C119.615 15.1657 119.167 15.6207 118.574 15.9527C117.993 16.2724 117.28 16.4323 116.434 16.4323ZM119.275 18.7749C118.568 18.7749 118 18.6642 117.57 18.4428C117.154 18.2215 116.851 17.9325 116.661 17.5759C116.485 17.2193 116.396 16.8381 116.396 16.4323C116.396 16.2724 116.409 16.1064 116.434 15.9343C116.472 15.7621 116.522 15.5961 116.586 15.4362H119.028C118.965 15.5346 118.915 15.633 118.877 15.7314C118.839 15.8174 118.82 15.9035 118.82 15.9896C118.82 16.1249 118.852 16.2478 118.915 16.3585C118.978 16.4692 119.066 16.5553 119.18 16.6167C119.294 16.6782 119.426 16.709 119.578 16.709C119.78 16.709 119.956 16.6721 120.108 16.5983C120.272 16.5368 120.468 16.4261 120.695 16.2663L121.85 17.8895C121.446 18.1846 121.036 18.4059 120.619 18.5535C120.215 18.7011 119.767 18.7749 119.275 18.7749ZM110.639 8.90654C110.046 8.90654 109.522 8.81432 109.068 8.62986C108.613 8.43311 108.228 8.11954 107.913 7.68914C107.597 7.24645 107.351 6.65005 107.174 5.89994L109.749 5.25435C109.888 5.88149 110.04 6.33033 110.204 6.60086C110.368 6.8591 110.595 6.98822 110.886 6.98822C111.075 6.98822 111.264 6.92059 111.454 6.78532C111.643 6.65005 111.896 6.39182 112.211 6.01061L113.007 5.033C113.448 4.49193 113.865 4.06769 114.256 3.76027C114.648 3.44054 115.071 3.2069 115.525 3.05934C115.992 2.91178 116.548 2.83185 117.192 2.81955L117.343 4.95922C116.914 4.98381 116.541 5.05759 116.226 5.18056C115.923 5.29124 115.645 5.4511 115.393 5.66015C115.14 5.86919 114.875 6.14588 114.597 6.49019L113.972 7.24645C113.732 7.54158 113.448 7.81826 113.12 8.0765C112.792 8.32244 112.42 8.52534 112.003 8.6852C111.599 8.83276 111.144 8.90654 110.639 8.90654Z" fill="#FF5858"/>
<path d="M88.0623 11.4131C88.0623 10.5088 88.2625 9.73278 88.6629 9.08509C89.0634 8.43739 89.6515 7.93634 90.4274 7.58194C91.2158 7.22754 92.1731 7.05034 93.2994 7.05034C94.4632 7.05034 95.433 7.21532 96.2089 7.54528C96.9847 7.87524 97.5666 8.36407 97.9546 9.01176C98.355 9.64724 98.5552 10.4416 98.5552 11.3948C98.5552 12.2869 98.3613 13.0812 97.9733 13.7778C97.5854 14.4622 96.9972 14.9999 96.2089 15.391C95.433 15.7698 94.4632 15.9592 93.2994 15.9592C92.1481 15.9592 91.1782 15.7637 90.3899 15.3726C89.614 14.9816 89.0321 14.4439 88.6442 13.7595C88.2562 13.0751 88.0623 12.293 88.0623 11.4131ZM90.6714 11.1748C90.6714 11.9203 90.8904 12.5374 91.3284 13.0263C91.7789 13.5029 92.4359 13.7412 93.2994 13.7412C93.8875 13.7412 94.3756 13.6373 94.7635 13.4295C95.1639 13.2096 95.458 12.9163 95.6457 12.5496C95.846 12.1708 95.9461 11.7431 95.9461 11.2665C95.9461 10.7776 95.846 10.3377 95.6457 9.94664C95.458 9.55558 95.1702 9.24395 94.7823 9.01176C94.3943 8.76735 93.9 8.64514 93.2994 8.64514C92.7112 8.64514 92.2169 8.76124 91.8165 8.99343C91.4285 9.22562 91.1407 9.53725 90.953 9.92831C90.7653 10.3072 90.6714 10.7227 90.6714 11.1748ZM102.891 12.3663C102.316 12.3663 101.84 12.2808 101.465 12.1097C101.089 11.9386 100.789 11.7248 100.564 11.4681C100.351 11.1993 100.201 10.9182 100.113 10.6249C100.026 10.3316 99.9818 10.0627 99.9818 9.81833C99.9818 9.34172 100.063 8.93844 100.226 8.60848C100.401 8.27852 100.576 7.97912 100.751 7.71026L102.76 7.85691C102.485 8.11354 102.266 8.36407 102.103 8.60848C101.94 8.85289 101.859 9.16452 101.859 9.54336C101.859 9.84888 101.953 10.0994 102.14 10.2949C102.341 10.4905 102.597 10.5882 102.91 10.5882C103.273 10.5882 103.542 10.5027 103.717 10.3316C103.892 10.1483 103.98 9.9222 103.98 9.65335C103.98 9.28673 103.83 9.03009 103.53 8.88345C103.229 8.72458 102.822 8.64514 102.309 8.64514H88.2312V6.57374H100.695C101.458 6.57374 102.09 6.59818 102.591 6.64706C103.092 6.68372 103.517 6.75705 103.867 6.86703C104.23 6.97702 104.562 7.14811 104.862 7.3803C105.175 7.61249 105.425 7.90579 105.613 8.26019C105.801 8.61459 105.895 9.06064 105.895 9.59835C105.895 10.3927 105.632 11.0526 105.106 11.5781C104.581 12.1036 103.842 12.3663 102.891 12.3663Z" fill="#FF5858"/>
<path d="M75.5632 15.9592C74.7809 15.9592 74.1514 15.8309 73.6746 15.5743C73.2101 15.3054 72.874 14.9632 72.6662 14.5477C72.4706 14.1322 72.3728 13.6923 72.3728 13.2279C72.3728 12.6291 72.5073 12.1341 72.7762 11.7431C73.0451 11.352 73.3996 11.0648 73.8397 10.8815C74.2919 10.686 74.7687 10.5882 75.2698 10.5882C75.9054 10.5882 76.4372 10.6982 76.865 10.9182C77.3051 11.1259 77.6657 11.3765 77.9468 11.6698C78.2402 11.9508 78.4724 12.2014 78.6436 12.4213L77.7084 14.2911C77.574 13.9611 77.409 13.6495 77.2134 13.3562C77.03 13.0629 76.81 12.8246 76.5533 12.6413C76.2966 12.4458 75.991 12.348 75.6365 12.348C75.3676 12.348 75.1231 12.4213 74.9031 12.568C74.6831 12.7146 74.5731 12.9468 74.5731 13.2646C74.5731 13.5456 74.6647 13.7656 74.8481 13.9245C75.0315 14.0833 75.2759 14.1628 75.5815 14.1628C75.9849 14.1628 76.3027 14.0528 76.535 13.8328C76.7794 13.6128 76.9506 13.3195 77.0484 12.9529C77.1462 12.5863 77.1951 12.1891 77.1951 11.7614V11.4131C77.1951 10.8999 77.1278 10.4477 76.9934 10.0566C76.8589 9.66557 76.645 9.36005 76.3516 9.14008C76.0583 8.90789 75.6732 8.79179 75.1965 8.79179C74.9031 8.79179 74.6403 8.85289 74.4081 8.9751C74.1758 9.08509 73.9802 9.24396 73.8213 9.45171C73.6746 9.64724 73.5585 9.87332 73.4729 10.13H71.1077C71.0465 9.93442 70.9365 9.72056 70.7776 9.48837C70.631 9.24395 70.4109 9.0362 70.1176 8.86511C69.8242 8.6818 69.4208 8.59015 68.9074 8.59015C68.4796 8.59015 68.1312 8.66347 67.8623 8.81012C67.6056 8.94455 67.4772 9.17063 67.4772 9.48837C67.4772 9.61057 67.4956 9.72667 67.5322 9.83666C67.5811 9.93442 67.6667 10.02 67.7889 10.0933C67.899 10.1544 68.0395 10.2094 68.2107 10.2583C68.394 10.2949 68.6752 10.3133 69.0541 10.3133H70.1359V12.2197H68.9991C68.6201 12.2197 68.3268 12.238 68.119 12.2747C67.9112 12.3113 67.7462 12.3786 67.6239 12.4763C67.5384 12.5496 67.465 12.6413 67.4039 12.7513C67.355 12.8491 67.3306 12.9651 67.3306 13.0996C67.3306 13.344 67.41 13.5456 67.5689 13.7045C67.7401 13.8634 68.0151 13.9428 68.394 13.9428C68.7974 13.9428 69.158 13.8389 69.4758 13.6312C69.8059 13.4234 70.1237 13.1485 70.4293 12.8063L72.0061 14.1994C71.6761 14.5783 71.3155 14.9021 70.9243 15.171C70.5454 15.4276 70.1237 15.6231 69.6592 15.7576C69.1947 15.892 68.6629 15.9592 68.064 15.9592C66.915 15.9592 66.0471 15.7209 65.4603 15.2443C64.8858 14.7555 64.5986 14.1567 64.5986 13.4479C64.5986 13.1057 64.6658 12.7879 64.8003 12.4947C64.9347 12.1891 65.1425 11.9264 65.4237 11.7064C65.717 11.4742 66.0837 11.2909 66.5238 11.1565L66.5055 11.3948C65.8943 11.187 65.4481 10.8754 65.167 10.4599C64.8858 10.0444 64.7453 9.58613 64.7453 9.08509C64.7453 8.3274 65.0753 7.72248 65.7354 7.27032C66.3954 6.80593 67.2694 6.57374 68.3573 6.57374C69.0052 6.57374 69.5553 6.63484 70.0075 6.75705C70.472 6.86703 70.8999 7.05034 71.291 7.30698C71.6822 7.55139 72.0794 7.88746 72.4828 8.31518L72.0978 8.33352C72.3789 7.9669 72.6723 7.65527 72.9779 7.39863C73.2957 7.12978 73.6502 6.92814 74.0413 6.79371C74.4447 6.64706 74.9214 6.57374 75.4715 6.57374C76.3883 6.57374 77.1523 6.78149 77.7635 7.19699C78.3746 7.60027 78.833 8.16854 79.1386 8.90178C79.4564 9.6228 79.6153 10.4538 79.6153 11.3948C79.6153 12.3602 79.4686 13.1851 79.1753 13.8695C78.8819 14.5416 78.4358 15.061 77.8368 15.4276C77.2378 15.782 76.48 15.9592 75.5632 15.9592Z" fill="#FF5858"/>
<path d="M50.1116 7.03562C51.175 7.03562 52.0929 7.18958 52.8652 7.49751C53.6375 7.80543 54.2326 8.26731 54.6504 8.88316C55.0682 9.499 55.2771 10.2626 55.2771 11.1741C55.2771 11.9254 55.2074 12.5905 55.0682 13.1694C54.9289 13.7483 54.7517 14.2656 54.5364 14.7214C54.3212 15.1648 54.106 15.5774 53.8907 15.9592L51.346 14.9985C51.5612 14.7152 51.7638 14.4011 51.9537 14.0563C52.1562 13.6991 52.3208 13.3049 52.4474 12.8738C52.574 12.4427 52.6373 11.9747 52.6373 11.4697C52.6373 10.9893 52.555 10.5336 52.3905 10.1025C52.2259 9.67144 51.9537 9.32656 51.5738 9.06791C51.2067 8.79694 50.7003 8.66145 50.0546 8.66145C49.5355 8.66145 49.0861 8.77846 48.7062 9.01248C48.3391 9.2465 48.0542 9.5729 47.8516 9.99168C47.6491 10.3981 47.5478 10.8723 47.5478 11.4143C47.5478 12.1287 47.6681 12.7876 47.9086 13.3911C48.1492 13.9824 48.4594 14.512 48.8392 14.98L46.2754 15.9592C45.8829 15.3064 45.5538 14.592 45.2879 13.8161C45.022 13.0401 44.8891 12.221 44.8891 11.3589C44.8891 10.5459 45.0853 9.81308 45.4778 9.16029C45.8829 8.50749 46.4716 7.99018 47.2439 7.60836C48.0162 7.22653 48.9721 7.03562 50.1116 7.03562ZM59.664 12.4119C59.0816 12.4119 58.6005 12.3257 58.2206 12.1533C57.8408 11.9809 57.5433 11.7653 57.3281 11.5067C57.1128 11.2357 56.9609 10.9524 56.8723 10.6568C56.7837 10.3612 56.7394 10.0902 56.7394 9.84387C56.7394 9.36351 56.8217 8.95706 56.9862 8.6245C57.1635 8.29195 57.3407 7.99018 57.518 7.71921L59.55 7.86701C59.2715 8.12567 59.0499 8.37816 58.8853 8.6245C58.7207 8.87084 58.6384 9.18492 58.6384 9.56674C58.6384 9.87467 58.7334 10.1272 58.9233 10.3242C59.1259 10.5213 59.3854 10.6198 59.7019 10.6198C60.0691 10.6198 60.3413 10.5336 60.5185 10.3612C60.6958 10.1764 60.7844 9.94857 60.7844 9.6776C60.7844 9.30809 60.6325 9.04943 60.3286 8.90163C60.0248 8.74151 59.6196 8.66145 59.1132 8.66145H44.984V6.57374H57.461C58.2333 6.57374 58.8727 6.59837 59.3791 6.64764C59.8855 6.68459 60.316 6.75849 60.6705 6.86934C61.0376 6.9802 61.3731 7.15263 61.677 7.38665C61.9935 7.62067 62.2467 7.91628 62.4366 8.27347C62.6265 8.63066 62.7215 9.08023 62.7215 9.62217C62.7215 10.4228 62.4493 11.0879 61.9049 11.6175C61.3731 12.1471 60.6262 12.4119 59.664 12.4119Z" fill="#FF5858"/>
<path d="M33.6265 12.6935C33.6265 11.8872 33.8188 11.1641 34.2035 10.5242C34.5881 9.88425 35.1331 9.37872 35.8382 9.00756C36.5434 8.63641 37.3833 8.45083 38.3577 8.45083C39.345 8.45083 40.1848 8.63641 40.8772 9.00756C41.5695 9.37872 42.0952 9.88425 42.4542 10.5242C42.8261 11.1641 43.012 11.8872 43.012 12.6935C43.012 13.4998 42.8261 14.2229 42.4542 14.8628C42.0824 15.4899 41.5439 15.9891 40.8387 16.3602C40.1463 16.7186 39.3065 16.8978 38.3192 16.8978C37.3448 16.8978 36.505 16.7122 35.7998 16.341C35.0946 15.9699 34.5561 15.4707 34.1842 14.8436C33.8124 14.2037 33.6265 13.487 33.6265 12.6935ZM36.2037 12.6743C36.2037 13.263 36.3768 13.7622 36.7229 14.1717C37.082 14.5685 37.6141 14.7668 38.3192 14.7668C38.7936 14.7668 39.1847 14.6772 39.4924 14.4981C39.8001 14.3061 40.0309 14.0501 40.1848 13.7302C40.3515 13.4102 40.4348 13.0582 40.4348 12.6743C40.4348 12.0856 40.2489 11.5928 39.8771 11.1961C39.5181 10.7865 38.9988 10.5818 38.3192 10.5818C37.8705 10.5818 37.4858 10.6778 37.1653 10.8697C36.8576 11.0489 36.6204 11.2985 36.4537 11.6184C36.287 11.9256 36.2037 12.2775 36.2037 12.6743Z" fill="#FF5858"/>
<path d="M25.1796 15.9592C23.7651 15.9592 22.5678 15.7331 21.5876 15.281C20.6074 14.8166 19.8629 14.1933 19.3542 13.4112C18.8579 12.6169 18.6097 11.7248 18.6097 10.7349C18.6097 9.87943 18.7773 9.14008 19.1123 8.51682C19.4597 7.89357 19.9436 7.41696 20.5639 7.08701C21.1843 6.74483 21.8978 6.57374 22.7043 6.57374C23.4487 6.57374 24.0505 6.70817 24.5096 6.97702C24.9686 7.23365 25.3037 7.56972 25.5146 7.98523C25.7255 8.38851 25.831 8.81012 25.831 9.25006C25.831 9.81222 25.7069 10.2949 25.4587 10.6982C25.2106 11.1015 24.8508 11.407 24.3793 11.6148C23.9078 11.8225 23.3308 11.9264 22.6484 11.9264C22.1521 11.9264 21.7116 11.8592 21.327 11.7248C20.9424 11.5903 20.6074 11.4253 20.322 11.2298C20.049 11.0343 19.8195 10.8571 19.6334 10.6982L20.0614 8.9751C20.2103 9.15841 20.384 9.34172 20.5826 9.52503C20.7935 9.70834 21.0292 9.8611 21.2898 9.98331C21.5504 10.0933 21.8295 10.1483 22.1273 10.1483C22.5119 10.1483 22.8221 10.0811 23.0579 9.94664C23.2936 9.8 23.4115 9.56169 23.4115 9.23173C23.4115 9.02398 23.337 8.83456 23.1882 8.66347C23.0393 8.48016 22.8221 8.38851 22.5368 8.38851C22.1025 8.38851 21.7427 8.57182 21.4573 8.93844C21.1719 9.29284 21.0292 9.72056 21.0292 10.2216V10.9365C21.0292 11.2298 21.0913 11.5414 21.2153 11.8714C21.3518 12.1891 21.5752 12.4947 21.8854 12.7879C22.208 13.069 22.6422 13.3012 23.1882 13.4845C23.7465 13.6556 24.4413 13.7412 25.2726 13.7412C26.439 13.7412 27.3757 13.5456 28.083 13.1546C28.8026 12.7513 29.1624 12.1219 29.1624 11.2665C29.1624 10.6921 28.9825 10.2155 28.6227 9.83666C28.2753 9.4456 27.7293 9.04842 26.9849 8.64514L28.4366 6.57374C29.4168 7.05034 30.2109 7.67971 30.8188 8.46183C31.4392 9.23173 31.7494 10.1788 31.7494 11.3031C31.7494 12.1708 31.5137 12.959 31.0422 13.6678C30.5831 14.3644 29.8697 14.9205 28.9019 15.336C27.9341 15.7515 26.6933 15.9592 25.1796 15.9592Z" fill="#FF5858"/>
<path d="M14.454 5.71504C14.454 6.14264 14.3683 6.53971 14.197 6.90622C14.0256 7.27274 13.787 7.55985 13.481 7.76754C13.1506 7.99967 12.7222 8.19514 12.196 8.35397C11.6819 8.50058 11.1557 8.57388 10.6172 8.57388H7.62484V6.57636H10.6355C10.9905 6.57636 11.2536 6.55803 11.4249 6.52138C11.6085 6.47251 11.7492 6.40531 11.8472 6.31979C11.9206 6.24649 11.9757 6.16708 12.0124 6.08156C12.0491 5.98382 12.0675 5.87997 12.0675 5.77002C12.0675 5.62341 12.0491 5.50124 12.0124 5.4035C11.9757 5.29355 11.9145 5.20191 11.8288 5.12861C11.7309 5.04309 11.5901 4.982 11.4066 4.94535C11.2352 4.9087 10.9476 4.89038 10.5437 4.89038H3.47595V2.81955H10.3051C11.174 2.81955 11.8472 2.88674 12.3245 3.02113C12.814 3.14331 13.2362 3.351 13.5912 3.64421C13.8482 3.86413 14.0562 4.14512 14.2153 4.48721C14.3744 4.82929 14.454 5.23857 14.454 5.71504ZM8.01036 15.9592C6.32143 15.9592 4.94459 15.7637 3.87983 15.3728C2.81507 14.9818 2.0318 14.4321 1.53002 13.7235C1.02824 13.0149 0.777344 12.1963 0.777344 11.2678C0.777344 10.5592 0.942565 9.9361 1.27301 9.39854C1.60345 8.86098 2.05628 8.43949 2.63149 8.13406C3.21894 7.82863 3.88595 7.67591 4.6325 7.67591C5.30563 7.67591 5.8686 7.79808 6.32143 8.04243C6.77426 8.27456 7.11694 8.59221 7.34947 8.99537C7.582 9.39854 7.69827 9.85058 7.69827 10.3515C7.69827 11.2067 7.4229 11.8542 6.87217 12.294C6.32143 12.7216 5.56875 12.9354 4.61414 12.9354C4.17355 12.9354 3.75744 12.8682 3.36581 12.7339C2.98641 12.5872 2.64373 12.4101 2.33777 12.2024C2.0318 11.9947 1.77479 11.7992 1.56673 11.616L2.1909 10.1316C2.42344 10.4004 2.70492 10.6569 3.03537 10.9013C3.36581 11.1334 3.75744 11.2495 4.21027 11.2495C4.57743 11.2495 4.87727 11.1762 5.10981 11.0295C5.35458 10.8829 5.47697 10.6508 5.47697 10.3332C5.47697 10.0888 5.39741 9.88723 5.23831 9.72841C5.07921 9.56959 4.84056 9.49017 4.52235 9.49017C4.26534 9.49017 4.02057 9.56348 3.78804 9.71008C3.55551 9.84447 3.36581 10.0522 3.21894 10.3332C3.07208 10.6019 2.99865 10.9379 2.99865 11.3411V11.451C2.99865 11.8176 3.09044 12.1474 3.27402 12.4406C3.46984 12.7339 3.76968 12.9843 4.17355 13.192C4.57743 13.3875 5.09757 13.5402 5.73398 13.6502C6.37038 13.7479 7.1353 13.7968 8.02871 13.7968C8.97109 13.7968 9.79107 13.754 10.4887 13.6685C11.1863 13.583 11.7615 13.4486 12.2143 13.2653C12.6671 13.0698 13.0037 12.8133 13.224 12.4956C13.4565 12.1658 13.5728 11.7626 13.5728 11.2861V11.2311C13.5728 10.7424 13.4259 10.3271 13.1322 9.98497C12.8385 9.64289 12.4224 9.47185 11.8839 9.47185C11.6146 9.47185 11.3637 9.54515 11.1312 9.69176C10.9109 9.82615 10.8008 10.0461 10.8008 10.3515C10.8008 10.6814 10.9048 10.9135 11.1128 11.0479C11.3209 11.17 11.5779 11.2311 11.8839 11.2311C12.1898 11.2311 12.4468 11.17 12.6549 11.0479C12.863 10.9257 13.0404 10.7547 13.1873 10.5347C13.3341 10.3026 13.4504 10.0338 13.5361 9.72841L14.5458 11.0662C14.2888 11.4327 14.0256 11.7626 13.7564 12.0558C13.4994 12.3368 13.1873 12.5567 12.8201 12.7155C12.453 12.8744 11.9757 12.9538 11.3882 12.9538C10.9231 12.9538 10.4764 12.8805 10.0481 12.7339C9.61973 12.575 9.27093 12.3246 9.00168 11.9825C8.74467 11.6282 8.61617 11.1578 8.61617 10.5714C8.61617 9.8628 8.8793 9.30081 9.40556 8.88542C9.93182 8.45782 10.6661 8.24401 11.6085 8.24401C11.841 8.24401 12.0491 8.25012 12.2327 8.26234C12.4163 8.27456 12.5876 8.29288 12.7467 8.31732C12.9058 8.32953 13.0588 8.35397 13.2056 8.39062L11.0761 8.42727C10.917 8.3784 10.7457 8.34175 10.5621 8.31732C10.3908 8.28067 10.2133 8.25623 10.0297 8.24401C9.85838 8.21958 9.6748 8.20736 9.47899 8.20736L10.2684 6.77794C11.0394 6.81459 11.7554 6.94287 12.4163 7.16279C13.0894 7.37048 13.6768 7.6698 14.1786 8.06075C14.6804 8.43949 15.072 8.90375 15.3535 9.45352C15.6472 9.99108 15.7941 10.6081 15.7941 11.3044C15.7941 12.0863 15.6472 12.7705 15.3535 13.3569C15.0598 13.9311 14.6008 14.4137 13.9767 14.8047C13.3525 15.1834 12.5448 15.4705 11.5534 15.666C10.5743 15.8615 9.39332 15.9592 8.01036 15.9592Z" fill="#FF5858"/>
</svg>
