<svg width="426" height="13" viewBox="0 0 426 13" fill="none" xmlns="http://www.w3.org/2000/svg">
<path d="M425.939 12.0555H423.738L418.755 4.3377V12.0555H416.554V0.792969H418.755L423.738 8.52692V0.792969H425.939V12.0555Z" fill="#1E57AC"/>
<path d="M409.053 12.0555C408.024 12.0555 407.079 11.814 406.218 11.331C405.357 10.8479 404.674 10.1811 404.17 9.33047C403.666 8.46937 403.414 7.498 403.414 6.41638C403.414 5.34525 403.666 4.38439 404.17 3.53379C404.674 2.67269 405.357 2.00061 406.218 1.51755C407.079 1.0345 408.024 0.792969 409.053 0.792969C410.093 0.792969 411.038 1.0345 411.889 1.51755C412.75 2.00061 413.427 2.67269 413.921 3.53379C414.425 4.38439 414.677 5.34525 414.677 6.41638C414.677 7.498 414.425 8.46937 413.921 9.33047C413.427 10.1811 412.75 10.8479 411.889 11.331C411.028 11.814 410.082 12.0555 409.053 12.0555ZM409.053 10.0866C409.715 10.0866 410.298 9.93954 410.802 9.64551C411.306 9.34097 411.7 8.91042 411.983 8.35385C412.267 7.79729 412.409 7.15146 412.409 6.41638C412.409 5.68129 412.267 5.04072 411.983 4.49465C411.7 3.93809 411.306 3.51279 410.802 3.21875C410.298 2.92472 409.715 2.7777 409.053 2.7777C408.392 2.7777 407.804 2.92472 407.289 3.21875C406.785 3.51279 406.391 3.93809 406.108 4.49465C405.824 5.04072 405.682 5.68129 405.682 6.41638C405.682 7.15146 405.824 7.79729 406.108 8.35385C406.391 8.91042 406.785 9.34097 407.289 9.64551C407.804 9.93954 408.392 10.0866 409.053 10.0866Z" fill="#1E57AC"/>
<path d="M400.599 0.792969V12.0555H398.721V0.792969H400.599Z" fill="#1E57AC"/>
<path d="M396.844 0.792969V2.61628H393.776V12.0555H391.466V2.61628H388.397V0.792969H396.844Z" fill="#1E57AC"/>
<path d="M384.447 9.91259H380.131L379.417 12.0555H377.135L381.032 0.792969H383.562L387.459 12.0555H385.161L384.447 9.91259ZM383.857 8.108L382.289 3.40318L380.721 8.108H383.857Z" fill="#1E57AC"/>
<path d="M372.636 12.0555L370.144 7.66669H369.076V12.0555H366.811V0.792969H371.051C371.924 0.792969 372.669 0.948945 373.284 1.2609C373.898 1.56209 374.357 1.97624 374.659 2.50333C374.972 3.01967 375.128 3.60054 375.128 4.24596C375.128 4.98819 374.913 5.66051 374.481 6.2629C374.049 6.85453 373.408 7.2633 372.555 7.4892L375.258 12.0555H372.636ZM369.076 5.97246H370.97C371.584 5.97246 372.043 5.82724 372.345 5.5368C372.647 5.23561 372.798 4.82146 372.798 4.29437C372.798 3.77803 372.647 3.38003 372.345 3.10034C372.043 2.80991 371.584 2.66469 370.97 2.66469H369.076V5.97246Z" fill="#1E57AC"/>
<path d="M359.31 12.0555C358.281 12.0555 357.336 11.814 356.475 11.331C355.614 10.8479 354.931 10.1811 354.427 9.33047C353.923 8.46937 353.671 7.498 353.671 6.41638C353.671 5.34525 353.923 4.38439 354.427 3.53379C354.931 2.67269 355.614 2.00061 356.475 1.51755C357.336 1.0345 358.281 0.792969 359.31 0.792969C360.35 0.792969 361.295 1.0345 362.146 1.51755C363.007 2.00061 363.684 2.67269 364.178 3.53379C364.682 4.38439 364.934 5.34525 364.934 6.41638C364.934 7.498 364.682 8.46937 364.178 9.33047C363.684 10.1811 363.007 10.8479 362.146 11.331C361.285 11.814 360.339 12.0555 359.31 12.0555ZM359.31 10.0866C359.972 10.0866 360.555 9.93954 361.059 9.64551C361.563 9.34097 361.957 8.91042 362.24 8.35385C362.524 7.79729 362.665 7.15146 362.665 6.41638C362.665 5.68129 362.524 5.04072 362.24 4.49465C361.957 3.93809 361.563 3.51279 361.059 3.21875C360.555 2.92472 359.972 2.7777 359.31 2.7777C358.649 2.7777 358.061 2.92472 357.546 3.21875C357.042 3.51279 356.648 3.93809 356.365 4.49465C356.081 5.04072 355.939 5.68129 355.939 6.41638C355.939 7.15146 356.081 7.79729 356.365 8.35385C356.648 8.91042 357.042 9.34097 357.546 9.64551C358.061 9.93954 358.649 10.0866 359.31 10.0866Z" fill="#1E57AC"/>
<path d="M352.733 4.27823C352.733 4.88063 352.583 5.44537 352.285 5.97246C351.997 6.49955 351.538 6.92445 350.907 7.24716C350.288 7.56987 349.502 7.73123 348.551 7.73123H346.609V12.0555H344.286V0.792969H348.551C349.447 0.792969 350.21 0.943567 350.841 1.24476C351.471 1.54596 351.942 1.9601 352.251 2.48719C352.572 3.01429 352.733 3.6113 352.733 4.27823ZM348.451 5.90792C349.093 5.90792 349.568 5.76808 349.878 5.4884C350.188 5.19796 350.343 4.79457 350.343 4.27823C350.343 3.18102 349.712 2.63241 348.451 2.63241H346.609V5.90792H348.451Z" fill="#1E57AC"/>
<path d="M339.787 12.0555L337.295 7.66669H336.227V12.0555H333.962V0.792969H338.201C339.075 0.792969 339.82 0.948945 340.434 1.2609C341.049 1.56209 341.508 1.97624 341.81 2.50333C342.123 3.01967 342.279 3.60054 342.279 4.24596C342.279 4.98819 342.063 5.66051 341.632 6.2629C341.2 6.85453 340.559 7.2633 339.706 7.4892L342.409 12.0555H339.787ZM336.227 5.97246H338.12C338.735 5.97246 339.194 5.82724 339.496 5.5368C339.798 5.23561 339.949 4.82146 339.949 4.29437C339.949 3.77803 339.798 3.38003 339.496 3.10034C339.194 2.80991 338.735 2.66469 338.12 2.66469H336.227V5.97246Z" fill="#1E57AC"/>
<path d="M326.461 12.0555C325.432 12.0555 324.487 11.814 323.626 11.331C322.765 10.8479 322.082 10.1811 321.578 9.33047C321.074 8.46937 320.822 7.498 320.822 6.41638C320.822 5.34525 321.074 4.38439 321.578 3.53379C322.082 2.67269 322.765 2.00061 323.626 1.51755C324.487 1.0345 325.432 0.792969 326.461 0.792969C327.501 0.792969 328.446 1.0345 329.297 1.51755C330.158 2.00061 330.835 2.67269 331.328 3.53379C331.833 4.38439 332.085 5.34525 332.085 6.41638C332.085 7.498 331.833 8.46937 331.328 9.33047C330.835 10.1811 330.158 10.8479 329.297 11.331C328.435 11.814 327.49 12.0555 326.461 12.0555ZM326.461 10.0866C327.123 10.0866 327.706 9.93954 328.21 9.64551C328.714 9.34097 329.107 8.91042 329.391 8.35385C329.675 7.79729 329.816 7.15146 329.816 6.41638C329.816 5.68129 329.675 5.04072 329.391 4.49465C329.107 3.93809 328.714 3.51279 328.21 3.21875C327.706 2.92472 327.123 2.7777 326.461 2.7777C325.8 2.7777 325.212 2.92472 324.697 3.21875C324.193 3.51279 323.799 3.93809 323.516 4.49465C323.232 5.04072 323.09 5.68129 323.09 6.41638C323.09 7.15146 323.232 7.79729 323.516 8.35385C323.799 8.91042 324.193 9.34097 324.697 9.64551C325.212 9.93954 325.8 10.0866 326.461 10.0866Z" fill="#1E57AC"/>
<path d="M307.682 6.43215C307.682 5.34749 307.936 4.37867 308.442 3.52568C308.959 2.66217 309.659 1.99347 310.539 1.51959C311.431 1.03517 312.427 0.792969 313.528 0.792969C314.816 0.792969 315.945 1.10889 316.914 1.74073C317.883 2.37257 318.56 3.24662 318.945 4.36287H316.286C316.022 3.83634 315.648 3.44144 315.163 3.17817C314.69 2.9149 314.139 2.78327 313.512 2.78327C312.84 2.78327 312.24 2.93596 311.712 3.24135C311.194 3.53621 310.787 3.95744 310.49 4.50504C310.203 5.05263 310.06 5.695 310.06 6.43215C310.06 7.15877 310.203 7.80114 310.49 8.35927C310.787 8.90686 311.194 9.33336 311.712 9.63875C312.24 9.93361 312.84 10.081 313.512 10.081C314.139 10.081 314.69 9.9494 315.163 9.68614C315.648 9.41234 316.022 9.01217 316.286 8.48564H318.945C318.56 9.61242 317.883 10.4917 316.914 11.1236C315.956 11.7449 314.827 12.0555 313.528 12.0555C312.427 12.0555 311.431 11.8186 310.539 11.3447C309.659 10.8603 308.959 10.1916 308.442 9.33862C307.936 8.48564 307.682 7.51681 307.682 6.43215Z" fill="#1E57AC"/>
<path d="M302.99 0.792969V2.61628H299.921V12.0555H297.611V2.61628H294.543V0.792969H302.99Z" fill="#1E57AC"/>
<path d="M290.044 12.0555L287.552 7.66669H286.484V12.0555H284.219V0.792969H288.458C289.332 0.792969 290.077 0.948945 290.691 1.2609C291.306 1.56209 291.765 1.97624 292.067 2.50333C292.38 3.01967 292.536 3.60054 292.536 4.24596C292.536 4.98819 292.32 5.66051 291.889 6.2629C291.457 6.85453 290.815 7.2633 289.963 7.4892L292.666 12.0555H290.044ZM286.484 5.97246H288.377C288.992 5.97246 289.451 5.82724 289.753 5.5368C290.055 5.23561 290.206 4.82146 290.206 4.29437C290.206 3.77803 290.055 3.38003 289.753 3.10034C289.451 2.80991 288.992 2.66469 288.377 2.66469H286.484V5.97246Z" fill="#1E57AC"/>
<path d="M276.718 12.0555C275.689 12.0555 274.744 11.814 273.883 11.331C273.022 10.8479 272.339 10.1811 271.835 9.33047C271.331 8.46937 271.079 7.498 271.079 6.41638C271.079 5.34525 271.331 4.38439 271.835 3.53379C272.339 2.67269 273.022 2.00061 273.883 1.51755C274.744 1.0345 275.689 0.792969 276.718 0.792969C277.758 0.792969 278.703 1.0345 279.554 1.51755C280.415 2.00061 281.092 2.67269 281.585 3.53379C282.09 4.38439 282.342 5.34525 282.342 6.41638C282.342 7.498 282.09 8.46937 281.585 9.33047C281.092 10.1811 280.415 10.8479 279.554 11.331C278.692 11.814 277.747 12.0555 276.718 12.0555ZM276.718 10.0866C277.38 10.0866 277.963 9.93954 278.467 9.64551C278.971 9.34097 279.364 8.91042 279.648 8.35385C279.932 7.79729 280.073 7.15146 280.073 6.41638C280.073 5.68129 279.932 5.04072 279.648 4.49465C279.364 3.93809 278.971 3.51279 278.467 3.21875C277.963 2.92472 277.38 2.7777 276.718 2.7777C276.057 2.7777 275.469 2.92472 274.954 3.21875C274.45 3.51279 274.056 3.93809 273.773 4.49465C273.489 5.04072 273.347 5.68129 273.347 6.41638C273.347 7.15146 273.489 7.79729 273.773 8.35385C274.056 8.91042 274.45 9.34097 274.954 9.64551C275.469 9.93954 276.057 10.0866 276.718 10.0866Z" fill="#1E57AC"/>
<path d="M270.14 4.27823C270.14 4.88063 269.991 5.44537 269.692 5.97246C269.405 6.49955 268.946 6.92445 268.315 7.24716C267.695 7.56987 266.91 7.73123 265.958 7.73123H264.017V12.0555H261.694V0.792969H265.958C266.855 0.792969 267.618 0.943567 268.249 1.24476C268.879 1.54596 269.349 1.9601 269.659 2.48719C269.98 3.01429 270.14 3.6113 270.14 4.27823ZM265.859 5.90792C266.501 5.90792 266.976 5.76808 267.286 5.4884C267.596 5.19796 267.751 4.79457 267.751 4.27823C267.751 3.18102 267.12 2.63241 265.859 2.63241H264.017V5.90792H265.859Z" fill="#1E57AC"/>
<path d="M255.693 12.0555C254.881 12.0555 254.146 11.9243 253.49 11.6617C252.844 11.3992 252.332 11.0212 251.954 10.5276C251.575 10.0341 251.381 9.45123 251.37 8.77916H253.874C253.907 9.23071 254.074 9.58775 254.374 9.85028C254.686 10.1128 255.109 10.2441 255.643 10.2441C256.188 10.2441 256.617 10.1233 256.928 9.88178C257.24 9.62975 257.396 9.30422 257.396 8.90517C257.396 8.57963 257.29 8.31185 257.079 8.10182C256.867 7.8918 256.6 7.72903 256.277 7.61352C255.966 7.4875 255.532 7.35099 254.975 7.20397C254.219 6.99395 253.601 6.78917 253.122 6.58965C252.655 6.37962 252.249 6.06984 251.904 5.66029C251.57 5.24024 251.403 4.68367 251.403 3.99059C251.403 3.33952 251.575 2.77245 251.92 2.28939C252.265 1.80634 252.749 1.43879 253.373 1.18677C253.996 0.924235 254.708 0.792969 255.509 0.792969C256.711 0.792969 257.685 1.07125 258.431 1.62782C259.188 2.17388 259.605 2.94047 259.683 3.92759H257.112C257.09 3.54954 256.917 3.23976 256.595 2.99823C256.283 2.7462 255.866 2.62018 255.343 2.62018C254.886 2.62018 254.519 2.73045 254.241 2.95097C253.974 3.1715 253.84 3.49178 253.84 3.91183C253.84 4.20587 253.94 4.45265 254.141 4.65217C254.352 4.84119 254.608 4.99871 254.909 5.12473C255.22 5.24024 255.654 5.37676 256.211 5.53427C256.967 5.7443 257.585 5.95432 258.064 6.16435C258.542 6.37437 258.954 6.68941 259.299 7.10946C259.644 7.52951 259.816 8.08082 259.816 8.7634C259.816 9.35147 259.655 9.89754 259.332 10.4016C259.01 10.9057 258.537 11.31 257.913 11.6145C257.29 11.9085 256.55 12.0555 255.693 12.0555Z" fill="#1E57AC"/>
<path d="M248.554 12.0555H246.353L241.369 4.3377V12.0555H239.168V0.792969H241.369L246.353 8.52692V0.792969H248.554V12.0555Z" fill="#1E57AC"/>
<path d="M234.279 9.91259H229.964L229.249 12.0555H226.967L230.864 0.792969H233.395L237.291 12.0555H234.994L234.279 9.91259ZM233.69 8.108L232.122 3.40318L230.554 8.108H233.69Z" fill="#1E57AC"/>
<path d="M223.407 12.0555L220.915 7.66669H219.847V12.0555H217.582V0.792969H221.821C222.695 0.792969 223.44 0.948945 224.055 1.2609C224.669 1.56209 225.128 1.97624 225.43 2.50333C225.743 3.01967 225.899 3.60054 225.899 4.24596C225.899 4.98819 225.684 5.66051 225.252 6.2629C224.82 6.85453 224.179 7.2633 223.326 7.4892L226.029 12.0555H223.407ZM219.847 5.97246H221.741C222.355 5.97246 222.814 5.82724 223.116 5.5368C223.418 5.23561 223.569 4.82146 223.569 4.29437C223.569 3.77803 223.418 3.38003 223.116 3.10034C222.814 2.80991 222.355 2.66469 221.741 2.66469H219.847V5.97246Z" fill="#1E57AC"/>
<path d="M215.705 0.792969V2.61628H212.636V12.0555H210.326V2.61628H207.258V0.792969H215.705Z" fill="#1E57AC"/>
<path d="M195.983 0.792969C197.108 0.792969 198.094 1.02424 198.943 1.48679C199.802 1.94934 200.461 2.6109 200.921 3.47146C201.391 4.32126 201.626 5.3109 201.626 6.44039C201.626 7.56987 201.391 8.55952 200.921 9.40932C200.461 10.2484 199.802 10.8992 198.943 11.3617C198.094 11.8243 197.108 12.0555 195.983 12.0555H192.241V0.792969H195.983ZM195.906 10.1354C197.031 10.1354 197.9 9.81271 198.513 9.16729C199.127 8.52187 199.433 7.6129 199.433 6.44039C199.433 5.26788 199.127 4.35353 198.513 3.69736C197.9 3.03042 197.031 2.69696 195.906 2.69696H194.388V10.1354H195.906Z" fill="#1E57AC"/>
<path d="M186.414 9.91259H182.098L181.384 12.0555H179.101L182.998 0.792969H185.529L189.425 12.0555H187.128L186.414 9.91259ZM185.824 8.108L184.256 3.40318L182.688 8.108H185.824Z" fill="#1E57AC"/>
<path d="M172.539 12.0555C171.51 12.0555 170.565 11.814 169.704 11.331C168.843 10.8479 168.16 10.1811 167.656 9.33047C167.152 8.46937 166.9 7.498 166.9 6.41638C166.9 5.34525 167.152 4.38439 167.656 3.53379C168.16 2.67269 168.843 2.00061 169.704 1.51755C170.565 1.0345 171.51 0.792969 172.539 0.792969C173.579 0.792969 174.524 1.0345 175.375 1.51755C176.236 2.00061 176.913 2.67269 177.407 3.53379C177.911 4.38439 178.163 5.34525 178.163 6.41638C178.163 7.498 177.911 8.46937 177.407 9.33047C176.913 10.1811 176.236 10.8479 175.375 11.331C174.514 11.814 173.569 12.0555 172.539 12.0555ZM172.539 10.0866C173.201 10.0866 173.784 9.93954 174.288 9.64551C174.792 9.34097 175.186 8.91042 175.469 8.35385C175.753 7.79729 175.895 7.15146 175.895 6.41638C175.895 5.68129 175.753 5.04072 175.469 4.49465C175.186 3.93809 174.792 3.51279 174.288 3.21875C173.784 2.92472 173.201 2.7777 172.539 2.7777C171.878 2.7777 171.29 2.92472 170.775 3.21875C170.271 3.51279 169.877 3.93809 169.594 4.49465C169.31 5.04072 169.169 5.68129 169.169 6.41638C169.169 7.15146 169.31 7.79729 169.594 8.35385C169.877 8.91042 170.271 9.34097 170.775 9.64551C171.29 9.93954 171.878 10.0866 172.539 10.0866Z" fill="#1E57AC"/>
<path d="M162.402 12.0555L159.91 7.66669H158.842V12.0555H156.576V0.792969H160.816C161.69 0.792969 162.434 0.948945 163.049 1.2609C163.664 1.56209 164.122 1.97624 164.424 2.50333C164.737 3.01967 164.894 3.60054 164.894 4.24596C164.894 4.98819 164.678 5.66051 164.246 6.2629C163.815 6.85453 163.173 7.2633 162.321 7.4892L165.023 12.0555H162.402ZM158.842 5.97246H160.735C161.35 5.97246 161.808 5.82724 162.11 5.5368C162.412 5.23561 162.563 4.82146 162.563 4.29437C162.563 3.77803 162.412 3.38003 162.11 3.10034C161.808 2.80991 161.35 2.66469 160.735 2.66469H158.842V5.97246Z" fill="#1E57AC"/>
<path d="M145.708 2.62978V5.44945H149.52V7.23793H145.708V10.2187H150.006V12.0555H143.437V0.792969H150.006V2.62978H145.708Z" fill="#1E57AC"/>
<path d="M142.498 0.792969V2.61628H139.429V12.0555H137.12V2.61628H134.051V0.792969H142.498Z" fill="#1E57AC"/>
<path d="M129.162 9.91259H124.846L124.132 12.0555H121.85L125.747 0.792969H128.277L132.174 12.0555H129.876L129.162 9.91259ZM128.572 8.108L127.004 3.40318L125.436 8.108H128.572Z" fill="#1E57AC"/>
<path d="M120.911 0.792969V2.61628H117.843V12.0555H115.533V2.61628H112.464V0.792969H120.911Z" fill="#1E57AC"/>
<path d="M107.403 12.0555C106.59 12.0555 105.856 11.9243 105.199 11.6617C104.554 11.3992 104.042 11.0212 103.663 10.5276C103.285 10.0341 103.09 9.45123 103.079 8.77916H105.583C105.616 9.23071 105.783 9.58775 106.084 9.85028C106.395 10.1128 106.818 10.2441 107.353 10.2441C107.898 10.2441 108.326 10.1233 108.638 9.88178C108.95 9.62975 109.105 9.30422 109.105 8.90517C109.105 8.57963 109 8.31185 108.788 8.10182C108.577 7.8918 108.31 7.72903 107.987 7.61352C107.675 7.4875 107.241 7.35099 106.685 7.20397C105.928 6.99395 105.31 6.78917 104.832 6.58965C104.364 6.37962 103.958 6.06984 103.613 5.66029C103.279 5.24024 103.112 4.68367 103.112 3.99059C103.112 3.33952 103.285 2.77245 103.63 2.28939C103.975 1.80634 104.459 1.43879 105.082 1.18677C105.705 0.924235 106.418 0.792969 107.219 0.792969C108.421 0.792969 109.395 1.07125 110.14 1.62782C110.897 2.17388 111.314 2.94047 111.392 3.92759H108.822C108.799 3.54954 108.627 3.23976 108.304 2.99823C107.992 2.7462 107.575 2.62018 107.052 2.62018C106.596 2.62018 106.229 2.73045 105.95 2.95097C105.683 3.1715 105.55 3.49178 105.55 3.91183C105.55 4.20587 105.65 4.45265 105.85 4.65217C106.062 4.84119 106.318 4.99871 106.618 5.12473C106.93 5.24024 107.364 5.37676 107.92 5.53427C108.677 5.7443 109.295 5.95432 109.773 6.16435C110.252 6.37437 110.663 6.68941 111.008 7.10946C111.353 7.52951 111.526 8.08082 111.526 8.7634C111.526 9.35147 111.365 9.89754 111.042 10.4016C110.719 10.9057 110.246 11.31 109.623 11.6145C109 11.9085 108.26 12.0555 107.403 12.0555Z" fill="#1E57AC"/>
<path d="M93.4974 9.91259H89.1814L88.4673 12.0555H86.1852L90.0819 0.792969H92.6124L96.5092 12.0555H94.2115L93.4974 9.91259ZM92.9074 8.108L91.3394 3.40318L89.7714 8.108H92.9074Z" fill="#1E57AC"/>
<path d="M84.3081 12.0555H82.1071L77.1235 4.3377V12.0555H74.9226V0.792969H77.1235L82.1071 8.52692V0.792969H84.3081V12.0555Z" fill="#1E57AC"/>
<path d="M70.0337 9.91259H65.7178L65.0036 12.0555H62.7215L66.6182 0.792969H69.1487L73.0455 12.0555H70.7478L70.0337 9.91259ZM69.4437 8.108L67.8757 3.40318L66.3077 8.108H69.4437Z" fill="#1E57AC"/>
<path d="M58.9108 4.2523C58.6526 3.78895 58.2977 3.43617 57.8459 3.19397C57.3941 2.95176 56.867 2.83066 56.2646 2.83066C55.5976 2.83066 55.006 2.97809 54.4897 3.27295C53.9733 3.5678 53.57 3.98903 53.2795 4.53663C52.9891 5.08422 52.8439 5.71606 52.8439 6.43215C52.8439 7.1693 52.9891 7.81167 53.2795 8.35927C53.5807 8.90686 53.9949 9.32809 54.5219 9.62295C55.049 9.91781 55.6622 10.0652 56.3614 10.0652C57.222 10.0652 57.9265 9.84409 58.4751 9.40181C59.0237 8.94899 59.3841 8.32241 59.5562 7.52208H55.6837V5.8319H61.7829V7.75902C61.6323 8.52776 61.3096 9.23858 60.8148 9.89148C60.32 10.5444 59.6799 11.0709 58.8947 11.4711C58.1202 11.8607 57.2488 12.0555 56.2807 12.0555C55.1943 12.0555 54.21 11.8186 53.3279 11.3447C52.4566 10.8603 51.7682 10.1916 51.2626 9.33862C50.7678 8.48564 50.5203 7.51681 50.5203 6.43215C50.5203 5.34749 50.7678 4.37867 51.2626 3.52568C51.7682 2.66217 52.4566 1.99347 53.3279 1.51959C54.21 1.03517 55.1889 0.792969 56.2646 0.792969C57.5339 0.792969 58.6365 1.09836 59.5724 1.70914C60.5082 2.30939 61.1536 3.15711 61.5086 4.2523H58.9108Z" fill="#1E57AC"/>
<path d="M48.6433 12.0555H46.4423L41.4587 4.3377V12.0555H39.2578V0.792969H41.4587L46.4423 8.52692V0.792969H48.6433V12.0555Z" fill="#1E57AC"/>
<path d="M34.3689 9.91259H30.053L29.3388 12.0555H27.0567L30.9534 0.792969H33.4839L37.3807 12.0555H35.083L34.3689 9.91259ZM33.7789 8.108L32.2109 3.40318L30.6429 8.108H33.7789Z" fill="#1E57AC"/>
<path d="M21.679 10.2645H25.1796V12.0555H19.5483V0.792969H21.679V10.2645Z" fill="#1E57AC"/>
<path d="M13.3724 2.62978V5.44945H17.1845V7.23793H13.3724V10.2187H17.6712V12.0555H11.1014V0.792969H17.6712V2.62978H13.3724Z" fill="#1E57AC"/>
<path d="M9.22427 0.792969V2.61628H6.15566V12.0555H3.84595V2.61628H0.777344V0.792969H9.22427Z" fill="#1E57AC"/>
</svg>
